%TF.GenerationSoftware,KiCad,Pcbnew,5.99.0-unknown-ca42f31bb5~131~ubuntu20.04.1*%
%TF.CreationDate,2021-08-18T11:47:36-07:00*%
%TF.ProjectId,ovc5,6f766335-2e6b-4696-9361-645f70636258,rev?*%
%TF.SameCoordinates,Original*%
%TF.FileFunction,Paste,Bot*%
%TF.FilePolarity,Positive*%
%FSLAX46Y46*%
G04 Gerber Fmt 4.6, Leading zero omitted, Abs format (unit mm)*
G04 Created by KiCad (PCBNEW 5.99.0-unknown-ca42f31bb5~131~ubuntu20.04.1) date 2021-08-18 11:47:36*
%MOMM*%
%LPD*%
G01*
G04 APERTURE LIST*
G04 Aperture macros list*
%AMRoundRect*
0 Rectangle with rounded corners*
0 $1 Rounding radius*
0 $2 $3 $4 $5 $6 $7 $8 $9 X,Y pos of 4 corners*
0 Add a 4 corners polygon primitive as box body*
4,1,4,$2,$3,$4,$5,$6,$7,$8,$9,$2,$3,0*
0 Add four circle primitives for the rounded corners*
1,1,$1+$1,$2,$3*
1,1,$1+$1,$4,$5*
1,1,$1+$1,$6,$7*
1,1,$1+$1,$8,$9*
0 Add four rect primitives between the rounded corners*
20,1,$1+$1,$2,$3,$4,$5,0*
20,1,$1+$1,$4,$5,$6,$7,0*
20,1,$1+$1,$6,$7,$8,$9,0*
20,1,$1+$1,$8,$9,$2,$3,0*%
G04 Aperture macros list end*
%ADD10RoundRect,0.079500X-0.079500X-0.100500X0.079500X-0.100500X0.079500X0.100500X-0.079500X0.100500X0*%
%ADD11RoundRect,0.140000X-0.170000X0.140000X-0.170000X-0.140000X0.170000X-0.140000X0.170000X0.140000X0*%
%ADD12RoundRect,0.079500X0.079500X0.100500X-0.079500X0.100500X-0.079500X-0.100500X0.079500X-0.100500X0*%
%ADD13RoundRect,0.079500X0.100500X-0.079500X0.100500X0.079500X-0.100500X0.079500X-0.100500X-0.079500X0*%
%ADD14RoundRect,0.079500X-0.100500X0.079500X-0.100500X-0.079500X0.100500X-0.079500X0.100500X0.079500X0*%
%ADD15R,0.300000X0.300000*%
%ADD16RoundRect,0.200000X0.200000X0.275000X-0.200000X0.275000X-0.200000X-0.275000X0.200000X-0.275000X0*%
%ADD17RoundRect,0.135000X-0.135000X-0.185000X0.135000X-0.185000X0.135000X0.185000X-0.135000X0.185000X0*%
%ADD18RoundRect,0.135000X-0.185000X0.135000X-0.185000X-0.135000X0.185000X-0.135000X0.185000X0.135000X0*%
%ADD19RoundRect,0.135000X0.185000X-0.135000X0.185000X0.135000X-0.185000X0.135000X-0.185000X-0.135000X0*%
%ADD20R,0.500000X0.600000*%
%ADD21RoundRect,0.140000X0.140000X0.170000X-0.140000X0.170000X-0.140000X-0.170000X0.140000X-0.170000X0*%
G04 APERTURE END LIST*
D10*
%TO.C,C18*%
X55632000Y-56653000D03*
X56322000Y-56653000D03*
%TD*%
D11*
%TO.C,C21*%
X53226000Y-66338000D03*
X53226000Y-67298000D03*
%TD*%
D12*
%TO.C,C31*%
X64593000Y-62438000D03*
X63903000Y-62438000D03*
%TD*%
D13*
%TO.C,C50*%
X56968000Y-62990000D03*
X56968000Y-62300000D03*
%TD*%
%TO.C,C48*%
X62520000Y-62979000D03*
X62520000Y-62289000D03*
%TD*%
D14*
%TO.C,C34*%
X60393000Y-53929000D03*
X60393000Y-54619000D03*
%TD*%
D12*
%TO.C,C32*%
X63981000Y-61655000D03*
X64671000Y-61655000D03*
%TD*%
D15*
%TO.C,D5*%
X42424000Y-42144000D03*
X42424000Y-41444000D03*
X43274000Y-41794000D03*
%TD*%
D10*
%TO.C,C46*%
X55414000Y-61223000D03*
X56104000Y-61223000D03*
%TD*%
D16*
%TO.C,R8*%
X48695000Y-71850000D03*
X47045000Y-71850000D03*
%TD*%
D14*
%TO.C,C51*%
X56428000Y-54644000D03*
X56428000Y-53954000D03*
%TD*%
D13*
%TO.C,C44*%
X61770000Y-62979000D03*
X61770000Y-62289000D03*
%TD*%
D14*
%TO.C,C38*%
X59642000Y-54618000D03*
X59642000Y-53928000D03*
%TD*%
D17*
%TO.C,R65*%
X53717000Y-52109000D03*
X54737000Y-52109000D03*
%TD*%
D14*
%TO.C,C40*%
X58587000Y-53891000D03*
X58587000Y-54581000D03*
%TD*%
D10*
%TO.C,C81*%
X53180000Y-38325000D03*
X53870000Y-38325000D03*
%TD*%
D14*
%TO.C,C19*%
X63940000Y-53926000D03*
X63940000Y-54616000D03*
%TD*%
%TO.C,C39*%
X54085000Y-65293000D03*
X54085000Y-65983000D03*
%TD*%
D13*
%TO.C,C49*%
X59775000Y-62289000D03*
X59775000Y-62979000D03*
%TD*%
D12*
%TO.C,C30*%
X63974000Y-57196000D03*
X64664000Y-57196000D03*
%TD*%
%TO.C,C43*%
X64032000Y-59218000D03*
X64722000Y-59218000D03*
%TD*%
D14*
%TO.C,C24*%
X63190000Y-53929000D03*
X63190000Y-54619000D03*
%TD*%
D12*
%TO.C,C27*%
X64591000Y-63188000D03*
X63901000Y-63188000D03*
%TD*%
D13*
%TO.C,C53*%
X57718000Y-62301000D03*
X57718000Y-62991000D03*
%TD*%
D18*
%TO.C,R63*%
X56030000Y-57468000D03*
X56030000Y-58488000D03*
%TD*%
D14*
%TO.C,C41*%
X64748000Y-54831000D03*
X64748000Y-54141000D03*
%TD*%
%TO.C,C45*%
X65498000Y-54833000D03*
X65498000Y-54143000D03*
%TD*%
D12*
%TO.C,C47*%
X64032000Y-58469000D03*
X64722000Y-58469000D03*
%TD*%
D13*
%TO.C,C10*%
X58857000Y-50699000D03*
X58857000Y-50009000D03*
%TD*%
D14*
%TO.C,C25*%
X61179000Y-53930000D03*
X61179000Y-54620000D03*
%TD*%
D12*
%TO.C,C82*%
X42195000Y-38250000D03*
X41505000Y-38250000D03*
%TD*%
D10*
%TO.C,C77*%
X44883000Y-62976000D03*
X44193000Y-62976000D03*
%TD*%
D14*
%TO.C,C35*%
X54835000Y-65294000D03*
X54835000Y-65984000D03*
%TD*%
%TO.C,C28*%
X57838000Y-53887000D03*
X57838000Y-54577000D03*
%TD*%
D12*
%TO.C,C80*%
X42195000Y-39200000D03*
X41505000Y-39200000D03*
%TD*%
D10*
%TO.C,C22*%
X56320000Y-55905000D03*
X55630000Y-55905000D03*
%TD*%
D14*
%TO.C,C89*%
X81620000Y-68425000D03*
X81620000Y-69115000D03*
%TD*%
%TO.C,C54*%
X55678000Y-53956000D03*
X55678000Y-54646000D03*
%TD*%
D13*
%TO.C,C52*%
X60526000Y-62289000D03*
X60526000Y-62979000D03*
%TD*%
D12*
%TO.C,C33*%
X53298000Y-64475000D03*
X52608000Y-64475000D03*
%TD*%
D10*
%TO.C,C75*%
X44193000Y-62276000D03*
X44883000Y-62276000D03*
%TD*%
D12*
%TO.C,C26*%
X64665000Y-56446000D03*
X63975000Y-56446000D03*
%TD*%
D14*
%TO.C,C88*%
X80620000Y-68425000D03*
X80620000Y-69115000D03*
%TD*%
D19*
%TO.C,R64*%
X56030000Y-60399000D03*
X56030000Y-59379000D03*
%TD*%
D12*
%TO.C,C37*%
X52609000Y-63724000D03*
X53299000Y-63724000D03*
%TD*%
D14*
%TO.C,C29*%
X61928000Y-54619000D03*
X61928000Y-53929000D03*
%TD*%
D19*
%TO.C,R15*%
X62712000Y-50728000D03*
X62712000Y-49708000D03*
%TD*%
D20*
%TO.C,X1*%
X57956000Y-49802000D03*
X57956000Y-50902000D03*
X57156000Y-50902000D03*
X57156000Y-49802000D03*
%TD*%
D18*
%TO.C,R16*%
X63702000Y-49711000D03*
X63702000Y-50731000D03*
%TD*%
D12*
%TO.C,C36*%
X64671000Y-60903000D03*
X63981000Y-60903000D03*
%TD*%
D10*
%TO.C,C79*%
X53870000Y-39275000D03*
X53180000Y-39275000D03*
%TD*%
%TO.C,C42*%
X56099000Y-61970000D03*
X55409000Y-61970000D03*
%TD*%
D21*
%TO.C,C20*%
X52220000Y-65332000D03*
X51260000Y-65332000D03*
%TD*%
M02*
