M48
; DRILL file {KiCad 5.99.0-unknown-ca42f31bb5~131~ubuntu20.04.1} date Wed Aug 18 11:47:22 2021
; FORMAT={-:-/ absolute / inch / decimal}
; #@! TF.CreationDate,2021-08-18T11:47:22-07:00
; #@! TF.GenerationSoftware,Kicad,Pcbnew,5.99.0-unknown-ca42f31bb5~131~ubuntu20.04.1
; #@! TF.FileFunction,Plated,1,6,PTH
FMAT,2
INCH
; #@! TA.AperFunction,Plated,PTH,ViaDrill
T1C0.0060
; #@! TA.AperFunction,Plated,PTH,ComponentDrill
T2C0.0079
; #@! TA.AperFunction,Plated,PTH,ViaDrill
T3C0.0080
; #@! TA.AperFunction,Plated,PTH,ComponentDrill
T4C0.0118
; #@! TA.AperFunction,Plated,PTH,ComponentDrill
T5C0.0121
; #@! TA.AperFunction,Plated,PTH,ComponentDrill
T6C0.0130
; #@! TA.AperFunction,Plated,PTH,ViaDrill
T7C0.0150
; #@! TA.AperFunction,Plated,PTH,ComponentDrill
T8C0.0276
; #@! TA.AperFunction,Plated,PTH,ComponentDrill
T9C0.0335
; #@! TA.AperFunction,Plated,PTH,ComponentDrill
T10C0.0394
; #@! TA.AperFunction,Plated,PTH,ComponentDrill
T11C0.0469
; #@! TA.AperFunction,Plated,PTH,ComponentDrill
T12C0.0630
; #@! TA.AperFunction,Plated,PTH,ComponentDrill
T13C0.0669
; #@! TA.AperFunction,Plated,PTH,ComponentDrill
T14C0.0906
; #@! TA.AperFunction,Plated,PTH,ComponentDrill
T15C0.1260
%
G90
G05
T1
X1.5218Y-1.973
X1.5783Y-1.9592
X1.6129Y-2.0539
X1.6165Y-2.0017
X1.6532Y-2.233
X1.6532Y-2.254
X1.6545Y-2.3904
X1.6545Y-2.4114
X1.6584Y-2.3559
X1.6604Y-2.3059
X1.6609Y-1.9567
X1.6615Y-2.3372
X1.687Y-1.6454
X1.689Y-2.0039
X1.6917Y-2.0539
X1.7335Y-2.3686
X1.7377Y-2.2099
X1.7406Y-2.388
X1.7514Y-2.3172
X1.7677Y-1.9567
X1.7677Y-2.0039
X1.7704Y-2.0539
X1.786Y-1.9254
X1.7872Y-2.3355
X1.8003Y-2.4896
X1.8005Y-2.3881
X1.802Y-2.4348
X1.8038Y-2.2112
X1.8422Y-2.2583
X1.8465Y-2.0039
X1.8481Y-2.326
X1.8481Y-2.347
X1.8491Y-2.0539
X1.857Y-2.2435
X1.8573Y-2.4878
X1.8573Y-2.4365
X1.8628Y-2.2847
X1.8654Y-2.3881
X1.8661Y-2.1917
X1.8757Y-1.9255
X1.8858Y-1.9567
X1.9165Y-2.4257
X1.9173Y-2.488
X1.9181Y-2.3806
X1.9228Y-2.2392
X1.9252Y-2.0039
X1.9262Y-2.1917
X1.9279Y-2.0539
X1.9765Y-2.4258
X1.977Y-2.3806
X1.9777Y-2.1605
X2.0039Y-1.9567
X2.0039Y-2.0039
X2.0045Y-2.2383
X2.0045Y-2.286
X2.0066Y-2.0539
X2.0171Y-2.4581
X2.0352Y-2.3737
X2.0397Y-1.6845
X2.0408Y-1.6209
X2.0423Y-1.7533
X2.0423Y-1.7743
X2.043Y-1.725
X2.0433Y-2.0039
X2.0439Y-1.8014
X2.0478Y-1.9088
X2.0577Y-1.5048
X2.0581Y-1.5522
X2.0636Y-2.286
X2.0641Y-2.238
X2.0679Y-2.1815
X2.0707Y-2.4302
X2.0715Y-2.3564
X2.0815Y-1.8508
X2.0827Y-2.1666
X2.0863Y-2.3712
X2.0938Y-2.0333
X2.1117Y-1.9326
X2.1181Y-1.7874
X2.1181Y-1.7402
X2.128Y-1.6457
X2.1287Y-1.6112
X2.1287Y-1.683
X2.1409Y-1.9111
X2.1614Y-1.9567
X2.1693Y-2.1031
X2.1807Y-1.8327
X2.1894Y-2.0226
X2.1921Y-2.4969
X2.1969Y-1.7402
X2.1969Y-1.7874
X2.2007Y-1.8789
X2.2008Y-1.9567
X2.2008Y-2.0039
X2.2047Y-1.5511
X2.2047Y-1.5039
X2.2131Y-2.4969
X2.2156Y-1.668
X2.2156Y-1.6227
X2.2594Y-1.8327
X2.273Y-1.8994
X2.2756Y-1.7402
X2.2756Y-1.7874
X2.2834Y-1.5039
X2.2834Y-1.5511
X2.2943Y-1.668
X2.2962Y-1.8558
X2.2977Y-1.9229
X2.3121Y-1.5683
X2.3278Y-1.636
X2.3338Y-1.8461
X2.3402Y-1.8035
X2.3406Y-1.5276
X2.3413Y-1.7158
X2.3416Y-1.9003
X2.3503Y-2.652
X2.3629Y-1.6175
X2.3651Y-2.6372
X2.3667Y-1.763
X2.368Y-1.8898
X2.368Y-1.9685
X2.3694Y-1.6787
X2.4149Y-1.6052
X2.4149Y-1.684
X2.4149Y-1.7233
X2.4213Y-1.8701
X2.4214Y-1.7936
X2.4409Y-1.8504
X2.4409Y-1.9291
X2.4478Y-1.7552
X2.4941Y-1.8099
X2.4941Y-1.8493
X2.4941Y-1.928
X2.5804Y-2.7709
X2.5952Y-2.7561
X2.6673Y-2.8105
X2.6821Y-2.7956
X2.695Y-1.4135
X2.8484Y-1.161
X3.1982Y-2.5254
X3.2131Y-2.5105
X3.7838Y-4.4967
X4.096Y-4.5554
X4.096Y-4.5764
X4.1265Y-4.5218
X4.1265Y-4.5428
T2
X2.0835Y-2.9332
X2.0835Y-2.9706
X2.0835Y-3.008
X2.1209Y-2.8958
X2.1209Y-2.9332
X2.1209Y-2.9706
X2.1209Y-3.008
X2.1209Y-3.0454
X2.1583Y-2.9332
X2.1583Y-2.9706
X2.1583Y-3.008
T3
X1.378Y-2.6575
X1.378Y-2.7362
X1.378Y-2.815
X1.378Y-2.8937
X1.378Y-2.9724
X1.378Y-3.0512
X1.378Y-3.1299
X1.378Y-3.2087
X1.378Y-3.2874
X1.378Y-3.3661
X1.378Y-3.4449
X1.378Y-3.5236
X1.378Y-3.6024
X1.378Y-3.6811
X1.378Y-3.7598
X1.378Y-3.8386
X1.378Y-3.9173
X1.378Y-3.9961
X1.378Y-4.0748
X1.378Y-4.1535
X1.378Y-4.2323
X1.378Y-4.311
X1.378Y-4.3898
X1.378Y-4.4685
X1.378Y-4.5472
X1.4567Y-4.5472
X1.5354Y-4.5472
X1.5981Y-2.4021
X1.6142Y-2.6535
X1.6142Y-2.7677
X1.6732Y-1.0827
X1.6732Y-1.1614
X1.6732Y-1.2402
X1.6732Y-1.3189
X1.6732Y-4.626
X1.6732Y-4.7047
X1.6732Y-4.7835
X1.6732Y-4.8622
X1.7244Y-2.6496
X1.752Y-1.0827
X1.752Y-4.8622
X1.819Y-1.9256
X1.8307Y-1.0827
X1.8307Y-4.8622
X1.8417Y-2.776
X1.844Y-1.9256
X1.8476Y-2.6358
X1.9055Y-3.2579
X1.9094Y-1.0827
X1.9094Y-4.8622
X1.9504Y-2.1256
X1.9746Y-2.1302
X1.9882Y-1.0827
X1.9882Y-4.8622
X2.0209Y-2.5252
X2.0531Y-1.6565
X2.0534Y-2.6152
X2.0669Y-1.0827
X2.0669Y-4.8622
X2.0776Y-3.1881
X2.0795Y-2.7196
X2.0797Y-1.6575
X2.0865Y-4.6028
X2.0876Y-3.4429
X2.0925Y-3.499
X2.1027Y-1.8731
X2.1041Y-3.1881
X2.1061Y-2.7196
X2.1105Y-4.6028
X2.1204Y-1.8908
X2.1299Y-3.499
X2.1327Y-2.7196
X2.1346Y-3.1881
X2.1377Y-2.5094
X2.1378Y-3.2795
X2.1444Y-2.6302
X2.1457Y-1.0827
X2.1457Y-4.8622
X2.1458Y-4.7934
X2.1558Y-2.0852
X2.1579Y-2.5391
X2.1583Y-2.7196
X2.1652Y-3.1891
X2.1709Y-2.3843
X2.1742Y-3.5551
X2.1745Y-2.2774
X2.1745Y-2.36
X2.1752Y-2.3352
X2.1753Y-2.3078
X2.1764Y-2.2163
X2.1798Y-2.4725
X2.2005Y-1.9051
X2.2005Y-1.9301
X2.2072Y-2.1052
X2.2077Y-3.5571
X2.2146Y-4.2953
X2.2175Y-4.0443
X2.2244Y-1.0827
X2.2244Y-4.8622
X2.2273Y-4.1439
X2.2323Y-4.3632
X2.2323Y-4.3872
X2.2345Y-4.0612
X2.2365Y-2.6587
X2.2443Y-4.1608
X2.248Y-4.8268
X2.249Y-3.6634
X2.2542Y-2.641
X2.2573Y-2.4981
X2.2756Y-2.8461
X2.2894Y-3.2854
X2.2928Y-2.1037
X2.2935Y-3.7385
X2.3031Y-1.0827
X2.3081Y-3.4695
X2.3091Y-3.7028
X2.3268Y-3.7644
X2.3346Y-4.1457
X2.3559Y-4.3406
X2.3618Y-4.1409
X2.3631Y-2.1054
X2.3682Y-2.4979
X2.3776Y-4.3311
X2.3819Y-1.0827
X2.3925Y-4.3075
X2.3976Y-4.4402
X2.4034Y-3.7195
X2.4037Y-3.744
X2.4178Y-4.2961
X2.4212Y-2.0236
X2.4224Y-4.4413
X2.4233Y-2.1036
X2.4389Y-2.0059
X2.4433Y-4.3398
X2.4439Y-3.5581
X2.4439Y-3.685
X2.4454Y-2.781
X2.4467Y-2.4981
X2.4469Y-4.4421
X2.4478Y-3.7352
X2.4567Y-3.6457
X2.4606Y-1.0827
X2.463Y-2.7633
X2.4651Y-4.3139
X2.4728Y-3.7558
X2.498Y-3.1047
X2.5Y-2.0214
X2.5024Y-2.1055
X2.52Y-1.9239
X2.5394Y-1.0827
X2.5512Y-4.8583
X2.5556Y-4.3181
X2.5599Y-2.108
X2.563Y-2.4724
X2.5634Y-2.4118
X2.5642Y-2.237
X2.5656Y-2.3164
X2.5906Y-4.1717
X2.6181Y-1.0827
X2.6378Y-4.8583
X2.6437Y-1.1063
X2.6634Y-4.8276
X2.6657Y-4.7869
X2.6969Y-1.0827
X2.7342Y-2.2853
X2.7471Y-2.2543
X2.752Y-1.2972
X2.7559Y-3.5039
X2.7559Y-3.5295
X2.7756Y-1.0827
X2.7819Y-2.3154
X2.7913Y-4.7323
X2.8189Y-2.748
X2.8189Y-4.748
X2.8193Y-2.5512
X2.8228Y-4.1457
X2.8228Y-4.1811
X2.8268Y-4.4921
X2.8268Y-4.5354
X2.8396Y-2.1976
X2.8543Y-1.0827
X2.8589Y-3.112
X2.8661Y-4.1457
X2.8661Y-4.1811
X2.8661Y-4.8583
X2.874Y-4.4921
X2.874Y-4.5354
X2.8844Y-2.0392
X2.8848Y-2.1526
X2.8904Y-1.2476
X2.8923Y-1.2161
X2.901Y-1.8667
X2.901Y-1.9218
X2.9012Y-1.8013
X2.9048Y-2.9951
X2.9173Y-2.748
X2.9248Y-3.1934
X2.9344Y-1.471
X2.937Y-4.1998
X2.9374Y-2.5469
X2.94Y-4.4862
X2.9528Y-4.8583
X2.9567Y-2.7485
X2.9643Y-2.6433
X2.9756Y-1.7742
X2.978Y-2.5484
X2.9893Y-2.6433
X2.9941Y-4.1988
X2.9961Y-2.7489
X3.0079Y-4.7795
X3.0154Y-2.5469
X3.022Y-2.9166
X3.0354Y-2.8307
X3.0356Y-4.4024
X3.0397Y-2.9342
X3.0421Y-3.2937
X3.0472Y-4.7756
X3.0487Y-3.2571
X3.052Y-2.9871
X3.0551Y-2.5472
X3.0551Y-4.5512
X3.0561Y-4.2018
X3.0644Y-1.6482
X3.0748Y-2.8307
X3.077Y-2.9861
X3.0846Y-2.1697
X3.087Y-4.405
X3.0883Y-3.2568
X3.0915Y-2.5459
X3.0945Y-2.626
X3.1063Y-4.7441
X3.1086Y-2.1697
X3.1142Y-2.8307
X3.115Y-4.2017
X3.1161Y-4.4051
X3.1176Y-1.986
X3.12Y-2.5442
X3.1299Y-4.7559
X3.1339Y-2.6339
X3.1339Y-4.3858
X3.1409Y-2.7496
X3.1469Y-3.1084
X3.1537Y-4.481
X3.1543Y-2.8295
X3.1706Y-4.3899
X3.1732Y-4.8583
X3.174Y-2.7535
X3.1744Y-2.5508
X3.175Y-4.2022
X3.1807Y-1.8543
X3.1831Y-1.6378
X3.1937Y-2.8307
X3.1942Y-4.3899
X3.2111Y-3.7575
X3.2126Y-2.7543
X3.213Y-2.624
X3.2145Y-4.4051
X3.2251Y-1.7042
X3.2313Y-4.1988
X3.2323Y-4.3858
X3.233Y-1.3217
X3.2331Y-2.8291
X3.2362Y-3.2315
X3.2411Y-2.2202
X3.2457Y-2.748
X3.252Y-2.5433
X3.2579Y-4.3852
X3.2677Y-4.8583
X3.2724Y-4.4059
X3.2913Y-4.2776
X3.2917Y-1.5031
X3.2953Y-2.8346
X3.3076Y-2.6323
X3.315Y-4.5512
X3.3189Y-4.7756
X3.328Y-1.75
X3.3287Y-2.86
X3.3418Y-2.1025
X3.3424Y-1.8644
X3.3504Y-2.752
X3.3504Y-4.2815
X3.3583Y-4.7795
X3.3701Y-2.5413
X3.373Y-2.8589
X3.3795Y-1.5152
X3.3862Y-4.1346
X3.3898Y-4.4843
X3.3944Y-1.3571
X3.3976Y-4.7717
X3.4004Y-1.7413
X3.4094Y-2.8307
X3.4189Y-4.1378
X3.4227Y-1.908
X3.4291Y-2.5512
X3.437Y-4.7677
X3.44Y-2.2784
X3.44Y-2.3024
X3.4504Y-1.5908
X3.4516Y-1.2102
X3.4535Y-1.9874
X3.4587Y-1.7215
X3.4594Y-3.9062
X3.4646Y-4.4961
X3.4685Y-2.8327
X3.4685Y-4.2028
X3.4724Y-4.8583
X3.4787Y-3.8891
X3.4882Y-2.626
X3.4882Y-4.5236
X3.5089Y-4.4833
X3.5098Y-3.8929
X3.5102Y-2.8941
X3.5236Y-4.5394
X3.5276Y-2.8307
X3.5291Y-3.9102
X3.5349Y-4.2808
X3.5354Y-4.8583
X3.5472Y-2.626
X3.5472Y-4.5118
X3.5668Y-4.4959
X3.5754Y-3.8891
X3.5827Y-4.5512
X3.5869Y-4.2883
X3.5886Y-2.75
X3.5926Y-2.5137
X3.5953Y-3.9057
X3.6063Y-2.626
X3.6063Y-4.5512
X3.6187Y-3.8944
X3.6225Y-3.6324
X3.6261Y-1.3801
X3.627Y-4.4045
X3.6336Y-4.2006
X3.6405Y-3.906
X3.6457Y-2.7559
X3.6648Y-2.5374
X3.665Y-3.8959
X3.6807Y-3.7268
X3.6868Y-3.9097
X3.7028Y-3.7551
X3.7047Y-4.4852
X3.7063Y-1.4898
X3.7205Y-1.0827
X3.7205Y-4.5079
X3.7209Y-1.9665
X3.7209Y-2.0535
X3.7224Y-3.9028
X3.7252Y-2.8678
X3.7362Y-2.8307
X3.7394Y-4.293
X3.7417Y-3.9201
X3.7441Y-4.5276
X3.747Y-4.1978
X3.7618Y-4.5512
X3.7657Y-1.6917
X3.7665Y-1.3783
X3.7677Y-2.5472
X3.7726Y-4.5728
X3.7768Y-3.9224
X3.7818Y-2.1084
X3.7949Y-3.9028
X3.7992Y-1.0827
X3.8022Y-4.5778
X3.8058Y-2.1084
X3.8061Y-4.1742
X3.8276Y-4.1947
X3.8311Y-3.9283
X3.8393Y-4.3974
X3.8427Y-2.7545
X3.8492Y-3.9098
X3.8586Y-1.5353
X3.8622Y-2.626
X3.8622Y-4.3958
X3.8623Y-4.2793
X3.8634Y-1.9689
X3.8724Y-1.4445
X3.878Y-1.0827
X3.8839Y-3.9295
X3.8839Y-4.4035
X3.8858Y-4.3055
X3.9012Y-3.9102
X3.9078Y-4.3123
X3.9106Y-3.3576
X3.9142Y-3.1945
X3.9175Y-2.3401
X3.9195Y-2.5073
X3.9196Y-2.6856
X3.9196Y-2.7096
X3.9203Y-3.0423
X3.9217Y-1.5413
X3.924Y-2.1705
X3.9276Y-4.3252
X3.9276Y-3.3406
X3.9312Y-3.1775
X3.9344Y-2.3231
X3.9351Y-3.9283
X3.9373Y-3.0253
X3.9406Y-2.7469
X3.9435Y-2.5073
X3.9465Y-4.3386
X3.9528Y-3.9098
X3.9567Y-1.0827
X3.9606Y-2.622
X3.9626Y-4.4833
X3.9654Y-4.2008
X3.9665Y-4.3498
X3.9677Y-1.374
X3.9815Y-1.8118
X3.9911Y-4.4823
X3.9961Y-4.4035
X4.0Y-2.8346
X4.0104Y-1.9886
X4.0154Y-3.7298
X4.0189Y-3.7557
X4.0197Y-4.4045
X4.0344Y-1.9886
X4.0354Y-1.0827
X4.0406Y-4.395
X4.0526Y-4.3671
X4.0591Y-2.626
X4.0594Y-2.7591
X4.0753Y-1.662
X4.0926Y-4.0487
X4.0957Y-4.0177
X4.1122Y-1.0827
X4.1181Y-4.1988
X4.122Y-2.5512
X4.1378Y-4.4075
X4.1535Y-1.6343
X4.1566Y-3.4369
X4.1575Y-2.8268
X4.1575Y-4.1988
X4.1736Y-3.4199
X4.1772Y-2.5425
X4.1791Y-4.4055
X4.1823Y-2.2497
X4.1868Y-2.6696
X4.1868Y-2.6936
X4.1909Y-1.0827
X4.1969Y-4.1998
X4.1969Y-4.8504
X4.2091Y-1.9793
X4.2102Y-1.7437
X4.2165Y-4.4783
X4.2171Y-2.8266
X4.2345Y-4.0553
X4.2345Y-4.3697
X4.2362Y-2.5433
X4.2404Y-3.2819
X4.2541Y-2.0365
X4.2541Y-2.4099
X4.2567Y-1.9238
X4.2571Y-1.9008
X4.2574Y-3.2989
X4.2585Y-4.0553
X4.2585Y-4.3697
X4.2625Y-1.8509
X4.2697Y-1.0827
X4.2756Y-2.8346
X4.2781Y-2.0365
X4.2781Y-2.4099
X4.2935Y-4.1807
X4.2935Y-4.3512
X4.2945Y-2.6217
X4.313Y-4.5015
X4.3131Y-2.8725
X4.3156Y-2.0978
X4.3175Y-4.1807
X4.3175Y-4.3512
X4.33Y-2.8555
X4.3335Y-2.6972
X4.3358Y-2.7547
X4.3504Y-1.0827
X4.3505Y-2.6802
X4.3543Y-2.5472
X4.3545Y-4.1642
X4.3713Y-1.7366
X4.3764Y-1.8346
X4.3844Y-4.1642
X4.3923Y-4.3513
X4.3946Y-2.7503
X4.3973Y-2.9101
X4.4143Y-2.8931
X4.4291Y-1.0827
X4.4309Y-1.7831
X4.4331Y-4.2807
X4.4366Y-1.6275
X4.4528Y-4.4872
X4.5079Y-1.0827
X4.5495Y-1.6667
X4.5866Y-1.0827
X4.5906Y-4.8504
X4.6213Y-1.6343
X4.6654Y-1.0827
X4.6829Y-1.9807
X4.6885Y-2.2145
X4.6915Y-3.6341
X4.6915Y-3.6581
X4.7091Y-1.7437
X4.7129Y-2.1625
X4.7299Y-2.1455
X4.7421Y-1.9115
X4.7421Y-1.9355
X4.7441Y-1.0827
X4.7724Y-2.0986
X4.7799Y-1.8602
X4.7933Y-2.4299
X4.8035Y-2.9029
X4.8081Y-3.4518
X4.8205Y-2.8859
X4.8315Y-3.602
X4.837Y-3.9957
X4.8425Y-1.0827
X4.8425Y-1.1614
X4.8425Y-1.2402
X4.8425Y-1.3189
X4.8425Y-1.4173
X4.8484Y-1.7413
X4.8583Y-4.6063
X4.8583Y-4.7244
X4.8583Y-4.8425
X4.878Y-1.8185
X4.8921Y-3.4142
X4.8976Y-4.5512
X4.9141Y-1.6242
X4.9213Y-1.4173
X4.9441Y-2.6154
X4.9445Y-3.0114
X4.9449Y-2.8567
X4.9476Y-4.1543
X4.948Y-2.3031
X4.9488Y-3.761
X4.9537Y-2.429
X4.9604Y-3.5715
X4.9921Y-4.5512
X4.9947Y-2.8146
X5.0Y-1.4173
X5.0115Y-2.4276
X5.0116Y-2.7977
X5.0465Y-3.5669
X5.0492Y-2.4504
X5.0492Y-4.2746
X5.052Y-2.737
X5.0524Y-2.498
X5.0547Y-3.5169
X5.0571Y-2.8921
X5.0787Y-4.5512
X5.0984Y-1.4173
X5.1063Y-3.6083
X5.1083Y-3.8494
X5.1083Y-4.001
X5.1106Y-3.1559
X5.1148Y-2.4546
X5.1192Y-2.1334
X5.1608Y-3.2756
X5.1732Y-1.4173
X5.1732Y-1.4961
X5.1732Y-1.5748
X5.1732Y-1.6535
X5.1732Y-1.7323
X5.1732Y-1.811
X5.1732Y-1.8898
X5.1732Y-1.9685
X5.1732Y-2.0472
X5.1732Y-2.126
X5.1732Y-2.2047
X5.1732Y-2.2835
X5.1732Y-2.3622
X5.1732Y-2.5197
X5.1732Y-2.5984
X5.1732Y-2.6772
X5.1732Y-2.7559
X5.1732Y-2.8346
X5.1732Y-2.9134
X5.1732Y-2.9921
X5.1732Y-3.0709
X5.1732Y-3.1496
X5.1732Y-3.2283
X5.1732Y-3.3071
X5.1732Y-3.3858
X5.1732Y-3.4646
X5.1732Y-3.5433
X5.1732Y-3.622
X5.1732Y-3.7008
X5.1732Y-3.7795
X5.1732Y-3.8583
X5.1732Y-3.937
X5.1732Y-4.0157
X5.1732Y-4.0945
X5.1732Y-4.1732
X5.1732Y-4.252
X5.1732Y-4.3307
X5.1732Y-4.4094
X5.1732Y-4.4882
X5.1732Y-4.5512
T4
X2.7321Y-1.1689
X2.7321Y-1.2366
X2.751Y-1.2028
X2.7699Y-1.1689
X2.7699Y-1.2366
X2.7937Y-1.6592
X2.8165Y-1.671
X2.8394Y-1.6592
X2.8882Y-1.6592
X2.8882Y-1.7045
X2.9031Y-1.6824
X2.9177Y-1.6592
X2.9177Y-1.7045
X2.9327Y-1.6824
X2.9472Y-1.6592
X2.9472Y-1.7045
T5
X2.314Y-3.564
X2.314Y-3.6122
X2.3622Y-3.564
X2.3622Y-3.6122
T6
X2.2498Y-2.1827
X2.2498Y-2.2299
X2.2498Y-2.2772
X2.2498Y-2.3244
X2.2498Y-2.3717
X2.2498Y-2.4189
X2.297Y-2.1827
X2.297Y-2.2299
X2.297Y-2.2772
X2.297Y-2.3244
X2.297Y-2.3717
X2.297Y-2.4189
X2.3443Y-2.1827
X2.3443Y-2.2299
X2.3443Y-2.2772
X2.3443Y-2.3244
X2.3443Y-2.3717
X2.3443Y-2.4189
X2.3915Y-2.1827
X2.3915Y-2.2299
X2.3915Y-2.2772
X2.3915Y-2.3244
X2.3915Y-2.3717
X2.3915Y-2.4189
X2.4388Y-2.1827
X2.4388Y-2.2299
X2.4388Y-2.2772
X2.4388Y-2.3244
X2.4388Y-2.3717
X2.4388Y-2.4189
X2.486Y-2.1827
X2.486Y-2.2299
X2.486Y-2.2772
X2.486Y-2.3244
X2.486Y-2.3717
X2.486Y-2.4189
T7
X1.4173Y-2.0079
X1.4583Y-2.7553
X1.4988Y-3.2059
X1.6988Y-1.2776
X1.75Y-2.6213
X1.7894Y-1.3661
X1.7953Y-2.7854
X1.8012Y-2.6309
X1.8583Y-1.3642
X1.9452Y-2.7855
X1.9488Y-1.3031
X2.0935Y-3.7195
X2.102Y-4.7039
X2.1752Y-1.1575
X2.5256Y-1.1516
X2.6202Y-1.8881
X2.6212Y-1.8331
X2.6674Y-1.833
X2.6674Y-1.8881
X2.7127Y-1.833
X2.7127Y-1.8881
X2.7366Y-1.5576
X2.7386Y-1.4887
X2.8262Y-1.4878
X2.8862Y-1.4878
X2.9705Y-4.1083
X3.0276Y-4.5354
X4.6476Y-4.8307
T8
X1.7909Y-1.5079
X1.7909Y-1.6063
X1.7909Y-1.685
X1.7909Y-1.7835
X1.85Y-1.4882
X1.85Y-1.5669
X1.85Y-1.6457
X1.85Y-1.7244
X1.85Y-1.8031
X1.9169Y-1.5079
X1.9169Y-1.6063
X1.9169Y-1.685
X1.9169Y-1.7835
X1.976Y-1.4882
X1.976Y-1.5669
X1.976Y-1.6457
X1.976Y-1.7244
X1.976Y-1.8031
T10
X1.5858Y-3.9892
X1.5858Y-4.5187
X1.6657Y-3.9892
X1.6657Y-4.5187
X2.0157Y-4.0789
X2.0157Y-4.1789
X2.0157Y-4.2789
X2.0157Y-4.3789
X2.0157Y-4.4789
X2.1157Y-4.0289
X2.1157Y-4.1289
X2.1157Y-4.2289
X2.1157Y-4.3289
X2.1157Y-4.4289
X3.0022Y-1.1358
X3.1022Y-1.1358
X3.2022Y-1.1358
X3.6161Y-4.7303
X3.6161Y-4.8303
X3.7161Y-4.7303
X3.7161Y-4.8303
X3.8161Y-4.7303
X3.8161Y-4.8303
X3.9161Y-4.7303
X3.9161Y-4.8303
X4.0161Y-4.7303
X4.0161Y-4.8303
X4.1161Y-4.7303
X4.1161Y-4.8303
X4.2734Y-4.7274
X4.2734Y-4.8274
X4.3734Y-4.7274
X4.3734Y-4.8274
X4.4734Y-4.7274
X4.4734Y-4.8274
T11
X1.7637Y-4.7472
X1.8637Y-4.7472
X1.9637Y-4.7472
T12
X1.6496Y-2.9843
X1.7677Y-3.1693
X1.8858Y-2.9843
T13
X1.8858Y-3.9439
X1.8858Y-4.564
T14
X1.7122Y-1.387
X1.7122Y-1.9043
X1.9358Y-1.387
X1.9358Y-1.9043
T15
X1.7657Y-4.0289
X1.7657Y-4.4789
X2.711Y-2.9843
X2.711Y-3.9685
X4.5614Y-2.9843
X4.5614Y-4.0472
T8
G00X1.4915Y-2.157
M15
G01X1.4404Y-2.157
M16
G05
G00X1.4915Y-2.4972
M15
G01X1.4404Y-2.4972
M16
G05
G00X1.6884Y-2.157
M15
G01X1.6411Y-2.157
M16
G05
G00X1.6884Y-2.4972
M15
G01X1.6411Y-2.4972
M16
G05
T9
G00X1.4846Y-2.0744
M15
G01X1.4472Y-2.0744
M16
G05
G00X1.4846Y-2.5799
M15
G01X1.4472Y-2.5799
M16
G05
T0
M30
