%TF.GenerationSoftware,KiCad,Pcbnew,5.99.0-unknown-ca42f31bb5~131~ubuntu20.04.1*%
%TF.CreationDate,2021-08-18T11:47:36-07:00*%
%TF.ProjectId,ovc5,6f766335-2e6b-4696-9361-645f70636258,rev?*%
%TF.SameCoordinates,Original*%
%TF.FileFunction,Soldermask,Bot*%
%TF.FilePolarity,Negative*%
%FSLAX46Y46*%
G04 Gerber Fmt 4.6, Leading zero omitted, Abs format (unit mm)*
G04 Created by KiCad (PCBNEW 5.99.0-unknown-ca42f31bb5~131~ubuntu20.04.1) date 2021-08-18 11:47:36*
%MOMM*%
%LPD*%
G01*
G04 APERTURE LIST*
G04 Aperture macros list*
%AMRoundRect*
0 Rectangle with rounded corners*
0 $1 Rounding radius*
0 $2 $3 $4 $5 $6 $7 $8 $9 X,Y pos of 4 corners*
0 Add a 4 corners polygon primitive as box body*
4,1,4,$2,$3,$4,$5,$6,$7,$8,$9,$2,$3,0*
0 Add four circle primitives for the rounded corners*
1,1,$1+$1,$2,$3*
1,1,$1+$1,$4,$5*
1,1,$1+$1,$6,$7*
1,1,$1+$1,$8,$9*
0 Add four rect primitives between the rounded corners*
20,1,$1+$1,$2,$3,$4,$5,0*
20,1,$1+$1,$4,$5,$6,$7,0*
20,1,$1+$1,$6,$7,$8,$9,0*
20,1,$1+$1,$8,$9,$2,$3,0*%
G04 Aperture macros list end*
%ADD10C,3.200000*%
%ADD11R,1.700000X1.700000*%
%ADD12O,1.700000X1.700000*%
%ADD13C,0.500000*%
%ADD14C,1.524000*%
%ADD15C,1.371600*%
%ADD16C,3.600000*%
%ADD17C,2.200000*%
%ADD18R,2.600000X2.600000*%
%ADD19C,2.600000*%
%ADD20RoundRect,0.250000X0.620000X0.845000X-0.620000X0.845000X-0.620000X-0.845000X0.620000X-0.845000X0*%
%ADD21O,1.740000X2.190000*%
%ADD22C,0.612500*%
%ADD23C,0.600000*%
%ADD24O,2.300000X1.100000*%
%ADD25O,2.600000X1.300000*%
%ADD26O,2.400000X1.450000*%
%ADD27C,1.200000*%
%ADD28C,1.100000*%
%ADD29C,3.500000*%
%ADD30C,0.700000*%
%ADD31C,0.900000*%
%ADD32C,2.400000*%
%ADD33C,0.675000*%
%ADD34RoundRect,0.100000X-0.130000X-0.100000X0.130000X-0.100000X0.130000X0.100000X-0.130000X0.100000X0*%
%ADD35RoundRect,0.140000X-0.170000X0.140000X-0.170000X-0.140000X0.170000X-0.140000X0.170000X0.140000X0*%
%ADD36RoundRect,0.100000X0.130000X0.100000X-0.130000X0.100000X-0.130000X-0.100000X0.130000X-0.100000X0*%
%ADD37RoundRect,0.100000X0.100000X-0.130000X0.100000X0.130000X-0.100000X0.130000X-0.100000X-0.130000X0*%
%ADD38RoundRect,0.100000X-0.100000X0.130000X-0.100000X-0.130000X0.100000X-0.130000X0.100000X0.130000X0*%
%ADD39R,0.300000X0.300000*%
%ADD40RoundRect,0.200000X0.200000X0.275000X-0.200000X0.275000X-0.200000X-0.275000X0.200000X-0.275000X0*%
%ADD41RoundRect,0.135000X-0.135000X-0.185000X0.135000X-0.185000X0.135000X0.185000X-0.135000X0.185000X0*%
%ADD42RoundRect,0.135000X-0.185000X0.135000X-0.185000X-0.135000X0.185000X-0.135000X0.185000X0.135000X0*%
%ADD43RoundRect,0.135000X0.185000X-0.135000X0.185000X0.135000X-0.185000X0.135000X-0.185000X-0.135000X0*%
%ADD44R,0.500000X0.600000*%
%ADD45RoundRect,0.140000X0.140000X0.170000X-0.140000X0.170000X-0.140000X-0.170000X0.140000X-0.170000X0*%
G04 APERTURE END LIST*
D10*
%TO.C,H2*%
X38000000Y-120000000D03*
%TD*%
D11*
%TO.C,J6*%
X91850000Y-122690000D03*
D12*
X91850000Y-120150000D03*
X94390000Y-122690000D03*
X94390000Y-120150000D03*
X96930000Y-122690000D03*
X96930000Y-120150000D03*
X99470000Y-122690000D03*
X99470000Y-120150000D03*
X102010000Y-122690000D03*
X102010000Y-120150000D03*
X104550000Y-122690000D03*
X104550000Y-120150000D03*
%TD*%
D10*
%TO.C,H3*%
X128000000Y-31000000D03*
%TD*%
D13*
%TO.C,U7*%
X53870000Y-76404000D03*
X53870000Y-74504000D03*
X53870000Y-73554000D03*
X52920000Y-76404000D03*
X54820000Y-75454000D03*
X54820000Y-74504000D03*
X52920000Y-74504000D03*
X53870000Y-77354000D03*
X54820000Y-76404000D03*
X52920000Y-75454000D03*
X53870000Y-75454000D03*
%TD*%
D14*
%TO.C,U11*%
X51200000Y-113765000D03*
X53740000Y-112495000D03*
X51200000Y-111225000D03*
X53740000Y-109955000D03*
X51200000Y-108685000D03*
X53740000Y-107415000D03*
X51200000Y-106145000D03*
X53740000Y-104875000D03*
X51200000Y-103605000D03*
X53740000Y-102335000D03*
D15*
X42310000Y-114775000D03*
X40280000Y-114775000D03*
X42310000Y-101325000D03*
X40280000Y-101325000D03*
D16*
X44850000Y-113765000D03*
X44850000Y-102335000D03*
D17*
X47900000Y-100175000D03*
X47900000Y-115925000D03*
%TD*%
D18*
%TO.C,J2*%
X47900006Y-75800001D03*
D19*
X41900006Y-75800001D03*
X44900006Y-80500001D03*
%TD*%
D20*
%TO.C,J9*%
X49879000Y-120580000D03*
D21*
X47339000Y-120580000D03*
X44799000Y-120580000D03*
%TD*%
D22*
%TO.C,U13*%
X60000000Y-90525000D03*
X58775000Y-90525000D03*
X58775000Y-91750000D03*
X60000000Y-91750000D03*
%TD*%
D23*
%TO.C,J1*%
X40285000Y-62709000D03*
X40285000Y-55509000D03*
D24*
X42285000Y-63429000D03*
D25*
X37235000Y-63429000D03*
D26*
X37235000Y-52689000D03*
D24*
X42285000Y-54789000D03*
D25*
X37235000Y-54789000D03*
D26*
X37235000Y-65529000D03*
%TD*%
D27*
%TO.C,U1*%
X70159988Y-110299999D03*
X70159988Y-68299999D03*
D28*
X114559988Y-68299999D03*
X114559988Y-110299999D03*
D29*
X115859988Y-75799999D03*
X68859988Y-75799999D03*
X115859988Y-102799999D03*
X68859988Y-100799999D03*
%TD*%
D10*
%TO.C,H4*%
X38000000Y-31000000D03*
%TD*%
%TO.C,H1*%
X128000000Y-120000000D03*
%TD*%
D30*
%TO.C,SW3*%
X91451000Y-29651000D03*
X91451000Y-27851000D03*
%TD*%
D31*
%TO.C,U5*%
X45489988Y-38299993D03*
X45489988Y-40799993D03*
X45489988Y-42799993D03*
X45489988Y-45299993D03*
X46989988Y-45799993D03*
X46989988Y-43799993D03*
X46989988Y-41799993D03*
X46989988Y-39799993D03*
X46989988Y-37799993D03*
X48689988Y-38299993D03*
X48689988Y-40799993D03*
X48689988Y-42799993D03*
X48689988Y-45299993D03*
X50189988Y-45799993D03*
X50189988Y-43799993D03*
X50189988Y-41799993D03*
X50189988Y-39799993D03*
X50189988Y-37799993D03*
D32*
X43489988Y-48369993D03*
X49169988Y-35229993D03*
X49169988Y-48369993D03*
X43489988Y-35229993D03*
%TD*%
D23*
%TO.C,U9*%
X74110000Y-42144000D03*
X71540000Y-42444000D03*
X74860000Y-43294000D03*
X70960000Y-42144000D03*
X73360000Y-42144000D03*
X72120000Y-42144000D03*
X74490000Y-42734000D03*
X73740000Y-42734000D03*
X74110000Y-43294000D03*
X73360000Y-43294000D03*
X74860000Y-42144000D03*
%TD*%
D30*
%TO.C,SW2*%
X85902000Y-27849000D03*
X85902000Y-29649000D03*
%TD*%
D33*
%TO.C,U21*%
X58345000Y-57840000D03*
X58345000Y-60240000D03*
X60745000Y-60240000D03*
X61945000Y-56640000D03*
X61945000Y-60240000D03*
X57145000Y-59040000D03*
X63145000Y-56640000D03*
X63145000Y-57840000D03*
X59545000Y-56640000D03*
X61945000Y-61440000D03*
X57145000Y-60240000D03*
X63145000Y-59040000D03*
X59545000Y-61440000D03*
X58345000Y-55440000D03*
X60745000Y-55440000D03*
X59545000Y-55440000D03*
X59545000Y-57840000D03*
X58345000Y-59040000D03*
X57145000Y-56640000D03*
X58345000Y-61440000D03*
X61945000Y-57840000D03*
X60745000Y-57840000D03*
X61945000Y-55440000D03*
X60745000Y-61440000D03*
X61945000Y-59040000D03*
X57145000Y-61440000D03*
X60745000Y-59040000D03*
X58345000Y-56640000D03*
X60745000Y-56640000D03*
X57145000Y-55440000D03*
X63145000Y-60240000D03*
X57145000Y-57840000D03*
X63145000Y-55440000D03*
X63145000Y-61440000D03*
X59545000Y-60240000D03*
X59545000Y-59040000D03*
%TD*%
D11*
%TO.C,J11*%
X76255000Y-28849000D03*
D12*
X78795000Y-28849000D03*
X81335000Y-28849000D03*
%TD*%
D11*
%TO.C,J4*%
X113625000Y-120075000D03*
D12*
X113625000Y-122615000D03*
X111085000Y-120075000D03*
X111085000Y-122615000D03*
X108545000Y-120075000D03*
X108545000Y-122615000D03*
%TD*%
D34*
%TO.C,C18*%
X55657000Y-56653000D03*
X56297000Y-56653000D03*
%TD*%
D35*
%TO.C,C21*%
X53226000Y-66338000D03*
X53226000Y-67298000D03*
%TD*%
D36*
%TO.C,C31*%
X64568000Y-62438000D03*
X63928000Y-62438000D03*
%TD*%
D37*
%TO.C,C50*%
X56968000Y-62965000D03*
X56968000Y-62325000D03*
%TD*%
%TO.C,C48*%
X62520000Y-62954000D03*
X62520000Y-62314000D03*
%TD*%
D38*
%TO.C,C34*%
X60393000Y-53954000D03*
X60393000Y-54594000D03*
%TD*%
D36*
%TO.C,C32*%
X64646000Y-61655000D03*
X64006000Y-61655000D03*
%TD*%
D39*
%TO.C,D5*%
X42424000Y-42144000D03*
X42424000Y-41444000D03*
X43274000Y-41794000D03*
%TD*%
D34*
%TO.C,C46*%
X55439000Y-61223000D03*
X56079000Y-61223000D03*
%TD*%
D40*
%TO.C,R8*%
X48695000Y-71850000D03*
X47045000Y-71850000D03*
%TD*%
D38*
%TO.C,C51*%
X56428000Y-53979000D03*
X56428000Y-54619000D03*
%TD*%
D37*
%TO.C,C44*%
X61770000Y-62954000D03*
X61770000Y-62314000D03*
%TD*%
D38*
%TO.C,C38*%
X59642000Y-53953000D03*
X59642000Y-54593000D03*
%TD*%
D41*
%TO.C,R65*%
X53717000Y-52109000D03*
X54737000Y-52109000D03*
%TD*%
D38*
%TO.C,C40*%
X58587000Y-53916000D03*
X58587000Y-54556000D03*
%TD*%
D34*
%TO.C,C81*%
X53205000Y-38325000D03*
X53845000Y-38325000D03*
%TD*%
D38*
%TO.C,C19*%
X63940000Y-53951000D03*
X63940000Y-54591000D03*
%TD*%
%TO.C,C39*%
X54085000Y-65318000D03*
X54085000Y-65958000D03*
%TD*%
D37*
%TO.C,C49*%
X59775000Y-62954000D03*
X59775000Y-62314000D03*
%TD*%
D36*
%TO.C,C30*%
X64639000Y-57196000D03*
X63999000Y-57196000D03*
%TD*%
%TO.C,C43*%
X64697000Y-59218000D03*
X64057000Y-59218000D03*
%TD*%
D38*
%TO.C,C24*%
X63190000Y-53954000D03*
X63190000Y-54594000D03*
%TD*%
D36*
%TO.C,C27*%
X64566000Y-63188000D03*
X63926000Y-63188000D03*
%TD*%
D37*
%TO.C,C53*%
X57718000Y-62966000D03*
X57718000Y-62326000D03*
%TD*%
D42*
%TO.C,R63*%
X56030000Y-57468000D03*
X56030000Y-58488000D03*
%TD*%
D38*
%TO.C,C41*%
X64748000Y-54166000D03*
X64748000Y-54806000D03*
%TD*%
%TO.C,C45*%
X65498000Y-54168000D03*
X65498000Y-54808000D03*
%TD*%
D36*
%TO.C,C47*%
X64697000Y-58469000D03*
X64057000Y-58469000D03*
%TD*%
D37*
%TO.C,C10*%
X58857000Y-50674000D03*
X58857000Y-50034000D03*
%TD*%
D38*
%TO.C,C25*%
X61179000Y-53955000D03*
X61179000Y-54595000D03*
%TD*%
D36*
%TO.C,C82*%
X42170000Y-38250000D03*
X41530000Y-38250000D03*
%TD*%
D34*
%TO.C,C77*%
X44218000Y-62976000D03*
X44858000Y-62976000D03*
%TD*%
D38*
%TO.C,C35*%
X54835000Y-65319000D03*
X54835000Y-65959000D03*
%TD*%
%TO.C,C28*%
X57838000Y-53912000D03*
X57838000Y-54552000D03*
%TD*%
D36*
%TO.C,C80*%
X42170000Y-39200000D03*
X41530000Y-39200000D03*
%TD*%
D34*
%TO.C,C22*%
X55655000Y-55905000D03*
X56295000Y-55905000D03*
%TD*%
D38*
%TO.C,C89*%
X81620000Y-68450000D03*
X81620000Y-69090000D03*
%TD*%
%TO.C,C54*%
X55678000Y-53981000D03*
X55678000Y-54621000D03*
%TD*%
D37*
%TO.C,C52*%
X60526000Y-62954000D03*
X60526000Y-62314000D03*
%TD*%
D36*
%TO.C,C33*%
X53273000Y-64475000D03*
X52633000Y-64475000D03*
%TD*%
D34*
%TO.C,C75*%
X44218000Y-62276000D03*
X44858000Y-62276000D03*
%TD*%
D36*
%TO.C,C26*%
X64640000Y-56446000D03*
X64000000Y-56446000D03*
%TD*%
D38*
%TO.C,C88*%
X80620000Y-68450000D03*
X80620000Y-69090000D03*
%TD*%
D43*
%TO.C,R64*%
X56030000Y-60399000D03*
X56030000Y-59379000D03*
%TD*%
D36*
%TO.C,C37*%
X53274000Y-63724000D03*
X52634000Y-63724000D03*
%TD*%
D38*
%TO.C,C29*%
X61928000Y-53954000D03*
X61928000Y-54594000D03*
%TD*%
D43*
%TO.C,R15*%
X62712000Y-50728000D03*
X62712000Y-49708000D03*
%TD*%
D44*
%TO.C,X1*%
X57956000Y-49802000D03*
X57956000Y-50902000D03*
X57156000Y-50902000D03*
X57156000Y-49802000D03*
%TD*%
D42*
%TO.C,R16*%
X63702000Y-49711000D03*
X63702000Y-50731000D03*
%TD*%
D36*
%TO.C,C36*%
X64646000Y-60903000D03*
X64006000Y-60903000D03*
%TD*%
D34*
%TO.C,C79*%
X53205000Y-39275000D03*
X53845000Y-39275000D03*
%TD*%
%TO.C,C42*%
X55434000Y-61970000D03*
X56074000Y-61970000D03*
%TD*%
D45*
%TO.C,C20*%
X52220000Y-65332000D03*
X51260000Y-65332000D03*
%TD*%
M02*
