%TF.GenerationSoftware,KiCad,Pcbnew,5.99.0-unknown-675444a646~125~ubuntu20.04.1*%
%TF.CreationDate,2021-04-13T15:06:48+08:00*%
%TF.ProjectId,ovc5,6f766335-2e6b-4696-9361-645f70636258,rev?*%
%TF.SameCoordinates,Original*%
%TF.FileFunction,Legend,Bot*%
%TF.FilePolarity,Positive*%
%FSLAX46Y46*%
G04 Gerber Fmt 4.6, Leading zero omitted, Abs format (unit mm)*
G04 Created by KiCad (PCBNEW 5.99.0-unknown-675444a646~125~ubuntu20.04.1) date 2021-04-13 15:06:48*
%MOMM*%
%LPD*%
G01*
G04 APERTURE LIST*
%ADD10C,0.150000*%
%ADD11C,0.120000*%
G04 APERTURE END LIST*
D10*
%TO.C,C33*%
X66865714Y-53694285D02*
X66894285Y-53722857D01*
X66980000Y-53751428D01*
X67037142Y-53751428D01*
X67122857Y-53722857D01*
X67180000Y-53665714D01*
X67208571Y-53608571D01*
X67237142Y-53494285D01*
X67237142Y-53408571D01*
X67208571Y-53294285D01*
X67180000Y-53237142D01*
X67122857Y-53180000D01*
X67037142Y-53151428D01*
X66980000Y-53151428D01*
X66894285Y-53180000D01*
X66865714Y-53208571D01*
X66665714Y-53151428D02*
X66294285Y-53151428D01*
X66494285Y-53380000D01*
X66408571Y-53380000D01*
X66351428Y-53408571D01*
X66322857Y-53437142D01*
X66294285Y-53494285D01*
X66294285Y-53637142D01*
X66322857Y-53694285D01*
X66351428Y-53722857D01*
X66408571Y-53751428D01*
X66580000Y-53751428D01*
X66637142Y-53722857D01*
X66665714Y-53694285D01*
X66094285Y-53151428D02*
X65722857Y-53151428D01*
X65922857Y-53380000D01*
X65837142Y-53380000D01*
X65780000Y-53408571D01*
X65751428Y-53437142D01*
X65722857Y-53494285D01*
X65722857Y-53637142D01*
X65751428Y-53694285D01*
X65780000Y-53722857D01*
X65837142Y-53751428D01*
X66008571Y-53751428D01*
X66065714Y-53722857D01*
X66094285Y-53694285D01*
%TO.C,C31*%
X56888335Y-64552735D02*
X56916907Y-64524164D01*
X56945478Y-64438450D01*
X56945478Y-64381307D01*
X56916907Y-64295592D01*
X56859764Y-64238450D01*
X56802621Y-64209878D01*
X56688335Y-64181307D01*
X56602621Y-64181307D01*
X56488335Y-64209878D01*
X56431192Y-64238450D01*
X56374050Y-64295592D01*
X56345478Y-64381307D01*
X56345478Y-64438450D01*
X56374050Y-64524164D01*
X56402621Y-64552735D01*
X56345478Y-64752735D02*
X56345478Y-65124164D01*
X56574050Y-64924164D01*
X56574050Y-65009878D01*
X56602621Y-65067021D01*
X56631192Y-65095592D01*
X56688335Y-65124164D01*
X56831192Y-65124164D01*
X56888335Y-65095592D01*
X56916907Y-65067021D01*
X56945478Y-65009878D01*
X56945478Y-64838450D01*
X56916907Y-64781307D01*
X56888335Y-64752735D01*
X56945478Y-65695592D02*
X56945478Y-65352735D01*
X56945478Y-65524164D02*
X56345478Y-65524164D01*
X56431192Y-65467021D01*
X56488335Y-65409878D01*
X56516907Y-65352735D01*
%TO.C,C55*%
X63795714Y-48844285D02*
X63824285Y-48872857D01*
X63910000Y-48901428D01*
X63967142Y-48901428D01*
X64052857Y-48872857D01*
X64110000Y-48815714D01*
X64138571Y-48758571D01*
X64167142Y-48644285D01*
X64167142Y-48558571D01*
X64138571Y-48444285D01*
X64110000Y-48387142D01*
X64052857Y-48330000D01*
X63967142Y-48301428D01*
X63910000Y-48301428D01*
X63824285Y-48330000D01*
X63795714Y-48358571D01*
X63252857Y-48301428D02*
X63538571Y-48301428D01*
X63567142Y-48587142D01*
X63538571Y-48558571D01*
X63481428Y-48530000D01*
X63338571Y-48530000D01*
X63281428Y-48558571D01*
X63252857Y-48587142D01*
X63224285Y-48644285D01*
X63224285Y-48787142D01*
X63252857Y-48844285D01*
X63281428Y-48872857D01*
X63338571Y-48901428D01*
X63481428Y-48901428D01*
X63538571Y-48872857D01*
X63567142Y-48844285D01*
X62681428Y-48301428D02*
X62967142Y-48301428D01*
X62995714Y-48587142D01*
X62967142Y-48558571D01*
X62910000Y-48530000D01*
X62767142Y-48530000D01*
X62710000Y-48558571D01*
X62681428Y-48587142D01*
X62652857Y-48644285D01*
X62652857Y-48787142D01*
X62681428Y-48844285D01*
X62710000Y-48872857D01*
X62767142Y-48901428D01*
X62910000Y-48901428D01*
X62967142Y-48872857D01*
X62995714Y-48844285D01*
%TO.C,C14*%
X54255714Y-58244285D02*
X54284285Y-58272857D01*
X54370000Y-58301428D01*
X54427142Y-58301428D01*
X54512857Y-58272857D01*
X54570000Y-58215714D01*
X54598571Y-58158571D01*
X54627142Y-58044285D01*
X54627142Y-57958571D01*
X54598571Y-57844285D01*
X54570000Y-57787142D01*
X54512857Y-57730000D01*
X54427142Y-57701428D01*
X54370000Y-57701428D01*
X54284285Y-57730000D01*
X54255714Y-57758571D01*
X53684285Y-58301428D02*
X54027142Y-58301428D01*
X53855714Y-58301428D02*
X53855714Y-57701428D01*
X53912857Y-57787142D01*
X53970000Y-57844285D01*
X54027142Y-57872857D01*
X53170000Y-57901428D02*
X53170000Y-58301428D01*
X53312857Y-57672857D02*
X53455714Y-58101428D01*
X53084285Y-58101428D01*
%TO.C,C60*%
X60835714Y-48154285D02*
X60864285Y-48182857D01*
X60950000Y-48211428D01*
X61007142Y-48211428D01*
X61092857Y-48182857D01*
X61150000Y-48125714D01*
X61178571Y-48068571D01*
X61207142Y-47954285D01*
X61207142Y-47868571D01*
X61178571Y-47754285D01*
X61150000Y-47697142D01*
X61092857Y-47640000D01*
X61007142Y-47611428D01*
X60950000Y-47611428D01*
X60864285Y-47640000D01*
X60835714Y-47668571D01*
X60321428Y-47611428D02*
X60435714Y-47611428D01*
X60492857Y-47640000D01*
X60521428Y-47668571D01*
X60578571Y-47754285D01*
X60607142Y-47868571D01*
X60607142Y-48097142D01*
X60578571Y-48154285D01*
X60550000Y-48182857D01*
X60492857Y-48211428D01*
X60378571Y-48211428D01*
X60321428Y-48182857D01*
X60292857Y-48154285D01*
X60264285Y-48097142D01*
X60264285Y-47954285D01*
X60292857Y-47897142D01*
X60321428Y-47868571D01*
X60378571Y-47840000D01*
X60492857Y-47840000D01*
X60550000Y-47868571D01*
X60578571Y-47897142D01*
X60607142Y-47954285D01*
X59892857Y-47611428D02*
X59835714Y-47611428D01*
X59778571Y-47640000D01*
X59750000Y-47668571D01*
X59721428Y-47725714D01*
X59692857Y-47840000D01*
X59692857Y-47982857D01*
X59721428Y-48097142D01*
X59750000Y-48154285D01*
X59778571Y-48182857D01*
X59835714Y-48211428D01*
X59892857Y-48211428D01*
X59950000Y-48182857D01*
X59978571Y-48154285D01*
X60007142Y-48097142D01*
X60035714Y-47982857D01*
X60035714Y-47840000D01*
X60007142Y-47725714D01*
X59978571Y-47668571D01*
X59950000Y-47640000D01*
X59892857Y-47611428D01*
%TO.C,C24*%
X62984285Y-59974285D02*
X63012857Y-59945714D01*
X63041428Y-59860000D01*
X63041428Y-59802857D01*
X63012857Y-59717142D01*
X62955714Y-59660000D01*
X62898571Y-59631428D01*
X62784285Y-59602857D01*
X62698571Y-59602857D01*
X62584285Y-59631428D01*
X62527142Y-59660000D01*
X62470000Y-59717142D01*
X62441428Y-59802857D01*
X62441428Y-59860000D01*
X62470000Y-59945714D01*
X62498571Y-59974285D01*
X62498571Y-60202857D02*
X62470000Y-60231428D01*
X62441428Y-60288571D01*
X62441428Y-60431428D01*
X62470000Y-60488571D01*
X62498571Y-60517142D01*
X62555714Y-60545714D01*
X62612857Y-60545714D01*
X62698571Y-60517142D01*
X63041428Y-60174285D01*
X63041428Y-60545714D01*
X62641428Y-61060000D02*
X63041428Y-61060000D01*
X62412857Y-60917142D02*
X62841428Y-60774285D01*
X62841428Y-61145714D01*
%TO.C,R5*%
X69500000Y-63121428D02*
X69700000Y-62835714D01*
X69842857Y-63121428D02*
X69842857Y-62521428D01*
X69614285Y-62521428D01*
X69557142Y-62550000D01*
X69528571Y-62578571D01*
X69500000Y-62635714D01*
X69500000Y-62721428D01*
X69528571Y-62778571D01*
X69557142Y-62807142D01*
X69614285Y-62835714D01*
X69842857Y-62835714D01*
X68957142Y-62521428D02*
X69242857Y-62521428D01*
X69271428Y-62807142D01*
X69242857Y-62778571D01*
X69185714Y-62750000D01*
X69042857Y-62750000D01*
X68985714Y-62778571D01*
X68957142Y-62807142D01*
X68928571Y-62864285D01*
X68928571Y-63007142D01*
X68957142Y-63064285D01*
X68985714Y-63092857D01*
X69042857Y-63121428D01*
X69185714Y-63121428D01*
X69242857Y-63092857D01*
X69271428Y-63064285D01*
%TO.C,D5*%
X44751428Y-41287142D02*
X44151428Y-41287142D01*
X44151428Y-41430000D01*
X44180000Y-41515714D01*
X44237142Y-41572857D01*
X44294285Y-41601428D01*
X44408571Y-41630000D01*
X44494285Y-41630000D01*
X44608571Y-41601428D01*
X44665714Y-41572857D01*
X44722857Y-41515714D01*
X44751428Y-41430000D01*
X44751428Y-41287142D01*
X44151428Y-42172857D02*
X44151428Y-41887142D01*
X44437142Y-41858571D01*
X44408571Y-41887142D01*
X44380000Y-41944285D01*
X44380000Y-42087142D01*
X44408571Y-42144285D01*
X44437142Y-42172857D01*
X44494285Y-42201428D01*
X44637142Y-42201428D01*
X44694285Y-42172857D01*
X44722857Y-42144285D01*
X44751428Y-42087142D01*
X44751428Y-41944285D01*
X44722857Y-41887142D01*
X44694285Y-41858571D01*
%TO.C,C56*%
X63795714Y-49714285D02*
X63824285Y-49742857D01*
X63910000Y-49771428D01*
X63967142Y-49771428D01*
X64052857Y-49742857D01*
X64110000Y-49685714D01*
X64138571Y-49628571D01*
X64167142Y-49514285D01*
X64167142Y-49428571D01*
X64138571Y-49314285D01*
X64110000Y-49257142D01*
X64052857Y-49200000D01*
X63967142Y-49171428D01*
X63910000Y-49171428D01*
X63824285Y-49200000D01*
X63795714Y-49228571D01*
X63252857Y-49171428D02*
X63538571Y-49171428D01*
X63567142Y-49457142D01*
X63538571Y-49428571D01*
X63481428Y-49400000D01*
X63338571Y-49400000D01*
X63281428Y-49428571D01*
X63252857Y-49457142D01*
X63224285Y-49514285D01*
X63224285Y-49657142D01*
X63252857Y-49714285D01*
X63281428Y-49742857D01*
X63338571Y-49771428D01*
X63481428Y-49771428D01*
X63538571Y-49742857D01*
X63567142Y-49714285D01*
X62710000Y-49171428D02*
X62824285Y-49171428D01*
X62881428Y-49200000D01*
X62910000Y-49228571D01*
X62967142Y-49314285D01*
X62995714Y-49428571D01*
X62995714Y-49657142D01*
X62967142Y-49714285D01*
X62938571Y-49742857D01*
X62881428Y-49771428D01*
X62767142Y-49771428D01*
X62710000Y-49742857D01*
X62681428Y-49714285D01*
X62652857Y-49657142D01*
X62652857Y-49514285D01*
X62681428Y-49457142D01*
X62710000Y-49428571D01*
X62767142Y-49400000D01*
X62881428Y-49400000D01*
X62938571Y-49428571D01*
X62967142Y-49457142D01*
X62995714Y-49514285D01*
%TO.C,C17*%
X72205714Y-56674285D02*
X72234285Y-56702857D01*
X72320000Y-56731428D01*
X72377142Y-56731428D01*
X72462857Y-56702857D01*
X72520000Y-56645714D01*
X72548571Y-56588571D01*
X72577142Y-56474285D01*
X72577142Y-56388571D01*
X72548571Y-56274285D01*
X72520000Y-56217142D01*
X72462857Y-56160000D01*
X72377142Y-56131428D01*
X72320000Y-56131428D01*
X72234285Y-56160000D01*
X72205714Y-56188571D01*
X71634285Y-56731428D02*
X71977142Y-56731428D01*
X71805714Y-56731428D02*
X71805714Y-56131428D01*
X71862857Y-56217142D01*
X71920000Y-56274285D01*
X71977142Y-56302857D01*
X71434285Y-56131428D02*
X71034285Y-56131428D01*
X71291428Y-56731428D01*
%TO.C,C29*%
X58808335Y-64582735D02*
X58836907Y-64554164D01*
X58865478Y-64468450D01*
X58865478Y-64411307D01*
X58836907Y-64325592D01*
X58779764Y-64268450D01*
X58722621Y-64239878D01*
X58608335Y-64211307D01*
X58522621Y-64211307D01*
X58408335Y-64239878D01*
X58351192Y-64268450D01*
X58294050Y-64325592D01*
X58265478Y-64411307D01*
X58265478Y-64468450D01*
X58294050Y-64554164D01*
X58322621Y-64582735D01*
X58322621Y-64811307D02*
X58294050Y-64839878D01*
X58265478Y-64897021D01*
X58265478Y-65039878D01*
X58294050Y-65097021D01*
X58322621Y-65125592D01*
X58379764Y-65154164D01*
X58436907Y-65154164D01*
X58522621Y-65125592D01*
X58865478Y-64782735D01*
X58865478Y-65154164D01*
X58865478Y-65439878D02*
X58865478Y-65554164D01*
X58836907Y-65611307D01*
X58808335Y-65639878D01*
X58722621Y-65697021D01*
X58608335Y-65725592D01*
X58379764Y-65725592D01*
X58322621Y-65697021D01*
X58294050Y-65668450D01*
X58265478Y-65611307D01*
X58265478Y-65497021D01*
X58294050Y-65439878D01*
X58322621Y-65411307D01*
X58379764Y-65382735D01*
X58522621Y-65382735D01*
X58579764Y-65411307D01*
X58608335Y-65439878D01*
X58636907Y-65497021D01*
X58636907Y-65611307D01*
X58608335Y-65668450D01*
X58579764Y-65697021D01*
X58522621Y-65725592D01*
%TO.C,C41*%
X58394285Y-49724285D02*
X58422857Y-49695714D01*
X58451428Y-49610000D01*
X58451428Y-49552857D01*
X58422857Y-49467142D01*
X58365714Y-49410000D01*
X58308571Y-49381428D01*
X58194285Y-49352857D01*
X58108571Y-49352857D01*
X57994285Y-49381428D01*
X57937142Y-49410000D01*
X57880000Y-49467142D01*
X57851428Y-49552857D01*
X57851428Y-49610000D01*
X57880000Y-49695714D01*
X57908571Y-49724285D01*
X58051428Y-50238571D02*
X58451428Y-50238571D01*
X57822857Y-50095714D02*
X58251428Y-49952857D01*
X58251428Y-50324285D01*
X58451428Y-50867142D02*
X58451428Y-50524285D01*
X58451428Y-50695714D02*
X57851428Y-50695714D01*
X57937142Y-50638571D01*
X57994285Y-50581428D01*
X58022857Y-50524285D01*
%TO.C,C50*%
X56444285Y-55024285D02*
X56472857Y-54995714D01*
X56501428Y-54910000D01*
X56501428Y-54852857D01*
X56472857Y-54767142D01*
X56415714Y-54710000D01*
X56358571Y-54681428D01*
X56244285Y-54652857D01*
X56158571Y-54652857D01*
X56044285Y-54681428D01*
X55987142Y-54710000D01*
X55930000Y-54767142D01*
X55901428Y-54852857D01*
X55901428Y-54910000D01*
X55930000Y-54995714D01*
X55958571Y-55024285D01*
X55901428Y-55567142D02*
X55901428Y-55281428D01*
X56187142Y-55252857D01*
X56158571Y-55281428D01*
X56130000Y-55338571D01*
X56130000Y-55481428D01*
X56158571Y-55538571D01*
X56187142Y-55567142D01*
X56244285Y-55595714D01*
X56387142Y-55595714D01*
X56444285Y-55567142D01*
X56472857Y-55538571D01*
X56501428Y-55481428D01*
X56501428Y-55338571D01*
X56472857Y-55281428D01*
X56444285Y-55252857D01*
X55901428Y-55967142D02*
X55901428Y-56024285D01*
X55930000Y-56081428D01*
X55958571Y-56110000D01*
X56015714Y-56138571D01*
X56130000Y-56167142D01*
X56272857Y-56167142D01*
X56387142Y-56138571D01*
X56444285Y-56110000D01*
X56472857Y-56081428D01*
X56501428Y-56024285D01*
X56501428Y-55967142D01*
X56472857Y-55910000D01*
X56444285Y-55881428D01*
X56387142Y-55852857D01*
X56272857Y-55824285D01*
X56130000Y-55824285D01*
X56015714Y-55852857D01*
X55958571Y-55881428D01*
X55930000Y-55910000D01*
X55901428Y-55967142D01*
%TO.C,C66*%
X53575714Y-53134285D02*
X53604285Y-53162857D01*
X53690000Y-53191428D01*
X53747142Y-53191428D01*
X53832857Y-53162857D01*
X53890000Y-53105714D01*
X53918571Y-53048571D01*
X53947142Y-52934285D01*
X53947142Y-52848571D01*
X53918571Y-52734285D01*
X53890000Y-52677142D01*
X53832857Y-52620000D01*
X53747142Y-52591428D01*
X53690000Y-52591428D01*
X53604285Y-52620000D01*
X53575714Y-52648571D01*
X53061428Y-52591428D02*
X53175714Y-52591428D01*
X53232857Y-52620000D01*
X53261428Y-52648571D01*
X53318571Y-52734285D01*
X53347142Y-52848571D01*
X53347142Y-53077142D01*
X53318571Y-53134285D01*
X53290000Y-53162857D01*
X53232857Y-53191428D01*
X53118571Y-53191428D01*
X53061428Y-53162857D01*
X53032857Y-53134285D01*
X53004285Y-53077142D01*
X53004285Y-52934285D01*
X53032857Y-52877142D01*
X53061428Y-52848571D01*
X53118571Y-52820000D01*
X53232857Y-52820000D01*
X53290000Y-52848571D01*
X53318571Y-52877142D01*
X53347142Y-52934285D01*
X52490000Y-52591428D02*
X52604285Y-52591428D01*
X52661428Y-52620000D01*
X52690000Y-52648571D01*
X52747142Y-52734285D01*
X52775714Y-52848571D01*
X52775714Y-53077142D01*
X52747142Y-53134285D01*
X52718571Y-53162857D01*
X52661428Y-53191428D01*
X52547142Y-53191428D01*
X52490000Y-53162857D01*
X52461428Y-53134285D01*
X52432857Y-53077142D01*
X52432857Y-52934285D01*
X52461428Y-52877142D01*
X52490000Y-52848571D01*
X52547142Y-52820000D01*
X52661428Y-52820000D01*
X52718571Y-52848571D01*
X52747142Y-52877142D01*
X52775714Y-52934285D01*
%TO.C,C19*%
X72135714Y-60384285D02*
X72164285Y-60412857D01*
X72250000Y-60441428D01*
X72307142Y-60441428D01*
X72392857Y-60412857D01*
X72450000Y-60355714D01*
X72478571Y-60298571D01*
X72507142Y-60184285D01*
X72507142Y-60098571D01*
X72478571Y-59984285D01*
X72450000Y-59927142D01*
X72392857Y-59870000D01*
X72307142Y-59841428D01*
X72250000Y-59841428D01*
X72164285Y-59870000D01*
X72135714Y-59898571D01*
X71564285Y-60441428D02*
X71907142Y-60441428D01*
X71735714Y-60441428D02*
X71735714Y-59841428D01*
X71792857Y-59927142D01*
X71850000Y-59984285D01*
X71907142Y-60012857D01*
X71278571Y-60441428D02*
X71164285Y-60441428D01*
X71107142Y-60412857D01*
X71078571Y-60384285D01*
X71021428Y-60298571D01*
X70992857Y-60184285D01*
X70992857Y-59955714D01*
X71021428Y-59898571D01*
X71050000Y-59870000D01*
X71107142Y-59841428D01*
X71221428Y-59841428D01*
X71278571Y-59870000D01*
X71307142Y-59898571D01*
X71335714Y-59955714D01*
X71335714Y-60098571D01*
X71307142Y-60155714D01*
X71278571Y-60184285D01*
X71221428Y-60212857D01*
X71107142Y-60212857D01*
X71050000Y-60184285D01*
X71021428Y-60155714D01*
X70992857Y-60098571D01*
%TO.C,C25*%
X63765835Y-65244285D02*
X63794407Y-65215714D01*
X63822978Y-65130000D01*
X63822978Y-65072857D01*
X63794407Y-64987142D01*
X63737264Y-64930000D01*
X63680121Y-64901428D01*
X63565835Y-64872857D01*
X63480121Y-64872857D01*
X63365835Y-64901428D01*
X63308692Y-64930000D01*
X63251550Y-64987142D01*
X63222978Y-65072857D01*
X63222978Y-65130000D01*
X63251550Y-65215714D01*
X63280121Y-65244285D01*
X63280121Y-65472857D02*
X63251550Y-65501428D01*
X63222978Y-65558571D01*
X63222978Y-65701428D01*
X63251550Y-65758571D01*
X63280121Y-65787142D01*
X63337264Y-65815714D01*
X63394407Y-65815714D01*
X63480121Y-65787142D01*
X63822978Y-65444285D01*
X63822978Y-65815714D01*
X63222978Y-66358571D02*
X63222978Y-66072857D01*
X63508692Y-66044285D01*
X63480121Y-66072857D01*
X63451550Y-66130000D01*
X63451550Y-66272857D01*
X63480121Y-66330000D01*
X63508692Y-66358571D01*
X63565835Y-66387142D01*
X63708692Y-66387142D01*
X63765835Y-66358571D01*
X63794407Y-66330000D01*
X63822978Y-66272857D01*
X63822978Y-66130000D01*
X63794407Y-66072857D01*
X63765835Y-66044285D01*
%TO.C,C22*%
X72165714Y-55694285D02*
X72194285Y-55722857D01*
X72280000Y-55751428D01*
X72337142Y-55751428D01*
X72422857Y-55722857D01*
X72480000Y-55665714D01*
X72508571Y-55608571D01*
X72537142Y-55494285D01*
X72537142Y-55408571D01*
X72508571Y-55294285D01*
X72480000Y-55237142D01*
X72422857Y-55180000D01*
X72337142Y-55151428D01*
X72280000Y-55151428D01*
X72194285Y-55180000D01*
X72165714Y-55208571D01*
X71937142Y-55208571D02*
X71908571Y-55180000D01*
X71851428Y-55151428D01*
X71708571Y-55151428D01*
X71651428Y-55180000D01*
X71622857Y-55208571D01*
X71594285Y-55265714D01*
X71594285Y-55322857D01*
X71622857Y-55408571D01*
X71965714Y-55751428D01*
X71594285Y-55751428D01*
X71365714Y-55208571D02*
X71337142Y-55180000D01*
X71280000Y-55151428D01*
X71137142Y-55151428D01*
X71080000Y-55180000D01*
X71051428Y-55208571D01*
X71022857Y-55265714D01*
X71022857Y-55322857D01*
X71051428Y-55408571D01*
X71394285Y-55751428D01*
X71022857Y-55751428D01*
%TO.C,C61*%
X66174285Y-55484285D02*
X66202857Y-55455714D01*
X66231428Y-55370000D01*
X66231428Y-55312857D01*
X66202857Y-55227142D01*
X66145714Y-55170000D01*
X66088571Y-55141428D01*
X65974285Y-55112857D01*
X65888571Y-55112857D01*
X65774285Y-55141428D01*
X65717142Y-55170000D01*
X65660000Y-55227142D01*
X65631428Y-55312857D01*
X65631428Y-55370000D01*
X65660000Y-55455714D01*
X65688571Y-55484285D01*
X65631428Y-55998571D02*
X65631428Y-55884285D01*
X65660000Y-55827142D01*
X65688571Y-55798571D01*
X65774285Y-55741428D01*
X65888571Y-55712857D01*
X66117142Y-55712857D01*
X66174285Y-55741428D01*
X66202857Y-55770000D01*
X66231428Y-55827142D01*
X66231428Y-55941428D01*
X66202857Y-55998571D01*
X66174285Y-56027142D01*
X66117142Y-56055714D01*
X65974285Y-56055714D01*
X65917142Y-56027142D01*
X65888571Y-55998571D01*
X65860000Y-55941428D01*
X65860000Y-55827142D01*
X65888571Y-55770000D01*
X65917142Y-55741428D01*
X65974285Y-55712857D01*
X66231428Y-56627142D02*
X66231428Y-56284285D01*
X66231428Y-56455714D02*
X65631428Y-56455714D01*
X65717142Y-56398571D01*
X65774285Y-56341428D01*
X65802857Y-56284285D01*
%TO.C,C81*%
X55675714Y-38534285D02*
X55704285Y-38562857D01*
X55790000Y-38591428D01*
X55847142Y-38591428D01*
X55932857Y-38562857D01*
X55990000Y-38505714D01*
X56018571Y-38448571D01*
X56047142Y-38334285D01*
X56047142Y-38248571D01*
X56018571Y-38134285D01*
X55990000Y-38077142D01*
X55932857Y-38020000D01*
X55847142Y-37991428D01*
X55790000Y-37991428D01*
X55704285Y-38020000D01*
X55675714Y-38048571D01*
X55332857Y-38248571D02*
X55390000Y-38220000D01*
X55418571Y-38191428D01*
X55447142Y-38134285D01*
X55447142Y-38105714D01*
X55418571Y-38048571D01*
X55390000Y-38020000D01*
X55332857Y-37991428D01*
X55218571Y-37991428D01*
X55161428Y-38020000D01*
X55132857Y-38048571D01*
X55104285Y-38105714D01*
X55104285Y-38134285D01*
X55132857Y-38191428D01*
X55161428Y-38220000D01*
X55218571Y-38248571D01*
X55332857Y-38248571D01*
X55390000Y-38277142D01*
X55418571Y-38305714D01*
X55447142Y-38362857D01*
X55447142Y-38477142D01*
X55418571Y-38534285D01*
X55390000Y-38562857D01*
X55332857Y-38591428D01*
X55218571Y-38591428D01*
X55161428Y-38562857D01*
X55132857Y-38534285D01*
X55104285Y-38477142D01*
X55104285Y-38362857D01*
X55132857Y-38305714D01*
X55161428Y-38277142D01*
X55218571Y-38248571D01*
X54532857Y-38591428D02*
X54875714Y-38591428D01*
X54704285Y-38591428D02*
X54704285Y-37991428D01*
X54761428Y-38077142D01*
X54818571Y-38134285D01*
X54875714Y-38162857D01*
%TO.C,C53*%
X68255714Y-60544285D02*
X68284285Y-60572857D01*
X68370000Y-60601428D01*
X68427142Y-60601428D01*
X68512857Y-60572857D01*
X68570000Y-60515714D01*
X68598571Y-60458571D01*
X68627142Y-60344285D01*
X68627142Y-60258571D01*
X68598571Y-60144285D01*
X68570000Y-60087142D01*
X68512857Y-60030000D01*
X68427142Y-60001428D01*
X68370000Y-60001428D01*
X68284285Y-60030000D01*
X68255714Y-60058571D01*
X67712857Y-60001428D02*
X67998571Y-60001428D01*
X68027142Y-60287142D01*
X67998571Y-60258571D01*
X67941428Y-60230000D01*
X67798571Y-60230000D01*
X67741428Y-60258571D01*
X67712857Y-60287142D01*
X67684285Y-60344285D01*
X67684285Y-60487142D01*
X67712857Y-60544285D01*
X67741428Y-60572857D01*
X67798571Y-60601428D01*
X67941428Y-60601428D01*
X67998571Y-60572857D01*
X68027142Y-60544285D01*
X67484285Y-60001428D02*
X67112857Y-60001428D01*
X67312857Y-60230000D01*
X67227142Y-60230000D01*
X67170000Y-60258571D01*
X67141428Y-60287142D01*
X67112857Y-60344285D01*
X67112857Y-60487142D01*
X67141428Y-60544285D01*
X67170000Y-60572857D01*
X67227142Y-60601428D01*
X67398571Y-60601428D01*
X67455714Y-60572857D01*
X67484285Y-60544285D01*
%TO.C,C32*%
X57888335Y-64552735D02*
X57916907Y-64524164D01*
X57945478Y-64438450D01*
X57945478Y-64381307D01*
X57916907Y-64295592D01*
X57859764Y-64238450D01*
X57802621Y-64209878D01*
X57688335Y-64181307D01*
X57602621Y-64181307D01*
X57488335Y-64209878D01*
X57431192Y-64238450D01*
X57374050Y-64295592D01*
X57345478Y-64381307D01*
X57345478Y-64438450D01*
X57374050Y-64524164D01*
X57402621Y-64552735D01*
X57345478Y-64752735D02*
X57345478Y-65124164D01*
X57574050Y-64924164D01*
X57574050Y-65009878D01*
X57602621Y-65067021D01*
X57631192Y-65095592D01*
X57688335Y-65124164D01*
X57831192Y-65124164D01*
X57888335Y-65095592D01*
X57916907Y-65067021D01*
X57945478Y-65009878D01*
X57945478Y-64838450D01*
X57916907Y-64781307D01*
X57888335Y-64752735D01*
X57402621Y-65352735D02*
X57374050Y-65381307D01*
X57345478Y-65438450D01*
X57345478Y-65581307D01*
X57374050Y-65638450D01*
X57402621Y-65667021D01*
X57459764Y-65695592D01*
X57516907Y-65695592D01*
X57602621Y-65667021D01*
X57945478Y-65324164D01*
X57945478Y-65695592D01*
%TO.C,C36*%
X62134285Y-52490835D02*
X62162857Y-52462264D01*
X62191428Y-52376550D01*
X62191428Y-52319407D01*
X62162857Y-52233692D01*
X62105714Y-52176550D01*
X62048571Y-52147978D01*
X61934285Y-52119407D01*
X61848571Y-52119407D01*
X61734285Y-52147978D01*
X61677142Y-52176550D01*
X61620000Y-52233692D01*
X61591428Y-52319407D01*
X61591428Y-52376550D01*
X61620000Y-52462264D01*
X61648571Y-52490835D01*
X61591428Y-52690835D02*
X61591428Y-53062264D01*
X61820000Y-52862264D01*
X61820000Y-52947978D01*
X61848571Y-53005121D01*
X61877142Y-53033692D01*
X61934285Y-53062264D01*
X62077142Y-53062264D01*
X62134285Y-53033692D01*
X62162857Y-53005121D01*
X62191428Y-52947978D01*
X62191428Y-52776550D01*
X62162857Y-52719407D01*
X62134285Y-52690835D01*
X61591428Y-53576550D02*
X61591428Y-53462264D01*
X61620000Y-53405121D01*
X61648571Y-53376550D01*
X61734285Y-53319407D01*
X61848571Y-53290835D01*
X62077142Y-53290835D01*
X62134285Y-53319407D01*
X62162857Y-53347978D01*
X62191428Y-53405121D01*
X62191428Y-53519407D01*
X62162857Y-53576550D01*
X62134285Y-53605121D01*
X62077142Y-53633692D01*
X61934285Y-53633692D01*
X61877142Y-53605121D01*
X61848571Y-53576550D01*
X61820000Y-53519407D01*
X61820000Y-53405121D01*
X61848571Y-53347978D01*
X61877142Y-53319407D01*
X61934285Y-53290835D01*
%TO.C,R6*%
X68540000Y-49231428D02*
X68740000Y-48945714D01*
X68882857Y-49231428D02*
X68882857Y-48631428D01*
X68654285Y-48631428D01*
X68597142Y-48660000D01*
X68568571Y-48688571D01*
X68540000Y-48745714D01*
X68540000Y-48831428D01*
X68568571Y-48888571D01*
X68597142Y-48917142D01*
X68654285Y-48945714D01*
X68882857Y-48945714D01*
X68025714Y-48631428D02*
X68140000Y-48631428D01*
X68197142Y-48660000D01*
X68225714Y-48688571D01*
X68282857Y-48774285D01*
X68311428Y-48888571D01*
X68311428Y-49117142D01*
X68282857Y-49174285D01*
X68254285Y-49202857D01*
X68197142Y-49231428D01*
X68082857Y-49231428D01*
X68025714Y-49202857D01*
X67997142Y-49174285D01*
X67968571Y-49117142D01*
X67968571Y-48974285D01*
X67997142Y-48917142D01*
X68025714Y-48888571D01*
X68082857Y-48860000D01*
X68197142Y-48860000D01*
X68254285Y-48888571D01*
X68282857Y-48917142D01*
X68311428Y-48974285D01*
%TO.C,C38*%
X61644285Y-65214285D02*
X61672857Y-65185714D01*
X61701428Y-65100000D01*
X61701428Y-65042857D01*
X61672857Y-64957142D01*
X61615714Y-64900000D01*
X61558571Y-64871428D01*
X61444285Y-64842857D01*
X61358571Y-64842857D01*
X61244285Y-64871428D01*
X61187142Y-64900000D01*
X61130000Y-64957142D01*
X61101428Y-65042857D01*
X61101428Y-65100000D01*
X61130000Y-65185714D01*
X61158571Y-65214285D01*
X61101428Y-65414285D02*
X61101428Y-65785714D01*
X61330000Y-65585714D01*
X61330000Y-65671428D01*
X61358571Y-65728571D01*
X61387142Y-65757142D01*
X61444285Y-65785714D01*
X61587142Y-65785714D01*
X61644285Y-65757142D01*
X61672857Y-65728571D01*
X61701428Y-65671428D01*
X61701428Y-65500000D01*
X61672857Y-65442857D01*
X61644285Y-65414285D01*
X61358571Y-66128571D02*
X61330000Y-66071428D01*
X61301428Y-66042857D01*
X61244285Y-66014285D01*
X61215714Y-66014285D01*
X61158571Y-66042857D01*
X61130000Y-66071428D01*
X61101428Y-66128571D01*
X61101428Y-66242857D01*
X61130000Y-66300000D01*
X61158571Y-66328571D01*
X61215714Y-66357142D01*
X61244285Y-66357142D01*
X61301428Y-66328571D01*
X61330000Y-66300000D01*
X61358571Y-66242857D01*
X61358571Y-66128571D01*
X61387142Y-66071428D01*
X61415714Y-66042857D01*
X61472857Y-66014285D01*
X61587142Y-66014285D01*
X61644285Y-66042857D01*
X61672857Y-66071428D01*
X61701428Y-66128571D01*
X61701428Y-66242857D01*
X61672857Y-66300000D01*
X61644285Y-66328571D01*
X61587142Y-66357142D01*
X61472857Y-66357142D01*
X61415714Y-66328571D01*
X61387142Y-66300000D01*
X61358571Y-66242857D01*
%TO.C,R7*%
X68180000Y-65643428D02*
X68380000Y-65357714D01*
X68522857Y-65643428D02*
X68522857Y-65043428D01*
X68294285Y-65043428D01*
X68237142Y-65072000D01*
X68208571Y-65100571D01*
X68180000Y-65157714D01*
X68180000Y-65243428D01*
X68208571Y-65300571D01*
X68237142Y-65329142D01*
X68294285Y-65357714D01*
X68522857Y-65357714D01*
X67980000Y-65043428D02*
X67580000Y-65043428D01*
X67837142Y-65643428D01*
%TO.C,C11*%
X71965714Y-64782285D02*
X71994285Y-64810857D01*
X72080000Y-64839428D01*
X72137142Y-64839428D01*
X72222857Y-64810857D01*
X72280000Y-64753714D01*
X72308571Y-64696571D01*
X72337142Y-64582285D01*
X72337142Y-64496571D01*
X72308571Y-64382285D01*
X72280000Y-64325142D01*
X72222857Y-64268000D01*
X72137142Y-64239428D01*
X72080000Y-64239428D01*
X71994285Y-64268000D01*
X71965714Y-64296571D01*
X71394285Y-64839428D02*
X71737142Y-64839428D01*
X71565714Y-64839428D02*
X71565714Y-64239428D01*
X71622857Y-64325142D01*
X71680000Y-64382285D01*
X71737142Y-64410857D01*
X70822857Y-64839428D02*
X71165714Y-64839428D01*
X70994285Y-64839428D02*
X70994285Y-64239428D01*
X71051428Y-64325142D01*
X71108571Y-64382285D01*
X71165714Y-64410857D01*
%TO.C,C62*%
X66925714Y-54544285D02*
X66954285Y-54572857D01*
X67040000Y-54601428D01*
X67097142Y-54601428D01*
X67182857Y-54572857D01*
X67240000Y-54515714D01*
X67268571Y-54458571D01*
X67297142Y-54344285D01*
X67297142Y-54258571D01*
X67268571Y-54144285D01*
X67240000Y-54087142D01*
X67182857Y-54030000D01*
X67097142Y-54001428D01*
X67040000Y-54001428D01*
X66954285Y-54030000D01*
X66925714Y-54058571D01*
X66411428Y-54001428D02*
X66525714Y-54001428D01*
X66582857Y-54030000D01*
X66611428Y-54058571D01*
X66668571Y-54144285D01*
X66697142Y-54258571D01*
X66697142Y-54487142D01*
X66668571Y-54544285D01*
X66640000Y-54572857D01*
X66582857Y-54601428D01*
X66468571Y-54601428D01*
X66411428Y-54572857D01*
X66382857Y-54544285D01*
X66354285Y-54487142D01*
X66354285Y-54344285D01*
X66382857Y-54287142D01*
X66411428Y-54258571D01*
X66468571Y-54230000D01*
X66582857Y-54230000D01*
X66640000Y-54258571D01*
X66668571Y-54287142D01*
X66697142Y-54344285D01*
X66125714Y-54058571D02*
X66097142Y-54030000D01*
X66040000Y-54001428D01*
X65897142Y-54001428D01*
X65840000Y-54030000D01*
X65811428Y-54058571D01*
X65782857Y-54115714D01*
X65782857Y-54172857D01*
X65811428Y-54258571D01*
X66154285Y-54601428D01*
X65782857Y-54601428D01*
%TO.C,R60*%
X70135714Y-64021428D02*
X70335714Y-63735714D01*
X70478571Y-64021428D02*
X70478571Y-63421428D01*
X70250000Y-63421428D01*
X70192857Y-63450000D01*
X70164285Y-63478571D01*
X70135714Y-63535714D01*
X70135714Y-63621428D01*
X70164285Y-63678571D01*
X70192857Y-63707142D01*
X70250000Y-63735714D01*
X70478571Y-63735714D01*
X69621428Y-63421428D02*
X69735714Y-63421428D01*
X69792857Y-63450000D01*
X69821428Y-63478571D01*
X69878571Y-63564285D01*
X69907142Y-63678571D01*
X69907142Y-63907142D01*
X69878571Y-63964285D01*
X69850000Y-63992857D01*
X69792857Y-64021428D01*
X69678571Y-64021428D01*
X69621428Y-63992857D01*
X69592857Y-63964285D01*
X69564285Y-63907142D01*
X69564285Y-63764285D01*
X69592857Y-63707142D01*
X69621428Y-63678571D01*
X69678571Y-63650000D01*
X69792857Y-63650000D01*
X69850000Y-63678571D01*
X69878571Y-63707142D01*
X69907142Y-63764285D01*
X69192857Y-63421428D02*
X69135714Y-63421428D01*
X69078571Y-63450000D01*
X69050000Y-63478571D01*
X69021428Y-63535714D01*
X68992857Y-63650000D01*
X68992857Y-63792857D01*
X69021428Y-63907142D01*
X69050000Y-63964285D01*
X69078571Y-63992857D01*
X69135714Y-64021428D01*
X69192857Y-64021428D01*
X69250000Y-63992857D01*
X69278571Y-63964285D01*
X69307142Y-63907142D01*
X69335714Y-63792857D01*
X69335714Y-63650000D01*
X69307142Y-63535714D01*
X69278571Y-63478571D01*
X69250000Y-63450000D01*
X69192857Y-63421428D01*
%TO.C,C57*%
X61545714Y-56854285D02*
X61574285Y-56882857D01*
X61660000Y-56911428D01*
X61717142Y-56911428D01*
X61802857Y-56882857D01*
X61860000Y-56825714D01*
X61888571Y-56768571D01*
X61917142Y-56654285D01*
X61917142Y-56568571D01*
X61888571Y-56454285D01*
X61860000Y-56397142D01*
X61802857Y-56340000D01*
X61717142Y-56311428D01*
X61660000Y-56311428D01*
X61574285Y-56340000D01*
X61545714Y-56368571D01*
X61002857Y-56311428D02*
X61288571Y-56311428D01*
X61317142Y-56597142D01*
X61288571Y-56568571D01*
X61231428Y-56540000D01*
X61088571Y-56540000D01*
X61031428Y-56568571D01*
X61002857Y-56597142D01*
X60974285Y-56654285D01*
X60974285Y-56797142D01*
X61002857Y-56854285D01*
X61031428Y-56882857D01*
X61088571Y-56911428D01*
X61231428Y-56911428D01*
X61288571Y-56882857D01*
X61317142Y-56854285D01*
X60774285Y-56311428D02*
X60374285Y-56311428D01*
X60631428Y-56911428D01*
%TO.C,R13*%
X53545714Y-54211428D02*
X53745714Y-53925714D01*
X53888571Y-54211428D02*
X53888571Y-53611428D01*
X53660000Y-53611428D01*
X53602857Y-53640000D01*
X53574285Y-53668571D01*
X53545714Y-53725714D01*
X53545714Y-53811428D01*
X53574285Y-53868571D01*
X53602857Y-53897142D01*
X53660000Y-53925714D01*
X53888571Y-53925714D01*
X52974285Y-54211428D02*
X53317142Y-54211428D01*
X53145714Y-54211428D02*
X53145714Y-53611428D01*
X53202857Y-53697142D01*
X53260000Y-53754285D01*
X53317142Y-53782857D01*
X52774285Y-53611428D02*
X52402857Y-53611428D01*
X52602857Y-53840000D01*
X52517142Y-53840000D01*
X52460000Y-53868571D01*
X52431428Y-53897142D01*
X52402857Y-53954285D01*
X52402857Y-54097142D01*
X52431428Y-54154285D01*
X52460000Y-54182857D01*
X52517142Y-54211428D01*
X52688571Y-54211428D01*
X52745714Y-54182857D01*
X52774285Y-54154285D01*
%TO.C,C37*%
X60714285Y-65304285D02*
X60742857Y-65275714D01*
X60771428Y-65190000D01*
X60771428Y-65132857D01*
X60742857Y-65047142D01*
X60685714Y-64990000D01*
X60628571Y-64961428D01*
X60514285Y-64932857D01*
X60428571Y-64932857D01*
X60314285Y-64961428D01*
X60257142Y-64990000D01*
X60200000Y-65047142D01*
X60171428Y-65132857D01*
X60171428Y-65190000D01*
X60200000Y-65275714D01*
X60228571Y-65304285D01*
X60171428Y-65504285D02*
X60171428Y-65875714D01*
X60400000Y-65675714D01*
X60400000Y-65761428D01*
X60428571Y-65818571D01*
X60457142Y-65847142D01*
X60514285Y-65875714D01*
X60657142Y-65875714D01*
X60714285Y-65847142D01*
X60742857Y-65818571D01*
X60771428Y-65761428D01*
X60771428Y-65590000D01*
X60742857Y-65532857D01*
X60714285Y-65504285D01*
X60171428Y-66075714D02*
X60171428Y-66475714D01*
X60771428Y-66218571D01*
%TO.C,C49*%
X61205714Y-54494285D02*
X61234285Y-54522857D01*
X61320000Y-54551428D01*
X61377142Y-54551428D01*
X61462857Y-54522857D01*
X61520000Y-54465714D01*
X61548571Y-54408571D01*
X61577142Y-54294285D01*
X61577142Y-54208571D01*
X61548571Y-54094285D01*
X61520000Y-54037142D01*
X61462857Y-53980000D01*
X61377142Y-53951428D01*
X61320000Y-53951428D01*
X61234285Y-53980000D01*
X61205714Y-54008571D01*
X60691428Y-54151428D02*
X60691428Y-54551428D01*
X60834285Y-53922857D02*
X60977142Y-54351428D01*
X60605714Y-54351428D01*
X60348571Y-54551428D02*
X60234285Y-54551428D01*
X60177142Y-54522857D01*
X60148571Y-54494285D01*
X60091428Y-54408571D01*
X60062857Y-54294285D01*
X60062857Y-54065714D01*
X60091428Y-54008571D01*
X60120000Y-53980000D01*
X60177142Y-53951428D01*
X60291428Y-53951428D01*
X60348571Y-53980000D01*
X60377142Y-54008571D01*
X60405714Y-54065714D01*
X60405714Y-54208571D01*
X60377142Y-54265714D01*
X60348571Y-54294285D01*
X60291428Y-54322857D01*
X60177142Y-54322857D01*
X60120000Y-54294285D01*
X60091428Y-54265714D01*
X60062857Y-54208571D01*
%TO.C,C20*%
X72155714Y-58904285D02*
X72184285Y-58932857D01*
X72270000Y-58961428D01*
X72327142Y-58961428D01*
X72412857Y-58932857D01*
X72470000Y-58875714D01*
X72498571Y-58818571D01*
X72527142Y-58704285D01*
X72527142Y-58618571D01*
X72498571Y-58504285D01*
X72470000Y-58447142D01*
X72412857Y-58390000D01*
X72327142Y-58361428D01*
X72270000Y-58361428D01*
X72184285Y-58390000D01*
X72155714Y-58418571D01*
X71927142Y-58418571D02*
X71898571Y-58390000D01*
X71841428Y-58361428D01*
X71698571Y-58361428D01*
X71641428Y-58390000D01*
X71612857Y-58418571D01*
X71584285Y-58475714D01*
X71584285Y-58532857D01*
X71612857Y-58618571D01*
X71955714Y-58961428D01*
X71584285Y-58961428D01*
X71212857Y-58361428D02*
X71155714Y-58361428D01*
X71098571Y-58390000D01*
X71070000Y-58418571D01*
X71041428Y-58475714D01*
X71012857Y-58590000D01*
X71012857Y-58732857D01*
X71041428Y-58847142D01*
X71070000Y-58904285D01*
X71098571Y-58932857D01*
X71155714Y-58961428D01*
X71212857Y-58961428D01*
X71270000Y-58932857D01*
X71298571Y-58904285D01*
X71327142Y-58847142D01*
X71355714Y-58732857D01*
X71355714Y-58590000D01*
X71327142Y-58475714D01*
X71298571Y-58418571D01*
X71270000Y-58390000D01*
X71212857Y-58361428D01*
%TO.C,C52*%
X68115714Y-55304285D02*
X68144285Y-55332857D01*
X68230000Y-55361428D01*
X68287142Y-55361428D01*
X68372857Y-55332857D01*
X68430000Y-55275714D01*
X68458571Y-55218571D01*
X68487142Y-55104285D01*
X68487142Y-55018571D01*
X68458571Y-54904285D01*
X68430000Y-54847142D01*
X68372857Y-54790000D01*
X68287142Y-54761428D01*
X68230000Y-54761428D01*
X68144285Y-54790000D01*
X68115714Y-54818571D01*
X67572857Y-54761428D02*
X67858571Y-54761428D01*
X67887142Y-55047142D01*
X67858571Y-55018571D01*
X67801428Y-54990000D01*
X67658571Y-54990000D01*
X67601428Y-55018571D01*
X67572857Y-55047142D01*
X67544285Y-55104285D01*
X67544285Y-55247142D01*
X67572857Y-55304285D01*
X67601428Y-55332857D01*
X67658571Y-55361428D01*
X67801428Y-55361428D01*
X67858571Y-55332857D01*
X67887142Y-55304285D01*
X67315714Y-54818571D02*
X67287142Y-54790000D01*
X67230000Y-54761428D01*
X67087142Y-54761428D01*
X67030000Y-54790000D01*
X67001428Y-54818571D01*
X66972857Y-54875714D01*
X66972857Y-54932857D01*
X67001428Y-55018571D01*
X67344285Y-55361428D01*
X66972857Y-55361428D01*
%TO.C,C42*%
X67395235Y-51465835D02*
X67423807Y-51437264D01*
X67452378Y-51351550D01*
X67452378Y-51294407D01*
X67423807Y-51208692D01*
X67366664Y-51151550D01*
X67309521Y-51122978D01*
X67195235Y-51094407D01*
X67109521Y-51094407D01*
X66995235Y-51122978D01*
X66938092Y-51151550D01*
X66880950Y-51208692D01*
X66852378Y-51294407D01*
X66852378Y-51351550D01*
X66880950Y-51437264D01*
X66909521Y-51465835D01*
X67052378Y-51980121D02*
X67452378Y-51980121D01*
X66823807Y-51837264D02*
X67252378Y-51694407D01*
X67252378Y-52065835D01*
X66909521Y-52265835D02*
X66880950Y-52294407D01*
X66852378Y-52351550D01*
X66852378Y-52494407D01*
X66880950Y-52551550D01*
X66909521Y-52580121D01*
X66966664Y-52608692D01*
X67023807Y-52608692D01*
X67109521Y-52580121D01*
X67452378Y-52237264D01*
X67452378Y-52608692D01*
%TO.C,R14*%
X53545714Y-52271428D02*
X53745714Y-51985714D01*
X53888571Y-52271428D02*
X53888571Y-51671428D01*
X53660000Y-51671428D01*
X53602857Y-51700000D01*
X53574285Y-51728571D01*
X53545714Y-51785714D01*
X53545714Y-51871428D01*
X53574285Y-51928571D01*
X53602857Y-51957142D01*
X53660000Y-51985714D01*
X53888571Y-51985714D01*
X52974285Y-52271428D02*
X53317142Y-52271428D01*
X53145714Y-52271428D02*
X53145714Y-51671428D01*
X53202857Y-51757142D01*
X53260000Y-51814285D01*
X53317142Y-51842857D01*
X52460000Y-51871428D02*
X52460000Y-52271428D01*
X52602857Y-51642857D02*
X52745714Y-52071428D01*
X52374285Y-52071428D01*
%TO.C,C35*%
X62114285Y-50734285D02*
X62142857Y-50705714D01*
X62171428Y-50620000D01*
X62171428Y-50562857D01*
X62142857Y-50477142D01*
X62085714Y-50420000D01*
X62028571Y-50391428D01*
X61914285Y-50362857D01*
X61828571Y-50362857D01*
X61714285Y-50391428D01*
X61657142Y-50420000D01*
X61600000Y-50477142D01*
X61571428Y-50562857D01*
X61571428Y-50620000D01*
X61600000Y-50705714D01*
X61628571Y-50734285D01*
X61571428Y-50934285D02*
X61571428Y-51305714D01*
X61800000Y-51105714D01*
X61800000Y-51191428D01*
X61828571Y-51248571D01*
X61857142Y-51277142D01*
X61914285Y-51305714D01*
X62057142Y-51305714D01*
X62114285Y-51277142D01*
X62142857Y-51248571D01*
X62171428Y-51191428D01*
X62171428Y-51020000D01*
X62142857Y-50962857D01*
X62114285Y-50934285D01*
X61571428Y-51848571D02*
X61571428Y-51562857D01*
X61857142Y-51534285D01*
X61828571Y-51562857D01*
X61800000Y-51620000D01*
X61800000Y-51762857D01*
X61828571Y-51820000D01*
X61857142Y-51848571D01*
X61914285Y-51877142D01*
X62057142Y-51877142D01*
X62114285Y-51848571D01*
X62142857Y-51820000D01*
X62171428Y-51762857D01*
X62171428Y-51620000D01*
X62142857Y-51562857D01*
X62114285Y-51534285D01*
%TO.C,C30*%
X59768335Y-64672735D02*
X59796907Y-64644164D01*
X59825478Y-64558450D01*
X59825478Y-64501307D01*
X59796907Y-64415592D01*
X59739764Y-64358450D01*
X59682621Y-64329878D01*
X59568335Y-64301307D01*
X59482621Y-64301307D01*
X59368335Y-64329878D01*
X59311192Y-64358450D01*
X59254050Y-64415592D01*
X59225478Y-64501307D01*
X59225478Y-64558450D01*
X59254050Y-64644164D01*
X59282621Y-64672735D01*
X59225478Y-64872735D02*
X59225478Y-65244164D01*
X59454050Y-65044164D01*
X59454050Y-65129878D01*
X59482621Y-65187021D01*
X59511192Y-65215592D01*
X59568335Y-65244164D01*
X59711192Y-65244164D01*
X59768335Y-65215592D01*
X59796907Y-65187021D01*
X59825478Y-65129878D01*
X59825478Y-64958450D01*
X59796907Y-64901307D01*
X59768335Y-64872735D01*
X59225478Y-65615592D02*
X59225478Y-65672735D01*
X59254050Y-65729878D01*
X59282621Y-65758450D01*
X59339764Y-65787021D01*
X59454050Y-65815592D01*
X59596907Y-65815592D01*
X59711192Y-65787021D01*
X59768335Y-65758450D01*
X59796907Y-65729878D01*
X59825478Y-65672735D01*
X59825478Y-65615592D01*
X59796907Y-65558450D01*
X59768335Y-65529878D01*
X59711192Y-65501307D01*
X59596907Y-65472735D01*
X59454050Y-65472735D01*
X59339764Y-65501307D01*
X59282621Y-65529878D01*
X59254050Y-65558450D01*
X59225478Y-65615592D01*
%TO.C,C43*%
X64874285Y-56484285D02*
X64902857Y-56455714D01*
X64931428Y-56370000D01*
X64931428Y-56312857D01*
X64902857Y-56227142D01*
X64845714Y-56170000D01*
X64788571Y-56141428D01*
X64674285Y-56112857D01*
X64588571Y-56112857D01*
X64474285Y-56141428D01*
X64417142Y-56170000D01*
X64360000Y-56227142D01*
X64331428Y-56312857D01*
X64331428Y-56370000D01*
X64360000Y-56455714D01*
X64388571Y-56484285D01*
X64531428Y-56998571D02*
X64931428Y-56998571D01*
X64302857Y-56855714D02*
X64731428Y-56712857D01*
X64731428Y-57084285D01*
X64331428Y-57255714D02*
X64331428Y-57627142D01*
X64560000Y-57427142D01*
X64560000Y-57512857D01*
X64588571Y-57570000D01*
X64617142Y-57598571D01*
X64674285Y-57627142D01*
X64817142Y-57627142D01*
X64874285Y-57598571D01*
X64902857Y-57570000D01*
X64931428Y-57512857D01*
X64931428Y-57341428D01*
X64902857Y-57284285D01*
X64874285Y-57255714D01*
%TO.C,C9*%
X69450000Y-62214285D02*
X69478571Y-62242857D01*
X69564285Y-62271428D01*
X69621428Y-62271428D01*
X69707142Y-62242857D01*
X69764285Y-62185714D01*
X69792857Y-62128571D01*
X69821428Y-62014285D01*
X69821428Y-61928571D01*
X69792857Y-61814285D01*
X69764285Y-61757142D01*
X69707142Y-61700000D01*
X69621428Y-61671428D01*
X69564285Y-61671428D01*
X69478571Y-61700000D01*
X69450000Y-61728571D01*
X69164285Y-62271428D02*
X69050000Y-62271428D01*
X68992857Y-62242857D01*
X68964285Y-62214285D01*
X68907142Y-62128571D01*
X68878571Y-62014285D01*
X68878571Y-61785714D01*
X68907142Y-61728571D01*
X68935714Y-61700000D01*
X68992857Y-61671428D01*
X69107142Y-61671428D01*
X69164285Y-61700000D01*
X69192857Y-61728571D01*
X69221428Y-61785714D01*
X69221428Y-61928571D01*
X69192857Y-61985714D01*
X69164285Y-62014285D01*
X69107142Y-62042857D01*
X68992857Y-62042857D01*
X68935714Y-62014285D01*
X68907142Y-61985714D01*
X68878571Y-61928571D01*
%TO.C,C21*%
X54195714Y-59174285D02*
X54224285Y-59202857D01*
X54310000Y-59231428D01*
X54367142Y-59231428D01*
X54452857Y-59202857D01*
X54510000Y-59145714D01*
X54538571Y-59088571D01*
X54567142Y-58974285D01*
X54567142Y-58888571D01*
X54538571Y-58774285D01*
X54510000Y-58717142D01*
X54452857Y-58660000D01*
X54367142Y-58631428D01*
X54310000Y-58631428D01*
X54224285Y-58660000D01*
X54195714Y-58688571D01*
X53967142Y-58688571D02*
X53938571Y-58660000D01*
X53881428Y-58631428D01*
X53738571Y-58631428D01*
X53681428Y-58660000D01*
X53652857Y-58688571D01*
X53624285Y-58745714D01*
X53624285Y-58802857D01*
X53652857Y-58888571D01*
X53995714Y-59231428D01*
X53624285Y-59231428D01*
X53052857Y-59231428D02*
X53395714Y-59231428D01*
X53224285Y-59231428D02*
X53224285Y-58631428D01*
X53281428Y-58717142D01*
X53338571Y-58774285D01*
X53395714Y-58802857D01*
%TO.C,C59*%
X59315714Y-54424285D02*
X59344285Y-54452857D01*
X59430000Y-54481428D01*
X59487142Y-54481428D01*
X59572857Y-54452857D01*
X59630000Y-54395714D01*
X59658571Y-54338571D01*
X59687142Y-54224285D01*
X59687142Y-54138571D01*
X59658571Y-54024285D01*
X59630000Y-53967142D01*
X59572857Y-53910000D01*
X59487142Y-53881428D01*
X59430000Y-53881428D01*
X59344285Y-53910000D01*
X59315714Y-53938571D01*
X58772857Y-53881428D02*
X59058571Y-53881428D01*
X59087142Y-54167142D01*
X59058571Y-54138571D01*
X59001428Y-54110000D01*
X58858571Y-54110000D01*
X58801428Y-54138571D01*
X58772857Y-54167142D01*
X58744285Y-54224285D01*
X58744285Y-54367142D01*
X58772857Y-54424285D01*
X58801428Y-54452857D01*
X58858571Y-54481428D01*
X59001428Y-54481428D01*
X59058571Y-54452857D01*
X59087142Y-54424285D01*
X58458571Y-54481428D02*
X58344285Y-54481428D01*
X58287142Y-54452857D01*
X58258571Y-54424285D01*
X58201428Y-54338571D01*
X58172857Y-54224285D01*
X58172857Y-53995714D01*
X58201428Y-53938571D01*
X58230000Y-53910000D01*
X58287142Y-53881428D01*
X58401428Y-53881428D01*
X58458571Y-53910000D01*
X58487142Y-53938571D01*
X58515714Y-53995714D01*
X58515714Y-54138571D01*
X58487142Y-54195714D01*
X58458571Y-54224285D01*
X58401428Y-54252857D01*
X58287142Y-54252857D01*
X58230000Y-54224285D01*
X58201428Y-54195714D01*
X58172857Y-54138571D01*
%TO.C,C15*%
X54255714Y-57214285D02*
X54284285Y-57242857D01*
X54370000Y-57271428D01*
X54427142Y-57271428D01*
X54512857Y-57242857D01*
X54570000Y-57185714D01*
X54598571Y-57128571D01*
X54627142Y-57014285D01*
X54627142Y-56928571D01*
X54598571Y-56814285D01*
X54570000Y-56757142D01*
X54512857Y-56700000D01*
X54427142Y-56671428D01*
X54370000Y-56671428D01*
X54284285Y-56700000D01*
X54255714Y-56728571D01*
X53684285Y-57271428D02*
X54027142Y-57271428D01*
X53855714Y-57271428D02*
X53855714Y-56671428D01*
X53912857Y-56757142D01*
X53970000Y-56814285D01*
X54027142Y-56842857D01*
X53141428Y-56671428D02*
X53427142Y-56671428D01*
X53455714Y-56957142D01*
X53427142Y-56928571D01*
X53370000Y-56900000D01*
X53227142Y-56900000D01*
X53170000Y-56928571D01*
X53141428Y-56957142D01*
X53112857Y-57014285D01*
X53112857Y-57157142D01*
X53141428Y-57214285D01*
X53170000Y-57242857D01*
X53227142Y-57271428D01*
X53370000Y-57271428D01*
X53427142Y-57242857D01*
X53455714Y-57214285D01*
%TO.C,C26*%
X62725835Y-65234285D02*
X62754407Y-65205714D01*
X62782978Y-65120000D01*
X62782978Y-65062857D01*
X62754407Y-64977142D01*
X62697264Y-64920000D01*
X62640121Y-64891428D01*
X62525835Y-64862857D01*
X62440121Y-64862857D01*
X62325835Y-64891428D01*
X62268692Y-64920000D01*
X62211550Y-64977142D01*
X62182978Y-65062857D01*
X62182978Y-65120000D01*
X62211550Y-65205714D01*
X62240121Y-65234285D01*
X62240121Y-65462857D02*
X62211550Y-65491428D01*
X62182978Y-65548571D01*
X62182978Y-65691428D01*
X62211550Y-65748571D01*
X62240121Y-65777142D01*
X62297264Y-65805714D01*
X62354407Y-65805714D01*
X62440121Y-65777142D01*
X62782978Y-65434285D01*
X62782978Y-65805714D01*
X62182978Y-66320000D02*
X62182978Y-66205714D01*
X62211550Y-66148571D01*
X62240121Y-66120000D01*
X62325835Y-66062857D01*
X62440121Y-66034285D01*
X62668692Y-66034285D01*
X62725835Y-66062857D01*
X62754407Y-66091428D01*
X62782978Y-66148571D01*
X62782978Y-66262857D01*
X62754407Y-66320000D01*
X62725835Y-66348571D01*
X62668692Y-66377142D01*
X62525835Y-66377142D01*
X62468692Y-66348571D01*
X62440121Y-66320000D01*
X62411550Y-66262857D01*
X62411550Y-66148571D01*
X62440121Y-66091428D01*
X62468692Y-66062857D01*
X62525835Y-66034285D01*
%TO.C,C44*%
X68295714Y-57424285D02*
X68324285Y-57452857D01*
X68410000Y-57481428D01*
X68467142Y-57481428D01*
X68552857Y-57452857D01*
X68610000Y-57395714D01*
X68638571Y-57338571D01*
X68667142Y-57224285D01*
X68667142Y-57138571D01*
X68638571Y-57024285D01*
X68610000Y-56967142D01*
X68552857Y-56910000D01*
X68467142Y-56881428D01*
X68410000Y-56881428D01*
X68324285Y-56910000D01*
X68295714Y-56938571D01*
X67781428Y-57081428D02*
X67781428Y-57481428D01*
X67924285Y-56852857D02*
X68067142Y-57281428D01*
X67695714Y-57281428D01*
X67210000Y-57081428D02*
X67210000Y-57481428D01*
X67352857Y-56852857D02*
X67495714Y-57281428D01*
X67124285Y-57281428D01*
%TO.C,C51*%
X61175714Y-55434285D02*
X61204285Y-55462857D01*
X61290000Y-55491428D01*
X61347142Y-55491428D01*
X61432857Y-55462857D01*
X61490000Y-55405714D01*
X61518571Y-55348571D01*
X61547142Y-55234285D01*
X61547142Y-55148571D01*
X61518571Y-55034285D01*
X61490000Y-54977142D01*
X61432857Y-54920000D01*
X61347142Y-54891428D01*
X61290000Y-54891428D01*
X61204285Y-54920000D01*
X61175714Y-54948571D01*
X60632857Y-54891428D02*
X60918571Y-54891428D01*
X60947142Y-55177142D01*
X60918571Y-55148571D01*
X60861428Y-55120000D01*
X60718571Y-55120000D01*
X60661428Y-55148571D01*
X60632857Y-55177142D01*
X60604285Y-55234285D01*
X60604285Y-55377142D01*
X60632857Y-55434285D01*
X60661428Y-55462857D01*
X60718571Y-55491428D01*
X60861428Y-55491428D01*
X60918571Y-55462857D01*
X60947142Y-55434285D01*
X60032857Y-55491428D02*
X60375714Y-55491428D01*
X60204285Y-55491428D02*
X60204285Y-54891428D01*
X60261428Y-54977142D01*
X60318571Y-55034285D01*
X60375714Y-55062857D01*
%TO.C,R10*%
X65906664Y-61917978D02*
X66106664Y-61632264D01*
X66249521Y-61917978D02*
X66249521Y-61317978D01*
X66020950Y-61317978D01*
X65963807Y-61346550D01*
X65935235Y-61375121D01*
X65906664Y-61432264D01*
X65906664Y-61517978D01*
X65935235Y-61575121D01*
X65963807Y-61603692D01*
X66020950Y-61632264D01*
X66249521Y-61632264D01*
X65335235Y-61917978D02*
X65678092Y-61917978D01*
X65506664Y-61917978D02*
X65506664Y-61317978D01*
X65563807Y-61403692D01*
X65620950Y-61460835D01*
X65678092Y-61489407D01*
X64963807Y-61317978D02*
X64906664Y-61317978D01*
X64849521Y-61346550D01*
X64820950Y-61375121D01*
X64792378Y-61432264D01*
X64763807Y-61546550D01*
X64763807Y-61689407D01*
X64792378Y-61803692D01*
X64820950Y-61860835D01*
X64849521Y-61889407D01*
X64906664Y-61917978D01*
X64963807Y-61917978D01*
X65020950Y-61889407D01*
X65049521Y-61860835D01*
X65078092Y-61803692D01*
X65106664Y-61689407D01*
X65106664Y-61546550D01*
X65078092Y-61432264D01*
X65049521Y-61375121D01*
X65020950Y-61346550D01*
X64963807Y-61317978D01*
%TO.C,C82*%
X40335714Y-38394285D02*
X40364285Y-38422857D01*
X40450000Y-38451428D01*
X40507142Y-38451428D01*
X40592857Y-38422857D01*
X40650000Y-38365714D01*
X40678571Y-38308571D01*
X40707142Y-38194285D01*
X40707142Y-38108571D01*
X40678571Y-37994285D01*
X40650000Y-37937142D01*
X40592857Y-37880000D01*
X40507142Y-37851428D01*
X40450000Y-37851428D01*
X40364285Y-37880000D01*
X40335714Y-37908571D01*
X39992857Y-38108571D02*
X40050000Y-38080000D01*
X40078571Y-38051428D01*
X40107142Y-37994285D01*
X40107142Y-37965714D01*
X40078571Y-37908571D01*
X40050000Y-37880000D01*
X39992857Y-37851428D01*
X39878571Y-37851428D01*
X39821428Y-37880000D01*
X39792857Y-37908571D01*
X39764285Y-37965714D01*
X39764285Y-37994285D01*
X39792857Y-38051428D01*
X39821428Y-38080000D01*
X39878571Y-38108571D01*
X39992857Y-38108571D01*
X40050000Y-38137142D01*
X40078571Y-38165714D01*
X40107142Y-38222857D01*
X40107142Y-38337142D01*
X40078571Y-38394285D01*
X40050000Y-38422857D01*
X39992857Y-38451428D01*
X39878571Y-38451428D01*
X39821428Y-38422857D01*
X39792857Y-38394285D01*
X39764285Y-38337142D01*
X39764285Y-38222857D01*
X39792857Y-38165714D01*
X39821428Y-38137142D01*
X39878571Y-38108571D01*
X39535714Y-37908571D02*
X39507142Y-37880000D01*
X39450000Y-37851428D01*
X39307142Y-37851428D01*
X39250000Y-37880000D01*
X39221428Y-37908571D01*
X39192857Y-37965714D01*
X39192857Y-38022857D01*
X39221428Y-38108571D01*
X39564285Y-38451428D01*
X39192857Y-38451428D01*
%TO.C,C10*%
X68535714Y-50104285D02*
X68564285Y-50132857D01*
X68650000Y-50161428D01*
X68707142Y-50161428D01*
X68792857Y-50132857D01*
X68850000Y-50075714D01*
X68878571Y-50018571D01*
X68907142Y-49904285D01*
X68907142Y-49818571D01*
X68878571Y-49704285D01*
X68850000Y-49647142D01*
X68792857Y-49590000D01*
X68707142Y-49561428D01*
X68650000Y-49561428D01*
X68564285Y-49590000D01*
X68535714Y-49618571D01*
X67964285Y-50161428D02*
X68307142Y-50161428D01*
X68135714Y-50161428D02*
X68135714Y-49561428D01*
X68192857Y-49647142D01*
X68250000Y-49704285D01*
X68307142Y-49732857D01*
X67592857Y-49561428D02*
X67535714Y-49561428D01*
X67478571Y-49590000D01*
X67450000Y-49618571D01*
X67421428Y-49675714D01*
X67392857Y-49790000D01*
X67392857Y-49932857D01*
X67421428Y-50047142D01*
X67450000Y-50104285D01*
X67478571Y-50132857D01*
X67535714Y-50161428D01*
X67592857Y-50161428D01*
X67650000Y-50132857D01*
X67678571Y-50104285D01*
X67707142Y-50047142D01*
X67735714Y-49932857D01*
X67735714Y-49790000D01*
X67707142Y-49675714D01*
X67678571Y-49618571D01*
X67650000Y-49590000D01*
X67592857Y-49561428D01*
%TO.C,C80*%
X40275714Y-39464285D02*
X40304285Y-39492857D01*
X40390000Y-39521428D01*
X40447142Y-39521428D01*
X40532857Y-39492857D01*
X40590000Y-39435714D01*
X40618571Y-39378571D01*
X40647142Y-39264285D01*
X40647142Y-39178571D01*
X40618571Y-39064285D01*
X40590000Y-39007142D01*
X40532857Y-38950000D01*
X40447142Y-38921428D01*
X40390000Y-38921428D01*
X40304285Y-38950000D01*
X40275714Y-38978571D01*
X39932857Y-39178571D02*
X39990000Y-39150000D01*
X40018571Y-39121428D01*
X40047142Y-39064285D01*
X40047142Y-39035714D01*
X40018571Y-38978571D01*
X39990000Y-38950000D01*
X39932857Y-38921428D01*
X39818571Y-38921428D01*
X39761428Y-38950000D01*
X39732857Y-38978571D01*
X39704285Y-39035714D01*
X39704285Y-39064285D01*
X39732857Y-39121428D01*
X39761428Y-39150000D01*
X39818571Y-39178571D01*
X39932857Y-39178571D01*
X39990000Y-39207142D01*
X40018571Y-39235714D01*
X40047142Y-39292857D01*
X40047142Y-39407142D01*
X40018571Y-39464285D01*
X39990000Y-39492857D01*
X39932857Y-39521428D01*
X39818571Y-39521428D01*
X39761428Y-39492857D01*
X39732857Y-39464285D01*
X39704285Y-39407142D01*
X39704285Y-39292857D01*
X39732857Y-39235714D01*
X39761428Y-39207142D01*
X39818571Y-39178571D01*
X39332857Y-38921428D02*
X39275714Y-38921428D01*
X39218571Y-38950000D01*
X39190000Y-38978571D01*
X39161428Y-39035714D01*
X39132857Y-39150000D01*
X39132857Y-39292857D01*
X39161428Y-39407142D01*
X39190000Y-39464285D01*
X39218571Y-39492857D01*
X39275714Y-39521428D01*
X39332857Y-39521428D01*
X39390000Y-39492857D01*
X39418571Y-39464285D01*
X39447142Y-39407142D01*
X39475714Y-39292857D01*
X39475714Y-39150000D01*
X39447142Y-39035714D01*
X39418571Y-38978571D01*
X39390000Y-38950000D01*
X39332857Y-38921428D01*
%TO.C,C48*%
X60154285Y-60034285D02*
X60182857Y-60005714D01*
X60211428Y-59920000D01*
X60211428Y-59862857D01*
X60182857Y-59777142D01*
X60125714Y-59720000D01*
X60068571Y-59691428D01*
X59954285Y-59662857D01*
X59868571Y-59662857D01*
X59754285Y-59691428D01*
X59697142Y-59720000D01*
X59640000Y-59777142D01*
X59611428Y-59862857D01*
X59611428Y-59920000D01*
X59640000Y-60005714D01*
X59668571Y-60034285D01*
X59811428Y-60548571D02*
X60211428Y-60548571D01*
X59582857Y-60405714D02*
X60011428Y-60262857D01*
X60011428Y-60634285D01*
X59868571Y-60948571D02*
X59840000Y-60891428D01*
X59811428Y-60862857D01*
X59754285Y-60834285D01*
X59725714Y-60834285D01*
X59668571Y-60862857D01*
X59640000Y-60891428D01*
X59611428Y-60948571D01*
X59611428Y-61062857D01*
X59640000Y-61120000D01*
X59668571Y-61148571D01*
X59725714Y-61177142D01*
X59754285Y-61177142D01*
X59811428Y-61148571D01*
X59840000Y-61120000D01*
X59868571Y-61062857D01*
X59868571Y-60948571D01*
X59897142Y-60891428D01*
X59925714Y-60862857D01*
X59982857Y-60834285D01*
X60097142Y-60834285D01*
X60154285Y-60862857D01*
X60182857Y-60891428D01*
X60211428Y-60948571D01*
X60211428Y-61062857D01*
X60182857Y-61120000D01*
X60154285Y-61148571D01*
X60097142Y-61177142D01*
X59982857Y-61177142D01*
X59925714Y-61148571D01*
X59897142Y-61120000D01*
X59868571Y-61062857D01*
%TO.C,C13*%
X54245714Y-60994285D02*
X54274285Y-61022857D01*
X54360000Y-61051428D01*
X54417142Y-61051428D01*
X54502857Y-61022857D01*
X54560000Y-60965714D01*
X54588571Y-60908571D01*
X54617142Y-60794285D01*
X54617142Y-60708571D01*
X54588571Y-60594285D01*
X54560000Y-60537142D01*
X54502857Y-60480000D01*
X54417142Y-60451428D01*
X54360000Y-60451428D01*
X54274285Y-60480000D01*
X54245714Y-60508571D01*
X53674285Y-61051428D02*
X54017142Y-61051428D01*
X53845714Y-61051428D02*
X53845714Y-60451428D01*
X53902857Y-60537142D01*
X53960000Y-60594285D01*
X54017142Y-60622857D01*
X53474285Y-60451428D02*
X53102857Y-60451428D01*
X53302857Y-60680000D01*
X53217142Y-60680000D01*
X53160000Y-60708571D01*
X53131428Y-60737142D01*
X53102857Y-60794285D01*
X53102857Y-60937142D01*
X53131428Y-60994285D01*
X53160000Y-61022857D01*
X53217142Y-61051428D01*
X53388571Y-61051428D01*
X53445714Y-61022857D01*
X53474285Y-60994285D01*
%TO.C,C89*%
X81964285Y-66446785D02*
X81992857Y-66418214D01*
X82021428Y-66332500D01*
X82021428Y-66275357D01*
X81992857Y-66189642D01*
X81935714Y-66132500D01*
X81878571Y-66103928D01*
X81764285Y-66075357D01*
X81678571Y-66075357D01*
X81564285Y-66103928D01*
X81507142Y-66132500D01*
X81450000Y-66189642D01*
X81421428Y-66275357D01*
X81421428Y-66332500D01*
X81450000Y-66418214D01*
X81478571Y-66446785D01*
X81678571Y-66789642D02*
X81650000Y-66732500D01*
X81621428Y-66703928D01*
X81564285Y-66675357D01*
X81535714Y-66675357D01*
X81478571Y-66703928D01*
X81450000Y-66732500D01*
X81421428Y-66789642D01*
X81421428Y-66903928D01*
X81450000Y-66961071D01*
X81478571Y-66989642D01*
X81535714Y-67018214D01*
X81564285Y-67018214D01*
X81621428Y-66989642D01*
X81650000Y-66961071D01*
X81678571Y-66903928D01*
X81678571Y-66789642D01*
X81707142Y-66732500D01*
X81735714Y-66703928D01*
X81792857Y-66675357D01*
X81907142Y-66675357D01*
X81964285Y-66703928D01*
X81992857Y-66732500D01*
X82021428Y-66789642D01*
X82021428Y-66903928D01*
X81992857Y-66961071D01*
X81964285Y-66989642D01*
X81907142Y-67018214D01*
X81792857Y-67018214D01*
X81735714Y-66989642D01*
X81707142Y-66961071D01*
X81678571Y-66903928D01*
X82021428Y-67303928D02*
X82021428Y-67418214D01*
X81992857Y-67475357D01*
X81964285Y-67503928D01*
X81878571Y-67561071D01*
X81764285Y-67589642D01*
X81535714Y-67589642D01*
X81478571Y-67561071D01*
X81450000Y-67532500D01*
X81421428Y-67475357D01*
X81421428Y-67361071D01*
X81450000Y-67303928D01*
X81478571Y-67275357D01*
X81535714Y-67246785D01*
X81678571Y-67246785D01*
X81735714Y-67275357D01*
X81764285Y-67303928D01*
X81792857Y-67361071D01*
X81792857Y-67475357D01*
X81764285Y-67532500D01*
X81735714Y-67561071D01*
X81678571Y-67589642D01*
%TO.C,R44*%
X57361428Y-49664285D02*
X57075714Y-49464285D01*
X57361428Y-49321428D02*
X56761428Y-49321428D01*
X56761428Y-49550000D01*
X56790000Y-49607142D01*
X56818571Y-49635714D01*
X56875714Y-49664285D01*
X56961428Y-49664285D01*
X57018571Y-49635714D01*
X57047142Y-49607142D01*
X57075714Y-49550000D01*
X57075714Y-49321428D01*
X56961428Y-50178571D02*
X57361428Y-50178571D01*
X56732857Y-50035714D02*
X57161428Y-49892857D01*
X57161428Y-50264285D01*
X56961428Y-50750000D02*
X57361428Y-50750000D01*
X56732857Y-50607142D02*
X57161428Y-50464285D01*
X57161428Y-50835714D01*
%TO.C,C18*%
X72125714Y-61354285D02*
X72154285Y-61382857D01*
X72240000Y-61411428D01*
X72297142Y-61411428D01*
X72382857Y-61382857D01*
X72440000Y-61325714D01*
X72468571Y-61268571D01*
X72497142Y-61154285D01*
X72497142Y-61068571D01*
X72468571Y-60954285D01*
X72440000Y-60897142D01*
X72382857Y-60840000D01*
X72297142Y-60811428D01*
X72240000Y-60811428D01*
X72154285Y-60840000D01*
X72125714Y-60868571D01*
X71554285Y-61411428D02*
X71897142Y-61411428D01*
X71725714Y-61411428D02*
X71725714Y-60811428D01*
X71782857Y-60897142D01*
X71840000Y-60954285D01*
X71897142Y-60982857D01*
X71211428Y-61068571D02*
X71268571Y-61040000D01*
X71297142Y-61011428D01*
X71325714Y-60954285D01*
X71325714Y-60925714D01*
X71297142Y-60868571D01*
X71268571Y-60840000D01*
X71211428Y-60811428D01*
X71097142Y-60811428D01*
X71040000Y-60840000D01*
X71011428Y-60868571D01*
X70982857Y-60925714D01*
X70982857Y-60954285D01*
X71011428Y-61011428D01*
X71040000Y-61040000D01*
X71097142Y-61068571D01*
X71211428Y-61068571D01*
X71268571Y-61097142D01*
X71297142Y-61125714D01*
X71325714Y-61182857D01*
X71325714Y-61297142D01*
X71297142Y-61354285D01*
X71268571Y-61382857D01*
X71211428Y-61411428D01*
X71097142Y-61411428D01*
X71040000Y-61382857D01*
X71011428Y-61354285D01*
X70982857Y-61297142D01*
X70982857Y-61182857D01*
X71011428Y-61125714D01*
X71040000Y-61097142D01*
X71097142Y-61068571D01*
%TO.C,C88*%
X80904285Y-66426785D02*
X80932857Y-66398214D01*
X80961428Y-66312500D01*
X80961428Y-66255357D01*
X80932857Y-66169642D01*
X80875714Y-66112500D01*
X80818571Y-66083928D01*
X80704285Y-66055357D01*
X80618571Y-66055357D01*
X80504285Y-66083928D01*
X80447142Y-66112500D01*
X80390000Y-66169642D01*
X80361428Y-66255357D01*
X80361428Y-66312500D01*
X80390000Y-66398214D01*
X80418571Y-66426785D01*
X80618571Y-66769642D02*
X80590000Y-66712500D01*
X80561428Y-66683928D01*
X80504285Y-66655357D01*
X80475714Y-66655357D01*
X80418571Y-66683928D01*
X80390000Y-66712500D01*
X80361428Y-66769642D01*
X80361428Y-66883928D01*
X80390000Y-66941071D01*
X80418571Y-66969642D01*
X80475714Y-66998214D01*
X80504285Y-66998214D01*
X80561428Y-66969642D01*
X80590000Y-66941071D01*
X80618571Y-66883928D01*
X80618571Y-66769642D01*
X80647142Y-66712500D01*
X80675714Y-66683928D01*
X80732857Y-66655357D01*
X80847142Y-66655357D01*
X80904285Y-66683928D01*
X80932857Y-66712500D01*
X80961428Y-66769642D01*
X80961428Y-66883928D01*
X80932857Y-66941071D01*
X80904285Y-66969642D01*
X80847142Y-66998214D01*
X80732857Y-66998214D01*
X80675714Y-66969642D01*
X80647142Y-66941071D01*
X80618571Y-66883928D01*
X80618571Y-67341071D02*
X80590000Y-67283928D01*
X80561428Y-67255357D01*
X80504285Y-67226785D01*
X80475714Y-67226785D01*
X80418571Y-67255357D01*
X80390000Y-67283928D01*
X80361428Y-67341071D01*
X80361428Y-67455357D01*
X80390000Y-67512500D01*
X80418571Y-67541071D01*
X80475714Y-67569642D01*
X80504285Y-67569642D01*
X80561428Y-67541071D01*
X80590000Y-67512500D01*
X80618571Y-67455357D01*
X80618571Y-67341071D01*
X80647142Y-67283928D01*
X80675714Y-67255357D01*
X80732857Y-67226785D01*
X80847142Y-67226785D01*
X80904285Y-67255357D01*
X80932857Y-67283928D01*
X80961428Y-67341071D01*
X80961428Y-67455357D01*
X80932857Y-67512500D01*
X80904285Y-67541071D01*
X80847142Y-67569642D01*
X80732857Y-67569642D01*
X80675714Y-67541071D01*
X80647142Y-67512500D01*
X80618571Y-67455357D01*
%TO.C,C16*%
X72275714Y-57634285D02*
X72304285Y-57662857D01*
X72390000Y-57691428D01*
X72447142Y-57691428D01*
X72532857Y-57662857D01*
X72590000Y-57605714D01*
X72618571Y-57548571D01*
X72647142Y-57434285D01*
X72647142Y-57348571D01*
X72618571Y-57234285D01*
X72590000Y-57177142D01*
X72532857Y-57120000D01*
X72447142Y-57091428D01*
X72390000Y-57091428D01*
X72304285Y-57120000D01*
X72275714Y-57148571D01*
X71704285Y-57691428D02*
X72047142Y-57691428D01*
X71875714Y-57691428D02*
X71875714Y-57091428D01*
X71932857Y-57177142D01*
X71990000Y-57234285D01*
X72047142Y-57262857D01*
X71190000Y-57091428D02*
X71304285Y-57091428D01*
X71361428Y-57120000D01*
X71390000Y-57148571D01*
X71447142Y-57234285D01*
X71475714Y-57348571D01*
X71475714Y-57577142D01*
X71447142Y-57634285D01*
X71418571Y-57662857D01*
X71361428Y-57691428D01*
X71247142Y-57691428D01*
X71190000Y-57662857D01*
X71161428Y-57634285D01*
X71132857Y-57577142D01*
X71132857Y-57434285D01*
X71161428Y-57377142D01*
X71190000Y-57348571D01*
X71247142Y-57320000D01*
X71361428Y-57320000D01*
X71418571Y-57348571D01*
X71447142Y-57377142D01*
X71475714Y-57434285D01*
%TO.C,C12*%
X54215714Y-60074285D02*
X54244285Y-60102857D01*
X54330000Y-60131428D01*
X54387142Y-60131428D01*
X54472857Y-60102857D01*
X54530000Y-60045714D01*
X54558571Y-59988571D01*
X54587142Y-59874285D01*
X54587142Y-59788571D01*
X54558571Y-59674285D01*
X54530000Y-59617142D01*
X54472857Y-59560000D01*
X54387142Y-59531428D01*
X54330000Y-59531428D01*
X54244285Y-59560000D01*
X54215714Y-59588571D01*
X53644285Y-60131428D02*
X53987142Y-60131428D01*
X53815714Y-60131428D02*
X53815714Y-59531428D01*
X53872857Y-59617142D01*
X53930000Y-59674285D01*
X53987142Y-59702857D01*
X53415714Y-59588571D02*
X53387142Y-59560000D01*
X53330000Y-59531428D01*
X53187142Y-59531428D01*
X53130000Y-59560000D01*
X53101428Y-59588571D01*
X53072857Y-59645714D01*
X53072857Y-59702857D01*
X53101428Y-59788571D01*
X53444285Y-60131428D01*
X53072857Y-60131428D01*
%TO.C,C54*%
X58155714Y-61494285D02*
X58184285Y-61522857D01*
X58270000Y-61551428D01*
X58327142Y-61551428D01*
X58412857Y-61522857D01*
X58470000Y-61465714D01*
X58498571Y-61408571D01*
X58527142Y-61294285D01*
X58527142Y-61208571D01*
X58498571Y-61094285D01*
X58470000Y-61037142D01*
X58412857Y-60980000D01*
X58327142Y-60951428D01*
X58270000Y-60951428D01*
X58184285Y-60980000D01*
X58155714Y-61008571D01*
X57612857Y-60951428D02*
X57898571Y-60951428D01*
X57927142Y-61237142D01*
X57898571Y-61208571D01*
X57841428Y-61180000D01*
X57698571Y-61180000D01*
X57641428Y-61208571D01*
X57612857Y-61237142D01*
X57584285Y-61294285D01*
X57584285Y-61437142D01*
X57612857Y-61494285D01*
X57641428Y-61522857D01*
X57698571Y-61551428D01*
X57841428Y-61551428D01*
X57898571Y-61522857D01*
X57927142Y-61494285D01*
X57070000Y-61151428D02*
X57070000Y-61551428D01*
X57212857Y-60922857D02*
X57355714Y-61351428D01*
X56984285Y-61351428D01*
%TO.C,C79*%
X55785714Y-39614285D02*
X55814285Y-39642857D01*
X55900000Y-39671428D01*
X55957142Y-39671428D01*
X56042857Y-39642857D01*
X56100000Y-39585714D01*
X56128571Y-39528571D01*
X56157142Y-39414285D01*
X56157142Y-39328571D01*
X56128571Y-39214285D01*
X56100000Y-39157142D01*
X56042857Y-39100000D01*
X55957142Y-39071428D01*
X55900000Y-39071428D01*
X55814285Y-39100000D01*
X55785714Y-39128571D01*
X55585714Y-39071428D02*
X55185714Y-39071428D01*
X55442857Y-39671428D01*
X54928571Y-39671428D02*
X54814285Y-39671428D01*
X54757142Y-39642857D01*
X54728571Y-39614285D01*
X54671428Y-39528571D01*
X54642857Y-39414285D01*
X54642857Y-39185714D01*
X54671428Y-39128571D01*
X54700000Y-39100000D01*
X54757142Y-39071428D01*
X54871428Y-39071428D01*
X54928571Y-39100000D01*
X54957142Y-39128571D01*
X54985714Y-39185714D01*
X54985714Y-39328571D01*
X54957142Y-39385714D01*
X54928571Y-39414285D01*
X54871428Y-39442857D01*
X54757142Y-39442857D01*
X54700000Y-39414285D01*
X54671428Y-39385714D01*
X54642857Y-39328571D01*
%TO.C,C58*%
X60845714Y-46984285D02*
X60874285Y-47012857D01*
X60960000Y-47041428D01*
X61017142Y-47041428D01*
X61102857Y-47012857D01*
X61160000Y-46955714D01*
X61188571Y-46898571D01*
X61217142Y-46784285D01*
X61217142Y-46698571D01*
X61188571Y-46584285D01*
X61160000Y-46527142D01*
X61102857Y-46470000D01*
X61017142Y-46441428D01*
X60960000Y-46441428D01*
X60874285Y-46470000D01*
X60845714Y-46498571D01*
X60302857Y-46441428D02*
X60588571Y-46441428D01*
X60617142Y-46727142D01*
X60588571Y-46698571D01*
X60531428Y-46670000D01*
X60388571Y-46670000D01*
X60331428Y-46698571D01*
X60302857Y-46727142D01*
X60274285Y-46784285D01*
X60274285Y-46927142D01*
X60302857Y-46984285D01*
X60331428Y-47012857D01*
X60388571Y-47041428D01*
X60531428Y-47041428D01*
X60588571Y-47012857D01*
X60617142Y-46984285D01*
X59931428Y-46698571D02*
X59988571Y-46670000D01*
X60017142Y-46641428D01*
X60045714Y-46584285D01*
X60045714Y-46555714D01*
X60017142Y-46498571D01*
X59988571Y-46470000D01*
X59931428Y-46441428D01*
X59817142Y-46441428D01*
X59760000Y-46470000D01*
X59731428Y-46498571D01*
X59702857Y-46555714D01*
X59702857Y-46584285D01*
X59731428Y-46641428D01*
X59760000Y-46670000D01*
X59817142Y-46698571D01*
X59931428Y-46698571D01*
X59988571Y-46727142D01*
X60017142Y-46755714D01*
X60045714Y-46812857D01*
X60045714Y-46927142D01*
X60017142Y-46984285D01*
X59988571Y-47012857D01*
X59931428Y-47041428D01*
X59817142Y-47041428D01*
X59760000Y-47012857D01*
X59731428Y-46984285D01*
X59702857Y-46927142D01*
X59702857Y-46812857D01*
X59731428Y-46755714D01*
X59760000Y-46727142D01*
X59817142Y-46698571D01*
D11*
%TO.C,C33*%
X64463114Y-53041550D02*
X64678786Y-53041550D01*
X64463114Y-53761550D02*
X64678786Y-53761550D01*
%TO.C,C31*%
X57035000Y-62962164D02*
X57035000Y-63177836D01*
X56315000Y-62962164D02*
X56315000Y-63177836D01*
%TO.C,C55*%
X63478786Y-50191550D02*
X63263114Y-50191550D01*
X63478786Y-50911550D02*
X63263114Y-50911550D01*
%TO.C,C14*%
X55828786Y-58311550D02*
X55613114Y-58311550D01*
X55828786Y-57591550D02*
X55613114Y-57591550D01*
%TO.C,C60*%
X60478786Y-50236550D02*
X60263114Y-50236550D01*
X60478786Y-49516550D02*
X60263114Y-49516550D01*
%TO.C,C24*%
X62360950Y-58634386D02*
X62360950Y-58418714D01*
X63080950Y-58634386D02*
X63080950Y-58418714D01*
%TO.C,R5*%
X67953641Y-62520000D02*
X67646359Y-62520000D01*
X67953641Y-63280000D02*
X67646359Y-63280000D01*
D10*
%TO.C,D5*%
X42750000Y-42250000D02*
X42750000Y-41250000D01*
X42950000Y-42250000D02*
X42950000Y-41250000D01*
X42750000Y-42250000D02*
X42950000Y-42250000D01*
X42950000Y-41250000D02*
X42750000Y-41250000D01*
D11*
%TO.C,C56*%
X63478786Y-51141550D02*
X63263114Y-51141550D01*
X63478786Y-51861550D02*
X63263114Y-51861550D01*
%TO.C,C17*%
X69813114Y-56761550D02*
X70028786Y-56761550D01*
X69813114Y-56041550D02*
X70028786Y-56041550D01*
%TO.C,C29*%
X58215000Y-62962164D02*
X58215000Y-63177836D01*
X58935000Y-62962164D02*
X58935000Y-63177836D01*
%TO.C,C41*%
X58410000Y-52107836D02*
X58410000Y-51892164D01*
X57690000Y-52107836D02*
X57690000Y-51892164D01*
%TO.C,C50*%
X56860950Y-55534386D02*
X56860950Y-55318714D01*
X57580950Y-55534386D02*
X57580950Y-55318714D01*
%TO.C,C66*%
X55157836Y-52540000D02*
X54942164Y-52540000D01*
X55157836Y-53260000D02*
X54942164Y-53260000D01*
%TO.C,C19*%
X69792164Y-59765000D02*
X70007836Y-59765000D01*
X69792164Y-60485000D02*
X70007836Y-60485000D01*
%TO.C,C25*%
X63115000Y-63643714D02*
X63115000Y-63859386D01*
X63835000Y-63643714D02*
X63835000Y-63859386D01*
%TO.C,C22*%
X69813114Y-55091550D02*
X70028786Y-55091550D01*
X69813114Y-55811550D02*
X70028786Y-55811550D01*
%TO.C,C61*%
X66330950Y-57593714D02*
X66330950Y-57809386D01*
X65610950Y-57593714D02*
X65610950Y-57809386D01*
%TO.C,C81*%
X53417164Y-38685000D02*
X53632836Y-38685000D01*
X53417164Y-37965000D02*
X53632836Y-37965000D01*
%TO.C,C53*%
X67738114Y-58991550D02*
X67953786Y-58991550D01*
X67738114Y-59711550D02*
X67953786Y-59711550D01*
%TO.C,C32*%
X57265000Y-62962164D02*
X57265000Y-63177836D01*
X57985000Y-62962164D02*
X57985000Y-63177836D01*
%TO.C,C36*%
X63255950Y-52984386D02*
X63255950Y-52768714D01*
X62535950Y-52984386D02*
X62535950Y-52768714D01*
%TO.C,R6*%
X66453641Y-49280000D02*
X66146359Y-49280000D01*
X66453641Y-48520000D02*
X66146359Y-48520000D01*
%TO.C,C38*%
X61780950Y-63643714D02*
X61780950Y-63859386D01*
X61060950Y-63643714D02*
X61060950Y-63859386D01*
%TO.C,R7*%
X69853641Y-65880000D02*
X69546359Y-65880000D01*
X69853641Y-65120000D02*
X69546359Y-65120000D01*
%TO.C,C11*%
X69582164Y-64928000D02*
X69797836Y-64928000D01*
X69582164Y-64208000D02*
X69797836Y-64208000D01*
%TO.C,C62*%
X64678786Y-53991550D02*
X64463114Y-53991550D01*
X64678786Y-54711550D02*
X64463114Y-54711550D01*
%TO.C,R60*%
X67953641Y-63470000D02*
X67646359Y-63470000D01*
X67953641Y-64230000D02*
X67646359Y-64230000D01*
%TO.C,C57*%
X59357836Y-56911550D02*
X59142164Y-56911550D01*
X59357836Y-56191550D02*
X59142164Y-56191550D01*
%TO.C,R13*%
X55203641Y-54270000D02*
X54896359Y-54270000D01*
X55203641Y-53510000D02*
X54896359Y-53510000D01*
%TO.C,C37*%
X60830950Y-63643714D02*
X60830950Y-63859386D01*
X60110950Y-63643714D02*
X60110950Y-63859386D01*
%TO.C,C49*%
X62753786Y-54611550D02*
X62538114Y-54611550D01*
X62753786Y-53891550D02*
X62538114Y-53891550D01*
%TO.C,C20*%
X69713114Y-58341550D02*
X69928786Y-58341550D01*
X69713114Y-59061550D02*
X69928786Y-59061550D01*
%TO.C,C52*%
X67513114Y-56361550D02*
X67728786Y-56361550D01*
X67513114Y-55641550D02*
X67728786Y-55641550D01*
%TO.C,C42*%
X66380950Y-51959386D02*
X66380950Y-51743714D01*
X65660950Y-51959386D02*
X65660950Y-51743714D01*
%TO.C,R14*%
X54876359Y-52320000D02*
X55183641Y-52320000D01*
X54876359Y-51560000D02*
X55183641Y-51560000D01*
%TO.C,C35*%
X60628786Y-51561550D02*
X60413114Y-51561550D01*
X60628786Y-50841550D02*
X60413114Y-50841550D01*
%TO.C,C30*%
X59165000Y-62962164D02*
X59165000Y-63177836D01*
X59885000Y-62962164D02*
X59885000Y-63177836D01*
%TO.C,C43*%
X64880950Y-58809386D02*
X64880950Y-58593714D01*
X64160950Y-58809386D02*
X64160950Y-58593714D01*
%TO.C,C9*%
X67712164Y-62270000D02*
X67927836Y-62270000D01*
X67712164Y-61550000D02*
X67927836Y-61550000D01*
%TO.C,C21*%
X55828786Y-59261550D02*
X55613114Y-59261550D01*
X55828786Y-58541550D02*
X55613114Y-58541550D01*
%TO.C,C59*%
X59053786Y-54791550D02*
X58838114Y-54791550D01*
X59053786Y-55511550D02*
X58838114Y-55511550D01*
%TO.C,C15*%
X55828786Y-56641550D02*
X55613114Y-56641550D01*
X55828786Y-57361550D02*
X55613114Y-57361550D01*
%TO.C,C26*%
X62885000Y-63643714D02*
X62885000Y-63859386D01*
X62165000Y-63643714D02*
X62165000Y-63859386D01*
%TO.C,C44*%
X67863114Y-58411550D02*
X68078786Y-58411550D01*
X67863114Y-57691550D02*
X68078786Y-57691550D01*
%TO.C,C51*%
X62748786Y-54816550D02*
X62533114Y-54816550D01*
X62748786Y-55536550D02*
X62533114Y-55536550D01*
%TO.C,R10*%
X65367309Y-60856550D02*
X65674591Y-60856550D01*
X65367309Y-60096550D02*
X65674591Y-60096550D01*
%TO.C,C82*%
X41957836Y-38610000D02*
X41742164Y-38610000D01*
X41957836Y-37890000D02*
X41742164Y-37890000D01*
%TO.C,C10*%
X66192164Y-49540000D02*
X66407836Y-49540000D01*
X66192164Y-50260000D02*
X66407836Y-50260000D01*
%TO.C,C80*%
X41957836Y-38840000D02*
X41742164Y-38840000D01*
X41957836Y-39560000D02*
X41742164Y-39560000D01*
%TO.C,C48*%
X59610950Y-58659386D02*
X59610950Y-58443714D01*
X60330950Y-58659386D02*
X60330950Y-58443714D01*
%TO.C,C13*%
X55828786Y-60441550D02*
X55613114Y-60441550D01*
X55828786Y-61161550D02*
X55613114Y-61161550D01*
%TO.C,C89*%
X81980000Y-68662164D02*
X81980000Y-68877836D01*
X81260000Y-68662164D02*
X81260000Y-68877836D01*
%TO.C,R44*%
X56690000Y-51846359D02*
X56690000Y-52153641D01*
X57450000Y-51846359D02*
X57450000Y-52153641D01*
%TO.C,C18*%
X69792164Y-60715000D02*
X70007836Y-60715000D01*
X69792164Y-61435000D02*
X70007836Y-61435000D01*
%TO.C,C88*%
X80980000Y-68662164D02*
X80980000Y-68877836D01*
X80260000Y-68662164D02*
X80260000Y-68877836D01*
%TO.C,C16*%
X69813114Y-57711550D02*
X70028786Y-57711550D01*
X69813114Y-56991550D02*
X70028786Y-56991550D01*
%TO.C,C12*%
X55828786Y-60211550D02*
X55613114Y-60211550D01*
X55828786Y-59491550D02*
X55613114Y-59491550D01*
%TO.C,C54*%
X57908786Y-59941550D02*
X57693114Y-59941550D01*
X57908786Y-60661550D02*
X57693114Y-60661550D01*
%TO.C,C79*%
X53417164Y-39635000D02*
X53632836Y-39635000D01*
X53417164Y-38915000D02*
X53632836Y-38915000D01*
%TO.C,C58*%
X60478786Y-48566550D02*
X60263114Y-48566550D01*
X60478786Y-49286550D02*
X60263114Y-49286550D01*
%TD*%
M02*
