M48
; DRILL file {KiCad 5.99.0-unknown-675444a646~125~ubuntu20.04.1} date Tue Apr 13 15:06:52 2021
; FORMAT={-:-/ absolute / inch / decimal}
; #@! TF.CreationDate,2021-04-13T15:06:52+08:00
; #@! TF.GenerationSoftware,Kicad,Pcbnew,5.99.0-unknown-675444a646~125~ubuntu20.04.1
; #@! TF.FileFunction,Plated,1,6,PTH
FMAT,2
INCH
; #@! TA.AperFunction,Plated,PTH,ViaDrill
T1C0.0060
; #@! TA.AperFunction,Plated,PTH,ComponentDrill
T2C0.0079
; #@! TA.AperFunction,Plated,PTH,ViaDrill
T3C0.0080
; #@! TA.AperFunction,Plated,PTH,ComponentDrill
T4C0.0118
; #@! TA.AperFunction,Plated,PTH,ComponentDrill
T5C0.0121
; #@! TA.AperFunction,Plated,PTH,ViaDrill
T6C0.0150
; #@! TA.AperFunction,Plated,PTH,ComponentDrill
T7C0.0157
; #@! TA.AperFunction,Plated,PTH,ComponentDrill
T8C0.0276
; #@! TA.AperFunction,Plated,PTH,ComponentDrill
T9C0.0394
; #@! TA.AperFunction,Plated,PTH,ComponentDrill
T10C0.0429
; #@! TA.AperFunction,Plated,PTH,ComponentDrill
T11C0.0433
; #@! TA.AperFunction,Plated,PTH,ComponentDrill
T12C0.0630
; #@! TA.AperFunction,Plated,PTH,ComponentDrill
T13C0.0669
; #@! TA.AperFunction,Plated,PTH,ComponentDrill
T14C0.0906
; #@! TA.AperFunction,Plated,PTH,ComponentDrill
T15C0.1260
%
G90
G05
T1
X1.687Y-1.6437
X2.128Y-1.6457
X2.2369Y-2.3938
X2.2794Y-2.1654
X2.3109Y-2.1969
X2.312Y-2.3228
X2.312Y-2.0689
X2.312Y-2.2569
X2.312Y-2.2904
X2.312Y-2.3848
X2.3128Y-2.132
X2.313Y-2.0384
X2.3433Y-2.1969
X2.3433Y-2.2894
X2.3433Y-2.3229
X2.3433Y-2.4154
X2.3443Y-2.2589
X2.3445Y-2.0709
X2.3445Y-2.1339
X2.3445Y-2.3839
X2.3455Y-2.3524
X2.3739Y-2.3859
X2.3748Y-2.3524
X2.3748Y-2.4154
X2.3758Y-2.1329
X2.3758Y-2.2599
X2.3768Y-2.2294
X2.3788Y-2.4587
X2.389Y-1.9878
X2.4054Y-2.0375
X2.4063Y-2.3851
X2.4063Y-2.4568
X2.4074Y-2.2579
X2.4074Y-2.2914
X2.4083Y-2.3209
X2.4378Y-2.1969
X2.4378Y-2.2264
X2.4378Y-2.2579
X2.4378Y-2.2914
X2.4378Y-2.3229
X2.4378Y-2.3509
X2.4378Y-2.3849
X2.4388Y-2.1014
X2.4693Y-2.1949
X2.4693Y-2.2284
X2.4693Y-2.2599
X2.4705Y-2.163
X2.4823Y-2.4606
X2.4843Y-1.9673
X2.5Y-2.1024
X2.5003Y-2.0727
X2.5008Y-2.2579
X2.5008Y-2.1969
X2.5008Y-2.2264
X2.5008Y-2.2914
X2.5008Y-2.3229
X2.5008Y-2.3544
X2.506Y-2.3799
X2.5323Y-2.069
X2.5323Y-2.1634
X2.5323Y-2.1949
X2.5323Y-2.2264
X2.5335Y-2.2579
X2.5343Y-2.3544
X2.5618Y-2.0414
X2.5626Y-2.5949
X2.5628Y-2.2264
X2.5638Y-2.1644
X2.5638Y-2.4174
X2.5639Y-2.3525
X2.565Y-2.1969
X2.565Y-2.2906
X2.5658Y-2.0709
X2.5658Y-2.2599
X2.587Y-2.5949
X2.5935Y-2.3514
X2.5943Y-2.1329
X2.5945Y-2.1014
X2.5945Y-2.2274
X2.5974Y-2.1959
X2.6032Y-1.9922
X2.6248Y-2.0709
X2.6256Y-2.414
X2.6258Y-2.1654
X2.626Y-2.1969
X2.626Y-2.2559
X2.6263Y-2.1017
X2.627Y-2.3839
X2.6276Y-2.3245
X2.6278Y-2.3514
X2.628Y-2.2894
X2.7047Y-2.1339
X2.7077Y-2.1969
X2.7203Y-2.3406
X2.752Y-2.3425
T2
X2.1299Y-2.9311
X2.1299Y-2.9685
X2.1299Y-3.0059
X2.1673Y-2.8937
X2.1673Y-2.9311
X2.1673Y-2.9685
X2.1673Y-3.0059
X2.1673Y-3.0433
X2.2047Y-2.9311
X2.2047Y-2.9685
X2.2047Y-3.0059
T3
X1.378Y-2.0079
X1.378Y-2.0866
X1.378Y-2.6575
X1.378Y-2.7362
X1.378Y-2.815
X1.378Y-2.8937
X1.378Y-2.9724
X1.378Y-3.0512
X1.378Y-3.1299
X1.378Y-3.2087
X1.378Y-3.2874
X1.378Y-3.3661
X1.378Y-3.4449
X1.378Y-3.5236
X1.378Y-3.6024
X1.378Y-3.6811
X1.378Y-3.7598
X1.378Y-3.8386
X1.378Y-3.9173
X1.378Y-3.9961
X1.378Y-4.0748
X1.378Y-4.1535
X1.378Y-4.2323
X1.378Y-4.311
X1.378Y-4.3898
X1.378Y-4.4685
X1.378Y-4.5472
X1.437Y-3.877
X1.4508Y-3.2313
X1.4567Y-4.5472
X1.5344Y-2.0669
X1.5354Y-4.5472
X1.5539Y-1.9281
X1.5799Y-1.9281
X1.6142Y-2.6535
X1.6142Y-2.7677
X1.6732Y-1.0827
X1.6732Y-1.1614
X1.6732Y-1.2402
X1.6732Y-1.3189
X1.6732Y-4.626
X1.6732Y-4.7047
X1.6732Y-4.7835
X1.6732Y-4.8622
X1.7244Y-2.6496
X1.752Y-1.0827
X1.752Y-4.8622
X1.8041Y-2.2717
X1.8122Y-2.2947
X1.8122Y-2.3207
X1.8287Y-2.0896
X1.8307Y-1.0827
X1.8307Y-4.8622
X1.8417Y-2.776
X1.8425Y-2.1299
X1.8476Y-2.6358
X1.8622Y-3.248
X1.8661Y-2.124
X1.8711Y-2.3356
X1.9094Y-1.0827
X1.9094Y-4.8622
X1.935Y-2.0323
X1.935Y-2.0583
X1.9508Y-2.0807
X1.9547Y-2.015
X1.9626Y-2.2461
X1.9764Y-2.1024
X1.9882Y-1.0827
X1.9882Y-4.8622
X2.0067Y-2.0994
X2.0079Y-2.2539
X2.0102Y-2.2843
X2.0102Y-2.3103
X2.0327Y-2.0994
X2.039Y-2.5335
X2.0394Y-2.5624
X2.0394Y-2.5884
X2.0398Y-2.6169
X2.0453Y-1.4232
X2.0531Y-1.6565
X2.063Y-2.0984
X2.0669Y-1.0827
X2.0669Y-4.8622
X2.0768Y-2.4028
X2.0797Y-1.6575
X2.0876Y-3.4429
X2.0913Y-4.6145
X2.0925Y-3.499
X2.105Y-2.3911
X2.1138Y-1.8878
X2.1173Y-4.6145
X2.1181Y-2.0453
X2.1234Y-2.3727
X2.124Y-3.186
X2.126Y-2.7175
X2.1299Y-3.499
X2.1376Y-1.9131
X2.1378Y-3.2795
X2.1457Y-1.0827
X2.1457Y-4.8622
X2.1476Y-2.4173
X2.1496Y-2.3563
X2.1506Y-3.186
X2.1526Y-2.7175
X2.1636Y-1.9131
X2.1742Y-3.5551
X2.1752Y-2.2087
X2.1791Y-2.7175
X2.1803Y-1.8843
X2.1811Y-1.7508
X2.1811Y-3.186
X2.2028Y-2.5
X2.2033Y-1.7283
X2.2047Y-2.7175
X2.2077Y-3.5571
X2.2087Y-4.0657
X2.2087Y-4.0917
X2.2106Y-4.1661
X2.2106Y-4.1921
X2.2116Y-3.187
X2.2126Y-4.365
X2.2126Y-4.391
X2.2146Y-4.2953
X2.2244Y-1.0827
X2.2244Y-4.8622
X2.2293Y-1.7283
X2.2465Y-1.7512
X2.248Y-4.8268
X2.249Y-3.6634
X2.2854Y-3.7874
X2.2894Y-3.2854
X2.3031Y-1.0827
X2.3081Y-3.4695
X2.3091Y-3.7028
X2.313Y-2.533
X2.315Y-1.8228
X2.3189Y-1.5256
X2.3346Y-3.814
X2.3427Y-2.533
X2.3504Y-3.9252
X2.3583Y-3.8386
X2.3665Y-1.8535
X2.374Y-1.7421
X2.378Y-3.9331
X2.3783Y-4.4579
X2.3819Y-1.0827
X2.3819Y-3.8583
X2.3823Y-4.0154
X2.3937Y-1.5157
X2.4006Y-3.7195
X2.4035Y-4.4567
X2.4045Y-3.7569
X2.4094Y-4.0157
X2.4126Y-1.8283
X2.4173Y-1.7657
X2.4303Y-4.1209
X2.4327Y-4.4547
X2.4425Y-1.8252
X2.4429Y-1.8012
X2.4439Y-3.5581
X2.4439Y-3.685
X2.4478Y-3.7352
X2.4567Y-3.6457
X2.4606Y-1.0827
X2.4724Y-1.8055
X2.4803Y-3.7835
X2.503Y-2.5571
X2.5031Y-3.2589
X2.5059Y-1.5236
X2.524Y-1.9362
X2.5394Y-1.0827
X2.5512Y-4.8583
X2.5583Y-3.2589
X2.5728Y-1.563
X2.5776Y-1.7756
X2.5945Y-3.7323
X2.6Y-1.7862
X2.6067Y-1.8492
X2.6181Y-1.0827
X2.6236Y-3.2591
X2.626Y-3.6024
X2.6378Y-4.8583
X2.6437Y-1.1063
X2.6508Y-3.3335
X2.6654Y-1.9409
X2.6732Y-1.5039
X2.6781Y-2.0138
X2.6791Y-1.6043
X2.687Y-1.7795
X2.6969Y-1.0827
X2.6969Y-4.7756
X2.6988Y-3.6319
X2.7037Y-2.0699
X2.7111Y-2.4985
X2.7205Y-1.4035
X2.7224Y-2.0039
X2.7244Y-1.4291
X2.7362Y-4.7756
X2.752Y-1.2972
X2.7559Y-3.5039
X2.7559Y-3.5295
X2.7677Y-2.435
X2.7677Y-3.6024
X2.7717Y-2.1516
X2.7752Y-1.9366
X2.7756Y-1.0827
X2.7768Y-3.4222
X2.7795Y-2.0551
X2.7854Y-1.3346
X2.7913Y-2.5315
X2.7913Y-4.7323
X2.7933Y-2.5669
X2.7953Y-3.7362
X2.7972Y-1.6772
X2.8189Y-2.6496
X2.8189Y-2.748
X2.8189Y-4.748
X2.8228Y-4.1457
X2.8228Y-4.1811
X2.8268Y-4.4921
X2.8268Y-4.5354
X2.8307Y-1.4134
X2.8465Y-1.1794
X2.8504Y-2.0118
X2.8543Y-1.0827
X2.8661Y-4.1457
X2.8661Y-4.1811
X2.8661Y-4.8583
X2.8668Y-2.4352
X2.874Y-4.4921
X2.874Y-4.5354
X2.8852Y-2.4168
X2.8904Y-1.2476
X2.8923Y-1.2161
X2.8937Y-1.5748
X2.9173Y-2.748
X2.9244Y-2.3177
X2.9278Y-2.3875
X2.9331Y-1.0827
X2.937Y-2.626
X2.937Y-4.1998
X2.94Y-4.4862
X2.9409Y-1.6752
X2.9449Y-4.0039
X2.9462Y-2.3692
X2.9528Y-4.8583
X2.9539Y-3.2923
X2.9566Y-2.3206
X2.9685Y-2.2705
X2.9705Y-1.5748
X2.9749Y-2.3022
X2.9902Y-1.1398
X2.9941Y-4.1988
X2.998Y-2.7362
X3.0079Y-4.7795
X3.0118Y-1.0827
X3.0157Y-2.6299
X3.0354Y-2.8307
X3.0354Y-4.4872
X3.0472Y-4.7756
X3.0531Y-3.7126
X3.0551Y-2.5472
X3.0551Y-4.5512
X3.0561Y-4.2018
X3.0709Y-3.6949
X3.0748Y-2.8307
X3.0906Y-1.0827
X3.0945Y-2.626
X3.0945Y-4.4094
X3.1063Y-4.7441
X3.1122Y-4.1998
X3.1142Y-2.8307
X3.1161Y-4.4051
X3.1228Y-2.1012
X3.126Y-1.7181
X3.128Y-1.7894
X3.1287Y-1.7575
X3.1299Y-1.8622
X3.1299Y-4.7559
X3.1339Y-2.6339
X3.1339Y-4.3858
X3.1409Y-2.7496
X3.1516Y-1.1752
X3.1535Y-4.4094
X3.1543Y-2.8295
X3.1693Y-1.0827
X3.1732Y-4.2008
X3.1732Y-4.3976
X3.1732Y-4.8583
X3.174Y-2.7535
X3.1744Y-2.5508
X3.1929Y-4.4094
X3.1937Y-2.8307
X3.2126Y-2.7543
X3.213Y-2.624
X3.2145Y-4.4051
X3.2313Y-4.1988
X3.2323Y-4.3858
X3.2331Y-2.8291
X3.2402Y-1.811
X3.2457Y-2.748
X3.248Y-1.0827
X3.2504Y-4.4055
X3.252Y-2.5433
X3.252Y-3.9902
X3.2677Y-4.8583
X3.2724Y-4.4059
X3.2744Y-1.352
X3.2776Y-4.0059
X3.2913Y-4.2776
X3.2953Y-2.8346
X3.3071Y-2.5472
X3.3091Y-3.998
X3.315Y-4.5512
X3.3189Y-4.7756
X3.3268Y-1.0827
X3.3346Y-3.9921
X3.3504Y-2.752
X3.3504Y-4.2815
X3.3583Y-4.7795
X3.3701Y-2.5512
X3.3898Y-4.4843
X3.3957Y-1.3622
X3.3957Y-1.4016
X3.3957Y-1.4862
X3.3976Y-4.7717
X3.3988Y-2.1874
X3.4055Y-1.0827
X3.4094Y-2.8307
X3.4193Y-1.6988
X3.426Y-1.5587
X3.4291Y-2.5512
X3.437Y-4.7677
X3.4469Y-2.9035
X3.4587Y-2.8799
X3.4591Y-1.9843
X3.4646Y-4.4961
X3.4685Y-2.8327
X3.4685Y-4.2028
X3.4724Y-4.8583
X3.4764Y-1.8524
X3.4823Y-2.9626
X3.4823Y-3.1909
X3.4843Y-1.0827
X3.4882Y-2.626
X3.4882Y-4.5236
X3.5024Y-1.624
X3.5059Y-2.5335
X3.5089Y-4.4833
X3.5118Y-3.0315
X3.5118Y-3.122
X3.5236Y-4.5394
X3.5256Y-2.6496
X3.5276Y-1.6846
X3.5276Y-2.8307
X3.5295Y-4.2008
X3.5354Y-4.8583
X3.5472Y-2.626
X3.5472Y-4.5118
X3.5512Y-2.5315
X3.563Y-1.0827
X3.5669Y-4.4921
X3.5807Y-1.5236
X3.5827Y-4.5512
X3.5866Y-1.3504
X3.5866Y-2.6654
X3.5866Y-4.2028
X3.5886Y-2.75
X3.5945Y-3.002
X3.6063Y-2.626
X3.6063Y-2.8307
X3.6063Y-4.5512
X3.6083Y-3.126
X3.627Y-4.4045
X3.6417Y-1.0827
X3.6457Y-2.7559
X3.6457Y-4.2008
X3.6555Y-3.128
X3.6594Y-2.8642
X3.6665Y-2.5484
X3.6713Y-2.8976
X3.6808Y-2.8511
X3.6811Y-3.126
X3.6988Y-2.8327
X3.7044Y-2.7539
X3.7047Y-4.4852
X3.7071Y-1.9634
X3.7087Y-1.315
X3.7087Y-3.1083
X3.7094Y-2.0496
X3.7205Y-1.0827
X3.7205Y-2.8642
X3.7205Y-4.5079
X3.7264Y-2.7539
X3.7362Y-2.8307
X3.7441Y-4.5276
X3.747Y-4.1978
X3.7539Y-1.4862
X3.7618Y-2.8366
X3.7618Y-2.9567
X3.7618Y-4.5512
X3.7638Y-3.1811
X3.7657Y-1.6917
X3.7677Y-2.5472
X3.7726Y-4.5728
X3.7807Y-2.6343
X3.7835Y-2.5118
X3.7874Y-2.8307
X3.7953Y-4.4862
X3.798Y-2.0827
X3.7992Y-1.0827
X3.8022Y-4.5778
X3.8067Y-2.6343
X3.8071Y-3.7677
X3.811Y-4.1969
X3.8228Y-2.5197
X3.824Y-2.0827
X3.8386Y-2.8346
X3.8406Y-4.4016
X3.8622Y-2.626
X3.8622Y-4.3839
X3.8634Y-1.9689
X3.8701Y-4.1988
X3.8766Y-2.336
X3.878Y-1.0827
X3.8839Y-4.4035
X3.895Y-2.3176
X3.9016Y-4.2008
X3.9055Y-3.8898
X3.918Y-3.1608
X3.9185Y-2.539
X3.9217Y-1.5413
X3.9219Y-3.4009
X3.924Y-2.1705
X3.9302Y-4.5159
X3.9302Y-4.5419
X3.9364Y-3.1424
X3.937Y-2.9488
X3.937Y-2.9764
X3.9403Y-3.3825
X3.9409Y-2.7559
X3.9445Y-2.539
X3.9567Y-1.0827
X3.9606Y-2.622
X3.9626Y-4.4833
X3.9646Y-1.5394
X3.9685Y-1.4508
X3.9803Y-4.1998
X3.9815Y-1.8118
X3.9911Y-4.4823
X3.9949Y-1.9764
X3.9961Y-4.4035
X3.998Y-1.3858
X4.0Y-1.6102
X4.0Y-2.8346
X4.0118Y-3.878
X4.0197Y-4.4045
X4.0209Y-1.9764
X4.0354Y-1.0827
X4.0394Y-4.2008
X4.0443Y-4.4045
X4.0472Y-2.5039
X4.0512Y-2.5315
X4.0551Y-4.001
X4.0563Y-4.4945
X4.0591Y-2.626
X4.0598Y-2.7555
X4.0689Y-4.0276
X4.0728Y-1.6965
X4.0735Y-1.9711
X4.076Y-2.539
X4.0823Y-4.4945
X4.0919Y-1.9895
X4.0945Y-4.0591
X4.098Y-1.8622
X4.102Y-2.539
X4.1063Y-4.0945
X4.1122Y-1.0827
X4.1181Y-2.8346
X4.1181Y-4.1988
X4.122Y-2.5512
X4.126Y-1.3661
X4.128Y-1.5374
X4.1378Y-2.8543
X4.1378Y-4.4075
X4.1575Y-2.8268
X4.1575Y-4.1988
X4.1594Y-1.815
X4.1772Y-2.5425
X4.1772Y-2.8465
X4.1791Y-4.4055
X4.1837Y-3.2572
X4.1837Y-3.4265
X4.1909Y-1.0827
X4.1949Y-2.8268
X4.1969Y-4.1998
X4.1969Y-4.8504
X4.2021Y-3.2388
X4.2021Y-3.4081
X4.2094Y-2.0988
X4.2146Y-2.8366
X4.2165Y-4.4783
X4.2185Y-1.6634
X4.2335Y-4.1772
X4.2335Y-4.3839
X4.2362Y-2.5433
X4.2595Y-4.1772
X4.2595Y-4.3839
X4.2697Y-1.0827
X4.2717Y-1.4114
X4.2756Y-1.1476
X4.2756Y-2.8346
X4.2766Y-4.4055
X4.2795Y-1.3701
X4.2854Y-4.1585
X4.2949Y-2.6413
X4.3051Y-4.1801
X4.3058Y-2.8714
X4.3071Y-1.2106
X4.315Y-1.4134
X4.3169Y-2.2146
X4.3189Y-1.3031
X4.3189Y-1.6654
X4.3242Y-2.853
X4.3358Y-2.7547
X4.3504Y-1.0827
X4.3543Y-2.5472
X4.3701Y-1.4154
X4.3713Y-2.5248
X4.372Y-1.624
X4.374Y-1.5886
X4.376Y-1.4705
X4.3937Y-4.3947
X4.3973Y-2.5248
X4.3976Y-2.8346
X4.4075Y-1.5276
X4.4094Y-1.4232
X4.4252Y-2.0886
X4.4252Y-2.1161
X4.4268Y-1.9783
X4.4278Y-2.164
X4.4291Y-1.0827
X4.4331Y-4.2807
X4.439Y-1.1949
X4.4462Y-2.1824
X4.4528Y-1.5728
X4.4528Y-4.4872
X4.4547Y-1.313
X4.4803Y-1.185
X4.4803Y-1.3071
X4.4829Y-2.477
X4.4953Y-1.7374
X4.5013Y-2.4954
X4.5079Y-1.0827
X4.5079Y-1.1811
X4.5079Y-1.3051
X4.5165Y-1.7953
X4.5315Y-1.3051
X4.5335Y-1.2126
X4.563Y-1.4528
X4.563Y-1.6339
X4.565Y-1.2047
X4.5709Y-1.8484
X4.5866Y-1.0827
X4.5906Y-4.8504
X4.6339Y-1.4173
X4.6654Y-1.0827
X4.6693Y-1.1358
X4.6756Y-2.0972
X4.6877Y-2.8333
X4.706Y-2.8517
X4.7226Y-1.9436
X4.7362Y-1.7047
X4.7441Y-1.0827
X4.7486Y-1.9436
X4.7559Y-3.6327
X4.7559Y-3.6587
X4.7736Y-1.7106
X4.8081Y-3.4518
X4.8378Y-1.6327
X4.8398Y-3.9815
X4.8425Y-1.0827
X4.8425Y-1.1614
X4.8425Y-1.2402
X4.8425Y-1.3189
X4.8425Y-1.4173
X4.8583Y-4.6063
X4.8583Y-4.7244
X4.8583Y-4.8425
X4.8921Y-3.4142
X4.8976Y-4.5512
X4.9213Y-1.4173
X4.9252Y-2.2087
X4.9311Y-1.9823
X4.935Y-1.5846
X4.9382Y-1.7122
X4.9409Y-2.2697
X4.9429Y-1.8858
X4.9429Y-2.0512
X4.9441Y-2.6154
X4.9445Y-3.0114
X4.9449Y-2.3602
X4.9449Y-2.4606
X4.9449Y-2.8567
X4.9488Y-3.761
X4.9626Y-3.6004
X4.9685Y-1.5157
X4.9724Y-1.9665
X4.9774Y-4.1604
X4.9783Y-1.6457
X4.9921Y-4.5512
X4.9961Y-3.5236
X5.0Y-1.4173
X5.0244Y-1.787
X5.0256Y-2.1193
X5.0315Y-2.4291
X5.0484Y-2.1386
X5.0492Y-4.2746
X5.0512Y-1.9232
X5.052Y-2.737
X5.0524Y-2.498
X5.0531Y-3.561
X5.0551Y-3.4803
X5.0571Y-2.8921
X5.06Y-1.7876
X5.0768Y-1.9232
X5.0787Y-4.5512
X5.0984Y-1.4173
X5.1063Y-3.6083
X5.1083Y-3.8494
X5.1083Y-4.001
X5.1102Y-2.1732
X5.1106Y-3.1559
X5.122Y-1.7106
X5.124Y-3.3602
X5.1299Y-2.0413
X5.1732Y-1.4173
X5.1732Y-1.4961
X5.1732Y-1.5748
X5.1732Y-1.6535
X5.1732Y-1.7323
X5.1732Y-1.811
X5.1732Y-1.8898
X5.1732Y-1.9685
X5.1732Y-2.0472
X5.1732Y-2.126
X5.1732Y-2.2047
X5.1732Y-2.2835
X5.1732Y-2.3622
X5.1732Y-2.4409
X5.1732Y-2.5197
X5.1732Y-2.5984
X5.1732Y-2.6772
X5.1732Y-2.7559
X5.1732Y-2.8346
X5.1732Y-2.9134
X5.1732Y-2.9921
X5.1732Y-3.0709
X5.1732Y-3.1496
X5.1732Y-3.2283
X5.1732Y-3.3071
X5.1732Y-3.3858
X5.1732Y-3.4646
X5.1732Y-3.5433
X5.1732Y-3.622
X5.1732Y-3.7008
X5.1732Y-3.7795
X5.1732Y-3.8583
X5.1732Y-3.937
X5.1732Y-4.0157
X5.1732Y-4.0945
X5.1732Y-4.1732
X5.1732Y-4.252
X5.1732Y-4.3307
X5.1732Y-4.4094
X5.1732Y-4.4882
X5.1732Y-4.5512
T4
X2.7205Y-3.2461
X2.7205Y-3.2756
X2.7205Y-3.3051
X2.7321Y-1.1689
X2.7321Y-1.2366
X2.7425Y-3.261
X2.7425Y-3.2906
X2.751Y-1.2028
X2.7539Y-3.1744
X2.7657Y-3.1516
X2.7657Y-3.1972
X2.7657Y-3.2461
X2.7657Y-3.2756
X2.7657Y-3.3051
X2.7699Y-1.1689
X2.7699Y-1.2366
T5
X2.314Y-3.564
X2.314Y-3.6122
X2.3622Y-3.564
X2.3622Y-3.6122
T6
X1.4094Y-2.6378
X1.4173Y-2.0079
X1.6988Y-1.2776
X1.75Y-2.6213
X1.7894Y-1.3661
X1.7953Y-2.7854
X1.8012Y-2.6309
X1.8583Y-1.3642
X1.9488Y-1.3031
X2.0935Y-3.7195
X2.1752Y-1.1575
X2.5079Y-2.9961
X2.5079Y-3.0433
X2.5079Y-3.0886
X2.5256Y-1.1516
X2.563Y-3.0433
X2.563Y-3.0886
X2.622Y-3.0886
X2.8673Y-3.0945
X2.9362Y-3.0965
X2.9372Y-3.1841
X2.9372Y-3.2441
X2.9705Y-4.1083
X3.0276Y-4.5354
X4.6476Y-4.8307
T7
X1.6835Y-2.2132
X1.6835Y-2.2447
X1.6835Y-2.2762
X1.6835Y-2.3392
X1.6835Y-2.3707
X1.6835Y-2.4022
X1.711Y-2.1974
X1.711Y-2.2289
X1.711Y-2.2604
X1.711Y-2.2919
X1.711Y-2.3234
X1.711Y-2.3549
X1.711Y-2.3864
X1.711Y-2.4179
T8
X1.7909Y-1.5079
X1.7909Y-1.6063
X1.7909Y-1.685
X1.7909Y-1.7835
X1.85Y-1.4882
X1.85Y-1.5669
X1.85Y-1.6457
X1.85Y-1.7244
X1.85Y-1.8031
X1.9169Y-1.5079
X1.9169Y-1.6063
X1.9169Y-1.685
X1.9169Y-1.7835
X1.976Y-1.4882
X1.976Y-1.5669
X1.976Y-1.6457
X1.976Y-1.7244
X1.976Y-1.8031
T9
X1.5858Y-3.9892
X1.5858Y-4.5187
X1.6657Y-3.9892
X1.6657Y-4.5187
X2.0157Y-4.0789
X2.0157Y-4.1789
X2.0157Y-4.2789
X2.0157Y-4.3789
X2.0157Y-4.4789
X2.1157Y-4.0289
X2.1157Y-4.1289
X2.1157Y-4.2289
X2.1157Y-4.3289
X2.1157Y-4.4289
X3.6161Y-4.7303
X3.6161Y-4.8303
X3.7161Y-4.7303
X3.7161Y-4.8303
X3.8161Y-4.7303
X3.8161Y-4.8303
X3.9161Y-4.7303
X3.9161Y-4.8303
X4.0161Y-4.7303
X4.0161Y-4.8303
X4.1161Y-4.7303
X4.1161Y-4.8303
X4.2734Y-4.7274
X4.2734Y-4.8274
X4.3734Y-4.7274
X4.3734Y-4.8274
X4.4734Y-4.7274
X4.4734Y-4.8274
T10
X1.7638Y-4.7756
X1.8638Y-4.7756
X1.9638Y-4.7756
X2.0638Y-4.7756
T11
X1.4795Y-2.1396
X1.4795Y-2.4758
X1.6657Y-2.1396
X1.6657Y-2.4758
T12
X1.6496Y-2.9843
X1.7677Y-3.1693
X1.8858Y-2.9843
T13
X1.8858Y-3.9439
X1.8858Y-4.564
T14
X1.7122Y-1.387
X1.7122Y-1.9043
X1.9358Y-1.387
X1.9358Y-1.9043
T15
X1.7657Y-4.0289
X1.7657Y-4.4789
X2.711Y-2.9843
X2.711Y-4.0472
X4.5614Y-3.063
X4.5614Y-4.0472
T0
M30
