%TF.GenerationSoftware,KiCad,Pcbnew,5.99.0-unknown-ca42f31bb5~131~ubuntu20.04.1*%
%TF.CreationDate,2021-08-18T11:47:36-07:00*%
%TF.ProjectId,ovc5,6f766335-2e6b-4696-9361-645f70636258,rev?*%
%TF.SameCoordinates,Original*%
%TF.FileFunction,Paste,Top*%
%TF.FilePolarity,Positive*%
%FSLAX46Y46*%
G04 Gerber Fmt 4.6, Leading zero omitted, Abs format (unit mm)*
G04 Created by KiCad (PCBNEW 5.99.0-unknown-ca42f31bb5~131~ubuntu20.04.1) date 2021-08-18 11:47:36*
%MOMM*%
%LPD*%
G01*
G04 APERTURE LIST*
G04 Aperture macros list*
%AMRoundRect*
0 Rectangle with rounded corners*
0 $1 Rounding radius*
0 $2 $3 $4 $5 $6 $7 $8 $9 X,Y pos of 4 corners*
0 Add a 4 corners polygon primitive as box body*
4,1,4,$2,$3,$4,$5,$6,$7,$8,$9,$2,$3,0*
0 Add four circle primitives for the rounded corners*
1,1,$1+$1,$2,$3*
1,1,$1+$1,$4,$5*
1,1,$1+$1,$6,$7*
1,1,$1+$1,$8,$9*
0 Add four rect primitives between the rounded corners*
20,1,$1+$1,$2,$3,$4,$5,0*
20,1,$1+$1,$4,$5,$6,$7,0*
20,1,$1+$1,$6,$7,$8,$9,0*
20,1,$1+$1,$8,$9,$2,$3,0*%
G04 Aperture macros list end*
%ADD10RoundRect,0.147500X-0.147500X-0.172500X0.147500X-0.172500X0.147500X0.172500X-0.147500X0.172500X0*%
%ADD11RoundRect,0.135000X-0.185000X0.135000X-0.185000X-0.135000X0.185000X-0.135000X0.185000X0.135000X0*%
%ADD12RoundRect,0.079500X0.079500X0.100500X-0.079500X0.100500X-0.079500X-0.100500X0.079500X-0.100500X0*%
%ADD13RoundRect,0.225000X0.225000X0.250000X-0.225000X0.250000X-0.225000X-0.250000X0.225000X-0.250000X0*%
%ADD14RoundRect,0.250000X0.325000X0.650000X-0.325000X0.650000X-0.325000X-0.650000X0.325000X-0.650000X0*%
%ADD15R,0.300000X0.300000*%
%ADD16RoundRect,0.140000X0.140000X0.170000X-0.140000X0.170000X-0.140000X-0.170000X0.140000X-0.170000X0*%
%ADD17RoundRect,0.135000X-0.135000X-0.185000X0.135000X-0.185000X0.135000X0.185000X-0.135000X0.185000X0*%
%ADD18RoundRect,0.079500X-0.079500X-0.100500X0.079500X-0.100500X0.079500X0.100500X-0.079500X0.100500X0*%
%ADD19RoundRect,0.079500X-0.100500X0.079500X-0.100500X-0.079500X0.100500X-0.079500X0.100500X0.079500X0*%
%ADD20RoundRect,0.140000X-0.170000X0.140000X-0.170000X-0.140000X0.170000X-0.140000X0.170000X0.140000X0*%
%ADD21R,1.200000X0.700000*%
%ADD22R,0.800000X1.000000*%
%ADD23R,2.800000X1.000000*%
%ADD24R,1.900000X1.300000*%
%ADD25R,1.200000X1.000000*%
%ADD26RoundRect,0.079500X0.100500X-0.079500X0.100500X0.079500X-0.100500X0.079500X-0.100500X-0.079500X0*%
%ADD27RoundRect,0.135000X0.185000X-0.135000X0.185000X0.135000X-0.185000X0.135000X-0.185000X-0.135000X0*%
%ADD28RoundRect,0.250000X0.255000X0.255000X-0.255000X0.255000X-0.255000X-0.255000X0.255000X-0.255000X0*%
%ADD29RoundRect,0.062500X0.350000X0.062500X-0.350000X0.062500X-0.350000X-0.062500X0.350000X-0.062500X0*%
%ADD30RoundRect,0.062500X0.062500X0.350000X-0.062500X0.350000X-0.062500X-0.350000X0.062500X-0.350000X0*%
%ADD31RoundRect,0.050050X0.424950X0.274950X-0.424950X0.274950X-0.424950X-0.274950X0.424950X-0.274950X0*%
%ADD32RoundRect,0.049800X0.250200X0.525200X-0.250200X0.525200X-0.250200X-0.525200X0.250200X-0.525200X0*%
%ADD33RoundRect,0.050000X0.650000X0.200000X-0.650000X0.200000X-0.650000X-0.200000X0.650000X-0.200000X0*%
%ADD34RoundRect,0.050050X0.299950X0.124950X-0.299950X0.124950X-0.299950X-0.124950X0.299950X-0.124950X0*%
%ADD35RoundRect,0.225000X-0.225000X-0.250000X0.225000X-0.250000X0.225000X0.250000X-0.225000X0.250000X0*%
%ADD36RoundRect,0.135000X0.135000X0.185000X-0.135000X0.185000X-0.135000X-0.185000X0.135000X-0.185000X0*%
%ADD37R,0.640000X0.640000*%
%ADD38R,0.850000X0.280000*%
%ADD39R,0.280000X0.700000*%
%ADD40O,0.240000X0.600000*%
%ADD41O,0.600000X0.240000*%
%ADD42RoundRect,0.200000X-0.200000X-0.275000X0.200000X-0.275000X0.200000X0.275000X-0.200000X0.275000X0*%
%ADD43R,0.900000X0.270000*%
%ADD44R,0.800000X0.270000*%
%ADD45R,1.120000X2.160000*%
%ADD46R,0.300000X1.100000*%
%ADD47R,1.600000X3.100000*%
%ADD48R,1.850000X0.600000*%
%ADD49RoundRect,0.147500X0.172500X-0.147500X0.172500X0.147500X-0.172500X0.147500X-0.172500X-0.147500X0*%
%ADD50RoundRect,0.218750X-0.381250X0.218750X-0.381250X-0.218750X0.381250X-0.218750X0.381250X0.218750X0*%
%ADD51R,1.400000X1.050000*%
%ADD52R,0.900000X0.570000*%
%ADD53R,0.700000X0.900000*%
%ADD54RoundRect,0.075000X0.225000X-0.075000X0.225000X0.075000X-0.225000X0.075000X-0.225000X-0.075000X0*%
%ADD55RoundRect,0.075000X0.075000X0.225000X-0.075000X0.225000X-0.075000X-0.225000X0.075000X-0.225000X0*%
%ADD56RoundRect,0.075000X-0.075000X-0.225000X0.075000X-0.225000X0.075000X0.225000X-0.075000X0.225000X0*%
%ADD57RoundRect,0.100000X-0.100000X-0.425000X0.100000X-0.425000X0.100000X0.425000X-0.100000X0.425000X0*%
%ADD58RoundRect,0.050000X-0.250000X0.050000X-0.250000X-0.050000X0.250000X-0.050000X0.250000X0.050000X0*%
%ADD59RoundRect,0.250000X-0.325000X-0.650000X0.325000X-0.650000X0.325000X0.650000X-0.325000X0.650000X0*%
%ADD60R,4.000000X1.700000*%
%ADD61R,5.000000X2.000000*%
%ADD62RoundRect,0.140000X0.170000X-0.140000X0.170000X0.140000X-0.170000X0.140000X-0.170000X-0.140000X0*%
%ADD63RoundRect,0.150000X-0.150000X-0.625000X0.150000X-0.625000X0.150000X0.625000X-0.150000X0.625000X0*%
%ADD64RoundRect,0.250000X-0.350000X-0.650000X0.350000X-0.650000X0.350000X0.650000X-0.350000X0.650000X0*%
%ADD65RoundRect,0.150000X0.587500X0.150000X-0.587500X0.150000X-0.587500X-0.150000X0.587500X-0.150000X0*%
%ADD66RoundRect,0.250000X-1.412500X-0.550000X1.412500X-0.550000X1.412500X0.550000X-1.412500X0.550000X0*%
%ADD67O,1.050000X0.200000*%
%ADD68O,0.200000X1.050000*%
%ADD69R,6.500000X6.500000*%
%ADD70R,1.100000X0.400000*%
%ADD71RoundRect,0.140000X-0.140000X-0.170000X0.140000X-0.170000X0.140000X0.170000X-0.140000X0.170000X0*%
G04 APERTURE END LIST*
D10*
%TO.C,D6*%
X58982500Y-84900000D03*
X59952500Y-84900000D03*
%TD*%
D11*
%TO.C,R30*%
X130085000Y-55126500D03*
X130085000Y-56146500D03*
%TD*%
D12*
%TO.C,C101*%
X42695000Y-66460000D03*
X42005000Y-66460000D03*
%TD*%
D13*
%TO.C,C3*%
X73310000Y-38994000D03*
X71760000Y-38994000D03*
%TD*%
D14*
%TO.C,C93*%
X57695000Y-79654000D03*
X54745000Y-79654000D03*
%TD*%
D15*
%TO.C,D3*%
X45794000Y-59698000D03*
X45794000Y-58998000D03*
X44944000Y-59348000D03*
%TD*%
D16*
%TO.C,C90*%
X54130000Y-89625000D03*
X53170000Y-89625000D03*
%TD*%
D15*
%TO.C,D4*%
X53625000Y-41450000D03*
X53625000Y-42150000D03*
X54475000Y-41800000D03*
%TD*%
D17*
%TO.C,R9*%
X84782000Y-37538000D03*
X85802000Y-37538000D03*
%TD*%
D11*
%TO.C,R37*%
X92127000Y-35875000D03*
X92127000Y-36895000D03*
%TD*%
D18*
%TO.C,C83*%
X75473000Y-75941000D03*
X74783000Y-75941000D03*
%TD*%
D11*
%TO.C,R40*%
X103520000Y-43134000D03*
X103520000Y-44154000D03*
%TD*%
D12*
%TO.C,C92*%
X55267500Y-91012500D03*
X55957500Y-91012500D03*
%TD*%
%TO.C,C120*%
X59284000Y-105910000D03*
X59974000Y-105910000D03*
%TD*%
D19*
%TO.C,C70*%
X44100000Y-32345000D03*
X44100000Y-31655000D03*
%TD*%
D11*
%TO.C,R52*%
X53500000Y-83290000D03*
X53500000Y-84310000D03*
%TD*%
%TO.C,R32*%
X124930000Y-42220000D03*
X124930000Y-43240000D03*
%TD*%
D17*
%TO.C,R5*%
X48969000Y-53103000D03*
X49989000Y-53103000D03*
%TD*%
D20*
%TO.C,C121*%
X52156000Y-118750000D03*
X52156000Y-119710000D03*
%TD*%
D21*
%TO.C,J3*%
X51550000Y-92955000D03*
X51550000Y-91855000D03*
X51550000Y-90755000D03*
X51550000Y-89655000D03*
X51550000Y-88555000D03*
X51550000Y-87455000D03*
X51550000Y-86355000D03*
X51550000Y-85255000D03*
X51550000Y-84305000D03*
D22*
X41050000Y-83355000D03*
D23*
X36900000Y-83355000D03*
D24*
X36450000Y-96855000D03*
D25*
X51550000Y-94505000D03*
X47250000Y-83355000D03*
%TD*%
D26*
%TO.C,C86*%
X74600000Y-72255000D03*
X74600000Y-72945000D03*
%TD*%
D13*
%TO.C,C23*%
X56145000Y-70179000D03*
X54595000Y-70179000D03*
%TD*%
D18*
%TO.C,R20*%
X51980000Y-62365000D03*
X52670000Y-62365000D03*
%TD*%
D11*
%TO.C,R23*%
X50320000Y-72094000D03*
X50320000Y-73114000D03*
%TD*%
D17*
%TO.C,R4*%
X74500000Y-39039000D03*
X75520000Y-39039000D03*
%TD*%
D27*
%TO.C,R49*%
X78400000Y-115610000D03*
X78400000Y-114590000D03*
%TD*%
D17*
%TO.C,R2*%
X76290000Y-46314000D03*
X77310000Y-46314000D03*
%TD*%
D18*
%TO.C,C84*%
X77577000Y-81972000D03*
X78267000Y-81972000D03*
%TD*%
D28*
%TO.C,U12*%
X77659000Y-79573000D03*
X76409000Y-78323000D03*
X76409000Y-79573000D03*
X77659000Y-78323000D03*
D29*
X78971500Y-79948000D03*
X78971500Y-79448000D03*
X78971500Y-78948000D03*
X78971500Y-78448000D03*
X78971500Y-77948000D03*
D30*
X78034000Y-77010500D03*
X77534000Y-77010500D03*
X77034000Y-77010500D03*
X76534000Y-77010500D03*
X76034000Y-77010500D03*
D29*
X75096500Y-77948000D03*
X75096500Y-78448000D03*
X75096500Y-78948000D03*
X75096500Y-79448000D03*
X75096500Y-79948000D03*
D30*
X76034000Y-80885500D03*
X76534000Y-80885500D03*
X77034000Y-80885500D03*
X77534000Y-80885500D03*
X78034000Y-80885500D03*
%TD*%
D19*
%TO.C,C119*%
X59195000Y-65642000D03*
X59195000Y-66332000D03*
%TD*%
D31*
%TO.C,U7*%
X53245000Y-75929000D03*
D32*
X54295000Y-77129000D03*
X53445000Y-77129000D03*
X54295000Y-73779000D03*
D31*
X54495000Y-75929000D03*
D32*
X53445000Y-73779000D03*
D31*
X53245000Y-74979000D03*
X54495000Y-74979000D03*
D33*
X55870000Y-77599000D03*
D34*
X56220000Y-76624000D03*
X56220000Y-75974000D03*
X56220000Y-75324000D03*
X56220000Y-74674000D03*
X56220000Y-74024000D03*
D33*
X55870000Y-73299000D03*
X51870000Y-73299000D03*
D34*
X51520000Y-74024000D03*
X51520000Y-74674000D03*
X51520000Y-75324000D03*
X51520000Y-75974000D03*
X51520000Y-76624000D03*
D33*
X51870000Y-77599000D03*
%TD*%
D18*
%TO.C,R42*%
X52673000Y-63114000D03*
X51983000Y-63114000D03*
%TD*%
D26*
%TO.C,C87*%
X75600000Y-72945000D03*
X75600000Y-72255000D03*
%TD*%
D27*
%TO.C,R51*%
X82400000Y-115610000D03*
X82400000Y-114590000D03*
%TD*%
D35*
%TO.C,C72*%
X74325000Y-115200000D03*
X75875000Y-115200000D03*
%TD*%
D11*
%TO.C,R47*%
X81400000Y-114590000D03*
X81400000Y-115610000D03*
%TD*%
D36*
%TO.C,R67*%
X68651000Y-59028000D03*
X67631000Y-59028000D03*
%TD*%
D11*
%TO.C,R27*%
X42800000Y-67390000D03*
X42800000Y-68410000D03*
%TD*%
D36*
%TO.C,R61*%
X52872000Y-53117000D03*
X51852000Y-53117000D03*
%TD*%
D37*
%TO.C,U8*%
X70355000Y-31410000D03*
X70355000Y-30550000D03*
X69395000Y-31410000D03*
X70355000Y-29690000D03*
X69395000Y-29690000D03*
X69395000Y-30550000D03*
D38*
X71350000Y-31550000D03*
X71350000Y-31050000D03*
X71350000Y-30550000D03*
X71350000Y-30050000D03*
X71350000Y-29550000D03*
X68400000Y-29550000D03*
X68400000Y-30050000D03*
X68400000Y-30550000D03*
X68400000Y-31050000D03*
X68400000Y-31550000D03*
D39*
X70125000Y-32100000D03*
X69625000Y-32100000D03*
X69625000Y-29000000D03*
X70125000Y-29000000D03*
%TD*%
D19*
%TO.C,C107*%
X57119000Y-65644000D03*
X57119000Y-66334000D03*
%TD*%
D40*
%TO.C,U13*%
X58137500Y-93037500D03*
X58637500Y-93037500D03*
X59137500Y-93037500D03*
X59637500Y-93037500D03*
X60137500Y-93037500D03*
X60637500Y-93037500D03*
D41*
X61287500Y-92387500D03*
X61287500Y-91887500D03*
X61287500Y-91387500D03*
X61287500Y-90887500D03*
X61287500Y-90387500D03*
X61287500Y-89887500D03*
D40*
X60637500Y-89237500D03*
X60137500Y-89237500D03*
X59637500Y-89237500D03*
X59137500Y-89237500D03*
X58637500Y-89237500D03*
X58137500Y-89237500D03*
D41*
X57487500Y-89887500D03*
X57487500Y-90387500D03*
X57487500Y-90887500D03*
X57487500Y-91387500D03*
X57487500Y-91887500D03*
X57487500Y-92387500D03*
%TD*%
D27*
%TO.C,R11*%
X57560000Y-77470000D03*
X57560000Y-76450000D03*
%TD*%
%TO.C,R3*%
X77235000Y-43674000D03*
X77235000Y-42654000D03*
%TD*%
D20*
%TO.C,C2*%
X77010000Y-40814000D03*
X77010000Y-41774000D03*
%TD*%
D42*
%TO.C,R22*%
X53875000Y-97300000D03*
X55525000Y-97300000D03*
%TD*%
D18*
%TO.C,C76*%
X45618000Y-56884000D03*
X44928000Y-56884000D03*
%TD*%
D43*
%TO.C,J1*%
X42985000Y-56484000D03*
X42985000Y-56984000D03*
X42985000Y-57484000D03*
X42985000Y-57984000D03*
X42985000Y-58484000D03*
X42985000Y-58984000D03*
X42985000Y-59484000D03*
X42985000Y-59984000D03*
X42985000Y-60484000D03*
X42985000Y-60984000D03*
X42985000Y-61484000D03*
X42985000Y-61984000D03*
D44*
X41385000Y-61734000D03*
X41385000Y-61234000D03*
X41385000Y-60734000D03*
X41385000Y-60234000D03*
X41385000Y-59734000D03*
X41385000Y-59234000D03*
X41385000Y-58734000D03*
X41385000Y-58234000D03*
X41385000Y-57734000D03*
X41385000Y-57234000D03*
X41385000Y-56734000D03*
X41385000Y-56234000D03*
%TD*%
D26*
%TO.C,C91*%
X60399000Y-94298000D03*
X60399000Y-94988000D03*
%TD*%
D36*
%TO.C,R55*%
X85427000Y-34470000D03*
X84407000Y-34470000D03*
%TD*%
D19*
%TO.C,C118*%
X56371000Y-66334000D03*
X56371000Y-65644000D03*
%TD*%
%TO.C,C1*%
X72640000Y-30870000D03*
X72640000Y-31560000D03*
%TD*%
D13*
%TO.C,C96*%
X56145000Y-71679000D03*
X54595000Y-71679000D03*
%TD*%
D45*
%TO.C,SW1*%
X58460000Y-122665000D03*
X61000000Y-122665000D03*
X63540000Y-122665000D03*
X63540000Y-115935000D03*
X61000000Y-115935000D03*
X58460000Y-115935000D03*
%TD*%
D19*
%TO.C,C116*%
X59895000Y-65642000D03*
X59895000Y-66332000D03*
%TD*%
D12*
%TO.C,R60*%
X70648000Y-55438000D03*
X71338000Y-55438000D03*
%TD*%
D18*
%TO.C,R43*%
X51980000Y-63863000D03*
X52670000Y-63863000D03*
%TD*%
D46*
%TO.C,U1*%
X71609988Y-112899999D03*
X71609988Y-107699999D03*
X72109988Y-112899999D03*
X72109988Y-107699999D03*
X72609988Y-112899999D03*
X72609988Y-107699999D03*
X73109988Y-112899999D03*
X73109988Y-107699999D03*
X73609988Y-112899999D03*
X73609988Y-107699999D03*
X74109988Y-112899999D03*
X74109988Y-107699999D03*
X74609988Y-112899999D03*
X74609988Y-107699999D03*
X75109988Y-112899999D03*
X75109988Y-107699999D03*
X75609988Y-112899999D03*
X75609988Y-107699999D03*
X76109988Y-112899999D03*
X76109988Y-107699999D03*
X76609988Y-112899999D03*
X76609988Y-107699999D03*
X77109988Y-112899999D03*
X77109988Y-107699999D03*
X77609988Y-112899999D03*
X77609988Y-107699999D03*
X78109988Y-112899999D03*
X78109988Y-107699999D03*
X78609988Y-112899999D03*
X78609988Y-107699999D03*
X79109988Y-112899999D03*
X79109988Y-107699999D03*
X79609988Y-112899999D03*
X79609988Y-107699999D03*
X80109988Y-112899999D03*
X80109988Y-107699999D03*
X80609988Y-112899999D03*
X80609988Y-107699999D03*
X81109988Y-112899999D03*
X81109988Y-107699999D03*
X81609988Y-112899999D03*
X81609988Y-107699999D03*
X82109988Y-112899999D03*
X82109988Y-107699999D03*
X82609988Y-112899999D03*
X82609988Y-107699999D03*
X83109988Y-112899999D03*
X83109988Y-107699999D03*
X83609988Y-112899999D03*
X83609988Y-107699999D03*
X84109988Y-112899999D03*
X84109988Y-107699999D03*
X84609988Y-112899999D03*
X84609988Y-107699999D03*
X85109988Y-112899999D03*
X85109988Y-107699999D03*
X85609988Y-112899999D03*
X85609988Y-107699999D03*
X86109988Y-112899999D03*
X86109988Y-107699999D03*
X86609988Y-112899999D03*
X86609988Y-107699999D03*
X87109988Y-112899999D03*
X87109988Y-107699999D03*
X87609988Y-112899999D03*
X87609988Y-107699999D03*
X88109988Y-112899999D03*
X88109988Y-107699999D03*
X88609988Y-112899999D03*
X88609988Y-107699999D03*
X89109988Y-112899999D03*
X89109988Y-107699999D03*
X89609988Y-112899999D03*
X89609988Y-107699999D03*
X90109988Y-112899999D03*
X90109988Y-107699999D03*
X90609988Y-112899999D03*
X90609988Y-107699999D03*
X91109988Y-112899999D03*
X91109988Y-107699999D03*
X91609988Y-112899999D03*
X91609988Y-107699999D03*
X92109988Y-112899999D03*
X92109988Y-107699999D03*
X92609988Y-112899999D03*
X92609988Y-107699999D03*
X93109988Y-112899999D03*
X93109988Y-107699999D03*
X93609988Y-112899999D03*
X93609988Y-107699999D03*
X94109988Y-112899999D03*
X94109988Y-107699999D03*
X94609988Y-112899999D03*
X94609988Y-107699999D03*
X95109988Y-112899999D03*
X95109988Y-107699999D03*
X95609988Y-112899999D03*
X95609988Y-107699999D03*
X96109988Y-112899999D03*
X96109988Y-107699999D03*
X96609988Y-112899999D03*
X96609988Y-107699999D03*
X97109988Y-112899999D03*
X97109988Y-107699999D03*
X97609988Y-112899999D03*
X97609988Y-107699999D03*
X98109988Y-112899999D03*
X98109988Y-107699999D03*
X98609988Y-112899999D03*
X98609988Y-107699999D03*
X99109988Y-112899999D03*
X99109988Y-107699999D03*
X99609988Y-112899999D03*
X99609988Y-107699999D03*
X100109988Y-112899999D03*
X100109988Y-107699999D03*
X100609988Y-112899999D03*
X100609988Y-107699999D03*
X101109988Y-112899999D03*
X101109988Y-107699999D03*
X101609988Y-112899999D03*
X101609988Y-107699999D03*
X102109988Y-112899999D03*
X102109988Y-107699999D03*
X102609988Y-112899999D03*
X102609988Y-107699999D03*
X103109988Y-112899999D03*
X103109988Y-107699999D03*
X103609988Y-112899999D03*
X103609988Y-107699999D03*
X104109988Y-112899999D03*
X104109988Y-107699999D03*
X104609988Y-112899999D03*
X104609988Y-107699999D03*
X105109988Y-112899999D03*
X105109988Y-107699999D03*
X105609988Y-112899999D03*
X105609988Y-107699999D03*
X106109988Y-112899999D03*
X106109988Y-107699999D03*
X106609988Y-112899999D03*
X106609988Y-107699999D03*
X107109988Y-112899999D03*
X107109988Y-107699999D03*
X107609988Y-112899999D03*
X107609988Y-107699999D03*
X108109988Y-112899999D03*
X108109988Y-107699999D03*
X108609988Y-112899999D03*
X108609988Y-107699999D03*
X109109988Y-112899999D03*
X109109988Y-107699999D03*
X109609988Y-112899999D03*
X109609988Y-107699999D03*
X110109988Y-112899999D03*
X110109988Y-107699999D03*
X110609988Y-112899999D03*
X110609988Y-107699999D03*
X111109988Y-112899999D03*
X111109988Y-107699999D03*
X111609988Y-112899999D03*
X111609988Y-107699999D03*
X112109988Y-112899999D03*
X112109988Y-107699999D03*
X112609988Y-112899999D03*
X112609988Y-107699999D03*
X113109988Y-112899999D03*
X113109988Y-107699999D03*
D47*
X68409988Y-110299999D03*
X116309988Y-110299999D03*
D46*
X71609988Y-70899999D03*
X71609988Y-65699999D03*
X72109988Y-70899999D03*
X72109988Y-65699999D03*
X72609988Y-70899999D03*
X72609988Y-65699999D03*
X73109988Y-70899999D03*
X73109988Y-65699999D03*
X73609988Y-70899999D03*
X73609988Y-65699999D03*
X74109988Y-70899999D03*
X74109988Y-65699999D03*
X74609988Y-70899999D03*
X74609988Y-65699999D03*
X75109988Y-70899999D03*
X75109988Y-65699999D03*
X75609988Y-70899999D03*
X75609988Y-65699999D03*
X76109988Y-70899999D03*
X76109988Y-65699999D03*
X76609988Y-70899999D03*
X76609988Y-65699999D03*
X77109988Y-70899999D03*
X77109988Y-65699999D03*
X77609988Y-70899999D03*
X77609988Y-65699999D03*
X78109988Y-70899999D03*
X78109988Y-65699999D03*
X78609988Y-70899999D03*
X78609988Y-65699999D03*
X79109988Y-70899999D03*
X79109988Y-65699999D03*
X79609988Y-70899999D03*
X79609988Y-65699999D03*
X80109988Y-70899999D03*
X80109988Y-65699999D03*
X80609988Y-70899999D03*
X80609988Y-65699999D03*
X81109988Y-70899999D03*
X81109988Y-65699999D03*
X81609988Y-70899999D03*
X81609988Y-65699999D03*
X82109988Y-70899999D03*
X82109988Y-65699999D03*
X82609988Y-70899999D03*
X82609988Y-65699999D03*
X83109988Y-70899999D03*
X83109988Y-65699999D03*
X83609988Y-70899999D03*
X83609988Y-65699999D03*
X84109988Y-70899999D03*
X84109988Y-65699999D03*
X84609988Y-70899999D03*
X84609988Y-65699999D03*
X85109988Y-70899999D03*
X85109988Y-65699999D03*
X85609988Y-70899999D03*
X85609988Y-65699999D03*
X86109988Y-70899999D03*
X86109988Y-65699999D03*
X86609988Y-70899999D03*
X86609988Y-65699999D03*
X87109988Y-70899999D03*
X87109988Y-65699999D03*
X87609988Y-70899999D03*
X87609988Y-65699999D03*
X88109988Y-70899999D03*
X88109988Y-65699999D03*
X88609988Y-70899999D03*
X88609988Y-65699999D03*
X89109988Y-70899999D03*
X89109988Y-65699999D03*
X89609988Y-70899999D03*
X89609988Y-65699999D03*
X90109988Y-70899999D03*
X90109988Y-65699999D03*
X90609988Y-70899999D03*
X90609988Y-65699999D03*
X91109988Y-70899999D03*
X91109988Y-65699999D03*
X91609988Y-70899999D03*
X91609988Y-65699999D03*
X92109988Y-70899999D03*
X92109988Y-65699999D03*
X92609988Y-70899999D03*
X92609988Y-65699999D03*
X93109988Y-70899999D03*
X93109988Y-65699999D03*
X93609988Y-70899999D03*
X93609988Y-65699999D03*
X94109988Y-70899999D03*
X94109988Y-65699999D03*
X94609988Y-70899999D03*
X94609988Y-65699999D03*
X95109988Y-70899999D03*
X95109988Y-65699999D03*
X95609988Y-70899999D03*
X95609988Y-65699999D03*
X96109988Y-70899999D03*
X96109988Y-65699999D03*
X96609988Y-70899999D03*
X96609988Y-65699999D03*
X97109988Y-70899999D03*
X97109988Y-65699999D03*
X97609988Y-70899999D03*
X97609988Y-65699999D03*
X98109988Y-70899999D03*
X98109988Y-65699999D03*
X98609988Y-70899999D03*
X98609988Y-65699999D03*
X99109988Y-70899999D03*
X99109988Y-65699999D03*
X99609988Y-70899999D03*
X99609988Y-65699999D03*
X100109988Y-70899999D03*
X100109988Y-65699999D03*
X100609988Y-70899999D03*
X100609988Y-65699999D03*
X101109988Y-70899999D03*
X101109988Y-65699999D03*
X101609988Y-70899999D03*
X101609988Y-65699999D03*
X102109988Y-70899999D03*
X102109988Y-65699999D03*
X102609988Y-70899999D03*
X102609988Y-65699999D03*
X103109988Y-70899999D03*
X103109988Y-65699999D03*
X103609988Y-70899999D03*
X103609988Y-65699999D03*
X104109988Y-70899999D03*
X104109988Y-65699999D03*
X104609988Y-70899999D03*
X104609988Y-65699999D03*
X105109988Y-70899999D03*
X105109988Y-65699999D03*
X105609988Y-70899999D03*
X105609988Y-65699999D03*
X106109988Y-70899999D03*
X106109988Y-65699999D03*
X106609988Y-70899999D03*
X106609988Y-65699999D03*
X107109988Y-70899999D03*
X107109988Y-65699999D03*
X107609988Y-70899999D03*
X107609988Y-65699999D03*
X108109988Y-70899999D03*
X108109988Y-65699999D03*
X108609988Y-70899999D03*
X108609988Y-65699999D03*
X109109988Y-70899999D03*
X109109988Y-65699999D03*
X109609988Y-70899999D03*
X109609988Y-65699999D03*
X110109988Y-70899999D03*
X110109988Y-65699999D03*
X110609988Y-70899999D03*
X110609988Y-65699999D03*
X111109988Y-70899999D03*
X111109988Y-65699999D03*
X111609988Y-70899999D03*
X111609988Y-65699999D03*
X112109988Y-70899999D03*
X112109988Y-65699999D03*
X112609988Y-70899999D03*
X112609988Y-65699999D03*
X113109988Y-70899999D03*
X113109988Y-65699999D03*
D47*
X68409988Y-68299999D03*
X116309988Y-68299999D03*
%TD*%
D12*
%TO.C,R44*%
X70650000Y-56188000D03*
X71340000Y-56188000D03*
%TD*%
D48*
%TO.C,U16*%
X105530000Y-42290000D03*
X111030000Y-43290000D03*
X105530000Y-44290000D03*
X111030000Y-45290000D03*
X105530000Y-46290000D03*
X111030000Y-47290000D03*
X105530000Y-48290000D03*
X111030000Y-49290000D03*
X105530000Y-50290000D03*
X111030000Y-51290000D03*
X105530000Y-52290000D03*
X111030000Y-53290000D03*
X105530000Y-54290000D03*
X111030000Y-55290000D03*
X105530000Y-56290000D03*
%TD*%
D11*
%TO.C,R45*%
X58675000Y-72261500D03*
X58675000Y-73281500D03*
%TD*%
D27*
%TO.C,R10*%
X64981094Y-106982000D03*
X64981094Y-105962000D03*
%TD*%
D36*
%TO.C,R13*%
X46936000Y-53237000D03*
X45916000Y-53237000D03*
%TD*%
D11*
%TO.C,R34*%
X112670000Y-42276000D03*
X112670000Y-43296000D03*
%TD*%
D27*
%TO.C,R6*%
X74101000Y-52782000D03*
X74101000Y-51762000D03*
%TD*%
%TO.C,R50*%
X80400000Y-115610000D03*
X80400000Y-114590000D03*
%TD*%
D49*
%TO.C,D2*%
X59675000Y-75256500D03*
X59675000Y-74286500D03*
%TD*%
D36*
%TO.C,R62*%
X52873000Y-54102000D03*
X51853000Y-54102000D03*
%TD*%
D50*
%TO.C,FB1*%
X47200000Y-31437500D03*
X47200000Y-33562500D03*
%TD*%
D36*
%TO.C,R54*%
X69260000Y-88750000D03*
X68240000Y-88750000D03*
%TD*%
D51*
%TO.C,SW3*%
X89651000Y-29471000D03*
X93251000Y-29471000D03*
X89651000Y-28031000D03*
X93251000Y-28031000D03*
%TD*%
D27*
%TO.C,R1*%
X67130000Y-29900000D03*
X67130000Y-28880000D03*
%TD*%
D36*
%TO.C,R68*%
X68649000Y-58041000D03*
X67629000Y-58041000D03*
%TD*%
D10*
%TO.C,D7*%
X59015000Y-83450000D03*
X59985000Y-83450000D03*
%TD*%
D27*
%TO.C,R14*%
X47874000Y-54214000D03*
X47874000Y-53194000D03*
%TD*%
D35*
%TO.C,C7*%
X71185000Y-48764000D03*
X72735000Y-48764000D03*
%TD*%
D36*
%TO.C,R57*%
X71736000Y-57057000D03*
X70716000Y-57057000D03*
%TD*%
D48*
%TO.C,U15*%
X124250000Y-87500000D03*
X129750000Y-88500000D03*
X124250000Y-89500000D03*
X129750000Y-90500000D03*
X124250000Y-91500000D03*
X129750000Y-92500000D03*
X124250000Y-93500000D03*
X129750000Y-94500000D03*
X124250000Y-95500000D03*
X129750000Y-96500000D03*
X124250000Y-97500000D03*
X129750000Y-98500000D03*
X124250000Y-99500000D03*
X129750000Y-100500000D03*
X124250000Y-101500000D03*
X129750000Y-102500000D03*
X124250000Y-103500000D03*
X129750000Y-104500000D03*
X124250000Y-105500000D03*
X129750000Y-106500000D03*
X124250000Y-107500000D03*
X129750000Y-108500000D03*
%TD*%
D52*
%TO.C,U9*%
X71710000Y-42294000D03*
D53*
X74560000Y-42744000D03*
X73560000Y-42744000D03*
D54*
X70010000Y-41419000D03*
X70010000Y-42069000D03*
X70010000Y-42719000D03*
X70010000Y-43369000D03*
D55*
X70660000Y-44294000D03*
X71285000Y-44294000D03*
X71935000Y-44294000D03*
X72585000Y-44294000D03*
X73235000Y-44294000D03*
X73885000Y-44294000D03*
X74535000Y-44294000D03*
X75160000Y-44294000D03*
D54*
X75810000Y-43369000D03*
X75810000Y-42719000D03*
X75810000Y-42069000D03*
X75810000Y-41419000D03*
D55*
X75160000Y-40494000D03*
X74535000Y-40494000D03*
X73885000Y-40494000D03*
X73235000Y-40494000D03*
X72585000Y-40494000D03*
X71935000Y-40494000D03*
X71285000Y-40494000D03*
D56*
X70660000Y-40494000D03*
%TD*%
D57*
%TO.C,U6*%
X45550000Y-68115000D03*
X44850000Y-68115000D03*
D58*
X44050000Y-68040000D03*
X44050000Y-68540000D03*
X44050000Y-69040000D03*
X44050000Y-69540000D03*
D57*
X44850000Y-69465000D03*
X45550000Y-69465000D03*
D58*
X46350000Y-69540000D03*
X46350000Y-69040000D03*
X46350000Y-68540000D03*
X46350000Y-68040000D03*
%TD*%
D18*
%TO.C,C74*%
X44928000Y-57584000D03*
X45618000Y-57584000D03*
%TD*%
D36*
%TO.C,R70*%
X71732000Y-54568000D03*
X70712000Y-54568000D03*
%TD*%
D59*
%TO.C,C94*%
X50120000Y-79654000D03*
X53070000Y-79654000D03*
%TD*%
D20*
%TO.C,C9*%
X50924000Y-53064000D03*
X50924000Y-54024000D03*
%TD*%
D11*
%TO.C,R18*%
X79400000Y-114590000D03*
X79400000Y-115610000D03*
%TD*%
D60*
%TO.C,J10*%
X120502443Y-122775000D03*
D61*
X120502443Y-112625000D03*
%TD*%
D27*
%TO.C,R28*%
X41800000Y-68410000D03*
X41800000Y-67390000D03*
%TD*%
D11*
%TO.C,R26*%
X41800000Y-69290000D03*
X41800000Y-70310000D03*
%TD*%
D10*
%TO.C,D8*%
X82499500Y-34470000D03*
X83469500Y-34470000D03*
%TD*%
D11*
%TO.C,R7*%
X74100000Y-53670000D03*
X74100000Y-54690000D03*
%TD*%
D62*
%TO.C,C102*%
X35400000Y-49880000D03*
X35400000Y-48920000D03*
%TD*%
D36*
%TO.C,R53*%
X69260000Y-89700000D03*
X68240000Y-89700000D03*
%TD*%
D26*
%TO.C,C98*%
X47600000Y-67545000D03*
X47600000Y-68235000D03*
%TD*%
D11*
%TO.C,R38*%
X115544000Y-43118000D03*
X115544000Y-44138000D03*
%TD*%
D51*
%TO.C,SW2*%
X84102000Y-29469000D03*
X87702000Y-29469000D03*
X87702000Y-28029000D03*
X84102000Y-28029000D03*
%TD*%
D63*
%TO.C,J8*%
X84300000Y-122675000D03*
X85300000Y-122675000D03*
X86300000Y-122675000D03*
X87300000Y-122675000D03*
D64*
X83000000Y-120150000D03*
X88600000Y-120150000D03*
%TD*%
D65*
%TO.C,Q1*%
X54565500Y-122840000D03*
X54565500Y-120940000D03*
X52690500Y-121890000D03*
%TD*%
D35*
%TO.C,C5*%
X71180000Y-45809000D03*
X72730000Y-45809000D03*
%TD*%
%TO.C,C73*%
X73925000Y-105500000D03*
X75475000Y-105500000D03*
%TD*%
D12*
%TO.C,C8*%
X74690000Y-38064000D03*
X75380000Y-38064000D03*
%TD*%
D48*
%TO.C,U3*%
X124250000Y-58500000D03*
X129750000Y-59500000D03*
X124250000Y-60500000D03*
X129750000Y-61500000D03*
X124250000Y-62500000D03*
X129750000Y-63500000D03*
X124250000Y-64500000D03*
X129750000Y-65500000D03*
X124250000Y-66500000D03*
X129750000Y-67500000D03*
X124250000Y-68500000D03*
X129750000Y-69500000D03*
X124250000Y-70500000D03*
X129750000Y-71500000D03*
X124250000Y-72500000D03*
X129750000Y-73500000D03*
X124250000Y-74500000D03*
X129750000Y-75500000D03*
X124250000Y-76500000D03*
X129750000Y-77500000D03*
X124250000Y-78500000D03*
X129750000Y-79500000D03*
%TD*%
D66*
%TO.C,C71*%
X59112500Y-30750000D03*
X64187500Y-30750000D03*
%TD*%
D48*
%TO.C,U14*%
X117430000Y-42290000D03*
X122930000Y-43290000D03*
X117430000Y-44290000D03*
X122930000Y-45290000D03*
X117430000Y-46290000D03*
X122930000Y-47290000D03*
X117430000Y-48290000D03*
X122930000Y-49290000D03*
X117430000Y-50290000D03*
X122930000Y-51290000D03*
X117430000Y-52290000D03*
X122930000Y-53290000D03*
X117430000Y-54290000D03*
X122930000Y-55290000D03*
X117430000Y-56290000D03*
%TD*%
D11*
%TO.C,R17*%
X65830000Y-110590000D03*
X65830000Y-111610000D03*
%TD*%
%TO.C,R58*%
X36400000Y-48890000D03*
X36400000Y-49910000D03*
%TD*%
D36*
%TO.C,R69*%
X68648000Y-57054000D03*
X67628000Y-57054000D03*
%TD*%
D48*
%TO.C,U17*%
X80840000Y-42400000D03*
X86340000Y-43400000D03*
X80840000Y-44400000D03*
X86340000Y-45400000D03*
X80840000Y-46400000D03*
X86340000Y-47400000D03*
X80840000Y-48400000D03*
X86340000Y-49400000D03*
X80840000Y-50400000D03*
X86340000Y-51400000D03*
X80840000Y-52400000D03*
X86340000Y-53400000D03*
X80840000Y-54400000D03*
X86340000Y-55400000D03*
X80840000Y-56400000D03*
%TD*%
D11*
%TO.C,R39*%
X122100000Y-88490000D03*
X122100000Y-89510000D03*
%TD*%
D19*
%TO.C,C85*%
X73444000Y-79089000D03*
X73444000Y-78399000D03*
%TD*%
D35*
%TO.C,C95*%
X51595000Y-70179000D03*
X53145000Y-70179000D03*
%TD*%
%TO.C,C97*%
X51595000Y-71679000D03*
X53145000Y-71679000D03*
%TD*%
D19*
%TO.C,C68*%
X48550000Y-32405000D03*
X48550000Y-33095000D03*
%TD*%
D49*
%TO.C,D1*%
X58675000Y-75256500D03*
X58675000Y-74286500D03*
%TD*%
D11*
%TO.C,R35*%
X87686000Y-41313000D03*
X87686000Y-42333000D03*
%TD*%
D42*
%TO.C,R21*%
X53875000Y-98800000D03*
X55525000Y-98800000D03*
%TD*%
D11*
%TO.C,R33*%
X130445000Y-84375000D03*
X130445000Y-85395000D03*
%TD*%
D19*
%TO.C,C78*%
X56450000Y-108195000D03*
X56450000Y-107505000D03*
%TD*%
D11*
%TO.C,R24*%
X50320000Y-73969000D03*
X50320000Y-74989000D03*
%TD*%
D63*
%TO.C,J7*%
X76400000Y-122675000D03*
X77400000Y-122675000D03*
X78400000Y-122675000D03*
X79400000Y-122675000D03*
D64*
X80700000Y-120150000D03*
X75100000Y-120150000D03*
%TD*%
D67*
%TO.C,U21*%
X54295000Y-53640000D03*
X54295000Y-54040000D03*
X54295000Y-54440000D03*
X54295000Y-54840000D03*
X54295000Y-55240000D03*
X54295000Y-55640000D03*
X54295000Y-56040000D03*
X54295000Y-56440000D03*
X54295000Y-56840000D03*
X54295000Y-57240000D03*
X54295000Y-57640000D03*
X54295000Y-58040000D03*
X54295000Y-58440000D03*
X54295000Y-58840000D03*
X54295000Y-59240000D03*
X54295000Y-59640000D03*
X54295000Y-60040000D03*
X54295000Y-60440000D03*
X54295000Y-60840000D03*
X54295000Y-61240000D03*
X54295000Y-61640000D03*
X54295000Y-62040000D03*
X54295000Y-62440000D03*
X54295000Y-62840000D03*
X54295000Y-63240000D03*
D68*
X55345000Y-64290000D03*
X55745000Y-64290000D03*
X56145000Y-64290000D03*
X56545000Y-64290000D03*
X56945000Y-64290000D03*
X57345000Y-64290000D03*
X57745000Y-64290000D03*
X58145000Y-64290000D03*
X58545000Y-64290000D03*
X58945000Y-64290000D03*
X59345000Y-64290000D03*
X59745000Y-64290000D03*
X60145000Y-64290000D03*
X60545000Y-64290000D03*
X60945000Y-64290000D03*
X61345000Y-64290000D03*
X61745000Y-64290000D03*
X62145000Y-64290000D03*
X62545000Y-64290000D03*
X62945000Y-64290000D03*
X63345000Y-64290000D03*
X63745000Y-64290000D03*
X64145000Y-64290000D03*
X64545000Y-64290000D03*
X64945000Y-64290000D03*
D67*
X65995000Y-63240000D03*
X65995000Y-62840000D03*
X65995000Y-62440000D03*
X65995000Y-62040000D03*
X65995000Y-61640000D03*
X65995000Y-61240000D03*
X65995000Y-60840000D03*
X65995000Y-60440000D03*
X65995000Y-60040000D03*
X65995000Y-59640000D03*
X65995000Y-59240000D03*
X65995000Y-58840000D03*
X65995000Y-58440000D03*
X65995000Y-58040000D03*
X65995000Y-57640000D03*
X65995000Y-57240000D03*
X65995000Y-56840000D03*
X65995000Y-56440000D03*
X65995000Y-56040000D03*
X65995000Y-55640000D03*
X65995000Y-55240000D03*
X65995000Y-54840000D03*
X65995000Y-54440000D03*
X65995000Y-54040000D03*
X65995000Y-53640000D03*
D68*
X64945000Y-52590000D03*
X64545000Y-52590000D03*
X64145000Y-52590000D03*
X63745000Y-52590000D03*
X63345000Y-52590000D03*
X62945000Y-52590000D03*
X62545000Y-52590000D03*
X62145000Y-52590000D03*
X61745000Y-52590000D03*
X61345000Y-52590000D03*
X60945000Y-52590000D03*
X60545000Y-52590000D03*
X60145000Y-52590000D03*
X59745000Y-52590000D03*
X59345000Y-52590000D03*
X58945000Y-52590000D03*
X58545000Y-52590000D03*
X58145000Y-52590000D03*
X57745000Y-52590000D03*
X57345000Y-52590000D03*
X56945000Y-52590000D03*
X56545000Y-52590000D03*
X56145000Y-52590000D03*
X55745000Y-52590000D03*
X55345000Y-52590000D03*
D69*
X60145000Y-58440000D03*
%TD*%
D27*
%TO.C,R25*%
X42800000Y-70310000D03*
X42800000Y-69290000D03*
%TD*%
D62*
%TO.C,C103*%
X37641000Y-68865000D03*
X37641000Y-67905000D03*
%TD*%
D70*
%TO.C,U18*%
X59310000Y-107149000D03*
X59310000Y-107799000D03*
X59310000Y-108449000D03*
X59310000Y-109099000D03*
X63610000Y-109099000D03*
X63610000Y-108449000D03*
X63610000Y-107799000D03*
X63610000Y-107149000D03*
%TD*%
D11*
%TO.C,R31*%
X101650000Y-34979500D03*
X101650000Y-35999500D03*
%TD*%
D35*
%TO.C,C6*%
X71185000Y-47289000D03*
X72735000Y-47289000D03*
%TD*%
D66*
%TO.C,C69*%
X50162500Y-30750000D03*
X55237500Y-30750000D03*
%TD*%
D11*
%TO.C,R48*%
X83400000Y-114590000D03*
X83400000Y-115610000D03*
%TD*%
%TO.C,R41*%
X79087000Y-43287000D03*
X79087000Y-44307000D03*
%TD*%
%TO.C,R46*%
X59675000Y-72261500D03*
X59675000Y-73281500D03*
%TD*%
D71*
%TO.C,C4*%
X76320000Y-45364000D03*
X77280000Y-45364000D03*
%TD*%
D27*
%TO.C,R36*%
X122600000Y-61702000D03*
X122600000Y-60682000D03*
%TD*%
D11*
%TO.C,R29*%
X47600000Y-69280000D03*
X47600000Y-70300000D03*
%TD*%
D63*
%TO.C,J5*%
X68500000Y-122675000D03*
X69500000Y-122675000D03*
X70500000Y-122675000D03*
X71500000Y-122675000D03*
D64*
X67200000Y-120150000D03*
X72800000Y-120150000D03*
%TD*%
D50*
%TO.C,FB2*%
X45450000Y-31437500D03*
X45450000Y-33562500D03*
%TD*%
D48*
%TO.C,U4*%
X94150000Y-35000000D03*
X99650000Y-36000000D03*
X94150000Y-37000000D03*
X99650000Y-38000000D03*
X94150000Y-39000000D03*
X99650000Y-40000000D03*
X94150000Y-41000000D03*
X99650000Y-42000000D03*
X94150000Y-43000000D03*
X99650000Y-44000000D03*
X94150000Y-45000000D03*
X99650000Y-46000000D03*
X94150000Y-47000000D03*
X99650000Y-48000000D03*
X94150000Y-49000000D03*
X99650000Y-50000000D03*
X94150000Y-51000000D03*
X99650000Y-52000000D03*
X94150000Y-53000000D03*
X99650000Y-54000000D03*
X94150000Y-55000000D03*
X99650000Y-56000000D03*
%TD*%
D11*
%TO.C,R59*%
X36641000Y-67875000D03*
X36641000Y-68895000D03*
%TD*%
%TO.C,R19*%
X64976094Y-107884000D03*
X64976094Y-108904000D03*
%TD*%
M02*
