%TF.GenerationSoftware,KiCad,Pcbnew,5.99.0-unknown-42c6af4bd8~125~ubuntu20.04.1*%
%TF.CreationDate,2021-03-29T15:44:50+08:00*%
%TF.ProjectId,ovc5,6f766335-2e6b-4696-9361-645f70636258,rev?*%
%TF.SameCoordinates,Original*%
%TF.FileFunction,Soldermask,Top*%
%TF.FilePolarity,Negative*%
%FSLAX46Y46*%
G04 Gerber Fmt 4.6, Leading zero omitted, Abs format (unit mm)*
G04 Created by KiCad (PCBNEW 5.99.0-unknown-42c6af4bd8~125~ubuntu20.04.1) date 2021-03-29 15:44:50*
%MOMM*%
%LPD*%
G01*
G04 APERTURE LIST*
G04 Aperture macros list*
%AMRoundRect*
0 Rectangle with rounded corners*
0 $1 Rounding radius*
0 $2 $3 $4 $5 $6 $7 $8 $9 X,Y pos of 4 corners*
0 Add a 4 corners polygon primitive as box body*
4,1,4,$2,$3,$4,$5,$6,$7,$8,$9,$2,$3,0*
0 Add four circle primitives for the rounded corners*
1,1,$1+$1,$2,$3*
1,1,$1+$1,$4,$5*
1,1,$1+$1,$6,$7*
1,1,$1+$1,$8,$9*
0 Add four rect primitives between the rounded corners*
20,1,$1+$1,$2,$3,$4,$5,0*
20,1,$1+$1,$4,$5,$6,$7,0*
20,1,$1+$1,$6,$7,$8,$9,0*
20,1,$1+$1,$8,$9,$2,$3,0*%
%AMFreePoly0*
4,1,13,0.750000,1.250000,1.250000,1.250000,1.250000,-1.250000,0.750000,-1.250000,0.750000,-2.300000,-0.750000,-2.300000,-0.750000,-1.250000,-1.250000,-1.250000,-1.250000,1.250000,-0.750000,1.250000,-0.750000,2.300000,0.750000,2.300000,0.750000,1.250000,0.750000,1.250000,$1*%
G04 Aperture macros list end*
%ADD10RoundRect,0.147500X-0.147500X-0.172500X0.147500X-0.172500X0.147500X0.172500X-0.147500X0.172500X0*%
%ADD11RoundRect,0.140000X0.140000X0.170000X-0.140000X0.170000X-0.140000X-0.170000X0.140000X-0.170000X0*%
%ADD12RoundRect,0.225000X0.250000X-0.225000X0.250000X0.225000X-0.250000X0.225000X-0.250000X-0.225000X0*%
%ADD13RoundRect,0.135000X0.135000X0.185000X-0.135000X0.185000X-0.135000X-0.185000X0.135000X-0.185000X0*%
%ADD14RoundRect,0.250000X0.325000X0.650000X-0.325000X0.650000X-0.325000X-0.650000X0.325000X-0.650000X0*%
%ADD15C,3.200000*%
%ADD16R,0.300000X0.300000*%
%ADD17RoundRect,0.140000X-0.170000X0.140000X-0.170000X-0.140000X0.170000X-0.140000X0.170000X0.140000X0*%
%ADD18RoundRect,0.135000X-0.185000X0.135000X-0.185000X-0.135000X0.185000X-0.135000X0.185000X0.135000X0*%
%ADD19R,1.750000X0.450000*%
%ADD20R,1.200000X0.700000*%
%ADD21R,0.800000X1.000000*%
%ADD22R,2.800000X1.000000*%
%ADD23R,1.900000X1.300000*%
%ADD24R,1.200000X1.000000*%
%ADD25RoundRect,0.140000X0.170000X-0.140000X0.170000X0.140000X-0.170000X0.140000X-0.170000X-0.140000X0*%
%ADD26RoundRect,0.225000X0.225000X0.250000X-0.225000X0.250000X-0.225000X-0.250000X0.225000X-0.250000X0*%
%ADD27R,1.700000X1.700000*%
%ADD28O,1.700000X1.700000*%
%ADD29RoundRect,0.135000X0.185000X-0.135000X0.185000X0.135000X-0.185000X0.135000X-0.185000X-0.135000X0*%
%ADD30RoundRect,0.140000X-0.140000X-0.170000X0.140000X-0.170000X0.140000X0.170000X-0.140000X0.170000X0*%
%ADD31RoundRect,0.050000X0.650000X0.200000X-0.650000X0.200000X-0.650000X-0.200000X0.650000X-0.200000X0*%
%ADD32RoundRect,0.050050X0.299950X0.124950X-0.299950X0.124950X-0.299950X-0.124950X0.299950X-0.124950X0*%
%ADD33C,0.500000*%
%ADD34FreePoly0,180.000000*%
%ADD35C,1.524000*%
%ADD36C,1.371600*%
%ADD37C,3.600000*%
%ADD38C,2.200000*%
%ADD39RoundRect,0.225000X-0.225000X-0.250000X0.225000X-0.250000X0.225000X0.250000X-0.225000X0.250000X0*%
%ADD40R,2.600000X2.600000*%
%ADD41C,2.600000*%
%ADD42RoundRect,0.250000X-0.620000X-0.620000X0.620000X-0.620000X0.620000X0.620000X-0.620000X0.620000X0*%
%ADD43C,1.740000*%
%ADD44R,0.850000X0.280000*%
%ADD45R,0.280000X0.700000*%
%ADD46R,1.650000X2.400000*%
%ADD47O,0.240000X0.600000*%
%ADD48O,0.600000X0.240000*%
%ADD49C,0.612500*%
%ADD50R,1.225000X1.225000*%
%ADD51RoundRect,0.135000X-0.135000X-0.185000X0.135000X-0.185000X0.135000X0.185000X-0.135000X0.185000X0*%
%ADD52RoundRect,0.200000X-0.200000X-0.275000X0.200000X-0.275000X0.200000X0.275000X-0.200000X0.275000X0*%
%ADD53R,1.200000X0.300000*%
%ADD54C,0.650000*%
%ADD55C,1.400000*%
%ADD56R,1.120000X2.160000*%
%ADD57C,1.200000*%
%ADD58C,1.100000*%
%ADD59R,0.300000X1.100000*%
%ADD60R,1.600000X3.100000*%
%ADD61C,3.500000*%
%ADD62R,1.850000X0.600000*%
%ADD63R,0.900000X0.800000*%
%ADD64RoundRect,0.218750X-0.381250X0.218750X-0.381250X-0.218750X0.381250X-0.218750X0.381250X0.218750X0*%
%ADD65RoundRect,0.225000X-0.250000X0.225000X-0.250000X-0.225000X0.250000X-0.225000X0.250000X0.225000X0*%
%ADD66C,0.900000*%
%ADD67C,2.400000*%
%ADD68R,0.900000X1.900000*%
%ADD69R,1.800000X2.250000*%
%ADD70RoundRect,0.075000X-0.075000X-0.225000X0.075000X-0.225000X0.075000X0.225000X-0.075000X0.225000X0*%
%ADD71RoundRect,0.075000X0.225000X-0.075000X0.225000X0.075000X-0.225000X0.075000X-0.225000X-0.075000X0*%
%ADD72RoundRect,0.075000X-0.225000X0.075000X-0.225000X-0.075000X0.225000X-0.075000X0.225000X0.075000X0*%
%ADD73C,0.600000*%
%ADD74RoundRect,0.100000X-0.100000X-0.425000X0.100000X-0.425000X0.100000X0.425000X-0.100000X0.425000X0*%
%ADD75RoundRect,0.050000X-0.250000X0.050000X-0.250000X-0.050000X0.250000X-0.050000X0.250000X0.050000X0*%
%ADD76RoundRect,0.250000X-0.325000X-0.650000X0.325000X-0.650000X0.325000X0.650000X-0.325000X0.650000X0*%
%ADD77R,4.000000X1.700000*%
%ADD78R,5.000000X2.000000*%
%ADD79C,0.450000*%
%ADD80RoundRect,0.150000X-0.150000X-0.625000X0.150000X-0.625000X0.150000X0.625000X-0.150000X0.625000X0*%
%ADD81RoundRect,0.250000X-0.350000X-0.650000X0.350000X-0.650000X0.350000X0.650000X-0.350000X0.650000X0*%
%ADD82RoundRect,0.250000X-1.412500X-0.550000X1.412500X-0.550000X1.412500X0.550000X-1.412500X0.550000X0*%
%ADD83RoundRect,0.125000X-0.125000X0.262500X-0.125000X-0.262500X0.125000X-0.262500X0.125000X0.262500X0*%
%ADD84R,4.000000X3.400000*%
%ADD85R,0.800000X0.300000*%
G04 APERTURE END LIST*
D10*
%TO.C,D6*%
X58982500Y-84900000D03*
X59952500Y-84900000D03*
%TD*%
D11*
%TO.C,C101*%
X42830000Y-66460000D03*
X41870000Y-66460000D03*
%TD*%
D12*
%TO.C,C3*%
X73400000Y-82400000D03*
X73400000Y-80850000D03*
%TD*%
D13*
%TO.C,R43*%
X70460000Y-50040000D03*
X69440000Y-50040000D03*
%TD*%
D14*
%TO.C,C93*%
X58875000Y-79600000D03*
X55925000Y-79600000D03*
%TD*%
D15*
%TO.C,H2*%
X38000000Y-120000000D03*
%TD*%
D16*
%TO.C,D3*%
X46625000Y-58325000D03*
X46625000Y-59025000D03*
X47475000Y-58675000D03*
%TD*%
D11*
%TO.C,C90*%
X54130000Y-89625000D03*
X53170000Y-89625000D03*
%TD*%
D16*
%TO.C,D4*%
X53625000Y-41450000D03*
X53625000Y-42150000D03*
X54475000Y-41800000D03*
%TD*%
D17*
%TO.C,C83*%
X78625000Y-45470000D03*
X78625000Y-46430000D03*
%TD*%
%TO.C,C28*%
X63101550Y-63271550D03*
X63101550Y-64231550D03*
%TD*%
D13*
%TO.C,R38*%
X113660000Y-44290000D03*
X112640000Y-44290000D03*
%TD*%
D11*
%TO.C,C92*%
X56092500Y-91012500D03*
X55132500Y-91012500D03*
%TD*%
D17*
%TO.C,C70*%
X44100000Y-31520000D03*
X44100000Y-32480000D03*
%TD*%
D18*
%TO.C,R52*%
X53500000Y-83290000D03*
X53500000Y-84310000D03*
%TD*%
D19*
%TO.C,U12*%
X69600000Y-38700000D03*
X69600000Y-39350000D03*
X69600000Y-40000000D03*
X69600000Y-40650000D03*
X69600000Y-41300000D03*
X69600000Y-41950000D03*
X69600000Y-42600000D03*
X69600000Y-43250000D03*
X69600000Y-43900000D03*
X69600000Y-44550000D03*
X69600000Y-45200000D03*
X69600000Y-45850000D03*
X69600000Y-46500000D03*
X69600000Y-47150000D03*
X76800000Y-47150000D03*
X76800000Y-46500000D03*
X76800000Y-45850000D03*
X76800000Y-45200000D03*
X76800000Y-44550000D03*
X76800000Y-43900000D03*
X76800000Y-43250000D03*
X76800000Y-42600000D03*
X76800000Y-41950000D03*
X76800000Y-41300000D03*
X76800000Y-40650000D03*
X76800000Y-40000000D03*
X76800000Y-39350000D03*
X76800000Y-38700000D03*
%TD*%
D17*
%TO.C,C63*%
X60030950Y-47800000D03*
X60030950Y-48760000D03*
%TD*%
D20*
%TO.C,J3*%
X51550000Y-92955000D03*
X51550000Y-91855000D03*
X51550000Y-90755000D03*
X51550000Y-89655000D03*
X51550000Y-88555000D03*
X51550000Y-87455000D03*
X51550000Y-86355000D03*
X51550000Y-85255000D03*
X51550000Y-84305000D03*
D21*
X41050000Y-83355000D03*
D22*
X36900000Y-83355000D03*
D23*
X36450000Y-96855000D03*
D24*
X51550000Y-94505000D03*
X47250000Y-83355000D03*
%TD*%
D18*
%TO.C,R20*%
X69600000Y-52990000D03*
X69600000Y-54010000D03*
%TD*%
D25*
%TO.C,C86*%
X74600000Y-73080000D03*
X74600000Y-72120000D03*
%TD*%
D26*
%TO.C,C23*%
X57325000Y-70125000D03*
X55775000Y-70125000D03*
%TD*%
D18*
%TO.C,R23*%
X51500000Y-72040000D03*
X51500000Y-73060000D03*
%TD*%
%TO.C,R4*%
X73355000Y-83590000D03*
X73355000Y-84610000D03*
%TD*%
D27*
%TO.C,J6*%
X91850000Y-122690000D03*
D28*
X91850000Y-120150000D03*
X94390000Y-122690000D03*
X94390000Y-120150000D03*
X96930000Y-122690000D03*
X96930000Y-120150000D03*
X99470000Y-122690000D03*
X99470000Y-120150000D03*
X102010000Y-122690000D03*
X102010000Y-120150000D03*
X104550000Y-122690000D03*
X104550000Y-120150000D03*
%TD*%
D17*
%TO.C,C27*%
X64051550Y-63271550D03*
X64051550Y-64231550D03*
%TD*%
D29*
%TO.C,R49*%
X78400000Y-115610000D03*
X78400000Y-114590000D03*
%TD*%
D18*
%TO.C,R2*%
X66080000Y-85380000D03*
X66080000Y-86400000D03*
%TD*%
D17*
%TO.C,C84*%
X67925000Y-38970000D03*
X67925000Y-39930000D03*
%TD*%
%TO.C,C39*%
X60470950Y-63271550D03*
X60470950Y-64231550D03*
%TD*%
D18*
%TO.C,R40*%
X103500000Y-42390000D03*
X103500000Y-43410000D03*
%TD*%
D30*
%TO.C,C45*%
X64988450Y-64251550D03*
X65948450Y-64251550D03*
%TD*%
D15*
%TO.C,H3*%
X128000000Y-31000000D03*
%TD*%
D31*
%TO.C,U7*%
X57050000Y-77545000D03*
D32*
X57400000Y-76570000D03*
X57400000Y-75920000D03*
X57400000Y-75270000D03*
X57400000Y-74620000D03*
X57400000Y-73970000D03*
D31*
X57050000Y-73245000D03*
X53050000Y-73245000D03*
D32*
X52700000Y-73970000D03*
X52700000Y-74620000D03*
X52700000Y-75270000D03*
X52700000Y-75920000D03*
X52700000Y-76570000D03*
D31*
X53050000Y-77545000D03*
D33*
X55050000Y-76350000D03*
X55050000Y-74450000D03*
X55050000Y-73500000D03*
X54100000Y-76350000D03*
X56000000Y-75400000D03*
X56000000Y-74450000D03*
X54100000Y-74450000D03*
X55050000Y-77300000D03*
X56000000Y-76350000D03*
X54100000Y-75400000D03*
X55050000Y-75400000D03*
D34*
X55050000Y-75400000D03*
%TD*%
D35*
%TO.C,U11*%
X51200000Y-113765000D03*
X53740000Y-112495000D03*
X51200000Y-111225000D03*
X53740000Y-109955000D03*
X51200000Y-108685000D03*
X53740000Y-107415000D03*
X51200000Y-106145000D03*
X53740000Y-104875000D03*
X51200000Y-103605000D03*
X53740000Y-102335000D03*
D36*
X42310000Y-114775000D03*
X40280000Y-114775000D03*
X42310000Y-101325000D03*
X40280000Y-101325000D03*
D37*
X44850000Y-113765000D03*
X44850000Y-102335000D03*
D38*
X47900000Y-100175000D03*
X47900000Y-115925000D03*
%TD*%
D17*
%TO.C,C40*%
X61420950Y-63271550D03*
X61420950Y-64231550D03*
%TD*%
D18*
%TO.C,R37*%
X130200000Y-86190000D03*
X130200000Y-87210000D03*
%TD*%
%TO.C,R32*%
X92000000Y-35990000D03*
X92000000Y-37010000D03*
%TD*%
D25*
%TO.C,C87*%
X75600000Y-73080000D03*
X75600000Y-72120000D03*
%TD*%
D29*
%TO.C,R51*%
X82400000Y-115610000D03*
X82400000Y-114590000D03*
%TD*%
D18*
%TO.C,R31*%
X130300000Y-57290000D03*
X130300000Y-58310000D03*
%TD*%
D39*
%TO.C,C72*%
X74325000Y-115200000D03*
X75875000Y-115200000D03*
%TD*%
D40*
%TO.C,J2*%
X47900006Y-75800001D03*
D41*
X41900006Y-75800001D03*
X44900006Y-80500001D03*
%TD*%
D18*
%TO.C,R47*%
X81400000Y-114590000D03*
X81400000Y-115610000D03*
%TD*%
%TO.C,R27*%
X42800000Y-67390000D03*
X42800000Y-68410000D03*
%TD*%
D42*
%TO.C,J9*%
X44800000Y-121300000D03*
D43*
X47340000Y-121300000D03*
X49880000Y-121300000D03*
X52420000Y-121300000D03*
%TD*%
D44*
%TO.C,U8*%
X71350000Y-31550000D03*
X71350000Y-31050000D03*
X71350000Y-30550000D03*
X71350000Y-30050000D03*
X71350000Y-29550000D03*
X68400000Y-29550000D03*
X68400000Y-30050000D03*
X68400000Y-30550000D03*
X68400000Y-31050000D03*
X68400000Y-31550000D03*
D45*
X70125000Y-32100000D03*
X69625000Y-32100000D03*
X69625000Y-29000000D03*
D46*
X69875000Y-30550000D03*
D45*
X70125000Y-29000000D03*
%TD*%
D47*
%TO.C,U13*%
X58137500Y-93037500D03*
X58637500Y-93037500D03*
X59137500Y-93037500D03*
X59637500Y-93037500D03*
X60137500Y-93037500D03*
X60637500Y-93037500D03*
D48*
X61287500Y-92387500D03*
X61287500Y-91887500D03*
X61287500Y-91387500D03*
X61287500Y-90887500D03*
X61287500Y-90387500D03*
X61287500Y-89887500D03*
D47*
X60637500Y-89237500D03*
X60137500Y-89237500D03*
X59637500Y-89237500D03*
X59137500Y-89237500D03*
X58637500Y-89237500D03*
X58137500Y-89237500D03*
D48*
X57487500Y-89887500D03*
X57487500Y-90387500D03*
X57487500Y-90887500D03*
X57487500Y-91387500D03*
X57487500Y-91887500D03*
X57487500Y-92387500D03*
D49*
X60000000Y-90525000D03*
D50*
X60000000Y-90525000D03*
X58775000Y-90525000D03*
D49*
X58775000Y-90525000D03*
X58775000Y-91750000D03*
D50*
X58775000Y-91750000D03*
D49*
X60000000Y-91750000D03*
D50*
X60000000Y-91750000D03*
%TD*%
D18*
%TO.C,R36*%
X122100000Y-88490000D03*
X122100000Y-89510000D03*
%TD*%
D51*
%TO.C,R3*%
X68720000Y-86325000D03*
X69740000Y-86325000D03*
%TD*%
D11*
%TO.C,C2*%
X71580000Y-86100000D03*
X70620000Y-86100000D03*
%TD*%
D52*
%TO.C,R22*%
X53875000Y-97300000D03*
X55525000Y-97300000D03*
%TD*%
D30*
%TO.C,C76*%
X46465000Y-56150000D03*
X47425000Y-56150000D03*
%TD*%
D53*
%TO.C,J1*%
X44770000Y-55865000D03*
X44770000Y-56365000D03*
X44770000Y-56865000D03*
X44770000Y-57365000D03*
X44770000Y-57865000D03*
X44770000Y-58365000D03*
X44770000Y-58865000D03*
X44770000Y-59365000D03*
X44770000Y-59865000D03*
X44770000Y-60365000D03*
X44770000Y-60865000D03*
X44770000Y-61365000D03*
D54*
X43460000Y-60615000D03*
X43460000Y-61415000D03*
X42760000Y-61015000D03*
X42760000Y-60215000D03*
X43460000Y-59815000D03*
X42760000Y-59415000D03*
X43460000Y-59015000D03*
X43460000Y-58215000D03*
X42760000Y-57815000D03*
X43460000Y-57415000D03*
X42760000Y-57015000D03*
X42760000Y-56215000D03*
X43460000Y-55815000D03*
X43460000Y-56615000D03*
D55*
X42310000Y-62885000D03*
X42310000Y-54345000D03*
X37580000Y-62885000D03*
X37580000Y-54345000D03*
%TD*%
D25*
%TO.C,C91*%
X60237500Y-95367500D03*
X60237500Y-94407500D03*
%TD*%
D51*
%TO.C,R35*%
X114670000Y-43330000D03*
X115690000Y-43330000D03*
%TD*%
D13*
%TO.C,R55*%
X92960000Y-29450000D03*
X91940000Y-29450000D03*
%TD*%
D30*
%TO.C,C47*%
X64988450Y-65201550D03*
X65948450Y-65201550D03*
%TD*%
D17*
%TO.C,C1*%
X72640000Y-30735000D03*
X72640000Y-31695000D03*
%TD*%
D26*
%TO.C,C96*%
X57325000Y-71625000D03*
X55775000Y-71625000D03*
%TD*%
D56*
%TO.C,SW1*%
X58460000Y-122665000D03*
X61000000Y-122665000D03*
X63540000Y-122665000D03*
X63540000Y-115935000D03*
X61000000Y-115935000D03*
X58460000Y-115935000D03*
%TD*%
D57*
%TO.C,U1*%
X70159988Y-110299999D03*
X70159988Y-68299999D03*
D58*
X114559988Y-68299999D03*
X114559988Y-110299999D03*
D59*
X71609988Y-112899999D03*
X71609988Y-107699999D03*
X72109988Y-112899999D03*
X72109988Y-107699999D03*
X72609988Y-112899999D03*
X72609988Y-107699999D03*
X73109988Y-112899999D03*
X73109988Y-107699999D03*
X73609988Y-112899999D03*
X73609988Y-107699999D03*
X74109988Y-112899999D03*
X74109988Y-107699999D03*
X74609988Y-112899999D03*
X74609988Y-107699999D03*
X75109988Y-112899999D03*
X75109988Y-107699999D03*
X75609988Y-112899999D03*
X75609988Y-107699999D03*
X76109988Y-112899999D03*
X76109988Y-107699999D03*
X76609988Y-112899999D03*
X76609988Y-107699999D03*
X77109988Y-112899999D03*
X77109988Y-107699999D03*
X77609988Y-112899999D03*
X77609988Y-107699999D03*
X78109988Y-112899999D03*
X78109988Y-107699999D03*
X78609988Y-112899999D03*
X78609988Y-107699999D03*
X79109988Y-112899999D03*
X79109988Y-107699999D03*
X79609988Y-112899999D03*
X79609988Y-107699999D03*
X80109988Y-112899999D03*
X80109988Y-107699999D03*
X80609988Y-112899999D03*
X80609988Y-107699999D03*
X81109988Y-112899999D03*
X81109988Y-107699999D03*
X81609988Y-112899999D03*
X81609988Y-107699999D03*
X82109988Y-112899999D03*
X82109988Y-107699999D03*
X82609988Y-112899999D03*
X82609988Y-107699999D03*
X83109988Y-112899999D03*
X83109988Y-107699999D03*
X83609988Y-112899999D03*
X83609988Y-107699999D03*
X84109988Y-112899999D03*
X84109988Y-107699999D03*
X84609988Y-112899999D03*
X84609988Y-107699999D03*
X85109988Y-112899999D03*
X85109988Y-107699999D03*
X85609988Y-112899999D03*
X85609988Y-107699999D03*
X86109988Y-112899999D03*
X86109988Y-107699999D03*
X86609988Y-112899999D03*
X86609988Y-107699999D03*
X87109988Y-112899999D03*
X87109988Y-107699999D03*
X87609988Y-112899999D03*
X87609988Y-107699999D03*
X88109988Y-112899999D03*
X88109988Y-107699999D03*
X88609988Y-112899999D03*
X88609988Y-107699999D03*
X89109988Y-112899999D03*
X89109988Y-107699999D03*
X89609988Y-112899999D03*
X89609988Y-107699999D03*
X90109988Y-112899999D03*
X90109988Y-107699999D03*
X90609988Y-112899999D03*
X90609988Y-107699999D03*
X91109988Y-112899999D03*
X91109988Y-107699999D03*
X91609988Y-112899999D03*
X91609988Y-107699999D03*
X92109988Y-112899999D03*
X92109988Y-107699999D03*
X92609988Y-112899999D03*
X92609988Y-107699999D03*
X93109988Y-112899999D03*
X93109988Y-107699999D03*
X93609988Y-112899999D03*
X93609988Y-107699999D03*
X94109988Y-112899999D03*
X94109988Y-107699999D03*
X94609988Y-112899999D03*
X94609988Y-107699999D03*
X95109988Y-112899999D03*
X95109988Y-107699999D03*
X95609988Y-112899999D03*
X95609988Y-107699999D03*
X96109988Y-112899999D03*
X96109988Y-107699999D03*
X96609988Y-112899999D03*
X96609988Y-107699999D03*
X97109988Y-112899999D03*
X97109988Y-107699999D03*
X97609988Y-112899999D03*
X97609988Y-107699999D03*
X98109988Y-112899999D03*
X98109988Y-107699999D03*
X98609988Y-112899999D03*
X98609988Y-107699999D03*
X99109988Y-112899999D03*
X99109988Y-107699999D03*
X99609988Y-112899999D03*
X99609988Y-107699999D03*
X100109988Y-112899999D03*
X100109988Y-107699999D03*
X100609988Y-112899999D03*
X100609988Y-107699999D03*
X101109988Y-112899999D03*
X101109988Y-107699999D03*
X101609988Y-112899999D03*
X101609988Y-107699999D03*
X102109988Y-112899999D03*
X102109988Y-107699999D03*
X102609988Y-112899999D03*
X102609988Y-107699999D03*
X103109988Y-112899999D03*
X103109988Y-107699999D03*
X103609988Y-112899999D03*
X103609988Y-107699999D03*
X104109988Y-112899999D03*
X104109988Y-107699999D03*
X104609988Y-112899999D03*
X104609988Y-107699999D03*
X105109988Y-112899999D03*
X105109988Y-107699999D03*
X105609988Y-112899999D03*
X105609988Y-107699999D03*
X106109988Y-112899999D03*
X106109988Y-107699999D03*
X106609988Y-112899999D03*
X106609988Y-107699999D03*
X107109988Y-112899999D03*
X107109988Y-107699999D03*
X107609988Y-112899999D03*
X107609988Y-107699999D03*
X108109988Y-112899999D03*
X108109988Y-107699999D03*
X108609988Y-112899999D03*
X108609988Y-107699999D03*
X109109988Y-112899999D03*
X109109988Y-107699999D03*
X109609988Y-112899999D03*
X109609988Y-107699999D03*
X110109988Y-112899999D03*
X110109988Y-107699999D03*
X110609988Y-112899999D03*
X110609988Y-107699999D03*
X111109988Y-112899999D03*
X111109988Y-107699999D03*
X111609988Y-112899999D03*
X111609988Y-107699999D03*
X112109988Y-112899999D03*
X112109988Y-107699999D03*
X112609988Y-112899999D03*
X112609988Y-107699999D03*
X113109988Y-112899999D03*
X113109988Y-107699999D03*
D60*
X68409988Y-110299999D03*
X116309988Y-110299999D03*
D59*
X71609988Y-70899999D03*
X71609988Y-65699999D03*
X72109988Y-70899999D03*
X72109988Y-65699999D03*
X72609988Y-70899999D03*
X72609988Y-65699999D03*
X73109988Y-70899999D03*
X73109988Y-65699999D03*
X73609988Y-70899999D03*
X73609988Y-65699999D03*
X74109988Y-70899999D03*
X74109988Y-65699999D03*
X74609988Y-70899999D03*
X74609988Y-65699999D03*
X75109988Y-70899999D03*
X75109988Y-65699999D03*
X75609988Y-70899999D03*
X75609988Y-65699999D03*
X76109988Y-70899999D03*
X76109988Y-65699999D03*
X76609988Y-70899999D03*
X76609988Y-65699999D03*
X77109988Y-70899999D03*
X77109988Y-65699999D03*
X77609988Y-70899999D03*
X77609988Y-65699999D03*
X78109988Y-70899999D03*
X78109988Y-65699999D03*
X78609988Y-70899999D03*
X78609988Y-65699999D03*
X79109988Y-70899999D03*
X79109988Y-65699999D03*
X79609988Y-70899999D03*
X79609988Y-65699999D03*
X80109988Y-70899999D03*
X80109988Y-65699999D03*
X80609988Y-70899999D03*
X80609988Y-65699999D03*
X81109988Y-70899999D03*
X81109988Y-65699999D03*
X81609988Y-70899999D03*
X81609988Y-65699999D03*
X82109988Y-70899999D03*
X82109988Y-65699999D03*
X82609988Y-70899999D03*
X82609988Y-65699999D03*
X83109988Y-70899999D03*
X83109988Y-65699999D03*
X83609988Y-70899999D03*
X83609988Y-65699999D03*
X84109988Y-70899999D03*
X84109988Y-65699999D03*
X84609988Y-70899999D03*
X84609988Y-65699999D03*
X85109988Y-70899999D03*
X85109988Y-65699999D03*
X85609988Y-70899999D03*
X85609988Y-65699999D03*
X86109988Y-70899999D03*
X86109988Y-65699999D03*
X86609988Y-70899999D03*
X86609988Y-65699999D03*
X87109988Y-70899999D03*
X87109988Y-65699999D03*
X87609988Y-70899999D03*
X87609988Y-65699999D03*
X88109988Y-70899999D03*
X88109988Y-65699999D03*
X88609988Y-70899999D03*
X88609988Y-65699999D03*
X89109988Y-70899999D03*
X89109988Y-65699999D03*
X89609988Y-70899999D03*
X89609988Y-65699999D03*
X90109988Y-70899999D03*
X90109988Y-65699999D03*
X90609988Y-70899999D03*
X90609988Y-65699999D03*
X91109988Y-70899999D03*
X91109988Y-65699999D03*
X91609988Y-70899999D03*
X91609988Y-65699999D03*
X92109988Y-70899999D03*
X92109988Y-65699999D03*
X92609988Y-70899999D03*
X92609988Y-65699999D03*
X93109988Y-70899999D03*
X93109988Y-65699999D03*
X93609988Y-70899999D03*
X93609988Y-65699999D03*
X94109988Y-70899999D03*
X94109988Y-65699999D03*
X94609988Y-70899999D03*
X94609988Y-65699999D03*
X95109988Y-70899999D03*
X95109988Y-65699999D03*
X95609988Y-70899999D03*
X95609988Y-65699999D03*
X96109988Y-70899999D03*
X96109988Y-65699999D03*
X96609988Y-70899999D03*
X96609988Y-65699999D03*
X97109988Y-70899999D03*
X97109988Y-65699999D03*
X97609988Y-70899999D03*
X97609988Y-65699999D03*
X98109988Y-70899999D03*
X98109988Y-65699999D03*
X98609988Y-70899999D03*
X98609988Y-65699999D03*
X99109988Y-70899999D03*
X99109988Y-65699999D03*
X99609988Y-70899999D03*
X99609988Y-65699999D03*
X100109988Y-70899999D03*
X100109988Y-65699999D03*
X100609988Y-70899999D03*
X100609988Y-65699999D03*
X101109988Y-70899999D03*
X101109988Y-65699999D03*
X101609988Y-70899999D03*
X101609988Y-65699999D03*
X102109988Y-70899999D03*
X102109988Y-65699999D03*
X102609988Y-70899999D03*
X102609988Y-65699999D03*
X103109988Y-70899999D03*
X103109988Y-65699999D03*
X103609988Y-70899999D03*
X103609988Y-65699999D03*
X104109988Y-70899999D03*
X104109988Y-65699999D03*
X104609988Y-70899999D03*
X104609988Y-65699999D03*
X105109988Y-70899999D03*
X105109988Y-65699999D03*
X105609988Y-70899999D03*
X105609988Y-65699999D03*
X106109988Y-70899999D03*
X106109988Y-65699999D03*
X106609988Y-70899999D03*
X106609988Y-65699999D03*
X107109988Y-70899999D03*
X107109988Y-65699999D03*
X107609988Y-70899999D03*
X107609988Y-65699999D03*
X108109988Y-70899999D03*
X108109988Y-65699999D03*
X108609988Y-70899999D03*
X108609988Y-65699999D03*
X109109988Y-70899999D03*
X109109988Y-65699999D03*
X109609988Y-70899999D03*
X109609988Y-65699999D03*
X110109988Y-70899999D03*
X110109988Y-65699999D03*
X110609988Y-70899999D03*
X110609988Y-65699999D03*
X111109988Y-70899999D03*
X111109988Y-65699999D03*
X111609988Y-70899999D03*
X111609988Y-65699999D03*
X112109988Y-70899999D03*
X112109988Y-65699999D03*
X112609988Y-70899999D03*
X112609988Y-65699999D03*
X113109988Y-70899999D03*
X113109988Y-65699999D03*
D60*
X68409988Y-68299999D03*
X116309988Y-68299999D03*
D61*
X68859988Y-102799999D03*
X115859988Y-102799999D03*
X68859988Y-75799999D03*
X115859988Y-77799999D03*
%TD*%
D51*
%TO.C,R16*%
X52710000Y-36250000D03*
X53730000Y-36250000D03*
%TD*%
D62*
%TO.C,U16*%
X111050000Y-56300000D03*
X105550000Y-55300000D03*
X111050000Y-54300000D03*
X105550000Y-53300000D03*
X111050000Y-52300000D03*
X105550000Y-51300000D03*
X111050000Y-50300000D03*
X105550000Y-49300000D03*
X111050000Y-48300000D03*
X105550000Y-47300000D03*
X111050000Y-46300000D03*
X105550000Y-45300000D03*
X111050000Y-44300000D03*
X105550000Y-43300000D03*
X111050000Y-42300000D03*
%TD*%
D13*
%TO.C,R45*%
X83780000Y-35840000D03*
X82760000Y-35840000D03*
%TD*%
D18*
%TO.C,R34*%
X125300000Y-43190000D03*
X125300000Y-44210000D03*
%TD*%
D63*
%TO.C,Y1*%
X61210000Y-48530000D03*
X62610000Y-48530000D03*
X62610000Y-47430000D03*
X61210000Y-47430000D03*
%TD*%
D29*
%TO.C,R50*%
X80400000Y-115610000D03*
X80400000Y-114590000D03*
%TD*%
D18*
%TO.C,R42*%
X71400000Y-49990000D03*
X71400000Y-51010000D03*
%TD*%
D30*
%TO.C,C46*%
X64988450Y-63301550D03*
X65948450Y-63301550D03*
%TD*%
D15*
%TO.C,H4*%
X38000000Y-31000000D03*
%TD*%
D10*
%TO.C,D2*%
X80785000Y-36840000D03*
X81755000Y-36840000D03*
%TD*%
D64*
%TO.C,FB1*%
X47200000Y-31437500D03*
X47200000Y-33562500D03*
%TD*%
D15*
%TO.C,H1*%
X128000000Y-120000000D03*
%TD*%
D29*
%TO.C,R56*%
X62090000Y-38310000D03*
X62090000Y-37290000D03*
%TD*%
D13*
%TO.C,R54*%
X69260000Y-88750000D03*
X68240000Y-88750000D03*
%TD*%
D18*
%TO.C,R41*%
X80100000Y-41190000D03*
X80100000Y-42210000D03*
%TD*%
D13*
%TO.C,R15*%
X53680000Y-35250000D03*
X52660000Y-35250000D03*
%TD*%
D29*
%TO.C,R1*%
X67130000Y-29900000D03*
X67130000Y-28880000D03*
%TD*%
D10*
%TO.C,D7*%
X59015000Y-83450000D03*
X59985000Y-83450000D03*
%TD*%
D65*
%TO.C,C7*%
X63630000Y-80275000D03*
X63630000Y-81825000D03*
%TD*%
D66*
%TO.C,U5*%
X45489988Y-38299993D03*
X45489988Y-40799993D03*
X45489988Y-42799993D03*
X45489988Y-45299993D03*
X46989988Y-45799993D03*
X46989988Y-43799993D03*
X46989988Y-41799993D03*
X46989988Y-39799993D03*
X46989988Y-37799993D03*
X48689988Y-38299993D03*
X48689988Y-40799993D03*
X48689988Y-42799993D03*
X48689988Y-45299993D03*
X50189988Y-45799993D03*
X50189988Y-43799993D03*
X50189988Y-41799993D03*
X50189988Y-39799993D03*
X50189988Y-37799993D03*
D67*
X43489988Y-48369993D03*
X49169988Y-35229993D03*
X49169988Y-48369993D03*
X43489988Y-35229993D03*
%TD*%
D62*
%TO.C,U15*%
X129750000Y-108500000D03*
X124250000Y-107500000D03*
X129750000Y-106500000D03*
X124250000Y-105500000D03*
X129750000Y-104500000D03*
X124250000Y-103500000D03*
X129750000Y-102500000D03*
X124250000Y-101500000D03*
X129750000Y-100500000D03*
X124250000Y-99500000D03*
X129750000Y-98500000D03*
X124250000Y-97500000D03*
X129750000Y-96500000D03*
X124250000Y-95500000D03*
X129750000Y-94500000D03*
X124250000Y-93500000D03*
X129750000Y-92500000D03*
X124250000Y-91500000D03*
X129750000Y-90500000D03*
X124250000Y-89500000D03*
X129750000Y-88500000D03*
X124250000Y-87500000D03*
%TD*%
D11*
%TO.C,C99*%
X67680000Y-92300000D03*
X66720000Y-92300000D03*
%TD*%
D68*
%TO.C,U9*%
X70100000Y-80700000D03*
D69*
X69650000Y-83125000D03*
D70*
X70975000Y-79100000D03*
X70325000Y-79100000D03*
X69675000Y-79100000D03*
X69025000Y-79100000D03*
D71*
X68100000Y-79750000D03*
X68100000Y-80375000D03*
X68100000Y-81025000D03*
X68100000Y-81675000D03*
X68100000Y-82325000D03*
X68100000Y-82975000D03*
X68100000Y-83625000D03*
X68100000Y-84250000D03*
D70*
X69025000Y-84900000D03*
X69675000Y-84900000D03*
X70325000Y-84900000D03*
X70975000Y-84900000D03*
D71*
X71900000Y-84250000D03*
X71900000Y-83625000D03*
X71900000Y-82975000D03*
X71900000Y-82325000D03*
X71900000Y-81675000D03*
X71900000Y-81025000D03*
X71900000Y-80375000D03*
D72*
X71900000Y-79750000D03*
D73*
X70250000Y-83200000D03*
X69950000Y-80630000D03*
X69100000Y-83950000D03*
X70250000Y-80050000D03*
X70250000Y-82450000D03*
X70250000Y-81210000D03*
X69660000Y-83580000D03*
X69660000Y-82830000D03*
X69100000Y-83200000D03*
X69100000Y-82450000D03*
X70250000Y-83950000D03*
%TD*%
D74*
%TO.C,U6*%
X45550000Y-68115000D03*
X44850000Y-68115000D03*
D75*
X44050000Y-68040000D03*
X44050000Y-68540000D03*
X44050000Y-69040000D03*
X44050000Y-69540000D03*
D74*
X44850000Y-69465000D03*
X45550000Y-69465000D03*
D75*
X46350000Y-69540000D03*
X46350000Y-69040000D03*
X46350000Y-68540000D03*
X46350000Y-68040000D03*
%TD*%
D30*
%TO.C,C74*%
X46465000Y-57100000D03*
X47425000Y-57100000D03*
%TD*%
D76*
%TO.C,C94*%
X51300000Y-79600000D03*
X54250000Y-79600000D03*
%TD*%
D18*
%TO.C,R18*%
X79400000Y-114590000D03*
X79400000Y-115610000D03*
%TD*%
D77*
%TO.C,J10*%
X120502443Y-122775000D03*
D78*
X120502443Y-112625000D03*
%TD*%
D29*
%TO.C,R28*%
X41800000Y-68410000D03*
X41800000Y-67390000D03*
%TD*%
D51*
%TO.C,R12*%
X58890000Y-36900000D03*
X59910000Y-36900000D03*
%TD*%
D79*
%TO.C,U2*%
X58320950Y-51371550D03*
X59120950Y-51371550D03*
X59920950Y-51371550D03*
X60720950Y-51371550D03*
X61520950Y-51371550D03*
X62320950Y-51371550D03*
X63120950Y-51371550D03*
X63920950Y-51371550D03*
X64720950Y-51371550D03*
X65520950Y-51371550D03*
X66320950Y-51371550D03*
X67120950Y-51371550D03*
X57520950Y-52171550D03*
X58320950Y-52171550D03*
X59120950Y-52171550D03*
X59920950Y-52171550D03*
X60720950Y-52171550D03*
X61520950Y-52171550D03*
X62320950Y-52171550D03*
X63120950Y-52171550D03*
X63920950Y-52171550D03*
X64720950Y-52171550D03*
X65520950Y-52171550D03*
X66320950Y-52171550D03*
X67120950Y-52171550D03*
X67920950Y-52171550D03*
X57520950Y-52971550D03*
X58320950Y-52971550D03*
X59120950Y-52971550D03*
X59920950Y-52971550D03*
X60720950Y-52971550D03*
X61520950Y-52971550D03*
X62320950Y-52971550D03*
X63120950Y-52971550D03*
X63920950Y-52971550D03*
X64720950Y-52971550D03*
X65520950Y-52971550D03*
X66320950Y-52971550D03*
X67120950Y-52971550D03*
X67920950Y-52971550D03*
X57520950Y-53771550D03*
X58320950Y-53771550D03*
X59120950Y-53771550D03*
X59920950Y-53771550D03*
X60720950Y-53771550D03*
X61520950Y-53771550D03*
X62320950Y-53771550D03*
X63120950Y-53771550D03*
X63920950Y-53771550D03*
X64720950Y-53771550D03*
X65520950Y-53771550D03*
X66320950Y-53771550D03*
X67120950Y-53771550D03*
X67920950Y-53771550D03*
X57520950Y-54571550D03*
X58320950Y-54571550D03*
X59120950Y-54571550D03*
X59920950Y-54571550D03*
X60720950Y-54571550D03*
X61520950Y-54571550D03*
X62320950Y-54571550D03*
X63120950Y-54571550D03*
X63920950Y-54571550D03*
X64720950Y-54571550D03*
X65520950Y-54571550D03*
X66320950Y-54571550D03*
X67120950Y-54571550D03*
X67920950Y-54571550D03*
X57520950Y-55371550D03*
X58320950Y-55371550D03*
X59120950Y-55371550D03*
X59920950Y-55371550D03*
X60720950Y-55371550D03*
X61520950Y-55371550D03*
X62320950Y-55371550D03*
X63120950Y-55371550D03*
X63920950Y-55371550D03*
X64720950Y-55371550D03*
X65520950Y-55371550D03*
X66320950Y-55371550D03*
X67120950Y-55371550D03*
X67920950Y-55371550D03*
X57520950Y-56171550D03*
X58320950Y-56171550D03*
X59120950Y-56171550D03*
X59920950Y-56171550D03*
X60720950Y-56171550D03*
X61520950Y-56171550D03*
X62320950Y-56171550D03*
X63120950Y-56171550D03*
X63920950Y-56171550D03*
X64720950Y-56171550D03*
X65520950Y-56171550D03*
X66320950Y-56171550D03*
X67120950Y-56171550D03*
X67920950Y-56171550D03*
X57520950Y-56971550D03*
X58320950Y-56971550D03*
X59120950Y-56971550D03*
X59920950Y-56971550D03*
X60720950Y-56971550D03*
X61520950Y-56971550D03*
X62320950Y-56971550D03*
X63120950Y-56971550D03*
X63920950Y-56971550D03*
X64720950Y-56971550D03*
X65520950Y-56971550D03*
X66320950Y-56971550D03*
X67120950Y-56971550D03*
X67920950Y-56971550D03*
X57520950Y-57771550D03*
X58320950Y-57771550D03*
X59120950Y-57771550D03*
X59920950Y-57771550D03*
X60720950Y-57771550D03*
X61520950Y-57771550D03*
X62320950Y-57771550D03*
X63120950Y-57771550D03*
X63920950Y-57771550D03*
X64720950Y-57771550D03*
X65520950Y-57771550D03*
X66320950Y-57771550D03*
X67120950Y-57771550D03*
X67920950Y-57771550D03*
X57520950Y-58571550D03*
X58320950Y-58571550D03*
X59120950Y-58571550D03*
X59920950Y-58571550D03*
X60720950Y-58571550D03*
X61520950Y-58571550D03*
X62320950Y-58571550D03*
X63120950Y-58571550D03*
X63920950Y-58571550D03*
X64720950Y-58571550D03*
X65520950Y-58571550D03*
X66320950Y-58571550D03*
X67120950Y-58571550D03*
X67920950Y-58571550D03*
X57520950Y-59371550D03*
X58320950Y-59371550D03*
X59120950Y-59371550D03*
X59920950Y-59371550D03*
X60720950Y-59371550D03*
X61520950Y-59371550D03*
X62320950Y-59371550D03*
X63120950Y-59371550D03*
X63920950Y-59371550D03*
X64720950Y-59371550D03*
X65520950Y-59371550D03*
X66320950Y-59371550D03*
X67120950Y-59371550D03*
X67920950Y-59371550D03*
X57520950Y-60171550D03*
X58320950Y-60171550D03*
X59120950Y-60171550D03*
X59920950Y-60171550D03*
X60720950Y-60171550D03*
X61520950Y-60171550D03*
X62320950Y-60171550D03*
X63120950Y-60171550D03*
X63920950Y-60171550D03*
X64720950Y-60171550D03*
X65520950Y-60171550D03*
X66320950Y-60171550D03*
X67120950Y-60171550D03*
X67920950Y-60171550D03*
X57520950Y-60971550D03*
X58320950Y-60971550D03*
X59120950Y-60971550D03*
X59920950Y-60971550D03*
X60720950Y-60971550D03*
X61520950Y-60971550D03*
X62320950Y-60971550D03*
X63120950Y-60971550D03*
X63920950Y-60971550D03*
X64720950Y-60971550D03*
X65520950Y-60971550D03*
X66320950Y-60971550D03*
X67120950Y-60971550D03*
X67920950Y-60971550D03*
X58320950Y-61771550D03*
X59120950Y-61771550D03*
X59920950Y-61771550D03*
X60720950Y-61771550D03*
X61520950Y-61771550D03*
X62320950Y-61771550D03*
X63120950Y-61771550D03*
X63920950Y-61771550D03*
X64720950Y-61771550D03*
X65520950Y-61771550D03*
X66320950Y-61771550D03*
X67120950Y-61771550D03*
%TD*%
D18*
%TO.C,R26*%
X41800000Y-69290000D03*
X41800000Y-70310000D03*
%TD*%
D10*
%TO.C,D8*%
X90032500Y-29450000D03*
X91002500Y-29450000D03*
%TD*%
D25*
%TO.C,C102*%
X35400000Y-49880000D03*
X35400000Y-48920000D03*
%TD*%
D13*
%TO.C,R11*%
X70860000Y-35680000D03*
X69840000Y-35680000D03*
%TD*%
%TO.C,R53*%
X69260000Y-89700000D03*
X68240000Y-89700000D03*
%TD*%
D17*
%TO.C,C64*%
X64210000Y-47400000D03*
X64210000Y-48360000D03*
%TD*%
D25*
%TO.C,C98*%
X47600000Y-68370000D03*
X47600000Y-67410000D03*
%TD*%
D80*
%TO.C,J8*%
X84300000Y-122675000D03*
X85300000Y-122675000D03*
X86300000Y-122675000D03*
X87300000Y-122675000D03*
D81*
X83000000Y-120150000D03*
X88600000Y-120150000D03*
%TD*%
D30*
%TO.C,C77*%
X53020000Y-64940000D03*
X53980000Y-64940000D03*
%TD*%
D13*
%TO.C,R19*%
X64530000Y-46160000D03*
X63510000Y-46160000D03*
%TD*%
D65*
%TO.C,C5*%
X66585000Y-80270000D03*
X66585000Y-81820000D03*
%TD*%
D39*
%TO.C,C73*%
X73925000Y-105500000D03*
X75475000Y-105500000D03*
%TD*%
D25*
%TO.C,C8*%
X74330000Y-84605000D03*
X74330000Y-83645000D03*
%TD*%
D62*
%TO.C,U3*%
X129750000Y-79500000D03*
X124250000Y-78500000D03*
X129750000Y-77500000D03*
X124250000Y-76500000D03*
X129750000Y-75500000D03*
X124250000Y-74500000D03*
X129750000Y-73500000D03*
X124250000Y-72500000D03*
X129750000Y-71500000D03*
X124250000Y-70500000D03*
X129750000Y-69500000D03*
X124250000Y-68500000D03*
X129750000Y-67500000D03*
X124250000Y-66500000D03*
X129750000Y-65500000D03*
X124250000Y-64500000D03*
X129750000Y-63500000D03*
X124250000Y-62500000D03*
X129750000Y-61500000D03*
X124250000Y-60500000D03*
X129750000Y-59500000D03*
X124250000Y-58500000D03*
%TD*%
D13*
%TO.C,R57*%
X62320000Y-49780000D03*
X61300000Y-49780000D03*
%TD*%
D82*
%TO.C,C71*%
X59112500Y-30750000D03*
X64187500Y-30750000D03*
%TD*%
D62*
%TO.C,U14*%
X122950000Y-56300000D03*
X117450000Y-55300000D03*
X122950000Y-54300000D03*
X117450000Y-53300000D03*
X122950000Y-52300000D03*
X117450000Y-51300000D03*
X122950000Y-50300000D03*
X117450000Y-49300000D03*
X122950000Y-48300000D03*
X117450000Y-47300000D03*
X122950000Y-46300000D03*
X117450000Y-45300000D03*
X122950000Y-44300000D03*
X117450000Y-43300000D03*
X122950000Y-42300000D03*
%TD*%
D18*
%TO.C,R17*%
X74750000Y-102490000D03*
X74750000Y-103510000D03*
%TD*%
%TO.C,R58*%
X36400000Y-48890000D03*
X36400000Y-49910000D03*
%TD*%
D83*
%TO.C,U10*%
X64630000Y-39547500D03*
X63360000Y-39547500D03*
X62090000Y-39547500D03*
X60820000Y-39547500D03*
X60820000Y-44872500D03*
X62090000Y-44872500D03*
X63360000Y-44872500D03*
X64630000Y-44872500D03*
D84*
X62725000Y-42210000D03*
%TD*%
D11*
%TO.C,C67*%
X53730000Y-37200000D03*
X52770000Y-37200000D03*
%TD*%
D30*
%TO.C,C75*%
X53020000Y-65890000D03*
X53980000Y-65890000D03*
%TD*%
D62*
%TO.C,U17*%
X86350000Y-56400000D03*
X80850000Y-55400000D03*
X86350000Y-54400000D03*
X80850000Y-53400000D03*
X86350000Y-52400000D03*
X80850000Y-51400000D03*
X86350000Y-50400000D03*
X80850000Y-49400000D03*
X86350000Y-48400000D03*
X80850000Y-47400000D03*
X86350000Y-46400000D03*
X80850000Y-45400000D03*
X86350000Y-44400000D03*
X80850000Y-43400000D03*
X86350000Y-42400000D03*
%TD*%
D18*
%TO.C,R39*%
X88300000Y-43290000D03*
X88300000Y-44310000D03*
%TD*%
D17*
%TO.C,C65*%
X65470000Y-46000000D03*
X65470000Y-46960000D03*
%TD*%
D25*
%TO.C,C85*%
X78625000Y-44605000D03*
X78625000Y-43645000D03*
%TD*%
D39*
%TO.C,C95*%
X52775000Y-70125000D03*
X54325000Y-70125000D03*
%TD*%
%TO.C,C97*%
X52775000Y-71625000D03*
X54325000Y-71625000D03*
%TD*%
D17*
%TO.C,C68*%
X48550000Y-32270000D03*
X48550000Y-33230000D03*
%TD*%
D10*
%TO.C,D1*%
X80785000Y-35840000D03*
X81755000Y-35840000D03*
%TD*%
D13*
%TO.C,R8*%
X58860000Y-37850000D03*
X57840000Y-37850000D03*
%TD*%
D51*
%TO.C,R30*%
X121390000Y-60800000D03*
X122410000Y-60800000D03*
%TD*%
D52*
%TO.C,R21*%
X53875000Y-98800000D03*
X55525000Y-98800000D03*
%TD*%
D18*
%TO.C,R33*%
X101800000Y-34990000D03*
X101800000Y-36010000D03*
%TD*%
D17*
%TO.C,C78*%
X56450000Y-107370000D03*
X56450000Y-108330000D03*
%TD*%
D18*
%TO.C,R24*%
X51500000Y-73915000D03*
X51500000Y-74935000D03*
%TD*%
D80*
%TO.C,J7*%
X76400000Y-122675000D03*
X77400000Y-122675000D03*
X78400000Y-122675000D03*
X79400000Y-122675000D03*
D81*
X80700000Y-120150000D03*
X75100000Y-120150000D03*
%TD*%
D11*
%TO.C,C100*%
X70280000Y-92300000D03*
X69320000Y-92300000D03*
%TD*%
D29*
%TO.C,R25*%
X42800000Y-70310000D03*
X42800000Y-69290000D03*
%TD*%
D17*
%TO.C,C34*%
X70600000Y-53020000D03*
X70600000Y-53980000D03*
%TD*%
D25*
%TO.C,C103*%
X36400000Y-65880000D03*
X36400000Y-64920000D03*
%TD*%
D85*
%TO.C,U18*%
X66950000Y-93350000D03*
X66950000Y-93850000D03*
X66950000Y-94350000D03*
X66950000Y-94850000D03*
X70050000Y-94850000D03*
X70050000Y-94350000D03*
X70050000Y-93850000D03*
X70050000Y-93350000D03*
%TD*%
D65*
%TO.C,C6*%
X65105000Y-80275000D03*
X65105000Y-81825000D03*
%TD*%
D82*
%TO.C,C69*%
X50162500Y-30750000D03*
X55237500Y-30750000D03*
%TD*%
D18*
%TO.C,R48*%
X83400000Y-114590000D03*
X83400000Y-115610000D03*
%TD*%
D13*
%TO.C,R46*%
X83780000Y-36840000D03*
X82760000Y-36840000D03*
%TD*%
D17*
%TO.C,C4*%
X67030000Y-85410000D03*
X67030000Y-86370000D03*
%TD*%
D51*
%TO.C,R9*%
X70790000Y-34680000D03*
X71810000Y-34680000D03*
%TD*%
D18*
%TO.C,R29*%
X47600000Y-69280000D03*
X47600000Y-70300000D03*
%TD*%
D80*
%TO.C,J5*%
X68500000Y-122675000D03*
X69500000Y-122675000D03*
X70500000Y-122675000D03*
X71500000Y-122675000D03*
D81*
X67200000Y-120150000D03*
X72800000Y-120150000D03*
%TD*%
D64*
%TO.C,FB2*%
X45450000Y-31437500D03*
X45450000Y-33562500D03*
%TD*%
D62*
%TO.C,U4*%
X99650000Y-56000000D03*
X94150000Y-55000000D03*
X99650000Y-54000000D03*
X94150000Y-53000000D03*
X99650000Y-52000000D03*
X94150000Y-51000000D03*
X99650000Y-50000000D03*
X94150000Y-49000000D03*
X99650000Y-48000000D03*
X94150000Y-47000000D03*
X99650000Y-46000000D03*
X94150000Y-45000000D03*
X99650000Y-44000000D03*
X94150000Y-43000000D03*
X99650000Y-42000000D03*
X94150000Y-41000000D03*
X99650000Y-40000000D03*
X94150000Y-39000000D03*
X99650000Y-38000000D03*
X94150000Y-37000000D03*
X99650000Y-36000000D03*
X94150000Y-35000000D03*
%TD*%
D27*
%TO.C,J4*%
X113625000Y-120075000D03*
D28*
X113625000Y-122615000D03*
X111085000Y-120075000D03*
X111085000Y-122615000D03*
X108545000Y-120075000D03*
X108545000Y-122615000D03*
%TD*%
D18*
%TO.C,R59*%
X35400000Y-64890000D03*
X35400000Y-65910000D03*
%TD*%
M02*
