G04 #@! TF.GenerationSoftware,KiCad,Pcbnew,6.0.0-unknown-772dff7~100~ubuntu18.04.1*
G04 #@! TF.CreationDate,2019-07-09T14:46:37+08:00*
G04 #@! TF.ProjectId,backpack,6261636b-7061-4636-9b2e-6b696361645f,rev?*
G04 #@! TF.SameCoordinates,Original*
G04 #@! TF.FileFunction,Paste,Top*
G04 #@! TF.FilePolarity,Positive*
%FSLAX46Y46*%
G04 Gerber Fmt 4.6, Leading zero omitted, Abs format (unit mm)*
G04 Created by KiCad (PCBNEW 6.0.0-unknown-772dff7~100~ubuntu18.04.1) date 2019-07-09 14:46:37*
%MOMM*%
%LPD*%
G04 APERTURE LIST*
%ADD10C,0.100000*%
%ADD11C,0.875000*%
%ADD12R,0.450000X1.300000*%
%ADD13R,1.200000X0.400000*%
%ADD14R,0.300000X0.800000*%
%ADD15R,1.100000X0.400000*%
%ADD16R,0.450000X1.500000*%
%ADD17C,0.600000*%
G04 APERTURE END LIST*
D10*
G36*
X186014962Y-105041651D02*
G01*
X186085930Y-105089070D01*
X186133349Y-105160038D01*
X186150000Y-105243750D01*
X186150000Y-105756250D01*
X186133349Y-105839962D01*
X186085930Y-105910930D01*
X186014962Y-105958349D01*
X185931250Y-105975000D01*
X185493750Y-105975000D01*
X185410038Y-105958349D01*
X185339070Y-105910930D01*
X185291651Y-105839962D01*
X185275000Y-105756250D01*
X185275000Y-105243750D01*
X185291651Y-105160038D01*
X185339070Y-105089070D01*
X185410038Y-105041651D01*
X185493750Y-105025000D01*
X185931250Y-105025000D01*
X186014962Y-105041651D01*
X186014962Y-105041651D01*
G37*
D11*
X185712500Y-105500000D03*
D10*
G36*
X187589962Y-105041651D02*
G01*
X187660930Y-105089070D01*
X187708349Y-105160038D01*
X187725000Y-105243750D01*
X187725000Y-105756250D01*
X187708349Y-105839962D01*
X187660930Y-105910930D01*
X187589962Y-105958349D01*
X187506250Y-105975000D01*
X187068750Y-105975000D01*
X186985038Y-105958349D01*
X186914070Y-105910930D01*
X186866651Y-105839962D01*
X186850000Y-105756250D01*
X186850000Y-105243750D01*
X186866651Y-105160038D01*
X186914070Y-105089070D01*
X186985038Y-105041651D01*
X187068750Y-105025000D01*
X187506250Y-105025000D01*
X187589962Y-105041651D01*
X187589962Y-105041651D01*
G37*
D11*
X187287500Y-105500000D03*
D10*
G36*
X182839962Y-105866651D02*
G01*
X182910930Y-105914070D01*
X182958349Y-105985038D01*
X182975000Y-106068750D01*
X182975000Y-106506250D01*
X182958349Y-106589962D01*
X182910930Y-106660930D01*
X182839962Y-106708349D01*
X182756250Y-106725000D01*
X182243750Y-106725000D01*
X182160038Y-106708349D01*
X182089070Y-106660930D01*
X182041651Y-106589962D01*
X182025000Y-106506250D01*
X182025000Y-106068750D01*
X182041651Y-105985038D01*
X182089070Y-105914070D01*
X182160038Y-105866651D01*
X182243750Y-105850000D01*
X182756250Y-105850000D01*
X182839962Y-105866651D01*
X182839962Y-105866651D01*
G37*
D11*
X182500000Y-106287500D03*
D10*
G36*
X182839962Y-104291651D02*
G01*
X182910930Y-104339070D01*
X182958349Y-104410038D01*
X182975000Y-104493750D01*
X182975000Y-104931250D01*
X182958349Y-105014962D01*
X182910930Y-105085930D01*
X182839962Y-105133349D01*
X182756250Y-105150000D01*
X182243750Y-105150000D01*
X182160038Y-105133349D01*
X182089070Y-105085930D01*
X182041651Y-105014962D01*
X182025000Y-104931250D01*
X182025000Y-104493750D01*
X182041651Y-104410038D01*
X182089070Y-104339070D01*
X182160038Y-104291651D01*
X182243750Y-104275000D01*
X182756250Y-104275000D01*
X182839962Y-104291651D01*
X182839962Y-104291651D01*
G37*
D11*
X182500000Y-104712500D03*
D10*
G36*
X121839962Y-114791651D02*
G01*
X121910930Y-114839070D01*
X121958349Y-114910038D01*
X121975000Y-114993750D01*
X121975000Y-115431250D01*
X121958349Y-115514962D01*
X121910930Y-115585930D01*
X121839962Y-115633349D01*
X121756250Y-115650000D01*
X121243750Y-115650000D01*
X121160038Y-115633349D01*
X121089070Y-115585930D01*
X121041651Y-115514962D01*
X121025000Y-115431250D01*
X121025000Y-114993750D01*
X121041651Y-114910038D01*
X121089070Y-114839070D01*
X121160038Y-114791651D01*
X121243750Y-114775000D01*
X121756250Y-114775000D01*
X121839962Y-114791651D01*
X121839962Y-114791651D01*
G37*
D11*
X121500000Y-115212500D03*
D10*
G36*
X121839962Y-116366651D02*
G01*
X121910930Y-116414070D01*
X121958349Y-116485038D01*
X121975000Y-116568750D01*
X121975000Y-117006250D01*
X121958349Y-117089962D01*
X121910930Y-117160930D01*
X121839962Y-117208349D01*
X121756250Y-117225000D01*
X121243750Y-117225000D01*
X121160038Y-117208349D01*
X121089070Y-117160930D01*
X121041651Y-117089962D01*
X121025000Y-117006250D01*
X121025000Y-116568750D01*
X121041651Y-116485038D01*
X121089070Y-116414070D01*
X121160038Y-116366651D01*
X121243750Y-116350000D01*
X121756250Y-116350000D01*
X121839962Y-116366651D01*
X121839962Y-116366651D01*
G37*
D11*
X121500000Y-116787500D03*
D10*
G36*
X126339962Y-114791651D02*
G01*
X126410930Y-114839070D01*
X126458349Y-114910038D01*
X126475000Y-114993750D01*
X126475000Y-115431250D01*
X126458349Y-115514962D01*
X126410930Y-115585930D01*
X126339962Y-115633349D01*
X126256250Y-115650000D01*
X125743750Y-115650000D01*
X125660038Y-115633349D01*
X125589070Y-115585930D01*
X125541651Y-115514962D01*
X125525000Y-115431250D01*
X125525000Y-114993750D01*
X125541651Y-114910038D01*
X125589070Y-114839070D01*
X125660038Y-114791651D01*
X125743750Y-114775000D01*
X126256250Y-114775000D01*
X126339962Y-114791651D01*
X126339962Y-114791651D01*
G37*
D11*
X126000000Y-115212500D03*
D10*
G36*
X126339962Y-116366651D02*
G01*
X126410930Y-116414070D01*
X126458349Y-116485038D01*
X126475000Y-116568750D01*
X126475000Y-117006250D01*
X126458349Y-117089962D01*
X126410930Y-117160930D01*
X126339962Y-117208349D01*
X126256250Y-117225000D01*
X125743750Y-117225000D01*
X125660038Y-117208349D01*
X125589070Y-117160930D01*
X125541651Y-117089962D01*
X125525000Y-117006250D01*
X125525000Y-116568750D01*
X125541651Y-116485038D01*
X125589070Y-116414070D01*
X125660038Y-116366651D01*
X125743750Y-116350000D01*
X126256250Y-116350000D01*
X126339962Y-116366651D01*
X126339962Y-116366651D01*
G37*
D11*
X126000000Y-116787500D03*
D10*
G36*
X123089962Y-118041651D02*
G01*
X123160930Y-118089070D01*
X123208349Y-118160038D01*
X123225000Y-118243750D01*
X123225000Y-118756250D01*
X123208349Y-118839962D01*
X123160930Y-118910930D01*
X123089962Y-118958349D01*
X123006250Y-118975000D01*
X122568750Y-118975000D01*
X122485038Y-118958349D01*
X122414070Y-118910930D01*
X122366651Y-118839962D01*
X122350000Y-118756250D01*
X122350000Y-118243750D01*
X122366651Y-118160038D01*
X122414070Y-118089070D01*
X122485038Y-118041651D01*
X122568750Y-118025000D01*
X123006250Y-118025000D01*
X123089962Y-118041651D01*
X123089962Y-118041651D01*
G37*
D11*
X122787500Y-118500000D03*
D10*
G36*
X121514962Y-118041651D02*
G01*
X121585930Y-118089070D01*
X121633349Y-118160038D01*
X121650000Y-118243750D01*
X121650000Y-118756250D01*
X121633349Y-118839962D01*
X121585930Y-118910930D01*
X121514962Y-118958349D01*
X121431250Y-118975000D01*
X120993750Y-118975000D01*
X120910038Y-118958349D01*
X120839070Y-118910930D01*
X120791651Y-118839962D01*
X120775000Y-118756250D01*
X120775000Y-118243750D01*
X120791651Y-118160038D01*
X120839070Y-118089070D01*
X120910038Y-118041651D01*
X120993750Y-118025000D01*
X121431250Y-118025000D01*
X121514962Y-118041651D01*
X121514962Y-118041651D01*
G37*
D11*
X121212500Y-118500000D03*
D10*
G36*
X127589962Y-118041651D02*
G01*
X127660930Y-118089070D01*
X127708349Y-118160038D01*
X127725000Y-118243750D01*
X127725000Y-118756250D01*
X127708349Y-118839962D01*
X127660930Y-118910930D01*
X127589962Y-118958349D01*
X127506250Y-118975000D01*
X127068750Y-118975000D01*
X126985038Y-118958349D01*
X126914070Y-118910930D01*
X126866651Y-118839962D01*
X126850000Y-118756250D01*
X126850000Y-118243750D01*
X126866651Y-118160038D01*
X126914070Y-118089070D01*
X126985038Y-118041651D01*
X127068750Y-118025000D01*
X127506250Y-118025000D01*
X127589962Y-118041651D01*
X127589962Y-118041651D01*
G37*
D11*
X127287500Y-118500000D03*
D10*
G36*
X126014962Y-118041651D02*
G01*
X126085930Y-118089070D01*
X126133349Y-118160038D01*
X126150000Y-118243750D01*
X126150000Y-118756250D01*
X126133349Y-118839962D01*
X126085930Y-118910930D01*
X126014962Y-118958349D01*
X125931250Y-118975000D01*
X125493750Y-118975000D01*
X125410038Y-118958349D01*
X125339070Y-118910930D01*
X125291651Y-118839962D01*
X125275000Y-118756250D01*
X125275000Y-118243750D01*
X125291651Y-118160038D01*
X125339070Y-118089070D01*
X125410038Y-118041651D01*
X125493750Y-118025000D01*
X125931250Y-118025000D01*
X126014962Y-118041651D01*
X126014962Y-118041651D01*
G37*
D11*
X125712500Y-118500000D03*
D10*
G36*
X114839962Y-95791651D02*
G01*
X114910930Y-95839070D01*
X114958349Y-95910038D01*
X114975000Y-95993750D01*
X114975000Y-96431250D01*
X114958349Y-96514962D01*
X114910930Y-96585930D01*
X114839962Y-96633349D01*
X114756250Y-96650000D01*
X114243750Y-96650000D01*
X114160038Y-96633349D01*
X114089070Y-96585930D01*
X114041651Y-96514962D01*
X114025000Y-96431250D01*
X114025000Y-95993750D01*
X114041651Y-95910038D01*
X114089070Y-95839070D01*
X114160038Y-95791651D01*
X114243750Y-95775000D01*
X114756250Y-95775000D01*
X114839962Y-95791651D01*
X114839962Y-95791651D01*
G37*
D11*
X114500000Y-96212500D03*
D10*
G36*
X114839962Y-97366651D02*
G01*
X114910930Y-97414070D01*
X114958349Y-97485038D01*
X114975000Y-97568750D01*
X114975000Y-98006250D01*
X114958349Y-98089962D01*
X114910930Y-98160930D01*
X114839962Y-98208349D01*
X114756250Y-98225000D01*
X114243750Y-98225000D01*
X114160038Y-98208349D01*
X114089070Y-98160930D01*
X114041651Y-98089962D01*
X114025000Y-98006250D01*
X114025000Y-97568750D01*
X114041651Y-97485038D01*
X114089070Y-97414070D01*
X114160038Y-97366651D01*
X114243750Y-97350000D01*
X114756250Y-97350000D01*
X114839962Y-97366651D01*
X114839962Y-97366651D01*
G37*
D11*
X114500000Y-97787500D03*
D10*
G36*
X114839962Y-92791651D02*
G01*
X114910930Y-92839070D01*
X114958349Y-92910038D01*
X114975000Y-92993750D01*
X114975000Y-93431250D01*
X114958349Y-93514962D01*
X114910930Y-93585930D01*
X114839962Y-93633349D01*
X114756250Y-93650000D01*
X114243750Y-93650000D01*
X114160038Y-93633349D01*
X114089070Y-93585930D01*
X114041651Y-93514962D01*
X114025000Y-93431250D01*
X114025000Y-92993750D01*
X114041651Y-92910038D01*
X114089070Y-92839070D01*
X114160038Y-92791651D01*
X114243750Y-92775000D01*
X114756250Y-92775000D01*
X114839962Y-92791651D01*
X114839962Y-92791651D01*
G37*
D11*
X114500000Y-93212500D03*
D10*
G36*
X114839962Y-94366651D02*
G01*
X114910930Y-94414070D01*
X114958349Y-94485038D01*
X114975000Y-94568750D01*
X114975000Y-95006250D01*
X114958349Y-95089962D01*
X114910930Y-95160930D01*
X114839962Y-95208349D01*
X114756250Y-95225000D01*
X114243750Y-95225000D01*
X114160038Y-95208349D01*
X114089070Y-95160930D01*
X114041651Y-95089962D01*
X114025000Y-95006250D01*
X114025000Y-94568750D01*
X114041651Y-94485038D01*
X114089070Y-94414070D01*
X114160038Y-94366651D01*
X114243750Y-94350000D01*
X114756250Y-94350000D01*
X114839962Y-94366651D01*
X114839962Y-94366651D01*
G37*
D11*
X114500000Y-94787500D03*
D12*
X112800000Y-114300000D03*
X112150000Y-114300000D03*
X111500000Y-114300000D03*
X110850000Y-114300000D03*
X110200000Y-114300000D03*
D10*
G36*
X111839962Y-110866651D02*
G01*
X111910930Y-110914070D01*
X111958349Y-110985038D01*
X111975000Y-111068750D01*
X111975000Y-111506250D01*
X111958349Y-111589962D01*
X111910930Y-111660930D01*
X111839962Y-111708349D01*
X111756250Y-111725000D01*
X111243750Y-111725000D01*
X111160038Y-111708349D01*
X111089070Y-111660930D01*
X111041651Y-111589962D01*
X111025000Y-111506250D01*
X111025000Y-111068750D01*
X111041651Y-110985038D01*
X111089070Y-110914070D01*
X111160038Y-110866651D01*
X111243750Y-110850000D01*
X111756250Y-110850000D01*
X111839962Y-110866651D01*
X111839962Y-110866651D01*
G37*
D11*
X111500000Y-111287500D03*
D10*
G36*
X111839962Y-109291651D02*
G01*
X111910930Y-109339070D01*
X111958349Y-109410038D01*
X111975000Y-109493750D01*
X111975000Y-109931250D01*
X111958349Y-110014962D01*
X111910930Y-110085930D01*
X111839962Y-110133349D01*
X111756250Y-110150000D01*
X111243750Y-110150000D01*
X111160038Y-110133349D01*
X111089070Y-110085930D01*
X111041651Y-110014962D01*
X111025000Y-109931250D01*
X111025000Y-109493750D01*
X111041651Y-109410038D01*
X111089070Y-109339070D01*
X111160038Y-109291651D01*
X111243750Y-109275000D01*
X111756250Y-109275000D01*
X111839962Y-109291651D01*
X111839962Y-109291651D01*
G37*
D11*
X111500000Y-109712500D03*
D10*
G36*
X113339962Y-110866651D02*
G01*
X113410930Y-110914070D01*
X113458349Y-110985038D01*
X113475000Y-111068750D01*
X113475000Y-111506250D01*
X113458349Y-111589962D01*
X113410930Y-111660930D01*
X113339962Y-111708349D01*
X113256250Y-111725000D01*
X112743750Y-111725000D01*
X112660038Y-111708349D01*
X112589070Y-111660930D01*
X112541651Y-111589962D01*
X112525000Y-111506250D01*
X112525000Y-111068750D01*
X112541651Y-110985038D01*
X112589070Y-110914070D01*
X112660038Y-110866651D01*
X112743750Y-110850000D01*
X113256250Y-110850000D01*
X113339962Y-110866651D01*
X113339962Y-110866651D01*
G37*
D11*
X113000000Y-111287500D03*
D10*
G36*
X113339962Y-109291651D02*
G01*
X113410930Y-109339070D01*
X113458349Y-109410038D01*
X113475000Y-109493750D01*
X113475000Y-109931250D01*
X113458349Y-110014962D01*
X113410930Y-110085930D01*
X113339962Y-110133349D01*
X113256250Y-110150000D01*
X112743750Y-110150000D01*
X112660038Y-110133349D01*
X112589070Y-110085930D01*
X112541651Y-110014962D01*
X112525000Y-109931250D01*
X112525000Y-109493750D01*
X112541651Y-109410038D01*
X112589070Y-109339070D01*
X112660038Y-109291651D01*
X112743750Y-109275000D01*
X113256250Y-109275000D01*
X113339962Y-109291651D01*
X113339962Y-109291651D01*
G37*
D11*
X113000000Y-109712500D03*
D13*
X115100000Y-103277500D03*
X115100000Y-103912500D03*
X115100000Y-104547500D03*
X115100000Y-105182500D03*
X115100000Y-105817500D03*
X115100000Y-106452500D03*
X115100000Y-107087500D03*
X115100000Y-107722500D03*
X109900000Y-107722500D03*
X109900000Y-107087500D03*
X109900000Y-106452500D03*
X109900000Y-105817500D03*
X109900000Y-105182500D03*
X109900000Y-104547500D03*
X109900000Y-103912500D03*
X109900000Y-103277500D03*
D10*
G36*
X108839962Y-110866651D02*
G01*
X108910930Y-110914070D01*
X108958349Y-110985038D01*
X108975000Y-111068750D01*
X108975000Y-111506250D01*
X108958349Y-111589962D01*
X108910930Y-111660930D01*
X108839962Y-111708349D01*
X108756250Y-111725000D01*
X108243750Y-111725000D01*
X108160038Y-111708349D01*
X108089070Y-111660930D01*
X108041651Y-111589962D01*
X108025000Y-111506250D01*
X108025000Y-111068750D01*
X108041651Y-110985038D01*
X108089070Y-110914070D01*
X108160038Y-110866651D01*
X108243750Y-110850000D01*
X108756250Y-110850000D01*
X108839962Y-110866651D01*
X108839962Y-110866651D01*
G37*
D11*
X108500000Y-111287500D03*
D10*
G36*
X108839962Y-109291651D02*
G01*
X108910930Y-109339070D01*
X108958349Y-109410038D01*
X108975000Y-109493750D01*
X108975000Y-109931250D01*
X108958349Y-110014962D01*
X108910930Y-110085930D01*
X108839962Y-110133349D01*
X108756250Y-110150000D01*
X108243750Y-110150000D01*
X108160038Y-110133349D01*
X108089070Y-110085930D01*
X108041651Y-110014962D01*
X108025000Y-109931250D01*
X108025000Y-109493750D01*
X108041651Y-109410038D01*
X108089070Y-109339070D01*
X108160038Y-109291651D01*
X108243750Y-109275000D01*
X108756250Y-109275000D01*
X108839962Y-109291651D01*
X108839962Y-109291651D01*
G37*
D11*
X108500000Y-109712500D03*
D10*
G36*
X119089962Y-106541651D02*
G01*
X119160930Y-106589070D01*
X119208349Y-106660038D01*
X119225000Y-106743750D01*
X119225000Y-107256250D01*
X119208349Y-107339962D01*
X119160930Y-107410930D01*
X119089962Y-107458349D01*
X119006250Y-107475000D01*
X118568750Y-107475000D01*
X118485038Y-107458349D01*
X118414070Y-107410930D01*
X118366651Y-107339962D01*
X118350000Y-107256250D01*
X118350000Y-106743750D01*
X118366651Y-106660038D01*
X118414070Y-106589070D01*
X118485038Y-106541651D01*
X118568750Y-106525000D01*
X119006250Y-106525000D01*
X119089962Y-106541651D01*
X119089962Y-106541651D01*
G37*
D11*
X118787500Y-107000000D03*
D10*
G36*
X117514962Y-106541651D02*
G01*
X117585930Y-106589070D01*
X117633349Y-106660038D01*
X117650000Y-106743750D01*
X117650000Y-107256250D01*
X117633349Y-107339962D01*
X117585930Y-107410930D01*
X117514962Y-107458349D01*
X117431250Y-107475000D01*
X116993750Y-107475000D01*
X116910038Y-107458349D01*
X116839070Y-107410930D01*
X116791651Y-107339962D01*
X116775000Y-107256250D01*
X116775000Y-106743750D01*
X116791651Y-106660038D01*
X116839070Y-106589070D01*
X116910038Y-106541651D01*
X116993750Y-106525000D01*
X117431250Y-106525000D01*
X117514962Y-106541651D01*
X117514962Y-106541651D01*
G37*
D11*
X117212500Y-107000000D03*
D10*
G36*
X119089962Y-105041651D02*
G01*
X119160930Y-105089070D01*
X119208349Y-105160038D01*
X119225000Y-105243750D01*
X119225000Y-105756250D01*
X119208349Y-105839962D01*
X119160930Y-105910930D01*
X119089962Y-105958349D01*
X119006250Y-105975000D01*
X118568750Y-105975000D01*
X118485038Y-105958349D01*
X118414070Y-105910930D01*
X118366651Y-105839962D01*
X118350000Y-105756250D01*
X118350000Y-105243750D01*
X118366651Y-105160038D01*
X118414070Y-105089070D01*
X118485038Y-105041651D01*
X118568750Y-105025000D01*
X119006250Y-105025000D01*
X119089962Y-105041651D01*
X119089962Y-105041651D01*
G37*
D11*
X118787500Y-105500000D03*
D10*
G36*
X117514962Y-105041651D02*
G01*
X117585930Y-105089070D01*
X117633349Y-105160038D01*
X117650000Y-105243750D01*
X117650000Y-105756250D01*
X117633349Y-105839962D01*
X117585930Y-105910930D01*
X117514962Y-105958349D01*
X117431250Y-105975000D01*
X116993750Y-105975000D01*
X116910038Y-105958349D01*
X116839070Y-105910930D01*
X116791651Y-105839962D01*
X116775000Y-105756250D01*
X116775000Y-105243750D01*
X116791651Y-105160038D01*
X116839070Y-105089070D01*
X116910038Y-105041651D01*
X116993750Y-105025000D01*
X117431250Y-105025000D01*
X117514962Y-105041651D01*
X117514962Y-105041651D01*
G37*
D11*
X117212500Y-105500000D03*
D10*
G36*
X106514962Y-107541651D02*
G01*
X106585930Y-107589070D01*
X106633349Y-107660038D01*
X106650000Y-107743750D01*
X106650000Y-108256250D01*
X106633349Y-108339962D01*
X106585930Y-108410930D01*
X106514962Y-108458349D01*
X106431250Y-108475000D01*
X105993750Y-108475000D01*
X105910038Y-108458349D01*
X105839070Y-108410930D01*
X105791651Y-108339962D01*
X105775000Y-108256250D01*
X105775000Y-107743750D01*
X105791651Y-107660038D01*
X105839070Y-107589070D01*
X105910038Y-107541651D01*
X105993750Y-107525000D01*
X106431250Y-107525000D01*
X106514962Y-107541651D01*
X106514962Y-107541651D01*
G37*
D11*
X106212500Y-108000000D03*
D10*
G36*
X108089962Y-107541651D02*
G01*
X108160930Y-107589070D01*
X108208349Y-107660038D01*
X108225000Y-107743750D01*
X108225000Y-108256250D01*
X108208349Y-108339962D01*
X108160930Y-108410930D01*
X108089962Y-108458349D01*
X108006250Y-108475000D01*
X107568750Y-108475000D01*
X107485038Y-108458349D01*
X107414070Y-108410930D01*
X107366651Y-108339962D01*
X107350000Y-108256250D01*
X107350000Y-107743750D01*
X107366651Y-107660038D01*
X107414070Y-107589070D01*
X107485038Y-107541651D01*
X107568750Y-107525000D01*
X108006250Y-107525000D01*
X108089962Y-107541651D01*
X108089962Y-107541651D01*
G37*
D11*
X107787500Y-108000000D03*
D10*
G36*
X110339962Y-109291651D02*
G01*
X110410930Y-109339070D01*
X110458349Y-109410038D01*
X110475000Y-109493750D01*
X110475000Y-109931250D01*
X110458349Y-110014962D01*
X110410930Y-110085930D01*
X110339962Y-110133349D01*
X110256250Y-110150000D01*
X109743750Y-110150000D01*
X109660038Y-110133349D01*
X109589070Y-110085930D01*
X109541651Y-110014962D01*
X109525000Y-109931250D01*
X109525000Y-109493750D01*
X109541651Y-109410038D01*
X109589070Y-109339070D01*
X109660038Y-109291651D01*
X109743750Y-109275000D01*
X110256250Y-109275000D01*
X110339962Y-109291651D01*
X110339962Y-109291651D01*
G37*
D11*
X110000000Y-109712500D03*
D10*
G36*
X110339962Y-110866651D02*
G01*
X110410930Y-110914070D01*
X110458349Y-110985038D01*
X110475000Y-111068750D01*
X110475000Y-111506250D01*
X110458349Y-111589962D01*
X110410930Y-111660930D01*
X110339962Y-111708349D01*
X110256250Y-111725000D01*
X109743750Y-111725000D01*
X109660038Y-111708349D01*
X109589070Y-111660930D01*
X109541651Y-111589962D01*
X109525000Y-111506250D01*
X109525000Y-111068750D01*
X109541651Y-110985038D01*
X109589070Y-110914070D01*
X109660038Y-110866651D01*
X109743750Y-110850000D01*
X110256250Y-110850000D01*
X110339962Y-110866651D01*
X110339962Y-110866651D01*
G37*
D11*
X110000000Y-111287500D03*
D10*
G36*
X107339962Y-109291651D02*
G01*
X107410930Y-109339070D01*
X107458349Y-109410038D01*
X107475000Y-109493750D01*
X107475000Y-109931250D01*
X107458349Y-110014962D01*
X107410930Y-110085930D01*
X107339962Y-110133349D01*
X107256250Y-110150000D01*
X106743750Y-110150000D01*
X106660038Y-110133349D01*
X106589070Y-110085930D01*
X106541651Y-110014962D01*
X106525000Y-109931250D01*
X106525000Y-109493750D01*
X106541651Y-109410038D01*
X106589070Y-109339070D01*
X106660038Y-109291651D01*
X106743750Y-109275000D01*
X107256250Y-109275000D01*
X107339962Y-109291651D01*
X107339962Y-109291651D01*
G37*
D11*
X107000000Y-109712500D03*
D10*
G36*
X107339962Y-110866651D02*
G01*
X107410930Y-110914070D01*
X107458349Y-110985038D01*
X107475000Y-111068750D01*
X107475000Y-111506250D01*
X107458349Y-111589962D01*
X107410930Y-111660930D01*
X107339962Y-111708349D01*
X107256250Y-111725000D01*
X106743750Y-111725000D01*
X106660038Y-111708349D01*
X106589070Y-111660930D01*
X106541651Y-111589962D01*
X106525000Y-111506250D01*
X106525000Y-111068750D01*
X106541651Y-110985038D01*
X106589070Y-110914070D01*
X106660038Y-110866651D01*
X106743750Y-110850000D01*
X107256250Y-110850000D01*
X107339962Y-110866651D01*
X107339962Y-110866651D01*
G37*
D11*
X107000000Y-111287500D03*
D10*
G36*
X114839962Y-109291651D02*
G01*
X114910930Y-109339070D01*
X114958349Y-109410038D01*
X114975000Y-109493750D01*
X114975000Y-109931250D01*
X114958349Y-110014962D01*
X114910930Y-110085930D01*
X114839962Y-110133349D01*
X114756250Y-110150000D01*
X114243750Y-110150000D01*
X114160038Y-110133349D01*
X114089070Y-110085930D01*
X114041651Y-110014962D01*
X114025000Y-109931250D01*
X114025000Y-109493750D01*
X114041651Y-109410038D01*
X114089070Y-109339070D01*
X114160038Y-109291651D01*
X114243750Y-109275000D01*
X114756250Y-109275000D01*
X114839962Y-109291651D01*
X114839962Y-109291651D01*
G37*
D11*
X114500000Y-109712500D03*
D10*
G36*
X114839962Y-110866651D02*
G01*
X114910930Y-110914070D01*
X114958349Y-110985038D01*
X114975000Y-111068750D01*
X114975000Y-111506250D01*
X114958349Y-111589962D01*
X114910930Y-111660930D01*
X114839962Y-111708349D01*
X114756250Y-111725000D01*
X114243750Y-111725000D01*
X114160038Y-111708349D01*
X114089070Y-111660930D01*
X114041651Y-111589962D01*
X114025000Y-111506250D01*
X114025000Y-111068750D01*
X114041651Y-110985038D01*
X114089070Y-110914070D01*
X114160038Y-110866651D01*
X114243750Y-110850000D01*
X114756250Y-110850000D01*
X114839962Y-110866651D01*
X114839962Y-110866651D01*
G37*
D11*
X114500000Y-111287500D03*
D14*
X153230000Y-112550000D03*
X152730000Y-112550000D03*
X152230000Y-112550000D03*
X151730000Y-112550000D03*
X151730000Y-109450000D03*
X152230000Y-109450000D03*
X152730000Y-109450000D03*
X153230000Y-109450000D03*
D10*
G36*
X156589962Y-111541651D02*
G01*
X156660930Y-111589070D01*
X156708349Y-111660038D01*
X156725000Y-111743750D01*
X156725000Y-112256250D01*
X156708349Y-112339962D01*
X156660930Y-112410930D01*
X156589962Y-112458349D01*
X156506250Y-112475000D01*
X156068750Y-112475000D01*
X155985038Y-112458349D01*
X155914070Y-112410930D01*
X155866651Y-112339962D01*
X155850000Y-112256250D01*
X155850000Y-111743750D01*
X155866651Y-111660038D01*
X155914070Y-111589070D01*
X155985038Y-111541651D01*
X156068750Y-111525000D01*
X156506250Y-111525000D01*
X156589962Y-111541651D01*
X156589962Y-111541651D01*
G37*
D11*
X156287500Y-112000000D03*
D10*
G36*
X155014962Y-111541651D02*
G01*
X155085930Y-111589070D01*
X155133349Y-111660038D01*
X155150000Y-111743750D01*
X155150000Y-112256250D01*
X155133349Y-112339962D01*
X155085930Y-112410930D01*
X155014962Y-112458349D01*
X154931250Y-112475000D01*
X154493750Y-112475000D01*
X154410038Y-112458349D01*
X154339070Y-112410930D01*
X154291651Y-112339962D01*
X154275000Y-112256250D01*
X154275000Y-111743750D01*
X154291651Y-111660038D01*
X154339070Y-111589070D01*
X154410038Y-111541651D01*
X154493750Y-111525000D01*
X154931250Y-111525000D01*
X155014962Y-111541651D01*
X155014962Y-111541651D01*
G37*
D11*
X154712500Y-112000000D03*
D10*
G36*
X156589962Y-109541651D02*
G01*
X156660930Y-109589070D01*
X156708349Y-109660038D01*
X156725000Y-109743750D01*
X156725000Y-110256250D01*
X156708349Y-110339962D01*
X156660930Y-110410930D01*
X156589962Y-110458349D01*
X156506250Y-110475000D01*
X156068750Y-110475000D01*
X155985038Y-110458349D01*
X155914070Y-110410930D01*
X155866651Y-110339962D01*
X155850000Y-110256250D01*
X155850000Y-109743750D01*
X155866651Y-109660038D01*
X155914070Y-109589070D01*
X155985038Y-109541651D01*
X156068750Y-109525000D01*
X156506250Y-109525000D01*
X156589962Y-109541651D01*
X156589962Y-109541651D01*
G37*
D11*
X156287500Y-110000000D03*
D10*
G36*
X155014962Y-109541651D02*
G01*
X155085930Y-109589070D01*
X155133349Y-109660038D01*
X155150000Y-109743750D01*
X155150000Y-110256250D01*
X155133349Y-110339962D01*
X155085930Y-110410930D01*
X155014962Y-110458349D01*
X154931250Y-110475000D01*
X154493750Y-110475000D01*
X154410038Y-110458349D01*
X154339070Y-110410930D01*
X154291651Y-110339962D01*
X154275000Y-110256250D01*
X154275000Y-109743750D01*
X154291651Y-109660038D01*
X154339070Y-109589070D01*
X154410038Y-109541651D01*
X154493750Y-109525000D01*
X154931250Y-109525000D01*
X155014962Y-109541651D01*
X155014962Y-109541651D01*
G37*
D11*
X154712500Y-110000000D03*
D15*
X134150000Y-110075000D03*
X134150000Y-109425000D03*
X134150000Y-108775000D03*
X134150000Y-108125000D03*
X134150000Y-107475000D03*
X134150000Y-106825000D03*
X134150000Y-106175000D03*
X134150000Y-105525000D03*
X134150000Y-104875000D03*
X134150000Y-104225000D03*
X134150000Y-103575000D03*
X134150000Y-102925000D03*
X139850000Y-102925000D03*
X139850000Y-103575000D03*
X139850000Y-104225000D03*
X139850000Y-104875000D03*
X139850000Y-105525000D03*
X139850000Y-106175000D03*
X139850000Y-106825000D03*
X139850000Y-107475000D03*
X139850000Y-108125000D03*
X139850000Y-108775000D03*
X139850000Y-109425000D03*
X139850000Y-110075000D03*
X172850000Y-98925000D03*
X172850000Y-99575000D03*
X172850000Y-100225000D03*
X172850000Y-100875000D03*
X172850000Y-101525000D03*
X172850000Y-102175000D03*
X172850000Y-102825000D03*
X172850000Y-103475000D03*
X172850000Y-104125000D03*
X172850000Y-104775000D03*
X172850000Y-105425000D03*
X172850000Y-106075000D03*
X167150000Y-106075000D03*
X167150000Y-105425000D03*
X167150000Y-104775000D03*
X167150000Y-104125000D03*
X167150000Y-103475000D03*
X167150000Y-102825000D03*
X167150000Y-102175000D03*
X167150000Y-101525000D03*
X167150000Y-100875000D03*
X167150000Y-100225000D03*
X167150000Y-99575000D03*
X167150000Y-98925000D03*
D10*
G36*
X132839962Y-108791651D02*
G01*
X132910930Y-108839070D01*
X132958349Y-108910038D01*
X132975000Y-108993750D01*
X132975000Y-109431250D01*
X132958349Y-109514962D01*
X132910930Y-109585930D01*
X132839962Y-109633349D01*
X132756250Y-109650000D01*
X132243750Y-109650000D01*
X132160038Y-109633349D01*
X132089070Y-109585930D01*
X132041651Y-109514962D01*
X132025000Y-109431250D01*
X132025000Y-108993750D01*
X132041651Y-108910038D01*
X132089070Y-108839070D01*
X132160038Y-108791651D01*
X132243750Y-108775000D01*
X132756250Y-108775000D01*
X132839962Y-108791651D01*
X132839962Y-108791651D01*
G37*
D11*
X132500000Y-109212500D03*
D10*
G36*
X132839962Y-110366651D02*
G01*
X132910930Y-110414070D01*
X132958349Y-110485038D01*
X132975000Y-110568750D01*
X132975000Y-111006250D01*
X132958349Y-111089962D01*
X132910930Y-111160930D01*
X132839962Y-111208349D01*
X132756250Y-111225000D01*
X132243750Y-111225000D01*
X132160038Y-111208349D01*
X132089070Y-111160930D01*
X132041651Y-111089962D01*
X132025000Y-111006250D01*
X132025000Y-110568750D01*
X132041651Y-110485038D01*
X132089070Y-110414070D01*
X132160038Y-110366651D01*
X132243750Y-110350000D01*
X132756250Y-110350000D01*
X132839962Y-110366651D01*
X132839962Y-110366651D01*
G37*
D11*
X132500000Y-110787500D03*
D10*
G36*
X174839962Y-99366651D02*
G01*
X174910930Y-99414070D01*
X174958349Y-99485038D01*
X174975000Y-99568750D01*
X174975000Y-100006250D01*
X174958349Y-100089962D01*
X174910930Y-100160930D01*
X174839962Y-100208349D01*
X174756250Y-100225000D01*
X174243750Y-100225000D01*
X174160038Y-100208349D01*
X174089070Y-100160930D01*
X174041651Y-100089962D01*
X174025000Y-100006250D01*
X174025000Y-99568750D01*
X174041651Y-99485038D01*
X174089070Y-99414070D01*
X174160038Y-99366651D01*
X174243750Y-99350000D01*
X174756250Y-99350000D01*
X174839962Y-99366651D01*
X174839962Y-99366651D01*
G37*
D11*
X174500000Y-99787500D03*
D10*
G36*
X174839962Y-97791651D02*
G01*
X174910930Y-97839070D01*
X174958349Y-97910038D01*
X174975000Y-97993750D01*
X174975000Y-98431250D01*
X174958349Y-98514962D01*
X174910930Y-98585930D01*
X174839962Y-98633349D01*
X174756250Y-98650000D01*
X174243750Y-98650000D01*
X174160038Y-98633349D01*
X174089070Y-98585930D01*
X174041651Y-98514962D01*
X174025000Y-98431250D01*
X174025000Y-97993750D01*
X174041651Y-97910038D01*
X174089070Y-97839070D01*
X174160038Y-97791651D01*
X174243750Y-97775000D01*
X174756250Y-97775000D01*
X174839962Y-97791651D01*
X174839962Y-97791651D01*
G37*
D11*
X174500000Y-98212500D03*
D10*
G36*
X138514962Y-111041651D02*
G01*
X138585930Y-111089070D01*
X138633349Y-111160038D01*
X138650000Y-111243750D01*
X138650000Y-111756250D01*
X138633349Y-111839962D01*
X138585930Y-111910930D01*
X138514962Y-111958349D01*
X138431250Y-111975000D01*
X137993750Y-111975000D01*
X137910038Y-111958349D01*
X137839070Y-111910930D01*
X137791651Y-111839962D01*
X137775000Y-111756250D01*
X137775000Y-111243750D01*
X137791651Y-111160038D01*
X137839070Y-111089070D01*
X137910038Y-111041651D01*
X137993750Y-111025000D01*
X138431250Y-111025000D01*
X138514962Y-111041651D01*
X138514962Y-111041651D01*
G37*
D11*
X138212500Y-111500000D03*
D10*
G36*
X140089962Y-111041651D02*
G01*
X140160930Y-111089070D01*
X140208349Y-111160038D01*
X140225000Y-111243750D01*
X140225000Y-111756250D01*
X140208349Y-111839962D01*
X140160930Y-111910930D01*
X140089962Y-111958349D01*
X140006250Y-111975000D01*
X139568750Y-111975000D01*
X139485038Y-111958349D01*
X139414070Y-111910930D01*
X139366651Y-111839962D01*
X139350000Y-111756250D01*
X139350000Y-111243750D01*
X139366651Y-111160038D01*
X139414070Y-111089070D01*
X139485038Y-111041651D01*
X139568750Y-111025000D01*
X140006250Y-111025000D01*
X140089962Y-111041651D01*
X140089962Y-111041651D01*
G37*
D11*
X139787500Y-111500000D03*
D10*
G36*
X169089962Y-97041651D02*
G01*
X169160930Y-97089070D01*
X169208349Y-97160038D01*
X169225000Y-97243750D01*
X169225000Y-97756250D01*
X169208349Y-97839962D01*
X169160930Y-97910930D01*
X169089962Y-97958349D01*
X169006250Y-97975000D01*
X168568750Y-97975000D01*
X168485038Y-97958349D01*
X168414070Y-97910930D01*
X168366651Y-97839962D01*
X168350000Y-97756250D01*
X168350000Y-97243750D01*
X168366651Y-97160038D01*
X168414070Y-97089070D01*
X168485038Y-97041651D01*
X168568750Y-97025000D01*
X169006250Y-97025000D01*
X169089962Y-97041651D01*
X169089962Y-97041651D01*
G37*
D11*
X168787500Y-97500000D03*
D10*
G36*
X167514962Y-97041651D02*
G01*
X167585930Y-97089070D01*
X167633349Y-97160038D01*
X167650000Y-97243750D01*
X167650000Y-97756250D01*
X167633349Y-97839962D01*
X167585930Y-97910930D01*
X167514962Y-97958349D01*
X167431250Y-97975000D01*
X166993750Y-97975000D01*
X166910038Y-97958349D01*
X166839070Y-97910930D01*
X166791651Y-97839962D01*
X166775000Y-97756250D01*
X166775000Y-97243750D01*
X166791651Y-97160038D01*
X166839070Y-97089070D01*
X166910038Y-97041651D01*
X166993750Y-97025000D01*
X167431250Y-97025000D01*
X167514962Y-97041651D01*
X167514962Y-97041651D01*
G37*
D11*
X167212500Y-97500000D03*
D16*
X211275000Y-104450000D03*
X210625000Y-104450000D03*
X209975000Y-104450000D03*
X209325000Y-104450000D03*
X208675000Y-104450000D03*
X208025000Y-104450000D03*
X207375000Y-104450000D03*
X206725000Y-104450000D03*
X206725000Y-98550000D03*
X207375000Y-98550000D03*
X208025000Y-98550000D03*
X208675000Y-98550000D03*
X209325000Y-98550000D03*
X209975000Y-98550000D03*
X210625000Y-98550000D03*
X211275000Y-98550000D03*
D10*
G36*
X206339962Y-95866651D02*
G01*
X206410930Y-95914070D01*
X206458349Y-95985038D01*
X206475000Y-96068750D01*
X206475000Y-96506250D01*
X206458349Y-96589962D01*
X206410930Y-96660930D01*
X206339962Y-96708349D01*
X206256250Y-96725000D01*
X205743750Y-96725000D01*
X205660038Y-96708349D01*
X205589070Y-96660930D01*
X205541651Y-96589962D01*
X205525000Y-96506250D01*
X205525000Y-96068750D01*
X205541651Y-95985038D01*
X205589070Y-95914070D01*
X205660038Y-95866651D01*
X205743750Y-95850000D01*
X206256250Y-95850000D01*
X206339962Y-95866651D01*
X206339962Y-95866651D01*
G37*
D11*
X206000000Y-96287500D03*
D10*
G36*
X206339962Y-94291651D02*
G01*
X206410930Y-94339070D01*
X206458349Y-94410038D01*
X206475000Y-94493750D01*
X206475000Y-94931250D01*
X206458349Y-95014962D01*
X206410930Y-95085930D01*
X206339962Y-95133349D01*
X206256250Y-95150000D01*
X205743750Y-95150000D01*
X205660038Y-95133349D01*
X205589070Y-95085930D01*
X205541651Y-95014962D01*
X205525000Y-94931250D01*
X205525000Y-94493750D01*
X205541651Y-94410038D01*
X205589070Y-94339070D01*
X205660038Y-94291651D01*
X205743750Y-94275000D01*
X206256250Y-94275000D01*
X206339962Y-94291651D01*
X206339962Y-94291651D01*
G37*
D11*
X206000000Y-94712500D03*
D10*
G36*
X210114962Y-96041651D02*
G01*
X210185930Y-96089070D01*
X210233349Y-96160038D01*
X210250000Y-96243750D01*
X210250000Y-96756250D01*
X210233349Y-96839962D01*
X210185930Y-96910930D01*
X210114962Y-96958349D01*
X210031250Y-96975000D01*
X209593750Y-96975000D01*
X209510038Y-96958349D01*
X209439070Y-96910930D01*
X209391651Y-96839962D01*
X209375000Y-96756250D01*
X209375000Y-96243750D01*
X209391651Y-96160038D01*
X209439070Y-96089070D01*
X209510038Y-96041651D01*
X209593750Y-96025000D01*
X210031250Y-96025000D01*
X210114962Y-96041651D01*
X210114962Y-96041651D01*
G37*
D11*
X209812500Y-96500000D03*
D10*
G36*
X211689962Y-96041651D02*
G01*
X211760930Y-96089070D01*
X211808349Y-96160038D01*
X211825000Y-96243750D01*
X211825000Y-96756250D01*
X211808349Y-96839962D01*
X211760930Y-96910930D01*
X211689962Y-96958349D01*
X211606250Y-96975000D01*
X211168750Y-96975000D01*
X211085038Y-96958349D01*
X211014070Y-96910930D01*
X210966651Y-96839962D01*
X210950000Y-96756250D01*
X210950000Y-96243750D01*
X210966651Y-96160038D01*
X211014070Y-96089070D01*
X211085038Y-96041651D01*
X211168750Y-96025000D01*
X211606250Y-96025000D01*
X211689962Y-96041651D01*
X211689962Y-96041651D01*
G37*
D11*
X211387500Y-96500000D03*
D10*
G36*
X210514962Y-106041651D02*
G01*
X210585930Y-106089070D01*
X210633349Y-106160038D01*
X210650000Y-106243750D01*
X210650000Y-106756250D01*
X210633349Y-106839962D01*
X210585930Y-106910930D01*
X210514962Y-106958349D01*
X210431250Y-106975000D01*
X209993750Y-106975000D01*
X209910038Y-106958349D01*
X209839070Y-106910930D01*
X209791651Y-106839962D01*
X209775000Y-106756250D01*
X209775000Y-106243750D01*
X209791651Y-106160038D01*
X209839070Y-106089070D01*
X209910038Y-106041651D01*
X209993750Y-106025000D01*
X210431250Y-106025000D01*
X210514962Y-106041651D01*
X210514962Y-106041651D01*
G37*
D11*
X210212500Y-106500000D03*
D10*
G36*
X212089962Y-106041651D02*
G01*
X212160930Y-106089070D01*
X212208349Y-106160038D01*
X212225000Y-106243750D01*
X212225000Y-106756250D01*
X212208349Y-106839962D01*
X212160930Y-106910930D01*
X212089962Y-106958349D01*
X212006250Y-106975000D01*
X211568750Y-106975000D01*
X211485038Y-106958349D01*
X211414070Y-106910930D01*
X211366651Y-106839962D01*
X211350000Y-106756250D01*
X211350000Y-106243750D01*
X211366651Y-106160038D01*
X211414070Y-106089070D01*
X211485038Y-106041651D01*
X211568750Y-106025000D01*
X212006250Y-106025000D01*
X212089962Y-106041651D01*
X212089962Y-106041651D01*
G37*
D11*
X211787500Y-106500000D03*
D10*
G36*
X207839962Y-95866651D02*
G01*
X207910930Y-95914070D01*
X207958349Y-95985038D01*
X207975000Y-96068750D01*
X207975000Y-96506250D01*
X207958349Y-96589962D01*
X207910930Y-96660930D01*
X207839962Y-96708349D01*
X207756250Y-96725000D01*
X207243750Y-96725000D01*
X207160038Y-96708349D01*
X207089070Y-96660930D01*
X207041651Y-96589962D01*
X207025000Y-96506250D01*
X207025000Y-96068750D01*
X207041651Y-95985038D01*
X207089070Y-95914070D01*
X207160038Y-95866651D01*
X207243750Y-95850000D01*
X207756250Y-95850000D01*
X207839962Y-95866651D01*
X207839962Y-95866651D01*
G37*
D11*
X207500000Y-96287500D03*
D10*
G36*
X207839962Y-94291651D02*
G01*
X207910930Y-94339070D01*
X207958349Y-94410038D01*
X207975000Y-94493750D01*
X207975000Y-94931250D01*
X207958349Y-95014962D01*
X207910930Y-95085930D01*
X207839962Y-95133349D01*
X207756250Y-95150000D01*
X207243750Y-95150000D01*
X207160038Y-95133349D01*
X207089070Y-95085930D01*
X207041651Y-95014962D01*
X207025000Y-94931250D01*
X207025000Y-94493750D01*
X207041651Y-94410038D01*
X207089070Y-94339070D01*
X207160038Y-94291651D01*
X207243750Y-94275000D01*
X207756250Y-94275000D01*
X207839962Y-94291651D01*
X207839962Y-94291651D01*
G37*
D11*
X207500000Y-94712500D03*
D10*
G36*
X209514962Y-94541651D02*
G01*
X209585930Y-94589070D01*
X209633349Y-94660038D01*
X209650000Y-94743750D01*
X209650000Y-95256250D01*
X209633349Y-95339962D01*
X209585930Y-95410930D01*
X209514962Y-95458349D01*
X209431250Y-95475000D01*
X208993750Y-95475000D01*
X208910038Y-95458349D01*
X208839070Y-95410930D01*
X208791651Y-95339962D01*
X208775000Y-95256250D01*
X208775000Y-94743750D01*
X208791651Y-94660038D01*
X208839070Y-94589070D01*
X208910038Y-94541651D01*
X208993750Y-94525000D01*
X209431250Y-94525000D01*
X209514962Y-94541651D01*
X209514962Y-94541651D01*
G37*
D11*
X209212500Y-95000000D03*
D10*
G36*
X211089962Y-94541651D02*
G01*
X211160930Y-94589070D01*
X211208349Y-94660038D01*
X211225000Y-94743750D01*
X211225000Y-95256250D01*
X211208349Y-95339962D01*
X211160930Y-95410930D01*
X211089962Y-95458349D01*
X211006250Y-95475000D01*
X210568750Y-95475000D01*
X210485038Y-95458349D01*
X210414070Y-95410930D01*
X210366651Y-95339962D01*
X210350000Y-95256250D01*
X210350000Y-94743750D01*
X210366651Y-94660038D01*
X210414070Y-94589070D01*
X210485038Y-94541651D01*
X210568750Y-94525000D01*
X211006250Y-94525000D01*
X211089962Y-94541651D01*
X211089962Y-94541651D01*
G37*
D11*
X210787500Y-95000000D03*
D10*
G36*
X210652403Y-87136418D02*
G01*
X210701066Y-87168934D01*
X210733582Y-87217597D01*
X210745000Y-87275000D01*
X210745000Y-89025000D01*
X210733582Y-89082403D01*
X210701066Y-89131066D01*
X210652403Y-89163582D01*
X210595000Y-89175000D01*
X210295000Y-89175000D01*
X210237597Y-89163582D01*
X210188934Y-89131066D01*
X210156418Y-89082403D01*
X210145000Y-89025000D01*
X210145000Y-87275000D01*
X210156418Y-87217597D01*
X210188934Y-87168934D01*
X210237597Y-87136418D01*
X210295000Y-87125000D01*
X210595000Y-87125000D01*
X210652403Y-87136418D01*
X210652403Y-87136418D01*
G37*
D17*
X210445000Y-88150000D03*
D10*
G36*
X209382403Y-87136418D02*
G01*
X209431066Y-87168934D01*
X209463582Y-87217597D01*
X209475000Y-87275000D01*
X209475000Y-89025000D01*
X209463582Y-89082403D01*
X209431066Y-89131066D01*
X209382403Y-89163582D01*
X209325000Y-89175000D01*
X209025000Y-89175000D01*
X208967597Y-89163582D01*
X208918934Y-89131066D01*
X208886418Y-89082403D01*
X208875000Y-89025000D01*
X208875000Y-87275000D01*
X208886418Y-87217597D01*
X208918934Y-87168934D01*
X208967597Y-87136418D01*
X209025000Y-87125000D01*
X209325000Y-87125000D01*
X209382403Y-87136418D01*
X209382403Y-87136418D01*
G37*
D17*
X209175000Y-88150000D03*
D10*
G36*
X208112403Y-87136418D02*
G01*
X208161066Y-87168934D01*
X208193582Y-87217597D01*
X208205000Y-87275000D01*
X208205000Y-89025000D01*
X208193582Y-89082403D01*
X208161066Y-89131066D01*
X208112403Y-89163582D01*
X208055000Y-89175000D01*
X207755000Y-89175000D01*
X207697597Y-89163582D01*
X207648934Y-89131066D01*
X207616418Y-89082403D01*
X207605000Y-89025000D01*
X207605000Y-87275000D01*
X207616418Y-87217597D01*
X207648934Y-87168934D01*
X207697597Y-87136418D01*
X207755000Y-87125000D01*
X208055000Y-87125000D01*
X208112403Y-87136418D01*
X208112403Y-87136418D01*
G37*
D17*
X207905000Y-88150000D03*
D10*
G36*
X206842403Y-87136418D02*
G01*
X206891066Y-87168934D01*
X206923582Y-87217597D01*
X206935000Y-87275000D01*
X206935000Y-89025000D01*
X206923582Y-89082403D01*
X206891066Y-89131066D01*
X206842403Y-89163582D01*
X206785000Y-89175000D01*
X206485000Y-89175000D01*
X206427597Y-89163582D01*
X206378934Y-89131066D01*
X206346418Y-89082403D01*
X206335000Y-89025000D01*
X206335000Y-87275000D01*
X206346418Y-87217597D01*
X206378934Y-87168934D01*
X206427597Y-87136418D01*
X206485000Y-87125000D01*
X206785000Y-87125000D01*
X206842403Y-87136418D01*
X206842403Y-87136418D01*
G37*
D17*
X206635000Y-88150000D03*
D10*
G36*
X205572403Y-87136418D02*
G01*
X205621066Y-87168934D01*
X205653582Y-87217597D01*
X205665000Y-87275000D01*
X205665000Y-89025000D01*
X205653582Y-89082403D01*
X205621066Y-89131066D01*
X205572403Y-89163582D01*
X205515000Y-89175000D01*
X205215000Y-89175000D01*
X205157597Y-89163582D01*
X205108934Y-89131066D01*
X205076418Y-89082403D01*
X205065000Y-89025000D01*
X205065000Y-87275000D01*
X205076418Y-87217597D01*
X205108934Y-87168934D01*
X205157597Y-87136418D01*
X205215000Y-87125000D01*
X205515000Y-87125000D01*
X205572403Y-87136418D01*
X205572403Y-87136418D01*
G37*
D17*
X205365000Y-88150000D03*
D10*
G36*
X204302403Y-87136418D02*
G01*
X204351066Y-87168934D01*
X204383582Y-87217597D01*
X204395000Y-87275000D01*
X204395000Y-89025000D01*
X204383582Y-89082403D01*
X204351066Y-89131066D01*
X204302403Y-89163582D01*
X204245000Y-89175000D01*
X203945000Y-89175000D01*
X203887597Y-89163582D01*
X203838934Y-89131066D01*
X203806418Y-89082403D01*
X203795000Y-89025000D01*
X203795000Y-87275000D01*
X203806418Y-87217597D01*
X203838934Y-87168934D01*
X203887597Y-87136418D01*
X203945000Y-87125000D01*
X204245000Y-87125000D01*
X204302403Y-87136418D01*
X204302403Y-87136418D01*
G37*
D17*
X204095000Y-88150000D03*
D10*
G36*
X203032403Y-87136418D02*
G01*
X203081066Y-87168934D01*
X203113582Y-87217597D01*
X203125000Y-87275000D01*
X203125000Y-89025000D01*
X203113582Y-89082403D01*
X203081066Y-89131066D01*
X203032403Y-89163582D01*
X202975000Y-89175000D01*
X202675000Y-89175000D01*
X202617597Y-89163582D01*
X202568934Y-89131066D01*
X202536418Y-89082403D01*
X202525000Y-89025000D01*
X202525000Y-87275000D01*
X202536418Y-87217597D01*
X202568934Y-87168934D01*
X202617597Y-87136418D01*
X202675000Y-87125000D01*
X202975000Y-87125000D01*
X203032403Y-87136418D01*
X203032403Y-87136418D01*
G37*
D17*
X202825000Y-88150000D03*
D10*
G36*
X201762403Y-87136418D02*
G01*
X201811066Y-87168934D01*
X201843582Y-87217597D01*
X201855000Y-87275000D01*
X201855000Y-89025000D01*
X201843582Y-89082403D01*
X201811066Y-89131066D01*
X201762403Y-89163582D01*
X201705000Y-89175000D01*
X201405000Y-89175000D01*
X201347597Y-89163582D01*
X201298934Y-89131066D01*
X201266418Y-89082403D01*
X201255000Y-89025000D01*
X201255000Y-87275000D01*
X201266418Y-87217597D01*
X201298934Y-87168934D01*
X201347597Y-87136418D01*
X201405000Y-87125000D01*
X201705000Y-87125000D01*
X201762403Y-87136418D01*
X201762403Y-87136418D01*
G37*
D17*
X201555000Y-88150000D03*
D10*
G36*
X201762403Y-77836418D02*
G01*
X201811066Y-77868934D01*
X201843582Y-77917597D01*
X201855000Y-77975000D01*
X201855000Y-79725000D01*
X201843582Y-79782403D01*
X201811066Y-79831066D01*
X201762403Y-79863582D01*
X201705000Y-79875000D01*
X201405000Y-79875000D01*
X201347597Y-79863582D01*
X201298934Y-79831066D01*
X201266418Y-79782403D01*
X201255000Y-79725000D01*
X201255000Y-77975000D01*
X201266418Y-77917597D01*
X201298934Y-77868934D01*
X201347597Y-77836418D01*
X201405000Y-77825000D01*
X201705000Y-77825000D01*
X201762403Y-77836418D01*
X201762403Y-77836418D01*
G37*
D17*
X201555000Y-78850000D03*
D10*
G36*
X203032403Y-77836418D02*
G01*
X203081066Y-77868934D01*
X203113582Y-77917597D01*
X203125000Y-77975000D01*
X203125000Y-79725000D01*
X203113582Y-79782403D01*
X203081066Y-79831066D01*
X203032403Y-79863582D01*
X202975000Y-79875000D01*
X202675000Y-79875000D01*
X202617597Y-79863582D01*
X202568934Y-79831066D01*
X202536418Y-79782403D01*
X202525000Y-79725000D01*
X202525000Y-77975000D01*
X202536418Y-77917597D01*
X202568934Y-77868934D01*
X202617597Y-77836418D01*
X202675000Y-77825000D01*
X202975000Y-77825000D01*
X203032403Y-77836418D01*
X203032403Y-77836418D01*
G37*
D17*
X202825000Y-78850000D03*
D10*
G36*
X204302403Y-77836418D02*
G01*
X204351066Y-77868934D01*
X204383582Y-77917597D01*
X204395000Y-77975000D01*
X204395000Y-79725000D01*
X204383582Y-79782403D01*
X204351066Y-79831066D01*
X204302403Y-79863582D01*
X204245000Y-79875000D01*
X203945000Y-79875000D01*
X203887597Y-79863582D01*
X203838934Y-79831066D01*
X203806418Y-79782403D01*
X203795000Y-79725000D01*
X203795000Y-77975000D01*
X203806418Y-77917597D01*
X203838934Y-77868934D01*
X203887597Y-77836418D01*
X203945000Y-77825000D01*
X204245000Y-77825000D01*
X204302403Y-77836418D01*
X204302403Y-77836418D01*
G37*
D17*
X204095000Y-78850000D03*
D10*
G36*
X205572403Y-77836418D02*
G01*
X205621066Y-77868934D01*
X205653582Y-77917597D01*
X205665000Y-77975000D01*
X205665000Y-79725000D01*
X205653582Y-79782403D01*
X205621066Y-79831066D01*
X205572403Y-79863582D01*
X205515000Y-79875000D01*
X205215000Y-79875000D01*
X205157597Y-79863582D01*
X205108934Y-79831066D01*
X205076418Y-79782403D01*
X205065000Y-79725000D01*
X205065000Y-77975000D01*
X205076418Y-77917597D01*
X205108934Y-77868934D01*
X205157597Y-77836418D01*
X205215000Y-77825000D01*
X205515000Y-77825000D01*
X205572403Y-77836418D01*
X205572403Y-77836418D01*
G37*
D17*
X205365000Y-78850000D03*
D10*
G36*
X206842403Y-77836418D02*
G01*
X206891066Y-77868934D01*
X206923582Y-77917597D01*
X206935000Y-77975000D01*
X206935000Y-79725000D01*
X206923582Y-79782403D01*
X206891066Y-79831066D01*
X206842403Y-79863582D01*
X206785000Y-79875000D01*
X206485000Y-79875000D01*
X206427597Y-79863582D01*
X206378934Y-79831066D01*
X206346418Y-79782403D01*
X206335000Y-79725000D01*
X206335000Y-77975000D01*
X206346418Y-77917597D01*
X206378934Y-77868934D01*
X206427597Y-77836418D01*
X206485000Y-77825000D01*
X206785000Y-77825000D01*
X206842403Y-77836418D01*
X206842403Y-77836418D01*
G37*
D17*
X206635000Y-78850000D03*
D10*
G36*
X208112403Y-77836418D02*
G01*
X208161066Y-77868934D01*
X208193582Y-77917597D01*
X208205000Y-77975000D01*
X208205000Y-79725000D01*
X208193582Y-79782403D01*
X208161066Y-79831066D01*
X208112403Y-79863582D01*
X208055000Y-79875000D01*
X207755000Y-79875000D01*
X207697597Y-79863582D01*
X207648934Y-79831066D01*
X207616418Y-79782403D01*
X207605000Y-79725000D01*
X207605000Y-77975000D01*
X207616418Y-77917597D01*
X207648934Y-77868934D01*
X207697597Y-77836418D01*
X207755000Y-77825000D01*
X208055000Y-77825000D01*
X208112403Y-77836418D01*
X208112403Y-77836418D01*
G37*
D17*
X207905000Y-78850000D03*
D10*
G36*
X209382403Y-77836418D02*
G01*
X209431066Y-77868934D01*
X209463582Y-77917597D01*
X209475000Y-77975000D01*
X209475000Y-79725000D01*
X209463582Y-79782403D01*
X209431066Y-79831066D01*
X209382403Y-79863582D01*
X209325000Y-79875000D01*
X209025000Y-79875000D01*
X208967597Y-79863582D01*
X208918934Y-79831066D01*
X208886418Y-79782403D01*
X208875000Y-79725000D01*
X208875000Y-77975000D01*
X208886418Y-77917597D01*
X208918934Y-77868934D01*
X208967597Y-77836418D01*
X209025000Y-77825000D01*
X209325000Y-77825000D01*
X209382403Y-77836418D01*
X209382403Y-77836418D01*
G37*
D17*
X209175000Y-78850000D03*
D10*
G36*
X210652403Y-77836418D02*
G01*
X210701066Y-77868934D01*
X210733582Y-77917597D01*
X210745000Y-77975000D01*
X210745000Y-79725000D01*
X210733582Y-79782403D01*
X210701066Y-79831066D01*
X210652403Y-79863582D01*
X210595000Y-79875000D01*
X210295000Y-79875000D01*
X210237597Y-79863582D01*
X210188934Y-79831066D01*
X210156418Y-79782403D01*
X210145000Y-79725000D01*
X210145000Y-77975000D01*
X210156418Y-77917597D01*
X210188934Y-77868934D01*
X210237597Y-77836418D01*
X210295000Y-77825000D01*
X210595000Y-77825000D01*
X210652403Y-77836418D01*
X210652403Y-77836418D01*
G37*
D17*
X210445000Y-78850000D03*
D10*
G36*
X209514962Y-91541651D02*
G01*
X209585930Y-91589070D01*
X209633349Y-91660038D01*
X209650000Y-91743750D01*
X209650000Y-92256250D01*
X209633349Y-92339962D01*
X209585930Y-92410930D01*
X209514962Y-92458349D01*
X209431250Y-92475000D01*
X208993750Y-92475000D01*
X208910038Y-92458349D01*
X208839070Y-92410930D01*
X208791651Y-92339962D01*
X208775000Y-92256250D01*
X208775000Y-91743750D01*
X208791651Y-91660038D01*
X208839070Y-91589070D01*
X208910038Y-91541651D01*
X208993750Y-91525000D01*
X209431250Y-91525000D01*
X209514962Y-91541651D01*
X209514962Y-91541651D01*
G37*
D11*
X209212500Y-92000000D03*
D10*
G36*
X211089962Y-91541651D02*
G01*
X211160930Y-91589070D01*
X211208349Y-91660038D01*
X211225000Y-91743750D01*
X211225000Y-92256250D01*
X211208349Y-92339962D01*
X211160930Y-92410930D01*
X211089962Y-92458349D01*
X211006250Y-92475000D01*
X210568750Y-92475000D01*
X210485038Y-92458349D01*
X210414070Y-92410930D01*
X210366651Y-92339962D01*
X210350000Y-92256250D01*
X210350000Y-91743750D01*
X210366651Y-91660038D01*
X210414070Y-91589070D01*
X210485038Y-91541651D01*
X210568750Y-91525000D01*
X211006250Y-91525000D01*
X211089962Y-91541651D01*
X211089962Y-91541651D01*
G37*
D11*
X210787500Y-92000000D03*
D10*
G36*
X209514962Y-90041651D02*
G01*
X209585930Y-90089070D01*
X209633349Y-90160038D01*
X209650000Y-90243750D01*
X209650000Y-90756250D01*
X209633349Y-90839962D01*
X209585930Y-90910930D01*
X209514962Y-90958349D01*
X209431250Y-90975000D01*
X208993750Y-90975000D01*
X208910038Y-90958349D01*
X208839070Y-90910930D01*
X208791651Y-90839962D01*
X208775000Y-90756250D01*
X208775000Y-90243750D01*
X208791651Y-90160038D01*
X208839070Y-90089070D01*
X208910038Y-90041651D01*
X208993750Y-90025000D01*
X209431250Y-90025000D01*
X209514962Y-90041651D01*
X209514962Y-90041651D01*
G37*
D11*
X209212500Y-90500000D03*
D10*
G36*
X211089962Y-90041651D02*
G01*
X211160930Y-90089070D01*
X211208349Y-90160038D01*
X211225000Y-90243750D01*
X211225000Y-90756250D01*
X211208349Y-90839962D01*
X211160930Y-90910930D01*
X211089962Y-90958349D01*
X211006250Y-90975000D01*
X210568750Y-90975000D01*
X210485038Y-90958349D01*
X210414070Y-90910930D01*
X210366651Y-90839962D01*
X210350000Y-90756250D01*
X210350000Y-90243750D01*
X210366651Y-90160038D01*
X210414070Y-90089070D01*
X210485038Y-90041651D01*
X210568750Y-90025000D01*
X211006250Y-90025000D01*
X211089962Y-90041651D01*
X211089962Y-90041651D01*
G37*
D11*
X210787500Y-90500000D03*
D10*
G36*
X209514962Y-76041651D02*
G01*
X209585930Y-76089070D01*
X209633349Y-76160038D01*
X209650000Y-76243750D01*
X209650000Y-76756250D01*
X209633349Y-76839962D01*
X209585930Y-76910930D01*
X209514962Y-76958349D01*
X209431250Y-76975000D01*
X208993750Y-76975000D01*
X208910038Y-76958349D01*
X208839070Y-76910930D01*
X208791651Y-76839962D01*
X208775000Y-76756250D01*
X208775000Y-76243750D01*
X208791651Y-76160038D01*
X208839070Y-76089070D01*
X208910038Y-76041651D01*
X208993750Y-76025000D01*
X209431250Y-76025000D01*
X209514962Y-76041651D01*
X209514962Y-76041651D01*
G37*
D11*
X209212500Y-76500000D03*
D10*
G36*
X211089962Y-76041651D02*
G01*
X211160930Y-76089070D01*
X211208349Y-76160038D01*
X211225000Y-76243750D01*
X211225000Y-76756250D01*
X211208349Y-76839962D01*
X211160930Y-76910930D01*
X211089962Y-76958349D01*
X211006250Y-76975000D01*
X210568750Y-76975000D01*
X210485038Y-76958349D01*
X210414070Y-76910930D01*
X210366651Y-76839962D01*
X210350000Y-76756250D01*
X210350000Y-76243750D01*
X210366651Y-76160038D01*
X210414070Y-76089070D01*
X210485038Y-76041651D01*
X210568750Y-76025000D01*
X211006250Y-76025000D01*
X211089962Y-76041651D01*
X211089962Y-76041651D01*
G37*
D11*
X210787500Y-76500000D03*
D10*
G36*
X209514962Y-74541651D02*
G01*
X209585930Y-74589070D01*
X209633349Y-74660038D01*
X209650000Y-74743750D01*
X209650000Y-75256250D01*
X209633349Y-75339962D01*
X209585930Y-75410930D01*
X209514962Y-75458349D01*
X209431250Y-75475000D01*
X208993750Y-75475000D01*
X208910038Y-75458349D01*
X208839070Y-75410930D01*
X208791651Y-75339962D01*
X208775000Y-75256250D01*
X208775000Y-74743750D01*
X208791651Y-74660038D01*
X208839070Y-74589070D01*
X208910038Y-74541651D01*
X208993750Y-74525000D01*
X209431250Y-74525000D01*
X209514962Y-74541651D01*
X209514962Y-74541651D01*
G37*
D11*
X209212500Y-75000000D03*
D10*
G36*
X211089962Y-74541651D02*
G01*
X211160930Y-74589070D01*
X211208349Y-74660038D01*
X211225000Y-74743750D01*
X211225000Y-75256250D01*
X211208349Y-75339962D01*
X211160930Y-75410930D01*
X211089962Y-75458349D01*
X211006250Y-75475000D01*
X210568750Y-75475000D01*
X210485038Y-75458349D01*
X210414070Y-75410930D01*
X210366651Y-75339962D01*
X210350000Y-75256250D01*
X210350000Y-74743750D01*
X210366651Y-74660038D01*
X210414070Y-74589070D01*
X210485038Y-74541651D01*
X210568750Y-74525000D01*
X211006250Y-74525000D01*
X211089962Y-74541651D01*
X211089962Y-74541651D01*
G37*
D11*
X210787500Y-75000000D03*
D10*
G36*
X193652403Y-101636418D02*
G01*
X193701066Y-101668934D01*
X193733582Y-101717597D01*
X193745000Y-101775000D01*
X193745000Y-103525000D01*
X193733582Y-103582403D01*
X193701066Y-103631066D01*
X193652403Y-103663582D01*
X193595000Y-103675000D01*
X193295000Y-103675000D01*
X193237597Y-103663582D01*
X193188934Y-103631066D01*
X193156418Y-103582403D01*
X193145000Y-103525000D01*
X193145000Y-101775000D01*
X193156418Y-101717597D01*
X193188934Y-101668934D01*
X193237597Y-101636418D01*
X193295000Y-101625000D01*
X193595000Y-101625000D01*
X193652403Y-101636418D01*
X193652403Y-101636418D01*
G37*
D17*
X193445000Y-102650000D03*
D10*
G36*
X192382403Y-101636418D02*
G01*
X192431066Y-101668934D01*
X192463582Y-101717597D01*
X192475000Y-101775000D01*
X192475000Y-103525000D01*
X192463582Y-103582403D01*
X192431066Y-103631066D01*
X192382403Y-103663582D01*
X192325000Y-103675000D01*
X192025000Y-103675000D01*
X191967597Y-103663582D01*
X191918934Y-103631066D01*
X191886418Y-103582403D01*
X191875000Y-103525000D01*
X191875000Y-101775000D01*
X191886418Y-101717597D01*
X191918934Y-101668934D01*
X191967597Y-101636418D01*
X192025000Y-101625000D01*
X192325000Y-101625000D01*
X192382403Y-101636418D01*
X192382403Y-101636418D01*
G37*
D17*
X192175000Y-102650000D03*
D10*
G36*
X191112403Y-101636418D02*
G01*
X191161066Y-101668934D01*
X191193582Y-101717597D01*
X191205000Y-101775000D01*
X191205000Y-103525000D01*
X191193582Y-103582403D01*
X191161066Y-103631066D01*
X191112403Y-103663582D01*
X191055000Y-103675000D01*
X190755000Y-103675000D01*
X190697597Y-103663582D01*
X190648934Y-103631066D01*
X190616418Y-103582403D01*
X190605000Y-103525000D01*
X190605000Y-101775000D01*
X190616418Y-101717597D01*
X190648934Y-101668934D01*
X190697597Y-101636418D01*
X190755000Y-101625000D01*
X191055000Y-101625000D01*
X191112403Y-101636418D01*
X191112403Y-101636418D01*
G37*
D17*
X190905000Y-102650000D03*
D10*
G36*
X189842403Y-101636418D02*
G01*
X189891066Y-101668934D01*
X189923582Y-101717597D01*
X189935000Y-101775000D01*
X189935000Y-103525000D01*
X189923582Y-103582403D01*
X189891066Y-103631066D01*
X189842403Y-103663582D01*
X189785000Y-103675000D01*
X189485000Y-103675000D01*
X189427597Y-103663582D01*
X189378934Y-103631066D01*
X189346418Y-103582403D01*
X189335000Y-103525000D01*
X189335000Y-101775000D01*
X189346418Y-101717597D01*
X189378934Y-101668934D01*
X189427597Y-101636418D01*
X189485000Y-101625000D01*
X189785000Y-101625000D01*
X189842403Y-101636418D01*
X189842403Y-101636418D01*
G37*
D17*
X189635000Y-102650000D03*
D10*
G36*
X188572403Y-101636418D02*
G01*
X188621066Y-101668934D01*
X188653582Y-101717597D01*
X188665000Y-101775000D01*
X188665000Y-103525000D01*
X188653582Y-103582403D01*
X188621066Y-103631066D01*
X188572403Y-103663582D01*
X188515000Y-103675000D01*
X188215000Y-103675000D01*
X188157597Y-103663582D01*
X188108934Y-103631066D01*
X188076418Y-103582403D01*
X188065000Y-103525000D01*
X188065000Y-101775000D01*
X188076418Y-101717597D01*
X188108934Y-101668934D01*
X188157597Y-101636418D01*
X188215000Y-101625000D01*
X188515000Y-101625000D01*
X188572403Y-101636418D01*
X188572403Y-101636418D01*
G37*
D17*
X188365000Y-102650000D03*
D10*
G36*
X187302403Y-101636418D02*
G01*
X187351066Y-101668934D01*
X187383582Y-101717597D01*
X187395000Y-101775000D01*
X187395000Y-103525000D01*
X187383582Y-103582403D01*
X187351066Y-103631066D01*
X187302403Y-103663582D01*
X187245000Y-103675000D01*
X186945000Y-103675000D01*
X186887597Y-103663582D01*
X186838934Y-103631066D01*
X186806418Y-103582403D01*
X186795000Y-103525000D01*
X186795000Y-101775000D01*
X186806418Y-101717597D01*
X186838934Y-101668934D01*
X186887597Y-101636418D01*
X186945000Y-101625000D01*
X187245000Y-101625000D01*
X187302403Y-101636418D01*
X187302403Y-101636418D01*
G37*
D17*
X187095000Y-102650000D03*
D10*
G36*
X186032403Y-101636418D02*
G01*
X186081066Y-101668934D01*
X186113582Y-101717597D01*
X186125000Y-101775000D01*
X186125000Y-103525000D01*
X186113582Y-103582403D01*
X186081066Y-103631066D01*
X186032403Y-103663582D01*
X185975000Y-103675000D01*
X185675000Y-103675000D01*
X185617597Y-103663582D01*
X185568934Y-103631066D01*
X185536418Y-103582403D01*
X185525000Y-103525000D01*
X185525000Y-101775000D01*
X185536418Y-101717597D01*
X185568934Y-101668934D01*
X185617597Y-101636418D01*
X185675000Y-101625000D01*
X185975000Y-101625000D01*
X186032403Y-101636418D01*
X186032403Y-101636418D01*
G37*
D17*
X185825000Y-102650000D03*
D10*
G36*
X184762403Y-101636418D02*
G01*
X184811066Y-101668934D01*
X184843582Y-101717597D01*
X184855000Y-101775000D01*
X184855000Y-103525000D01*
X184843582Y-103582403D01*
X184811066Y-103631066D01*
X184762403Y-103663582D01*
X184705000Y-103675000D01*
X184405000Y-103675000D01*
X184347597Y-103663582D01*
X184298934Y-103631066D01*
X184266418Y-103582403D01*
X184255000Y-103525000D01*
X184255000Y-101775000D01*
X184266418Y-101717597D01*
X184298934Y-101668934D01*
X184347597Y-101636418D01*
X184405000Y-101625000D01*
X184705000Y-101625000D01*
X184762403Y-101636418D01*
X184762403Y-101636418D01*
G37*
D17*
X184555000Y-102650000D03*
D10*
G36*
X184762403Y-92336418D02*
G01*
X184811066Y-92368934D01*
X184843582Y-92417597D01*
X184855000Y-92475000D01*
X184855000Y-94225000D01*
X184843582Y-94282403D01*
X184811066Y-94331066D01*
X184762403Y-94363582D01*
X184705000Y-94375000D01*
X184405000Y-94375000D01*
X184347597Y-94363582D01*
X184298934Y-94331066D01*
X184266418Y-94282403D01*
X184255000Y-94225000D01*
X184255000Y-92475000D01*
X184266418Y-92417597D01*
X184298934Y-92368934D01*
X184347597Y-92336418D01*
X184405000Y-92325000D01*
X184705000Y-92325000D01*
X184762403Y-92336418D01*
X184762403Y-92336418D01*
G37*
D17*
X184555000Y-93350000D03*
D10*
G36*
X186032403Y-92336418D02*
G01*
X186081066Y-92368934D01*
X186113582Y-92417597D01*
X186125000Y-92475000D01*
X186125000Y-94225000D01*
X186113582Y-94282403D01*
X186081066Y-94331066D01*
X186032403Y-94363582D01*
X185975000Y-94375000D01*
X185675000Y-94375000D01*
X185617597Y-94363582D01*
X185568934Y-94331066D01*
X185536418Y-94282403D01*
X185525000Y-94225000D01*
X185525000Y-92475000D01*
X185536418Y-92417597D01*
X185568934Y-92368934D01*
X185617597Y-92336418D01*
X185675000Y-92325000D01*
X185975000Y-92325000D01*
X186032403Y-92336418D01*
X186032403Y-92336418D01*
G37*
D17*
X185825000Y-93350000D03*
D10*
G36*
X187302403Y-92336418D02*
G01*
X187351066Y-92368934D01*
X187383582Y-92417597D01*
X187395000Y-92475000D01*
X187395000Y-94225000D01*
X187383582Y-94282403D01*
X187351066Y-94331066D01*
X187302403Y-94363582D01*
X187245000Y-94375000D01*
X186945000Y-94375000D01*
X186887597Y-94363582D01*
X186838934Y-94331066D01*
X186806418Y-94282403D01*
X186795000Y-94225000D01*
X186795000Y-92475000D01*
X186806418Y-92417597D01*
X186838934Y-92368934D01*
X186887597Y-92336418D01*
X186945000Y-92325000D01*
X187245000Y-92325000D01*
X187302403Y-92336418D01*
X187302403Y-92336418D01*
G37*
D17*
X187095000Y-93350000D03*
D10*
G36*
X188572403Y-92336418D02*
G01*
X188621066Y-92368934D01*
X188653582Y-92417597D01*
X188665000Y-92475000D01*
X188665000Y-94225000D01*
X188653582Y-94282403D01*
X188621066Y-94331066D01*
X188572403Y-94363582D01*
X188515000Y-94375000D01*
X188215000Y-94375000D01*
X188157597Y-94363582D01*
X188108934Y-94331066D01*
X188076418Y-94282403D01*
X188065000Y-94225000D01*
X188065000Y-92475000D01*
X188076418Y-92417597D01*
X188108934Y-92368934D01*
X188157597Y-92336418D01*
X188215000Y-92325000D01*
X188515000Y-92325000D01*
X188572403Y-92336418D01*
X188572403Y-92336418D01*
G37*
D17*
X188365000Y-93350000D03*
D10*
G36*
X189842403Y-92336418D02*
G01*
X189891066Y-92368934D01*
X189923582Y-92417597D01*
X189935000Y-92475000D01*
X189935000Y-94225000D01*
X189923582Y-94282403D01*
X189891066Y-94331066D01*
X189842403Y-94363582D01*
X189785000Y-94375000D01*
X189485000Y-94375000D01*
X189427597Y-94363582D01*
X189378934Y-94331066D01*
X189346418Y-94282403D01*
X189335000Y-94225000D01*
X189335000Y-92475000D01*
X189346418Y-92417597D01*
X189378934Y-92368934D01*
X189427597Y-92336418D01*
X189485000Y-92325000D01*
X189785000Y-92325000D01*
X189842403Y-92336418D01*
X189842403Y-92336418D01*
G37*
D17*
X189635000Y-93350000D03*
D10*
G36*
X191112403Y-92336418D02*
G01*
X191161066Y-92368934D01*
X191193582Y-92417597D01*
X191205000Y-92475000D01*
X191205000Y-94225000D01*
X191193582Y-94282403D01*
X191161066Y-94331066D01*
X191112403Y-94363582D01*
X191055000Y-94375000D01*
X190755000Y-94375000D01*
X190697597Y-94363582D01*
X190648934Y-94331066D01*
X190616418Y-94282403D01*
X190605000Y-94225000D01*
X190605000Y-92475000D01*
X190616418Y-92417597D01*
X190648934Y-92368934D01*
X190697597Y-92336418D01*
X190755000Y-92325000D01*
X191055000Y-92325000D01*
X191112403Y-92336418D01*
X191112403Y-92336418D01*
G37*
D17*
X190905000Y-93350000D03*
D10*
G36*
X192382403Y-92336418D02*
G01*
X192431066Y-92368934D01*
X192463582Y-92417597D01*
X192475000Y-92475000D01*
X192475000Y-94225000D01*
X192463582Y-94282403D01*
X192431066Y-94331066D01*
X192382403Y-94363582D01*
X192325000Y-94375000D01*
X192025000Y-94375000D01*
X191967597Y-94363582D01*
X191918934Y-94331066D01*
X191886418Y-94282403D01*
X191875000Y-94225000D01*
X191875000Y-92475000D01*
X191886418Y-92417597D01*
X191918934Y-92368934D01*
X191967597Y-92336418D01*
X192025000Y-92325000D01*
X192325000Y-92325000D01*
X192382403Y-92336418D01*
X192382403Y-92336418D01*
G37*
D17*
X192175000Y-93350000D03*
D10*
G36*
X193652403Y-92336418D02*
G01*
X193701066Y-92368934D01*
X193733582Y-92417597D01*
X193745000Y-92475000D01*
X193745000Y-94225000D01*
X193733582Y-94282403D01*
X193701066Y-94331066D01*
X193652403Y-94363582D01*
X193595000Y-94375000D01*
X193295000Y-94375000D01*
X193237597Y-94363582D01*
X193188934Y-94331066D01*
X193156418Y-94282403D01*
X193145000Y-94225000D01*
X193145000Y-92475000D01*
X193156418Y-92417597D01*
X193188934Y-92368934D01*
X193237597Y-92336418D01*
X193295000Y-92325000D01*
X193595000Y-92325000D01*
X193652403Y-92336418D01*
X193652403Y-92336418D01*
G37*
D17*
X193445000Y-93350000D03*
D10*
G36*
X192514962Y-106041651D02*
G01*
X192585930Y-106089070D01*
X192633349Y-106160038D01*
X192650000Y-106243750D01*
X192650000Y-106756250D01*
X192633349Y-106839962D01*
X192585930Y-106910930D01*
X192514962Y-106958349D01*
X192431250Y-106975000D01*
X191993750Y-106975000D01*
X191910038Y-106958349D01*
X191839070Y-106910930D01*
X191791651Y-106839962D01*
X191775000Y-106756250D01*
X191775000Y-106243750D01*
X191791651Y-106160038D01*
X191839070Y-106089070D01*
X191910038Y-106041651D01*
X191993750Y-106025000D01*
X192431250Y-106025000D01*
X192514962Y-106041651D01*
X192514962Y-106041651D01*
G37*
D11*
X192212500Y-106500000D03*
D10*
G36*
X194089962Y-106041651D02*
G01*
X194160930Y-106089070D01*
X194208349Y-106160038D01*
X194225000Y-106243750D01*
X194225000Y-106756250D01*
X194208349Y-106839962D01*
X194160930Y-106910930D01*
X194089962Y-106958349D01*
X194006250Y-106975000D01*
X193568750Y-106975000D01*
X193485038Y-106958349D01*
X193414070Y-106910930D01*
X193366651Y-106839962D01*
X193350000Y-106756250D01*
X193350000Y-106243750D01*
X193366651Y-106160038D01*
X193414070Y-106089070D01*
X193485038Y-106041651D01*
X193568750Y-106025000D01*
X194006250Y-106025000D01*
X194089962Y-106041651D01*
X194089962Y-106041651D01*
G37*
D11*
X193787500Y-106500000D03*
D10*
G36*
X192514962Y-104541651D02*
G01*
X192585930Y-104589070D01*
X192633349Y-104660038D01*
X192650000Y-104743750D01*
X192650000Y-105256250D01*
X192633349Y-105339962D01*
X192585930Y-105410930D01*
X192514962Y-105458349D01*
X192431250Y-105475000D01*
X191993750Y-105475000D01*
X191910038Y-105458349D01*
X191839070Y-105410930D01*
X191791651Y-105339962D01*
X191775000Y-105256250D01*
X191775000Y-104743750D01*
X191791651Y-104660038D01*
X191839070Y-104589070D01*
X191910038Y-104541651D01*
X191993750Y-104525000D01*
X192431250Y-104525000D01*
X192514962Y-104541651D01*
X192514962Y-104541651D01*
G37*
D11*
X192212500Y-105000000D03*
D10*
G36*
X194089962Y-104541651D02*
G01*
X194160930Y-104589070D01*
X194208349Y-104660038D01*
X194225000Y-104743750D01*
X194225000Y-105256250D01*
X194208349Y-105339962D01*
X194160930Y-105410930D01*
X194089962Y-105458349D01*
X194006250Y-105475000D01*
X193568750Y-105475000D01*
X193485038Y-105458349D01*
X193414070Y-105410930D01*
X193366651Y-105339962D01*
X193350000Y-105256250D01*
X193350000Y-104743750D01*
X193366651Y-104660038D01*
X193414070Y-104589070D01*
X193485038Y-104541651D01*
X193568750Y-104525000D01*
X194006250Y-104525000D01*
X194089962Y-104541651D01*
X194089962Y-104541651D01*
G37*
D11*
X193787500Y-105000000D03*
D10*
G36*
X192514962Y-90541651D02*
G01*
X192585930Y-90589070D01*
X192633349Y-90660038D01*
X192650000Y-90743750D01*
X192650000Y-91256250D01*
X192633349Y-91339962D01*
X192585930Y-91410930D01*
X192514962Y-91458349D01*
X192431250Y-91475000D01*
X191993750Y-91475000D01*
X191910038Y-91458349D01*
X191839070Y-91410930D01*
X191791651Y-91339962D01*
X191775000Y-91256250D01*
X191775000Y-90743750D01*
X191791651Y-90660038D01*
X191839070Y-90589070D01*
X191910038Y-90541651D01*
X191993750Y-90525000D01*
X192431250Y-90525000D01*
X192514962Y-90541651D01*
X192514962Y-90541651D01*
G37*
D11*
X192212500Y-91000000D03*
D10*
G36*
X194089962Y-90541651D02*
G01*
X194160930Y-90589070D01*
X194208349Y-90660038D01*
X194225000Y-90743750D01*
X194225000Y-91256250D01*
X194208349Y-91339962D01*
X194160930Y-91410930D01*
X194089962Y-91458349D01*
X194006250Y-91475000D01*
X193568750Y-91475000D01*
X193485038Y-91458349D01*
X193414070Y-91410930D01*
X193366651Y-91339962D01*
X193350000Y-91256250D01*
X193350000Y-90743750D01*
X193366651Y-90660038D01*
X193414070Y-90589070D01*
X193485038Y-90541651D01*
X193568750Y-90525000D01*
X194006250Y-90525000D01*
X194089962Y-90541651D01*
X194089962Y-90541651D01*
G37*
D11*
X193787500Y-91000000D03*
D10*
G36*
X192514962Y-89041651D02*
G01*
X192585930Y-89089070D01*
X192633349Y-89160038D01*
X192650000Y-89243750D01*
X192650000Y-89756250D01*
X192633349Y-89839962D01*
X192585930Y-89910930D01*
X192514962Y-89958349D01*
X192431250Y-89975000D01*
X191993750Y-89975000D01*
X191910038Y-89958349D01*
X191839070Y-89910930D01*
X191791651Y-89839962D01*
X191775000Y-89756250D01*
X191775000Y-89243750D01*
X191791651Y-89160038D01*
X191839070Y-89089070D01*
X191910038Y-89041651D01*
X191993750Y-89025000D01*
X192431250Y-89025000D01*
X192514962Y-89041651D01*
X192514962Y-89041651D01*
G37*
D11*
X192212500Y-89500000D03*
D10*
G36*
X194089962Y-89041651D02*
G01*
X194160930Y-89089070D01*
X194208349Y-89160038D01*
X194225000Y-89243750D01*
X194225000Y-89756250D01*
X194208349Y-89839962D01*
X194160930Y-89910930D01*
X194089962Y-89958349D01*
X194006250Y-89975000D01*
X193568750Y-89975000D01*
X193485038Y-89958349D01*
X193414070Y-89910930D01*
X193366651Y-89839962D01*
X193350000Y-89756250D01*
X193350000Y-89243750D01*
X193366651Y-89160038D01*
X193414070Y-89089070D01*
X193485038Y-89041651D01*
X193568750Y-89025000D01*
X194006250Y-89025000D01*
X194089962Y-89041651D01*
X194089962Y-89041651D01*
G37*
D11*
X193787500Y-89500000D03*
M02*
