G04 #@! TF.GenerationSoftware,KiCad,Pcbnew,6.0.0-rc1-unknown-f1b2855~84~ubuntu16.04.1*
G04 #@! TF.CreationDate,2018-10-23T11:27:57+08:00*
G04 #@! TF.ProjectId,ovc2_mobo,6F7663325F6D6F626F2E6B696361645F,rev?*
G04 #@! TF.SameCoordinates,Original*
G04 #@! TF.FileFunction,Legend,Bot*
G04 #@! TF.FilePolarity,Positive*
%FSLAX46Y46*%
G04 Gerber Fmt 4.6, Leading zero omitted, Abs format (unit mm)*
G04 Created by KiCad (PCBNEW 6.0.0-rc1-unknown-f1b2855~84~ubuntu16.04.1) date Tue 23 Oct 2018 11:27:57 AM +08*
%MOMM*%
%LPD*%
G01*
G04 APERTURE LIST*
%ADD10C,0.200000*%
%ADD11C,0.450000*%
%ADD12C,0.300000*%
%ADD13C,0.150000*%
%ADD14C,0.120000*%
G04 APERTURE END LIST*
D10*
X172285714Y-109404761D02*
X172142857Y-109452380D01*
X171904761Y-109452380D01*
X171809523Y-109404761D01*
X171761904Y-109357142D01*
X171714285Y-109261904D01*
X171714285Y-109166666D01*
X171761904Y-109071428D01*
X171809523Y-109023809D01*
X171904761Y-108976190D01*
X172095238Y-108928571D01*
X172190476Y-108880952D01*
X172238095Y-108833333D01*
X172285714Y-108738095D01*
X172285714Y-108642857D01*
X172238095Y-108547619D01*
X172190476Y-108500000D01*
X172095238Y-108452380D01*
X171857142Y-108452380D01*
X171714285Y-108500000D01*
X170714285Y-109357142D02*
X170761904Y-109404761D01*
X170904761Y-109452380D01*
X171000000Y-109452380D01*
X171142857Y-109404761D01*
X171238095Y-109309523D01*
X171285714Y-109214285D01*
X171333333Y-109023809D01*
X171333333Y-108880952D01*
X171285714Y-108690476D01*
X171238095Y-108595238D01*
X171142857Y-108500000D01*
X171000000Y-108452380D01*
X170904761Y-108452380D01*
X170761904Y-108500000D01*
X170714285Y-108547619D01*
X170285714Y-109452380D02*
X170285714Y-108452380D01*
X169714285Y-109452380D02*
X170142857Y-108880952D01*
X169714285Y-108452380D02*
X170285714Y-109023809D01*
X180261904Y-108500000D02*
X180357142Y-108452380D01*
X180500000Y-108452380D01*
X180642857Y-108500000D01*
X180738095Y-108595238D01*
X180785714Y-108690476D01*
X180833333Y-108880952D01*
X180833333Y-109023809D01*
X180785714Y-109214285D01*
X180738095Y-109309523D01*
X180642857Y-109404761D01*
X180500000Y-109452380D01*
X180404761Y-109452380D01*
X180261904Y-109404761D01*
X180214285Y-109357142D01*
X180214285Y-109023809D01*
X180404761Y-109023809D01*
X179785714Y-109452380D02*
X179785714Y-108452380D01*
X179214285Y-109452380D01*
X179214285Y-108452380D01*
X178738095Y-109452380D02*
X178738095Y-108452380D01*
X178500000Y-108452380D01*
X178357142Y-108500000D01*
X178261904Y-108595238D01*
X178214285Y-108690476D01*
X178166666Y-108880952D01*
X178166666Y-109023809D01*
X178214285Y-109214285D01*
X178261904Y-109309523D01*
X178357142Y-109404761D01*
X178500000Y-109452380D01*
X178738095Y-109452380D01*
X179666666Y-106857142D02*
X179714285Y-106904761D01*
X179857142Y-106952380D01*
X179952380Y-106952380D01*
X180095238Y-106904761D01*
X180190476Y-106809523D01*
X180238095Y-106714285D01*
X180285714Y-106523809D01*
X180285714Y-106380952D01*
X180238095Y-106190476D01*
X180190476Y-106095238D01*
X180095238Y-106000000D01*
X179952380Y-105952380D01*
X179857142Y-105952380D01*
X179714285Y-106000000D01*
X179666666Y-106047619D01*
X179285714Y-106904761D02*
X179142857Y-106952380D01*
X178904761Y-106952380D01*
X178809523Y-106904761D01*
X178761904Y-106857142D01*
X178714285Y-106761904D01*
X178714285Y-106666666D01*
X178761904Y-106571428D01*
X178809523Y-106523809D01*
X178904761Y-106476190D01*
X179095238Y-106428571D01*
X179190476Y-106380952D01*
X179238095Y-106333333D01*
X179285714Y-106238095D01*
X179285714Y-106142857D01*
X179238095Y-106047619D01*
X179190476Y-106000000D01*
X179095238Y-105952380D01*
X178857142Y-105952380D01*
X178714285Y-106000000D01*
X172571428Y-106952380D02*
X172571428Y-105952380D01*
X172238095Y-106666666D01*
X171904761Y-105952380D01*
X171904761Y-106952380D01*
X171428571Y-106952380D02*
X171428571Y-105952380D01*
X171000000Y-106904761D02*
X170857142Y-106952380D01*
X170619047Y-106952380D01*
X170523809Y-106904761D01*
X170476190Y-106857142D01*
X170428571Y-106761904D01*
X170428571Y-106666666D01*
X170476190Y-106571428D01*
X170523809Y-106523809D01*
X170619047Y-106476190D01*
X170809523Y-106428571D01*
X170904761Y-106380952D01*
X170952380Y-106333333D01*
X171000000Y-106238095D01*
X171000000Y-106142857D01*
X170952380Y-106047619D01*
X170904761Y-106000000D01*
X170809523Y-105952380D01*
X170571428Y-105952380D01*
X170428571Y-106000000D01*
X169809523Y-105952380D02*
X169619047Y-105952380D01*
X169523809Y-106000000D01*
X169428571Y-106095238D01*
X169380952Y-106285714D01*
X169380952Y-106619047D01*
X169428571Y-106809523D01*
X169523809Y-106904761D01*
X169619047Y-106952380D01*
X169809523Y-106952380D01*
X169904761Y-106904761D01*
X170000000Y-106809523D01*
X170047619Y-106619047D01*
X170047619Y-106285714D01*
X170000000Y-106095238D01*
X169904761Y-106000000D01*
X169809523Y-105952380D01*
X172571428Y-104452380D02*
X172571428Y-103452380D01*
X172238095Y-104166666D01*
X171904761Y-103452380D01*
X171904761Y-104452380D01*
X171238095Y-103452380D02*
X171047619Y-103452380D01*
X170952380Y-103500000D01*
X170857142Y-103595238D01*
X170809523Y-103785714D01*
X170809523Y-104119047D01*
X170857142Y-104309523D01*
X170952380Y-104404761D01*
X171047619Y-104452380D01*
X171238095Y-104452380D01*
X171333333Y-104404761D01*
X171428571Y-104309523D01*
X171476190Y-104119047D01*
X171476190Y-103785714D01*
X171428571Y-103595238D01*
X171333333Y-103500000D01*
X171238095Y-103452380D01*
X170428571Y-104404761D02*
X170285714Y-104452380D01*
X170047619Y-104452380D01*
X169952380Y-104404761D01*
X169904761Y-104357142D01*
X169857142Y-104261904D01*
X169857142Y-104166666D01*
X169904761Y-104071428D01*
X169952380Y-104023809D01*
X170047619Y-103976190D01*
X170238095Y-103928571D01*
X170333333Y-103880952D01*
X170380952Y-103833333D01*
X170428571Y-103738095D01*
X170428571Y-103642857D01*
X170380952Y-103547619D01*
X170333333Y-103500000D01*
X170238095Y-103452380D01*
X170000000Y-103452380D01*
X169857142Y-103500000D01*
X169428571Y-104452380D02*
X169428571Y-103452380D01*
X180690476Y-104404761D02*
X180547619Y-104452380D01*
X180309523Y-104452380D01*
X180214285Y-104404761D01*
X180166666Y-104357142D01*
X180119047Y-104261904D01*
X180119047Y-104166666D01*
X180166666Y-104071428D01*
X180214285Y-104023809D01*
X180309523Y-103976190D01*
X180500000Y-103928571D01*
X180595238Y-103880952D01*
X180642857Y-103833333D01*
X180690476Y-103738095D01*
X180690476Y-103642857D01*
X180642857Y-103547619D01*
X180595238Y-103500000D01*
X180500000Y-103452380D01*
X180261904Y-103452380D01*
X180119047Y-103500000D01*
X179119047Y-104357142D02*
X179166666Y-104404761D01*
X179309523Y-104452380D01*
X179404761Y-104452380D01*
X179547619Y-104404761D01*
X179642857Y-104309523D01*
X179690476Y-104214285D01*
X179738095Y-104023809D01*
X179738095Y-103880952D01*
X179690476Y-103690476D01*
X179642857Y-103595238D01*
X179547619Y-103500000D01*
X179404761Y-103452380D01*
X179309523Y-103452380D01*
X179166666Y-103500000D01*
X179119047Y-103547619D01*
X178214285Y-104452380D02*
X178690476Y-104452380D01*
X178690476Y-103452380D01*
X180738095Y-98452380D02*
X180119047Y-98452380D01*
X180452380Y-98833333D01*
X180309523Y-98833333D01*
X180214285Y-98880952D01*
X180166666Y-98928571D01*
X180119047Y-99023809D01*
X180119047Y-99261904D01*
X180166666Y-99357142D01*
X180214285Y-99404761D01*
X180309523Y-99452380D01*
X180595238Y-99452380D01*
X180690476Y-99404761D01*
X180738095Y-99357142D01*
X179833333Y-98452380D02*
X179500000Y-99452380D01*
X179166666Y-98452380D01*
X178928571Y-98452380D02*
X178309523Y-98452380D01*
X178642857Y-98833333D01*
X178500000Y-98833333D01*
X178404761Y-98880952D01*
X178357142Y-98928571D01*
X178309523Y-99023809D01*
X178309523Y-99261904D01*
X178357142Y-99357142D01*
X178404761Y-99404761D01*
X178500000Y-99452380D01*
X178785714Y-99452380D01*
X178880952Y-99404761D01*
X178928571Y-99357142D01*
X180261904Y-101000000D02*
X180357142Y-100952380D01*
X180500000Y-100952380D01*
X180642857Y-101000000D01*
X180738095Y-101095238D01*
X180785714Y-101190476D01*
X180833333Y-101380952D01*
X180833333Y-101523809D01*
X180785714Y-101714285D01*
X180738095Y-101809523D01*
X180642857Y-101904761D01*
X180500000Y-101952380D01*
X180404761Y-101952380D01*
X180261904Y-101904761D01*
X180214285Y-101857142D01*
X180214285Y-101523809D01*
X180404761Y-101523809D01*
X179785714Y-101952380D02*
X179785714Y-100952380D01*
X179214285Y-101952380D01*
X179214285Y-100952380D01*
X178738095Y-101952380D02*
X178738095Y-100952380D01*
X178500000Y-100952380D01*
X178357142Y-101000000D01*
X178261904Y-101095238D01*
X178214285Y-101190476D01*
X178166666Y-101380952D01*
X178166666Y-101523809D01*
X178214285Y-101714285D01*
X178261904Y-101809523D01*
X178357142Y-101904761D01*
X178500000Y-101952380D01*
X178738095Y-101952380D01*
X172214285Y-101904761D02*
X172071428Y-101952380D01*
X171833333Y-101952380D01*
X171738095Y-101904761D01*
X171690476Y-101857142D01*
X171642857Y-101761904D01*
X171642857Y-101666666D01*
X171690476Y-101571428D01*
X171738095Y-101523809D01*
X171833333Y-101476190D01*
X172023809Y-101428571D01*
X172119047Y-101380952D01*
X172166666Y-101333333D01*
X172214285Y-101238095D01*
X172214285Y-101142857D01*
X172166666Y-101047619D01*
X172119047Y-101000000D01*
X172023809Y-100952380D01*
X171785714Y-100952380D01*
X171642857Y-101000000D01*
X171214285Y-101952380D02*
X171214285Y-100952380D01*
X170976190Y-100952380D01*
X170833333Y-101000000D01*
X170738095Y-101095238D01*
X170690476Y-101190476D01*
X170642857Y-101380952D01*
X170642857Y-101523809D01*
X170690476Y-101714285D01*
X170738095Y-101809523D01*
X170833333Y-101904761D01*
X170976190Y-101952380D01*
X171214285Y-101952380D01*
X170261904Y-101666666D02*
X169785714Y-101666666D01*
X170357142Y-101952380D02*
X170023809Y-100952380D01*
X169690476Y-101952380D01*
X172000000Y-98500000D02*
X172095238Y-98452380D01*
X172238095Y-98452380D01*
X172380952Y-98500000D01*
X172476190Y-98595238D01*
X172523809Y-98690476D01*
X172571428Y-98880952D01*
X172571428Y-99023809D01*
X172523809Y-99214285D01*
X172476190Y-99309523D01*
X172380952Y-99404761D01*
X172238095Y-99452380D01*
X172142857Y-99452380D01*
X172000000Y-99404761D01*
X171952380Y-99357142D01*
X171952380Y-99023809D01*
X172142857Y-99023809D01*
X171523809Y-99452380D02*
X171523809Y-98452380D01*
X171142857Y-98452380D01*
X171047619Y-98500000D01*
X171000000Y-98547619D01*
X170952380Y-98642857D01*
X170952380Y-98785714D01*
X171000000Y-98880952D01*
X171047619Y-98928571D01*
X171142857Y-98976190D01*
X171523809Y-98976190D01*
X170523809Y-99452380D02*
X170523809Y-98452380D01*
X169857142Y-98452380D02*
X169666666Y-98452380D01*
X169571428Y-98500000D01*
X169476190Y-98595238D01*
X169428571Y-98785714D01*
X169428571Y-99119047D01*
X169476190Y-99309523D01*
X169571428Y-99404761D01*
X169666666Y-99452380D01*
X169857142Y-99452380D01*
X169952380Y-99404761D01*
X170047619Y-99309523D01*
X170095238Y-99119047D01*
X170095238Y-98785714D01*
X170047619Y-98595238D01*
X169952380Y-98500000D01*
X169857142Y-98452380D01*
D11*
X179485714Y-123040476D02*
X179485714Y-120740476D01*
X178500000Y-123040476D02*
X178500000Y-121835714D01*
X178609523Y-121616666D01*
X178828571Y-121507142D01*
X179157142Y-121507142D01*
X179376190Y-121616666D01*
X179485714Y-121726190D01*
X177733333Y-121507142D02*
X176857142Y-121507142D01*
X177404761Y-120740476D02*
X177404761Y-122711904D01*
X177295238Y-122930952D01*
X177076190Y-123040476D01*
X176857142Y-123040476D01*
X176419047Y-121507142D02*
X175542857Y-121507142D01*
X176090476Y-120740476D02*
X176090476Y-122711904D01*
X175980952Y-122930952D01*
X175761904Y-123040476D01*
X175542857Y-123040476D01*
X174776190Y-121507142D02*
X174776190Y-123807142D01*
X174776190Y-121616666D02*
X174557142Y-121507142D01*
X174119047Y-121507142D01*
X173900000Y-121616666D01*
X173790476Y-121726190D01*
X173680952Y-121945238D01*
X173680952Y-122602380D01*
X173790476Y-122821428D01*
X173900000Y-122930952D01*
X174119047Y-123040476D01*
X174557142Y-123040476D01*
X174776190Y-122930952D01*
X172695238Y-122821428D02*
X172585714Y-122930952D01*
X172695238Y-123040476D01*
X172804761Y-122930952D01*
X172695238Y-122821428D01*
X172695238Y-123040476D01*
X172695238Y-121616666D02*
X172585714Y-121726190D01*
X172695238Y-121835714D01*
X172804761Y-121726190D01*
X172695238Y-121616666D01*
X172695238Y-121835714D01*
X169957142Y-120630952D02*
X171928571Y-123588095D01*
X167547619Y-120630952D02*
X169519047Y-123588095D01*
X166452380Y-123040476D02*
X166671428Y-122930952D01*
X166780952Y-122821428D01*
X166890476Y-122602380D01*
X166890476Y-121945238D01*
X166780952Y-121726190D01*
X166671428Y-121616666D01*
X166452380Y-121507142D01*
X166123809Y-121507142D01*
X165904761Y-121616666D01*
X165795238Y-121726190D01*
X165685714Y-121945238D01*
X165685714Y-122602380D01*
X165795238Y-122821428D01*
X165904761Y-122930952D01*
X166123809Y-123040476D01*
X166452380Y-123040476D01*
X164700000Y-121507142D02*
X164700000Y-123807142D01*
X164700000Y-121616666D02*
X164480952Y-121507142D01*
X164042857Y-121507142D01*
X163823809Y-121616666D01*
X163714285Y-121726190D01*
X163604761Y-121945238D01*
X163604761Y-122602380D01*
X163714285Y-122821428D01*
X163823809Y-122930952D01*
X164042857Y-123040476D01*
X164480952Y-123040476D01*
X164700000Y-122930952D01*
X161742857Y-122930952D02*
X161961904Y-123040476D01*
X162400000Y-123040476D01*
X162619047Y-122930952D01*
X162728571Y-122711904D01*
X162728571Y-121835714D01*
X162619047Y-121616666D01*
X162400000Y-121507142D01*
X161961904Y-121507142D01*
X161742857Y-121616666D01*
X161633333Y-121835714D01*
X161633333Y-122054761D01*
X162728571Y-122273809D01*
X160647619Y-121507142D02*
X160647619Y-123040476D01*
X160647619Y-121726190D02*
X160538095Y-121616666D01*
X160319047Y-121507142D01*
X159990476Y-121507142D01*
X159771428Y-121616666D01*
X159661904Y-121835714D01*
X159661904Y-123040476D01*
X158566666Y-122821428D02*
X158457142Y-122930952D01*
X158566666Y-123040476D01*
X158676190Y-122930952D01*
X158566666Y-122821428D01*
X158566666Y-123040476D01*
X157690476Y-121507142D02*
X157142857Y-123040476D01*
X156595238Y-121507142D01*
X155719047Y-123040476D02*
X155719047Y-121507142D01*
X155719047Y-120740476D02*
X155828571Y-120850000D01*
X155719047Y-120959523D01*
X155609523Y-120850000D01*
X155719047Y-120740476D01*
X155719047Y-120959523D01*
X154733333Y-122930952D02*
X154514285Y-123040476D01*
X154076190Y-123040476D01*
X153857142Y-122930952D01*
X153747619Y-122711904D01*
X153747619Y-122602380D01*
X153857142Y-122383333D01*
X154076190Y-122273809D01*
X154404761Y-122273809D01*
X154623809Y-122164285D01*
X154733333Y-121945238D01*
X154733333Y-121835714D01*
X154623809Y-121616666D01*
X154404761Y-121507142D01*
X154076190Y-121507142D01*
X153857142Y-121616666D01*
X152761904Y-123040476D02*
X152761904Y-121507142D01*
X152761904Y-120740476D02*
X152871428Y-120850000D01*
X152761904Y-120959523D01*
X152652380Y-120850000D01*
X152761904Y-120740476D01*
X152761904Y-120959523D01*
X151338095Y-123040476D02*
X151557142Y-122930952D01*
X151666666Y-122821428D01*
X151776190Y-122602380D01*
X151776190Y-121945238D01*
X151666666Y-121726190D01*
X151557142Y-121616666D01*
X151338095Y-121507142D01*
X151009523Y-121507142D01*
X150790476Y-121616666D01*
X150680952Y-121726190D01*
X150571428Y-121945238D01*
X150571428Y-122602380D01*
X150680952Y-122821428D01*
X150790476Y-122930952D01*
X151009523Y-123040476D01*
X151338095Y-123040476D01*
X149585714Y-121507142D02*
X149585714Y-123040476D01*
X149585714Y-121726190D02*
X149476190Y-121616666D01*
X149257142Y-121507142D01*
X148928571Y-121507142D01*
X148709523Y-121616666D01*
X148600000Y-121835714D01*
X148600000Y-123040476D01*
X147504761Y-122821428D02*
X147395238Y-122930952D01*
X147504761Y-123040476D01*
X147614285Y-122930952D01*
X147504761Y-122821428D01*
X147504761Y-123040476D01*
X145423809Y-122930952D02*
X145642857Y-123040476D01*
X146080952Y-123040476D01*
X146300000Y-122930952D01*
X146409523Y-122821428D01*
X146519047Y-122602380D01*
X146519047Y-121945238D01*
X146409523Y-121726190D01*
X146300000Y-121616666D01*
X146080952Y-121507142D01*
X145642857Y-121507142D01*
X145423809Y-121616666D01*
X144109523Y-123040476D02*
X144328571Y-122930952D01*
X144438095Y-122821428D01*
X144547619Y-122602380D01*
X144547619Y-121945238D01*
X144438095Y-121726190D01*
X144328571Y-121616666D01*
X144109523Y-121507142D01*
X143780952Y-121507142D01*
X143561904Y-121616666D01*
X143452380Y-121726190D01*
X143342857Y-121945238D01*
X143342857Y-122602380D01*
X143452380Y-122821428D01*
X143561904Y-122930952D01*
X143780952Y-123040476D01*
X144109523Y-123040476D01*
X142357142Y-123040476D02*
X142357142Y-121507142D01*
X142357142Y-121726190D02*
X142247619Y-121616666D01*
X142028571Y-121507142D01*
X141700000Y-121507142D01*
X141480952Y-121616666D01*
X141371428Y-121835714D01*
X141371428Y-123040476D01*
X141371428Y-121835714D02*
X141261904Y-121616666D01*
X141042857Y-121507142D01*
X140714285Y-121507142D01*
X140495238Y-121616666D01*
X140385714Y-121835714D01*
X140385714Y-123040476D01*
X139290476Y-121507142D02*
X139290476Y-123807142D01*
X139290476Y-121616666D02*
X139071428Y-121507142D01*
X138633333Y-121507142D01*
X138414285Y-121616666D01*
X138304761Y-121726190D01*
X138195238Y-121945238D01*
X138195238Y-122602380D01*
X138304761Y-122821428D01*
X138414285Y-122930952D01*
X138633333Y-123040476D01*
X139071428Y-123040476D01*
X139290476Y-122930952D01*
X136223809Y-121507142D02*
X136223809Y-123040476D01*
X137209523Y-121507142D02*
X137209523Y-122711904D01*
X137100000Y-122930952D01*
X136880952Y-123040476D01*
X136552380Y-123040476D01*
X136333333Y-122930952D01*
X136223809Y-122821428D01*
X135457142Y-121507142D02*
X134580952Y-121507142D01*
X135128571Y-120740476D02*
X135128571Y-122711904D01*
X135019047Y-122930952D01*
X134800000Y-123040476D01*
X134580952Y-123040476D01*
X132938095Y-122930952D02*
X133157142Y-123040476D01*
X133595238Y-123040476D01*
X133814285Y-122930952D01*
X133923809Y-122711904D01*
X133923809Y-121835714D01*
X133814285Y-121616666D01*
X133595238Y-121507142D01*
X133157142Y-121507142D01*
X132938095Y-121616666D01*
X132828571Y-121835714D01*
X132828571Y-122054761D01*
X133923809Y-122273809D01*
X131842857Y-123040476D02*
X131842857Y-121507142D01*
X131842857Y-121945238D02*
X131733333Y-121726190D01*
X131623809Y-121616666D01*
X131404761Y-121507142D01*
X131185714Y-121507142D01*
D12*
X179233571Y-115403571D02*
X179376428Y-115332142D01*
X179447857Y-115260714D01*
X179519285Y-115117857D01*
X179519285Y-114689285D01*
X179447857Y-114546428D01*
X179376428Y-114475000D01*
X179233571Y-114403571D01*
X179019285Y-114403571D01*
X178876428Y-114475000D01*
X178805000Y-114546428D01*
X178733571Y-114689285D01*
X178733571Y-115117857D01*
X178805000Y-115260714D01*
X178876428Y-115332142D01*
X179019285Y-115403571D01*
X179233571Y-115403571D01*
X178090714Y-114403571D02*
X178090714Y-115903571D01*
X178090714Y-114475000D02*
X177947857Y-114403571D01*
X177662142Y-114403571D01*
X177519285Y-114475000D01*
X177447857Y-114546428D01*
X177376428Y-114689285D01*
X177376428Y-115117857D01*
X177447857Y-115260714D01*
X177519285Y-115332142D01*
X177662142Y-115403571D01*
X177947857Y-115403571D01*
X178090714Y-115332142D01*
X176162142Y-115332142D02*
X176305000Y-115403571D01*
X176590714Y-115403571D01*
X176733571Y-115332142D01*
X176805000Y-115189285D01*
X176805000Y-114617857D01*
X176733571Y-114475000D01*
X176590714Y-114403571D01*
X176305000Y-114403571D01*
X176162142Y-114475000D01*
X176090714Y-114617857D01*
X176090714Y-114760714D01*
X176805000Y-114903571D01*
X175447857Y-114403571D02*
X175447857Y-115403571D01*
X175447857Y-114546428D02*
X175376428Y-114475000D01*
X175233571Y-114403571D01*
X175019285Y-114403571D01*
X174876428Y-114475000D01*
X174805000Y-114617857D01*
X174805000Y-115403571D01*
X173090714Y-114403571D02*
X172733571Y-115403571D01*
X172376428Y-114403571D01*
X171805000Y-115403571D02*
X171805000Y-114403571D01*
X171805000Y-113903571D02*
X171876428Y-113975000D01*
X171805000Y-114046428D01*
X171733571Y-113975000D01*
X171805000Y-113903571D01*
X171805000Y-114046428D01*
X171162142Y-115332142D02*
X171019285Y-115403571D01*
X170733571Y-115403571D01*
X170590714Y-115332142D01*
X170519285Y-115189285D01*
X170519285Y-115117857D01*
X170590714Y-114975000D01*
X170733571Y-114903571D01*
X170947857Y-114903571D01*
X171090714Y-114832142D01*
X171162142Y-114689285D01*
X171162142Y-114617857D01*
X171090714Y-114475000D01*
X170947857Y-114403571D01*
X170733571Y-114403571D01*
X170590714Y-114475000D01*
X169876428Y-115403571D02*
X169876428Y-114403571D01*
X169876428Y-113903571D02*
X169947857Y-113975000D01*
X169876428Y-114046428D01*
X169805000Y-113975000D01*
X169876428Y-113903571D01*
X169876428Y-114046428D01*
X168947857Y-115403571D02*
X169090714Y-115332142D01*
X169162142Y-115260714D01*
X169233571Y-115117857D01*
X169233571Y-114689285D01*
X169162142Y-114546428D01*
X169090714Y-114475000D01*
X168947857Y-114403571D01*
X168733571Y-114403571D01*
X168590714Y-114475000D01*
X168519285Y-114546428D01*
X168447857Y-114689285D01*
X168447857Y-115117857D01*
X168519285Y-115260714D01*
X168590714Y-115332142D01*
X168733571Y-115403571D01*
X168947857Y-115403571D01*
X167805000Y-114403571D02*
X167805000Y-115403571D01*
X167805000Y-114546428D02*
X167733571Y-114475000D01*
X167590714Y-114403571D01*
X167376428Y-114403571D01*
X167233571Y-114475000D01*
X167162142Y-114617857D01*
X167162142Y-115403571D01*
X164662142Y-115332142D02*
X164805000Y-115403571D01*
X165090714Y-115403571D01*
X165233571Y-115332142D01*
X165305000Y-115260714D01*
X165376428Y-115117857D01*
X165376428Y-114689285D01*
X165305000Y-114546428D01*
X165233571Y-114475000D01*
X165090714Y-114403571D01*
X164805000Y-114403571D01*
X164662142Y-114475000D01*
X163805000Y-115403571D02*
X163947857Y-115332142D01*
X164019285Y-115260714D01*
X164090714Y-115117857D01*
X164090714Y-114689285D01*
X164019285Y-114546428D01*
X163947857Y-114475000D01*
X163805000Y-114403571D01*
X163590714Y-114403571D01*
X163447857Y-114475000D01*
X163376428Y-114546428D01*
X163305000Y-114689285D01*
X163305000Y-115117857D01*
X163376428Y-115260714D01*
X163447857Y-115332142D01*
X163590714Y-115403571D01*
X163805000Y-115403571D01*
X162662142Y-115403571D02*
X162662142Y-114403571D01*
X162662142Y-114546428D02*
X162590714Y-114475000D01*
X162447857Y-114403571D01*
X162233571Y-114403571D01*
X162090714Y-114475000D01*
X162019285Y-114617857D01*
X162019285Y-115403571D01*
X162019285Y-114617857D02*
X161947857Y-114475000D01*
X161805000Y-114403571D01*
X161590714Y-114403571D01*
X161447857Y-114475000D01*
X161376428Y-114617857D01*
X161376428Y-115403571D01*
X160662142Y-114403571D02*
X160662142Y-115903571D01*
X160662142Y-114475000D02*
X160519285Y-114403571D01*
X160233571Y-114403571D01*
X160090714Y-114475000D01*
X160019285Y-114546428D01*
X159947857Y-114689285D01*
X159947857Y-115117857D01*
X160019285Y-115260714D01*
X160090714Y-115332142D01*
X160233571Y-115403571D01*
X160519285Y-115403571D01*
X160662142Y-115332142D01*
X158662142Y-114403571D02*
X158662142Y-115403571D01*
X159305000Y-114403571D02*
X159305000Y-115189285D01*
X159233571Y-115332142D01*
X159090714Y-115403571D01*
X158876428Y-115403571D01*
X158733571Y-115332142D01*
X158662142Y-115260714D01*
X158162142Y-114403571D02*
X157590714Y-114403571D01*
X157947857Y-113903571D02*
X157947857Y-115189285D01*
X157876428Y-115332142D01*
X157733571Y-115403571D01*
X157590714Y-115403571D01*
X156519285Y-115332142D02*
X156662142Y-115403571D01*
X156947857Y-115403571D01*
X157090714Y-115332142D01*
X157162142Y-115189285D01*
X157162142Y-114617857D01*
X157090714Y-114475000D01*
X156947857Y-114403571D01*
X156662142Y-114403571D01*
X156519285Y-114475000D01*
X156447857Y-114617857D01*
X156447857Y-114760714D01*
X157162142Y-114903571D01*
X155805000Y-115403571D02*
X155805000Y-114403571D01*
X155805000Y-114689285D02*
X155733571Y-114546428D01*
X155662142Y-114475000D01*
X155519285Y-114403571D01*
X155376428Y-114403571D01*
X153805000Y-114046428D02*
X153733571Y-113975000D01*
X153590714Y-113903571D01*
X153233571Y-113903571D01*
X153090714Y-113975000D01*
X153019285Y-114046428D01*
X152947857Y-114189285D01*
X152947857Y-114332142D01*
X153019285Y-114546428D01*
X153876428Y-115403571D01*
X152947857Y-115403571D01*
X152305000Y-115403571D02*
X152305000Y-113903571D01*
X152305000Y-114475000D02*
X152162142Y-114403571D01*
X151876428Y-114403571D01*
X151733571Y-114475000D01*
X151662142Y-114546428D01*
X151590714Y-114689285D01*
X151590714Y-115117857D01*
X151662142Y-115260714D01*
X151733571Y-115332142D01*
X151876428Y-115403571D01*
X152162142Y-115403571D01*
X152305000Y-115332142D01*
X179233571Y-117953571D02*
X179376428Y-117882142D01*
X179447857Y-117810714D01*
X179519285Y-117667857D01*
X179519285Y-117239285D01*
X179447857Y-117096428D01*
X179376428Y-117025000D01*
X179233571Y-116953571D01*
X179019285Y-116953571D01*
X178876428Y-117025000D01*
X178805000Y-117096428D01*
X178733571Y-117239285D01*
X178733571Y-117667857D01*
X178805000Y-117810714D01*
X178876428Y-117882142D01*
X179019285Y-117953571D01*
X179233571Y-117953571D01*
X178233571Y-116953571D02*
X177876428Y-117953571D01*
X177519285Y-116953571D01*
X176305000Y-117882142D02*
X176447857Y-117953571D01*
X176733571Y-117953571D01*
X176876428Y-117882142D01*
X176947857Y-117810714D01*
X177019285Y-117667857D01*
X177019285Y-117239285D01*
X176947857Y-117096428D01*
X176876428Y-117025000D01*
X176733571Y-116953571D01*
X176447857Y-116953571D01*
X176305000Y-117025000D01*
X175733571Y-116596428D02*
X175662142Y-116525000D01*
X175519285Y-116453571D01*
X175162142Y-116453571D01*
X175019285Y-116525000D01*
X174947857Y-116596428D01*
X174876428Y-116739285D01*
X174876428Y-116882142D01*
X174947857Y-117096428D01*
X175805000Y-117953571D01*
X174876428Y-117953571D01*
X173090714Y-117953571D02*
X173090714Y-116953571D01*
X173090714Y-117239285D02*
X173019285Y-117096428D01*
X172947857Y-117025000D01*
X172805000Y-116953571D01*
X172662142Y-116953571D01*
X171590714Y-117882142D02*
X171733571Y-117953571D01*
X172019285Y-117953571D01*
X172162142Y-117882142D01*
X172233571Y-117739285D01*
X172233571Y-117167857D01*
X172162142Y-117025000D01*
X172019285Y-116953571D01*
X171733571Y-116953571D01*
X171590714Y-117025000D01*
X171519285Y-117167857D01*
X171519285Y-117310714D01*
X172233571Y-117453571D01*
X171019285Y-116953571D02*
X170662142Y-117953571D01*
X170305000Y-116953571D01*
X168090714Y-117167857D02*
X167876428Y-117239285D01*
X167805000Y-117310714D01*
X167733571Y-117453571D01*
X167733571Y-117667857D01*
X167805000Y-117810714D01*
X167876428Y-117882142D01*
X168019285Y-117953571D01*
X168590714Y-117953571D01*
X168590714Y-116453571D01*
X168090714Y-116453571D01*
X167947857Y-116525000D01*
X167876428Y-116596428D01*
X167805000Y-116739285D01*
X167805000Y-116882142D01*
X167876428Y-117025000D01*
X167947857Y-117096428D01*
X168090714Y-117167857D01*
X168590714Y-117167857D01*
X163376428Y-116453571D02*
X163090714Y-116453571D01*
X162947857Y-116525000D01*
X162805000Y-116667857D01*
X162733571Y-116953571D01*
X162733571Y-117453571D01*
X162805000Y-117739285D01*
X162947857Y-117882142D01*
X163090714Y-117953571D01*
X163376428Y-117953571D01*
X163519285Y-117882142D01*
X163662142Y-117739285D01*
X163733571Y-117453571D01*
X163733571Y-116953571D01*
X163662142Y-116667857D01*
X163519285Y-116525000D01*
X163376428Y-116453571D01*
X161447857Y-117882142D02*
X161590714Y-117953571D01*
X161876428Y-117953571D01*
X162019285Y-117882142D01*
X162090714Y-117810714D01*
X162162142Y-117667857D01*
X162162142Y-117239285D01*
X162090714Y-117096428D01*
X162019285Y-117025000D01*
X161876428Y-116953571D01*
X161590714Y-116953571D01*
X161447857Y-117025000D01*
X161019285Y-116953571D02*
X160447857Y-116953571D01*
X160805000Y-116453571D02*
X160805000Y-117739285D01*
X160733571Y-117882142D01*
X160590714Y-117953571D01*
X160447857Y-117953571D01*
X158876428Y-116596428D02*
X158805000Y-116525000D01*
X158662142Y-116453571D01*
X158305000Y-116453571D01*
X158162142Y-116525000D01*
X158090714Y-116596428D01*
X158019285Y-116739285D01*
X158019285Y-116882142D01*
X158090714Y-117096428D01*
X158947857Y-117953571D01*
X158019285Y-117953571D01*
X157090714Y-116453571D02*
X156947857Y-116453571D01*
X156805000Y-116525000D01*
X156733571Y-116596428D01*
X156662142Y-116739285D01*
X156590714Y-117025000D01*
X156590714Y-117382142D01*
X156662142Y-117667857D01*
X156733571Y-117810714D01*
X156805000Y-117882142D01*
X156947857Y-117953571D01*
X157090714Y-117953571D01*
X157233571Y-117882142D01*
X157305000Y-117810714D01*
X157376428Y-117667857D01*
X157447857Y-117382142D01*
X157447857Y-117025000D01*
X157376428Y-116739285D01*
X157305000Y-116596428D01*
X157233571Y-116525000D01*
X157090714Y-116453571D01*
X155162142Y-117953571D02*
X156019285Y-117953571D01*
X155590714Y-117953571D02*
X155590714Y-116453571D01*
X155733571Y-116667857D01*
X155876428Y-116810714D01*
X156019285Y-116882142D01*
X154305000Y-117096428D02*
X154447857Y-117025000D01*
X154519285Y-116953571D01*
X154590714Y-116810714D01*
X154590714Y-116739285D01*
X154519285Y-116596428D01*
X154447857Y-116525000D01*
X154305000Y-116453571D01*
X154019285Y-116453571D01*
X153876428Y-116525000D01*
X153805000Y-116596428D01*
X153733571Y-116739285D01*
X153733571Y-116810714D01*
X153805000Y-116953571D01*
X153876428Y-117025000D01*
X154019285Y-117096428D01*
X154305000Y-117096428D01*
X154447857Y-117167857D01*
X154519285Y-117239285D01*
X154590714Y-117382142D01*
X154590714Y-117667857D01*
X154519285Y-117810714D01*
X154447857Y-117882142D01*
X154305000Y-117953571D01*
X154019285Y-117953571D01*
X153876428Y-117882142D01*
X153805000Y-117810714D01*
X153733571Y-117667857D01*
X153733571Y-117382142D01*
X153805000Y-117239285D01*
X153876428Y-117167857D01*
X154019285Y-117096428D01*
D10*
X97938095Y-122952380D02*
X97319047Y-122952380D01*
X97652380Y-123333333D01*
X97509523Y-123333333D01*
X97414285Y-123380952D01*
X97366666Y-123428571D01*
X97319047Y-123523809D01*
X97319047Y-123761904D01*
X97366666Y-123857142D01*
X97414285Y-123904761D01*
X97509523Y-123952380D01*
X97795238Y-123952380D01*
X97890476Y-123904761D01*
X97938095Y-123857142D01*
X97033333Y-122952380D02*
X96700000Y-123952380D01*
X96366666Y-122952380D01*
X96128571Y-122952380D02*
X95509523Y-122952380D01*
X95842857Y-123333333D01*
X95700000Y-123333333D01*
X95604761Y-123380952D01*
X95557142Y-123428571D01*
X95509523Y-123523809D01*
X95509523Y-123761904D01*
X95557142Y-123857142D01*
X95604761Y-123904761D01*
X95700000Y-123952380D01*
X95985714Y-123952380D01*
X96080952Y-123904761D01*
X96128571Y-123857142D01*
X105142857Y-118952380D02*
X105476190Y-118476190D01*
X105714285Y-118952380D02*
X105714285Y-117952380D01*
X105333333Y-117952380D01*
X105238095Y-118000000D01*
X105190476Y-118047619D01*
X105142857Y-118142857D01*
X105142857Y-118285714D01*
X105190476Y-118380952D01*
X105238095Y-118428571D01*
X105333333Y-118476190D01*
X105714285Y-118476190D01*
X104809523Y-117952380D02*
X104142857Y-118952380D01*
X104142857Y-117952380D02*
X104809523Y-118952380D01*
X103857142Y-117952380D02*
X103238095Y-117952380D01*
X103571428Y-118333333D01*
X103428571Y-118333333D01*
X103333333Y-118380952D01*
X103285714Y-118428571D01*
X103238095Y-118523809D01*
X103238095Y-118761904D01*
X103285714Y-118857142D01*
X103333333Y-118904761D01*
X103428571Y-118952380D01*
X103714285Y-118952380D01*
X103809523Y-118904761D01*
X103857142Y-118857142D01*
X105142857Y-121452380D02*
X105476190Y-120976190D01*
X105714285Y-121452380D02*
X105714285Y-120452380D01*
X105333333Y-120452380D01*
X105238095Y-120500000D01*
X105190476Y-120547619D01*
X105142857Y-120642857D01*
X105142857Y-120785714D01*
X105190476Y-120880952D01*
X105238095Y-120928571D01*
X105333333Y-120976190D01*
X105714285Y-120976190D01*
X104809523Y-120452380D02*
X104142857Y-121452380D01*
X104142857Y-120452380D02*
X104809523Y-121452380D01*
X103809523Y-120547619D02*
X103761904Y-120500000D01*
X103666666Y-120452380D01*
X103428571Y-120452380D01*
X103333333Y-120500000D01*
X103285714Y-120547619D01*
X103238095Y-120642857D01*
X103238095Y-120738095D01*
X103285714Y-120880952D01*
X103857142Y-121452380D01*
X103238095Y-121452380D01*
X97242857Y-121452380D02*
X97576190Y-120976190D01*
X97814285Y-121452380D02*
X97814285Y-120452380D01*
X97433333Y-120452380D01*
X97338095Y-120500000D01*
X97290476Y-120547619D01*
X97242857Y-120642857D01*
X97242857Y-120785714D01*
X97290476Y-120880952D01*
X97338095Y-120928571D01*
X97433333Y-120976190D01*
X97814285Y-120976190D01*
X96909523Y-120452380D02*
X96242857Y-121452380D01*
X96242857Y-120452380D02*
X96909523Y-121452380D01*
X95671428Y-120452380D02*
X95576190Y-120452380D01*
X95480952Y-120500000D01*
X95433333Y-120547619D01*
X95385714Y-120642857D01*
X95338095Y-120833333D01*
X95338095Y-121071428D01*
X95385714Y-121261904D01*
X95433333Y-121357142D01*
X95480952Y-121404761D01*
X95576190Y-121452380D01*
X95671428Y-121452380D01*
X95766666Y-121404761D01*
X95814285Y-121357142D01*
X95861904Y-121261904D01*
X95909523Y-121071428D01*
X95909523Y-120833333D01*
X95861904Y-120642857D01*
X95814285Y-120547619D01*
X95766666Y-120500000D01*
X95671428Y-120452380D01*
X97600000Y-118000000D02*
X97695238Y-117952380D01*
X97838095Y-117952380D01*
X97980952Y-118000000D01*
X98076190Y-118095238D01*
X98123809Y-118190476D01*
X98171428Y-118380952D01*
X98171428Y-118523809D01*
X98123809Y-118714285D01*
X98076190Y-118809523D01*
X97980952Y-118904761D01*
X97838095Y-118952380D01*
X97742857Y-118952380D01*
X97600000Y-118904761D01*
X97552380Y-118857142D01*
X97552380Y-118523809D01*
X97742857Y-118523809D01*
X97123809Y-118952380D02*
X97123809Y-117952380D01*
X96742857Y-117952380D01*
X96647619Y-118000000D01*
X96600000Y-118047619D01*
X96552380Y-118142857D01*
X96552380Y-118285714D01*
X96600000Y-118380952D01*
X96647619Y-118428571D01*
X96742857Y-118476190D01*
X97123809Y-118476190D01*
X96123809Y-118952380D02*
X96123809Y-117952380D01*
X95457142Y-117952380D02*
X95266666Y-117952380D01*
X95171428Y-118000000D01*
X95076190Y-118095238D01*
X95028571Y-118285714D01*
X95028571Y-118619047D01*
X95076190Y-118809523D01*
X95171428Y-118904761D01*
X95266666Y-118952380D01*
X95457142Y-118952380D01*
X95552380Y-118904761D01*
X95647619Y-118809523D01*
X95695238Y-118619047D01*
X95695238Y-118285714D01*
X95647619Y-118095238D01*
X95552380Y-118000000D01*
X95457142Y-117952380D01*
X97600000Y-115400000D02*
X97695238Y-115352380D01*
X97838095Y-115352380D01*
X97980952Y-115400000D01*
X98076190Y-115495238D01*
X98123809Y-115590476D01*
X98171428Y-115780952D01*
X98171428Y-115923809D01*
X98123809Y-116114285D01*
X98076190Y-116209523D01*
X97980952Y-116304761D01*
X97838095Y-116352380D01*
X97742857Y-116352380D01*
X97600000Y-116304761D01*
X97552380Y-116257142D01*
X97552380Y-115923809D01*
X97742857Y-115923809D01*
X97123809Y-116352380D02*
X97123809Y-115352380D01*
X96742857Y-115352380D01*
X96647619Y-115400000D01*
X96600000Y-115447619D01*
X96552380Y-115542857D01*
X96552380Y-115685714D01*
X96600000Y-115780952D01*
X96647619Y-115828571D01*
X96742857Y-115876190D01*
X97123809Y-115876190D01*
X96123809Y-116352380D02*
X96123809Y-115352380D01*
X95457142Y-115352380D02*
X95266666Y-115352380D01*
X95171428Y-115400000D01*
X95076190Y-115495238D01*
X95028571Y-115685714D01*
X95028571Y-116019047D01*
X95076190Y-116209523D01*
X95171428Y-116304761D01*
X95266666Y-116352380D01*
X95457142Y-116352380D01*
X95552380Y-116304761D01*
X95647619Y-116209523D01*
X95695238Y-116019047D01*
X95695238Y-115685714D01*
X95647619Y-115495238D01*
X95552380Y-115400000D01*
X95457142Y-115352380D01*
X105600000Y-115400000D02*
X105695238Y-115352380D01*
X105838095Y-115352380D01*
X105980952Y-115400000D01*
X106076190Y-115495238D01*
X106123809Y-115590476D01*
X106171428Y-115780952D01*
X106171428Y-115923809D01*
X106123809Y-116114285D01*
X106076190Y-116209523D01*
X105980952Y-116304761D01*
X105838095Y-116352380D01*
X105742857Y-116352380D01*
X105600000Y-116304761D01*
X105552380Y-116257142D01*
X105552380Y-115923809D01*
X105742857Y-115923809D01*
X105123809Y-116352380D02*
X105123809Y-115352380D01*
X104742857Y-115352380D01*
X104647619Y-115400000D01*
X104600000Y-115447619D01*
X104552380Y-115542857D01*
X104552380Y-115685714D01*
X104600000Y-115780952D01*
X104647619Y-115828571D01*
X104742857Y-115876190D01*
X105123809Y-115876190D01*
X104123809Y-116352380D02*
X104123809Y-115352380D01*
X103457142Y-115352380D02*
X103266666Y-115352380D01*
X103171428Y-115400000D01*
X103076190Y-115495238D01*
X103028571Y-115685714D01*
X103028571Y-116019047D01*
X103076190Y-116209523D01*
X103171428Y-116304761D01*
X103266666Y-116352380D01*
X103457142Y-116352380D01*
X103552380Y-116304761D01*
X103647619Y-116209523D01*
X103695238Y-116019047D01*
X103695238Y-115685714D01*
X103647619Y-115495238D01*
X103552380Y-115400000D01*
X103457142Y-115352380D01*
X105600000Y-112800000D02*
X105695238Y-112752380D01*
X105838095Y-112752380D01*
X105980952Y-112800000D01*
X106076190Y-112895238D01*
X106123809Y-112990476D01*
X106171428Y-113180952D01*
X106171428Y-113323809D01*
X106123809Y-113514285D01*
X106076190Y-113609523D01*
X105980952Y-113704761D01*
X105838095Y-113752380D01*
X105742857Y-113752380D01*
X105600000Y-113704761D01*
X105552380Y-113657142D01*
X105552380Y-113323809D01*
X105742857Y-113323809D01*
X105123809Y-113752380D02*
X105123809Y-112752380D01*
X104742857Y-112752380D01*
X104647619Y-112800000D01*
X104600000Y-112847619D01*
X104552380Y-112942857D01*
X104552380Y-113085714D01*
X104600000Y-113180952D01*
X104647619Y-113228571D01*
X104742857Y-113276190D01*
X105123809Y-113276190D01*
X104123809Y-113752380D02*
X104123809Y-112752380D01*
X103457142Y-112752380D02*
X103266666Y-112752380D01*
X103171428Y-112800000D01*
X103076190Y-112895238D01*
X103028571Y-113085714D01*
X103028571Y-113419047D01*
X103076190Y-113609523D01*
X103171428Y-113704761D01*
X103266666Y-113752380D01*
X103457142Y-113752380D01*
X103552380Y-113704761D01*
X103647619Y-113609523D01*
X103695238Y-113419047D01*
X103695238Y-113085714D01*
X103647619Y-112895238D01*
X103552380Y-112800000D01*
X103457142Y-112752380D01*
X105461904Y-110300000D02*
X105557142Y-110252380D01*
X105700000Y-110252380D01*
X105842857Y-110300000D01*
X105938095Y-110395238D01*
X105985714Y-110490476D01*
X106033333Y-110680952D01*
X106033333Y-110823809D01*
X105985714Y-111014285D01*
X105938095Y-111109523D01*
X105842857Y-111204761D01*
X105700000Y-111252380D01*
X105604761Y-111252380D01*
X105461904Y-111204761D01*
X105414285Y-111157142D01*
X105414285Y-110823809D01*
X105604761Y-110823809D01*
X104985714Y-111252380D02*
X104985714Y-110252380D01*
X104414285Y-111252380D01*
X104414285Y-110252380D01*
X103938095Y-111252380D02*
X103938095Y-110252380D01*
X103700000Y-110252380D01*
X103557142Y-110300000D01*
X103461904Y-110395238D01*
X103414285Y-110490476D01*
X103366666Y-110680952D01*
X103366666Y-110823809D01*
X103414285Y-111014285D01*
X103461904Y-111109523D01*
X103557142Y-111204761D01*
X103700000Y-111252380D01*
X103938095Y-111252380D01*
X98038095Y-107752380D02*
X97419047Y-107752380D01*
X97752380Y-108133333D01*
X97609523Y-108133333D01*
X97514285Y-108180952D01*
X97466666Y-108228571D01*
X97419047Y-108323809D01*
X97419047Y-108561904D01*
X97466666Y-108657142D01*
X97514285Y-108704761D01*
X97609523Y-108752380D01*
X97895238Y-108752380D01*
X97990476Y-108704761D01*
X98038095Y-108657142D01*
X97133333Y-107752380D02*
X96800000Y-108752380D01*
X96466666Y-107752380D01*
X96228571Y-107752380D02*
X95609523Y-107752380D01*
X95942857Y-108133333D01*
X95800000Y-108133333D01*
X95704761Y-108180952D01*
X95657142Y-108228571D01*
X95609523Y-108323809D01*
X95609523Y-108561904D01*
X95657142Y-108657142D01*
X95704761Y-108704761D01*
X95800000Y-108752380D01*
X96085714Y-108752380D01*
X96180952Y-108704761D01*
X96228571Y-108657142D01*
X105838095Y-107752380D02*
X105266666Y-107752380D01*
X105552380Y-108752380D02*
X105552380Y-107752380D01*
X105028571Y-107752380D02*
X104361904Y-108752380D01*
X104361904Y-107752380D02*
X105028571Y-108752380D01*
X104076190Y-107752380D02*
X103457142Y-107752380D01*
X103790476Y-108133333D01*
X103647619Y-108133333D01*
X103552380Y-108180952D01*
X103504761Y-108228571D01*
X103457142Y-108323809D01*
X103457142Y-108561904D01*
X103504761Y-108657142D01*
X103552380Y-108704761D01*
X103647619Y-108752380D01*
X103933333Y-108752380D01*
X104028571Y-108704761D01*
X104076190Y-108657142D01*
X105838095Y-105252380D02*
X105266666Y-105252380D01*
X105552380Y-106252380D02*
X105552380Y-105252380D01*
X105028571Y-105252380D02*
X104361904Y-106252380D01*
X104361904Y-105252380D02*
X105028571Y-106252380D01*
X104028571Y-105347619D02*
X103980952Y-105300000D01*
X103885714Y-105252380D01*
X103647619Y-105252380D01*
X103552380Y-105300000D01*
X103504761Y-105347619D01*
X103457142Y-105442857D01*
X103457142Y-105538095D01*
X103504761Y-105680952D01*
X104076190Y-106252380D01*
X103457142Y-106252380D01*
X105800000Y-102700000D02*
X105895238Y-102652380D01*
X106038095Y-102652380D01*
X106180952Y-102700000D01*
X106276190Y-102795238D01*
X106323809Y-102890476D01*
X106371428Y-103080952D01*
X106371428Y-103223809D01*
X106323809Y-103414285D01*
X106276190Y-103509523D01*
X106180952Y-103604761D01*
X106038095Y-103652380D01*
X105942857Y-103652380D01*
X105800000Y-103604761D01*
X105752380Y-103557142D01*
X105752380Y-103223809D01*
X105942857Y-103223809D01*
X105323809Y-103652380D02*
X105323809Y-102652380D01*
X104942857Y-102652380D01*
X104847619Y-102700000D01*
X104800000Y-102747619D01*
X104752380Y-102842857D01*
X104752380Y-102985714D01*
X104800000Y-103080952D01*
X104847619Y-103128571D01*
X104942857Y-103176190D01*
X105323809Y-103176190D01*
X104323809Y-103652380D02*
X104323809Y-102652380D01*
X103657142Y-102652380D02*
X103466666Y-102652380D01*
X103371428Y-102700000D01*
X103276190Y-102795238D01*
X103228571Y-102985714D01*
X103228571Y-103319047D01*
X103276190Y-103509523D01*
X103371428Y-103604761D01*
X103466666Y-103652380D01*
X103657142Y-103652380D01*
X103752380Y-103604761D01*
X103847619Y-103509523D01*
X103895238Y-103319047D01*
X103895238Y-102985714D01*
X103847619Y-102795238D01*
X103752380Y-102700000D01*
X103657142Y-102652380D01*
X98038095Y-105252380D02*
X97466666Y-105252380D01*
X97752380Y-106252380D02*
X97752380Y-105252380D01*
X97228571Y-105252380D02*
X96561904Y-106252380D01*
X96561904Y-105252380D02*
X97228571Y-106252380D01*
X95990476Y-105252380D02*
X95895238Y-105252380D01*
X95800000Y-105300000D01*
X95752380Y-105347619D01*
X95704761Y-105442857D01*
X95657142Y-105633333D01*
X95657142Y-105871428D01*
X95704761Y-106061904D01*
X95752380Y-106157142D01*
X95800000Y-106204761D01*
X95895238Y-106252380D01*
X95990476Y-106252380D01*
X96085714Y-106204761D01*
X96133333Y-106157142D01*
X96180952Y-106061904D01*
X96228571Y-105871428D01*
X96228571Y-105633333D01*
X96180952Y-105442857D01*
X96133333Y-105347619D01*
X96085714Y-105300000D01*
X95990476Y-105252380D01*
X97500000Y-102700000D02*
X97595238Y-102652380D01*
X97738095Y-102652380D01*
X97880952Y-102700000D01*
X97976190Y-102795238D01*
X98023809Y-102890476D01*
X98071428Y-103080952D01*
X98071428Y-103223809D01*
X98023809Y-103414285D01*
X97976190Y-103509523D01*
X97880952Y-103604761D01*
X97738095Y-103652380D01*
X97642857Y-103652380D01*
X97500000Y-103604761D01*
X97452380Y-103557142D01*
X97452380Y-103223809D01*
X97642857Y-103223809D01*
X97023809Y-103652380D02*
X97023809Y-102652380D01*
X96642857Y-102652380D01*
X96547619Y-102700000D01*
X96500000Y-102747619D01*
X96452380Y-102842857D01*
X96452380Y-102985714D01*
X96500000Y-103080952D01*
X96547619Y-103128571D01*
X96642857Y-103176190D01*
X97023809Y-103176190D01*
X96023809Y-103652380D02*
X96023809Y-102652380D01*
X95357142Y-102652380D02*
X95166666Y-102652380D01*
X95071428Y-102700000D01*
X94976190Y-102795238D01*
X94928571Y-102985714D01*
X94928571Y-103319047D01*
X94976190Y-103509523D01*
X95071428Y-103604761D01*
X95166666Y-103652380D01*
X95357142Y-103652380D01*
X95452380Y-103604761D01*
X95547619Y-103509523D01*
X95595238Y-103319047D01*
X95595238Y-102985714D01*
X95547619Y-102795238D01*
X95452380Y-102700000D01*
X95357142Y-102652380D01*
X105800000Y-100200000D02*
X105895238Y-100152380D01*
X106038095Y-100152380D01*
X106180952Y-100200000D01*
X106276190Y-100295238D01*
X106323809Y-100390476D01*
X106371428Y-100580952D01*
X106371428Y-100723809D01*
X106323809Y-100914285D01*
X106276190Y-101009523D01*
X106180952Y-101104761D01*
X106038095Y-101152380D01*
X105942857Y-101152380D01*
X105800000Y-101104761D01*
X105752380Y-101057142D01*
X105752380Y-100723809D01*
X105942857Y-100723809D01*
X105323809Y-101152380D02*
X105323809Y-100152380D01*
X104942857Y-100152380D01*
X104847619Y-100200000D01*
X104800000Y-100247619D01*
X104752380Y-100342857D01*
X104752380Y-100485714D01*
X104800000Y-100580952D01*
X104847619Y-100628571D01*
X104942857Y-100676190D01*
X105323809Y-100676190D01*
X104323809Y-101152380D02*
X104323809Y-100152380D01*
X103657142Y-100152380D02*
X103466666Y-100152380D01*
X103371428Y-100200000D01*
X103276190Y-100295238D01*
X103228571Y-100485714D01*
X103228571Y-100819047D01*
X103276190Y-101009523D01*
X103371428Y-101104761D01*
X103466666Y-101152380D01*
X103657142Y-101152380D01*
X103752380Y-101104761D01*
X103847619Y-101009523D01*
X103895238Y-100819047D01*
X103895238Y-100485714D01*
X103847619Y-100295238D01*
X103752380Y-100200000D01*
X103657142Y-100152380D01*
X105461904Y-123000000D02*
X105557142Y-122952380D01*
X105700000Y-122952380D01*
X105842857Y-123000000D01*
X105938095Y-123095238D01*
X105985714Y-123190476D01*
X106033333Y-123380952D01*
X106033333Y-123523809D01*
X105985714Y-123714285D01*
X105938095Y-123809523D01*
X105842857Y-123904761D01*
X105700000Y-123952380D01*
X105604761Y-123952380D01*
X105461904Y-123904761D01*
X105414285Y-123857142D01*
X105414285Y-123523809D01*
X105604761Y-123523809D01*
X104985714Y-123952380D02*
X104985714Y-122952380D01*
X104414285Y-123952380D01*
X104414285Y-122952380D01*
X103938095Y-123952380D02*
X103938095Y-122952380D01*
X103700000Y-122952380D01*
X103557142Y-123000000D01*
X103461904Y-123095238D01*
X103414285Y-123190476D01*
X103366666Y-123380952D01*
X103366666Y-123523809D01*
X103414285Y-123714285D01*
X103461904Y-123809523D01*
X103557142Y-123904761D01*
X103700000Y-123952380D01*
X103938095Y-123952380D01*
X97461904Y-112900000D02*
X97557142Y-112852380D01*
X97700000Y-112852380D01*
X97842857Y-112900000D01*
X97938095Y-112995238D01*
X97985714Y-113090476D01*
X98033333Y-113280952D01*
X98033333Y-113423809D01*
X97985714Y-113614285D01*
X97938095Y-113709523D01*
X97842857Y-113804761D01*
X97700000Y-113852380D01*
X97604761Y-113852380D01*
X97461904Y-113804761D01*
X97414285Y-113757142D01*
X97414285Y-113423809D01*
X97604761Y-113423809D01*
X96985714Y-113852380D02*
X96985714Y-112852380D01*
X96414285Y-113852380D01*
X96414285Y-112852380D01*
X95938095Y-113852380D02*
X95938095Y-112852380D01*
X95700000Y-112852380D01*
X95557142Y-112900000D01*
X95461904Y-112995238D01*
X95414285Y-113090476D01*
X95366666Y-113280952D01*
X95366666Y-113423809D01*
X95414285Y-113614285D01*
X95461904Y-113709523D01*
X95557142Y-113804761D01*
X95700000Y-113852380D01*
X95938095Y-113852380D01*
X97461904Y-110400000D02*
X97557142Y-110352380D01*
X97700000Y-110352380D01*
X97842857Y-110400000D01*
X97938095Y-110495238D01*
X97985714Y-110590476D01*
X98033333Y-110780952D01*
X98033333Y-110923809D01*
X97985714Y-111114285D01*
X97938095Y-111209523D01*
X97842857Y-111304761D01*
X97700000Y-111352380D01*
X97604761Y-111352380D01*
X97461904Y-111304761D01*
X97414285Y-111257142D01*
X97414285Y-110923809D01*
X97604761Y-110923809D01*
X96985714Y-111352380D02*
X96985714Y-110352380D01*
X96414285Y-111352380D01*
X96414285Y-110352380D01*
X95938095Y-111352380D02*
X95938095Y-110352380D01*
X95700000Y-110352380D01*
X95557142Y-110400000D01*
X95461904Y-110495238D01*
X95414285Y-110590476D01*
X95366666Y-110780952D01*
X95366666Y-110923809D01*
X95414285Y-111114285D01*
X95461904Y-111209523D01*
X95557142Y-111304761D01*
X95700000Y-111352380D01*
X95938095Y-111352380D01*
X97461904Y-100200000D02*
X97557142Y-100152380D01*
X97700000Y-100152380D01*
X97842857Y-100200000D01*
X97938095Y-100295238D01*
X97985714Y-100390476D01*
X98033333Y-100580952D01*
X98033333Y-100723809D01*
X97985714Y-100914285D01*
X97938095Y-101009523D01*
X97842857Y-101104761D01*
X97700000Y-101152380D01*
X97604761Y-101152380D01*
X97461904Y-101104761D01*
X97414285Y-101057142D01*
X97414285Y-100723809D01*
X97604761Y-100723809D01*
X96985714Y-101152380D02*
X96985714Y-100152380D01*
X96414285Y-101152380D01*
X96414285Y-100152380D01*
X95938095Y-101152380D02*
X95938095Y-100152380D01*
X95700000Y-100152380D01*
X95557142Y-100200000D01*
X95461904Y-100295238D01*
X95414285Y-100390476D01*
X95366666Y-100580952D01*
X95366666Y-100723809D01*
X95414285Y-100914285D01*
X95461904Y-101009523D01*
X95557142Y-101104761D01*
X95700000Y-101152380D01*
X95938095Y-101152380D01*
X116200000Y-77200000D02*
X115700000Y-76900000D01*
X115700000Y-76900000D02*
X116200000Y-76600000D01*
X116200000Y-76600000D02*
X116200000Y-77200000D01*
X108500000Y-77100000D02*
X108000000Y-76800000D01*
X108500000Y-76500000D02*
X108500000Y-77100000D01*
X108000000Y-76800000D02*
X108500000Y-76500000D01*
X94500000Y-84500000D02*
X94500000Y-134500000D01*
X181500000Y-84500000D02*
X181500000Y-134500000D01*
X94500000Y-84500000D02*
X181500000Y-84500000D01*
D13*
X178057142Y-67642857D02*
X177600000Y-67642857D01*
X177828571Y-67871428D02*
X177828571Y-67414285D01*
X177000000Y-67871428D02*
X177342857Y-67871428D01*
X177171428Y-67871428D02*
X177171428Y-67271428D01*
X177228571Y-67357142D01*
X177285714Y-67414285D01*
X177342857Y-67442857D01*
X176771428Y-67328571D02*
X176742857Y-67300000D01*
X176685714Y-67271428D01*
X176542857Y-67271428D01*
X176485714Y-67300000D01*
X176457142Y-67328571D01*
X176428571Y-67385714D01*
X176428571Y-67442857D01*
X176457142Y-67528571D01*
X176800000Y-67871428D01*
X176428571Y-67871428D01*
X176257142Y-67271428D02*
X176057142Y-67871428D01*
X175857142Y-67271428D01*
X179042857Y-67900000D02*
X178985714Y-67928571D01*
X178900000Y-67928571D01*
X178814285Y-67900000D01*
X178757142Y-67842857D01*
X178728571Y-67785714D01*
X178700000Y-67671428D01*
X178700000Y-67585714D01*
X178728571Y-67471428D01*
X178757142Y-67414285D01*
X178814285Y-67357142D01*
X178900000Y-67328571D01*
X178957142Y-67328571D01*
X179042857Y-67357142D01*
X179071428Y-67385714D01*
X179071428Y-67585714D01*
X178957142Y-67585714D01*
X179328571Y-67328571D02*
X179328571Y-67928571D01*
X179671428Y-67328571D01*
X179671428Y-67928571D01*
X179957142Y-67328571D02*
X179957142Y-67928571D01*
X180100000Y-67928571D01*
X180185714Y-67900000D01*
X180242857Y-67842857D01*
X180271428Y-67785714D01*
X180300000Y-67671428D01*
X180300000Y-67585714D01*
X180271428Y-67471428D01*
X180242857Y-67414285D01*
X180185714Y-67357142D01*
X180100000Y-67328571D01*
X179957142Y-67328571D01*
D10*
X97861904Y-74338095D02*
X97480952Y-74071428D01*
X97861904Y-73880952D02*
X97061904Y-73880952D01*
X97061904Y-74185714D01*
X97100000Y-74261904D01*
X97138095Y-74300000D01*
X97214285Y-74338095D01*
X97328571Y-74338095D01*
X97404761Y-74300000D01*
X97442857Y-74261904D01*
X97480952Y-74185714D01*
X97480952Y-73880952D01*
X97442857Y-74680952D02*
X97442857Y-74947619D01*
X97861904Y-75061904D02*
X97861904Y-74680952D01*
X97061904Y-74680952D01*
X97061904Y-75061904D01*
X97823809Y-75366666D02*
X97861904Y-75480952D01*
X97861904Y-75671428D01*
X97823809Y-75747619D01*
X97785714Y-75785714D01*
X97709523Y-75823809D01*
X97633333Y-75823809D01*
X97557142Y-75785714D01*
X97519047Y-75747619D01*
X97480952Y-75671428D01*
X97442857Y-75519047D01*
X97404761Y-75442857D01*
X97366666Y-75404761D01*
X97290476Y-75366666D01*
X97214285Y-75366666D01*
X97138095Y-75404761D01*
X97100000Y-75442857D01*
X97061904Y-75519047D01*
X97061904Y-75709523D01*
X97100000Y-75823809D01*
X97442857Y-76166666D02*
X97442857Y-76433333D01*
X97861904Y-76547619D02*
X97861904Y-76166666D01*
X97061904Y-76166666D01*
X97061904Y-76547619D01*
X97061904Y-76776190D02*
X97061904Y-77233333D01*
X97861904Y-77004761D02*
X97061904Y-77004761D01*
X99361904Y-66152380D02*
X98561904Y-66152380D01*
X98561904Y-66457142D01*
X98600000Y-66533333D01*
X98638095Y-66571428D01*
X98714285Y-66609523D01*
X98828571Y-66609523D01*
X98904761Y-66571428D01*
X98942857Y-66533333D01*
X98980952Y-66457142D01*
X98980952Y-66152380D01*
X98561904Y-67104761D02*
X98561904Y-67257142D01*
X98600000Y-67333333D01*
X98676190Y-67409523D01*
X98828571Y-67447619D01*
X99095238Y-67447619D01*
X99247619Y-67409523D01*
X99323809Y-67333333D01*
X99361904Y-67257142D01*
X99361904Y-67104761D01*
X99323809Y-67028571D01*
X99247619Y-66952380D01*
X99095238Y-66914285D01*
X98828571Y-66914285D01*
X98676190Y-66952380D01*
X98600000Y-67028571D01*
X98561904Y-67104761D01*
X98561904Y-67714285D02*
X99361904Y-67904761D01*
X98790476Y-68057142D01*
X99361904Y-68209523D01*
X98561904Y-68400000D01*
X98942857Y-68704761D02*
X98942857Y-68971428D01*
X99361904Y-69085714D02*
X99361904Y-68704761D01*
X98561904Y-68704761D01*
X98561904Y-69085714D01*
X99361904Y-69885714D02*
X98980952Y-69619047D01*
X99361904Y-69428571D02*
X98561904Y-69428571D01*
X98561904Y-69733333D01*
X98600000Y-69809523D01*
X98638095Y-69847619D01*
X98714285Y-69885714D01*
X98828571Y-69885714D01*
X98904761Y-69847619D01*
X98942857Y-69809523D01*
X98980952Y-69733333D01*
X98980952Y-69428571D01*
X178038095Y-74080952D02*
X178419047Y-74347619D01*
X178038095Y-74538095D02*
X178838095Y-74538095D01*
X178838095Y-74233333D01*
X178800000Y-74157142D01*
X178761904Y-74119047D01*
X178685714Y-74080952D01*
X178571428Y-74080952D01*
X178495238Y-74119047D01*
X178457142Y-74157142D01*
X178419047Y-74233333D01*
X178419047Y-74538095D01*
X178457142Y-73738095D02*
X178457142Y-73471428D01*
X178038095Y-73357142D02*
X178038095Y-73738095D01*
X178838095Y-73738095D01*
X178838095Y-73357142D01*
X178114285Y-72557142D02*
X178076190Y-72595238D01*
X178038095Y-72709523D01*
X178038095Y-72785714D01*
X178076190Y-72900000D01*
X178152380Y-72976190D01*
X178228571Y-73014285D01*
X178380952Y-73052380D01*
X178495238Y-73052380D01*
X178647619Y-73014285D01*
X178723809Y-72976190D01*
X178800000Y-72900000D01*
X178838095Y-72785714D01*
X178838095Y-72709523D01*
X178800000Y-72595238D01*
X178761904Y-72557142D01*
X178838095Y-72061904D02*
X178838095Y-71909523D01*
X178800000Y-71833333D01*
X178723809Y-71757142D01*
X178571428Y-71719047D01*
X178304761Y-71719047D01*
X178152380Y-71757142D01*
X178076190Y-71833333D01*
X178038095Y-71909523D01*
X178038095Y-72061904D01*
X178076190Y-72138095D01*
X178152380Y-72214285D01*
X178304761Y-72252380D01*
X178571428Y-72252380D01*
X178723809Y-72214285D01*
X178800000Y-72138095D01*
X178838095Y-72061904D01*
X178838095Y-71490476D02*
X178038095Y-71223809D01*
X178838095Y-70957142D01*
X178457142Y-70690476D02*
X178457142Y-70423809D01*
X178038095Y-70309523D02*
X178038095Y-70690476D01*
X178838095Y-70690476D01*
X178838095Y-70309523D01*
X178038095Y-69509523D02*
X178419047Y-69776190D01*
X178038095Y-69966666D02*
X178838095Y-69966666D01*
X178838095Y-69661904D01*
X178800000Y-69585714D01*
X178761904Y-69547619D01*
X178685714Y-69509523D01*
X178571428Y-69509523D01*
X178495238Y-69547619D01*
X178457142Y-69585714D01*
X178419047Y-69661904D01*
X178419047Y-69966666D01*
X178419047Y-69014285D02*
X178038095Y-69014285D01*
X178838095Y-69280952D02*
X178419047Y-69014285D01*
X178838095Y-68747619D01*
D14*
G04 #@! TO.C,U12*
X113424000Y-76362000D02*
X115324000Y-76362000D01*
X114824000Y-78682000D02*
X113424000Y-78682000D01*
G04 #@! TO.C,U13*
X105677000Y-76362000D02*
X107577000Y-76362000D01*
X107077000Y-78682000D02*
X105677000Y-78682000D01*
G04 #@! TO.C,C23*
X109985000Y-68147000D02*
X109985000Y-67847000D01*
X111405000Y-68147000D02*
X111405000Y-67847000D01*
D13*
G04 #@! TO.C,D4*
X126816000Y-73431000D02*
X125816000Y-73431000D01*
X125816000Y-73231000D02*
X125816000Y-73431000D01*
X126816000Y-73231000D02*
X125816000Y-73231000D01*
X126816000Y-73431000D02*
X126816000Y-73231000D01*
G04 #@! TO.C,D1*
X128815720Y-65103000D02*
X129815720Y-65103000D01*
X129815720Y-65303000D02*
X129815720Y-65103000D01*
X128815720Y-65303000D02*
X129815720Y-65303000D01*
X128815720Y-65103000D02*
X128815720Y-65303000D01*
G04 #@! TO.C,D3*
X132785000Y-73431000D02*
X132785000Y-73231000D01*
X132785000Y-73231000D02*
X131785000Y-73231000D01*
X131785000Y-73231000D02*
X131785000Y-73431000D01*
X132785000Y-73431000D02*
X131785000Y-73431000D01*
G04 #@! TO.C,D2*
X129864000Y-73431000D02*
X128864000Y-73431000D01*
X128864000Y-73231000D02*
X128864000Y-73431000D01*
X129864000Y-73231000D02*
X128864000Y-73231000D01*
X129864000Y-73431000D02*
X129864000Y-73231000D01*
G04 #@! TO.C,R32*
X109285714Y-111771428D02*
X109485714Y-111485714D01*
X109628571Y-111771428D02*
X109628571Y-111171428D01*
X109400000Y-111171428D01*
X109342857Y-111200000D01*
X109314285Y-111228571D01*
X109285714Y-111285714D01*
X109285714Y-111371428D01*
X109314285Y-111428571D01*
X109342857Y-111457142D01*
X109400000Y-111485714D01*
X109628571Y-111485714D01*
X109085714Y-111171428D02*
X108714285Y-111171428D01*
X108914285Y-111400000D01*
X108828571Y-111400000D01*
X108771428Y-111428571D01*
X108742857Y-111457142D01*
X108714285Y-111514285D01*
X108714285Y-111657142D01*
X108742857Y-111714285D01*
X108771428Y-111742857D01*
X108828571Y-111771428D01*
X109000000Y-111771428D01*
X109057142Y-111742857D01*
X109085714Y-111714285D01*
X108485714Y-111228571D02*
X108457142Y-111200000D01*
X108400000Y-111171428D01*
X108257142Y-111171428D01*
X108200000Y-111200000D01*
X108171428Y-111228571D01*
X108142857Y-111285714D01*
X108142857Y-111342857D01*
X108171428Y-111428571D01*
X108514285Y-111771428D01*
X108142857Y-111771428D01*
G04 #@! TO.C,R31*
X109285714Y-112771428D02*
X109485714Y-112485714D01*
X109628571Y-112771428D02*
X109628571Y-112171428D01*
X109400000Y-112171428D01*
X109342857Y-112200000D01*
X109314285Y-112228571D01*
X109285714Y-112285714D01*
X109285714Y-112371428D01*
X109314285Y-112428571D01*
X109342857Y-112457142D01*
X109400000Y-112485714D01*
X109628571Y-112485714D01*
X109085714Y-112171428D02*
X108714285Y-112171428D01*
X108914285Y-112400000D01*
X108828571Y-112400000D01*
X108771428Y-112428571D01*
X108742857Y-112457142D01*
X108714285Y-112514285D01*
X108714285Y-112657142D01*
X108742857Y-112714285D01*
X108771428Y-112742857D01*
X108828571Y-112771428D01*
X109000000Y-112771428D01*
X109057142Y-112742857D01*
X109085714Y-112714285D01*
X108142857Y-112771428D02*
X108485714Y-112771428D01*
X108314285Y-112771428D02*
X108314285Y-112171428D01*
X108371428Y-112257142D01*
X108428571Y-112314285D01*
X108485714Y-112342857D01*
G04 #@! TO.C,R30*
X109285714Y-113771428D02*
X109485714Y-113485714D01*
X109628571Y-113771428D02*
X109628571Y-113171428D01*
X109400000Y-113171428D01*
X109342857Y-113200000D01*
X109314285Y-113228571D01*
X109285714Y-113285714D01*
X109285714Y-113371428D01*
X109314285Y-113428571D01*
X109342857Y-113457142D01*
X109400000Y-113485714D01*
X109628571Y-113485714D01*
X109085714Y-113171428D02*
X108714285Y-113171428D01*
X108914285Y-113400000D01*
X108828571Y-113400000D01*
X108771428Y-113428571D01*
X108742857Y-113457142D01*
X108714285Y-113514285D01*
X108714285Y-113657142D01*
X108742857Y-113714285D01*
X108771428Y-113742857D01*
X108828571Y-113771428D01*
X109000000Y-113771428D01*
X109057142Y-113742857D01*
X109085714Y-113714285D01*
X108342857Y-113171428D02*
X108285714Y-113171428D01*
X108228571Y-113200000D01*
X108200000Y-113228571D01*
X108171428Y-113285714D01*
X108142857Y-113400000D01*
X108142857Y-113542857D01*
X108171428Y-113657142D01*
X108200000Y-113714285D01*
X108228571Y-113742857D01*
X108285714Y-113771428D01*
X108342857Y-113771428D01*
X108400000Y-113742857D01*
X108428571Y-113714285D01*
X108457142Y-113657142D01*
X108485714Y-113542857D01*
X108485714Y-113400000D01*
X108457142Y-113285714D01*
X108428571Y-113228571D01*
X108400000Y-113200000D01*
X108342857Y-113171428D01*
G04 #@! TO.C,R29*
X109285714Y-114771428D02*
X109485714Y-114485714D01*
X109628571Y-114771428D02*
X109628571Y-114171428D01*
X109400000Y-114171428D01*
X109342857Y-114200000D01*
X109314285Y-114228571D01*
X109285714Y-114285714D01*
X109285714Y-114371428D01*
X109314285Y-114428571D01*
X109342857Y-114457142D01*
X109400000Y-114485714D01*
X109628571Y-114485714D01*
X109057142Y-114228571D02*
X109028571Y-114200000D01*
X108971428Y-114171428D01*
X108828571Y-114171428D01*
X108771428Y-114200000D01*
X108742857Y-114228571D01*
X108714285Y-114285714D01*
X108714285Y-114342857D01*
X108742857Y-114428571D01*
X109085714Y-114771428D01*
X108714285Y-114771428D01*
X108428571Y-114771428D02*
X108314285Y-114771428D01*
X108257142Y-114742857D01*
X108228571Y-114714285D01*
X108171428Y-114628571D01*
X108142857Y-114514285D01*
X108142857Y-114285714D01*
X108171428Y-114228571D01*
X108200000Y-114200000D01*
X108257142Y-114171428D01*
X108371428Y-114171428D01*
X108428571Y-114200000D01*
X108457142Y-114228571D01*
X108485714Y-114285714D01*
X108485714Y-114428571D01*
X108457142Y-114485714D01*
X108428571Y-114514285D01*
X108371428Y-114542857D01*
X108257142Y-114542857D01*
X108200000Y-114514285D01*
X108171428Y-114485714D01*
X108142857Y-114428571D01*
G04 #@! TO.C,R28*
X109285714Y-115771428D02*
X109485714Y-115485714D01*
X109628571Y-115771428D02*
X109628571Y-115171428D01*
X109400000Y-115171428D01*
X109342857Y-115200000D01*
X109314285Y-115228571D01*
X109285714Y-115285714D01*
X109285714Y-115371428D01*
X109314285Y-115428571D01*
X109342857Y-115457142D01*
X109400000Y-115485714D01*
X109628571Y-115485714D01*
X109057142Y-115228571D02*
X109028571Y-115200000D01*
X108971428Y-115171428D01*
X108828571Y-115171428D01*
X108771428Y-115200000D01*
X108742857Y-115228571D01*
X108714285Y-115285714D01*
X108714285Y-115342857D01*
X108742857Y-115428571D01*
X109085714Y-115771428D01*
X108714285Y-115771428D01*
X108371428Y-115428571D02*
X108428571Y-115400000D01*
X108457142Y-115371428D01*
X108485714Y-115314285D01*
X108485714Y-115285714D01*
X108457142Y-115228571D01*
X108428571Y-115200000D01*
X108371428Y-115171428D01*
X108257142Y-115171428D01*
X108200000Y-115200000D01*
X108171428Y-115228571D01*
X108142857Y-115285714D01*
X108142857Y-115314285D01*
X108171428Y-115371428D01*
X108200000Y-115400000D01*
X108257142Y-115428571D01*
X108371428Y-115428571D01*
X108428571Y-115457142D01*
X108457142Y-115485714D01*
X108485714Y-115542857D01*
X108485714Y-115657142D01*
X108457142Y-115714285D01*
X108428571Y-115742857D01*
X108371428Y-115771428D01*
X108257142Y-115771428D01*
X108200000Y-115742857D01*
X108171428Y-115714285D01*
X108142857Y-115657142D01*
X108142857Y-115542857D01*
X108171428Y-115485714D01*
X108200000Y-115457142D01*
X108257142Y-115428571D01*
G04 #@! TO.C,R27*
X109285714Y-116771428D02*
X109485714Y-116485714D01*
X109628571Y-116771428D02*
X109628571Y-116171428D01*
X109400000Y-116171428D01*
X109342857Y-116200000D01*
X109314285Y-116228571D01*
X109285714Y-116285714D01*
X109285714Y-116371428D01*
X109314285Y-116428571D01*
X109342857Y-116457142D01*
X109400000Y-116485714D01*
X109628571Y-116485714D01*
X109057142Y-116228571D02*
X109028571Y-116200000D01*
X108971428Y-116171428D01*
X108828571Y-116171428D01*
X108771428Y-116200000D01*
X108742857Y-116228571D01*
X108714285Y-116285714D01*
X108714285Y-116342857D01*
X108742857Y-116428571D01*
X109085714Y-116771428D01*
X108714285Y-116771428D01*
X108514285Y-116171428D02*
X108114285Y-116171428D01*
X108371428Y-116771428D01*
G04 #@! TO.C,R10*
X109285714Y-117771428D02*
X109485714Y-117485714D01*
X109628571Y-117771428D02*
X109628571Y-117171428D01*
X109400000Y-117171428D01*
X109342857Y-117200000D01*
X109314285Y-117228571D01*
X109285714Y-117285714D01*
X109285714Y-117371428D01*
X109314285Y-117428571D01*
X109342857Y-117457142D01*
X109400000Y-117485714D01*
X109628571Y-117485714D01*
X108714285Y-117771428D02*
X109057142Y-117771428D01*
X108885714Y-117771428D02*
X108885714Y-117171428D01*
X108942857Y-117257142D01*
X109000000Y-117314285D01*
X109057142Y-117342857D01*
X108342857Y-117171428D02*
X108285714Y-117171428D01*
X108228571Y-117200000D01*
X108200000Y-117228571D01*
X108171428Y-117285714D01*
X108142857Y-117400000D01*
X108142857Y-117542857D01*
X108171428Y-117657142D01*
X108200000Y-117714285D01*
X108228571Y-117742857D01*
X108285714Y-117771428D01*
X108342857Y-117771428D01*
X108400000Y-117742857D01*
X108428571Y-117714285D01*
X108457142Y-117657142D01*
X108485714Y-117542857D01*
X108485714Y-117400000D01*
X108457142Y-117285714D01*
X108428571Y-117228571D01*
X108400000Y-117200000D01*
X108342857Y-117171428D01*
G04 #@! TO.C,R9*
X107100000Y-120171428D02*
X107300000Y-119885714D01*
X107442857Y-120171428D02*
X107442857Y-119571428D01*
X107214285Y-119571428D01*
X107157142Y-119600000D01*
X107128571Y-119628571D01*
X107100000Y-119685714D01*
X107100000Y-119771428D01*
X107128571Y-119828571D01*
X107157142Y-119857142D01*
X107214285Y-119885714D01*
X107442857Y-119885714D01*
X106814285Y-120171428D02*
X106700000Y-120171428D01*
X106642857Y-120142857D01*
X106614285Y-120114285D01*
X106557142Y-120028571D01*
X106528571Y-119914285D01*
X106528571Y-119685714D01*
X106557142Y-119628571D01*
X106585714Y-119600000D01*
X106642857Y-119571428D01*
X106757142Y-119571428D01*
X106814285Y-119600000D01*
X106842857Y-119628571D01*
X106871428Y-119685714D01*
X106871428Y-119828571D01*
X106842857Y-119885714D01*
X106814285Y-119914285D01*
X106757142Y-119942857D01*
X106642857Y-119942857D01*
X106585714Y-119914285D01*
X106557142Y-119885714D01*
X106528571Y-119828571D01*
G04 #@! TO.C,R8*
X101160428Y-73104000D02*
X100874714Y-72904000D01*
X101160428Y-72761142D02*
X100560428Y-72761142D01*
X100560428Y-72989714D01*
X100589000Y-73046857D01*
X100617571Y-73075428D01*
X100674714Y-73104000D01*
X100760428Y-73104000D01*
X100817571Y-73075428D01*
X100846142Y-73046857D01*
X100874714Y-72989714D01*
X100874714Y-72761142D01*
X100817571Y-73446857D02*
X100789000Y-73389714D01*
X100760428Y-73361142D01*
X100703285Y-73332571D01*
X100674714Y-73332571D01*
X100617571Y-73361142D01*
X100589000Y-73389714D01*
X100560428Y-73446857D01*
X100560428Y-73561142D01*
X100589000Y-73618285D01*
X100617571Y-73646857D01*
X100674714Y-73675428D01*
X100703285Y-73675428D01*
X100760428Y-73646857D01*
X100789000Y-73618285D01*
X100817571Y-73561142D01*
X100817571Y-73446857D01*
X100846142Y-73389714D01*
X100874714Y-73361142D01*
X100931857Y-73332571D01*
X101046142Y-73332571D01*
X101103285Y-73361142D01*
X101131857Y-73389714D01*
X101160428Y-73446857D01*
X101160428Y-73561142D01*
X101131857Y-73618285D01*
X101103285Y-73646857D01*
X101046142Y-73675428D01*
X100931857Y-73675428D01*
X100874714Y-73646857D01*
X100846142Y-73618285D01*
X100817571Y-73561142D01*
G04 #@! TO.C,R7*
X113606428Y-82121000D02*
X113320714Y-81921000D01*
X113606428Y-81778142D02*
X113006428Y-81778142D01*
X113006428Y-82006714D01*
X113035000Y-82063857D01*
X113063571Y-82092428D01*
X113120714Y-82121000D01*
X113206428Y-82121000D01*
X113263571Y-82092428D01*
X113292142Y-82063857D01*
X113320714Y-82006714D01*
X113320714Y-81778142D01*
X113006428Y-82321000D02*
X113006428Y-82721000D01*
X113606428Y-82463857D01*
G04 #@! TO.C,C21*
X108994285Y-109614285D02*
X109022857Y-109585714D01*
X109051428Y-109500000D01*
X109051428Y-109442857D01*
X109022857Y-109357142D01*
X108965714Y-109300000D01*
X108908571Y-109271428D01*
X108794285Y-109242857D01*
X108708571Y-109242857D01*
X108594285Y-109271428D01*
X108537142Y-109300000D01*
X108480000Y-109357142D01*
X108451428Y-109442857D01*
X108451428Y-109500000D01*
X108480000Y-109585714D01*
X108508571Y-109614285D01*
X108508571Y-109842857D02*
X108480000Y-109871428D01*
X108451428Y-109928571D01*
X108451428Y-110071428D01*
X108480000Y-110128571D01*
X108508571Y-110157142D01*
X108565714Y-110185714D01*
X108622857Y-110185714D01*
X108708571Y-110157142D01*
X109051428Y-109814285D01*
X109051428Y-110185714D01*
X109051428Y-110757142D02*
X109051428Y-110414285D01*
X109051428Y-110585714D02*
X108451428Y-110585714D01*
X108537142Y-110528571D01*
X108594285Y-110471428D01*
X108622857Y-110414285D01*
G04 #@! TO.C,C19*
X110694285Y-118614285D02*
X110722857Y-118585714D01*
X110751428Y-118500000D01*
X110751428Y-118442857D01*
X110722857Y-118357142D01*
X110665714Y-118300000D01*
X110608571Y-118271428D01*
X110494285Y-118242857D01*
X110408571Y-118242857D01*
X110294285Y-118271428D01*
X110237142Y-118300000D01*
X110180000Y-118357142D01*
X110151428Y-118442857D01*
X110151428Y-118500000D01*
X110180000Y-118585714D01*
X110208571Y-118614285D01*
X110751428Y-119185714D02*
X110751428Y-118842857D01*
X110751428Y-119014285D02*
X110151428Y-119014285D01*
X110237142Y-118957142D01*
X110294285Y-118900000D01*
X110322857Y-118842857D01*
X110751428Y-119471428D02*
X110751428Y-119585714D01*
X110722857Y-119642857D01*
X110694285Y-119671428D01*
X110608571Y-119728571D01*
X110494285Y-119757142D01*
X110265714Y-119757142D01*
X110208571Y-119728571D01*
X110180000Y-119700000D01*
X110151428Y-119642857D01*
X110151428Y-119528571D01*
X110180000Y-119471428D01*
X110208571Y-119442857D01*
X110265714Y-119414285D01*
X110408571Y-119414285D01*
X110465714Y-119442857D01*
X110494285Y-119471428D01*
X110522857Y-119528571D01*
X110522857Y-119642857D01*
X110494285Y-119700000D01*
X110465714Y-119728571D01*
X110408571Y-119757142D01*
G04 #@! TO.C,C40*
X116624285Y-80184285D02*
X116652857Y-80155714D01*
X116681428Y-80070000D01*
X116681428Y-80012857D01*
X116652857Y-79927142D01*
X116595714Y-79870000D01*
X116538571Y-79841428D01*
X116424285Y-79812857D01*
X116338571Y-79812857D01*
X116224285Y-79841428D01*
X116167142Y-79870000D01*
X116110000Y-79927142D01*
X116081428Y-80012857D01*
X116081428Y-80070000D01*
X116110000Y-80155714D01*
X116138571Y-80184285D01*
X116281428Y-80698571D02*
X116681428Y-80698571D01*
X116052857Y-80555714D02*
X116481428Y-80412857D01*
X116481428Y-80784285D01*
X116081428Y-81127142D02*
X116081428Y-81184285D01*
X116110000Y-81241428D01*
X116138571Y-81270000D01*
X116195714Y-81298571D01*
X116310000Y-81327142D01*
X116452857Y-81327142D01*
X116567142Y-81298571D01*
X116624285Y-81270000D01*
X116652857Y-81241428D01*
X116681428Y-81184285D01*
X116681428Y-81127142D01*
X116652857Y-81070000D01*
X116624285Y-81041428D01*
X116567142Y-81012857D01*
X116452857Y-80984285D01*
X116310000Y-80984285D01*
X116195714Y-81012857D01*
X116138571Y-81041428D01*
X116110000Y-81070000D01*
X116081428Y-81127142D01*
G04 #@! TO.C,C37*
X118021285Y-80311285D02*
X118049857Y-80282714D01*
X118078428Y-80197000D01*
X118078428Y-80139857D01*
X118049857Y-80054142D01*
X117992714Y-79997000D01*
X117935571Y-79968428D01*
X117821285Y-79939857D01*
X117735571Y-79939857D01*
X117621285Y-79968428D01*
X117564142Y-79997000D01*
X117507000Y-80054142D01*
X117478428Y-80139857D01*
X117478428Y-80197000D01*
X117507000Y-80282714D01*
X117535571Y-80311285D01*
X117478428Y-80511285D02*
X117478428Y-80882714D01*
X117707000Y-80682714D01*
X117707000Y-80768428D01*
X117735571Y-80825571D01*
X117764142Y-80854142D01*
X117821285Y-80882714D01*
X117964142Y-80882714D01*
X118021285Y-80854142D01*
X118049857Y-80825571D01*
X118078428Y-80768428D01*
X118078428Y-80597000D01*
X118049857Y-80539857D01*
X118021285Y-80511285D01*
X117478428Y-81082714D02*
X117478428Y-81482714D01*
X118078428Y-81225571D01*
G04 #@! TO.C,C7*
X119046421Y-101170460D02*
X119074993Y-101141888D01*
X119103564Y-101056174D01*
X119103564Y-100999031D01*
X119074993Y-100913317D01*
X119017850Y-100856174D01*
X118960707Y-100827602D01*
X118846421Y-100799031D01*
X118760707Y-100799031D01*
X118646421Y-100827602D01*
X118589278Y-100856174D01*
X118532136Y-100913317D01*
X118503564Y-100999031D01*
X118503564Y-101056174D01*
X118532136Y-101141888D01*
X118560707Y-101170460D01*
X118503564Y-101370460D02*
X118503564Y-101770460D01*
X119103564Y-101513317D01*
G04 #@! TO.C,C6*
X114314285Y-101170730D02*
X114342857Y-101142158D01*
X114371428Y-101056444D01*
X114371428Y-100999301D01*
X114342857Y-100913587D01*
X114285714Y-100856444D01*
X114228571Y-100827872D01*
X114114285Y-100799301D01*
X114028571Y-100799301D01*
X113914285Y-100827872D01*
X113857142Y-100856444D01*
X113800000Y-100913587D01*
X113771428Y-100999301D01*
X113771428Y-101056444D01*
X113800000Y-101142158D01*
X113828571Y-101170730D01*
X113771428Y-101685015D02*
X113771428Y-101570730D01*
X113800000Y-101513587D01*
X113828571Y-101485015D01*
X113914285Y-101427872D01*
X114028571Y-101399301D01*
X114257142Y-101399301D01*
X114314285Y-101427872D01*
X114342857Y-101456444D01*
X114371428Y-101513587D01*
X114371428Y-101627872D01*
X114342857Y-101685015D01*
X114314285Y-101713587D01*
X114257142Y-101742158D01*
X114114285Y-101742158D01*
X114057142Y-101713587D01*
X114028571Y-101685015D01*
X114000000Y-101627872D01*
X114000000Y-101513587D01*
X114028571Y-101456444D01*
X114057142Y-101427872D01*
X114114285Y-101399301D01*
G04 #@! TO.C,C5*
X128710691Y-101290866D02*
X128739263Y-101262294D01*
X128767834Y-101176580D01*
X128767834Y-101119437D01*
X128739263Y-101033723D01*
X128682120Y-100976580D01*
X128624977Y-100948008D01*
X128510691Y-100919437D01*
X128424977Y-100919437D01*
X128310691Y-100948008D01*
X128253548Y-100976580D01*
X128196406Y-101033723D01*
X128167834Y-101119437D01*
X128167834Y-101176580D01*
X128196406Y-101262294D01*
X128224977Y-101290866D01*
X128167834Y-101833723D02*
X128167834Y-101548008D01*
X128453548Y-101519437D01*
X128424977Y-101548008D01*
X128396406Y-101605151D01*
X128396406Y-101748008D01*
X128424977Y-101805151D01*
X128453548Y-101833723D01*
X128510691Y-101862294D01*
X128653548Y-101862294D01*
X128710691Y-101833723D01*
X128739263Y-101805151D01*
X128767834Y-101748008D01*
X128767834Y-101605151D01*
X128739263Y-101548008D01*
X128710691Y-101519437D01*
G04 #@! TO.C,C4*
X123872421Y-101007730D02*
X123900993Y-100979158D01*
X123929564Y-100893444D01*
X123929564Y-100836301D01*
X123900993Y-100750587D01*
X123843850Y-100693444D01*
X123786707Y-100664872D01*
X123672421Y-100636301D01*
X123586707Y-100636301D01*
X123472421Y-100664872D01*
X123415278Y-100693444D01*
X123358136Y-100750587D01*
X123329564Y-100836301D01*
X123329564Y-100893444D01*
X123358136Y-100979158D01*
X123386707Y-101007730D01*
X123529564Y-101522015D02*
X123929564Y-101522015D01*
X123300993Y-101379158D02*
X123729564Y-101236301D01*
X123729564Y-101607730D01*
G04 #@! TO.C,C12*
X122602421Y-101222015D02*
X122630993Y-101193444D01*
X122659564Y-101107730D01*
X122659564Y-101050587D01*
X122630993Y-100964872D01*
X122573850Y-100907730D01*
X122516707Y-100879158D01*
X122402421Y-100850587D01*
X122316707Y-100850587D01*
X122202421Y-100879158D01*
X122145278Y-100907730D01*
X122088136Y-100964872D01*
X122059564Y-101050587D01*
X122059564Y-101107730D01*
X122088136Y-101193444D01*
X122116707Y-101222015D01*
X122659564Y-101793444D02*
X122659564Y-101450587D01*
X122659564Y-101622015D02*
X122059564Y-101622015D01*
X122145278Y-101564872D01*
X122202421Y-101507730D01*
X122230993Y-101450587D01*
X122116707Y-102022015D02*
X122088136Y-102050587D01*
X122059564Y-102107730D01*
X122059564Y-102250587D01*
X122088136Y-102307730D01*
X122116707Y-102336301D01*
X122173850Y-102364872D01*
X122230993Y-102364872D01*
X122316707Y-102336301D01*
X122659564Y-101993444D01*
X122659564Y-102364872D01*
G04 #@! TO.C,C13*
X127071191Y-101287103D02*
X127099763Y-101258532D01*
X127128334Y-101172818D01*
X127128334Y-101115675D01*
X127099763Y-101029960D01*
X127042620Y-100972818D01*
X126985477Y-100944246D01*
X126871191Y-100915675D01*
X126785477Y-100915675D01*
X126671191Y-100944246D01*
X126614048Y-100972818D01*
X126556906Y-101029960D01*
X126528334Y-101115675D01*
X126528334Y-101172818D01*
X126556906Y-101258532D01*
X126585477Y-101287103D01*
X127128334Y-101858532D02*
X127128334Y-101515675D01*
X127128334Y-101687103D02*
X126528334Y-101687103D01*
X126614048Y-101629960D01*
X126671191Y-101572818D01*
X126699763Y-101515675D01*
X126528334Y-102058532D02*
X126528334Y-102429960D01*
X126756906Y-102229960D01*
X126756906Y-102315675D01*
X126785477Y-102372818D01*
X126814048Y-102401389D01*
X126871191Y-102429960D01*
X127014048Y-102429960D01*
X127071191Y-102401389D01*
X127099763Y-102372818D01*
X127128334Y-102315675D01*
X127128334Y-102144246D01*
X127099763Y-102087103D01*
X127071191Y-102058532D01*
G04 #@! TO.C,C2*
X112914285Y-101170730D02*
X112942857Y-101142158D01*
X112971428Y-101056444D01*
X112971428Y-100999301D01*
X112942857Y-100913587D01*
X112885714Y-100856444D01*
X112828571Y-100827872D01*
X112714285Y-100799301D01*
X112628571Y-100799301D01*
X112514285Y-100827872D01*
X112457142Y-100856444D01*
X112400000Y-100913587D01*
X112371428Y-100999301D01*
X112371428Y-101056444D01*
X112400000Y-101142158D01*
X112428571Y-101170730D01*
X112428571Y-101399301D02*
X112400000Y-101427872D01*
X112371428Y-101485015D01*
X112371428Y-101627872D01*
X112400000Y-101685015D01*
X112428571Y-101713587D01*
X112485714Y-101742158D01*
X112542857Y-101742158D01*
X112628571Y-101713587D01*
X112971428Y-101370730D01*
X112971428Y-101742158D01*
G04 #@! TO.C,C3*
X117776421Y-101007730D02*
X117804993Y-100979158D01*
X117833564Y-100893444D01*
X117833564Y-100836301D01*
X117804993Y-100750587D01*
X117747850Y-100693444D01*
X117690707Y-100664872D01*
X117576421Y-100636301D01*
X117490707Y-100636301D01*
X117376421Y-100664872D01*
X117319278Y-100693444D01*
X117262136Y-100750587D01*
X117233564Y-100836301D01*
X117233564Y-100893444D01*
X117262136Y-100979158D01*
X117290707Y-101007730D01*
X117233564Y-101207730D02*
X117233564Y-101579158D01*
X117462136Y-101379158D01*
X117462136Y-101464872D01*
X117490707Y-101522015D01*
X117519278Y-101550587D01*
X117576421Y-101579158D01*
X117719278Y-101579158D01*
X117776421Y-101550587D01*
X117804993Y-101522015D01*
X117833564Y-101464872D01*
X117833564Y-101293444D01*
X117804993Y-101236301D01*
X117776421Y-101207730D01*
G04 #@! TO.C,C78*
X110655285Y-78533285D02*
X110683857Y-78504714D01*
X110712428Y-78419000D01*
X110712428Y-78361857D01*
X110683857Y-78276142D01*
X110626714Y-78219000D01*
X110569571Y-78190428D01*
X110455285Y-78161857D01*
X110369571Y-78161857D01*
X110255285Y-78190428D01*
X110198142Y-78219000D01*
X110141000Y-78276142D01*
X110112428Y-78361857D01*
X110112428Y-78419000D01*
X110141000Y-78504714D01*
X110169571Y-78533285D01*
X110112428Y-78733285D02*
X110112428Y-79133285D01*
X110712428Y-78876142D01*
X110369571Y-79447571D02*
X110341000Y-79390428D01*
X110312428Y-79361857D01*
X110255285Y-79333285D01*
X110226714Y-79333285D01*
X110169571Y-79361857D01*
X110141000Y-79390428D01*
X110112428Y-79447571D01*
X110112428Y-79561857D01*
X110141000Y-79619000D01*
X110169571Y-79647571D01*
X110226714Y-79676142D01*
X110255285Y-79676142D01*
X110312428Y-79647571D01*
X110341000Y-79619000D01*
X110369571Y-79561857D01*
X110369571Y-79447571D01*
X110398142Y-79390428D01*
X110426714Y-79361857D01*
X110483857Y-79333285D01*
X110598142Y-79333285D01*
X110655285Y-79361857D01*
X110683857Y-79390428D01*
X110712428Y-79447571D01*
X110712428Y-79561857D01*
X110683857Y-79619000D01*
X110655285Y-79647571D01*
X110598142Y-79676142D01*
X110483857Y-79676142D01*
X110426714Y-79647571D01*
X110398142Y-79619000D01*
X110369571Y-79561857D01*
G04 #@! TO.C,U12*
X114866857Y-79098428D02*
X114866857Y-79584142D01*
X114838285Y-79641285D01*
X114809714Y-79669857D01*
X114752571Y-79698428D01*
X114638285Y-79698428D01*
X114581142Y-79669857D01*
X114552571Y-79641285D01*
X114524000Y-79584142D01*
X114524000Y-79098428D01*
X113924000Y-79698428D02*
X114266857Y-79698428D01*
X114095428Y-79698428D02*
X114095428Y-79098428D01*
X114152571Y-79184142D01*
X114209714Y-79241285D01*
X114266857Y-79269857D01*
X113695428Y-79155571D02*
X113666857Y-79127000D01*
X113609714Y-79098428D01*
X113466857Y-79098428D01*
X113409714Y-79127000D01*
X113381142Y-79155571D01*
X113352571Y-79212714D01*
X113352571Y-79269857D01*
X113381142Y-79355571D01*
X113724000Y-79698428D01*
X113352571Y-79698428D01*
G04 #@! TO.C,U13*
X107119857Y-79098428D02*
X107119857Y-79584142D01*
X107091285Y-79641285D01*
X107062714Y-79669857D01*
X107005571Y-79698428D01*
X106891285Y-79698428D01*
X106834142Y-79669857D01*
X106805571Y-79641285D01*
X106777000Y-79584142D01*
X106777000Y-79098428D01*
X106177000Y-79698428D02*
X106519857Y-79698428D01*
X106348428Y-79698428D02*
X106348428Y-79098428D01*
X106405571Y-79184142D01*
X106462714Y-79241285D01*
X106519857Y-79269857D01*
X105977000Y-79098428D02*
X105605571Y-79098428D01*
X105805571Y-79327000D01*
X105719857Y-79327000D01*
X105662714Y-79355571D01*
X105634142Y-79384142D01*
X105605571Y-79441285D01*
X105605571Y-79584142D01*
X105634142Y-79641285D01*
X105662714Y-79669857D01*
X105719857Y-79698428D01*
X105891285Y-79698428D01*
X105948428Y-79669857D01*
X105977000Y-79641285D01*
G04 #@! TO.C,C23*
X112759285Y-67611285D02*
X112787857Y-67582714D01*
X112816428Y-67497000D01*
X112816428Y-67439857D01*
X112787857Y-67354142D01*
X112730714Y-67297000D01*
X112673571Y-67268428D01*
X112559285Y-67239857D01*
X112473571Y-67239857D01*
X112359285Y-67268428D01*
X112302142Y-67297000D01*
X112245000Y-67354142D01*
X112216428Y-67439857D01*
X112216428Y-67497000D01*
X112245000Y-67582714D01*
X112273571Y-67611285D01*
X112273571Y-67839857D02*
X112245000Y-67868428D01*
X112216428Y-67925571D01*
X112216428Y-68068428D01*
X112245000Y-68125571D01*
X112273571Y-68154142D01*
X112330714Y-68182714D01*
X112387857Y-68182714D01*
X112473571Y-68154142D01*
X112816428Y-67811285D01*
X112816428Y-68182714D01*
X112216428Y-68382714D02*
X112216428Y-68754142D01*
X112445000Y-68554142D01*
X112445000Y-68639857D01*
X112473571Y-68697000D01*
X112502142Y-68725571D01*
X112559285Y-68754142D01*
X112702142Y-68754142D01*
X112759285Y-68725571D01*
X112787857Y-68697000D01*
X112816428Y-68639857D01*
X112816428Y-68468428D01*
X112787857Y-68411285D01*
X112759285Y-68382714D01*
G04 #@! TO.C,D4*
X126742857Y-75471428D02*
X126742857Y-74871428D01*
X126600000Y-74871428D01*
X126514285Y-74900000D01*
X126457142Y-74957142D01*
X126428571Y-75014285D01*
X126400000Y-75128571D01*
X126400000Y-75214285D01*
X126428571Y-75328571D01*
X126457142Y-75385714D01*
X126514285Y-75442857D01*
X126600000Y-75471428D01*
X126742857Y-75471428D01*
X125885714Y-75071428D02*
X125885714Y-75471428D01*
X126028571Y-74842857D02*
X126171428Y-75271428D01*
X125800000Y-75271428D01*
G04 #@! TO.C,D1*
X129758577Y-63974428D02*
X129758577Y-63374428D01*
X129615720Y-63374428D01*
X129530005Y-63403000D01*
X129472862Y-63460142D01*
X129444291Y-63517285D01*
X129415720Y-63631571D01*
X129415720Y-63717285D01*
X129444291Y-63831571D01*
X129472862Y-63888714D01*
X129530005Y-63945857D01*
X129615720Y-63974428D01*
X129758577Y-63974428D01*
X128844291Y-63974428D02*
X129187148Y-63974428D01*
X129015720Y-63974428D02*
X129015720Y-63374428D01*
X129072862Y-63460142D01*
X129130005Y-63517285D01*
X129187148Y-63545857D01*
G04 #@! TO.C,D3*
X132742857Y-75471428D02*
X132742857Y-74871428D01*
X132600000Y-74871428D01*
X132514285Y-74900000D01*
X132457142Y-74957142D01*
X132428571Y-75014285D01*
X132400000Y-75128571D01*
X132400000Y-75214285D01*
X132428571Y-75328571D01*
X132457142Y-75385714D01*
X132514285Y-75442857D01*
X132600000Y-75471428D01*
X132742857Y-75471428D01*
X132200000Y-74871428D02*
X131828571Y-74871428D01*
X132028571Y-75100000D01*
X131942857Y-75100000D01*
X131885714Y-75128571D01*
X131857142Y-75157142D01*
X131828571Y-75214285D01*
X131828571Y-75357142D01*
X131857142Y-75414285D01*
X131885714Y-75442857D01*
X131942857Y-75471428D01*
X132114285Y-75471428D01*
X132171428Y-75442857D01*
X132200000Y-75414285D01*
G04 #@! TO.C,D2*
X129842857Y-75471428D02*
X129842857Y-74871428D01*
X129700000Y-74871428D01*
X129614285Y-74900000D01*
X129557142Y-74957142D01*
X129528571Y-75014285D01*
X129500000Y-75128571D01*
X129500000Y-75214285D01*
X129528571Y-75328571D01*
X129557142Y-75385714D01*
X129614285Y-75442857D01*
X129700000Y-75471428D01*
X129842857Y-75471428D01*
X129271428Y-74928571D02*
X129242857Y-74900000D01*
X129185714Y-74871428D01*
X129042857Y-74871428D01*
X128985714Y-74900000D01*
X128957142Y-74928571D01*
X128928571Y-74985714D01*
X128928571Y-75042857D01*
X128957142Y-75128571D01*
X129300000Y-75471428D01*
X128928571Y-75471428D01*
G04 #@! TD*
M02*
