G04 #@! TF.GenerationSoftware,KiCad,Pcbnew,6.0.0-rc1-unknown-f1b2855~84~ubuntu16.04.1*
G04 #@! TF.CreationDate,2018-10-23T11:27:57+08:00*
G04 #@! TF.ProjectId,ovc2_mobo,6F7663325F6D6F626F2E6B696361645F,rev?*
G04 #@! TF.SameCoordinates,Original*
G04 #@! TF.FileFunction,Soldermask,Bot*
G04 #@! TF.FilePolarity,Negative*
%FSLAX46Y46*%
G04 Gerber Fmt 4.6, Leading zero omitted, Abs format (unit mm)*
G04 Created by KiCad (PCBNEW 6.0.0-rc1-unknown-f1b2855~84~ubuntu16.04.1) date Tue 23 Oct 2018 11:27:57 AM +08*
%MOMM*%
%LPD*%
G01*
G04 APERTURE LIST*
%ADD10C,0.100000*%
G04 APERTURE END LIST*
D10*
G36*
X134161885Y-134049058D02*
X134262892Y-134090896D01*
X134353795Y-134151636D01*
X134431094Y-134228935D01*
X134491834Y-134319838D01*
X134533672Y-134420845D01*
X134555000Y-134528066D01*
X134555000Y-134637394D01*
X134533672Y-134744615D01*
X134491834Y-134845622D01*
X134431094Y-134936525D01*
X134353795Y-135013824D01*
X134262892Y-135074564D01*
X134161885Y-135116402D01*
X134054664Y-135137730D01*
X133945336Y-135137730D01*
X133838115Y-135116402D01*
X133737108Y-135074564D01*
X133646205Y-135013824D01*
X133568906Y-134936525D01*
X133508166Y-134845622D01*
X133466328Y-134744615D01*
X133445000Y-134637394D01*
X133445000Y-134528066D01*
X133466328Y-134420845D01*
X133508166Y-134319838D01*
X133568906Y-134228935D01*
X133646205Y-134151636D01*
X133737108Y-134090896D01*
X133838115Y-134049058D01*
X133945336Y-134027730D01*
X134054664Y-134027730D01*
X134161885Y-134049058D01*
X134161885Y-134049058D01*
G37*
G36*
X104161885Y-134049058D02*
X104262892Y-134090896D01*
X104353795Y-134151636D01*
X104431094Y-134228935D01*
X104491834Y-134319838D01*
X104533672Y-134420845D01*
X104555000Y-134528066D01*
X104555000Y-134637394D01*
X104533672Y-134744615D01*
X104491834Y-134845622D01*
X104431094Y-134936525D01*
X104353795Y-135013824D01*
X104262892Y-135074564D01*
X104161885Y-135116402D01*
X104054664Y-135137730D01*
X103945336Y-135137730D01*
X103838115Y-135116402D01*
X103737108Y-135074564D01*
X103646205Y-135013824D01*
X103568906Y-134936525D01*
X103508166Y-134845622D01*
X103466328Y-134744615D01*
X103445000Y-134637394D01*
X103445000Y-134528066D01*
X103466328Y-134420845D01*
X103508166Y-134319838D01*
X103568906Y-134228935D01*
X103646205Y-134151636D01*
X103737108Y-134090896D01*
X103838115Y-134049058D01*
X103945336Y-134027730D01*
X104054664Y-134027730D01*
X104161885Y-134049058D01*
X104161885Y-134049058D01*
G37*
G36*
X132184397Y-132075198D02*
X132361836Y-132148696D01*
X132521527Y-132255398D01*
X132657332Y-132391203D01*
X132764034Y-132550894D01*
X132837532Y-132728333D01*
X132875000Y-132916701D01*
X132875000Y-133108759D01*
X132837532Y-133297127D01*
X132764034Y-133474566D01*
X132657332Y-133634257D01*
X132521527Y-133770062D01*
X132361836Y-133876764D01*
X132184397Y-133950262D01*
X131996029Y-133987730D01*
X131803971Y-133987730D01*
X131615603Y-133950262D01*
X131438164Y-133876764D01*
X131278473Y-133770062D01*
X131142668Y-133634257D01*
X131035966Y-133474566D01*
X130962468Y-133297127D01*
X130925000Y-133108759D01*
X130925000Y-132916701D01*
X130962468Y-132728333D01*
X131035966Y-132550894D01*
X131142668Y-132391203D01*
X131278473Y-132255398D01*
X131438164Y-132148696D01*
X131615603Y-132075198D01*
X131803971Y-132037730D01*
X131996029Y-132037730D01*
X132184397Y-132075198D01*
X132184397Y-132075198D01*
G37*
G36*
X106384397Y-132075198D02*
X106561836Y-132148696D01*
X106721527Y-132255398D01*
X106857332Y-132391203D01*
X106964034Y-132550894D01*
X107037532Y-132728333D01*
X107075000Y-132916701D01*
X107075000Y-133108759D01*
X107037532Y-133297127D01*
X106964034Y-133474566D01*
X106857332Y-133634257D01*
X106721527Y-133770062D01*
X106561836Y-133876764D01*
X106384397Y-133950262D01*
X106196029Y-133987730D01*
X106003971Y-133987730D01*
X105815603Y-133950262D01*
X105638164Y-133876764D01*
X105478473Y-133770062D01*
X105342668Y-133634257D01*
X105235966Y-133474566D01*
X105162468Y-133297127D01*
X105125000Y-133108759D01*
X105125000Y-132916701D01*
X105162468Y-132728333D01*
X105235966Y-132550894D01*
X105342668Y-132391203D01*
X105478473Y-132255398D01*
X105638164Y-132148696D01*
X105815603Y-132075198D01*
X106003971Y-132037730D01*
X106196029Y-132037730D01*
X106384397Y-132075198D01*
X106384397Y-132075198D01*
G37*
G36*
X178112547Y-128300701D02*
X178494722Y-128459003D01*
X178494723Y-128459004D01*
X178838672Y-128688823D01*
X179131177Y-128981328D01*
X179228205Y-129126541D01*
X179360997Y-129325278D01*
X179519299Y-129707453D01*
X179600000Y-130113167D01*
X179600000Y-130526833D01*
X179519299Y-130932547D01*
X179360997Y-131314722D01*
X179360996Y-131314723D01*
X179131177Y-131658672D01*
X178838672Y-131951177D01*
X178609373Y-132104390D01*
X178494722Y-132180997D01*
X178112547Y-132339299D01*
X177706833Y-132420000D01*
X177293167Y-132420000D01*
X176887453Y-132339299D01*
X176505278Y-132180997D01*
X176390627Y-132104390D01*
X176161328Y-131951177D01*
X175868823Y-131658672D01*
X175639004Y-131314723D01*
X175639003Y-131314722D01*
X175480701Y-130932547D01*
X175400000Y-130526833D01*
X175400000Y-130113167D01*
X175480701Y-129707453D01*
X175639003Y-129325278D01*
X175771795Y-129126541D01*
X175868823Y-128981328D01*
X176161328Y-128688823D01*
X176505277Y-128459004D01*
X176505278Y-128459003D01*
X176887453Y-128300701D01*
X177293167Y-128220000D01*
X177706833Y-128220000D01*
X178112547Y-128300701D01*
X178112547Y-128300701D01*
G37*
G36*
X99112547Y-128300701D02*
X99494722Y-128459003D01*
X99494723Y-128459004D01*
X99838672Y-128688823D01*
X100131177Y-128981328D01*
X100228205Y-129126541D01*
X100360997Y-129325278D01*
X100519299Y-129707453D01*
X100600000Y-130113167D01*
X100600000Y-130526833D01*
X100519299Y-130932547D01*
X100360997Y-131314722D01*
X100360996Y-131314723D01*
X100131177Y-131658672D01*
X99838672Y-131951177D01*
X99609373Y-132104390D01*
X99494722Y-132180997D01*
X99112547Y-132339299D01*
X98706833Y-132420000D01*
X98293167Y-132420000D01*
X97887453Y-132339299D01*
X97505278Y-132180997D01*
X97390627Y-132104390D01*
X97161328Y-131951177D01*
X96868823Y-131658672D01*
X96639004Y-131314723D01*
X96639003Y-131314722D01*
X96480701Y-130932547D01*
X96400000Y-130526833D01*
X96400000Y-130113167D01*
X96480701Y-129707453D01*
X96639003Y-129325278D01*
X96771795Y-129126541D01*
X96868823Y-128981328D01*
X97161328Y-128688823D01*
X97505277Y-128459004D01*
X97505278Y-128459003D01*
X97887453Y-128300701D01*
X98293167Y-128220000D01*
X98706833Y-128220000D01*
X99112547Y-128300701D01*
X99112547Y-128300701D01*
G37*
G36*
X120510633Y-129040599D02*
X120510635Y-129040600D01*
X120510636Y-129040600D01*
X120595260Y-129075652D01*
X120595261Y-129075653D01*
X120671423Y-129126543D01*
X120736187Y-129191307D01*
X120736189Y-129191310D01*
X120787078Y-129267470D01*
X120822130Y-129352094D01*
X120840000Y-129441931D01*
X120840000Y-129533529D01*
X120822130Y-129623366D01*
X120787078Y-129707990D01*
X120787077Y-129707991D01*
X120736187Y-129784153D01*
X120671423Y-129848917D01*
X120671420Y-129848919D01*
X120595260Y-129899808D01*
X120510636Y-129934860D01*
X120510635Y-129934860D01*
X120510633Y-129934861D01*
X120420800Y-129952730D01*
X120329200Y-129952730D01*
X120239367Y-129934861D01*
X120239365Y-129934860D01*
X120239364Y-129934860D01*
X120154740Y-129899808D01*
X120078580Y-129848919D01*
X120078577Y-129848917D01*
X120013813Y-129784153D01*
X119962923Y-129707991D01*
X119962922Y-129707990D01*
X119927870Y-129623366D01*
X119910000Y-129533529D01*
X119910000Y-129441931D01*
X119927870Y-129352094D01*
X119962922Y-129267470D01*
X120013811Y-129191310D01*
X120013813Y-129191307D01*
X120078577Y-129126543D01*
X120154739Y-129075653D01*
X120154740Y-129075652D01*
X120239364Y-129040600D01*
X120239365Y-129040600D01*
X120239367Y-129040599D01*
X120329200Y-129022730D01*
X120420800Y-129022730D01*
X120510633Y-129040599D01*
X120510633Y-129040599D01*
G37*
G36*
X128760633Y-129040599D02*
X128760635Y-129040600D01*
X128760636Y-129040600D01*
X128845260Y-129075652D01*
X128845261Y-129075653D01*
X128921423Y-129126543D01*
X128986187Y-129191307D01*
X128986189Y-129191310D01*
X129037078Y-129267470D01*
X129072130Y-129352094D01*
X129090000Y-129441931D01*
X129090000Y-129533529D01*
X129072130Y-129623366D01*
X129037078Y-129707990D01*
X129037077Y-129707991D01*
X128986187Y-129784153D01*
X128921423Y-129848917D01*
X128921420Y-129848919D01*
X128845260Y-129899808D01*
X128760636Y-129934860D01*
X128760635Y-129934860D01*
X128760633Y-129934861D01*
X128670800Y-129952730D01*
X128579200Y-129952730D01*
X128489367Y-129934861D01*
X128489365Y-129934860D01*
X128489364Y-129934860D01*
X128404740Y-129899808D01*
X128328580Y-129848919D01*
X128328577Y-129848917D01*
X128263813Y-129784153D01*
X128212923Y-129707991D01*
X128212922Y-129707990D01*
X128177870Y-129623366D01*
X128160000Y-129533529D01*
X128160000Y-129441931D01*
X128177870Y-129352094D01*
X128212922Y-129267470D01*
X128263811Y-129191310D01*
X128263813Y-129191307D01*
X128328577Y-129126543D01*
X128404739Y-129075653D01*
X128404740Y-129075652D01*
X128489364Y-129040600D01*
X128489365Y-129040600D01*
X128489367Y-129040599D01*
X128579200Y-129022730D01*
X128670800Y-129022730D01*
X128760633Y-129040599D01*
X128760633Y-129040599D01*
G37*
G36*
X123260633Y-129040599D02*
X123260635Y-129040600D01*
X123260636Y-129040600D01*
X123345260Y-129075652D01*
X123345261Y-129075653D01*
X123421423Y-129126543D01*
X123486187Y-129191307D01*
X123486189Y-129191310D01*
X123537078Y-129267470D01*
X123572130Y-129352094D01*
X123590000Y-129441931D01*
X123590000Y-129533529D01*
X123572130Y-129623366D01*
X123537078Y-129707990D01*
X123537077Y-129707991D01*
X123486187Y-129784153D01*
X123421423Y-129848917D01*
X123421420Y-129848919D01*
X123345260Y-129899808D01*
X123260636Y-129934860D01*
X123260635Y-129934860D01*
X123260633Y-129934861D01*
X123170800Y-129952730D01*
X123079200Y-129952730D01*
X122989367Y-129934861D01*
X122989365Y-129934860D01*
X122989364Y-129934860D01*
X122904740Y-129899808D01*
X122828580Y-129848919D01*
X122828577Y-129848917D01*
X122763813Y-129784153D01*
X122712923Y-129707991D01*
X122712922Y-129707990D01*
X122677870Y-129623366D01*
X122660000Y-129533529D01*
X122660000Y-129441931D01*
X122677870Y-129352094D01*
X122712922Y-129267470D01*
X122763811Y-129191310D01*
X122763813Y-129191307D01*
X122828577Y-129126543D01*
X122904739Y-129075653D01*
X122904740Y-129075652D01*
X122989364Y-129040600D01*
X122989365Y-129040600D01*
X122989367Y-129040599D01*
X123079200Y-129022730D01*
X123170800Y-129022730D01*
X123260633Y-129040599D01*
X123260633Y-129040599D01*
G37*
G36*
X117760633Y-129040599D02*
X117760635Y-129040600D01*
X117760636Y-129040600D01*
X117845260Y-129075652D01*
X117845261Y-129075653D01*
X117921423Y-129126543D01*
X117986187Y-129191307D01*
X117986189Y-129191310D01*
X118037078Y-129267470D01*
X118072130Y-129352094D01*
X118090000Y-129441931D01*
X118090000Y-129533529D01*
X118072130Y-129623366D01*
X118037078Y-129707990D01*
X118037077Y-129707991D01*
X117986187Y-129784153D01*
X117921423Y-129848917D01*
X117921420Y-129848919D01*
X117845260Y-129899808D01*
X117760636Y-129934860D01*
X117760635Y-129934860D01*
X117760633Y-129934861D01*
X117670800Y-129952730D01*
X117579200Y-129952730D01*
X117489367Y-129934861D01*
X117489365Y-129934860D01*
X117489364Y-129934860D01*
X117404740Y-129899808D01*
X117328580Y-129848919D01*
X117328577Y-129848917D01*
X117263813Y-129784153D01*
X117212923Y-129707991D01*
X117212922Y-129707990D01*
X117177870Y-129623366D01*
X117160000Y-129533529D01*
X117160000Y-129441931D01*
X117177870Y-129352094D01*
X117212922Y-129267470D01*
X117263811Y-129191310D01*
X117263813Y-129191307D01*
X117328577Y-129126543D01*
X117404739Y-129075653D01*
X117404740Y-129075652D01*
X117489364Y-129040600D01*
X117489365Y-129040600D01*
X117489367Y-129040599D01*
X117579200Y-129022730D01*
X117670800Y-129022730D01*
X117760633Y-129040599D01*
X117760633Y-129040599D01*
G37*
G36*
X115010633Y-129040599D02*
X115010635Y-129040600D01*
X115010636Y-129040600D01*
X115095260Y-129075652D01*
X115095261Y-129075653D01*
X115171423Y-129126543D01*
X115236187Y-129191307D01*
X115236189Y-129191310D01*
X115287078Y-129267470D01*
X115322130Y-129352094D01*
X115340000Y-129441931D01*
X115340000Y-129533529D01*
X115322130Y-129623366D01*
X115287078Y-129707990D01*
X115287077Y-129707991D01*
X115236187Y-129784153D01*
X115171423Y-129848917D01*
X115171420Y-129848919D01*
X115095260Y-129899808D01*
X115010636Y-129934860D01*
X115010635Y-129934860D01*
X115010633Y-129934861D01*
X114920800Y-129952730D01*
X114829200Y-129952730D01*
X114739367Y-129934861D01*
X114739365Y-129934860D01*
X114739364Y-129934860D01*
X114654740Y-129899808D01*
X114578580Y-129848919D01*
X114578577Y-129848917D01*
X114513813Y-129784153D01*
X114462923Y-129707991D01*
X114462922Y-129707990D01*
X114427870Y-129623366D01*
X114410000Y-129533529D01*
X114410000Y-129441931D01*
X114427870Y-129352094D01*
X114462922Y-129267470D01*
X114513811Y-129191310D01*
X114513813Y-129191307D01*
X114578577Y-129126543D01*
X114654739Y-129075653D01*
X114654740Y-129075652D01*
X114739364Y-129040600D01*
X114739365Y-129040600D01*
X114739367Y-129040599D01*
X114829200Y-129022730D01*
X114920800Y-129022730D01*
X115010633Y-129040599D01*
X115010633Y-129040599D01*
G37*
G36*
X112260633Y-129040599D02*
X112260635Y-129040600D01*
X112260636Y-129040600D01*
X112345260Y-129075652D01*
X112345261Y-129075653D01*
X112421423Y-129126543D01*
X112486187Y-129191307D01*
X112486189Y-129191310D01*
X112537078Y-129267470D01*
X112572130Y-129352094D01*
X112590000Y-129441931D01*
X112590000Y-129533529D01*
X112572130Y-129623366D01*
X112537078Y-129707990D01*
X112537077Y-129707991D01*
X112486187Y-129784153D01*
X112421423Y-129848917D01*
X112421420Y-129848919D01*
X112345260Y-129899808D01*
X112260636Y-129934860D01*
X112260635Y-129934860D01*
X112260633Y-129934861D01*
X112170800Y-129952730D01*
X112079200Y-129952730D01*
X111989367Y-129934861D01*
X111989365Y-129934860D01*
X111989364Y-129934860D01*
X111904740Y-129899808D01*
X111828580Y-129848919D01*
X111828577Y-129848917D01*
X111763813Y-129784153D01*
X111712923Y-129707991D01*
X111712922Y-129707990D01*
X111677870Y-129623366D01*
X111660000Y-129533529D01*
X111660000Y-129441931D01*
X111677870Y-129352094D01*
X111712922Y-129267470D01*
X111763811Y-129191310D01*
X111763813Y-129191307D01*
X111828577Y-129126543D01*
X111904739Y-129075653D01*
X111904740Y-129075652D01*
X111989364Y-129040600D01*
X111989365Y-129040600D01*
X111989367Y-129040599D01*
X112079200Y-129022730D01*
X112170800Y-129022730D01*
X112260633Y-129040599D01*
X112260633Y-129040599D01*
G37*
G36*
X109510633Y-129040599D02*
X109510635Y-129040600D01*
X109510636Y-129040600D01*
X109595260Y-129075652D01*
X109595261Y-129075653D01*
X109671423Y-129126543D01*
X109736187Y-129191307D01*
X109736189Y-129191310D01*
X109787078Y-129267470D01*
X109822130Y-129352094D01*
X109840000Y-129441931D01*
X109840000Y-129533529D01*
X109822130Y-129623366D01*
X109787078Y-129707990D01*
X109787077Y-129707991D01*
X109736187Y-129784153D01*
X109671423Y-129848917D01*
X109671420Y-129848919D01*
X109595260Y-129899808D01*
X109510636Y-129934860D01*
X109510635Y-129934860D01*
X109510633Y-129934861D01*
X109420800Y-129952730D01*
X109329200Y-129952730D01*
X109239367Y-129934861D01*
X109239365Y-129934860D01*
X109239364Y-129934860D01*
X109154740Y-129899808D01*
X109078580Y-129848919D01*
X109078577Y-129848917D01*
X109013813Y-129784153D01*
X108962923Y-129707991D01*
X108962922Y-129707990D01*
X108927870Y-129623366D01*
X108910000Y-129533529D01*
X108910000Y-129441931D01*
X108927870Y-129352094D01*
X108962922Y-129267470D01*
X109013811Y-129191310D01*
X109013813Y-129191307D01*
X109078577Y-129126543D01*
X109154739Y-129075653D01*
X109154740Y-129075652D01*
X109239364Y-129040600D01*
X109239365Y-129040600D01*
X109239367Y-129040599D01*
X109329200Y-129022730D01*
X109420800Y-129022730D01*
X109510633Y-129040599D01*
X109510633Y-129040599D01*
G37*
G36*
X126010633Y-129040599D02*
X126010635Y-129040600D01*
X126010636Y-129040600D01*
X126095260Y-129075652D01*
X126095261Y-129075653D01*
X126171423Y-129126543D01*
X126236187Y-129191307D01*
X126236189Y-129191310D01*
X126287078Y-129267470D01*
X126322130Y-129352094D01*
X126340000Y-129441931D01*
X126340000Y-129533529D01*
X126322130Y-129623366D01*
X126287078Y-129707990D01*
X126287077Y-129707991D01*
X126236187Y-129784153D01*
X126171423Y-129848917D01*
X126171420Y-129848919D01*
X126095260Y-129899808D01*
X126010636Y-129934860D01*
X126010635Y-129934860D01*
X126010633Y-129934861D01*
X125920800Y-129952730D01*
X125829200Y-129952730D01*
X125739367Y-129934861D01*
X125739365Y-129934860D01*
X125739364Y-129934860D01*
X125654740Y-129899808D01*
X125578580Y-129848919D01*
X125578577Y-129848917D01*
X125513813Y-129784153D01*
X125462923Y-129707991D01*
X125462922Y-129707990D01*
X125427870Y-129623366D01*
X125410000Y-129533529D01*
X125410000Y-129441931D01*
X125427870Y-129352094D01*
X125462922Y-129267470D01*
X125513811Y-129191310D01*
X125513813Y-129191307D01*
X125578577Y-129126543D01*
X125654739Y-129075653D01*
X125654740Y-129075652D01*
X125739364Y-129040600D01*
X125739365Y-129040600D01*
X125739367Y-129040599D01*
X125829200Y-129022730D01*
X125920800Y-129022730D01*
X126010633Y-129040599D01*
X126010633Y-129040599D01*
G37*
G36*
X106901885Y-127539058D02*
X107002892Y-127580896D01*
X107093795Y-127641636D01*
X107171094Y-127718935D01*
X107231834Y-127809838D01*
X107273672Y-127910845D01*
X107295000Y-128018066D01*
X107295000Y-128127394D01*
X107273672Y-128234615D01*
X107231834Y-128335622D01*
X107171094Y-128426525D01*
X107093795Y-128503824D01*
X107002892Y-128564564D01*
X106901885Y-128606402D01*
X106794664Y-128627730D01*
X106685336Y-128627730D01*
X106578115Y-128606402D01*
X106477108Y-128564564D01*
X106386205Y-128503824D01*
X106308906Y-128426525D01*
X106248166Y-128335622D01*
X106206328Y-128234615D01*
X106185000Y-128127394D01*
X106185000Y-128018066D01*
X106206328Y-127910845D01*
X106248166Y-127809838D01*
X106308906Y-127718935D01*
X106386205Y-127641636D01*
X106477108Y-127580896D01*
X106578115Y-127539058D01*
X106685336Y-127517730D01*
X106794664Y-127517730D01*
X106901885Y-127539058D01*
X106901885Y-127539058D01*
G37*
G36*
X131421885Y-127539058D02*
X131522892Y-127580896D01*
X131613795Y-127641636D01*
X131691094Y-127718935D01*
X131751834Y-127809838D01*
X131793672Y-127910845D01*
X131815000Y-128018066D01*
X131815000Y-128127394D01*
X131793672Y-128234615D01*
X131751834Y-128335622D01*
X131691094Y-128426525D01*
X131613795Y-128503824D01*
X131522892Y-128564564D01*
X131421885Y-128606402D01*
X131314664Y-128627730D01*
X131205336Y-128627730D01*
X131098115Y-128606402D01*
X130997108Y-128564564D01*
X130906205Y-128503824D01*
X130828906Y-128426525D01*
X130768166Y-128335622D01*
X130726328Y-128234615D01*
X130705000Y-128127394D01*
X130705000Y-128018066D01*
X130726328Y-127910845D01*
X130768166Y-127809838D01*
X130828906Y-127718935D01*
X130906205Y-127641636D01*
X130997108Y-127580896D01*
X131098115Y-127539058D01*
X131205336Y-127517730D01*
X131314664Y-127517730D01*
X131421885Y-127539058D01*
X131421885Y-127539058D01*
G37*
G36*
X102139452Y-122559127D02*
X102277105Y-122586508D01*
X102449994Y-122658121D01*
X102605590Y-122762087D01*
X102737913Y-122894410D01*
X102841879Y-123050006D01*
X102913492Y-123222895D01*
X102950000Y-123406433D01*
X102950000Y-123593567D01*
X102913492Y-123777105D01*
X102841879Y-123949994D01*
X102737913Y-124105590D01*
X102605590Y-124237913D01*
X102449994Y-124341879D01*
X102277105Y-124413492D01*
X102139451Y-124440873D01*
X102093568Y-124450000D01*
X101906432Y-124450000D01*
X101860549Y-124440873D01*
X101722895Y-124413492D01*
X101550006Y-124341879D01*
X101394410Y-124237913D01*
X101262087Y-124105590D01*
X101158121Y-123949994D01*
X101086508Y-123777105D01*
X101050000Y-123593567D01*
X101050000Y-123406433D01*
X101086508Y-123222895D01*
X101158121Y-123050006D01*
X101262087Y-122894410D01*
X101394410Y-122762087D01*
X101550006Y-122658121D01*
X101722895Y-122586508D01*
X101860548Y-122559127D01*
X101906432Y-122550000D01*
X102093568Y-122550000D01*
X102139452Y-122559127D01*
X102139452Y-122559127D01*
G37*
G36*
X99646232Y-122563746D02*
X99721268Y-122586508D01*
X99825309Y-122618068D01*
X99990347Y-122706283D01*
X100135001Y-122824999D01*
X100253717Y-122969653D01*
X100341932Y-123134691D01*
X100396254Y-123313769D01*
X100414596Y-123500000D01*
X100396254Y-123686231D01*
X100341932Y-123865309D01*
X100253717Y-124030347D01*
X100135001Y-124175001D01*
X99990347Y-124293717D01*
X99825309Y-124381932D01*
X99735770Y-124409093D01*
X99646232Y-124436254D01*
X99506666Y-124450000D01*
X99413334Y-124450000D01*
X99273768Y-124436254D01*
X99184230Y-124409093D01*
X99094691Y-124381932D01*
X98929653Y-124293717D01*
X98784999Y-124175001D01*
X98666283Y-124030347D01*
X98578068Y-123865309D01*
X98523746Y-123686231D01*
X98505404Y-123500000D01*
X98523746Y-123313769D01*
X98578068Y-123134691D01*
X98666283Y-122969653D01*
X98784999Y-122824999D01*
X98929653Y-122706283D01*
X99094691Y-122618068D01*
X99198732Y-122586508D01*
X99273768Y-122563746D01*
X99413334Y-122550000D01*
X99506666Y-122550000D01*
X99646232Y-122563746D01*
X99646232Y-122563746D01*
G37*
G36*
X99576448Y-120016873D02*
X99646232Y-120023746D01*
X99735770Y-120050907D01*
X99825309Y-120078068D01*
X99990347Y-120166283D01*
X100135001Y-120284999D01*
X100253717Y-120429653D01*
X100341932Y-120594691D01*
X100396254Y-120773769D01*
X100414596Y-120960000D01*
X100396254Y-121146231D01*
X100341932Y-121325309D01*
X100253717Y-121490347D01*
X100135001Y-121635001D01*
X99990347Y-121753717D01*
X99825309Y-121841932D01*
X99735770Y-121869093D01*
X99646232Y-121896254D01*
X99576448Y-121903127D01*
X99506666Y-121910000D01*
X99413334Y-121910000D01*
X99343552Y-121903127D01*
X99273768Y-121896254D01*
X99184230Y-121869093D01*
X99094691Y-121841932D01*
X98929653Y-121753717D01*
X98784999Y-121635001D01*
X98666283Y-121490347D01*
X98578068Y-121325309D01*
X98523746Y-121146231D01*
X98505404Y-120960000D01*
X98523746Y-120773769D01*
X98578068Y-120594691D01*
X98666283Y-120429653D01*
X98784999Y-120284999D01*
X98929653Y-120166283D01*
X99094691Y-120078068D01*
X99184230Y-120050907D01*
X99273768Y-120023746D01*
X99343552Y-120016873D01*
X99413334Y-120010000D01*
X99506666Y-120010000D01*
X99576448Y-120016873D01*
X99576448Y-120016873D01*
G37*
G36*
X102116448Y-120016873D02*
X102186232Y-120023746D01*
X102275770Y-120050907D01*
X102365309Y-120078068D01*
X102530347Y-120166283D01*
X102675001Y-120284999D01*
X102793717Y-120429653D01*
X102881932Y-120594691D01*
X102936254Y-120773769D01*
X102954596Y-120960000D01*
X102936254Y-121146231D01*
X102881932Y-121325309D01*
X102793717Y-121490347D01*
X102675001Y-121635001D01*
X102530347Y-121753717D01*
X102365309Y-121841932D01*
X102275770Y-121869093D01*
X102186232Y-121896254D01*
X102116448Y-121903127D01*
X102046666Y-121910000D01*
X101953334Y-121910000D01*
X101883552Y-121903127D01*
X101813768Y-121896254D01*
X101724230Y-121869093D01*
X101634691Y-121841932D01*
X101469653Y-121753717D01*
X101324999Y-121635001D01*
X101206283Y-121490347D01*
X101118068Y-121325309D01*
X101063746Y-121146231D01*
X101045404Y-120960000D01*
X101063746Y-120773769D01*
X101118068Y-120594691D01*
X101206283Y-120429653D01*
X101324999Y-120284999D01*
X101469653Y-120166283D01*
X101634691Y-120078068D01*
X101724230Y-120050907D01*
X101813768Y-120023746D01*
X101883552Y-120016873D01*
X101953334Y-120010000D01*
X102046666Y-120010000D01*
X102116448Y-120016873D01*
X102116448Y-120016873D01*
G37*
G36*
X109611219Y-118123187D02*
X109636433Y-118130835D01*
X109659665Y-118143254D01*
X109680032Y-118159968D01*
X109696746Y-118180335D01*
X109709165Y-118203567D01*
X109716813Y-118228781D01*
X109720000Y-118261141D01*
X109720000Y-118768859D01*
X109716813Y-118801219D01*
X109709165Y-118826433D01*
X109696746Y-118849665D01*
X109680032Y-118870032D01*
X109659667Y-118886745D01*
X109654026Y-118889760D01*
X109633651Y-118903374D01*
X109616324Y-118920702D01*
X109602710Y-118941076D01*
X109593333Y-118963715D01*
X109588553Y-118987749D01*
X109588553Y-119012253D01*
X109593334Y-119036287D01*
X109602711Y-119058925D01*
X109616325Y-119079300D01*
X109633653Y-119096627D01*
X109654026Y-119110240D01*
X109659667Y-119113255D01*
X109680032Y-119129968D01*
X109696746Y-119150335D01*
X109709165Y-119173567D01*
X109716813Y-119198781D01*
X109720000Y-119231141D01*
X109720000Y-119738859D01*
X109716813Y-119771219D01*
X109709165Y-119796433D01*
X109696746Y-119819665D01*
X109680032Y-119840032D01*
X109659665Y-119856746D01*
X109636433Y-119869165D01*
X109611219Y-119876813D01*
X109578859Y-119880000D01*
X109021141Y-119880000D01*
X108988781Y-119876813D01*
X108963567Y-119869165D01*
X108940335Y-119856746D01*
X108919968Y-119840032D01*
X108903254Y-119819665D01*
X108890835Y-119796433D01*
X108883187Y-119771219D01*
X108880000Y-119738859D01*
X108880000Y-119231141D01*
X108883187Y-119198781D01*
X108890835Y-119173567D01*
X108903254Y-119150335D01*
X108919968Y-119129968D01*
X108940333Y-119113255D01*
X108945974Y-119110240D01*
X108966349Y-119096626D01*
X108983676Y-119079298D01*
X108997290Y-119058924D01*
X109006667Y-119036285D01*
X109011447Y-119012251D01*
X109011447Y-118987747D01*
X109006666Y-118963713D01*
X108997289Y-118941075D01*
X108983675Y-118920700D01*
X108966347Y-118903373D01*
X108945974Y-118889760D01*
X108940333Y-118886745D01*
X108919968Y-118870032D01*
X108903254Y-118849665D01*
X108890835Y-118826433D01*
X108883187Y-118801219D01*
X108880000Y-118768859D01*
X108880000Y-118261141D01*
X108883187Y-118228781D01*
X108890835Y-118203567D01*
X108903254Y-118180335D01*
X108919968Y-118159968D01*
X108940335Y-118143254D01*
X108963567Y-118130835D01*
X108988781Y-118123187D01*
X109021141Y-118120000D01*
X109578859Y-118120000D01*
X109611219Y-118123187D01*
X109611219Y-118123187D01*
G37*
G36*
X99646232Y-117483746D02*
X99735770Y-117510907D01*
X99825309Y-117538068D01*
X99990347Y-117626283D01*
X100135001Y-117744999D01*
X100253717Y-117889653D01*
X100341932Y-118054691D01*
X100341932Y-118054692D01*
X100387093Y-118203567D01*
X100396254Y-118233769D01*
X100414596Y-118420000D01*
X100396254Y-118606231D01*
X100341932Y-118785309D01*
X100253717Y-118950347D01*
X100135001Y-119095001D01*
X99990347Y-119213717D01*
X99825309Y-119301932D01*
X99735770Y-119329093D01*
X99646232Y-119356254D01*
X99506666Y-119370000D01*
X99413334Y-119370000D01*
X99273768Y-119356254D01*
X99184230Y-119329093D01*
X99094691Y-119301932D01*
X98929653Y-119213717D01*
X98784999Y-119095001D01*
X98666283Y-118950347D01*
X98578068Y-118785309D01*
X98523746Y-118606231D01*
X98505404Y-118420000D01*
X98523746Y-118233769D01*
X98532908Y-118203567D01*
X98578068Y-118054692D01*
X98578068Y-118054691D01*
X98666283Y-117889653D01*
X98784999Y-117744999D01*
X98929653Y-117626283D01*
X99094691Y-117538068D01*
X99184230Y-117510907D01*
X99273768Y-117483746D01*
X99413334Y-117470000D01*
X99506666Y-117470000D01*
X99646232Y-117483746D01*
X99646232Y-117483746D01*
G37*
G36*
X102186232Y-117483746D02*
X102275770Y-117510907D01*
X102365309Y-117538068D01*
X102530347Y-117626283D01*
X102675001Y-117744999D01*
X102793717Y-117889653D01*
X102881932Y-118054691D01*
X102881932Y-118054692D01*
X102927093Y-118203567D01*
X102936254Y-118233769D01*
X102954596Y-118420000D01*
X102936254Y-118606231D01*
X102881932Y-118785309D01*
X102793717Y-118950347D01*
X102675001Y-119095001D01*
X102530347Y-119213717D01*
X102365309Y-119301932D01*
X102275770Y-119329093D01*
X102186232Y-119356254D01*
X102046666Y-119370000D01*
X101953334Y-119370000D01*
X101813768Y-119356254D01*
X101724230Y-119329093D01*
X101634691Y-119301932D01*
X101469653Y-119213717D01*
X101324999Y-119095001D01*
X101206283Y-118950347D01*
X101118068Y-118785309D01*
X101063746Y-118606231D01*
X101045404Y-118420000D01*
X101063746Y-118233769D01*
X101072908Y-118203567D01*
X101118068Y-118054692D01*
X101118068Y-118054691D01*
X101206283Y-117889653D01*
X101324999Y-117744999D01*
X101469653Y-117626283D01*
X101634691Y-117538068D01*
X101724230Y-117510907D01*
X101813768Y-117483746D01*
X101953334Y-117470000D01*
X102046666Y-117470000D01*
X102186232Y-117483746D01*
X102186232Y-117483746D01*
G37*
G36*
X106801219Y-118383187D02*
X106826433Y-118390835D01*
X106849665Y-118403254D01*
X106870032Y-118419968D01*
X106886745Y-118440333D01*
X106889760Y-118445974D01*
X106903374Y-118466349D01*
X106920702Y-118483676D01*
X106941076Y-118497290D01*
X106963715Y-118506667D01*
X106987749Y-118511447D01*
X107012253Y-118511447D01*
X107036287Y-118506666D01*
X107058925Y-118497289D01*
X107079300Y-118483675D01*
X107096627Y-118466347D01*
X107110240Y-118445974D01*
X107113255Y-118440333D01*
X107129968Y-118419968D01*
X107150335Y-118403254D01*
X107173567Y-118390835D01*
X107198781Y-118383187D01*
X107231141Y-118380000D01*
X107738859Y-118380000D01*
X107771219Y-118383187D01*
X107796433Y-118390835D01*
X107819665Y-118403254D01*
X107840032Y-118419968D01*
X107856746Y-118440335D01*
X107869165Y-118463567D01*
X107876813Y-118488781D01*
X107880000Y-118521141D01*
X107880000Y-119078859D01*
X107876813Y-119111219D01*
X107869165Y-119136433D01*
X107856746Y-119159665D01*
X107840032Y-119180032D01*
X107819665Y-119196746D01*
X107796433Y-119209165D01*
X107771219Y-119216813D01*
X107738859Y-119220000D01*
X107231141Y-119220000D01*
X107198781Y-119216813D01*
X107173567Y-119209165D01*
X107150335Y-119196746D01*
X107129968Y-119180032D01*
X107113255Y-119159667D01*
X107110240Y-119154026D01*
X107096626Y-119133651D01*
X107079298Y-119116324D01*
X107058924Y-119102710D01*
X107036285Y-119093333D01*
X107012251Y-119088553D01*
X106987747Y-119088553D01*
X106963713Y-119093334D01*
X106941075Y-119102711D01*
X106920700Y-119116325D01*
X106903373Y-119133653D01*
X106889760Y-119154026D01*
X106886745Y-119159667D01*
X106870032Y-119180032D01*
X106849665Y-119196746D01*
X106826433Y-119209165D01*
X106801219Y-119216813D01*
X106768859Y-119220000D01*
X106261141Y-119220000D01*
X106228781Y-119216813D01*
X106203567Y-119209165D01*
X106180335Y-119196746D01*
X106159968Y-119180032D01*
X106143254Y-119159665D01*
X106130835Y-119136433D01*
X106123187Y-119111219D01*
X106120000Y-119078859D01*
X106120000Y-118521141D01*
X106123187Y-118488781D01*
X106130835Y-118463567D01*
X106143254Y-118440335D01*
X106159968Y-118419968D01*
X106180335Y-118403254D01*
X106203567Y-118390835D01*
X106228781Y-118383187D01*
X106261141Y-118380000D01*
X106768859Y-118380000D01*
X106801219Y-118383187D01*
X106801219Y-118383187D01*
G37*
G36*
X107911219Y-109123187D02*
X107936433Y-109130835D01*
X107959665Y-109143254D01*
X107980032Y-109159968D01*
X107996746Y-109180335D01*
X108009165Y-109203567D01*
X108016813Y-109228781D01*
X108020000Y-109261141D01*
X108020000Y-109768859D01*
X108016813Y-109801219D01*
X108009165Y-109826433D01*
X107996746Y-109849665D01*
X107980032Y-109870032D01*
X107959667Y-109886745D01*
X107954026Y-109889760D01*
X107933651Y-109903374D01*
X107916324Y-109920702D01*
X107902710Y-109941076D01*
X107893333Y-109963715D01*
X107888553Y-109987749D01*
X107888553Y-110012253D01*
X107893334Y-110036287D01*
X107902711Y-110058925D01*
X107916325Y-110079300D01*
X107933653Y-110096627D01*
X107954026Y-110110240D01*
X107959667Y-110113255D01*
X107980032Y-110129968D01*
X107996746Y-110150335D01*
X108009165Y-110173567D01*
X108016813Y-110198781D01*
X108020000Y-110231141D01*
X108020000Y-110738859D01*
X108016813Y-110771219D01*
X108009165Y-110796433D01*
X107996746Y-110819665D01*
X107980032Y-110840032D01*
X107959665Y-110856746D01*
X107936433Y-110869165D01*
X107911219Y-110876813D01*
X107883446Y-110879548D01*
X107859412Y-110884328D01*
X107836773Y-110893706D01*
X107816398Y-110907319D01*
X107799071Y-110924646D01*
X107785457Y-110945021D01*
X107776080Y-110967660D01*
X107771299Y-110991693D01*
X107771299Y-111016197D01*
X107776079Y-111040231D01*
X107785457Y-111062870D01*
X107799070Y-111083245D01*
X107816398Y-111100573D01*
X107840034Y-111119970D01*
X107856746Y-111140335D01*
X107869165Y-111163567D01*
X107876813Y-111188781D01*
X107880000Y-111221141D01*
X107880000Y-111778859D01*
X107876813Y-111811219D01*
X107869165Y-111836433D01*
X107856746Y-111859665D01*
X107840035Y-111880029D01*
X107811590Y-111903372D01*
X107794263Y-111920699D01*
X107780649Y-111941074D01*
X107771271Y-111963713D01*
X107766490Y-111987746D01*
X107766490Y-112012250D01*
X107771270Y-112036284D01*
X107780647Y-112058923D01*
X107794260Y-112079298D01*
X107811590Y-112096628D01*
X107840035Y-112119971D01*
X107856746Y-112140335D01*
X107869165Y-112163567D01*
X107876813Y-112188781D01*
X107880000Y-112221141D01*
X107880000Y-112778859D01*
X107876813Y-112811219D01*
X107869165Y-112836433D01*
X107856746Y-112859665D01*
X107840035Y-112880029D01*
X107811590Y-112903372D01*
X107794263Y-112920699D01*
X107780649Y-112941074D01*
X107771271Y-112963713D01*
X107766490Y-112987746D01*
X107766490Y-113012250D01*
X107771270Y-113036284D01*
X107780647Y-113058923D01*
X107794260Y-113079298D01*
X107811590Y-113096628D01*
X107840035Y-113119971D01*
X107856746Y-113140335D01*
X107869165Y-113163567D01*
X107876813Y-113188781D01*
X107880000Y-113221141D01*
X107880000Y-113778859D01*
X107876813Y-113811219D01*
X107869165Y-113836433D01*
X107856746Y-113859665D01*
X107840035Y-113880029D01*
X107811590Y-113903372D01*
X107794263Y-113920699D01*
X107780649Y-113941074D01*
X107771271Y-113963713D01*
X107766490Y-113987746D01*
X107766490Y-114012250D01*
X107771270Y-114036284D01*
X107780647Y-114058923D01*
X107794260Y-114079298D01*
X107811590Y-114096628D01*
X107840035Y-114119971D01*
X107856746Y-114140335D01*
X107869165Y-114163567D01*
X107876813Y-114188781D01*
X107880000Y-114221141D01*
X107880000Y-114778859D01*
X107876813Y-114811219D01*
X107869165Y-114836433D01*
X107856746Y-114859665D01*
X107840035Y-114880029D01*
X107811590Y-114903372D01*
X107794263Y-114920699D01*
X107780649Y-114941074D01*
X107771271Y-114963713D01*
X107766490Y-114987746D01*
X107766490Y-115012250D01*
X107771270Y-115036284D01*
X107780647Y-115058923D01*
X107794260Y-115079298D01*
X107811590Y-115096628D01*
X107840035Y-115119971D01*
X107856746Y-115140335D01*
X107869165Y-115163567D01*
X107876813Y-115188781D01*
X107880000Y-115221141D01*
X107880000Y-115778859D01*
X107876813Y-115811219D01*
X107869165Y-115836433D01*
X107856746Y-115859665D01*
X107840035Y-115880029D01*
X107811590Y-115903372D01*
X107794263Y-115920699D01*
X107780649Y-115941074D01*
X107771271Y-115963713D01*
X107766490Y-115987746D01*
X107766490Y-116012250D01*
X107771270Y-116036284D01*
X107780647Y-116058923D01*
X107794260Y-116079298D01*
X107811590Y-116096628D01*
X107840035Y-116119971D01*
X107856746Y-116140335D01*
X107869165Y-116163567D01*
X107876813Y-116188781D01*
X107880000Y-116221141D01*
X107880000Y-116778859D01*
X107876813Y-116811219D01*
X107869165Y-116836433D01*
X107856746Y-116859665D01*
X107840035Y-116880029D01*
X107811590Y-116903372D01*
X107794263Y-116920699D01*
X107780649Y-116941074D01*
X107771271Y-116963713D01*
X107766490Y-116987746D01*
X107766490Y-117012250D01*
X107771270Y-117036284D01*
X107780647Y-117058923D01*
X107794260Y-117079298D01*
X107811590Y-117096628D01*
X107840035Y-117119971D01*
X107856746Y-117140335D01*
X107869165Y-117163567D01*
X107876813Y-117188781D01*
X107880000Y-117221141D01*
X107880000Y-117778859D01*
X107876813Y-117811219D01*
X107869165Y-117836433D01*
X107856746Y-117859665D01*
X107840032Y-117880032D01*
X107819665Y-117896746D01*
X107796433Y-117909165D01*
X107771219Y-117916813D01*
X107738859Y-117920000D01*
X107231141Y-117920000D01*
X107198781Y-117916813D01*
X107173567Y-117909165D01*
X107150335Y-117896746D01*
X107129968Y-117880032D01*
X107113255Y-117859667D01*
X107110240Y-117854026D01*
X107096626Y-117833651D01*
X107079298Y-117816324D01*
X107058924Y-117802710D01*
X107036285Y-117793333D01*
X107012251Y-117788553D01*
X106987747Y-117788553D01*
X106963713Y-117793334D01*
X106941075Y-117802711D01*
X106920700Y-117816325D01*
X106903373Y-117833653D01*
X106889760Y-117854026D01*
X106886745Y-117859667D01*
X106870032Y-117880032D01*
X106849665Y-117896746D01*
X106826433Y-117909165D01*
X106801219Y-117916813D01*
X106768859Y-117920000D01*
X106261141Y-117920000D01*
X106228781Y-117916813D01*
X106203567Y-117909165D01*
X106180335Y-117896746D01*
X106159968Y-117880032D01*
X106143254Y-117859665D01*
X106130835Y-117836433D01*
X106123187Y-117811219D01*
X106120000Y-117778859D01*
X106120000Y-117221141D01*
X106123187Y-117188781D01*
X106130835Y-117163567D01*
X106143254Y-117140335D01*
X106159965Y-117119971D01*
X106188410Y-117096628D01*
X106205737Y-117079301D01*
X106219351Y-117058926D01*
X106228729Y-117036287D01*
X106233510Y-117012254D01*
X106233510Y-116987750D01*
X106233510Y-116987746D01*
X106796490Y-116987746D01*
X106796490Y-117012250D01*
X106801270Y-117036284D01*
X106810647Y-117058923D01*
X106824260Y-117079298D01*
X106841590Y-117096628D01*
X106870035Y-117119971D01*
X106886745Y-117140333D01*
X106889760Y-117145974D01*
X106903374Y-117166349D01*
X106920702Y-117183676D01*
X106941076Y-117197290D01*
X106963715Y-117206667D01*
X106987749Y-117211447D01*
X107012253Y-117211447D01*
X107036287Y-117206666D01*
X107058925Y-117197289D01*
X107079300Y-117183675D01*
X107096627Y-117166347D01*
X107110240Y-117145974D01*
X107113255Y-117140333D01*
X107129965Y-117119971D01*
X107158410Y-117096628D01*
X107175737Y-117079301D01*
X107189351Y-117058926D01*
X107198729Y-117036287D01*
X107203510Y-117012254D01*
X107203510Y-116987750D01*
X107198730Y-116963716D01*
X107189353Y-116941077D01*
X107175740Y-116920702D01*
X107158410Y-116903372D01*
X107129965Y-116880029D01*
X107113255Y-116859667D01*
X107110240Y-116854026D01*
X107096626Y-116833651D01*
X107079298Y-116816324D01*
X107058924Y-116802710D01*
X107036285Y-116793333D01*
X107012251Y-116788553D01*
X106987747Y-116788553D01*
X106963713Y-116793334D01*
X106941075Y-116802711D01*
X106920700Y-116816325D01*
X106903373Y-116833653D01*
X106889760Y-116854026D01*
X106886745Y-116859667D01*
X106870035Y-116880029D01*
X106841590Y-116903372D01*
X106824263Y-116920699D01*
X106810649Y-116941074D01*
X106801271Y-116963713D01*
X106796490Y-116987746D01*
X106233510Y-116987746D01*
X106228730Y-116963716D01*
X106219353Y-116941077D01*
X106205740Y-116920702D01*
X106188410Y-116903372D01*
X106159965Y-116880029D01*
X106143254Y-116859665D01*
X106130835Y-116836433D01*
X106123187Y-116811219D01*
X106120000Y-116778859D01*
X106120000Y-116221141D01*
X106123187Y-116188781D01*
X106130835Y-116163567D01*
X106143254Y-116140335D01*
X106159965Y-116119971D01*
X106188410Y-116096628D01*
X106205737Y-116079301D01*
X106219351Y-116058926D01*
X106228729Y-116036287D01*
X106233510Y-116012254D01*
X106233510Y-115987750D01*
X106233510Y-115987746D01*
X106796490Y-115987746D01*
X106796490Y-116012250D01*
X106801270Y-116036284D01*
X106810647Y-116058923D01*
X106824260Y-116079298D01*
X106841590Y-116096628D01*
X106870035Y-116119971D01*
X106886745Y-116140333D01*
X106889760Y-116145974D01*
X106903374Y-116166349D01*
X106920702Y-116183676D01*
X106941076Y-116197290D01*
X106963715Y-116206667D01*
X106987749Y-116211447D01*
X107012253Y-116211447D01*
X107036287Y-116206666D01*
X107058925Y-116197289D01*
X107079300Y-116183675D01*
X107096627Y-116166347D01*
X107110240Y-116145974D01*
X107113255Y-116140333D01*
X107129965Y-116119971D01*
X107158410Y-116096628D01*
X107175737Y-116079301D01*
X107189351Y-116058926D01*
X107198729Y-116036287D01*
X107203510Y-116012254D01*
X107203510Y-115987750D01*
X107198730Y-115963716D01*
X107189353Y-115941077D01*
X107175740Y-115920702D01*
X107158410Y-115903372D01*
X107129965Y-115880029D01*
X107113255Y-115859667D01*
X107110240Y-115854026D01*
X107096626Y-115833651D01*
X107079298Y-115816324D01*
X107058924Y-115802710D01*
X107036285Y-115793333D01*
X107012251Y-115788553D01*
X106987747Y-115788553D01*
X106963713Y-115793334D01*
X106941075Y-115802711D01*
X106920700Y-115816325D01*
X106903373Y-115833653D01*
X106889760Y-115854026D01*
X106886745Y-115859667D01*
X106870035Y-115880029D01*
X106841590Y-115903372D01*
X106824263Y-115920699D01*
X106810649Y-115941074D01*
X106801271Y-115963713D01*
X106796490Y-115987746D01*
X106233510Y-115987746D01*
X106228730Y-115963716D01*
X106219353Y-115941077D01*
X106205740Y-115920702D01*
X106188410Y-115903372D01*
X106159965Y-115880029D01*
X106143254Y-115859665D01*
X106130835Y-115836433D01*
X106123187Y-115811219D01*
X106120000Y-115778859D01*
X106120000Y-115221141D01*
X106123187Y-115188781D01*
X106130835Y-115163567D01*
X106143254Y-115140335D01*
X106159965Y-115119971D01*
X106188410Y-115096628D01*
X106205737Y-115079301D01*
X106219351Y-115058926D01*
X106228729Y-115036287D01*
X106233510Y-115012254D01*
X106233510Y-114987750D01*
X106233510Y-114987746D01*
X106796490Y-114987746D01*
X106796490Y-115012250D01*
X106801270Y-115036284D01*
X106810647Y-115058923D01*
X106824260Y-115079298D01*
X106841590Y-115096628D01*
X106870035Y-115119971D01*
X106886745Y-115140333D01*
X106889760Y-115145974D01*
X106903374Y-115166349D01*
X106920702Y-115183676D01*
X106941076Y-115197290D01*
X106963715Y-115206667D01*
X106987749Y-115211447D01*
X107012253Y-115211447D01*
X107036287Y-115206666D01*
X107058925Y-115197289D01*
X107079300Y-115183675D01*
X107096627Y-115166347D01*
X107110240Y-115145974D01*
X107113255Y-115140333D01*
X107129965Y-115119971D01*
X107158410Y-115096628D01*
X107175737Y-115079301D01*
X107189351Y-115058926D01*
X107198729Y-115036287D01*
X107203510Y-115012254D01*
X107203510Y-114987750D01*
X107198730Y-114963716D01*
X107189353Y-114941077D01*
X107175740Y-114920702D01*
X107158410Y-114903372D01*
X107129965Y-114880029D01*
X107113255Y-114859667D01*
X107110240Y-114854026D01*
X107096626Y-114833651D01*
X107079298Y-114816324D01*
X107058924Y-114802710D01*
X107036285Y-114793333D01*
X107012251Y-114788553D01*
X106987747Y-114788553D01*
X106963713Y-114793334D01*
X106941075Y-114802711D01*
X106920700Y-114816325D01*
X106903373Y-114833653D01*
X106889760Y-114854026D01*
X106886745Y-114859667D01*
X106870035Y-114880029D01*
X106841590Y-114903372D01*
X106824263Y-114920699D01*
X106810649Y-114941074D01*
X106801271Y-114963713D01*
X106796490Y-114987746D01*
X106233510Y-114987746D01*
X106228730Y-114963716D01*
X106219353Y-114941077D01*
X106205740Y-114920702D01*
X106188410Y-114903372D01*
X106159965Y-114880029D01*
X106143254Y-114859665D01*
X106130835Y-114836433D01*
X106123187Y-114811219D01*
X106120000Y-114778859D01*
X106120000Y-114221141D01*
X106123187Y-114188781D01*
X106130835Y-114163567D01*
X106143254Y-114140335D01*
X106159965Y-114119971D01*
X106188410Y-114096628D01*
X106205737Y-114079301D01*
X106219351Y-114058926D01*
X106228729Y-114036287D01*
X106233510Y-114012254D01*
X106233510Y-113987750D01*
X106233510Y-113987746D01*
X106796490Y-113987746D01*
X106796490Y-114012250D01*
X106801270Y-114036284D01*
X106810647Y-114058923D01*
X106824260Y-114079298D01*
X106841590Y-114096628D01*
X106870035Y-114119971D01*
X106886745Y-114140333D01*
X106889760Y-114145974D01*
X106903374Y-114166349D01*
X106920702Y-114183676D01*
X106941076Y-114197290D01*
X106963715Y-114206667D01*
X106987749Y-114211447D01*
X107012253Y-114211447D01*
X107036287Y-114206666D01*
X107058925Y-114197289D01*
X107079300Y-114183675D01*
X107096627Y-114166347D01*
X107110240Y-114145974D01*
X107113255Y-114140333D01*
X107129965Y-114119971D01*
X107158410Y-114096628D01*
X107175737Y-114079301D01*
X107189351Y-114058926D01*
X107198729Y-114036287D01*
X107203510Y-114012254D01*
X107203510Y-113987750D01*
X107198730Y-113963716D01*
X107189353Y-113941077D01*
X107175740Y-113920702D01*
X107158410Y-113903372D01*
X107129965Y-113880029D01*
X107113255Y-113859667D01*
X107110240Y-113854026D01*
X107096626Y-113833651D01*
X107079298Y-113816324D01*
X107058924Y-113802710D01*
X107036285Y-113793333D01*
X107012251Y-113788553D01*
X106987747Y-113788553D01*
X106963713Y-113793334D01*
X106941075Y-113802711D01*
X106920700Y-113816325D01*
X106903373Y-113833653D01*
X106889760Y-113854026D01*
X106886745Y-113859667D01*
X106870035Y-113880029D01*
X106841590Y-113903372D01*
X106824263Y-113920699D01*
X106810649Y-113941074D01*
X106801271Y-113963713D01*
X106796490Y-113987746D01*
X106233510Y-113987746D01*
X106228730Y-113963716D01*
X106219353Y-113941077D01*
X106205740Y-113920702D01*
X106188410Y-113903372D01*
X106159965Y-113880029D01*
X106143254Y-113859665D01*
X106130835Y-113836433D01*
X106123187Y-113811219D01*
X106120000Y-113778859D01*
X106120000Y-113221141D01*
X106123187Y-113188781D01*
X106130835Y-113163567D01*
X106143254Y-113140335D01*
X106159965Y-113119971D01*
X106188410Y-113096628D01*
X106205737Y-113079301D01*
X106219351Y-113058926D01*
X106228729Y-113036287D01*
X106233510Y-113012254D01*
X106233510Y-112987750D01*
X106233510Y-112987746D01*
X106796490Y-112987746D01*
X106796490Y-113012250D01*
X106801270Y-113036284D01*
X106810647Y-113058923D01*
X106824260Y-113079298D01*
X106841590Y-113096628D01*
X106870035Y-113119971D01*
X106886745Y-113140333D01*
X106889760Y-113145974D01*
X106903374Y-113166349D01*
X106920702Y-113183676D01*
X106941076Y-113197290D01*
X106963715Y-113206667D01*
X106987749Y-113211447D01*
X107012253Y-113211447D01*
X107036287Y-113206666D01*
X107058925Y-113197289D01*
X107079300Y-113183675D01*
X107096627Y-113166347D01*
X107110240Y-113145974D01*
X107113255Y-113140333D01*
X107129965Y-113119971D01*
X107158410Y-113096628D01*
X107175737Y-113079301D01*
X107189351Y-113058926D01*
X107198729Y-113036287D01*
X107203510Y-113012254D01*
X107203510Y-112987750D01*
X107198730Y-112963716D01*
X107189353Y-112941077D01*
X107175740Y-112920702D01*
X107158410Y-112903372D01*
X107129965Y-112880029D01*
X107113255Y-112859667D01*
X107110240Y-112854026D01*
X107096626Y-112833651D01*
X107079298Y-112816324D01*
X107058924Y-112802710D01*
X107036285Y-112793333D01*
X107012251Y-112788553D01*
X106987747Y-112788553D01*
X106963713Y-112793334D01*
X106941075Y-112802711D01*
X106920700Y-112816325D01*
X106903373Y-112833653D01*
X106889760Y-112854026D01*
X106886745Y-112859667D01*
X106870035Y-112880029D01*
X106841590Y-112903372D01*
X106824263Y-112920699D01*
X106810649Y-112941074D01*
X106801271Y-112963713D01*
X106796490Y-112987746D01*
X106233510Y-112987746D01*
X106228730Y-112963716D01*
X106219353Y-112941077D01*
X106205740Y-112920702D01*
X106188410Y-112903372D01*
X106159965Y-112880029D01*
X106143254Y-112859665D01*
X106130835Y-112836433D01*
X106123187Y-112811219D01*
X106120000Y-112778859D01*
X106120000Y-112221141D01*
X106123187Y-112188781D01*
X106130835Y-112163567D01*
X106143254Y-112140335D01*
X106159965Y-112119971D01*
X106188410Y-112096628D01*
X106205737Y-112079301D01*
X106219351Y-112058926D01*
X106228729Y-112036287D01*
X106233510Y-112012254D01*
X106233510Y-111987750D01*
X106233510Y-111987746D01*
X106796490Y-111987746D01*
X106796490Y-112012250D01*
X106801270Y-112036284D01*
X106810647Y-112058923D01*
X106824260Y-112079298D01*
X106841590Y-112096628D01*
X106870035Y-112119971D01*
X106886745Y-112140333D01*
X106889760Y-112145974D01*
X106903374Y-112166349D01*
X106920702Y-112183676D01*
X106941076Y-112197290D01*
X106963715Y-112206667D01*
X106987749Y-112211447D01*
X107012253Y-112211447D01*
X107036287Y-112206666D01*
X107058925Y-112197289D01*
X107079300Y-112183675D01*
X107096627Y-112166347D01*
X107110240Y-112145974D01*
X107113255Y-112140333D01*
X107129965Y-112119971D01*
X107158410Y-112096628D01*
X107175737Y-112079301D01*
X107189351Y-112058926D01*
X107198729Y-112036287D01*
X107203510Y-112012254D01*
X107203510Y-111987750D01*
X107198730Y-111963716D01*
X107189353Y-111941077D01*
X107175740Y-111920702D01*
X107158410Y-111903372D01*
X107129965Y-111880029D01*
X107113255Y-111859667D01*
X107110240Y-111854026D01*
X107096626Y-111833651D01*
X107079298Y-111816324D01*
X107058924Y-111802710D01*
X107036285Y-111793333D01*
X107012251Y-111788553D01*
X106987747Y-111788553D01*
X106963713Y-111793334D01*
X106941075Y-111802711D01*
X106920700Y-111816325D01*
X106903373Y-111833653D01*
X106889760Y-111854026D01*
X106886745Y-111859667D01*
X106870035Y-111880029D01*
X106841590Y-111903372D01*
X106824263Y-111920699D01*
X106810649Y-111941074D01*
X106801271Y-111963713D01*
X106796490Y-111987746D01*
X106233510Y-111987746D01*
X106228730Y-111963716D01*
X106219353Y-111941077D01*
X106205740Y-111920702D01*
X106188410Y-111903372D01*
X106159965Y-111880029D01*
X106143254Y-111859665D01*
X106130835Y-111836433D01*
X106123187Y-111811219D01*
X106120000Y-111778859D01*
X106120000Y-111221141D01*
X106123187Y-111188781D01*
X106130835Y-111163567D01*
X106143254Y-111140335D01*
X106159968Y-111119968D01*
X106180335Y-111103254D01*
X106203567Y-111090835D01*
X106228781Y-111083187D01*
X106261141Y-111080000D01*
X106768859Y-111080000D01*
X106801219Y-111083187D01*
X106826433Y-111090835D01*
X106849665Y-111103254D01*
X106870032Y-111119968D01*
X106886745Y-111140333D01*
X106889760Y-111145974D01*
X106903374Y-111166349D01*
X106920702Y-111183676D01*
X106941076Y-111197290D01*
X106963715Y-111206667D01*
X106987749Y-111211447D01*
X107012253Y-111211447D01*
X107036287Y-111206666D01*
X107058925Y-111197289D01*
X107079300Y-111183675D01*
X107096627Y-111166347D01*
X107110240Y-111145974D01*
X107113255Y-111140333D01*
X107129968Y-111119968D01*
X107150335Y-111103254D01*
X107173567Y-111090835D01*
X107206786Y-111080759D01*
X107229425Y-111071382D01*
X107249800Y-111057768D01*
X107267127Y-111040441D01*
X107280741Y-111020067D01*
X107290119Y-110997428D01*
X107294900Y-110973395D01*
X107294900Y-110948890D01*
X107290120Y-110924857D01*
X107280743Y-110902218D01*
X107267129Y-110881843D01*
X107249800Y-110864514D01*
X107219968Y-110840032D01*
X107203254Y-110819665D01*
X107190835Y-110796433D01*
X107183187Y-110771219D01*
X107180000Y-110738859D01*
X107180000Y-110231141D01*
X107183187Y-110198781D01*
X107190835Y-110173567D01*
X107203254Y-110150335D01*
X107219968Y-110129968D01*
X107240333Y-110113255D01*
X107245974Y-110110240D01*
X107266349Y-110096626D01*
X107283676Y-110079298D01*
X107297290Y-110058924D01*
X107306667Y-110036285D01*
X107311447Y-110012251D01*
X107311447Y-109987747D01*
X107306666Y-109963713D01*
X107297289Y-109941075D01*
X107283675Y-109920700D01*
X107266347Y-109903373D01*
X107245974Y-109889760D01*
X107240333Y-109886745D01*
X107219968Y-109870032D01*
X107203254Y-109849665D01*
X107190835Y-109826433D01*
X107183187Y-109801219D01*
X107180000Y-109768859D01*
X107180000Y-109261141D01*
X107183187Y-109228781D01*
X107190835Y-109203567D01*
X107203254Y-109180335D01*
X107219968Y-109159968D01*
X107240335Y-109143254D01*
X107263567Y-109130835D01*
X107288781Y-109123187D01*
X107321141Y-109120000D01*
X107878859Y-109120000D01*
X107911219Y-109123187D01*
X107911219Y-109123187D01*
G37*
G36*
X102116448Y-114936873D02*
X102186232Y-114943746D01*
X102252064Y-114963716D01*
X102365309Y-114998068D01*
X102530347Y-115086283D01*
X102675001Y-115204999D01*
X102793717Y-115349653D01*
X102881932Y-115514691D01*
X102881932Y-115514692D01*
X102936254Y-115693768D01*
X102954596Y-115880000D01*
X102936254Y-116066232D01*
X102930926Y-116083795D01*
X102881932Y-116245309D01*
X102793717Y-116410347D01*
X102675001Y-116555001D01*
X102530347Y-116673717D01*
X102365309Y-116761932D01*
X102309507Y-116778859D01*
X102186232Y-116816254D01*
X102046666Y-116830000D01*
X101953334Y-116830000D01*
X101813768Y-116816254D01*
X101690493Y-116778859D01*
X101634691Y-116761932D01*
X101469653Y-116673717D01*
X101324999Y-116555001D01*
X101206283Y-116410347D01*
X101118068Y-116245309D01*
X101069074Y-116083795D01*
X101063746Y-116066232D01*
X101045404Y-115880000D01*
X101063746Y-115693768D01*
X101118068Y-115514692D01*
X101118068Y-115514691D01*
X101206283Y-115349653D01*
X101324999Y-115204999D01*
X101469653Y-115086283D01*
X101634691Y-114998068D01*
X101747936Y-114963716D01*
X101813768Y-114943746D01*
X101883552Y-114936873D01*
X101953334Y-114930000D01*
X102046666Y-114930000D01*
X102116448Y-114936873D01*
X102116448Y-114936873D01*
G37*
G36*
X99576448Y-114936873D02*
X99646232Y-114943746D01*
X99712064Y-114963716D01*
X99825309Y-114998068D01*
X99990347Y-115086283D01*
X100135001Y-115204999D01*
X100253717Y-115349653D01*
X100341932Y-115514691D01*
X100341932Y-115514692D01*
X100396254Y-115693768D01*
X100414596Y-115880000D01*
X100396254Y-116066232D01*
X100390926Y-116083795D01*
X100341932Y-116245309D01*
X100253717Y-116410347D01*
X100135001Y-116555001D01*
X99990347Y-116673717D01*
X99825309Y-116761932D01*
X99769507Y-116778859D01*
X99646232Y-116816254D01*
X99506666Y-116830000D01*
X99413334Y-116830000D01*
X99273768Y-116816254D01*
X99150493Y-116778859D01*
X99094691Y-116761932D01*
X98929653Y-116673717D01*
X98784999Y-116555001D01*
X98666283Y-116410347D01*
X98578068Y-116245309D01*
X98529074Y-116083795D01*
X98523746Y-116066232D01*
X98505404Y-115880000D01*
X98523746Y-115693768D01*
X98578068Y-115514692D01*
X98578068Y-115514691D01*
X98666283Y-115349653D01*
X98784999Y-115204999D01*
X98929653Y-115086283D01*
X99094691Y-114998068D01*
X99207936Y-114963716D01*
X99273768Y-114943746D01*
X99343552Y-114936873D01*
X99413334Y-114930000D01*
X99506666Y-114930000D01*
X99576448Y-114936873D01*
X99576448Y-114936873D01*
G37*
G36*
X102186232Y-112403746D02*
X102275770Y-112430907D01*
X102365309Y-112458068D01*
X102530347Y-112546283D01*
X102675001Y-112664999D01*
X102793717Y-112809653D01*
X102881932Y-112974691D01*
X102881932Y-112974692D01*
X102936254Y-113153768D01*
X102948440Y-113277500D01*
X102954596Y-113340000D01*
X102936254Y-113526231D01*
X102881932Y-113705309D01*
X102793717Y-113870347D01*
X102675001Y-114015001D01*
X102530347Y-114133717D01*
X102365309Y-114221932D01*
X102309141Y-114238970D01*
X102186232Y-114276254D01*
X102046666Y-114290000D01*
X101953334Y-114290000D01*
X101813768Y-114276254D01*
X101690859Y-114238970D01*
X101634691Y-114221932D01*
X101469653Y-114133717D01*
X101324999Y-114015001D01*
X101206283Y-113870347D01*
X101118068Y-113705309D01*
X101063746Y-113526231D01*
X101045404Y-113340000D01*
X101051560Y-113277500D01*
X101063746Y-113153768D01*
X101118068Y-112974692D01*
X101118068Y-112974691D01*
X101206283Y-112809653D01*
X101324999Y-112664999D01*
X101469653Y-112546283D01*
X101634691Y-112458068D01*
X101724230Y-112430907D01*
X101813768Y-112403746D01*
X101953334Y-112390000D01*
X102046666Y-112390000D01*
X102186232Y-112403746D01*
X102186232Y-112403746D01*
G37*
G36*
X99646232Y-112403746D02*
X99735770Y-112430907D01*
X99825309Y-112458068D01*
X99990347Y-112546283D01*
X100135001Y-112664999D01*
X100253717Y-112809653D01*
X100341932Y-112974691D01*
X100341932Y-112974692D01*
X100396254Y-113153768D01*
X100408440Y-113277500D01*
X100414596Y-113340000D01*
X100396254Y-113526231D01*
X100341932Y-113705309D01*
X100253717Y-113870347D01*
X100135001Y-114015001D01*
X99990347Y-114133717D01*
X99825309Y-114221932D01*
X99769141Y-114238970D01*
X99646232Y-114276254D01*
X99506666Y-114290000D01*
X99413334Y-114290000D01*
X99273768Y-114276254D01*
X99150859Y-114238970D01*
X99094691Y-114221932D01*
X98929653Y-114133717D01*
X98784999Y-114015001D01*
X98666283Y-113870347D01*
X98578068Y-113705309D01*
X98523746Y-113526231D01*
X98505404Y-113340000D01*
X98511560Y-113277500D01*
X98523746Y-113153768D01*
X98578068Y-112974692D01*
X98578068Y-112974691D01*
X98666283Y-112809653D01*
X98784999Y-112664999D01*
X98929653Y-112546283D01*
X99094691Y-112458068D01*
X99184230Y-112430907D01*
X99273768Y-112403746D01*
X99413334Y-112390000D01*
X99506666Y-112390000D01*
X99646232Y-112403746D01*
X99646232Y-112403746D01*
G37*
G36*
X102116448Y-109856873D02*
X102186232Y-109863746D01*
X102228985Y-109876715D01*
X102365309Y-109918068D01*
X102530347Y-110006283D01*
X102675001Y-110124999D01*
X102793717Y-110269653D01*
X102881932Y-110434691D01*
X102881932Y-110434692D01*
X102936254Y-110613768D01*
X102954596Y-110800000D01*
X102936254Y-110986232D01*
X102919810Y-111040441D01*
X102881932Y-111165309D01*
X102793717Y-111330347D01*
X102675001Y-111475001D01*
X102530347Y-111593717D01*
X102365309Y-111681932D01*
X102275770Y-111709093D01*
X102186232Y-111736254D01*
X102046666Y-111750000D01*
X101953334Y-111750000D01*
X101813768Y-111736254D01*
X101724230Y-111709093D01*
X101634691Y-111681932D01*
X101469653Y-111593717D01*
X101324999Y-111475001D01*
X101206283Y-111330347D01*
X101118068Y-111165309D01*
X101080190Y-111040441D01*
X101063746Y-110986232D01*
X101045404Y-110800000D01*
X101063746Y-110613768D01*
X101118068Y-110434692D01*
X101118068Y-110434691D01*
X101206283Y-110269653D01*
X101324999Y-110124999D01*
X101469653Y-110006283D01*
X101634691Y-109918068D01*
X101771015Y-109876715D01*
X101813768Y-109863746D01*
X101883552Y-109856873D01*
X101953334Y-109850000D01*
X102046666Y-109850000D01*
X102116448Y-109856873D01*
X102116448Y-109856873D01*
G37*
G36*
X99576448Y-109856873D02*
X99646232Y-109863746D01*
X99688985Y-109876715D01*
X99825309Y-109918068D01*
X99990347Y-110006283D01*
X100135001Y-110124999D01*
X100253717Y-110269653D01*
X100341932Y-110434691D01*
X100341932Y-110434692D01*
X100396254Y-110613768D01*
X100414596Y-110800000D01*
X100396254Y-110986232D01*
X100379810Y-111040441D01*
X100341932Y-111165309D01*
X100253717Y-111330347D01*
X100135001Y-111475001D01*
X99990347Y-111593717D01*
X99825309Y-111681932D01*
X99735770Y-111709093D01*
X99646232Y-111736254D01*
X99506666Y-111750000D01*
X99413334Y-111750000D01*
X99273768Y-111736254D01*
X99184230Y-111709093D01*
X99094691Y-111681932D01*
X98929653Y-111593717D01*
X98784999Y-111475001D01*
X98666283Y-111330347D01*
X98578068Y-111165309D01*
X98540190Y-111040441D01*
X98523746Y-110986232D01*
X98505404Y-110800000D01*
X98523746Y-110613768D01*
X98578068Y-110434692D01*
X98578068Y-110434691D01*
X98666283Y-110269653D01*
X98784999Y-110124999D01*
X98929653Y-110006283D01*
X99094691Y-109918068D01*
X99231015Y-109876715D01*
X99273768Y-109863746D01*
X99343552Y-109856873D01*
X99413334Y-109850000D01*
X99506666Y-109850000D01*
X99576448Y-109856873D01*
X99576448Y-109856873D01*
G37*
G36*
X174686232Y-108223746D02*
X174775770Y-108250907D01*
X174865309Y-108278068D01*
X175030347Y-108366283D01*
X175175001Y-108484999D01*
X175293717Y-108629653D01*
X175381932Y-108794691D01*
X175436254Y-108973769D01*
X175454596Y-109160000D01*
X175436254Y-109346231D01*
X175381932Y-109525309D01*
X175293717Y-109690347D01*
X175175001Y-109835001D01*
X175030347Y-109953717D01*
X174865309Y-110041932D01*
X174775770Y-110069093D01*
X174686232Y-110096254D01*
X174616448Y-110103127D01*
X174546666Y-110110000D01*
X174453334Y-110110000D01*
X174383552Y-110103127D01*
X174313768Y-110096254D01*
X174224230Y-110069093D01*
X174134691Y-110041932D01*
X173969653Y-109953717D01*
X173824999Y-109835001D01*
X173706283Y-109690347D01*
X173618068Y-109525309D01*
X173563746Y-109346231D01*
X173545404Y-109160000D01*
X173563746Y-108973769D01*
X173618068Y-108794691D01*
X173706283Y-108629653D01*
X173824999Y-108484999D01*
X173969653Y-108366283D01*
X174134691Y-108278068D01*
X174224230Y-108250907D01*
X174313768Y-108223746D01*
X174453334Y-108210000D01*
X174546666Y-108210000D01*
X174686232Y-108223746D01*
X174686232Y-108223746D01*
G37*
G36*
X177226232Y-108223746D02*
X177315770Y-108250907D01*
X177405309Y-108278068D01*
X177570347Y-108366283D01*
X177715001Y-108484999D01*
X177833717Y-108629653D01*
X177921932Y-108794691D01*
X177976254Y-108973769D01*
X177994596Y-109160000D01*
X177976254Y-109346231D01*
X177921932Y-109525309D01*
X177833717Y-109690347D01*
X177715001Y-109835001D01*
X177570347Y-109953717D01*
X177405309Y-110041932D01*
X177315770Y-110069093D01*
X177226232Y-110096254D01*
X177156448Y-110103127D01*
X177086666Y-110110000D01*
X176993334Y-110110000D01*
X176923552Y-110103127D01*
X176853768Y-110096254D01*
X176764230Y-110069093D01*
X176674691Y-110041932D01*
X176509653Y-109953717D01*
X176364999Y-109835001D01*
X176246283Y-109690347D01*
X176158068Y-109525309D01*
X176103746Y-109346231D01*
X176085404Y-109160000D01*
X176103746Y-108973769D01*
X176158068Y-108794691D01*
X176246283Y-108629653D01*
X176364999Y-108484999D01*
X176509653Y-108366283D01*
X176674691Y-108278068D01*
X176764230Y-108250907D01*
X176853768Y-108223746D01*
X176993334Y-108210000D01*
X177086666Y-108210000D01*
X177226232Y-108223746D01*
X177226232Y-108223746D01*
G37*
G36*
X102186232Y-107323746D02*
X102275770Y-107350907D01*
X102365309Y-107378068D01*
X102530347Y-107466283D01*
X102675001Y-107584999D01*
X102793717Y-107729653D01*
X102881932Y-107894691D01*
X102936254Y-108073769D01*
X102954596Y-108260000D01*
X102936254Y-108446231D01*
X102881932Y-108625309D01*
X102793717Y-108790347D01*
X102675001Y-108935001D01*
X102530347Y-109053717D01*
X102365309Y-109141932D01*
X102305851Y-109159968D01*
X102186232Y-109196254D01*
X102046666Y-109210000D01*
X101953334Y-109210000D01*
X101813768Y-109196254D01*
X101694149Y-109159968D01*
X101634691Y-109141932D01*
X101469653Y-109053717D01*
X101324999Y-108935001D01*
X101206283Y-108790347D01*
X101118068Y-108625309D01*
X101063746Y-108446231D01*
X101045404Y-108260000D01*
X101063746Y-108073769D01*
X101118068Y-107894691D01*
X101206283Y-107729653D01*
X101324999Y-107584999D01*
X101469653Y-107466283D01*
X101634691Y-107378068D01*
X101724230Y-107350907D01*
X101813768Y-107323746D01*
X101953334Y-107310000D01*
X102046666Y-107310000D01*
X102186232Y-107323746D01*
X102186232Y-107323746D01*
G37*
G36*
X99646232Y-107323746D02*
X99735770Y-107350907D01*
X99825309Y-107378068D01*
X99990347Y-107466283D01*
X100135001Y-107584999D01*
X100253717Y-107729653D01*
X100341932Y-107894691D01*
X100396254Y-108073769D01*
X100414596Y-108260000D01*
X100396254Y-108446231D01*
X100341932Y-108625309D01*
X100253717Y-108790347D01*
X100135001Y-108935001D01*
X99990347Y-109053717D01*
X99825309Y-109141932D01*
X99765851Y-109159968D01*
X99646232Y-109196254D01*
X99506666Y-109210000D01*
X99413334Y-109210000D01*
X99273768Y-109196254D01*
X99154149Y-109159968D01*
X99094691Y-109141932D01*
X98929653Y-109053717D01*
X98784999Y-108935001D01*
X98666283Y-108790347D01*
X98578068Y-108625309D01*
X98523746Y-108446231D01*
X98505404Y-108260000D01*
X98523746Y-108073769D01*
X98578068Y-107894691D01*
X98666283Y-107729653D01*
X98784999Y-107584999D01*
X98929653Y-107466283D01*
X99094691Y-107378068D01*
X99184230Y-107350907D01*
X99273768Y-107323746D01*
X99413334Y-107310000D01*
X99506666Y-107310000D01*
X99646232Y-107323746D01*
X99646232Y-107323746D01*
G37*
G36*
X177156448Y-105676873D02*
X177226232Y-105683746D01*
X177315770Y-105710907D01*
X177405309Y-105738068D01*
X177570347Y-105826283D01*
X177715001Y-105944999D01*
X177833717Y-106089653D01*
X177921932Y-106254691D01*
X177976254Y-106433769D01*
X177994596Y-106620000D01*
X177976254Y-106806231D01*
X177921932Y-106985309D01*
X177833717Y-107150347D01*
X177715001Y-107295001D01*
X177570347Y-107413717D01*
X177405309Y-107501932D01*
X177315770Y-107529093D01*
X177226232Y-107556254D01*
X177086666Y-107570000D01*
X176993334Y-107570000D01*
X176853768Y-107556254D01*
X176764230Y-107529093D01*
X176674691Y-107501932D01*
X176509653Y-107413717D01*
X176364999Y-107295001D01*
X176246283Y-107150347D01*
X176158068Y-106985309D01*
X176103746Y-106806231D01*
X176085404Y-106620000D01*
X176103746Y-106433769D01*
X176158068Y-106254691D01*
X176246283Y-106089653D01*
X176364999Y-105944999D01*
X176509653Y-105826283D01*
X176674691Y-105738068D01*
X176764230Y-105710907D01*
X176853768Y-105683746D01*
X176923552Y-105676873D01*
X176993334Y-105670000D01*
X177086666Y-105670000D01*
X177156448Y-105676873D01*
X177156448Y-105676873D01*
G37*
G36*
X174616448Y-105676873D02*
X174686232Y-105683746D01*
X174775770Y-105710907D01*
X174865309Y-105738068D01*
X175030347Y-105826283D01*
X175175001Y-105944999D01*
X175293717Y-106089653D01*
X175381932Y-106254691D01*
X175436254Y-106433769D01*
X175454596Y-106620000D01*
X175436254Y-106806231D01*
X175381932Y-106985309D01*
X175293717Y-107150347D01*
X175175001Y-107295001D01*
X175030347Y-107413717D01*
X174865309Y-107501932D01*
X174775770Y-107529093D01*
X174686232Y-107556254D01*
X174546666Y-107570000D01*
X174453334Y-107570000D01*
X174313768Y-107556254D01*
X174224230Y-107529093D01*
X174134691Y-107501932D01*
X173969653Y-107413717D01*
X173824999Y-107295001D01*
X173706283Y-107150347D01*
X173618068Y-106985309D01*
X173563746Y-106806231D01*
X173545404Y-106620000D01*
X173563746Y-106433769D01*
X173618068Y-106254691D01*
X173706283Y-106089653D01*
X173824999Y-105944999D01*
X173969653Y-105826283D01*
X174134691Y-105738068D01*
X174224230Y-105710907D01*
X174313768Y-105683746D01*
X174383552Y-105676873D01*
X174453334Y-105670000D01*
X174546666Y-105670000D01*
X174616448Y-105676873D01*
X174616448Y-105676873D01*
G37*
G36*
X102116448Y-104776873D02*
X102186232Y-104783746D01*
X102275770Y-104810907D01*
X102365309Y-104838068D01*
X102530347Y-104926283D01*
X102675001Y-105044999D01*
X102793717Y-105189653D01*
X102881932Y-105354691D01*
X102936254Y-105533769D01*
X102954596Y-105720000D01*
X102936254Y-105906231D01*
X102881932Y-106085309D01*
X102793717Y-106250347D01*
X102675001Y-106395001D01*
X102530347Y-106513717D01*
X102365309Y-106601932D01*
X102305746Y-106620000D01*
X102186232Y-106656254D01*
X102046666Y-106670000D01*
X101953334Y-106670000D01*
X101813768Y-106656254D01*
X101694254Y-106620000D01*
X101634691Y-106601932D01*
X101469653Y-106513717D01*
X101324999Y-106395001D01*
X101206283Y-106250347D01*
X101118068Y-106085309D01*
X101063746Y-105906231D01*
X101045404Y-105720000D01*
X101063746Y-105533769D01*
X101118068Y-105354691D01*
X101206283Y-105189653D01*
X101324999Y-105044999D01*
X101469653Y-104926283D01*
X101634691Y-104838068D01*
X101724230Y-104810907D01*
X101813768Y-104783746D01*
X101883552Y-104776873D01*
X101953334Y-104770000D01*
X102046666Y-104770000D01*
X102116448Y-104776873D01*
X102116448Y-104776873D01*
G37*
G36*
X99576448Y-104776873D02*
X99646232Y-104783746D01*
X99735770Y-104810907D01*
X99825309Y-104838068D01*
X99990347Y-104926283D01*
X100135001Y-105044999D01*
X100253717Y-105189653D01*
X100341932Y-105354691D01*
X100396254Y-105533769D01*
X100414596Y-105720000D01*
X100396254Y-105906231D01*
X100341932Y-106085309D01*
X100253717Y-106250347D01*
X100135001Y-106395001D01*
X99990347Y-106513717D01*
X99825309Y-106601932D01*
X99765746Y-106620000D01*
X99646232Y-106656254D01*
X99506666Y-106670000D01*
X99413334Y-106670000D01*
X99273768Y-106656254D01*
X99154254Y-106620000D01*
X99094691Y-106601932D01*
X98929653Y-106513717D01*
X98784999Y-106395001D01*
X98666283Y-106250347D01*
X98578068Y-106085309D01*
X98523746Y-105906231D01*
X98505404Y-105720000D01*
X98523746Y-105533769D01*
X98578068Y-105354691D01*
X98666283Y-105189653D01*
X98784999Y-105044999D01*
X98929653Y-104926283D01*
X99094691Y-104838068D01*
X99184230Y-104810907D01*
X99273768Y-104783746D01*
X99343552Y-104776873D01*
X99413334Y-104770000D01*
X99506666Y-104770000D01*
X99576448Y-104776873D01*
X99576448Y-104776873D01*
G37*
G36*
X174616448Y-103136873D02*
X174686232Y-103143746D01*
X174775770Y-103170907D01*
X174865309Y-103198068D01*
X175030347Y-103286283D01*
X175175001Y-103404999D01*
X175293717Y-103549653D01*
X175381932Y-103714691D01*
X175436254Y-103893769D01*
X175454596Y-104080000D01*
X175436254Y-104266231D01*
X175381932Y-104445309D01*
X175293717Y-104610347D01*
X175175001Y-104755001D01*
X175030347Y-104873717D01*
X174865309Y-104961932D01*
X174775770Y-104989093D01*
X174686232Y-105016254D01*
X174616448Y-105023127D01*
X174546666Y-105030000D01*
X174453334Y-105030000D01*
X174313768Y-105016254D01*
X174224230Y-104989093D01*
X174134691Y-104961932D01*
X173969653Y-104873717D01*
X173824999Y-104755001D01*
X173706283Y-104610347D01*
X173618068Y-104445309D01*
X173563746Y-104266231D01*
X173545404Y-104080000D01*
X173563746Y-103893769D01*
X173618068Y-103714691D01*
X173706283Y-103549653D01*
X173824999Y-103404999D01*
X173969653Y-103286283D01*
X174134691Y-103198068D01*
X174224230Y-103170907D01*
X174313768Y-103143746D01*
X174383552Y-103136873D01*
X174453334Y-103130000D01*
X174546666Y-103130000D01*
X174616448Y-103136873D01*
X174616448Y-103136873D01*
G37*
G36*
X177156448Y-103136873D02*
X177226232Y-103143746D01*
X177315770Y-103170907D01*
X177405309Y-103198068D01*
X177570347Y-103286283D01*
X177715001Y-103404999D01*
X177833717Y-103549653D01*
X177921932Y-103714691D01*
X177976254Y-103893769D01*
X177994596Y-104080000D01*
X177976254Y-104266231D01*
X177921932Y-104445309D01*
X177833717Y-104610347D01*
X177715001Y-104755001D01*
X177570347Y-104873717D01*
X177405309Y-104961932D01*
X177315770Y-104989093D01*
X177226232Y-105016254D01*
X177156448Y-105023127D01*
X177086666Y-105030000D01*
X176993334Y-105030000D01*
X176853768Y-105016254D01*
X176764230Y-104989093D01*
X176674691Y-104961932D01*
X176509653Y-104873717D01*
X176364999Y-104755001D01*
X176246283Y-104610347D01*
X176158068Y-104445309D01*
X176103746Y-104266231D01*
X176085404Y-104080000D01*
X176103746Y-103893769D01*
X176158068Y-103714691D01*
X176246283Y-103549653D01*
X176364999Y-103404999D01*
X176509653Y-103286283D01*
X176674691Y-103198068D01*
X176764230Y-103170907D01*
X176853768Y-103143746D01*
X176923552Y-103136873D01*
X176993334Y-103130000D01*
X177086666Y-103130000D01*
X177156448Y-103136873D01*
X177156448Y-103136873D01*
G37*
G36*
X102116448Y-102236873D02*
X102186232Y-102243746D01*
X102275770Y-102270907D01*
X102365309Y-102298068D01*
X102530347Y-102386283D01*
X102675001Y-102504999D01*
X102793717Y-102649653D01*
X102881932Y-102814691D01*
X102936254Y-102993769D01*
X102954596Y-103180000D01*
X102936254Y-103366231D01*
X102881932Y-103545309D01*
X102793717Y-103710347D01*
X102675001Y-103855001D01*
X102530347Y-103973717D01*
X102365309Y-104061932D01*
X102305746Y-104080000D01*
X102186232Y-104116254D01*
X102116448Y-104123127D01*
X102046666Y-104130000D01*
X101953334Y-104130000D01*
X101883552Y-104123127D01*
X101813768Y-104116254D01*
X101694254Y-104080000D01*
X101634691Y-104061932D01*
X101469653Y-103973717D01*
X101324999Y-103855001D01*
X101206283Y-103710347D01*
X101118068Y-103545309D01*
X101063746Y-103366231D01*
X101045404Y-103180000D01*
X101063746Y-102993769D01*
X101118068Y-102814691D01*
X101206283Y-102649653D01*
X101324999Y-102504999D01*
X101469653Y-102386283D01*
X101634691Y-102298068D01*
X101724230Y-102270907D01*
X101813768Y-102243746D01*
X101883552Y-102236873D01*
X101953334Y-102230000D01*
X102046666Y-102230000D01*
X102116448Y-102236873D01*
X102116448Y-102236873D01*
G37*
G36*
X99576448Y-102236873D02*
X99646232Y-102243746D01*
X99735770Y-102270907D01*
X99825309Y-102298068D01*
X99990347Y-102386283D01*
X100135001Y-102504999D01*
X100253717Y-102649653D01*
X100341932Y-102814691D01*
X100396254Y-102993769D01*
X100414596Y-103180000D01*
X100396254Y-103366231D01*
X100341932Y-103545309D01*
X100253717Y-103710347D01*
X100135001Y-103855001D01*
X99990347Y-103973717D01*
X99825309Y-104061932D01*
X99765746Y-104080000D01*
X99646232Y-104116254D01*
X99576448Y-104123127D01*
X99506666Y-104130000D01*
X99413334Y-104130000D01*
X99343552Y-104123127D01*
X99273768Y-104116254D01*
X99154254Y-104080000D01*
X99094691Y-104061932D01*
X98929653Y-103973717D01*
X98784999Y-103855001D01*
X98666283Y-103710347D01*
X98578068Y-103545309D01*
X98523746Y-103366231D01*
X98505404Y-103180000D01*
X98523746Y-102993769D01*
X98578068Y-102814691D01*
X98666283Y-102649653D01*
X98784999Y-102504999D01*
X98929653Y-102386283D01*
X99094691Y-102298068D01*
X99184230Y-102270907D01*
X99273768Y-102243746D01*
X99343552Y-102236873D01*
X99413334Y-102230000D01*
X99506666Y-102230000D01*
X99576448Y-102236873D01*
X99576448Y-102236873D01*
G37*
G36*
X177226232Y-100603746D02*
X177315770Y-100630907D01*
X177405309Y-100658068D01*
X177570347Y-100746283D01*
X177715001Y-100864999D01*
X177833717Y-101009653D01*
X177921932Y-101174691D01*
X177976254Y-101353769D01*
X177994596Y-101540000D01*
X177976254Y-101726231D01*
X177921932Y-101905309D01*
X177833717Y-102070347D01*
X177715001Y-102215001D01*
X177570347Y-102333717D01*
X177405309Y-102421932D01*
X177315770Y-102449093D01*
X177226232Y-102476254D01*
X177086666Y-102490000D01*
X176993334Y-102490000D01*
X176853768Y-102476254D01*
X176764230Y-102449093D01*
X176674691Y-102421932D01*
X176509653Y-102333717D01*
X176364999Y-102215001D01*
X176246283Y-102070347D01*
X176158068Y-101905309D01*
X176103746Y-101726231D01*
X176085404Y-101540000D01*
X176103746Y-101353769D01*
X176158068Y-101174691D01*
X176246283Y-101009653D01*
X176364999Y-100864999D01*
X176509653Y-100746283D01*
X176674691Y-100658068D01*
X176764230Y-100630907D01*
X176853768Y-100603746D01*
X176993334Y-100590000D01*
X177086666Y-100590000D01*
X177226232Y-100603746D01*
X177226232Y-100603746D01*
G37*
G36*
X174686232Y-100603746D02*
X174775770Y-100630907D01*
X174865309Y-100658068D01*
X175030347Y-100746283D01*
X175175001Y-100864999D01*
X175293717Y-101009653D01*
X175381932Y-101174691D01*
X175436254Y-101353769D01*
X175454596Y-101540000D01*
X175436254Y-101726231D01*
X175381932Y-101905309D01*
X175293717Y-102070347D01*
X175175001Y-102215001D01*
X175030347Y-102333717D01*
X174865309Y-102421932D01*
X174775770Y-102449093D01*
X174686232Y-102476254D01*
X174546666Y-102490000D01*
X174453334Y-102490000D01*
X174313768Y-102476254D01*
X174224230Y-102449093D01*
X174134691Y-102421932D01*
X173969653Y-102333717D01*
X173824999Y-102215001D01*
X173706283Y-102070347D01*
X173618068Y-101905309D01*
X173563746Y-101726231D01*
X173545404Y-101540000D01*
X173563746Y-101353769D01*
X173618068Y-101174691D01*
X173706283Y-101009653D01*
X173824999Y-100864999D01*
X173969653Y-100746283D01*
X174134691Y-100658068D01*
X174224230Y-100630907D01*
X174313768Y-100603746D01*
X174453334Y-100590000D01*
X174546666Y-100590000D01*
X174686232Y-100603746D01*
X174686232Y-100603746D01*
G37*
G36*
X102085197Y-99693795D02*
X102186232Y-99703746D01*
X102272829Y-99730015D01*
X102365309Y-99758068D01*
X102530347Y-99846283D01*
X102675001Y-99964999D01*
X102793717Y-100109653D01*
X102881932Y-100274691D01*
X102898030Y-100327760D01*
X102936254Y-100453768D01*
X102939225Y-100483935D01*
X102954596Y-100640000D01*
X102936254Y-100826231D01*
X102881932Y-101005309D01*
X102793717Y-101170347D01*
X102675001Y-101315001D01*
X102530347Y-101433717D01*
X102365309Y-101521932D01*
X102305746Y-101540000D01*
X102186232Y-101576254D01*
X102116448Y-101583127D01*
X102046666Y-101590000D01*
X101953334Y-101590000D01*
X101883552Y-101583127D01*
X101813768Y-101576254D01*
X101694254Y-101540000D01*
X101634691Y-101521932D01*
X101469653Y-101433717D01*
X101324999Y-101315001D01*
X101206283Y-101170347D01*
X101118068Y-101005309D01*
X101063746Y-100826231D01*
X101045404Y-100640000D01*
X101060775Y-100483935D01*
X101063746Y-100453768D01*
X101101970Y-100327760D01*
X101118068Y-100274691D01*
X101206283Y-100109653D01*
X101324999Y-99964999D01*
X101469653Y-99846283D01*
X101634691Y-99758068D01*
X101727171Y-99730015D01*
X101813768Y-99703746D01*
X101914803Y-99693795D01*
X101953334Y-99690000D01*
X102046666Y-99690000D01*
X102085197Y-99693795D01*
X102085197Y-99693795D01*
G37*
G36*
X99545197Y-99693795D02*
X99646232Y-99703746D01*
X99732829Y-99730015D01*
X99825309Y-99758068D01*
X99990347Y-99846283D01*
X100135001Y-99964999D01*
X100253717Y-100109653D01*
X100341932Y-100274691D01*
X100358030Y-100327760D01*
X100396254Y-100453768D01*
X100399225Y-100483935D01*
X100414596Y-100640000D01*
X100396254Y-100826231D01*
X100341932Y-101005309D01*
X100253717Y-101170347D01*
X100135001Y-101315001D01*
X99990347Y-101433717D01*
X99825309Y-101521932D01*
X99765746Y-101540000D01*
X99646232Y-101576254D01*
X99576448Y-101583127D01*
X99506666Y-101590000D01*
X99413334Y-101590000D01*
X99343552Y-101583127D01*
X99273768Y-101576254D01*
X99154254Y-101540000D01*
X99094691Y-101521932D01*
X98929653Y-101433717D01*
X98784999Y-101315001D01*
X98666283Y-101170347D01*
X98578068Y-101005309D01*
X98523746Y-100826231D01*
X98505404Y-100640000D01*
X98520775Y-100483935D01*
X98523746Y-100453768D01*
X98561970Y-100327760D01*
X98578068Y-100274691D01*
X98666283Y-100109653D01*
X98784999Y-99964999D01*
X98929653Y-99846283D01*
X99094691Y-99758068D01*
X99187171Y-99730015D01*
X99273768Y-99703746D01*
X99374803Y-99693795D01*
X99413334Y-99690000D01*
X99506666Y-99690000D01*
X99545197Y-99693795D01*
X99545197Y-99693795D01*
G37*
G36*
X127398355Y-98730917D02*
X127423569Y-98738565D01*
X127446801Y-98750984D01*
X127467168Y-98767698D01*
X127483882Y-98788065D01*
X127496301Y-98811297D01*
X127503949Y-98836511D01*
X127507136Y-98868871D01*
X127507136Y-99376589D01*
X127503949Y-99408949D01*
X127496301Y-99434163D01*
X127483882Y-99457395D01*
X127467168Y-99477762D01*
X127446803Y-99494475D01*
X127441162Y-99497490D01*
X127420787Y-99511104D01*
X127403460Y-99528432D01*
X127389846Y-99548806D01*
X127380469Y-99571445D01*
X127375689Y-99595479D01*
X127375689Y-99619983D01*
X127380470Y-99644017D01*
X127389847Y-99666655D01*
X127403461Y-99687030D01*
X127420789Y-99704357D01*
X127441162Y-99717970D01*
X127446803Y-99720985D01*
X127467168Y-99737698D01*
X127483882Y-99758065D01*
X127496301Y-99781297D01*
X127503949Y-99806511D01*
X127507136Y-99838871D01*
X127507136Y-100346589D01*
X127503949Y-100378949D01*
X127496301Y-100404163D01*
X127483882Y-100427395D01*
X127467168Y-100447762D01*
X127446801Y-100464476D01*
X127423569Y-100476895D01*
X127398355Y-100484543D01*
X127365995Y-100487730D01*
X126808277Y-100487730D01*
X126775917Y-100484543D01*
X126750703Y-100476895D01*
X126727471Y-100464476D01*
X126707104Y-100447762D01*
X126690390Y-100427395D01*
X126677971Y-100404163D01*
X126670323Y-100378949D01*
X126667136Y-100346589D01*
X126667136Y-99838871D01*
X126670323Y-99806511D01*
X126677971Y-99781297D01*
X126690390Y-99758065D01*
X126707104Y-99737698D01*
X126727469Y-99720985D01*
X126733110Y-99717970D01*
X126753485Y-99704356D01*
X126770812Y-99687028D01*
X126784426Y-99666654D01*
X126793803Y-99644015D01*
X126798583Y-99619981D01*
X126798583Y-99595477D01*
X126793802Y-99571443D01*
X126784425Y-99548805D01*
X126770811Y-99528430D01*
X126753483Y-99511103D01*
X126733110Y-99497490D01*
X126727469Y-99494475D01*
X126707104Y-99477762D01*
X126690390Y-99457395D01*
X126677971Y-99434163D01*
X126670323Y-99408949D01*
X126667136Y-99376589D01*
X126667136Y-98868871D01*
X126670323Y-98836511D01*
X126677971Y-98811297D01*
X126690390Y-98788065D01*
X126707104Y-98767698D01*
X126727471Y-98750984D01*
X126750703Y-98738565D01*
X126775917Y-98730917D01*
X126808277Y-98727730D01*
X127365995Y-98727730D01*
X127398355Y-98730917D01*
X127398355Y-98730917D01*
G37*
G36*
X117873355Y-98730917D02*
X117898569Y-98738565D01*
X117921801Y-98750984D01*
X117942168Y-98767698D01*
X117958882Y-98788065D01*
X117971301Y-98811297D01*
X117978949Y-98836511D01*
X117982136Y-98868871D01*
X117982136Y-99376589D01*
X117978949Y-99408949D01*
X117971301Y-99434163D01*
X117958882Y-99457395D01*
X117942168Y-99477762D01*
X117921803Y-99494475D01*
X117916162Y-99497490D01*
X117895787Y-99511104D01*
X117878460Y-99528432D01*
X117864846Y-99548806D01*
X117855469Y-99571445D01*
X117850689Y-99595479D01*
X117850689Y-99619983D01*
X117855470Y-99644017D01*
X117864847Y-99666655D01*
X117878461Y-99687030D01*
X117895789Y-99704357D01*
X117916162Y-99717970D01*
X117921803Y-99720985D01*
X117942168Y-99737698D01*
X117958882Y-99758065D01*
X117971301Y-99781297D01*
X117978949Y-99806511D01*
X117982136Y-99838871D01*
X117982136Y-100346589D01*
X117978949Y-100378949D01*
X117971301Y-100404163D01*
X117958882Y-100427395D01*
X117942168Y-100447762D01*
X117921801Y-100464476D01*
X117898569Y-100476895D01*
X117873355Y-100484543D01*
X117840995Y-100487730D01*
X117283277Y-100487730D01*
X117250917Y-100484543D01*
X117225703Y-100476895D01*
X117202471Y-100464476D01*
X117182104Y-100447762D01*
X117165390Y-100427395D01*
X117152971Y-100404163D01*
X117145323Y-100378949D01*
X117142136Y-100346589D01*
X117142136Y-99838871D01*
X117145323Y-99806511D01*
X117152971Y-99781297D01*
X117165390Y-99758065D01*
X117182104Y-99737698D01*
X117202469Y-99720985D01*
X117208110Y-99717970D01*
X117228485Y-99704356D01*
X117245812Y-99687028D01*
X117259426Y-99666654D01*
X117268803Y-99644015D01*
X117273583Y-99619981D01*
X117273583Y-99595477D01*
X117268802Y-99571443D01*
X117259425Y-99548805D01*
X117245811Y-99528430D01*
X117228483Y-99511103D01*
X117208110Y-99497490D01*
X117202469Y-99494475D01*
X117182104Y-99477762D01*
X117165390Y-99457395D01*
X117152971Y-99434163D01*
X117145323Y-99408949D01*
X117142136Y-99376589D01*
X117142136Y-98868871D01*
X117145323Y-98836511D01*
X117152971Y-98811297D01*
X117165390Y-98788065D01*
X117182104Y-98767698D01*
X117202471Y-98750984D01*
X117225703Y-98738565D01*
X117250917Y-98730917D01*
X117283277Y-98727730D01*
X117840995Y-98727730D01*
X117873355Y-98730917D01*
X117873355Y-98730917D01*
G37*
G36*
X123969355Y-98730917D02*
X123994569Y-98738565D01*
X124017801Y-98750984D01*
X124038168Y-98767698D01*
X124054882Y-98788065D01*
X124067301Y-98811297D01*
X124074949Y-98836511D01*
X124078136Y-98868871D01*
X124078136Y-99376589D01*
X124074949Y-99408949D01*
X124067301Y-99434163D01*
X124054882Y-99457395D01*
X124038168Y-99477762D01*
X124017803Y-99494475D01*
X124012162Y-99497490D01*
X123991787Y-99511104D01*
X123974460Y-99528432D01*
X123960846Y-99548806D01*
X123951469Y-99571445D01*
X123946689Y-99595479D01*
X123946689Y-99619983D01*
X123951470Y-99644017D01*
X123960847Y-99666655D01*
X123974461Y-99687030D01*
X123991789Y-99704357D01*
X124012162Y-99717970D01*
X124017803Y-99720985D01*
X124038168Y-99737698D01*
X124054882Y-99758065D01*
X124067301Y-99781297D01*
X124074949Y-99806511D01*
X124078136Y-99838871D01*
X124078136Y-100346589D01*
X124074949Y-100378949D01*
X124067301Y-100404163D01*
X124054882Y-100427395D01*
X124038168Y-100447762D01*
X124017801Y-100464476D01*
X123994569Y-100476895D01*
X123969355Y-100484543D01*
X123936995Y-100487730D01*
X123379277Y-100487730D01*
X123346917Y-100484543D01*
X123321703Y-100476895D01*
X123298471Y-100464476D01*
X123278104Y-100447762D01*
X123261390Y-100427395D01*
X123248971Y-100404163D01*
X123241323Y-100378949D01*
X123238136Y-100346589D01*
X123238136Y-99838871D01*
X123241323Y-99806511D01*
X123248971Y-99781297D01*
X123261390Y-99758065D01*
X123278104Y-99737698D01*
X123298469Y-99720985D01*
X123304110Y-99717970D01*
X123324485Y-99704356D01*
X123341812Y-99687028D01*
X123355426Y-99666654D01*
X123364803Y-99644015D01*
X123369583Y-99619981D01*
X123369583Y-99595477D01*
X123364802Y-99571443D01*
X123355425Y-99548805D01*
X123341811Y-99528430D01*
X123324483Y-99511103D01*
X123304110Y-99497490D01*
X123298469Y-99494475D01*
X123278104Y-99477762D01*
X123261390Y-99457395D01*
X123248971Y-99434163D01*
X123241323Y-99408949D01*
X123238136Y-99376589D01*
X123238136Y-98868871D01*
X123241323Y-98836511D01*
X123248971Y-98811297D01*
X123261390Y-98788065D01*
X123278104Y-98767698D01*
X123298471Y-98750984D01*
X123321703Y-98738565D01*
X123346917Y-98730917D01*
X123379277Y-98727730D01*
X123936995Y-98727730D01*
X123969355Y-98730917D01*
X123969355Y-98730917D01*
G37*
G36*
X122699355Y-98730917D02*
X122724569Y-98738565D01*
X122747801Y-98750984D01*
X122768168Y-98767698D01*
X122784882Y-98788065D01*
X122797301Y-98811297D01*
X122804949Y-98836511D01*
X122808136Y-98868871D01*
X122808136Y-99376589D01*
X122804949Y-99408949D01*
X122797301Y-99434163D01*
X122784882Y-99457395D01*
X122768168Y-99477762D01*
X122747803Y-99494475D01*
X122742162Y-99497490D01*
X122721787Y-99511104D01*
X122704460Y-99528432D01*
X122690846Y-99548806D01*
X122681469Y-99571445D01*
X122676689Y-99595479D01*
X122676689Y-99619983D01*
X122681470Y-99644017D01*
X122690847Y-99666655D01*
X122704461Y-99687030D01*
X122721789Y-99704357D01*
X122742162Y-99717970D01*
X122747803Y-99720985D01*
X122768168Y-99737698D01*
X122784882Y-99758065D01*
X122797301Y-99781297D01*
X122804949Y-99806511D01*
X122808136Y-99838871D01*
X122808136Y-100346589D01*
X122804949Y-100378949D01*
X122797301Y-100404163D01*
X122784882Y-100427395D01*
X122768168Y-100447762D01*
X122747801Y-100464476D01*
X122724569Y-100476895D01*
X122699355Y-100484543D01*
X122666995Y-100487730D01*
X122109277Y-100487730D01*
X122076917Y-100484543D01*
X122051703Y-100476895D01*
X122028471Y-100464476D01*
X122008104Y-100447762D01*
X121991390Y-100427395D01*
X121978971Y-100404163D01*
X121971323Y-100378949D01*
X121968136Y-100346589D01*
X121968136Y-99838871D01*
X121971323Y-99806511D01*
X121978971Y-99781297D01*
X121991390Y-99758065D01*
X122008104Y-99737698D01*
X122028469Y-99720985D01*
X122034110Y-99717970D01*
X122054485Y-99704356D01*
X122071812Y-99687028D01*
X122085426Y-99666654D01*
X122094803Y-99644015D01*
X122099583Y-99619981D01*
X122099583Y-99595477D01*
X122094802Y-99571443D01*
X122085425Y-99548805D01*
X122071811Y-99528430D01*
X122054483Y-99511103D01*
X122034110Y-99497490D01*
X122028469Y-99494475D01*
X122008104Y-99477762D01*
X121991390Y-99457395D01*
X121978971Y-99434163D01*
X121971323Y-99408949D01*
X121968136Y-99376589D01*
X121968136Y-98868871D01*
X121971323Y-98836511D01*
X121978971Y-98811297D01*
X121991390Y-98788065D01*
X122008104Y-98767698D01*
X122028471Y-98750984D01*
X122051703Y-98738565D01*
X122076917Y-98730917D01*
X122109277Y-98727730D01*
X122666995Y-98727730D01*
X122699355Y-98730917D01*
X122699355Y-98730917D01*
G37*
G36*
X119143355Y-98730917D02*
X119168569Y-98738565D01*
X119191801Y-98750984D01*
X119212168Y-98767698D01*
X119228882Y-98788065D01*
X119241301Y-98811297D01*
X119248949Y-98836511D01*
X119252136Y-98868871D01*
X119252136Y-99376589D01*
X119248949Y-99408949D01*
X119241301Y-99434163D01*
X119228882Y-99457395D01*
X119212168Y-99477762D01*
X119191803Y-99494475D01*
X119186162Y-99497490D01*
X119165787Y-99511104D01*
X119148460Y-99528432D01*
X119134846Y-99548806D01*
X119125469Y-99571445D01*
X119120689Y-99595479D01*
X119120689Y-99619983D01*
X119125470Y-99644017D01*
X119134847Y-99666655D01*
X119148461Y-99687030D01*
X119165789Y-99704357D01*
X119186162Y-99717970D01*
X119191803Y-99720985D01*
X119212168Y-99737698D01*
X119228882Y-99758065D01*
X119241301Y-99781297D01*
X119248949Y-99806511D01*
X119252136Y-99838871D01*
X119252136Y-100346589D01*
X119248949Y-100378949D01*
X119241301Y-100404163D01*
X119228882Y-100427395D01*
X119212168Y-100447762D01*
X119191801Y-100464476D01*
X119168569Y-100476895D01*
X119143355Y-100484543D01*
X119110995Y-100487730D01*
X118553277Y-100487730D01*
X118520917Y-100484543D01*
X118495703Y-100476895D01*
X118472471Y-100464476D01*
X118452104Y-100447762D01*
X118435390Y-100427395D01*
X118422971Y-100404163D01*
X118415323Y-100378949D01*
X118412136Y-100346589D01*
X118412136Y-99838871D01*
X118415323Y-99806511D01*
X118422971Y-99781297D01*
X118435390Y-99758065D01*
X118452104Y-99737698D01*
X118472469Y-99720985D01*
X118478110Y-99717970D01*
X118498485Y-99704356D01*
X118515812Y-99687028D01*
X118529426Y-99666654D01*
X118538803Y-99644015D01*
X118543583Y-99619981D01*
X118543583Y-99595477D01*
X118538802Y-99571443D01*
X118529425Y-99548805D01*
X118515811Y-99528430D01*
X118498483Y-99511103D01*
X118478110Y-99497490D01*
X118472469Y-99494475D01*
X118452104Y-99477762D01*
X118435390Y-99457395D01*
X118422971Y-99434163D01*
X118415323Y-99408949D01*
X118412136Y-99376589D01*
X118412136Y-98868871D01*
X118415323Y-98836511D01*
X118422971Y-98811297D01*
X118435390Y-98788065D01*
X118452104Y-98767698D01*
X118472471Y-98750984D01*
X118495703Y-98738565D01*
X118520917Y-98730917D01*
X118553277Y-98727730D01*
X119110995Y-98727730D01*
X119143355Y-98730917D01*
X119143355Y-98730917D01*
G37*
G36*
X128795355Y-98729917D02*
X128820569Y-98737565D01*
X128843801Y-98749984D01*
X128864168Y-98766698D01*
X128880882Y-98787065D01*
X128893301Y-98810297D01*
X128900949Y-98835511D01*
X128904136Y-98867871D01*
X128904136Y-99375589D01*
X128900949Y-99407949D01*
X128893301Y-99433163D01*
X128880882Y-99456395D01*
X128864168Y-99476762D01*
X128843803Y-99493475D01*
X128838162Y-99496490D01*
X128817787Y-99510104D01*
X128800460Y-99527432D01*
X128786846Y-99547806D01*
X128777469Y-99570445D01*
X128772689Y-99594479D01*
X128772689Y-99618983D01*
X128777470Y-99643017D01*
X128786847Y-99665655D01*
X128800461Y-99686030D01*
X128817789Y-99703357D01*
X128838162Y-99716970D01*
X128843803Y-99719985D01*
X128864168Y-99736698D01*
X128880882Y-99757065D01*
X128893301Y-99780297D01*
X128900949Y-99805511D01*
X128904136Y-99837871D01*
X128904136Y-100345589D01*
X128900949Y-100377949D01*
X128893301Y-100403163D01*
X128880882Y-100426395D01*
X128864168Y-100446762D01*
X128843801Y-100463476D01*
X128820569Y-100475895D01*
X128795355Y-100483543D01*
X128762995Y-100486730D01*
X128205277Y-100486730D01*
X128172917Y-100483543D01*
X128147703Y-100475895D01*
X128124471Y-100463476D01*
X128104104Y-100446762D01*
X128087390Y-100426395D01*
X128074971Y-100403163D01*
X128067323Y-100377949D01*
X128064136Y-100345589D01*
X128064136Y-99837871D01*
X128067323Y-99805511D01*
X128074971Y-99780297D01*
X128087390Y-99757065D01*
X128104104Y-99736698D01*
X128124469Y-99719985D01*
X128130110Y-99716970D01*
X128150485Y-99703356D01*
X128167812Y-99686028D01*
X128181426Y-99665654D01*
X128190803Y-99643015D01*
X128195583Y-99618981D01*
X128195583Y-99594477D01*
X128190802Y-99570443D01*
X128181425Y-99547805D01*
X128167811Y-99527430D01*
X128150483Y-99510103D01*
X128130110Y-99496490D01*
X128124469Y-99493475D01*
X128104104Y-99476762D01*
X128087390Y-99456395D01*
X128074971Y-99433163D01*
X128067323Y-99407949D01*
X128064136Y-99375589D01*
X128064136Y-98867871D01*
X128067323Y-98835511D01*
X128074971Y-98810297D01*
X128087390Y-98787065D01*
X128104104Y-98766698D01*
X128124471Y-98749984D01*
X128147703Y-98737565D01*
X128172917Y-98729917D01*
X128205277Y-98726730D01*
X128762995Y-98726730D01*
X128795355Y-98729917D01*
X128795355Y-98729917D01*
G37*
G36*
X114411219Y-98723187D02*
X114436433Y-98730835D01*
X114459665Y-98743254D01*
X114480032Y-98759968D01*
X114496746Y-98780335D01*
X114509165Y-98803567D01*
X114516813Y-98828781D01*
X114520000Y-98861141D01*
X114520000Y-99368859D01*
X114516813Y-99401219D01*
X114509165Y-99426433D01*
X114496746Y-99449665D01*
X114480032Y-99470032D01*
X114459667Y-99486745D01*
X114454026Y-99489760D01*
X114433651Y-99503374D01*
X114416324Y-99520702D01*
X114402710Y-99541076D01*
X114393333Y-99563715D01*
X114388553Y-99587749D01*
X114388553Y-99612253D01*
X114393334Y-99636287D01*
X114402711Y-99658925D01*
X114416325Y-99679300D01*
X114433653Y-99696627D01*
X114454026Y-99710240D01*
X114459667Y-99713255D01*
X114480032Y-99729968D01*
X114496746Y-99750335D01*
X114509165Y-99773567D01*
X114516813Y-99798781D01*
X114520000Y-99831141D01*
X114520000Y-100338859D01*
X114516813Y-100371219D01*
X114509165Y-100396433D01*
X114496746Y-100419665D01*
X114480032Y-100440032D01*
X114459665Y-100456746D01*
X114436433Y-100469165D01*
X114411219Y-100476813D01*
X114378859Y-100480000D01*
X113821141Y-100480000D01*
X113788781Y-100476813D01*
X113763567Y-100469165D01*
X113740335Y-100456746D01*
X113719968Y-100440032D01*
X113703254Y-100419665D01*
X113690835Y-100396433D01*
X113683187Y-100371219D01*
X113680000Y-100338859D01*
X113680000Y-99831141D01*
X113683187Y-99798781D01*
X113690835Y-99773567D01*
X113703254Y-99750335D01*
X113719968Y-99729968D01*
X113740333Y-99713255D01*
X113745974Y-99710240D01*
X113766349Y-99696626D01*
X113783676Y-99679298D01*
X113797290Y-99658924D01*
X113806667Y-99636285D01*
X113811447Y-99612251D01*
X113811447Y-99587747D01*
X113806666Y-99563713D01*
X113797289Y-99541075D01*
X113783675Y-99520700D01*
X113766347Y-99503373D01*
X113745974Y-99489760D01*
X113740333Y-99486745D01*
X113719968Y-99470032D01*
X113703254Y-99449665D01*
X113690835Y-99426433D01*
X113683187Y-99401219D01*
X113680000Y-99368859D01*
X113680000Y-98861141D01*
X113683187Y-98828781D01*
X113690835Y-98803567D01*
X113703254Y-98780335D01*
X113719968Y-98759968D01*
X113740335Y-98743254D01*
X113763567Y-98730835D01*
X113788781Y-98723187D01*
X113821141Y-98720000D01*
X114378859Y-98720000D01*
X114411219Y-98723187D01*
X114411219Y-98723187D01*
G37*
G36*
X113011219Y-98723187D02*
X113036433Y-98730835D01*
X113059665Y-98743254D01*
X113080032Y-98759968D01*
X113096746Y-98780335D01*
X113109165Y-98803567D01*
X113116813Y-98828781D01*
X113120000Y-98861141D01*
X113120000Y-99368859D01*
X113116813Y-99401219D01*
X113109165Y-99426433D01*
X113096746Y-99449665D01*
X113080032Y-99470032D01*
X113059667Y-99486745D01*
X113054026Y-99489760D01*
X113033651Y-99503374D01*
X113016324Y-99520702D01*
X113002710Y-99541076D01*
X112993333Y-99563715D01*
X112988553Y-99587749D01*
X112988553Y-99612253D01*
X112993334Y-99636287D01*
X113002711Y-99658925D01*
X113016325Y-99679300D01*
X113033653Y-99696627D01*
X113054026Y-99710240D01*
X113059667Y-99713255D01*
X113080032Y-99729968D01*
X113096746Y-99750335D01*
X113109165Y-99773567D01*
X113116813Y-99798781D01*
X113120000Y-99831141D01*
X113120000Y-100338859D01*
X113116813Y-100371219D01*
X113109165Y-100396433D01*
X113096746Y-100419665D01*
X113080032Y-100440032D01*
X113059665Y-100456746D01*
X113036433Y-100469165D01*
X113011219Y-100476813D01*
X112978859Y-100480000D01*
X112421141Y-100480000D01*
X112388781Y-100476813D01*
X112363567Y-100469165D01*
X112340335Y-100456746D01*
X112319968Y-100440032D01*
X112303254Y-100419665D01*
X112290835Y-100396433D01*
X112283187Y-100371219D01*
X112280000Y-100338859D01*
X112280000Y-99831141D01*
X112283187Y-99798781D01*
X112290835Y-99773567D01*
X112303254Y-99750335D01*
X112319968Y-99729968D01*
X112340333Y-99713255D01*
X112345974Y-99710240D01*
X112366349Y-99696626D01*
X112383676Y-99679298D01*
X112397290Y-99658924D01*
X112406667Y-99636285D01*
X112411447Y-99612251D01*
X112411447Y-99587747D01*
X112406666Y-99563713D01*
X112397289Y-99541075D01*
X112383675Y-99520700D01*
X112366347Y-99503373D01*
X112345974Y-99489760D01*
X112340333Y-99486745D01*
X112319968Y-99470032D01*
X112303254Y-99449665D01*
X112290835Y-99426433D01*
X112283187Y-99401219D01*
X112280000Y-99368859D01*
X112280000Y-98861141D01*
X112283187Y-98828781D01*
X112290835Y-98803567D01*
X112303254Y-98780335D01*
X112319968Y-98759968D01*
X112340335Y-98743254D01*
X112363567Y-98730835D01*
X112388781Y-98723187D01*
X112421141Y-98720000D01*
X112978859Y-98720000D01*
X113011219Y-98723187D01*
X113011219Y-98723187D01*
G37*
G36*
X174639452Y-98059127D02*
X174777105Y-98086508D01*
X174949994Y-98158121D01*
X175105590Y-98262087D01*
X175237913Y-98394410D01*
X175341879Y-98550006D01*
X175413492Y-98722895D01*
X175450000Y-98906433D01*
X175450000Y-99093567D01*
X175413492Y-99277105D01*
X175341879Y-99449994D01*
X175237913Y-99605590D01*
X175105590Y-99737913D01*
X174949994Y-99841879D01*
X174777105Y-99913492D01*
X174639451Y-99940873D01*
X174593568Y-99950000D01*
X174406432Y-99950000D01*
X174360549Y-99940873D01*
X174222895Y-99913492D01*
X174050006Y-99841879D01*
X173894410Y-99737913D01*
X173762087Y-99605590D01*
X173658121Y-99449994D01*
X173586508Y-99277105D01*
X173550000Y-99093567D01*
X173550000Y-98906433D01*
X173586508Y-98722895D01*
X173658121Y-98550006D01*
X173762087Y-98394410D01*
X173894410Y-98262087D01*
X174050006Y-98158121D01*
X174222895Y-98086508D01*
X174360549Y-98059127D01*
X174406432Y-98050000D01*
X174593568Y-98050000D01*
X174639452Y-98059127D01*
X174639452Y-98059127D01*
G37*
G36*
X177226232Y-98063746D02*
X177301268Y-98086508D01*
X177405309Y-98118068D01*
X177570347Y-98206283D01*
X177715001Y-98324999D01*
X177833717Y-98469653D01*
X177921932Y-98634691D01*
X177921932Y-98634692D01*
X177976254Y-98813768D01*
X177979788Y-98849650D01*
X177994596Y-99000000D01*
X177976254Y-99186231D01*
X177921932Y-99365309D01*
X177833717Y-99530347D01*
X177715001Y-99675001D01*
X177570347Y-99793717D01*
X177405309Y-99881932D01*
X177315770Y-99909093D01*
X177226232Y-99936254D01*
X177086666Y-99950000D01*
X176993334Y-99950000D01*
X176853768Y-99936254D01*
X176764230Y-99909093D01*
X176674691Y-99881932D01*
X176509653Y-99793717D01*
X176364999Y-99675001D01*
X176246283Y-99530347D01*
X176158068Y-99365309D01*
X176103746Y-99186231D01*
X176085404Y-99000000D01*
X176100212Y-98849650D01*
X176103746Y-98813768D01*
X176158068Y-98634692D01*
X176158068Y-98634691D01*
X176246283Y-98469653D01*
X176364999Y-98324999D01*
X176509653Y-98206283D01*
X176674691Y-98118068D01*
X176778732Y-98086508D01*
X176853768Y-98063746D01*
X176993334Y-98050000D01*
X177086666Y-98050000D01*
X177226232Y-98063746D01*
X177226232Y-98063746D01*
G37*
G36*
X104589910Y-94173503D02*
X104718145Y-94199010D01*
X104879205Y-94265723D01*
X105024155Y-94362576D01*
X105147424Y-94485845D01*
X105244277Y-94630795D01*
X105310990Y-94791855D01*
X105345000Y-94962835D01*
X105345000Y-95137165D01*
X105310990Y-95308145D01*
X105244277Y-95469205D01*
X105147424Y-95614155D01*
X105024155Y-95737424D01*
X104879205Y-95834277D01*
X104718145Y-95900990D01*
X104589910Y-95926498D01*
X104547166Y-95935000D01*
X104372834Y-95935000D01*
X104330090Y-95926498D01*
X104201855Y-95900990D01*
X104040795Y-95834277D01*
X103895845Y-95737424D01*
X103772576Y-95614155D01*
X103675723Y-95469205D01*
X103609010Y-95308145D01*
X103575000Y-95137165D01*
X103575000Y-94962835D01*
X103609010Y-94791855D01*
X103675723Y-94630795D01*
X103772576Y-94485845D01*
X103895845Y-94362576D01*
X104040795Y-94265723D01*
X104201855Y-94199010D01*
X104330090Y-94173503D01*
X104372834Y-94165000D01*
X104547166Y-94165000D01*
X104589910Y-94173503D01*
X104589910Y-94173503D01*
G37*
G36*
X171669910Y-91123503D02*
X171798145Y-91149010D01*
X171959205Y-91215723D01*
X172104155Y-91312576D01*
X172227424Y-91435845D01*
X172324277Y-91580795D01*
X172390990Y-91741855D01*
X172425000Y-91912835D01*
X172425000Y-92087165D01*
X172390990Y-92258145D01*
X172324277Y-92419205D01*
X172227424Y-92564155D01*
X172104155Y-92687424D01*
X171959205Y-92784277D01*
X171798145Y-92850990D01*
X171669910Y-92876498D01*
X171627166Y-92885000D01*
X171452834Y-92885000D01*
X171410090Y-92876498D01*
X171281855Y-92850990D01*
X171120795Y-92784277D01*
X170975845Y-92687424D01*
X170852576Y-92564155D01*
X170755723Y-92419205D01*
X170689010Y-92258145D01*
X170655000Y-92087165D01*
X170655000Y-91912835D01*
X170689010Y-91741855D01*
X170755723Y-91580795D01*
X170852576Y-91435845D01*
X170975845Y-91312576D01*
X171120795Y-91215723D01*
X171281855Y-91149010D01*
X171410090Y-91123503D01*
X171452834Y-91115000D01*
X171627166Y-91115000D01*
X171669910Y-91123503D01*
X171669910Y-91123503D01*
G37*
G36*
X99112547Y-86580701D02*
X99494722Y-86739003D01*
X99494723Y-86739004D01*
X99838672Y-86968823D01*
X100131177Y-87261328D01*
X100284390Y-87490627D01*
X100360997Y-87605278D01*
X100519299Y-87987453D01*
X100600000Y-88393167D01*
X100600000Y-88806833D01*
X100519299Y-89212547D01*
X100360997Y-89594722D01*
X100360996Y-89594723D01*
X100131177Y-89938672D01*
X99838672Y-90231177D01*
X99609373Y-90384390D01*
X99494722Y-90460997D01*
X99112547Y-90619299D01*
X98706833Y-90700000D01*
X98293167Y-90700000D01*
X97887453Y-90619299D01*
X97505278Y-90460997D01*
X97390627Y-90384390D01*
X97161328Y-90231177D01*
X96868823Y-89938672D01*
X96639004Y-89594723D01*
X96639003Y-89594722D01*
X96480701Y-89212547D01*
X96400000Y-88806833D01*
X96400000Y-88393167D01*
X96480701Y-87987453D01*
X96639003Y-87605278D01*
X96715610Y-87490627D01*
X96868823Y-87261328D01*
X97161328Y-86968823D01*
X97505277Y-86739004D01*
X97505278Y-86739003D01*
X97887453Y-86580701D01*
X98293167Y-86500000D01*
X98706833Y-86500000D01*
X99112547Y-86580701D01*
X99112547Y-86580701D01*
G37*
G36*
X178112547Y-86580701D02*
X178494722Y-86739003D01*
X178494723Y-86739004D01*
X178838672Y-86968823D01*
X179131177Y-87261328D01*
X179284390Y-87490627D01*
X179360997Y-87605278D01*
X179519299Y-87987453D01*
X179600000Y-88393167D01*
X179600000Y-88806833D01*
X179519299Y-89212547D01*
X179360997Y-89594722D01*
X179360996Y-89594723D01*
X179131177Y-89938672D01*
X178838672Y-90231177D01*
X178609373Y-90384390D01*
X178494722Y-90460997D01*
X178112547Y-90619299D01*
X177706833Y-90700000D01*
X177293167Y-90700000D01*
X176887453Y-90619299D01*
X176505278Y-90460997D01*
X176390627Y-90384390D01*
X176161328Y-90231177D01*
X175868823Y-89938672D01*
X175639004Y-89594723D01*
X175639003Y-89594722D01*
X175480701Y-89212547D01*
X175400000Y-88806833D01*
X175400000Y-88393167D01*
X175480701Y-87987453D01*
X175639003Y-87605278D01*
X175715610Y-87490627D01*
X175868823Y-87261328D01*
X176161328Y-86968823D01*
X176505277Y-86739004D01*
X176505278Y-86739003D01*
X176887453Y-86580701D01*
X177293167Y-86500000D01*
X177706833Y-86500000D01*
X178112547Y-86580701D01*
X178112547Y-86580701D01*
G37*
G36*
X117991219Y-81725187D02*
X118016433Y-81732835D01*
X118039665Y-81745254D01*
X118060032Y-81761968D01*
X118076746Y-81782335D01*
X118089165Y-81805567D01*
X118096813Y-81830781D01*
X118100000Y-81863141D01*
X118100000Y-82370859D01*
X118096813Y-82403219D01*
X118089165Y-82428433D01*
X118076746Y-82451665D01*
X118060032Y-82472032D01*
X118039667Y-82488745D01*
X118034026Y-82491760D01*
X118013651Y-82505374D01*
X117996324Y-82522702D01*
X117982710Y-82543076D01*
X117973333Y-82565715D01*
X117968553Y-82589749D01*
X117968553Y-82614253D01*
X117973334Y-82638287D01*
X117982711Y-82660925D01*
X117996325Y-82681300D01*
X118013653Y-82698627D01*
X118034026Y-82712240D01*
X118039667Y-82715255D01*
X118060032Y-82731968D01*
X118076746Y-82752335D01*
X118089165Y-82775567D01*
X118096813Y-82800781D01*
X118100000Y-82833141D01*
X118100000Y-83340859D01*
X118096813Y-83373219D01*
X118089165Y-83398433D01*
X118076746Y-83421665D01*
X118060032Y-83442032D01*
X118039665Y-83458746D01*
X118016433Y-83471165D01*
X117991219Y-83478813D01*
X117958859Y-83482000D01*
X117401141Y-83482000D01*
X117368781Y-83478813D01*
X117343567Y-83471165D01*
X117320335Y-83458746D01*
X117299968Y-83442032D01*
X117283254Y-83421665D01*
X117270835Y-83398433D01*
X117263187Y-83373219D01*
X117260000Y-83340859D01*
X117260000Y-82833141D01*
X117263187Y-82800781D01*
X117270835Y-82775567D01*
X117283254Y-82752335D01*
X117299968Y-82731968D01*
X117320333Y-82715255D01*
X117325974Y-82712240D01*
X117346349Y-82698626D01*
X117363676Y-82681298D01*
X117377290Y-82660924D01*
X117386667Y-82638285D01*
X117391447Y-82614251D01*
X117391447Y-82589747D01*
X117386666Y-82565713D01*
X117377289Y-82543075D01*
X117363675Y-82522700D01*
X117346347Y-82505373D01*
X117325974Y-82491760D01*
X117320333Y-82488745D01*
X117299968Y-82472032D01*
X117283254Y-82451665D01*
X117270835Y-82428433D01*
X117263187Y-82403219D01*
X117260000Y-82370859D01*
X117260000Y-81863141D01*
X117263187Y-81830781D01*
X117270835Y-81805567D01*
X117283254Y-81782335D01*
X117299968Y-81761968D01*
X117320335Y-81745254D01*
X117343567Y-81732835D01*
X117368781Y-81725187D01*
X117401141Y-81722000D01*
X117958859Y-81722000D01*
X117991219Y-81725187D01*
X117991219Y-81725187D01*
G37*
G36*
X116721219Y-81725187D02*
X116746433Y-81732835D01*
X116769665Y-81745254D01*
X116790032Y-81761968D01*
X116806746Y-81782335D01*
X116819165Y-81805567D01*
X116826813Y-81830781D01*
X116830000Y-81863141D01*
X116830000Y-82370859D01*
X116826813Y-82403219D01*
X116819165Y-82428433D01*
X116806746Y-82451665D01*
X116790032Y-82472032D01*
X116769667Y-82488745D01*
X116764026Y-82491760D01*
X116743651Y-82505374D01*
X116726324Y-82522702D01*
X116712710Y-82543076D01*
X116703333Y-82565715D01*
X116698553Y-82589749D01*
X116698553Y-82614253D01*
X116703334Y-82638287D01*
X116712711Y-82660925D01*
X116726325Y-82681300D01*
X116743653Y-82698627D01*
X116764026Y-82712240D01*
X116769667Y-82715255D01*
X116790032Y-82731968D01*
X116806746Y-82752335D01*
X116819165Y-82775567D01*
X116826813Y-82800781D01*
X116830000Y-82833141D01*
X116830000Y-83340859D01*
X116826813Y-83373219D01*
X116819165Y-83398433D01*
X116806746Y-83421665D01*
X116790032Y-83442032D01*
X116769665Y-83458746D01*
X116746433Y-83471165D01*
X116721219Y-83478813D01*
X116688859Y-83482000D01*
X116131141Y-83482000D01*
X116098781Y-83478813D01*
X116073567Y-83471165D01*
X116050335Y-83458746D01*
X116029968Y-83442032D01*
X116013254Y-83421665D01*
X116000835Y-83398433D01*
X115993187Y-83373219D01*
X115990000Y-83340859D01*
X115990000Y-82833141D01*
X115993187Y-82800781D01*
X116000835Y-82775567D01*
X116013254Y-82752335D01*
X116029968Y-82731968D01*
X116050333Y-82715255D01*
X116055974Y-82712240D01*
X116076349Y-82698626D01*
X116093676Y-82681298D01*
X116107290Y-82660924D01*
X116116667Y-82638285D01*
X116121447Y-82614251D01*
X116121447Y-82589747D01*
X116116666Y-82565713D01*
X116107289Y-82543075D01*
X116093675Y-82522700D01*
X116076347Y-82505373D01*
X116055974Y-82491760D01*
X116050333Y-82488745D01*
X116029968Y-82472032D01*
X116013254Y-82451665D01*
X116000835Y-82428433D01*
X115993187Y-82403219D01*
X115990000Y-82370859D01*
X115990000Y-81863141D01*
X115993187Y-81830781D01*
X116000835Y-81805567D01*
X116013254Y-81782335D01*
X116029968Y-81761968D01*
X116050335Y-81745254D01*
X116073567Y-81732835D01*
X116098781Y-81725187D01*
X116131141Y-81722000D01*
X116688859Y-81722000D01*
X116721219Y-81725187D01*
X116721219Y-81725187D01*
G37*
G36*
X114816219Y-81344187D02*
X114841433Y-81351835D01*
X114864665Y-81364254D01*
X114885032Y-81380968D01*
X114901746Y-81401335D01*
X114914165Y-81424567D01*
X114921813Y-81449781D01*
X114925000Y-81482141D01*
X114925000Y-81989859D01*
X114921813Y-82022219D01*
X114914165Y-82047433D01*
X114901746Y-82070665D01*
X114885032Y-82091032D01*
X114864667Y-82107745D01*
X114859026Y-82110760D01*
X114838651Y-82124374D01*
X114821324Y-82141702D01*
X114807710Y-82162076D01*
X114798333Y-82184715D01*
X114793553Y-82208749D01*
X114793553Y-82233253D01*
X114798334Y-82257287D01*
X114807711Y-82279925D01*
X114821325Y-82300300D01*
X114838653Y-82317627D01*
X114859026Y-82331240D01*
X114864667Y-82334255D01*
X114885032Y-82350968D01*
X114901746Y-82371335D01*
X114914165Y-82394567D01*
X114921813Y-82419781D01*
X114925000Y-82452141D01*
X114925000Y-82959859D01*
X114921813Y-82992219D01*
X114914165Y-83017433D01*
X114901746Y-83040665D01*
X114885032Y-83061032D01*
X114864665Y-83077746D01*
X114841433Y-83090165D01*
X114816219Y-83097813D01*
X114783859Y-83101000D01*
X114226141Y-83101000D01*
X114193781Y-83097813D01*
X114168567Y-83090165D01*
X114145335Y-83077746D01*
X114124968Y-83061032D01*
X114108254Y-83040665D01*
X114095835Y-83017433D01*
X114088187Y-82992219D01*
X114085000Y-82959859D01*
X114085000Y-82452141D01*
X114088187Y-82419781D01*
X114095835Y-82394567D01*
X114108254Y-82371335D01*
X114124968Y-82350968D01*
X114145333Y-82334255D01*
X114150974Y-82331240D01*
X114171349Y-82317626D01*
X114188676Y-82300298D01*
X114202290Y-82279924D01*
X114211667Y-82257285D01*
X114216447Y-82233251D01*
X114216447Y-82208747D01*
X114211666Y-82184713D01*
X114202289Y-82162075D01*
X114188675Y-82141700D01*
X114171347Y-82124373D01*
X114150974Y-82110760D01*
X114145333Y-82107745D01*
X114124968Y-82091032D01*
X114108254Y-82070665D01*
X114095835Y-82047433D01*
X114088187Y-82022219D01*
X114085000Y-81989859D01*
X114085000Y-81482141D01*
X114088187Y-81449781D01*
X114095835Y-81424567D01*
X114108254Y-81401335D01*
X114124968Y-81380968D01*
X114145335Y-81364254D01*
X114168567Y-81351835D01*
X114193781Y-81344187D01*
X114226141Y-81341000D01*
X114783859Y-81341000D01*
X114816219Y-81344187D01*
X114816219Y-81344187D01*
G37*
G36*
X159848015Y-80557234D02*
X159942268Y-80585825D01*
X159978786Y-80605345D01*
X160029129Y-80632254D01*
X160105264Y-80694736D01*
X160167744Y-80770868D01*
X160167745Y-80770870D01*
X160214175Y-80857732D01*
X160242766Y-80951985D01*
X160250602Y-81031548D01*
X160255382Y-81055581D01*
X160264760Y-81078220D01*
X160278374Y-81098595D01*
X160295701Y-81115922D01*
X160316075Y-81129536D01*
X160338714Y-81138913D01*
X160362748Y-81143694D01*
X160387252Y-81143694D01*
X160411285Y-81138914D01*
X160433924Y-81129536D01*
X160454299Y-81115922D01*
X160471626Y-81098595D01*
X160485240Y-81078221D01*
X160494617Y-81055582D01*
X160499398Y-81031548D01*
X160500000Y-81019296D01*
X160500000Y-80743641D01*
X160504196Y-80701040D01*
X160514832Y-80665977D01*
X160532102Y-80633668D01*
X160555345Y-80605345D01*
X160583668Y-80582102D01*
X160615977Y-80564832D01*
X160651040Y-80554196D01*
X160693641Y-80550000D01*
X161306359Y-80550000D01*
X161348960Y-80554196D01*
X161384023Y-80564832D01*
X161416332Y-80582102D01*
X161444655Y-80605345D01*
X161467898Y-80633668D01*
X161485168Y-80665977D01*
X161495804Y-80701040D01*
X161500000Y-80743641D01*
X161500000Y-81856359D01*
X161495804Y-81898960D01*
X161485168Y-81934023D01*
X161467898Y-81966332D01*
X161444655Y-81994655D01*
X161416332Y-82017898D01*
X161384023Y-82035168D01*
X161348960Y-82045804D01*
X161306359Y-82050000D01*
X160693641Y-82050000D01*
X160651040Y-82045804D01*
X160615977Y-82035168D01*
X160583668Y-82017898D01*
X160555345Y-81994655D01*
X160532102Y-81966332D01*
X160514832Y-81934023D01*
X160504196Y-81898960D01*
X160500000Y-81856359D01*
X160500000Y-81580704D01*
X160497598Y-81556318D01*
X160490485Y-81532869D01*
X160478934Y-81511258D01*
X160463388Y-81492316D01*
X160444446Y-81476770D01*
X160422835Y-81465219D01*
X160399386Y-81458106D01*
X160375000Y-81455704D01*
X160350614Y-81458106D01*
X160327165Y-81465219D01*
X160305554Y-81476770D01*
X160286612Y-81492316D01*
X160271066Y-81511258D01*
X160259515Y-81532869D01*
X160252402Y-81556318D01*
X160250602Y-81568452D01*
X160242766Y-81648015D01*
X160214175Y-81742268D01*
X160192758Y-81782335D01*
X160167748Y-81829126D01*
X160167745Y-81829130D01*
X160105267Y-81905261D01*
X160105265Y-81905262D01*
X160105264Y-81905264D01*
X160029129Y-81967746D01*
X159987758Y-81989859D01*
X159942267Y-82014175D01*
X159848014Y-82042766D01*
X159750000Y-82052419D01*
X159651985Y-82042766D01*
X159557732Y-82014175D01*
X159478886Y-81972030D01*
X159470871Y-81967746D01*
X159429142Y-81933500D01*
X159394739Y-81905267D01*
X159394738Y-81905265D01*
X159394736Y-81905264D01*
X159332254Y-81829129D01*
X159296356Y-81761968D01*
X159285825Y-81742267D01*
X159257234Y-81648014D01*
X159249398Y-81568452D01*
X159244618Y-81544419D01*
X159235240Y-81521780D01*
X159221626Y-81501405D01*
X159204299Y-81484078D01*
X159183925Y-81470464D01*
X159161286Y-81461086D01*
X159137252Y-81456306D01*
X159112748Y-81456306D01*
X159088715Y-81461086D01*
X159066076Y-81470464D01*
X159045701Y-81484078D01*
X159028374Y-81501405D01*
X159014760Y-81521779D01*
X159005382Y-81544418D01*
X159000602Y-81568452D01*
X158992766Y-81648015D01*
X158964175Y-81742268D01*
X158942758Y-81782335D01*
X158917748Y-81829126D01*
X158917745Y-81829130D01*
X158855267Y-81905261D01*
X158855265Y-81905262D01*
X158855264Y-81905264D01*
X158779129Y-81967746D01*
X158737758Y-81989859D01*
X158692267Y-82014175D01*
X158598014Y-82042766D01*
X158500000Y-82052419D01*
X158401985Y-82042766D01*
X158307732Y-82014175D01*
X158228886Y-81972030D01*
X158220871Y-81967746D01*
X158179142Y-81933500D01*
X158144739Y-81905267D01*
X158144738Y-81905265D01*
X158144736Y-81905264D01*
X158082254Y-81829129D01*
X158046356Y-81761968D01*
X158035825Y-81742267D01*
X158007234Y-81648014D01*
X157999398Y-81568452D01*
X157994618Y-81544419D01*
X157985240Y-81521780D01*
X157971626Y-81501405D01*
X157954299Y-81484078D01*
X157933925Y-81470464D01*
X157911286Y-81461086D01*
X157887252Y-81456306D01*
X157862748Y-81456306D01*
X157838715Y-81461086D01*
X157816076Y-81470464D01*
X157795701Y-81484078D01*
X157778374Y-81501405D01*
X157764760Y-81521779D01*
X157755382Y-81544418D01*
X157750602Y-81568452D01*
X157742766Y-81648015D01*
X157714175Y-81742268D01*
X157692758Y-81782335D01*
X157667748Y-81829126D01*
X157667745Y-81829130D01*
X157605267Y-81905261D01*
X157605265Y-81905262D01*
X157605264Y-81905264D01*
X157529129Y-81967746D01*
X157487758Y-81989859D01*
X157442267Y-82014175D01*
X157348014Y-82042766D01*
X157250000Y-82052419D01*
X157151985Y-82042766D01*
X157057732Y-82014175D01*
X156978886Y-81972030D01*
X156970871Y-81967746D01*
X156929142Y-81933500D01*
X156894739Y-81905267D01*
X156894738Y-81905265D01*
X156894736Y-81905264D01*
X156832254Y-81829129D01*
X156796356Y-81761968D01*
X156785825Y-81742267D01*
X156757234Y-81648014D01*
X156750000Y-81574563D01*
X156750000Y-81025436D01*
X156757234Y-80951985D01*
X156785824Y-80857735D01*
X156832257Y-80770868D01*
X156894737Y-80694736D01*
X156970871Y-80632255D01*
X156970870Y-80632255D01*
X156970872Y-80632254D01*
X157021215Y-80605345D01*
X157057733Y-80585825D01*
X157151986Y-80557234D01*
X157250000Y-80547581D01*
X157348015Y-80557234D01*
X157442268Y-80585825D01*
X157478786Y-80605345D01*
X157529129Y-80632254D01*
X157605264Y-80694736D01*
X157667744Y-80770868D01*
X157667745Y-80770870D01*
X157714175Y-80857732D01*
X157742766Y-80951985D01*
X157750602Y-81031548D01*
X157755382Y-81055581D01*
X157764760Y-81078220D01*
X157778374Y-81098595D01*
X157795701Y-81115922D01*
X157816075Y-81129536D01*
X157838714Y-81138913D01*
X157862748Y-81143694D01*
X157887252Y-81143694D01*
X157911285Y-81138914D01*
X157933924Y-81129536D01*
X157954299Y-81115922D01*
X157971626Y-81098595D01*
X157985240Y-81078221D01*
X157994617Y-81055582D01*
X157999398Y-81031548D01*
X158007234Y-80951985D01*
X158035824Y-80857735D01*
X158082257Y-80770868D01*
X158144737Y-80694736D01*
X158220871Y-80632255D01*
X158220870Y-80632255D01*
X158220872Y-80632254D01*
X158271215Y-80605345D01*
X158307733Y-80585825D01*
X158401986Y-80557234D01*
X158500000Y-80547581D01*
X158598015Y-80557234D01*
X158692268Y-80585825D01*
X158728786Y-80605345D01*
X158779129Y-80632254D01*
X158855264Y-80694736D01*
X158917744Y-80770868D01*
X158917745Y-80770870D01*
X158964175Y-80857732D01*
X158992766Y-80951985D01*
X159000602Y-81031548D01*
X159005382Y-81055581D01*
X159014760Y-81078220D01*
X159028374Y-81098595D01*
X159045701Y-81115922D01*
X159066075Y-81129536D01*
X159088714Y-81138913D01*
X159112748Y-81143694D01*
X159137252Y-81143694D01*
X159161285Y-81138914D01*
X159183924Y-81129536D01*
X159204299Y-81115922D01*
X159221626Y-81098595D01*
X159235240Y-81078221D01*
X159244617Y-81055582D01*
X159249398Y-81031548D01*
X159257234Y-80951985D01*
X159285824Y-80857735D01*
X159332257Y-80770868D01*
X159394737Y-80694736D01*
X159470871Y-80632255D01*
X159470870Y-80632255D01*
X159470872Y-80632254D01*
X159521215Y-80605345D01*
X159557733Y-80585825D01*
X159651986Y-80557234D01*
X159750000Y-80547581D01*
X159848015Y-80557234D01*
X159848015Y-80557234D01*
G37*
G36*
X105852000Y-78472000D02*
X105002000Y-78472000D01*
X105002000Y-76572000D01*
X105852000Y-76572000D01*
X105852000Y-78472000D01*
X105852000Y-78472000D01*
G37*
G36*
X113599000Y-78472000D02*
X112749000Y-78472000D01*
X112749000Y-76572000D01*
X113599000Y-76572000D01*
X113599000Y-78472000D01*
X113599000Y-78472000D01*
G37*
G36*
X107752000Y-78472000D02*
X106902000Y-78472000D01*
X106902000Y-76572000D01*
X107752000Y-76572000D01*
X107752000Y-78472000D01*
X107752000Y-78472000D01*
G37*
G36*
X115499000Y-78472000D02*
X114649000Y-78472000D01*
X114649000Y-76572000D01*
X115499000Y-76572000D01*
X115499000Y-78472000D01*
X115499000Y-78472000D01*
G37*
G36*
X110752219Y-76137187D02*
X110777433Y-76144835D01*
X110800665Y-76157254D01*
X110821032Y-76173968D01*
X110837746Y-76194335D01*
X110850165Y-76217567D01*
X110857813Y-76242781D01*
X110861000Y-76275141D01*
X110861000Y-76782859D01*
X110857813Y-76815219D01*
X110850165Y-76840433D01*
X110837746Y-76863665D01*
X110821032Y-76884032D01*
X110800667Y-76900745D01*
X110795026Y-76903760D01*
X110774651Y-76917374D01*
X110757324Y-76934702D01*
X110743710Y-76955076D01*
X110734333Y-76977715D01*
X110729553Y-77001749D01*
X110729553Y-77026253D01*
X110734334Y-77050287D01*
X110743711Y-77072925D01*
X110757325Y-77093300D01*
X110774653Y-77110627D01*
X110795026Y-77124240D01*
X110800667Y-77127255D01*
X110821032Y-77143968D01*
X110837746Y-77164335D01*
X110850165Y-77187567D01*
X110857813Y-77212781D01*
X110861000Y-77245141D01*
X110861000Y-77752859D01*
X110857813Y-77785219D01*
X110850165Y-77810433D01*
X110837746Y-77833665D01*
X110821032Y-77854032D01*
X110800665Y-77870746D01*
X110777433Y-77883165D01*
X110752219Y-77890813D01*
X110719859Y-77894000D01*
X110162141Y-77894000D01*
X110129781Y-77890813D01*
X110104567Y-77883165D01*
X110081335Y-77870746D01*
X110060968Y-77854032D01*
X110044254Y-77833665D01*
X110031835Y-77810433D01*
X110024187Y-77785219D01*
X110021000Y-77752859D01*
X110021000Y-77245141D01*
X110024187Y-77212781D01*
X110031835Y-77187567D01*
X110044254Y-77164335D01*
X110060968Y-77143968D01*
X110081333Y-77127255D01*
X110086974Y-77124240D01*
X110107349Y-77110626D01*
X110124676Y-77093298D01*
X110138290Y-77072924D01*
X110147667Y-77050285D01*
X110152447Y-77026251D01*
X110152447Y-77001747D01*
X110147666Y-76977713D01*
X110138289Y-76955075D01*
X110124675Y-76934700D01*
X110107347Y-76917373D01*
X110086974Y-76903760D01*
X110081333Y-76900745D01*
X110060968Y-76884032D01*
X110044254Y-76863665D01*
X110031835Y-76840433D01*
X110024187Y-76815219D01*
X110021000Y-76782859D01*
X110021000Y-76275141D01*
X110024187Y-76242781D01*
X110031835Y-76217567D01*
X110044254Y-76194335D01*
X110060968Y-76173968D01*
X110081335Y-76157254D01*
X110104567Y-76144835D01*
X110129781Y-76137187D01*
X110162141Y-76134000D01*
X110719859Y-76134000D01*
X110752219Y-76137187D01*
X110752219Y-76137187D01*
G37*
G36*
X96104183Y-74826900D02*
X96231574Y-74879668D01*
X96346225Y-74956275D01*
X96443725Y-75053775D01*
X96520332Y-75168426D01*
X96573100Y-75295817D01*
X96600000Y-75431055D01*
X96600000Y-75568945D01*
X96573100Y-75704183D01*
X96520332Y-75831574D01*
X96443725Y-75946225D01*
X96346225Y-76043725D01*
X96231574Y-76120332D01*
X96104183Y-76173100D01*
X95968945Y-76200000D01*
X95831055Y-76200000D01*
X95695817Y-76173100D01*
X95568426Y-76120332D01*
X95453775Y-76043725D01*
X95356275Y-75946225D01*
X95279668Y-75831574D01*
X95226900Y-75704183D01*
X95200000Y-75568945D01*
X95200000Y-75431055D01*
X95226900Y-75295817D01*
X95279668Y-75168426D01*
X95356275Y-75053775D01*
X95453775Y-74956275D01*
X95568426Y-74879668D01*
X95695817Y-74826900D01*
X95831055Y-74800000D01*
X95968945Y-74800000D01*
X96104183Y-74826900D01*
X96104183Y-74826900D01*
G37*
G36*
X111658286Y-74044563D02*
X111741554Y-74061126D01*
X111898428Y-74126105D01*
X112038660Y-74219805D01*
X112039614Y-74220443D01*
X112159675Y-74340504D01*
X112159677Y-74340507D01*
X112254013Y-74481690D01*
X112318992Y-74638564D01*
X112352118Y-74805100D01*
X112352118Y-74974900D01*
X112318992Y-75141436D01*
X112254013Y-75298310D01*
X112165315Y-75431055D01*
X112159675Y-75439496D01*
X112039614Y-75559557D01*
X112039611Y-75559559D01*
X111898428Y-75653895D01*
X111741554Y-75718874D01*
X111658286Y-75735437D01*
X111575019Y-75752000D01*
X111405217Y-75752000D01*
X111321950Y-75735437D01*
X111238682Y-75718874D01*
X111081808Y-75653895D01*
X110940625Y-75559559D01*
X110940622Y-75559557D01*
X110820561Y-75439496D01*
X110814921Y-75431055D01*
X110726223Y-75298310D01*
X110661244Y-75141436D01*
X110628118Y-74974900D01*
X110628118Y-74805100D01*
X110661244Y-74638564D01*
X110726223Y-74481690D01*
X110820559Y-74340507D01*
X110820561Y-74340504D01*
X110940622Y-74220443D01*
X110941576Y-74219805D01*
X111081808Y-74126105D01*
X111238682Y-74061126D01*
X111321950Y-74044563D01*
X111405217Y-74028000D01*
X111575019Y-74028000D01*
X111658286Y-74044563D01*
X111658286Y-74044563D01*
G37*
G36*
X106578286Y-74044563D02*
X106661554Y-74061126D01*
X106818428Y-74126105D01*
X106958660Y-74219805D01*
X106959614Y-74220443D01*
X107079675Y-74340504D01*
X107079677Y-74340507D01*
X107174013Y-74481690D01*
X107238992Y-74638564D01*
X107272118Y-74805100D01*
X107272118Y-74974900D01*
X107238992Y-75141436D01*
X107174013Y-75298310D01*
X107085315Y-75431055D01*
X107079675Y-75439496D01*
X106959614Y-75559557D01*
X106959611Y-75559559D01*
X106818428Y-75653895D01*
X106661554Y-75718874D01*
X106578286Y-75735437D01*
X106495019Y-75752000D01*
X106325217Y-75752000D01*
X106241950Y-75735437D01*
X106158682Y-75718874D01*
X106001808Y-75653895D01*
X105860625Y-75559559D01*
X105860622Y-75559557D01*
X105740561Y-75439496D01*
X105734921Y-75431055D01*
X105646223Y-75298310D01*
X105581244Y-75141436D01*
X105548118Y-74974900D01*
X105548118Y-74805100D01*
X105581244Y-74638564D01*
X105646223Y-74481690D01*
X105740559Y-74340507D01*
X105740561Y-74340504D01*
X105860622Y-74220443D01*
X105861576Y-74219805D01*
X106001808Y-74126105D01*
X106158682Y-74061126D01*
X106241950Y-74044563D01*
X106325217Y-74028000D01*
X106495019Y-74028000D01*
X106578286Y-74044563D01*
X106578286Y-74044563D01*
G37*
G36*
X109118286Y-74044563D02*
X109201554Y-74061126D01*
X109358428Y-74126105D01*
X109498660Y-74219805D01*
X109499614Y-74220443D01*
X109619675Y-74340504D01*
X109619677Y-74340507D01*
X109714013Y-74481690D01*
X109778992Y-74638564D01*
X109812118Y-74805100D01*
X109812118Y-74974900D01*
X109778992Y-75141436D01*
X109714013Y-75298310D01*
X109625315Y-75431055D01*
X109619675Y-75439496D01*
X109499614Y-75559557D01*
X109499611Y-75559559D01*
X109358428Y-75653895D01*
X109201554Y-75718874D01*
X109118286Y-75735437D01*
X109035019Y-75752000D01*
X108865217Y-75752000D01*
X108781950Y-75735437D01*
X108698682Y-75718874D01*
X108541808Y-75653895D01*
X108400625Y-75559559D01*
X108400622Y-75559557D01*
X108280561Y-75439496D01*
X108274921Y-75431055D01*
X108186223Y-75298310D01*
X108121244Y-75141436D01*
X108088118Y-74974900D01*
X108088118Y-74805100D01*
X108121244Y-74638564D01*
X108186223Y-74481690D01*
X108280559Y-74340507D01*
X108280561Y-74340504D01*
X108400622Y-74220443D01*
X108401576Y-74219805D01*
X108541808Y-74126105D01*
X108698682Y-74061126D01*
X108781950Y-74044563D01*
X108865217Y-74028000D01*
X109035019Y-74028000D01*
X109118286Y-74044563D01*
X109118286Y-74044563D01*
G37*
G36*
X114198286Y-74044563D02*
X114281554Y-74061126D01*
X114438428Y-74126105D01*
X114578660Y-74219805D01*
X114579614Y-74220443D01*
X114699675Y-74340504D01*
X114699677Y-74340507D01*
X114794013Y-74481690D01*
X114858992Y-74638564D01*
X114892118Y-74805100D01*
X114892118Y-74974900D01*
X114858992Y-75141436D01*
X114794013Y-75298310D01*
X114705315Y-75431055D01*
X114699675Y-75439496D01*
X114579614Y-75559557D01*
X114579611Y-75559559D01*
X114438428Y-75653895D01*
X114281554Y-75718874D01*
X114198286Y-75735437D01*
X114115019Y-75752000D01*
X113945217Y-75752000D01*
X113861950Y-75735437D01*
X113778682Y-75718874D01*
X113621808Y-75653895D01*
X113480625Y-75559559D01*
X113480622Y-75559557D01*
X113360561Y-75439496D01*
X113354921Y-75431055D01*
X113266223Y-75298310D01*
X113201244Y-75141436D01*
X113168118Y-74974900D01*
X113168118Y-74805100D01*
X113201244Y-74638564D01*
X113266223Y-74481690D01*
X113360559Y-74340507D01*
X113360561Y-74340504D01*
X113480622Y-74220443D01*
X113481576Y-74219805D01*
X113621808Y-74126105D01*
X113778682Y-74061126D01*
X113861950Y-74044563D01*
X113945217Y-74028000D01*
X114115019Y-74028000D01*
X114198286Y-74044563D01*
X114198286Y-74044563D01*
G37*
G36*
X116738286Y-74044563D02*
X116821554Y-74061126D01*
X116978428Y-74126105D01*
X117118660Y-74219805D01*
X117119614Y-74220443D01*
X117239675Y-74340504D01*
X117239677Y-74340507D01*
X117334013Y-74481690D01*
X117398992Y-74638564D01*
X117432118Y-74805100D01*
X117432118Y-74974900D01*
X117398992Y-75141436D01*
X117334013Y-75298310D01*
X117245315Y-75431055D01*
X117239675Y-75439496D01*
X117119614Y-75559557D01*
X117119611Y-75559559D01*
X116978428Y-75653895D01*
X116821554Y-75718874D01*
X116738286Y-75735437D01*
X116655019Y-75752000D01*
X116485217Y-75752000D01*
X116401950Y-75735437D01*
X116318682Y-75718874D01*
X116161808Y-75653895D01*
X116020625Y-75559559D01*
X116020622Y-75559557D01*
X115900561Y-75439496D01*
X115894921Y-75431055D01*
X115806223Y-75298310D01*
X115741244Y-75141436D01*
X115708118Y-74974900D01*
X115708118Y-74805100D01*
X115741244Y-74638564D01*
X115806223Y-74481690D01*
X115900559Y-74340507D01*
X115900561Y-74340504D01*
X116020622Y-74220443D01*
X116021576Y-74219805D01*
X116161808Y-74126105D01*
X116318682Y-74061126D01*
X116401950Y-74044563D01*
X116485217Y-74028000D01*
X116655019Y-74028000D01*
X116738286Y-74044563D01*
X116738286Y-74044563D01*
G37*
G36*
X102370219Y-72327187D02*
X102395433Y-72334835D01*
X102418665Y-72347254D01*
X102439032Y-72363968D01*
X102455746Y-72384335D01*
X102468165Y-72407567D01*
X102475813Y-72432781D01*
X102479000Y-72465141D01*
X102479000Y-72972859D01*
X102475813Y-73005219D01*
X102468165Y-73030433D01*
X102455746Y-73053665D01*
X102439032Y-73074032D01*
X102418667Y-73090745D01*
X102413026Y-73093760D01*
X102392651Y-73107374D01*
X102375324Y-73124702D01*
X102361710Y-73145076D01*
X102352333Y-73167715D01*
X102347553Y-73191749D01*
X102347553Y-73216253D01*
X102352334Y-73240287D01*
X102361711Y-73262925D01*
X102375325Y-73283300D01*
X102392653Y-73300627D01*
X102413026Y-73314240D01*
X102418667Y-73317255D01*
X102439032Y-73333968D01*
X102455746Y-73354335D01*
X102468165Y-73377567D01*
X102475813Y-73402781D01*
X102479000Y-73435141D01*
X102479000Y-73942859D01*
X102475813Y-73975219D01*
X102468165Y-74000433D01*
X102455746Y-74023665D01*
X102439032Y-74044032D01*
X102418665Y-74060746D01*
X102395433Y-74073165D01*
X102370219Y-74080813D01*
X102337859Y-74084000D01*
X101780141Y-74084000D01*
X101747781Y-74080813D01*
X101722567Y-74073165D01*
X101699335Y-74060746D01*
X101678968Y-74044032D01*
X101662254Y-74023665D01*
X101649835Y-74000433D01*
X101642187Y-73975219D01*
X101639000Y-73942859D01*
X101639000Y-73435141D01*
X101642187Y-73402781D01*
X101649835Y-73377567D01*
X101662254Y-73354335D01*
X101678968Y-73333968D01*
X101699333Y-73317255D01*
X101704974Y-73314240D01*
X101725349Y-73300626D01*
X101742676Y-73283298D01*
X101756290Y-73262924D01*
X101765667Y-73240285D01*
X101770447Y-73216251D01*
X101770447Y-73191747D01*
X101765666Y-73167713D01*
X101756289Y-73145075D01*
X101742675Y-73124700D01*
X101725347Y-73107373D01*
X101704974Y-73093760D01*
X101699333Y-73090745D01*
X101678968Y-73074032D01*
X101662254Y-73053665D01*
X101649835Y-73030433D01*
X101642187Y-73005219D01*
X101639000Y-72972859D01*
X101639000Y-72465141D01*
X101642187Y-72432781D01*
X101649835Y-72407567D01*
X101662254Y-72384335D01*
X101678968Y-72363968D01*
X101699335Y-72347254D01*
X101722567Y-72334835D01*
X101747781Y-72327187D01*
X101780141Y-72324000D01*
X102337859Y-72324000D01*
X102370219Y-72327187D01*
X102370219Y-72327187D01*
G37*
G36*
X129964000Y-74006000D02*
X128764000Y-74006000D01*
X128764000Y-73506000D01*
X129964000Y-73506000D01*
X129964000Y-74006000D01*
X129964000Y-74006000D01*
G37*
G36*
X126916000Y-74006000D02*
X125716000Y-74006000D01*
X125716000Y-73506000D01*
X126916000Y-73506000D01*
X126916000Y-74006000D01*
X126916000Y-74006000D01*
G37*
G36*
X132885000Y-74006000D02*
X131685000Y-74006000D01*
X131685000Y-73506000D01*
X132885000Y-73506000D01*
X132885000Y-74006000D01*
X132885000Y-74006000D01*
G37*
G36*
X105264317Y-71495817D02*
X105391554Y-71521126D01*
X105548428Y-71586105D01*
X105688660Y-71679805D01*
X105689614Y-71680443D01*
X105809675Y-71800504D01*
X105809677Y-71800507D01*
X105904013Y-71941690D01*
X105904013Y-71941691D01*
X105968992Y-72098565D01*
X106002118Y-72265099D01*
X106002118Y-72434901D01*
X105985555Y-72518168D01*
X105968992Y-72601436D01*
X105904013Y-72758310D01*
X105838868Y-72855806D01*
X105809675Y-72899496D01*
X105689614Y-73019557D01*
X105689611Y-73019559D01*
X105548428Y-73113895D01*
X105391554Y-73178874D01*
X105326837Y-73191747D01*
X105225019Y-73212000D01*
X105055217Y-73212000D01*
X104953399Y-73191747D01*
X104888682Y-73178874D01*
X104731808Y-73113895D01*
X104590625Y-73019559D01*
X104590622Y-73019557D01*
X104470561Y-72899496D01*
X104441368Y-72855806D01*
X104376223Y-72758310D01*
X104311244Y-72601436D01*
X104294681Y-72518168D01*
X104278118Y-72434901D01*
X104278118Y-72265099D01*
X104311244Y-72098565D01*
X104376223Y-71941691D01*
X104376223Y-71941690D01*
X104470559Y-71800507D01*
X104470561Y-71800504D01*
X104590622Y-71680443D01*
X104591576Y-71679805D01*
X104731808Y-71586105D01*
X104888682Y-71521126D01*
X105015919Y-71495817D01*
X105055217Y-71488000D01*
X105225019Y-71488000D01*
X105264317Y-71495817D01*
X105264317Y-71495817D01*
G37*
G36*
X115424317Y-71495817D02*
X115551554Y-71521126D01*
X115708428Y-71586105D01*
X115848660Y-71679805D01*
X115849614Y-71680443D01*
X115969675Y-71800504D01*
X115969677Y-71800507D01*
X116064013Y-71941690D01*
X116064013Y-71941691D01*
X116128992Y-72098565D01*
X116162118Y-72265099D01*
X116162118Y-72434901D01*
X116145555Y-72518168D01*
X116128992Y-72601436D01*
X116064013Y-72758310D01*
X115998868Y-72855806D01*
X115969675Y-72899496D01*
X115849614Y-73019557D01*
X115849611Y-73019559D01*
X115708428Y-73113895D01*
X115551554Y-73178874D01*
X115486837Y-73191747D01*
X115385019Y-73212000D01*
X115215217Y-73212000D01*
X115113399Y-73191747D01*
X115048682Y-73178874D01*
X114891808Y-73113895D01*
X114750625Y-73019559D01*
X114750622Y-73019557D01*
X114630561Y-72899496D01*
X114601368Y-72855806D01*
X114536223Y-72758310D01*
X114471244Y-72601436D01*
X114454681Y-72518168D01*
X114438118Y-72434901D01*
X114438118Y-72265099D01*
X114471244Y-72098565D01*
X114536223Y-71941691D01*
X114536223Y-71941690D01*
X114630559Y-71800507D01*
X114630561Y-71800504D01*
X114750622Y-71680443D01*
X114751576Y-71679805D01*
X114891808Y-71586105D01*
X115048682Y-71521126D01*
X115175919Y-71495817D01*
X115215217Y-71488000D01*
X115385019Y-71488000D01*
X115424317Y-71495817D01*
X115424317Y-71495817D01*
G37*
G36*
X112884317Y-71495817D02*
X113011554Y-71521126D01*
X113168428Y-71586105D01*
X113308660Y-71679805D01*
X113309614Y-71680443D01*
X113429675Y-71800504D01*
X113429677Y-71800507D01*
X113524013Y-71941690D01*
X113524013Y-71941691D01*
X113588992Y-72098565D01*
X113622118Y-72265099D01*
X113622118Y-72434901D01*
X113605555Y-72518168D01*
X113588992Y-72601436D01*
X113524013Y-72758310D01*
X113458868Y-72855806D01*
X113429675Y-72899496D01*
X113309614Y-73019557D01*
X113309611Y-73019559D01*
X113168428Y-73113895D01*
X113011554Y-73178874D01*
X112946837Y-73191747D01*
X112845019Y-73212000D01*
X112675217Y-73212000D01*
X112573399Y-73191747D01*
X112508682Y-73178874D01*
X112351808Y-73113895D01*
X112210625Y-73019559D01*
X112210622Y-73019557D01*
X112090561Y-72899496D01*
X112061368Y-72855806D01*
X111996223Y-72758310D01*
X111931244Y-72601436D01*
X111914681Y-72518168D01*
X111898118Y-72434901D01*
X111898118Y-72265099D01*
X111931244Y-72098565D01*
X111996223Y-71941691D01*
X111996223Y-71941690D01*
X112090559Y-71800507D01*
X112090561Y-71800504D01*
X112210622Y-71680443D01*
X112211576Y-71679805D01*
X112351808Y-71586105D01*
X112508682Y-71521126D01*
X112635919Y-71495817D01*
X112675217Y-71488000D01*
X112845019Y-71488000D01*
X112884317Y-71495817D01*
X112884317Y-71495817D01*
G37*
G36*
X110344317Y-71495817D02*
X110471554Y-71521126D01*
X110628428Y-71586105D01*
X110768660Y-71679805D01*
X110769614Y-71680443D01*
X110889675Y-71800504D01*
X110889677Y-71800507D01*
X110984013Y-71941690D01*
X110984013Y-71941691D01*
X111048992Y-72098565D01*
X111082118Y-72265099D01*
X111082118Y-72434901D01*
X111065555Y-72518168D01*
X111048992Y-72601436D01*
X110984013Y-72758310D01*
X110918868Y-72855806D01*
X110889675Y-72899496D01*
X110769614Y-73019557D01*
X110769611Y-73019559D01*
X110628428Y-73113895D01*
X110471554Y-73178874D01*
X110406837Y-73191747D01*
X110305019Y-73212000D01*
X110135217Y-73212000D01*
X110033399Y-73191747D01*
X109968682Y-73178874D01*
X109811808Y-73113895D01*
X109670625Y-73019559D01*
X109670622Y-73019557D01*
X109550561Y-72899496D01*
X109521368Y-72855806D01*
X109456223Y-72758310D01*
X109391244Y-72601436D01*
X109374681Y-72518168D01*
X109358118Y-72434901D01*
X109358118Y-72265099D01*
X109391244Y-72098565D01*
X109456223Y-71941691D01*
X109456223Y-71941690D01*
X109550559Y-71800507D01*
X109550561Y-71800504D01*
X109670622Y-71680443D01*
X109671576Y-71679805D01*
X109811808Y-71586105D01*
X109968682Y-71521126D01*
X110095919Y-71495817D01*
X110135217Y-71488000D01*
X110305019Y-71488000D01*
X110344317Y-71495817D01*
X110344317Y-71495817D01*
G37*
G36*
X107804317Y-71495817D02*
X107931554Y-71521126D01*
X108088428Y-71586105D01*
X108228660Y-71679805D01*
X108229614Y-71680443D01*
X108349675Y-71800504D01*
X108349677Y-71800507D01*
X108444013Y-71941690D01*
X108444013Y-71941691D01*
X108508992Y-72098565D01*
X108542118Y-72265099D01*
X108542118Y-72434901D01*
X108525555Y-72518168D01*
X108508992Y-72601436D01*
X108444013Y-72758310D01*
X108378868Y-72855806D01*
X108349675Y-72899496D01*
X108229614Y-73019557D01*
X108229611Y-73019559D01*
X108088428Y-73113895D01*
X107931554Y-73178874D01*
X107866837Y-73191747D01*
X107765019Y-73212000D01*
X107595217Y-73212000D01*
X107493399Y-73191747D01*
X107428682Y-73178874D01*
X107271808Y-73113895D01*
X107130625Y-73019559D01*
X107130622Y-73019557D01*
X107010561Y-72899496D01*
X106981368Y-72855806D01*
X106916223Y-72758310D01*
X106851244Y-72601436D01*
X106834681Y-72518168D01*
X106818118Y-72434901D01*
X106818118Y-72265099D01*
X106851244Y-72098565D01*
X106916223Y-71941691D01*
X106916223Y-71941690D01*
X107010559Y-71800507D01*
X107010561Y-71800504D01*
X107130622Y-71680443D01*
X107131576Y-71679805D01*
X107271808Y-71586105D01*
X107428682Y-71521126D01*
X107555919Y-71495817D01*
X107595217Y-71488000D01*
X107765019Y-71488000D01*
X107804317Y-71495817D01*
X107804317Y-71495817D01*
G37*
G36*
X129614000Y-73156000D02*
X129114000Y-73156000D01*
X129114000Y-72656000D01*
X129614000Y-72656000D01*
X129614000Y-73156000D01*
X129614000Y-73156000D01*
G37*
G36*
X126566000Y-73156000D02*
X126066000Y-73156000D01*
X126066000Y-72656000D01*
X126566000Y-72656000D01*
X126566000Y-73156000D01*
X126566000Y-73156000D01*
G37*
G36*
X132535000Y-73156000D02*
X132035000Y-73156000D01*
X132035000Y-72656000D01*
X132535000Y-72656000D01*
X132535000Y-73156000D01*
X132535000Y-73156000D01*
G37*
G36*
X99825443Y-70644194D02*
X100034728Y-70730883D01*
X100223085Y-70856739D01*
X100383261Y-71016915D01*
X100509117Y-71205272D01*
X100595806Y-71414557D01*
X100640000Y-71636734D01*
X100640000Y-71863266D01*
X100595806Y-72085443D01*
X100509117Y-72294728D01*
X100383261Y-72483085D01*
X100223085Y-72643261D01*
X100034728Y-72769117D01*
X99825443Y-72855806D01*
X99603266Y-72900000D01*
X99376734Y-72900000D01*
X99154557Y-72855806D01*
X98945272Y-72769117D01*
X98756915Y-72643261D01*
X98596739Y-72483085D01*
X98470883Y-72294728D01*
X98384194Y-72085443D01*
X98340000Y-71863266D01*
X98340000Y-71636734D01*
X98384194Y-71414557D01*
X98470883Y-71205272D01*
X98596739Y-71016915D01*
X98756915Y-70856739D01*
X98945272Y-70730883D01*
X99154557Y-70644194D01*
X99376734Y-70600000D01*
X99603266Y-70600000D01*
X99825443Y-70644194D01*
X99825443Y-70644194D01*
G37*
G36*
X180304183Y-71026900D02*
X180431574Y-71079668D01*
X180468475Y-71104324D01*
X180546225Y-71156275D01*
X180643725Y-71253775D01*
X180720332Y-71368426D01*
X180773100Y-71495817D01*
X180800000Y-71631055D01*
X180800000Y-71768945D01*
X180773100Y-71904183D01*
X180720332Y-72031574D01*
X180643726Y-72146224D01*
X180546224Y-72243726D01*
X180514235Y-72265100D01*
X180431574Y-72320332D01*
X180304183Y-72373100D01*
X180168945Y-72400000D01*
X180031055Y-72400000D01*
X179895817Y-72373100D01*
X179768426Y-72320332D01*
X179685765Y-72265100D01*
X179653776Y-72243726D01*
X179556274Y-72146224D01*
X179479668Y-72031574D01*
X179426900Y-71904183D01*
X179400000Y-71768945D01*
X179400000Y-71631055D01*
X179426900Y-71495817D01*
X179479668Y-71368426D01*
X179556275Y-71253775D01*
X179653775Y-71156275D01*
X179731526Y-71104324D01*
X179768426Y-71079668D01*
X179895817Y-71026900D01*
X180031055Y-71000000D01*
X180168945Y-71000000D01*
X180304183Y-71026900D01*
X180304183Y-71026900D01*
G37*
G36*
X133463458Y-70566653D02*
X133505318Y-70574979D01*
X133539965Y-70589330D01*
X133623610Y-70623977D01*
X133730074Y-70695114D01*
X133820606Y-70785646D01*
X133891743Y-70892110D01*
X133920623Y-70961834D01*
X133940741Y-71010402D01*
X133942037Y-71016918D01*
X133965720Y-71135979D01*
X133965720Y-71264021D01*
X133940741Y-71389597D01*
X133891743Y-71507890D01*
X133820606Y-71614354D01*
X133730074Y-71704886D01*
X133623610Y-71776023D01*
X133539965Y-71810670D01*
X133505318Y-71825021D01*
X133463458Y-71833347D01*
X133379741Y-71850000D01*
X133251699Y-71850000D01*
X133167982Y-71833347D01*
X133126122Y-71825021D01*
X133091475Y-71810670D01*
X133007830Y-71776023D01*
X132901366Y-71704886D01*
X132810834Y-71614354D01*
X132739697Y-71507890D01*
X132690699Y-71389597D01*
X132665720Y-71264021D01*
X132665720Y-71135979D01*
X132689403Y-71016918D01*
X132690699Y-71010402D01*
X132710817Y-70961834D01*
X132739697Y-70892110D01*
X132810834Y-70785646D01*
X132901366Y-70695114D01*
X133007830Y-70623977D01*
X133091475Y-70589330D01*
X133126122Y-70574979D01*
X133167982Y-70566653D01*
X133251699Y-70550000D01*
X133379741Y-70550000D01*
X133463458Y-70566653D01*
X133463458Y-70566653D01*
G37*
G36*
X131463458Y-70566653D02*
X131505318Y-70574979D01*
X131539965Y-70589330D01*
X131623610Y-70623977D01*
X131730074Y-70695114D01*
X131820606Y-70785646D01*
X131891743Y-70892110D01*
X131920623Y-70961834D01*
X131940741Y-71010402D01*
X131942037Y-71016918D01*
X131965720Y-71135979D01*
X131965720Y-71264021D01*
X131940741Y-71389597D01*
X131891743Y-71507890D01*
X131820606Y-71614354D01*
X131730074Y-71704886D01*
X131623610Y-71776023D01*
X131539965Y-71810670D01*
X131505318Y-71825021D01*
X131463458Y-71833347D01*
X131379741Y-71850000D01*
X131251699Y-71850000D01*
X131167982Y-71833347D01*
X131126122Y-71825021D01*
X131091475Y-71810670D01*
X131007830Y-71776023D01*
X130901366Y-71704886D01*
X130810834Y-71614354D01*
X130739697Y-71507890D01*
X130690699Y-71389597D01*
X130665720Y-71264021D01*
X130665720Y-71135979D01*
X130689403Y-71016918D01*
X130690699Y-71010402D01*
X130710817Y-70961834D01*
X130739697Y-70892110D01*
X130810834Y-70785646D01*
X130901366Y-70695114D01*
X131007830Y-70623977D01*
X131091475Y-70589330D01*
X131126122Y-70574979D01*
X131167982Y-70566653D01*
X131251699Y-70550000D01*
X131379741Y-70550000D01*
X131463458Y-70566653D01*
X131463458Y-70566653D01*
G37*
G36*
X129463458Y-70566653D02*
X129505318Y-70574979D01*
X129539965Y-70589330D01*
X129623610Y-70623977D01*
X129730074Y-70695114D01*
X129820606Y-70785646D01*
X129891743Y-70892110D01*
X129920623Y-70961834D01*
X129940741Y-71010402D01*
X129942037Y-71016918D01*
X129965720Y-71135979D01*
X129965720Y-71264021D01*
X129940741Y-71389597D01*
X129891743Y-71507890D01*
X129820606Y-71614354D01*
X129730074Y-71704886D01*
X129623610Y-71776023D01*
X129539965Y-71810670D01*
X129505318Y-71825021D01*
X129463458Y-71833347D01*
X129379741Y-71850000D01*
X129251699Y-71850000D01*
X129167982Y-71833347D01*
X129126122Y-71825021D01*
X129091475Y-71810670D01*
X129007830Y-71776023D01*
X128901366Y-71704886D01*
X128810834Y-71614354D01*
X128739697Y-71507890D01*
X128690699Y-71389597D01*
X128665720Y-71264021D01*
X128665720Y-71135979D01*
X128689403Y-71016918D01*
X128690699Y-71010402D01*
X128710817Y-70961834D01*
X128739697Y-70892110D01*
X128810834Y-70785646D01*
X128901366Y-70695114D01*
X129007830Y-70623977D01*
X129091475Y-70589330D01*
X129126122Y-70574979D01*
X129167982Y-70566653D01*
X129251699Y-70550000D01*
X129379741Y-70550000D01*
X129463458Y-70566653D01*
X129463458Y-70566653D01*
G37*
G36*
X127463458Y-70566653D02*
X127505318Y-70574979D01*
X127539965Y-70589330D01*
X127623610Y-70623977D01*
X127730074Y-70695114D01*
X127820606Y-70785646D01*
X127891743Y-70892110D01*
X127920623Y-70961834D01*
X127940741Y-71010402D01*
X127942037Y-71016918D01*
X127965720Y-71135979D01*
X127965720Y-71264021D01*
X127940741Y-71389597D01*
X127891743Y-71507890D01*
X127820606Y-71614354D01*
X127730074Y-71704886D01*
X127623610Y-71776023D01*
X127539965Y-71810670D01*
X127505318Y-71825021D01*
X127463458Y-71833347D01*
X127379741Y-71850000D01*
X127251699Y-71850000D01*
X127167982Y-71833347D01*
X127126122Y-71825021D01*
X127091475Y-71810670D01*
X127007830Y-71776023D01*
X126901366Y-71704886D01*
X126810834Y-71614354D01*
X126739697Y-71507890D01*
X126690699Y-71389597D01*
X126665720Y-71264021D01*
X126665720Y-71135979D01*
X126689403Y-71016918D01*
X126690699Y-71010402D01*
X126710817Y-70961834D01*
X126739697Y-70892110D01*
X126810834Y-70785646D01*
X126901366Y-70695114D01*
X127007830Y-70623977D01*
X127091475Y-70589330D01*
X127126122Y-70574979D01*
X127167982Y-70566653D01*
X127251699Y-70550000D01*
X127379741Y-70550000D01*
X127463458Y-70566653D01*
X127463458Y-70566653D01*
G37*
G36*
X125463458Y-70566653D02*
X125505318Y-70574979D01*
X125539965Y-70589330D01*
X125623610Y-70623977D01*
X125730074Y-70695114D01*
X125820606Y-70785646D01*
X125891743Y-70892110D01*
X125920623Y-70961834D01*
X125940741Y-71010402D01*
X125942037Y-71016918D01*
X125965720Y-71135979D01*
X125965720Y-71264021D01*
X125940741Y-71389597D01*
X125891743Y-71507890D01*
X125820606Y-71614354D01*
X125730074Y-71704886D01*
X125623610Y-71776023D01*
X125539965Y-71810670D01*
X125505318Y-71825021D01*
X125463458Y-71833347D01*
X125379741Y-71850000D01*
X125251699Y-71850000D01*
X125167982Y-71833347D01*
X125126122Y-71825021D01*
X125091475Y-71810670D01*
X125007830Y-71776023D01*
X124901366Y-71704886D01*
X124810834Y-71614354D01*
X124739697Y-71507890D01*
X124690699Y-71389597D01*
X124665720Y-71264021D01*
X124665720Y-71135979D01*
X124689403Y-71016918D01*
X124690699Y-71010402D01*
X124710817Y-70961834D01*
X124739697Y-70892110D01*
X124810834Y-70785646D01*
X124901366Y-70695114D01*
X125007830Y-70623977D01*
X125091475Y-70589330D01*
X125126122Y-70574979D01*
X125167982Y-70566653D01*
X125251699Y-70550000D01*
X125379741Y-70550000D01*
X125463458Y-70566653D01*
X125463458Y-70566653D01*
G37*
G36*
X136308667Y-68785722D02*
X136572553Y-68895027D01*
X136810044Y-69053713D01*
X137012007Y-69255676D01*
X137170693Y-69493167D01*
X137279998Y-69757053D01*
X137335720Y-70037186D01*
X137335720Y-70322814D01*
X137279998Y-70602947D01*
X137170693Y-70866833D01*
X137012007Y-71104324D01*
X136810044Y-71306287D01*
X136572553Y-71464973D01*
X136308667Y-71574278D01*
X136028534Y-71630000D01*
X135742906Y-71630000D01*
X135462773Y-71574278D01*
X135198887Y-71464973D01*
X134961396Y-71306287D01*
X134759433Y-71104324D01*
X134600747Y-70866833D01*
X134491442Y-70602947D01*
X134435720Y-70322814D01*
X134435720Y-70037186D01*
X134491442Y-69757053D01*
X134600747Y-69493167D01*
X134759433Y-69255676D01*
X134961396Y-69053713D01*
X135198887Y-68895027D01*
X135462773Y-68785722D01*
X135742906Y-68730000D01*
X136028534Y-68730000D01*
X136308667Y-68785722D01*
X136308667Y-68785722D01*
G37*
G36*
X123168667Y-68785722D02*
X123432553Y-68895027D01*
X123670044Y-69053713D01*
X123872007Y-69255676D01*
X124030693Y-69493167D01*
X124139998Y-69757053D01*
X124195720Y-70037186D01*
X124195720Y-70322814D01*
X124139998Y-70602947D01*
X124030693Y-70866833D01*
X123872007Y-71104324D01*
X123670044Y-71306287D01*
X123432553Y-71464973D01*
X123168667Y-71574278D01*
X122888534Y-71630000D01*
X122602906Y-71630000D01*
X122322773Y-71574278D01*
X122058887Y-71464973D01*
X121821396Y-71306287D01*
X121619433Y-71104324D01*
X121460747Y-70866833D01*
X121351442Y-70602947D01*
X121295720Y-70322814D01*
X121295720Y-70037186D01*
X121351442Y-69757053D01*
X121460747Y-69493167D01*
X121619433Y-69255676D01*
X121821396Y-69053713D01*
X122058887Y-68895027D01*
X122322773Y-68785722D01*
X122602906Y-68730000D01*
X122888534Y-68730000D01*
X123168667Y-68785722D01*
X123168667Y-68785722D01*
G37*
G36*
X97284397Y-69562468D02*
X97461836Y-69635966D01*
X97621527Y-69742668D01*
X97757332Y-69878473D01*
X97864034Y-70038164D01*
X97937532Y-70215603D01*
X97975000Y-70403971D01*
X97975000Y-70596029D01*
X97937532Y-70784397D01*
X97864034Y-70961836D01*
X97757332Y-71121527D01*
X97621527Y-71257332D01*
X97461836Y-71364034D01*
X97284397Y-71437532D01*
X97096029Y-71475000D01*
X96903971Y-71475000D01*
X96715603Y-71437532D01*
X96538164Y-71364034D01*
X96378473Y-71257332D01*
X96242668Y-71121527D01*
X96135966Y-70961836D01*
X96062468Y-70784397D01*
X96025000Y-70596029D01*
X96025000Y-70403971D01*
X96062468Y-70215603D01*
X96135966Y-70038164D01*
X96242668Y-69878473D01*
X96378473Y-69742668D01*
X96538164Y-69635966D01*
X96715603Y-69562468D01*
X96903971Y-69525000D01*
X97096029Y-69525000D01*
X97284397Y-69562468D01*
X97284397Y-69562468D01*
G37*
G36*
X130463458Y-69066653D02*
X130505318Y-69074979D01*
X130539965Y-69089330D01*
X130623610Y-69123977D01*
X130730074Y-69195114D01*
X130820606Y-69285646D01*
X130891743Y-69392110D01*
X130940741Y-69510403D01*
X130965720Y-69635979D01*
X130965720Y-69764021D01*
X130940741Y-69889597D01*
X130891743Y-70007890D01*
X130820606Y-70114354D01*
X130730074Y-70204886D01*
X130623610Y-70276023D01*
X130539965Y-70310670D01*
X130505318Y-70325021D01*
X130463458Y-70333347D01*
X130379741Y-70350000D01*
X130251699Y-70350000D01*
X130167982Y-70333347D01*
X130126122Y-70325021D01*
X130091475Y-70310670D01*
X130007830Y-70276023D01*
X129901366Y-70204886D01*
X129810834Y-70114354D01*
X129739697Y-70007890D01*
X129690699Y-69889597D01*
X129665720Y-69764021D01*
X129665720Y-69635979D01*
X129690699Y-69510403D01*
X129739697Y-69392110D01*
X129810834Y-69285646D01*
X129901366Y-69195114D01*
X130007830Y-69123977D01*
X130091475Y-69089330D01*
X130126122Y-69074979D01*
X130167982Y-69066653D01*
X130251699Y-69050000D01*
X130379741Y-69050000D01*
X130463458Y-69066653D01*
X130463458Y-69066653D01*
G37*
G36*
X132963458Y-69066653D02*
X133005318Y-69074979D01*
X133039965Y-69089330D01*
X133123610Y-69123977D01*
X133230074Y-69195114D01*
X133320606Y-69285646D01*
X133391743Y-69392110D01*
X133440741Y-69510403D01*
X133465720Y-69635979D01*
X133465720Y-69764021D01*
X133440741Y-69889597D01*
X133391743Y-70007890D01*
X133320606Y-70114354D01*
X133230074Y-70204886D01*
X133123610Y-70276023D01*
X133039965Y-70310670D01*
X133005318Y-70325021D01*
X132963458Y-70333347D01*
X132879741Y-70350000D01*
X132751699Y-70350000D01*
X132667982Y-70333347D01*
X132626122Y-70325021D01*
X132591475Y-70310670D01*
X132507830Y-70276023D01*
X132401366Y-70204886D01*
X132310834Y-70114354D01*
X132239697Y-70007890D01*
X132190699Y-69889597D01*
X132165720Y-69764021D01*
X132165720Y-69635979D01*
X132190699Y-69510403D01*
X132239697Y-69392110D01*
X132310834Y-69285646D01*
X132401366Y-69195114D01*
X132507830Y-69123977D01*
X132591475Y-69089330D01*
X132626122Y-69074979D01*
X132667982Y-69066653D01*
X132751699Y-69050000D01*
X132879741Y-69050000D01*
X132963458Y-69066653D01*
X132963458Y-69066653D01*
G37*
G36*
X128463458Y-69066653D02*
X128505318Y-69074979D01*
X128539965Y-69089330D01*
X128623610Y-69123977D01*
X128730074Y-69195114D01*
X128820606Y-69285646D01*
X128891743Y-69392110D01*
X128940741Y-69510403D01*
X128965720Y-69635979D01*
X128965720Y-69764021D01*
X128940741Y-69889597D01*
X128891743Y-70007890D01*
X128820606Y-70114354D01*
X128730074Y-70204886D01*
X128623610Y-70276023D01*
X128539965Y-70310670D01*
X128505318Y-70325021D01*
X128463458Y-70333347D01*
X128379741Y-70350000D01*
X128251699Y-70350000D01*
X128167982Y-70333347D01*
X128126122Y-70325021D01*
X128091475Y-70310670D01*
X128007830Y-70276023D01*
X127901366Y-70204886D01*
X127810834Y-70114354D01*
X127739697Y-70007890D01*
X127690699Y-69889597D01*
X127665720Y-69764021D01*
X127665720Y-69635979D01*
X127690699Y-69510403D01*
X127739697Y-69392110D01*
X127810834Y-69285646D01*
X127901366Y-69195114D01*
X128007830Y-69123977D01*
X128091475Y-69089330D01*
X128126122Y-69074979D01*
X128167982Y-69066653D01*
X128251699Y-69050000D01*
X128379741Y-69050000D01*
X128463458Y-69066653D01*
X128463458Y-69066653D01*
G37*
G36*
X125963458Y-69066653D02*
X126005318Y-69074979D01*
X126039965Y-69089330D01*
X126123610Y-69123977D01*
X126230074Y-69195114D01*
X126320606Y-69285646D01*
X126391743Y-69392110D01*
X126440741Y-69510403D01*
X126465720Y-69635979D01*
X126465720Y-69764021D01*
X126440741Y-69889597D01*
X126391743Y-70007890D01*
X126320606Y-70114354D01*
X126230074Y-70204886D01*
X126123610Y-70276023D01*
X126039965Y-70310670D01*
X126005318Y-70325021D01*
X125963458Y-70333347D01*
X125879741Y-70350000D01*
X125751699Y-70350000D01*
X125667982Y-70333347D01*
X125626122Y-70325021D01*
X125591475Y-70310670D01*
X125507830Y-70276023D01*
X125401366Y-70204886D01*
X125310834Y-70114354D01*
X125239697Y-70007890D01*
X125190699Y-69889597D01*
X125165720Y-69764021D01*
X125165720Y-69635979D01*
X125190699Y-69510403D01*
X125239697Y-69392110D01*
X125310834Y-69285646D01*
X125401366Y-69195114D01*
X125507830Y-69123977D01*
X125591475Y-69089330D01*
X125626122Y-69074979D01*
X125667982Y-69066653D01*
X125751699Y-69050000D01*
X125879741Y-69050000D01*
X125963458Y-69066653D01*
X125963458Y-69066653D01*
G37*
G36*
X103330144Y-67896115D02*
X103548530Y-67986573D01*
X103745076Y-68117901D01*
X103912217Y-68285042D01*
X104043545Y-68481588D01*
X104134003Y-68699974D01*
X104180118Y-68931809D01*
X104180118Y-69168191D01*
X104134003Y-69400026D01*
X104043545Y-69618412D01*
X103912217Y-69814958D01*
X103745076Y-69982099D01*
X103548530Y-70113427D01*
X103330144Y-70203885D01*
X103098309Y-70250000D01*
X102861927Y-70250000D01*
X102630092Y-70203885D01*
X102411706Y-70113427D01*
X102215160Y-69982099D01*
X102048019Y-69814958D01*
X101916691Y-69618412D01*
X101826233Y-69400026D01*
X101780118Y-69168191D01*
X101780118Y-68931809D01*
X101826233Y-68699974D01*
X101916691Y-68481588D01*
X102048019Y-68285042D01*
X102215160Y-68117901D01*
X102411706Y-67986573D01*
X102630092Y-67896115D01*
X102861927Y-67850000D01*
X103098309Y-67850000D01*
X103330144Y-67896115D01*
X103330144Y-67896115D01*
G37*
G36*
X119080144Y-67896115D02*
X119298530Y-67986573D01*
X119495076Y-68117901D01*
X119662217Y-68285042D01*
X119793545Y-68481588D01*
X119884003Y-68699974D01*
X119930118Y-68931809D01*
X119930118Y-69168191D01*
X119884003Y-69400026D01*
X119793545Y-69618412D01*
X119662217Y-69814958D01*
X119495076Y-69982099D01*
X119298530Y-70113427D01*
X119080144Y-70203885D01*
X118848309Y-70250000D01*
X118611927Y-70250000D01*
X118380092Y-70203885D01*
X118161706Y-70113427D01*
X117965160Y-69982099D01*
X117798019Y-69814958D01*
X117666691Y-69618412D01*
X117576233Y-69400026D01*
X117530118Y-69168191D01*
X117530118Y-68931809D01*
X117576233Y-68699974D01*
X117666691Y-68481588D01*
X117798019Y-68285042D01*
X117965160Y-68117901D01*
X118161706Y-67986573D01*
X118380092Y-67896115D01*
X118611927Y-67850000D01*
X118848309Y-67850000D01*
X119080144Y-67896115D01*
X119080144Y-67896115D01*
G37*
G36*
X111545000Y-69537000D02*
X109845000Y-69537000D01*
X109845000Y-68367000D01*
X111545000Y-68367000D01*
X111545000Y-69537000D01*
X111545000Y-69537000D01*
G37*
G36*
X125463458Y-67366653D02*
X125505318Y-67374979D01*
X125539965Y-67389330D01*
X125623610Y-67423977D01*
X125730074Y-67495114D01*
X125820606Y-67585646D01*
X125891743Y-67692110D01*
X125940741Y-67810403D01*
X125965720Y-67935979D01*
X125965720Y-68064021D01*
X125940741Y-68189597D01*
X125891743Y-68307890D01*
X125820606Y-68414354D01*
X125730074Y-68504886D01*
X125623610Y-68576023D01*
X125539965Y-68610670D01*
X125505318Y-68625021D01*
X125463458Y-68633347D01*
X125379741Y-68650000D01*
X125251699Y-68650000D01*
X125167982Y-68633347D01*
X125126122Y-68625021D01*
X125091475Y-68610670D01*
X125007830Y-68576023D01*
X124901366Y-68504886D01*
X124810834Y-68414354D01*
X124739697Y-68307890D01*
X124690699Y-68189597D01*
X124665720Y-68064021D01*
X124665720Y-67935979D01*
X124690699Y-67810403D01*
X124739697Y-67692110D01*
X124810834Y-67585646D01*
X124901366Y-67495114D01*
X125007830Y-67423977D01*
X125091475Y-67389330D01*
X125126122Y-67374979D01*
X125167982Y-67366653D01*
X125251699Y-67350000D01*
X125379741Y-67350000D01*
X125463458Y-67366653D01*
X125463458Y-67366653D01*
G37*
G36*
X127463458Y-67366653D02*
X127505318Y-67374979D01*
X127539965Y-67389330D01*
X127623610Y-67423977D01*
X127730074Y-67495114D01*
X127820606Y-67585646D01*
X127891743Y-67692110D01*
X127940741Y-67810403D01*
X127965720Y-67935979D01*
X127965720Y-68064021D01*
X127940741Y-68189597D01*
X127891743Y-68307890D01*
X127820606Y-68414354D01*
X127730074Y-68504886D01*
X127623610Y-68576023D01*
X127539965Y-68610670D01*
X127505318Y-68625021D01*
X127463458Y-68633347D01*
X127379741Y-68650000D01*
X127251699Y-68650000D01*
X127167982Y-68633347D01*
X127126122Y-68625021D01*
X127091475Y-68610670D01*
X127007830Y-68576023D01*
X126901366Y-68504886D01*
X126810834Y-68414354D01*
X126739697Y-68307890D01*
X126690699Y-68189597D01*
X126665720Y-68064021D01*
X126665720Y-67935979D01*
X126690699Y-67810403D01*
X126739697Y-67692110D01*
X126810834Y-67585646D01*
X126901366Y-67495114D01*
X127007830Y-67423977D01*
X127091475Y-67389330D01*
X127126122Y-67374979D01*
X127167982Y-67366653D01*
X127251699Y-67350000D01*
X127379741Y-67350000D01*
X127463458Y-67366653D01*
X127463458Y-67366653D01*
G37*
G36*
X129463458Y-67366653D02*
X129505318Y-67374979D01*
X129539965Y-67389330D01*
X129623610Y-67423977D01*
X129730074Y-67495114D01*
X129820606Y-67585646D01*
X129891743Y-67692110D01*
X129940741Y-67810403D01*
X129965720Y-67935979D01*
X129965720Y-68064021D01*
X129940741Y-68189597D01*
X129891743Y-68307890D01*
X129820606Y-68414354D01*
X129730074Y-68504886D01*
X129623610Y-68576023D01*
X129539965Y-68610670D01*
X129505318Y-68625021D01*
X129463458Y-68633347D01*
X129379741Y-68650000D01*
X129251699Y-68650000D01*
X129167982Y-68633347D01*
X129126122Y-68625021D01*
X129091475Y-68610670D01*
X129007830Y-68576023D01*
X128901366Y-68504886D01*
X128810834Y-68414354D01*
X128739697Y-68307890D01*
X128690699Y-68189597D01*
X128665720Y-68064021D01*
X128665720Y-67935979D01*
X128690699Y-67810403D01*
X128739697Y-67692110D01*
X128810834Y-67585646D01*
X128901366Y-67495114D01*
X129007830Y-67423977D01*
X129091475Y-67389330D01*
X129126122Y-67374979D01*
X129167982Y-67366653D01*
X129251699Y-67350000D01*
X129379741Y-67350000D01*
X129463458Y-67366653D01*
X129463458Y-67366653D01*
G37*
G36*
X131463458Y-67366653D02*
X131505318Y-67374979D01*
X131539965Y-67389330D01*
X131623610Y-67423977D01*
X131730074Y-67495114D01*
X131820606Y-67585646D01*
X131891743Y-67692110D01*
X131940741Y-67810403D01*
X131965720Y-67935979D01*
X131965720Y-68064021D01*
X131940741Y-68189597D01*
X131891743Y-68307890D01*
X131820606Y-68414354D01*
X131730074Y-68504886D01*
X131623610Y-68576023D01*
X131539965Y-68610670D01*
X131505318Y-68625021D01*
X131463458Y-68633347D01*
X131379741Y-68650000D01*
X131251699Y-68650000D01*
X131167982Y-68633347D01*
X131126122Y-68625021D01*
X131091475Y-68610670D01*
X131007830Y-68576023D01*
X130901366Y-68504886D01*
X130810834Y-68414354D01*
X130739697Y-68307890D01*
X130690699Y-68189597D01*
X130665720Y-68064021D01*
X130665720Y-67935979D01*
X130690699Y-67810403D01*
X130739697Y-67692110D01*
X130810834Y-67585646D01*
X130901366Y-67495114D01*
X131007830Y-67423977D01*
X131091475Y-67389330D01*
X131126122Y-67374979D01*
X131167982Y-67366653D01*
X131251699Y-67350000D01*
X131379741Y-67350000D01*
X131463458Y-67366653D01*
X131463458Y-67366653D01*
G37*
G36*
X133463458Y-67366653D02*
X133505318Y-67374979D01*
X133539965Y-67389330D01*
X133623610Y-67423977D01*
X133730074Y-67495114D01*
X133820606Y-67585646D01*
X133891743Y-67692110D01*
X133940741Y-67810403D01*
X133965720Y-67935979D01*
X133965720Y-68064021D01*
X133940741Y-68189597D01*
X133891743Y-68307890D01*
X133820606Y-68414354D01*
X133730074Y-68504886D01*
X133623610Y-68576023D01*
X133539965Y-68610670D01*
X133505318Y-68625021D01*
X133463458Y-68633347D01*
X133379741Y-68650000D01*
X133251699Y-68650000D01*
X133167982Y-68633347D01*
X133126122Y-68625021D01*
X133091475Y-68610670D01*
X133007830Y-68576023D01*
X132901366Y-68504886D01*
X132810834Y-68414354D01*
X132739697Y-68307890D01*
X132690699Y-68189597D01*
X132665720Y-68064021D01*
X132665720Y-67935979D01*
X132690699Y-67810403D01*
X132739697Y-67692110D01*
X132810834Y-67585646D01*
X132901366Y-67495114D01*
X133007830Y-67423977D01*
X133091475Y-67389330D01*
X133126122Y-67374979D01*
X133167982Y-67366653D01*
X133251699Y-67350000D01*
X133379741Y-67350000D01*
X133463458Y-67366653D01*
X133463458Y-67366653D01*
G37*
G36*
X117809328Y-62704398D02*
X117952334Y-62763632D01*
X118081038Y-62849630D01*
X118190488Y-62959080D01*
X118276486Y-63087784D01*
X118335720Y-63230790D01*
X118365918Y-63382605D01*
X118365918Y-63537395D01*
X118335720Y-63689210D01*
X118276486Y-63832216D01*
X118190488Y-63960920D01*
X118081038Y-64070370D01*
X117952334Y-64156368D01*
X117809328Y-64215602D01*
X117727835Y-64231812D01*
X117704386Y-64238925D01*
X117682775Y-64250477D01*
X117663833Y-64266022D01*
X117648288Y-64284964D01*
X117636737Y-64306575D01*
X117629624Y-64330024D01*
X117627222Y-64354410D01*
X117629624Y-64378797D01*
X117636737Y-64402246D01*
X117648289Y-64423857D01*
X117663834Y-64442799D01*
X117682776Y-64458344D01*
X117781300Y-64524176D01*
X118045942Y-64788818D01*
X118253877Y-65100014D01*
X118397102Y-65445791D01*
X118470118Y-65812865D01*
X118470118Y-66187135D01*
X118397102Y-66554209D01*
X118253877Y-66899986D01*
X118045942Y-67211182D01*
X117781300Y-67475824D01*
X117470104Y-67683759D01*
X117124327Y-67826984D01*
X116757253Y-67900000D01*
X116382983Y-67900000D01*
X116015909Y-67826984D01*
X115670132Y-67683759D01*
X115358936Y-67475824D01*
X115094294Y-67211182D01*
X114886359Y-66899986D01*
X114743134Y-66554209D01*
X114670118Y-66187135D01*
X114670118Y-65812865D01*
X114743134Y-65445791D01*
X114886359Y-65100014D01*
X115094294Y-64788818D01*
X115358936Y-64524176D01*
X115670132Y-64316241D01*
X116015909Y-64173016D01*
X116382983Y-64100000D01*
X116757252Y-64100000D01*
X116813520Y-64111192D01*
X116837902Y-64113594D01*
X116862289Y-64111192D01*
X116885738Y-64104079D01*
X116907349Y-64092528D01*
X116926291Y-64076983D01*
X116941836Y-64058041D01*
X116953388Y-64036430D01*
X116960501Y-64012981D01*
X116962903Y-63988595D01*
X116960501Y-63964208D01*
X116953388Y-63940759D01*
X116941836Y-63919147D01*
X116883751Y-63832217D01*
X116824516Y-63689210D01*
X116794318Y-63537395D01*
X116794318Y-63382605D01*
X116824516Y-63230790D01*
X116883750Y-63087784D01*
X116969748Y-62959080D01*
X117079198Y-62849630D01*
X117207902Y-62763632D01*
X117350908Y-62704398D01*
X117502723Y-62674200D01*
X117657513Y-62674200D01*
X117809328Y-62704398D01*
X117809328Y-62704398D01*
G37*
G36*
X104359328Y-62704398D02*
X104502334Y-62763632D01*
X104631038Y-62849630D01*
X104740488Y-62959080D01*
X104826486Y-63087784D01*
X104885720Y-63230790D01*
X104915918Y-63382605D01*
X104915918Y-63537395D01*
X104885720Y-63689210D01*
X104826485Y-63832217D01*
X104768400Y-63919147D01*
X104756848Y-63940758D01*
X104749735Y-63964207D01*
X104747333Y-63988594D01*
X104749735Y-64012980D01*
X104756848Y-64036429D01*
X104768399Y-64058040D01*
X104783944Y-64076982D01*
X104802886Y-64092527D01*
X104824497Y-64104079D01*
X104847946Y-64111192D01*
X104872333Y-64113594D01*
X104896716Y-64111192D01*
X104952984Y-64100000D01*
X105327253Y-64100000D01*
X105694327Y-64173016D01*
X106040104Y-64316241D01*
X106351300Y-64524176D01*
X106615942Y-64788818D01*
X106823877Y-65100014D01*
X106967102Y-65445791D01*
X107040118Y-65812865D01*
X107040118Y-66187135D01*
X106967102Y-66554209D01*
X106823877Y-66899986D01*
X106615942Y-67211182D01*
X106351300Y-67475824D01*
X106040104Y-67683759D01*
X105694327Y-67826984D01*
X105327253Y-67900000D01*
X104952983Y-67900000D01*
X104585909Y-67826984D01*
X104240132Y-67683759D01*
X103928936Y-67475824D01*
X103664294Y-67211182D01*
X103456359Y-66899986D01*
X103313134Y-66554209D01*
X103240118Y-66187135D01*
X103240118Y-65812865D01*
X103313134Y-65445791D01*
X103456359Y-65100014D01*
X103664294Y-64788818D01*
X103928936Y-64524176D01*
X104027460Y-64458344D01*
X104046402Y-64442798D01*
X104061948Y-64423856D01*
X104073499Y-64402245D01*
X104080612Y-64378796D01*
X104083014Y-64354410D01*
X104080612Y-64330024D01*
X104073499Y-64306574D01*
X104061948Y-64284964D01*
X104046402Y-64266022D01*
X104027460Y-64250476D01*
X104005849Y-64238925D01*
X103982401Y-64231812D01*
X103900908Y-64215602D01*
X103757902Y-64156368D01*
X103629198Y-64070370D01*
X103519748Y-63960920D01*
X103433750Y-63832216D01*
X103374516Y-63689210D01*
X103344318Y-63537395D01*
X103344318Y-63382605D01*
X103374516Y-63230790D01*
X103433750Y-63087784D01*
X103519748Y-62959080D01*
X103629198Y-62849630D01*
X103757902Y-62763632D01*
X103900908Y-62704398D01*
X104052723Y-62674200D01*
X104207513Y-62674200D01*
X104359328Y-62704398D01*
X104359328Y-62704398D01*
G37*
G36*
X111545000Y-67627000D02*
X109845000Y-67627000D01*
X109845000Y-66457000D01*
X111545000Y-66457000D01*
X111545000Y-67627000D01*
X111545000Y-67627000D01*
G37*
G36*
X128463458Y-65866653D02*
X128505318Y-65874979D01*
X128539965Y-65889330D01*
X128623610Y-65923977D01*
X128730074Y-65995114D01*
X128820606Y-66085646D01*
X128891743Y-66192110D01*
X128926390Y-66275755D01*
X128939030Y-66306271D01*
X128940741Y-66310403D01*
X128965720Y-66435979D01*
X128965720Y-66564021D01*
X128940741Y-66689597D01*
X128891743Y-66807890D01*
X128820606Y-66914354D01*
X128730074Y-67004886D01*
X128623610Y-67076023D01*
X128539965Y-67110670D01*
X128505318Y-67125021D01*
X128463458Y-67133347D01*
X128379741Y-67150000D01*
X128251699Y-67150000D01*
X128167982Y-67133347D01*
X128126122Y-67125021D01*
X128091475Y-67110670D01*
X128007830Y-67076023D01*
X127901366Y-67004886D01*
X127810834Y-66914354D01*
X127739697Y-66807890D01*
X127690699Y-66689597D01*
X127665720Y-66564021D01*
X127665720Y-66435979D01*
X127690699Y-66310403D01*
X127692411Y-66306271D01*
X127705050Y-66275755D01*
X127739697Y-66192110D01*
X127810834Y-66085646D01*
X127901366Y-65995114D01*
X128007830Y-65923977D01*
X128091475Y-65889330D01*
X128126122Y-65874979D01*
X128167982Y-65866653D01*
X128251699Y-65850000D01*
X128379741Y-65850000D01*
X128463458Y-65866653D01*
X128463458Y-65866653D01*
G37*
G36*
X130463458Y-65866653D02*
X130505318Y-65874979D01*
X130539965Y-65889330D01*
X130623610Y-65923977D01*
X130730074Y-65995114D01*
X130820606Y-66085646D01*
X130891743Y-66192110D01*
X130926390Y-66275755D01*
X130939030Y-66306271D01*
X130940741Y-66310403D01*
X130965720Y-66435979D01*
X130965720Y-66564021D01*
X130940741Y-66689597D01*
X130891743Y-66807890D01*
X130820606Y-66914354D01*
X130730074Y-67004886D01*
X130623610Y-67076023D01*
X130539965Y-67110670D01*
X130505318Y-67125021D01*
X130463458Y-67133347D01*
X130379741Y-67150000D01*
X130251699Y-67150000D01*
X130167982Y-67133347D01*
X130126122Y-67125021D01*
X130091475Y-67110670D01*
X130007830Y-67076023D01*
X129901366Y-67004886D01*
X129810834Y-66914354D01*
X129739697Y-66807890D01*
X129690699Y-66689597D01*
X129665720Y-66564021D01*
X129665720Y-66435979D01*
X129690699Y-66310403D01*
X129692411Y-66306271D01*
X129705050Y-66275755D01*
X129739697Y-66192110D01*
X129810834Y-66085646D01*
X129901366Y-65995114D01*
X130007830Y-65923977D01*
X130091475Y-65889330D01*
X130126122Y-65874979D01*
X130167982Y-65866653D01*
X130251699Y-65850000D01*
X130379741Y-65850000D01*
X130463458Y-65866653D01*
X130463458Y-65866653D01*
G37*
G36*
X132963458Y-65866653D02*
X133005318Y-65874979D01*
X133039965Y-65889330D01*
X133123610Y-65923977D01*
X133230074Y-65995114D01*
X133320606Y-66085646D01*
X133391743Y-66192110D01*
X133426390Y-66275755D01*
X133439030Y-66306271D01*
X133440741Y-66310403D01*
X133465720Y-66435979D01*
X133465720Y-66564021D01*
X133440741Y-66689597D01*
X133391743Y-66807890D01*
X133320606Y-66914354D01*
X133230074Y-67004886D01*
X133123610Y-67076023D01*
X133039965Y-67110670D01*
X133005318Y-67125021D01*
X132963458Y-67133347D01*
X132879741Y-67150000D01*
X132751699Y-67150000D01*
X132667982Y-67133347D01*
X132626122Y-67125021D01*
X132591475Y-67110670D01*
X132507830Y-67076023D01*
X132401366Y-67004886D01*
X132310834Y-66914354D01*
X132239697Y-66807890D01*
X132190699Y-66689597D01*
X132165720Y-66564021D01*
X132165720Y-66435979D01*
X132190699Y-66310403D01*
X132192411Y-66306271D01*
X132205050Y-66275755D01*
X132239697Y-66192110D01*
X132310834Y-66085646D01*
X132401366Y-65995114D01*
X132507830Y-65923977D01*
X132591475Y-65889330D01*
X132626122Y-65874979D01*
X132667982Y-65866653D01*
X132751699Y-65850000D01*
X132879741Y-65850000D01*
X132963458Y-65866653D01*
X132963458Y-65866653D01*
G37*
G36*
X125963458Y-65866653D02*
X126005318Y-65874979D01*
X126039965Y-65889330D01*
X126123610Y-65923977D01*
X126230074Y-65995114D01*
X126320606Y-66085646D01*
X126391743Y-66192110D01*
X126426390Y-66275755D01*
X126439030Y-66306271D01*
X126440741Y-66310403D01*
X126465720Y-66435979D01*
X126465720Y-66564021D01*
X126440741Y-66689597D01*
X126391743Y-66807890D01*
X126320606Y-66914354D01*
X126230074Y-67004886D01*
X126123610Y-67076023D01*
X126039965Y-67110670D01*
X126005318Y-67125021D01*
X125963458Y-67133347D01*
X125879741Y-67150000D01*
X125751699Y-67150000D01*
X125667982Y-67133347D01*
X125626122Y-67125021D01*
X125591475Y-67110670D01*
X125507830Y-67076023D01*
X125401366Y-67004886D01*
X125310834Y-66914354D01*
X125239697Y-66807890D01*
X125190699Y-66689597D01*
X125165720Y-66564021D01*
X125165720Y-66435979D01*
X125190699Y-66310403D01*
X125192411Y-66306271D01*
X125205050Y-66275755D01*
X125239697Y-66192110D01*
X125310834Y-66085646D01*
X125401366Y-65995114D01*
X125507830Y-65923977D01*
X125591475Y-65889330D01*
X125626122Y-65874979D01*
X125667982Y-65866653D01*
X125751699Y-65850000D01*
X125879741Y-65850000D01*
X125963458Y-65866653D01*
X125963458Y-65866653D01*
G37*
G36*
X179625888Y-64954470D02*
X179806274Y-64990350D01*
X179997362Y-65069502D01*
X180169336Y-65184411D01*
X180315589Y-65330664D01*
X180430498Y-65502638D01*
X180509650Y-65693726D01*
X180539900Y-65845806D01*
X180548691Y-65890000D01*
X180550000Y-65896584D01*
X180550000Y-66103416D01*
X180509650Y-66306274D01*
X180430498Y-66497362D01*
X180315589Y-66669336D01*
X180169336Y-66815589D01*
X179997362Y-66930498D01*
X179806274Y-67009650D01*
X179625888Y-67045530D01*
X179603417Y-67050000D01*
X179396583Y-67050000D01*
X179374112Y-67045530D01*
X179193726Y-67009650D01*
X179002638Y-66930498D01*
X178830664Y-66815589D01*
X178684411Y-66669336D01*
X178569502Y-66497362D01*
X178490350Y-66306274D01*
X178450000Y-66103416D01*
X178450000Y-65896584D01*
X178451310Y-65890000D01*
X178460100Y-65845806D01*
X178490350Y-65693726D01*
X178569502Y-65502638D01*
X178684411Y-65330664D01*
X178830664Y-65184411D01*
X179002638Y-65069502D01*
X179193726Y-64990350D01*
X179374112Y-64954470D01*
X179396583Y-64950000D01*
X179603417Y-64950000D01*
X179625888Y-64954470D01*
X179625888Y-64954470D01*
G37*
G36*
X177125888Y-64954470D02*
X177306274Y-64990350D01*
X177497362Y-65069502D01*
X177669336Y-65184411D01*
X177815589Y-65330664D01*
X177930498Y-65502638D01*
X178009650Y-65693726D01*
X178039900Y-65845806D01*
X178048691Y-65890000D01*
X178050000Y-65896584D01*
X178050000Y-66103416D01*
X178009650Y-66306274D01*
X177930498Y-66497362D01*
X177815589Y-66669336D01*
X177669336Y-66815589D01*
X177497362Y-66930498D01*
X177306274Y-67009650D01*
X177125888Y-67045530D01*
X177103417Y-67050000D01*
X176896583Y-67050000D01*
X176874112Y-67045530D01*
X176693726Y-67009650D01*
X176502638Y-66930498D01*
X176330664Y-66815589D01*
X176184411Y-66669336D01*
X176069502Y-66497362D01*
X175990350Y-66306274D01*
X175950000Y-66103416D01*
X175950000Y-65896584D01*
X175951310Y-65890000D01*
X175960100Y-65845806D01*
X175990350Y-65693726D01*
X176069502Y-65502638D01*
X176184411Y-65330664D01*
X176330664Y-65184411D01*
X176502638Y-65069502D01*
X176693726Y-64990350D01*
X176874112Y-64954470D01*
X176896583Y-64950000D01*
X177103417Y-64950000D01*
X177125888Y-64954470D01*
X177125888Y-64954470D01*
G37*
G36*
X97284397Y-65062468D02*
X97461836Y-65135966D01*
X97621527Y-65242668D01*
X97757332Y-65378473D01*
X97864034Y-65538164D01*
X97937532Y-65715603D01*
X97975000Y-65903971D01*
X97975000Y-66096029D01*
X97937532Y-66284397D01*
X97864034Y-66461836D01*
X97757332Y-66621527D01*
X97621527Y-66757332D01*
X97461836Y-66864034D01*
X97284397Y-66937532D01*
X97096029Y-66975000D01*
X96903971Y-66975000D01*
X96715603Y-66937532D01*
X96538164Y-66864034D01*
X96378473Y-66757332D01*
X96242668Y-66621527D01*
X96135966Y-66461836D01*
X96062468Y-66284397D01*
X96025000Y-66096029D01*
X96025000Y-65903971D01*
X96062468Y-65715603D01*
X96135966Y-65538164D01*
X96242668Y-65378473D01*
X96378473Y-65242668D01*
X96538164Y-65135966D01*
X96715603Y-65062468D01*
X96903971Y-65025000D01*
X97096029Y-65025000D01*
X97284397Y-65062468D01*
X97284397Y-65062468D01*
G37*
G36*
X123168667Y-63105722D02*
X123432553Y-63215027D01*
X123670044Y-63373713D01*
X123872007Y-63575676D01*
X124030693Y-63813167D01*
X124139998Y-64077053D01*
X124195720Y-64357186D01*
X124195720Y-64642814D01*
X124139998Y-64922947D01*
X124030693Y-65186833D01*
X123872007Y-65424324D01*
X123670044Y-65626287D01*
X123432553Y-65784973D01*
X123168667Y-65894278D01*
X122888534Y-65950000D01*
X122602906Y-65950000D01*
X122322773Y-65894278D01*
X122058887Y-65784973D01*
X121821396Y-65626287D01*
X121619433Y-65424324D01*
X121460747Y-65186833D01*
X121351442Y-64922947D01*
X121295720Y-64642814D01*
X121295720Y-64357186D01*
X121351442Y-64077053D01*
X121460747Y-63813167D01*
X121619433Y-63575676D01*
X121821396Y-63373713D01*
X122058887Y-63215027D01*
X122322773Y-63105722D01*
X122602906Y-63050000D01*
X122888534Y-63050000D01*
X123168667Y-63105722D01*
X123168667Y-63105722D01*
G37*
G36*
X136308667Y-63105722D02*
X136572553Y-63215027D01*
X136810044Y-63373713D01*
X137012007Y-63575676D01*
X137170693Y-63813167D01*
X137279998Y-64077053D01*
X137335720Y-64357186D01*
X137335720Y-64642814D01*
X137279998Y-64922947D01*
X137170693Y-65186833D01*
X137012007Y-65424324D01*
X136810044Y-65626287D01*
X136572553Y-65784973D01*
X136308667Y-65894278D01*
X136028534Y-65950000D01*
X135742906Y-65950000D01*
X135462773Y-65894278D01*
X135198887Y-65784973D01*
X134961396Y-65626287D01*
X134759433Y-65424324D01*
X134600747Y-65186833D01*
X134491442Y-64922947D01*
X134435720Y-64642814D01*
X134435720Y-64357186D01*
X134491442Y-64077053D01*
X134600747Y-63813167D01*
X134759433Y-63575676D01*
X134961396Y-63373713D01*
X135198887Y-63215027D01*
X135462773Y-63105722D01*
X135742906Y-63050000D01*
X136028534Y-63050000D01*
X136308667Y-63105722D01*
X136308667Y-63105722D01*
G37*
G36*
X99825443Y-63634194D02*
X100034728Y-63720883D01*
X100223085Y-63846739D01*
X100383261Y-64006915D01*
X100509117Y-64195272D01*
X100595806Y-64404557D01*
X100640000Y-64626734D01*
X100640000Y-64853266D01*
X100595806Y-65075443D01*
X100509117Y-65284728D01*
X100383261Y-65473085D01*
X100223085Y-65633261D01*
X100034728Y-65759117D01*
X99825443Y-65845806D01*
X99603266Y-65890000D01*
X99376734Y-65890000D01*
X99154557Y-65845806D01*
X98945272Y-65759117D01*
X98756915Y-65633261D01*
X98596739Y-65473085D01*
X98470883Y-65284728D01*
X98384194Y-65075443D01*
X98340000Y-64853266D01*
X98340000Y-64626734D01*
X98384194Y-64404557D01*
X98470883Y-64195272D01*
X98596739Y-64006915D01*
X98756915Y-63846739D01*
X98945272Y-63720883D01*
X99154557Y-63634194D01*
X99376734Y-63590000D01*
X99603266Y-63590000D01*
X99825443Y-63634194D01*
X99825443Y-63634194D01*
G37*
G36*
X129565720Y-65878000D02*
X129065720Y-65878000D01*
X129065720Y-65378000D01*
X129565720Y-65378000D01*
X129565720Y-65878000D01*
X129565720Y-65878000D01*
G37*
G36*
X129915720Y-65028000D02*
X128715720Y-65028000D01*
X128715720Y-64528000D01*
X129915720Y-64528000D01*
X129915720Y-65028000D01*
X129915720Y-65028000D01*
G37*
G36*
X155389452Y-62359127D02*
X155527105Y-62386508D01*
X155699994Y-62458121D01*
X155855590Y-62562087D01*
X155987913Y-62694410D01*
X156091879Y-62850006D01*
X156163492Y-63022895D01*
X156200000Y-63206433D01*
X156200000Y-63393567D01*
X156163492Y-63577105D01*
X156091879Y-63749994D01*
X155987913Y-63905590D01*
X155855590Y-64037913D01*
X155699994Y-64141879D01*
X155527105Y-64213492D01*
X155399245Y-64238925D01*
X155343568Y-64250000D01*
X155156432Y-64250000D01*
X155100755Y-64238925D01*
X154972895Y-64213492D01*
X154800006Y-64141879D01*
X154644410Y-64037913D01*
X154512087Y-63905590D01*
X154408121Y-63749994D01*
X154336508Y-63577105D01*
X154300000Y-63393567D01*
X154300000Y-63206433D01*
X154336508Y-63022895D01*
X154408121Y-62850006D01*
X154512087Y-62694410D01*
X154644410Y-62562087D01*
X154800006Y-62458121D01*
X154972895Y-62386508D01*
X155110548Y-62359127D01*
X155156432Y-62350000D01*
X155343568Y-62350000D01*
X155389452Y-62359127D01*
X155389452Y-62359127D01*
G37*
G36*
X140889452Y-62359127D02*
X141027105Y-62386508D01*
X141199994Y-62458121D01*
X141355590Y-62562087D01*
X141487913Y-62694410D01*
X141591879Y-62850006D01*
X141663492Y-63022895D01*
X141700000Y-63206433D01*
X141700000Y-63393567D01*
X141663492Y-63577105D01*
X141591879Y-63749994D01*
X141487913Y-63905590D01*
X141355590Y-64037913D01*
X141199994Y-64141879D01*
X141027105Y-64213492D01*
X140899245Y-64238925D01*
X140843568Y-64250000D01*
X140656432Y-64250000D01*
X140600755Y-64238925D01*
X140472895Y-64213492D01*
X140300006Y-64141879D01*
X140144410Y-64037913D01*
X140012087Y-63905590D01*
X139908121Y-63749994D01*
X139836508Y-63577105D01*
X139800000Y-63393567D01*
X139800000Y-63206433D01*
X139836508Y-63022895D01*
X139908121Y-62850006D01*
X140012087Y-62694410D01*
X140144410Y-62562087D01*
X140300006Y-62458121D01*
X140472895Y-62386508D01*
X140610548Y-62359127D01*
X140656432Y-62350000D01*
X140843568Y-62350000D01*
X140889452Y-62359127D01*
X140889452Y-62359127D01*
G37*
G36*
X117809328Y-60674398D02*
X117952334Y-60733632D01*
X118081038Y-60819630D01*
X118190488Y-60929080D01*
X118276486Y-61057784D01*
X118335720Y-61200790D01*
X118365918Y-61352605D01*
X118365918Y-61507395D01*
X118335720Y-61659210D01*
X118276486Y-61802216D01*
X118190488Y-61930920D01*
X118081038Y-62040370D01*
X117952334Y-62126368D01*
X117809328Y-62185602D01*
X117657513Y-62215800D01*
X117502723Y-62215800D01*
X117350908Y-62185602D01*
X117207902Y-62126368D01*
X117079198Y-62040370D01*
X116969748Y-61930920D01*
X116883750Y-61802216D01*
X116824516Y-61659210D01*
X116794318Y-61507395D01*
X116794318Y-61352605D01*
X116824516Y-61200790D01*
X116883750Y-61057784D01*
X116969748Y-60929080D01*
X117079198Y-60819630D01*
X117207902Y-60733632D01*
X117350908Y-60674398D01*
X117502723Y-60644200D01*
X117657513Y-60644200D01*
X117809328Y-60674398D01*
X117809328Y-60674398D01*
G37*
G36*
X104359328Y-60674398D02*
X104502334Y-60733632D01*
X104631038Y-60819630D01*
X104740488Y-60929080D01*
X104826486Y-61057784D01*
X104885720Y-61200790D01*
X104915918Y-61352605D01*
X104915918Y-61507395D01*
X104885720Y-61659210D01*
X104826486Y-61802216D01*
X104740488Y-61930920D01*
X104631038Y-62040370D01*
X104502334Y-62126368D01*
X104359328Y-62185602D01*
X104207513Y-62215800D01*
X104052723Y-62215800D01*
X103900908Y-62185602D01*
X103757902Y-62126368D01*
X103629198Y-62040370D01*
X103519748Y-61930920D01*
X103433750Y-61802216D01*
X103374516Y-61659210D01*
X103344318Y-61507395D01*
X103344318Y-61352605D01*
X103374516Y-61200790D01*
X103433750Y-61057784D01*
X103519748Y-60929080D01*
X103629198Y-60819630D01*
X103757902Y-60733632D01*
X103900908Y-60674398D01*
X104052723Y-60644200D01*
X104207513Y-60644200D01*
X104359328Y-60674398D01*
X104359328Y-60674398D01*
G37*
G36*
X167284998Y-59758280D02*
X167296423Y-59759405D01*
X167357685Y-59777989D01*
X167418948Y-59796573D01*
X167531868Y-59856930D01*
X167630843Y-59938157D01*
X167712070Y-60037132D01*
X167772427Y-60150052D01*
X167809595Y-60272578D01*
X167819000Y-60368069D01*
X167819000Y-60831932D01*
X167810771Y-60915486D01*
X167809595Y-60927423D01*
X167801151Y-60955257D01*
X167772427Y-61049948D01*
X167712070Y-61162868D01*
X167630843Y-61261843D01*
X167531867Y-61343070D01*
X167531865Y-61343071D01*
X167531864Y-61343072D01*
X167483777Y-61368775D01*
X167418947Y-61403427D01*
X167357684Y-61422011D01*
X167296422Y-61440595D01*
X167284997Y-61441720D01*
X167169000Y-61453145D01*
X167053002Y-61441720D01*
X167041577Y-61440595D01*
X166980315Y-61422011D01*
X166919052Y-61403427D01*
X166806132Y-61343070D01*
X166707157Y-61261843D01*
X166625930Y-61162867D01*
X166565573Y-61049947D01*
X166528908Y-60929080D01*
X166528405Y-60927422D01*
X166527229Y-60915485D01*
X166519000Y-60831931D01*
X166519000Y-60368068D01*
X166528405Y-60272578D01*
X166565573Y-60150052D01*
X166625930Y-60037132D01*
X166642092Y-60017439D01*
X166707155Y-59938160D01*
X166707157Y-59938159D01*
X166707158Y-59938157D01*
X166806133Y-59856930D01*
X166919053Y-59796573D01*
X166980316Y-59777989D01*
X167041578Y-59759405D01*
X167053003Y-59758280D01*
X167169000Y-59746855D01*
X167284998Y-59758280D01*
X167284998Y-59758280D01*
G37*
G36*
X162475318Y-59864411D02*
X162547767Y-59878822D01*
X162604303Y-59902240D01*
X162684257Y-59935358D01*
X162807100Y-60017439D01*
X162911561Y-60121900D01*
X162993642Y-60244743D01*
X163026760Y-60324697D01*
X163050178Y-60381233D01*
X163079000Y-60526131D01*
X163079000Y-60673869D01*
X163050178Y-60818767D01*
X163044725Y-60831931D01*
X162993642Y-60955257D01*
X162911561Y-61078100D01*
X162807100Y-61182561D01*
X162684257Y-61264642D01*
X162604303Y-61297760D01*
X162547767Y-61321178D01*
X162475318Y-61335589D01*
X162402870Y-61350000D01*
X162255130Y-61350000D01*
X162182682Y-61335589D01*
X162110233Y-61321178D01*
X162053697Y-61297760D01*
X161973743Y-61264642D01*
X161850900Y-61182561D01*
X161746439Y-61078100D01*
X161664358Y-60955257D01*
X161613275Y-60831931D01*
X161607822Y-60818767D01*
X161579000Y-60673869D01*
X161579000Y-60526131D01*
X161607822Y-60381233D01*
X161631240Y-60324697D01*
X161664358Y-60244743D01*
X161746439Y-60121900D01*
X161850900Y-60017439D01*
X161973743Y-59935358D01*
X162053697Y-59902240D01*
X162110233Y-59878822D01*
X162182682Y-59864411D01*
X162255130Y-59850000D01*
X162402870Y-59850000D01*
X162475318Y-59864411D01*
X162475318Y-59864411D01*
G37*
G36*
X177320857Y-57762272D02*
X177521042Y-57845191D01*
X177521045Y-57845193D01*
X177568805Y-57877105D01*
X177701213Y-57965578D01*
X177854422Y-58118787D01*
X177974809Y-58298958D01*
X178057728Y-58499143D01*
X178100000Y-58711658D01*
X178100000Y-58928342D01*
X178057728Y-59140857D01*
X177974809Y-59341042D01*
X177854422Y-59521213D01*
X177701213Y-59674422D01*
X177701210Y-59674424D01*
X177701209Y-59674425D01*
X177574028Y-59759405D01*
X177521042Y-59794809D01*
X177320857Y-59877728D01*
X177108342Y-59920000D01*
X176891658Y-59920000D01*
X176679143Y-59877728D01*
X176478958Y-59794809D01*
X176425972Y-59759405D01*
X176298791Y-59674425D01*
X176298790Y-59674424D01*
X176298787Y-59674422D01*
X176145578Y-59521213D01*
X176025191Y-59341042D01*
X175942272Y-59140857D01*
X175900000Y-58928342D01*
X175900000Y-58711658D01*
X175942272Y-58499143D01*
X176025191Y-58298958D01*
X176145578Y-58118787D01*
X176298787Y-57965578D01*
X176431196Y-57877105D01*
X176478955Y-57845193D01*
X176478958Y-57845191D01*
X176679143Y-57762272D01*
X176891658Y-57720000D01*
X177108342Y-57720000D01*
X177320857Y-57762272D01*
X177320857Y-57762272D01*
G37*
G36*
X179820857Y-57762272D02*
X180021042Y-57845191D01*
X180021045Y-57845193D01*
X180068805Y-57877105D01*
X180201213Y-57965578D01*
X180354422Y-58118787D01*
X180474809Y-58298958D01*
X180557728Y-58499143D01*
X180600000Y-58711658D01*
X180600000Y-58928342D01*
X180557728Y-59140857D01*
X180474809Y-59341042D01*
X180354422Y-59521213D01*
X180201213Y-59674422D01*
X180201210Y-59674424D01*
X180201209Y-59674425D01*
X180074028Y-59759405D01*
X180021042Y-59794809D01*
X179820857Y-59877728D01*
X179608342Y-59920000D01*
X179391658Y-59920000D01*
X179179143Y-59877728D01*
X178978958Y-59794809D01*
X178925972Y-59759405D01*
X178798791Y-59674425D01*
X178798790Y-59674424D01*
X178798787Y-59674422D01*
X178645578Y-59521213D01*
X178525191Y-59341042D01*
X178442272Y-59140857D01*
X178400000Y-58928342D01*
X178400000Y-58711658D01*
X178442272Y-58499143D01*
X178525191Y-58298958D01*
X178645578Y-58118787D01*
X178798787Y-57965578D01*
X178931196Y-57877105D01*
X178978955Y-57845193D01*
X178978958Y-57845191D01*
X179179143Y-57762272D01*
X179391658Y-57720000D01*
X179608342Y-57720000D01*
X179820857Y-57762272D01*
X179820857Y-57762272D01*
G37*
G36*
X140289451Y-57409127D02*
X140427105Y-57436508D01*
X140599994Y-57508121D01*
X140755590Y-57612087D01*
X140887913Y-57744410D01*
X140991879Y-57900006D01*
X141063492Y-58072895D01*
X141100000Y-58256433D01*
X141100000Y-58443567D01*
X141063492Y-58627105D01*
X140991879Y-58799994D01*
X140887913Y-58955590D01*
X140755590Y-59087913D01*
X140599994Y-59191879D01*
X140427105Y-59263492D01*
X140289452Y-59290873D01*
X140243568Y-59300000D01*
X140056432Y-59300000D01*
X140010548Y-59290873D01*
X139872895Y-59263492D01*
X139700006Y-59191879D01*
X139544410Y-59087913D01*
X139412087Y-58955590D01*
X139308121Y-58799994D01*
X139236508Y-58627105D01*
X139200000Y-58443567D01*
X139200000Y-58256433D01*
X139236508Y-58072895D01*
X139308121Y-57900006D01*
X139412087Y-57744410D01*
X139544410Y-57612087D01*
X139700006Y-57508121D01*
X139872895Y-57436508D01*
X140010549Y-57409127D01*
X140056432Y-57400000D01*
X140243568Y-57400000D01*
X140289451Y-57409127D01*
X140289451Y-57409127D01*
G37*
G36*
X155989451Y-57409127D02*
X156127105Y-57436508D01*
X156299994Y-57508121D01*
X156455590Y-57612087D01*
X156587913Y-57744410D01*
X156691879Y-57900006D01*
X156763492Y-58072895D01*
X156800000Y-58256433D01*
X156800000Y-58443567D01*
X156763492Y-58627105D01*
X156691879Y-58799994D01*
X156587913Y-58955590D01*
X156455590Y-59087913D01*
X156299994Y-59191879D01*
X156127105Y-59263492D01*
X155989452Y-59290873D01*
X155943568Y-59300000D01*
X155756432Y-59300000D01*
X155710548Y-59290873D01*
X155572895Y-59263492D01*
X155400006Y-59191879D01*
X155244410Y-59087913D01*
X155112087Y-58955590D01*
X155008121Y-58799994D01*
X154936508Y-58627105D01*
X154900000Y-58443567D01*
X154900000Y-58256433D01*
X154936508Y-58072895D01*
X155008121Y-57900006D01*
X155112087Y-57744410D01*
X155244410Y-57612087D01*
X155400006Y-57508121D01*
X155572895Y-57436508D01*
X155710549Y-57409127D01*
X155756432Y-57400000D01*
X155943568Y-57400000D01*
X155989451Y-57409127D01*
X155989451Y-57409127D01*
G37*
G36*
X162158451Y-56659127D02*
X162296105Y-56686508D01*
X162468994Y-56758121D01*
X162624590Y-56862087D01*
X162756913Y-56994410D01*
X162860879Y-57150006D01*
X162932492Y-57322895D01*
X162969000Y-57506433D01*
X162969000Y-57693567D01*
X162932492Y-57877105D01*
X162860879Y-58049994D01*
X162756913Y-58205590D01*
X162624590Y-58337913D01*
X162468994Y-58441879D01*
X162296105Y-58513492D01*
X162158451Y-58540873D01*
X162112568Y-58550000D01*
X161925432Y-58550000D01*
X161879549Y-58540873D01*
X161741895Y-58513492D01*
X161569006Y-58441879D01*
X161413410Y-58337913D01*
X161281087Y-58205590D01*
X161177121Y-58049994D01*
X161105508Y-57877105D01*
X161069000Y-57693567D01*
X161069000Y-57506433D01*
X161105508Y-57322895D01*
X161177121Y-57150006D01*
X161281087Y-56994410D01*
X161413410Y-56862087D01*
X161569006Y-56758121D01*
X161741895Y-56686508D01*
X161879549Y-56659127D01*
X161925432Y-56650000D01*
X162112568Y-56650000D01*
X162158451Y-56659127D01*
X162158451Y-56659127D01*
G37*
G36*
X167618451Y-56659127D02*
X167756105Y-56686508D01*
X167928994Y-56758121D01*
X168084590Y-56862087D01*
X168216913Y-56994410D01*
X168320879Y-57150006D01*
X168392492Y-57322895D01*
X168429000Y-57506433D01*
X168429000Y-57693567D01*
X168392492Y-57877105D01*
X168320879Y-58049994D01*
X168216913Y-58205590D01*
X168084590Y-58337913D01*
X167928994Y-58441879D01*
X167756105Y-58513492D01*
X167618451Y-58540873D01*
X167572568Y-58550000D01*
X167385432Y-58550000D01*
X167339549Y-58540873D01*
X167201895Y-58513492D01*
X167029006Y-58441879D01*
X166873410Y-58337913D01*
X166741087Y-58205590D01*
X166637121Y-58049994D01*
X166565508Y-57877105D01*
X166529000Y-57693567D01*
X166529000Y-57506433D01*
X166565508Y-57322895D01*
X166637121Y-57150006D01*
X166741087Y-56994410D01*
X166873410Y-56862087D01*
X167029006Y-56758121D01*
X167201895Y-56686508D01*
X167339549Y-56659127D01*
X167385432Y-56650000D01*
X167572568Y-56650000D01*
X167618451Y-56659127D01*
X167618451Y-56659127D01*
G37*
M02*
