M48
;DRILL file {KiCad 6.0.0-rc1-unknown-f1b2855~84~ubuntu16.04.1} date Tue 23 Oct 2018 11:27:54 AM +08
;FORMAT={-:-/ absolute / metric / decimal}
FMAT,2
METRIC
T1C0.203
T2C0.300
T3C0.400
T4C0.500
T5C0.530
T6C0.650
T7C0.700
T8C0.710
T9C0.800
T10C0.990
T11C1.000
T12C1.200
T13C1.270
T14C1.300
T15C1.450
T16C1.600
T17C1.700
T18C2.300
T19C3.200
T20C3.500
%
G90
G05
M71
T1
X97.0Y-84.0
X98.0Y-74.5
X99.5Y-77.0
X100.0Y-85.0
X101.83Y-92.254
X102.0Y-85.5
X102.542Y-92.254
X103.0Y-82.5
X103.583Y-93.27
X105.534Y-93.27
X105.9Y-118.385
X106.1Y-110.7
X106.25Y-93.27
X107.52Y-94.54
X107.52Y-95.81
X107.52Y-97.08
X108.155Y-77.522
X108.155Y-130.862
X108.5Y-84.5
X108.5Y-103.5
X108.5Y-109.5
X108.5Y-110.5
X108.5Y-118.5
X108.5Y-119.5
X108.6Y-115.9
X108.79Y-93.27
X108.79Y-94.54
X108.79Y-95.81
X108.791Y-117.191
X109.2Y-112.4
X109.2Y-113.3
X109.2Y-114.3
X109.2Y-115.2
X109.2Y-116.5
X109.87Y-132.1
X110.06Y-88.19
X110.06Y-89.46
X110.53Y-132.1
X110.67Y-101.3
X110.67Y-126.9
X111.33Y-77.395
X111.33Y-92.0
X111.33Y-93.27
X111.33Y-94.54
X111.33Y-95.81
X111.33Y-97.08
X111.33Y-101.3
X111.33Y-126.9
X111.409Y-132.488
X112.2Y-121.0
X112.6Y-86.92
X112.6Y-90.73
X112.6Y-95.81
X112.609Y-91.988
X113.0Y-132.5
X113.057Y-126.9
X113.743Y-126.9
X113.87Y-86.92
X113.87Y-88.19
X113.87Y-89.46
X113.87Y-90.73
X113.87Y-93.27
X113.87Y-94.54
X113.879Y-91.988
X114.5Y-133.5
X114.505Y-83.364
X114.6Y-104.0
X114.6Y-119.1
X114.6Y-120.2
X114.7Y-110.4
X114.7Y-113.0
X115.14Y-86.92
X115.14Y-89.46
X115.14Y-93.27
X115.14Y-94.54
X115.149Y-97.881
X115.4Y-132.1
X115.454Y-126.9
X115.784Y-97.322
X115.902Y-77.522
X116.114Y-126.9
X116.209Y-132.488
X116.41Y-88.19
X116.41Y-89.46
X116.419Y-91.988
X116.419Y-93.258
X116.419Y-97.881
X117.68Y-94.54
X117.689Y-90.718
X117.689Y-91.988
X117.689Y-95.798
X117.8Y-132.5
X117.854Y-126.9
X118.54Y-126.9
X118.6Y-132.1
X118.95Y-95.81
X118.959Y-89.448
X118.959Y-90.718
X118.959Y-93.258
X118.959Y-94.528
X119.0Y-133.5
X119.204Y-86.539
X119.4Y-132.5
X119.864Y-85.015
X120.2Y-132.1
X120.22Y-88.19
X120.22Y-89.46
X120.229Y-90.718
X120.229Y-91.988
X120.229Y-94.528
X120.257Y-126.9
X120.576Y-85.015
X120.943Y-126.9
X121.009Y-132.488
X121.49Y-90.73
X121.499Y-91.988
X121.744Y-82.246
X121.744Y-82.958
X121.9Y-102.2
X121.9Y-103.5
X121.9Y-104.7
X121.9Y-112.7
X121.9Y-114.0
X121.9Y-119.0
X122.68Y-126.9
X122.76Y-88.19
X122.76Y-89.46
X122.769Y-91.988
X122.769Y-94.528
X123.366Y-126.9
X123.4Y-132.1
X124.03Y-89.46
X124.03Y-92.0
X124.03Y-93.27
X124.039Y-97.068
X124.2Y-119.2
X124.2Y-121.0
X124.2Y-124.0
X124.2Y-132.5
X125.07Y-101.3
X125.07Y-126.9
X125.3Y-90.73
X125.3Y-92.0
X125.3Y-93.27
X125.73Y-101.3
X125.73Y-126.9
X125.8Y-132.5
X125.96Y-74.474
X126.316Y-72.188
X126.57Y-90.73
X126.57Y-93.27
X126.57Y-94.54
X126.6Y-125.0
X126.6Y-132.1
X126.672Y-74.474
X126.7Y-119.1
X126.7Y-122.2
X127.4Y-132.1
X127.442Y-126.9
X127.84Y-92.0
X127.84Y-94.54
X127.84Y-95.81
X128.128Y-126.9
X128.2Y-132.1
X128.9Y-119.7
X129.0Y-102.5
X129.0Y-113.5
X129.0Y-132.1
X129.008Y-74.474
X129.11Y-90.73
X129.11Y-95.81
X129.11Y-97.08
X129.72Y-74.474
X129.8Y-130.9
X129.8Y-132.1
X130.38Y-86.285
X130.38Y-92.0
X130.38Y-95.81
X130.761Y-82.348
X131.0Y-80.5
X131.0Y-81.5
X131.5Y-104.0
X131.5Y-105.0
X131.5Y-106.0
X131.5Y-113.2
X131.5Y-119.2
X131.5Y-123.1
X131.65Y-88.19
X131.65Y-93.27
X131.929Y-74.474
X132.285Y-72.188
X132.5Y-80.0
X132.5Y-109.5
X132.641Y-74.474
X132.92Y-90.73
X132.92Y-94.54
X134.19Y-88.19
X134.19Y-90.73
X134.19Y-95.81
X135.46Y-90.73
X135.46Y-92.0
X136.0Y-122.0
X136.225Y-73.969
X136.3Y-118.4
X136.5Y-117.0
X136.5Y-126.0
X136.5Y-128.0
X136.727Y-74.471
X136.73Y-90.73
X136.73Y-93.27
X138.0Y-92.0
X138.1Y-84.644
X138.1Y-85.356
X138.3Y-76.7
X138.5Y-114.5
X139.27Y-89.46
X139.27Y-93.27
X139.27Y-94.54
X139.27Y-97.08
X140.0Y-70.0
X140.0Y-107.0
X140.0Y-130.0
X140.0Y-131.5
X140.0Y-133.0
X140.0Y-134.5
X140.5Y-116.5
X140.54Y-89.46
X140.54Y-90.73
X140.54Y-94.54
X140.9Y-69.0
X141.0Y-99.5
X141.0Y-106.0
X141.1Y-76.7
X141.5Y-98.0
X141.5Y-115.7
X141.5Y-131.5
X141.5Y-133.0
X141.5Y-134.5
X141.81Y-89.46
X141.81Y-92.0
X141.81Y-95.81
X142.0Y-119.5
X142.25Y-64.25
X142.5Y-76.7
X143.0Y-131.5
X143.0Y-133.0
X143.0Y-134.5
X143.08Y-89.46
X143.08Y-93.27
X143.544Y-82.631
X143.75Y-62.5
X144.0Y-113.0
X144.1Y-135.7
X144.256Y-82.631
X144.35Y-89.46
X144.35Y-90.73
X144.35Y-94.54
X144.35Y-95.81
X144.5Y-117.0
X144.5Y-131.5
X144.5Y-133.0
X144.6Y-126.4
X144.7Y-128.6
X145.0Y-70.0
X145.0Y-72.5
X145.25Y-62.5
X145.3Y-76.7
X145.62Y-89.46
X145.62Y-90.73
X145.62Y-92.0
X145.62Y-95.81
X145.9Y-135.7
X146.255Y-97.715
X146.5Y-121.0
X146.5Y-122.0
X146.7Y-76.7
X146.75Y-62.5
X146.89Y-92.0
X146.89Y-93.27
X146.89Y-94.54
X147.0Y-70.0
X147.0Y-72.5
X147.2Y-134.5
X147.2Y-135.7
X147.525Y-86.285
X147.744Y-82.7
X148.1Y-133.4
X148.16Y-94.54
X148.16Y-95.81
X148.25Y-62.5
X148.456Y-82.7
X149.1Y-132.9
X149.2Y-126.4
X149.25Y-62.5
X149.43Y-89.46
X149.43Y-94.54
X149.43Y-95.81
X149.43Y-97.08
X149.43Y-98.985
X149.5Y-76.7
X149.5Y-124.7
X150.7Y-89.46
X150.7Y-90.73
X150.7Y-93.27
X150.7Y-95.81
X150.9Y-76.7
X151.0Y-71.5
X151.25Y-62.5
X151.5Y-112.5
X151.844Y-82.7
X151.97Y-90.73
X151.97Y-92.0
X152.5Y-127.0
X152.5Y-128.0
X152.5Y-130.0
X152.5Y-131.5
X152.5Y-133.0
X152.5Y-134.5
X152.556Y-82.7
X152.605Y-97.715
X153.24Y-89.46
X153.24Y-93.27
X153.24Y-94.54
X153.24Y-95.81
X153.24Y-98.35
X153.5Y-76.7
X153.5Y-83.7
X154.0Y-127.0
X154.0Y-131.5
X154.0Y-133.0
X154.0Y-134.5
X154.5Y-72.1
X154.5Y-80.0
X154.5Y-84.5
X154.51Y-104.065
X154.8Y-70.8
X155.5Y-80.0
X155.5Y-131.5
X155.5Y-133.0
X155.5Y-134.5
X155.78Y-111.05
X156.0Y-106.5
X156.0Y-127.0
X157.0Y-112.2
X157.0Y-131.5
X157.0Y-133.0
X157.05Y-115.495
X157.05Y-117.4
X157.1Y-120.9
X157.1Y-122.1
X157.2Y-128.0
X157.9Y-113.1
X158.32Y-89.46
X158.32Y-90.73
X158.32Y-92.0
X158.32Y-93.27
X158.32Y-116.765
X158.5Y-104.0
X158.5Y-127.0
X158.6Y-135.7
X159.3Y-122.1
X159.5Y-76.8
X159.5Y-103.0
X159.9Y-134.1
X159.9Y-135.7
X160.225Y-118.67
X160.225Y-123.115
X160.3Y-71.4
X160.5Y-102.0
X160.6Y-133.4
X160.9Y-113.3
X161.0Y-104.5
X161.1Y-72.1
X161.4Y-126.3
X161.495Y-124.385
X161.5Y-101.0
X161.6Y-132.8
X162.5Y-105.5
X162.5Y-101.0
X162.5Y-108.5
X162.971Y-62.282
X163.254Y-106.246
X163.5Y-77.5
X163.5Y-81.0
X163.5Y-101.0
X163.5Y-114.0
X163.5Y-121.0
X163.7Y-84.4
X164.67Y-86.92
X164.67Y-88.19
X164.67Y-89.46
X164.67Y-90.73
X164.67Y-93.27
X164.7Y-69.5
X164.774Y-64.568
X165.0Y-135.0
X165.13Y-62.282
X165.486Y-64.568
X165.94Y-88.19
X165.94Y-90.73
X165.94Y-93.27
X167.0Y-78.0
X167.0Y-79.0
X167.21Y-95.81
X168.0Y-78.0
X168.0Y-79.0
X168.48Y-92.0
X169.0Y-78.0
X169.0Y-79.0
X169.2Y-126.2
X170.5Y-99.5
X172.5Y-77.5
X173.2Y-76.4
X173.5Y-81.0
X174.2Y-83.5
X175.4Y-126.2
X179.0Y-75.4
X179.0Y-77.6
X179.5Y-69.1
X179.5Y-126.2
X180.0Y-110.5
T2
X166.4Y-71.5
X166.4Y-72.6
X166.4Y-73.7
X168.6Y-71.5
X168.6Y-72.6
X168.6Y-73.7
T3
X110.695Y-65.838
X138.0Y-121.5
X138.5Y-125.0
X142.1Y-70.9
X143.5Y-124.5
X146.0Y-83.5
X146.0Y-125.5
X147.0Y-123.5
X148.5Y-122.0
X149.5Y-120.0
X154.0Y-118.5
X154.6Y-124.5
X156.0Y-76.7
X156.0Y-85.5
X156.3Y-124.5
X162.5Y-112.5
X163.5Y-118.8
X164.5Y-109.0
X171.0Y-108.5
T4
X157.25Y-81.3
X158.5Y-81.3
X159.75Y-81.3
X161.0Y-81.3
T5
X109.375Y-129.488
X112.125Y-129.488
X114.875Y-129.488
X117.625Y-129.488
X120.375Y-129.488
X123.125Y-129.488
X125.875Y-129.488
X128.625Y-129.488
T7
X125.316Y-68.0
X125.316Y-71.2
X125.816Y-66.5
X125.816Y-69.7
X127.316Y-68.0
X127.316Y-71.2
X128.316Y-66.5
X128.316Y-69.7
X129.316Y-68.0
X129.316Y-71.2
X130.316Y-66.5
X130.316Y-69.7
X131.316Y-68.0
X131.316Y-71.2
X132.816Y-66.5
X132.816Y-69.7
X133.316Y-68.0
X133.316Y-71.2
T8
X104.0Y-134.583
X106.74Y-128.073
X131.26Y-128.073
X134.0Y-134.583
T9
X95.9Y-75.5
X180.1Y-71.7
T10
X97.0Y-66.0
X97.0Y-70.5
T11
X99.46Y-100.64
X99.46Y-103.18
X99.46Y-105.72
X99.46Y-108.26
X99.46Y-110.8
X99.46Y-113.34
X99.46Y-115.88
X99.46Y-118.42
X99.46Y-120.96
X99.46Y-123.5
X102.0Y-100.64
X102.0Y-103.18
X102.0Y-105.72
X102.0Y-108.26
X102.0Y-110.8
X102.0Y-113.34
X102.0Y-115.88
X102.0Y-118.42
X102.0Y-120.96
X102.0Y-123.5
X104.13Y-61.43
X104.13Y-63.46
X105.14Y-72.35
X106.41Y-74.89
X107.68Y-72.35
X108.95Y-74.89
X110.22Y-72.35
X111.49Y-74.89
X112.76Y-72.35
X114.03Y-74.89
X115.3Y-72.35
X116.57Y-74.89
X117.58Y-61.43
X117.58Y-63.46
X174.5Y-99.0
X174.5Y-101.54
X174.5Y-104.08
X174.5Y-106.62
X174.5Y-109.16
X177.04Y-99.0
X177.04Y-101.54
X177.04Y-104.08
X177.04Y-106.62
X177.04Y-109.16
X162.329Y-60.6
T12
X177.0Y-66.0
X179.5Y-66.0
X162.019Y-57.6
X167.479Y-57.6
T13
X104.46Y-95.05
X171.54Y-92.0
T14
X140.15Y-58.35
X140.75Y-63.3
X155.25Y-63.3
X155.85Y-58.35
X99.49Y-64.74
X99.49Y-71.75
T15
X106.1Y-133.013
X131.9Y-133.013
T16
X177.0Y-58.82
X179.5Y-58.82
T17
X102.98Y-69.05
X118.73Y-69.05
T18
X122.746Y-64.5
X122.746Y-70.18
X135.886Y-64.5
X135.886Y-70.18
T19
X105.14Y-66.0
X116.57Y-66.0
T20
X98.5Y-59.5
X172.0Y-59.5
X98.5Y-88.6
X98.5Y-130.32
X177.5Y-88.6
X177.5Y-130.32
T6
G00X167.169Y-60.4
M15
G01X167.169Y-60.8
M16
G05
T0
M30
