G04 #@! TF.GenerationSoftware,KiCad,Pcbnew,5.99.0-unknown-3cd1208~100~ubuntu18.04.1*
G04 #@! TF.CreationDate,2019-09-26T13:34:42+08:00*
G04 #@! TF.ProjectId,external_camera,65787465-726e-4616-9c5f-63616d657261,rev?*
G04 #@! TF.SameCoordinates,Original*
G04 #@! TF.FileFunction,Legend,Bot*
G04 #@! TF.FilePolarity,Positive*
%FSLAX46Y46*%
G04 Gerber Fmt 4.6, Leading zero omitted, Abs format (unit mm)*
G04 Created by KiCad (PCBNEW 5.99.0-unknown-3cd1208~100~ubuntu18.04.1) date 2019-09-26 13:34:42*
%MOMM*%
%LPD*%
G04 APERTURE LIST*
%ADD10C,0.120000*%
%ADD11C,0.150000*%
G04 APERTURE END LIST*
D10*
X99000000Y-100000000D02*
X99000000Y-80000000D01*
X99000000Y-80000000D02*
X94000000Y-80000000D01*
X99000000Y-100000000D02*
X94000000Y-100000000D01*
X94000000Y-100000000D02*
X94000000Y-80000000D01*
D11*
X123342857Y-84057142D02*
X123390476Y-84104761D01*
X123533333Y-84152380D01*
X123628571Y-84152380D01*
X123771428Y-84104761D01*
X123866666Y-84009523D01*
X123914285Y-83914285D01*
X123961904Y-83723809D01*
X123961904Y-83580952D01*
X123914285Y-83390476D01*
X123866666Y-83295238D01*
X123771428Y-83200000D01*
X123628571Y-83152380D01*
X123533333Y-83152380D01*
X123390476Y-83200000D01*
X123342857Y-83247619D01*
X122485714Y-83485714D02*
X122485714Y-84152380D01*
X122723809Y-83104761D02*
X122961904Y-83819047D01*
X122342857Y-83819047D01*
X121485714Y-83152380D02*
X121961904Y-83152380D01*
X122009523Y-83628571D01*
X121961904Y-83580952D01*
X121866666Y-83533333D01*
X121628571Y-83533333D01*
X121533333Y-83580952D01*
X121485714Y-83628571D01*
X121438095Y-83723809D01*
X121438095Y-83961904D01*
X121485714Y-84057142D01*
X121533333Y-84104761D01*
X121628571Y-84152380D01*
X121866666Y-84152380D01*
X121961904Y-84104761D01*
X122009523Y-84057142D01*
X123342857Y-82857142D02*
X123390476Y-82904761D01*
X123533333Y-82952380D01*
X123628571Y-82952380D01*
X123771428Y-82904761D01*
X123866666Y-82809523D01*
X123914285Y-82714285D01*
X123961904Y-82523809D01*
X123961904Y-82380952D01*
X123914285Y-82190476D01*
X123866666Y-82095238D01*
X123771428Y-82000000D01*
X123628571Y-81952380D01*
X123533333Y-81952380D01*
X123390476Y-82000000D01*
X123342857Y-82047619D01*
X122485714Y-82285714D02*
X122485714Y-82952380D01*
X122723809Y-81904761D02*
X122961904Y-82619047D01*
X122342857Y-82619047D01*
X122057142Y-81952380D02*
X121438095Y-81952380D01*
X121771428Y-82333333D01*
X121628571Y-82333333D01*
X121533333Y-82380952D01*
X121485714Y-82428571D01*
X121438095Y-82523809D01*
X121438095Y-82761904D01*
X121485714Y-82857142D01*
X121533333Y-82904761D01*
X121628571Y-82952380D01*
X121914285Y-82952380D01*
X122009523Y-82904761D01*
X122057142Y-82857142D01*
X165857142Y-92857142D02*
X165904761Y-92809523D01*
X165952380Y-92666666D01*
X165952380Y-92571428D01*
X165904761Y-92428571D01*
X165809523Y-92333333D01*
X165714285Y-92285714D01*
X165523809Y-92238095D01*
X165380952Y-92238095D01*
X165190476Y-92285714D01*
X165095238Y-92333333D01*
X165000000Y-92428571D01*
X164952380Y-92571428D01*
X164952380Y-92666666D01*
X165000000Y-92809523D01*
X165047619Y-92857142D01*
X164952380Y-93190476D02*
X164952380Y-93809523D01*
X165333333Y-93476190D01*
X165333333Y-93619047D01*
X165380952Y-93714285D01*
X165428571Y-93761904D01*
X165523809Y-93809523D01*
X165761904Y-93809523D01*
X165857142Y-93761904D01*
X165904761Y-93714285D01*
X165952380Y-93619047D01*
X165952380Y-93333333D01*
X165904761Y-93238095D01*
X165857142Y-93190476D01*
X165380952Y-94380952D02*
X165333333Y-94285714D01*
X165285714Y-94238095D01*
X165190476Y-94190476D01*
X165142857Y-94190476D01*
X165047619Y-94238095D01*
X165000000Y-94285714D01*
X164952380Y-94380952D01*
X164952380Y-94571428D01*
X165000000Y-94666666D01*
X165047619Y-94714285D01*
X165142857Y-94761904D01*
X165190476Y-94761904D01*
X165285714Y-94714285D01*
X165333333Y-94666666D01*
X165380952Y-94571428D01*
X165380952Y-94380952D01*
X165428571Y-94285714D01*
X165476190Y-94238095D01*
X165571428Y-94190476D01*
X165761904Y-94190476D01*
X165857142Y-94238095D01*
X165904761Y-94285714D01*
X165952380Y-94380952D01*
X165952380Y-94571428D01*
X165904761Y-94666666D01*
X165857142Y-94714285D01*
X165761904Y-94761904D01*
X165571428Y-94761904D01*
X165476190Y-94714285D01*
X165428571Y-94666666D01*
X165380952Y-94571428D01*
X166642857Y-84357142D02*
X166690476Y-84404761D01*
X166833333Y-84452380D01*
X166928571Y-84452380D01*
X167071428Y-84404761D01*
X167166666Y-84309523D01*
X167214285Y-84214285D01*
X167261904Y-84023809D01*
X167261904Y-83880952D01*
X167214285Y-83690476D01*
X167166666Y-83595238D01*
X167071428Y-83500000D01*
X166928571Y-83452380D01*
X166833333Y-83452380D01*
X166690476Y-83500000D01*
X166642857Y-83547619D01*
X166309523Y-83452380D02*
X165690476Y-83452380D01*
X166023809Y-83833333D01*
X165880952Y-83833333D01*
X165785714Y-83880952D01*
X165738095Y-83928571D01*
X165690476Y-84023809D01*
X165690476Y-84261904D01*
X165738095Y-84357142D01*
X165785714Y-84404761D01*
X165880952Y-84452380D01*
X166166666Y-84452380D01*
X166261904Y-84404761D01*
X166309523Y-84357142D01*
X165357142Y-83452380D02*
X164690476Y-83452380D01*
X165119047Y-84452380D01*
X168642857Y-88857142D02*
X168690476Y-88904761D01*
X168833333Y-88952380D01*
X168928571Y-88952380D01*
X169071428Y-88904761D01*
X169166666Y-88809523D01*
X169214285Y-88714285D01*
X169261904Y-88523809D01*
X169261904Y-88380952D01*
X169214285Y-88190476D01*
X169166666Y-88095238D01*
X169071428Y-88000000D01*
X168928571Y-87952380D01*
X168833333Y-87952380D01*
X168690476Y-88000000D01*
X168642857Y-88047619D01*
X168309523Y-87952380D02*
X167690476Y-87952380D01*
X168023809Y-88333333D01*
X167880952Y-88333333D01*
X167785714Y-88380952D01*
X167738095Y-88428571D01*
X167690476Y-88523809D01*
X167690476Y-88761904D01*
X167738095Y-88857142D01*
X167785714Y-88904761D01*
X167880952Y-88952380D01*
X168166666Y-88952380D01*
X168261904Y-88904761D01*
X168309523Y-88857142D01*
X166833333Y-87952380D02*
X167023809Y-87952380D01*
X167119047Y-88000000D01*
X167166666Y-88047619D01*
X167261904Y-88190476D01*
X167309523Y-88380952D01*
X167309523Y-88761904D01*
X167261904Y-88857142D01*
X167214285Y-88904761D01*
X167119047Y-88952380D01*
X166928571Y-88952380D01*
X166833333Y-88904761D01*
X166785714Y-88857142D01*
X166738095Y-88761904D01*
X166738095Y-88523809D01*
X166785714Y-88428571D01*
X166833333Y-88380952D01*
X166928571Y-88333333D01*
X167119047Y-88333333D01*
X167214285Y-88380952D01*
X167261904Y-88428571D01*
X167309523Y-88523809D01*
X166642857Y-82857142D02*
X166690476Y-82904761D01*
X166833333Y-82952380D01*
X166928571Y-82952380D01*
X167071428Y-82904761D01*
X167166666Y-82809523D01*
X167214285Y-82714285D01*
X167261904Y-82523809D01*
X167261904Y-82380952D01*
X167214285Y-82190476D01*
X167166666Y-82095238D01*
X167071428Y-82000000D01*
X166928571Y-81952380D01*
X166833333Y-81952380D01*
X166690476Y-82000000D01*
X166642857Y-82047619D01*
X166309523Y-81952380D02*
X165690476Y-81952380D01*
X166023809Y-82333333D01*
X165880952Y-82333333D01*
X165785714Y-82380952D01*
X165738095Y-82428571D01*
X165690476Y-82523809D01*
X165690476Y-82761904D01*
X165738095Y-82857142D01*
X165785714Y-82904761D01*
X165880952Y-82952380D01*
X166166666Y-82952380D01*
X166261904Y-82904761D01*
X166309523Y-82857142D01*
X164785714Y-81952380D02*
X165261904Y-81952380D01*
X165309523Y-82428571D01*
X165261904Y-82380952D01*
X165166666Y-82333333D01*
X164928571Y-82333333D01*
X164833333Y-82380952D01*
X164785714Y-82428571D01*
X164738095Y-82523809D01*
X164738095Y-82761904D01*
X164785714Y-82857142D01*
X164833333Y-82904761D01*
X164928571Y-82952380D01*
X165166666Y-82952380D01*
X165261904Y-82904761D01*
X165309523Y-82857142D01*
X171142857Y-93057142D02*
X171190476Y-93104761D01*
X171333333Y-93152380D01*
X171428571Y-93152380D01*
X171571428Y-93104761D01*
X171666666Y-93009523D01*
X171714285Y-92914285D01*
X171761904Y-92723809D01*
X171761904Y-92580952D01*
X171714285Y-92390476D01*
X171666666Y-92295238D01*
X171571428Y-92200000D01*
X171428571Y-92152380D01*
X171333333Y-92152380D01*
X171190476Y-92200000D01*
X171142857Y-92247619D01*
X170809523Y-92152380D02*
X170190476Y-92152380D01*
X170523809Y-92533333D01*
X170380952Y-92533333D01*
X170285714Y-92580952D01*
X170238095Y-92628571D01*
X170190476Y-92723809D01*
X170190476Y-92961904D01*
X170238095Y-93057142D01*
X170285714Y-93104761D01*
X170380952Y-93152380D01*
X170666666Y-93152380D01*
X170761904Y-93104761D01*
X170809523Y-93057142D01*
X169333333Y-92485714D02*
X169333333Y-93152380D01*
X169571428Y-92104761D02*
X169809523Y-92819047D01*
X169190476Y-92819047D01*
X163357142Y-93357142D02*
X163404761Y-93309523D01*
X163452380Y-93166666D01*
X163452380Y-93071428D01*
X163404761Y-92928571D01*
X163309523Y-92833333D01*
X163214285Y-92785714D01*
X163023809Y-92738095D01*
X162880952Y-92738095D01*
X162690476Y-92785714D01*
X162595238Y-92833333D01*
X162500000Y-92928571D01*
X162452380Y-93071428D01*
X162452380Y-93166666D01*
X162500000Y-93309523D01*
X162547619Y-93357142D01*
X162452380Y-93690476D02*
X162452380Y-94309523D01*
X162833333Y-93976190D01*
X162833333Y-94119047D01*
X162880952Y-94214285D01*
X162928571Y-94261904D01*
X163023809Y-94309523D01*
X163261904Y-94309523D01*
X163357142Y-94261904D01*
X163404761Y-94214285D01*
X163452380Y-94119047D01*
X163452380Y-93833333D01*
X163404761Y-93738095D01*
X163357142Y-93690476D01*
X162452380Y-94642857D02*
X162452380Y-95261904D01*
X162833333Y-94928571D01*
X162833333Y-95071428D01*
X162880952Y-95166666D01*
X162928571Y-95214285D01*
X163023809Y-95261904D01*
X163261904Y-95261904D01*
X163357142Y-95214285D01*
X163404761Y-95166666D01*
X163452380Y-95071428D01*
X163452380Y-94785714D01*
X163404761Y-94690476D01*
X163357142Y-94642857D01*
X170142857Y-84357142D02*
X170190476Y-84404761D01*
X170333333Y-84452380D01*
X170428571Y-84452380D01*
X170571428Y-84404761D01*
X170666666Y-84309523D01*
X170714285Y-84214285D01*
X170761904Y-84023809D01*
X170761904Y-83880952D01*
X170714285Y-83690476D01*
X170666666Y-83595238D01*
X170571428Y-83500000D01*
X170428571Y-83452380D01*
X170333333Y-83452380D01*
X170190476Y-83500000D01*
X170142857Y-83547619D01*
X169809523Y-83452380D02*
X169190476Y-83452380D01*
X169523809Y-83833333D01*
X169380952Y-83833333D01*
X169285714Y-83880952D01*
X169238095Y-83928571D01*
X169190476Y-84023809D01*
X169190476Y-84261904D01*
X169238095Y-84357142D01*
X169285714Y-84404761D01*
X169380952Y-84452380D01*
X169666666Y-84452380D01*
X169761904Y-84404761D01*
X169809523Y-84357142D01*
X168809523Y-83547619D02*
X168761904Y-83500000D01*
X168666666Y-83452380D01*
X168428571Y-83452380D01*
X168333333Y-83500000D01*
X168285714Y-83547619D01*
X168238095Y-83642857D01*
X168238095Y-83738095D01*
X168285714Y-83880952D01*
X168857142Y-84452380D01*
X168238095Y-84452380D01*
X163642857Y-89357142D02*
X163690476Y-89404761D01*
X163833333Y-89452380D01*
X163928571Y-89452380D01*
X164071428Y-89404761D01*
X164166666Y-89309523D01*
X164214285Y-89214285D01*
X164261904Y-89023809D01*
X164261904Y-88880952D01*
X164214285Y-88690476D01*
X164166666Y-88595238D01*
X164071428Y-88500000D01*
X163928571Y-88452380D01*
X163833333Y-88452380D01*
X163690476Y-88500000D01*
X163642857Y-88547619D01*
X163309523Y-88452380D02*
X162690476Y-88452380D01*
X163023809Y-88833333D01*
X162880952Y-88833333D01*
X162785714Y-88880952D01*
X162738095Y-88928571D01*
X162690476Y-89023809D01*
X162690476Y-89261904D01*
X162738095Y-89357142D01*
X162785714Y-89404761D01*
X162880952Y-89452380D01*
X163166666Y-89452380D01*
X163261904Y-89404761D01*
X163309523Y-89357142D01*
X161738095Y-89452380D02*
X162309523Y-89452380D01*
X162023809Y-89452380D02*
X162023809Y-88452380D01*
X162119047Y-88595238D01*
X162214285Y-88690476D01*
X162309523Y-88738095D01*
X158642857Y-90457857D02*
X158595238Y-90505476D01*
X158547619Y-90648333D01*
X158547619Y-90743571D01*
X158595238Y-90886428D01*
X158690476Y-90981666D01*
X158785714Y-91029285D01*
X158976190Y-91076904D01*
X159119047Y-91076904D01*
X159309523Y-91029285D01*
X159404761Y-90981666D01*
X159500000Y-90886428D01*
X159547619Y-90743571D01*
X159547619Y-90648333D01*
X159500000Y-90505476D01*
X159452380Y-90457857D01*
X159547619Y-90124523D02*
X159547619Y-89505476D01*
X159166666Y-89838809D01*
X159166666Y-89695952D01*
X159119047Y-89600714D01*
X159071428Y-89553095D01*
X158976190Y-89505476D01*
X158738095Y-89505476D01*
X158642857Y-89553095D01*
X158595238Y-89600714D01*
X158547619Y-89695952D01*
X158547619Y-89981666D01*
X158595238Y-90076904D01*
X158642857Y-90124523D01*
X159547619Y-88886428D02*
X159547619Y-88791190D01*
X159500000Y-88695952D01*
X159452380Y-88648333D01*
X159357142Y-88600714D01*
X159166666Y-88553095D01*
X158928571Y-88553095D01*
X158738095Y-88600714D01*
X158642857Y-88648333D01*
X158595238Y-88695952D01*
X158547619Y-88791190D01*
X158547619Y-88886428D01*
X158595238Y-88981666D01*
X158642857Y-89029285D01*
X158738095Y-89076904D01*
X158928571Y-89124523D01*
X159166666Y-89124523D01*
X159357142Y-89076904D01*
X159452380Y-89029285D01*
X159500000Y-88981666D01*
X159547619Y-88886428D01*
X171142857Y-89857142D02*
X171190476Y-89904761D01*
X171333333Y-89952380D01*
X171428571Y-89952380D01*
X171571428Y-89904761D01*
X171666666Y-89809523D01*
X171714285Y-89714285D01*
X171761904Y-89523809D01*
X171761904Y-89380952D01*
X171714285Y-89190476D01*
X171666666Y-89095238D01*
X171571428Y-89000000D01*
X171428571Y-88952380D01*
X171333333Y-88952380D01*
X171190476Y-89000000D01*
X171142857Y-89047619D01*
X170761904Y-89047619D02*
X170714285Y-89000000D01*
X170619047Y-88952380D01*
X170380952Y-88952380D01*
X170285714Y-89000000D01*
X170238095Y-89047619D01*
X170190476Y-89142857D01*
X170190476Y-89238095D01*
X170238095Y-89380952D01*
X170809523Y-89952380D01*
X170190476Y-89952380D01*
X169714285Y-89952380D02*
X169523809Y-89952380D01*
X169428571Y-89904761D01*
X169380952Y-89857142D01*
X169285714Y-89714285D01*
X169238095Y-89523809D01*
X169238095Y-89142857D01*
X169285714Y-89047619D01*
X169333333Y-89000000D01*
X169428571Y-88952380D01*
X169619047Y-88952380D01*
X169714285Y-89000000D01*
X169761904Y-89047619D01*
X169809523Y-89142857D01*
X169809523Y-89380952D01*
X169761904Y-89476190D01*
X169714285Y-89523809D01*
X169619047Y-89571428D01*
X169428571Y-89571428D01*
X169333333Y-89523809D01*
X169285714Y-89476190D01*
X169238095Y-89380952D01*
X163142857Y-84357142D02*
X163190476Y-84404761D01*
X163333333Y-84452380D01*
X163428571Y-84452380D01*
X163571428Y-84404761D01*
X163666666Y-84309523D01*
X163714285Y-84214285D01*
X163761904Y-84023809D01*
X163761904Y-83880952D01*
X163714285Y-83690476D01*
X163666666Y-83595238D01*
X163571428Y-83500000D01*
X163428571Y-83452380D01*
X163333333Y-83452380D01*
X163190476Y-83500000D01*
X163142857Y-83547619D01*
X162761904Y-83547619D02*
X162714285Y-83500000D01*
X162619047Y-83452380D01*
X162380952Y-83452380D01*
X162285714Y-83500000D01*
X162238095Y-83547619D01*
X162190476Y-83642857D01*
X162190476Y-83738095D01*
X162238095Y-83880952D01*
X162809523Y-84452380D01*
X162190476Y-84452380D01*
X161619047Y-83880952D02*
X161714285Y-83833333D01*
X161761904Y-83785714D01*
X161809523Y-83690476D01*
X161809523Y-83642857D01*
X161761904Y-83547619D01*
X161714285Y-83500000D01*
X161619047Y-83452380D01*
X161428571Y-83452380D01*
X161333333Y-83500000D01*
X161285714Y-83547619D01*
X161238095Y-83642857D01*
X161238095Y-83690476D01*
X161285714Y-83785714D01*
X161333333Y-83833333D01*
X161428571Y-83880952D01*
X161619047Y-83880952D01*
X161714285Y-83928571D01*
X161761904Y-83976190D01*
X161809523Y-84071428D01*
X161809523Y-84261904D01*
X161761904Y-84357142D01*
X161714285Y-84404761D01*
X161619047Y-84452380D01*
X161428571Y-84452380D01*
X161333333Y-84404761D01*
X161285714Y-84357142D01*
X161238095Y-84261904D01*
X161238095Y-84071428D01*
X161285714Y-83976190D01*
X161333333Y-83928571D01*
X161428571Y-83880952D01*
X157342857Y-90457857D02*
X157295238Y-90505476D01*
X157247619Y-90648333D01*
X157247619Y-90743571D01*
X157295238Y-90886428D01*
X157390476Y-90981666D01*
X157485714Y-91029285D01*
X157676190Y-91076904D01*
X157819047Y-91076904D01*
X158009523Y-91029285D01*
X158104761Y-90981666D01*
X158200000Y-90886428D01*
X158247619Y-90743571D01*
X158247619Y-90648333D01*
X158200000Y-90505476D01*
X158152380Y-90457857D01*
X158152380Y-90076904D02*
X158200000Y-90029285D01*
X158247619Y-89934047D01*
X158247619Y-89695952D01*
X158200000Y-89600714D01*
X158152380Y-89553095D01*
X158057142Y-89505476D01*
X157961904Y-89505476D01*
X157819047Y-89553095D01*
X157247619Y-90124523D01*
X157247619Y-89505476D01*
X158247619Y-89172142D02*
X158247619Y-88505476D01*
X157247619Y-88934047D01*
X171142857Y-91357142D02*
X171190476Y-91404761D01*
X171333333Y-91452380D01*
X171428571Y-91452380D01*
X171571428Y-91404761D01*
X171666666Y-91309523D01*
X171714285Y-91214285D01*
X171761904Y-91023809D01*
X171761904Y-90880952D01*
X171714285Y-90690476D01*
X171666666Y-90595238D01*
X171571428Y-90500000D01*
X171428571Y-90452380D01*
X171333333Y-90452380D01*
X171190476Y-90500000D01*
X171142857Y-90547619D01*
X170761904Y-90547619D02*
X170714285Y-90500000D01*
X170619047Y-90452380D01*
X170380952Y-90452380D01*
X170285714Y-90500000D01*
X170238095Y-90547619D01*
X170190476Y-90642857D01*
X170190476Y-90738095D01*
X170238095Y-90880952D01*
X170809523Y-91452380D01*
X170190476Y-91452380D01*
X169333333Y-90452380D02*
X169523809Y-90452380D01*
X169619047Y-90500000D01*
X169666666Y-90547619D01*
X169761904Y-90690476D01*
X169809523Y-90880952D01*
X169809523Y-91261904D01*
X169761904Y-91357142D01*
X169714285Y-91404761D01*
X169619047Y-91452380D01*
X169428571Y-91452380D01*
X169333333Y-91404761D01*
X169285714Y-91357142D01*
X169238095Y-91261904D01*
X169238095Y-91023809D01*
X169285714Y-90928571D01*
X169333333Y-90880952D01*
X169428571Y-90833333D01*
X169619047Y-90833333D01*
X169714285Y-90880952D01*
X169761904Y-90928571D01*
X169809523Y-91023809D01*
X163142857Y-82857142D02*
X163190476Y-82904761D01*
X163333333Y-82952380D01*
X163428571Y-82952380D01*
X163571428Y-82904761D01*
X163666666Y-82809523D01*
X163714285Y-82714285D01*
X163761904Y-82523809D01*
X163761904Y-82380952D01*
X163714285Y-82190476D01*
X163666666Y-82095238D01*
X163571428Y-82000000D01*
X163428571Y-81952380D01*
X163333333Y-81952380D01*
X163190476Y-82000000D01*
X163142857Y-82047619D01*
X162761904Y-82047619D02*
X162714285Y-82000000D01*
X162619047Y-81952380D01*
X162380952Y-81952380D01*
X162285714Y-82000000D01*
X162238095Y-82047619D01*
X162190476Y-82142857D01*
X162190476Y-82238095D01*
X162238095Y-82380952D01*
X162809523Y-82952380D01*
X162190476Y-82952380D01*
X161285714Y-81952380D02*
X161761904Y-81952380D01*
X161809523Y-82428571D01*
X161761904Y-82380952D01*
X161666666Y-82333333D01*
X161428571Y-82333333D01*
X161333333Y-82380952D01*
X161285714Y-82428571D01*
X161238095Y-82523809D01*
X161238095Y-82761904D01*
X161285714Y-82857142D01*
X161333333Y-82904761D01*
X161428571Y-82952380D01*
X161666666Y-82952380D01*
X161761904Y-82904761D01*
X161809523Y-82857142D01*
X45514285Y-93285714D02*
X45552380Y-93323809D01*
X45666666Y-93361904D01*
X45742857Y-93361904D01*
X45857142Y-93323809D01*
X45933333Y-93247619D01*
X45971428Y-93171428D01*
X46009523Y-93019047D01*
X46009523Y-92904761D01*
X45971428Y-92752380D01*
X45933333Y-92676190D01*
X45857142Y-92600000D01*
X45742857Y-92561904D01*
X45666666Y-92561904D01*
X45552380Y-92600000D01*
X45514285Y-92638095D01*
X45209523Y-92638095D02*
X45171428Y-92600000D01*
X45095238Y-92561904D01*
X44904761Y-92561904D01*
X44828571Y-92600000D01*
X44790476Y-92638095D01*
X44752380Y-92714285D01*
X44752380Y-92790476D01*
X44790476Y-92904761D01*
X45247619Y-93361904D01*
X44752380Y-93361904D01*
X44066666Y-92828571D02*
X44066666Y-93361904D01*
X44257142Y-92523809D02*
X44447619Y-93095238D01*
X43952380Y-93095238D01*
X50642857Y-90357142D02*
X50690476Y-90404761D01*
X50833333Y-90452380D01*
X50928571Y-90452380D01*
X51071428Y-90404761D01*
X51166666Y-90309523D01*
X51214285Y-90214285D01*
X51261904Y-90023809D01*
X51261904Y-89880952D01*
X51214285Y-89690476D01*
X51166666Y-89595238D01*
X51071428Y-89500000D01*
X50928571Y-89452380D01*
X50833333Y-89452380D01*
X50690476Y-89500000D01*
X50642857Y-89547619D01*
X50261904Y-89547619D02*
X50214285Y-89500000D01*
X50119047Y-89452380D01*
X49880952Y-89452380D01*
X49785714Y-89500000D01*
X49738095Y-89547619D01*
X49690476Y-89642857D01*
X49690476Y-89738095D01*
X49738095Y-89880952D01*
X50309523Y-90452380D01*
X49690476Y-90452380D01*
X49309523Y-89547619D02*
X49261904Y-89500000D01*
X49166666Y-89452380D01*
X48928571Y-89452380D01*
X48833333Y-89500000D01*
X48785714Y-89547619D01*
X48738095Y-89642857D01*
X48738095Y-89738095D01*
X48785714Y-89880952D01*
X49357142Y-90452380D01*
X48738095Y-90452380D01*
X47842857Y-94812142D02*
X47890476Y-94859761D01*
X48033333Y-94907380D01*
X48128571Y-94907380D01*
X48271428Y-94859761D01*
X48366666Y-94764523D01*
X48414285Y-94669285D01*
X48461904Y-94478809D01*
X48461904Y-94335952D01*
X48414285Y-94145476D01*
X48366666Y-94050238D01*
X48271428Y-93955000D01*
X48128571Y-93907380D01*
X48033333Y-93907380D01*
X47890476Y-93955000D01*
X47842857Y-94002619D01*
X47461904Y-94002619D02*
X47414285Y-93955000D01*
X47319047Y-93907380D01*
X47080952Y-93907380D01*
X46985714Y-93955000D01*
X46938095Y-94002619D01*
X46890476Y-94097857D01*
X46890476Y-94193095D01*
X46938095Y-94335952D01*
X47509523Y-94907380D01*
X46890476Y-94907380D01*
X45938095Y-94907380D02*
X46509523Y-94907380D01*
X46223809Y-94907380D02*
X46223809Y-93907380D01*
X46319047Y-94050238D01*
X46414285Y-94145476D01*
X46509523Y-94193095D01*
X40642857Y-91857142D02*
X40690476Y-91904761D01*
X40833333Y-91952380D01*
X40928571Y-91952380D01*
X41071428Y-91904761D01*
X41166666Y-91809523D01*
X41214285Y-91714285D01*
X41261904Y-91523809D01*
X41261904Y-91380952D01*
X41214285Y-91190476D01*
X41166666Y-91095238D01*
X41071428Y-91000000D01*
X40928571Y-90952380D01*
X40833333Y-90952380D01*
X40690476Y-91000000D01*
X40642857Y-91047619D01*
X39690476Y-91952380D02*
X40261904Y-91952380D01*
X39976190Y-91952380D02*
X39976190Y-90952380D01*
X40071428Y-91095238D01*
X40166666Y-91190476D01*
X40261904Y-91238095D01*
X39214285Y-91952380D02*
X39023809Y-91952380D01*
X38928571Y-91904761D01*
X38880952Y-91857142D01*
X38785714Y-91714285D01*
X38738095Y-91523809D01*
X38738095Y-91142857D01*
X38785714Y-91047619D01*
X38833333Y-91000000D01*
X38928571Y-90952380D01*
X39119047Y-90952380D01*
X39214285Y-91000000D01*
X39261904Y-91047619D01*
X39309523Y-91142857D01*
X39309523Y-91380952D01*
X39261904Y-91476190D01*
X39214285Y-91523809D01*
X39119047Y-91571428D01*
X38928571Y-91571428D01*
X38833333Y-91523809D01*
X38785714Y-91476190D01*
X38738095Y-91380952D01*
X44285714Y-88485714D02*
X44323809Y-88447619D01*
X44361904Y-88333333D01*
X44361904Y-88257142D01*
X44323809Y-88142857D01*
X44247619Y-88066666D01*
X44171428Y-88028571D01*
X44019047Y-87990476D01*
X43904761Y-87990476D01*
X43752380Y-88028571D01*
X43676190Y-88066666D01*
X43600000Y-88142857D01*
X43561904Y-88257142D01*
X43561904Y-88333333D01*
X43600000Y-88447619D01*
X43638095Y-88485714D01*
X44361904Y-89247619D02*
X44361904Y-88790476D01*
X44361904Y-89019047D02*
X43561904Y-89019047D01*
X43676190Y-88942857D01*
X43752380Y-88866666D01*
X43790476Y-88790476D01*
X43904761Y-89704761D02*
X43866666Y-89628571D01*
X43828571Y-89590476D01*
X43752380Y-89552380D01*
X43714285Y-89552380D01*
X43638095Y-89590476D01*
X43600000Y-89628571D01*
X43561904Y-89704761D01*
X43561904Y-89857142D01*
X43600000Y-89933333D01*
X43638095Y-89971428D01*
X43714285Y-90009523D01*
X43752380Y-90009523D01*
X43828571Y-89971428D01*
X43866666Y-89933333D01*
X43904761Y-89857142D01*
X43904761Y-89704761D01*
X43942857Y-89628571D01*
X43980952Y-89590476D01*
X44057142Y-89552380D01*
X44209523Y-89552380D01*
X44285714Y-89590476D01*
X44323809Y-89628571D01*
X44361904Y-89704761D01*
X44361904Y-89857142D01*
X44323809Y-89933333D01*
X44285714Y-89971428D01*
X44209523Y-90009523D01*
X44057142Y-90009523D01*
X43980952Y-89971428D01*
X43942857Y-89933333D01*
X43904761Y-89857142D01*
X49357142Y-86857142D02*
X49404761Y-86809523D01*
X49452380Y-86666666D01*
X49452380Y-86571428D01*
X49404761Y-86428571D01*
X49309523Y-86333333D01*
X49214285Y-86285714D01*
X49023809Y-86238095D01*
X48880952Y-86238095D01*
X48690476Y-86285714D01*
X48595238Y-86333333D01*
X48500000Y-86428571D01*
X48452380Y-86571428D01*
X48452380Y-86666666D01*
X48500000Y-86809523D01*
X48547619Y-86857142D01*
X49452380Y-87809523D02*
X49452380Y-87238095D01*
X49452380Y-87523809D02*
X48452380Y-87523809D01*
X48595238Y-87428571D01*
X48690476Y-87333333D01*
X48738095Y-87238095D01*
X48452380Y-88142857D02*
X48452380Y-88809523D01*
X49452380Y-88380952D01*
X47142857Y-84857142D02*
X47190476Y-84904761D01*
X47333333Y-84952380D01*
X47428571Y-84952380D01*
X47571428Y-84904761D01*
X47666666Y-84809523D01*
X47714285Y-84714285D01*
X47761904Y-84523809D01*
X47761904Y-84380952D01*
X47714285Y-84190476D01*
X47666666Y-84095238D01*
X47571428Y-84000000D01*
X47428571Y-83952380D01*
X47333333Y-83952380D01*
X47190476Y-84000000D01*
X47142857Y-84047619D01*
X46190476Y-84952380D02*
X46761904Y-84952380D01*
X46476190Y-84952380D02*
X46476190Y-83952380D01*
X46571428Y-84095238D01*
X46666666Y-84190476D01*
X46761904Y-84238095D01*
X45333333Y-83952380D02*
X45523809Y-83952380D01*
X45619047Y-84000000D01*
X45666666Y-84047619D01*
X45761904Y-84190476D01*
X45809523Y-84380952D01*
X45809523Y-84761904D01*
X45761904Y-84857142D01*
X45714285Y-84904761D01*
X45619047Y-84952380D01*
X45428571Y-84952380D01*
X45333333Y-84904761D01*
X45285714Y-84857142D01*
X45238095Y-84761904D01*
X45238095Y-84523809D01*
X45285714Y-84428571D01*
X45333333Y-84380952D01*
X45428571Y-84333333D01*
X45619047Y-84333333D01*
X45714285Y-84380952D01*
X45761904Y-84428571D01*
X45809523Y-84523809D01*
X39142857Y-89642857D02*
X39095238Y-89690476D01*
X39047619Y-89833333D01*
X39047619Y-89928571D01*
X39095238Y-90071428D01*
X39190476Y-90166666D01*
X39285714Y-90214285D01*
X39476190Y-90261904D01*
X39619047Y-90261904D01*
X39809523Y-90214285D01*
X39904761Y-90166666D01*
X40000000Y-90071428D01*
X40047619Y-89928571D01*
X40047619Y-89833333D01*
X40000000Y-89690476D01*
X39952380Y-89642857D01*
X39047619Y-88690476D02*
X39047619Y-89261904D01*
X39047619Y-88976190D02*
X40047619Y-88976190D01*
X39904761Y-89071428D01*
X39809523Y-89166666D01*
X39761904Y-89261904D01*
X40047619Y-88357142D02*
X40047619Y-87738095D01*
X39666666Y-88071428D01*
X39666666Y-87928571D01*
X39619047Y-87833333D01*
X39571428Y-87785714D01*
X39476190Y-87738095D01*
X39238095Y-87738095D01*
X39142857Y-87785714D01*
X39095238Y-87833333D01*
X39047619Y-87928571D01*
X39047619Y-88214285D01*
X39095238Y-88309523D01*
X39142857Y-88357142D01*
X50642857Y-91857142D02*
X50690476Y-91904761D01*
X50833333Y-91952380D01*
X50928571Y-91952380D01*
X51071428Y-91904761D01*
X51166666Y-91809523D01*
X51214285Y-91714285D01*
X51261904Y-91523809D01*
X51261904Y-91380952D01*
X51214285Y-91190476D01*
X51166666Y-91095238D01*
X51071428Y-91000000D01*
X50928571Y-90952380D01*
X50833333Y-90952380D01*
X50690476Y-91000000D01*
X50642857Y-91047619D01*
X49690476Y-91952380D02*
X50261904Y-91952380D01*
X49976190Y-91952380D02*
X49976190Y-90952380D01*
X50071428Y-91095238D01*
X50166666Y-91190476D01*
X50261904Y-91238095D01*
X49309523Y-91047619D02*
X49261904Y-91000000D01*
X49166666Y-90952380D01*
X48928571Y-90952380D01*
X48833333Y-91000000D01*
X48785714Y-91047619D01*
X48738095Y-91142857D01*
X48738095Y-91238095D01*
X48785714Y-91380952D01*
X49357142Y-91952380D01*
X48738095Y-91952380D01*
X43642857Y-84857142D02*
X43690476Y-84904761D01*
X43833333Y-84952380D01*
X43928571Y-84952380D01*
X44071428Y-84904761D01*
X44166666Y-84809523D01*
X44214285Y-84714285D01*
X44261904Y-84523809D01*
X44261904Y-84380952D01*
X44214285Y-84190476D01*
X44166666Y-84095238D01*
X44071428Y-84000000D01*
X43928571Y-83952380D01*
X43833333Y-83952380D01*
X43690476Y-84000000D01*
X43642857Y-84047619D01*
X42690476Y-84952380D02*
X43261904Y-84952380D01*
X42976190Y-84952380D02*
X42976190Y-83952380D01*
X43071428Y-84095238D01*
X43166666Y-84190476D01*
X43261904Y-84238095D01*
X41738095Y-84952380D02*
X42309523Y-84952380D01*
X42023809Y-84952380D02*
X42023809Y-83952380D01*
X42119047Y-84095238D01*
X42214285Y-84190476D01*
X42309523Y-84238095D01*
X47142857Y-83357142D02*
X47190476Y-83404761D01*
X47333333Y-83452380D01*
X47428571Y-83452380D01*
X47571428Y-83404761D01*
X47666666Y-83309523D01*
X47714285Y-83214285D01*
X47761904Y-83023809D01*
X47761904Y-82880952D01*
X47714285Y-82690476D01*
X47666666Y-82595238D01*
X47571428Y-82500000D01*
X47428571Y-82452380D01*
X47333333Y-82452380D01*
X47190476Y-82500000D01*
X47142857Y-82547619D01*
X46190476Y-83452380D02*
X46761904Y-83452380D01*
X46476190Y-83452380D02*
X46476190Y-82452380D01*
X46571428Y-82595238D01*
X46666666Y-82690476D01*
X46761904Y-82738095D01*
X45571428Y-82452380D02*
X45476190Y-82452380D01*
X45380952Y-82500000D01*
X45333333Y-82547619D01*
X45285714Y-82642857D01*
X45238095Y-82833333D01*
X45238095Y-83071428D01*
X45285714Y-83261904D01*
X45333333Y-83357142D01*
X45380952Y-83404761D01*
X45476190Y-83452380D01*
X45571428Y-83452380D01*
X45666666Y-83404761D01*
X45714285Y-83357142D01*
X45761904Y-83261904D01*
X45809523Y-83071428D01*
X45809523Y-82833333D01*
X45761904Y-82642857D01*
X45714285Y-82547619D01*
X45666666Y-82500000D01*
X45571428Y-82452380D01*
X37642857Y-89666666D02*
X37595238Y-89714285D01*
X37547619Y-89857142D01*
X37547619Y-89952380D01*
X37595238Y-90095238D01*
X37690476Y-90190476D01*
X37785714Y-90238095D01*
X37976190Y-90285714D01*
X38119047Y-90285714D01*
X38309523Y-90238095D01*
X38404761Y-90190476D01*
X38500000Y-90095238D01*
X38547619Y-89952380D01*
X38547619Y-89857142D01*
X38500000Y-89714285D01*
X38452380Y-89666666D01*
X37547619Y-89190476D02*
X37547619Y-89000000D01*
X37595238Y-88904761D01*
X37642857Y-88857142D01*
X37785714Y-88761904D01*
X37976190Y-88714285D01*
X38357142Y-88714285D01*
X38452380Y-88761904D01*
X38500000Y-88809523D01*
X38547619Y-88904761D01*
X38547619Y-89095238D01*
X38500000Y-89190476D01*
X38452380Y-89238095D01*
X38357142Y-89285714D01*
X38119047Y-89285714D01*
X38023809Y-89238095D01*
X37976190Y-89190476D01*
X37928571Y-89095238D01*
X37928571Y-88904761D01*
X37976190Y-88809523D01*
X38023809Y-88761904D01*
X38119047Y-88714285D01*
X42857142Y-93833333D02*
X42904761Y-93785714D01*
X42952380Y-93642857D01*
X42952380Y-93547619D01*
X42904761Y-93404761D01*
X42809523Y-93309523D01*
X42714285Y-93261904D01*
X42523809Y-93214285D01*
X42380952Y-93214285D01*
X42190476Y-93261904D01*
X42095238Y-93309523D01*
X42000000Y-93404761D01*
X41952380Y-93547619D01*
X41952380Y-93642857D01*
X42000000Y-93785714D01*
X42047619Y-93833333D01*
X41952380Y-94166666D02*
X41952380Y-94833333D01*
X42952380Y-94404761D01*
X43666666Y-83417142D02*
X43714285Y-83464761D01*
X43857142Y-83512380D01*
X43952380Y-83512380D01*
X44095238Y-83464761D01*
X44190476Y-83369523D01*
X44238095Y-83274285D01*
X44285714Y-83083809D01*
X44285714Y-82940952D01*
X44238095Y-82750476D01*
X44190476Y-82655238D01*
X44095238Y-82560000D01*
X43952380Y-82512380D01*
X43857142Y-82512380D01*
X43714285Y-82560000D01*
X43666666Y-82607619D01*
X42809523Y-82512380D02*
X43000000Y-82512380D01*
X43095238Y-82560000D01*
X43142857Y-82607619D01*
X43238095Y-82750476D01*
X43285714Y-82940952D01*
X43285714Y-83321904D01*
X43238095Y-83417142D01*
X43190476Y-83464761D01*
X43095238Y-83512380D01*
X42904761Y-83512380D01*
X42809523Y-83464761D01*
X42761904Y-83417142D01*
X42714285Y-83321904D01*
X42714285Y-83083809D01*
X42761904Y-82988571D01*
X42809523Y-82940952D01*
X42904761Y-82893333D01*
X43095238Y-82893333D01*
X43190476Y-82940952D01*
X43238095Y-82988571D01*
X43285714Y-83083809D01*
X97197619Y-90333333D02*
X96483333Y-90333333D01*
X96340476Y-90380952D01*
X96245238Y-90476190D01*
X96197619Y-90619047D01*
X96197619Y-90714285D01*
X96197619Y-89333333D02*
X96197619Y-89904761D01*
X96197619Y-89619047D02*
X97197619Y-89619047D01*
X97054761Y-89714285D01*
X96959523Y-89809523D01*
X96911904Y-89904761D01*
M02*
