G04 #@! TF.GenerationSoftware,KiCad,Pcbnew,5.99.0-unknown-3cd1208~100~ubuntu18.04.1*
G04 #@! TF.CreationDate,2019-09-26T13:34:42+08:00*
G04 #@! TF.ProjectId,external_camera,65787465-726e-4616-9c5f-63616d657261,rev?*
G04 #@! TF.SameCoordinates,Original*
G04 #@! TF.FileFunction,Copper,L5,Inr*
G04 #@! TF.FilePolarity,Positive*
%FSLAX46Y46*%
G04 Gerber Fmt 4.6, Leading zero omitted, Abs format (unit mm)*
G04 Created by KiCad (PCBNEW 5.99.0-unknown-3cd1208~100~ubuntu18.04.1) date 2019-09-26 13:34:42*
%MOMM*%
%LPD*%
G04 APERTURE LIST*
%ADD10O,1.700000X1.700000*%
%ADD11C,1.700000*%
%ADD12C,1.120000*%
%ADD13R,1.700000X1.700000*%
%ADD14C,2.500000*%
%ADD15C,0.711200*%
%ADD16C,0.355600*%
%ADD17C,0.457200*%
%ADD18C,4.000000*%
%ADD19C,0.100000*%
G04 APERTURE END LIST*
D10*
X137160000Y-85090000D03*
X134620000Y-85090000D03*
D11*
X132080000Y-85090000D03*
D12*
X126267436Y-84902272D03*
X124032564Y-84902272D03*
X126267436Y-90297728D03*
X124032564Y-90297728D03*
D10*
X85852000Y-85090000D03*
X83312000Y-85090000D03*
X80772000Y-85090000D03*
X78232000Y-85090000D03*
X75692000Y-85090000D03*
X73152000Y-85090000D03*
D13*
X70612000Y-85090000D03*
D10*
X137080000Y-91500000D03*
X134540000Y-91500000D03*
D11*
X132000000Y-91500000D03*
D14*
X165000000Y-100000000D03*
X165000000Y-80000000D03*
X45000000Y-100000000D03*
X45000000Y-80000000D03*
D15*
X55500000Y-97000000D03*
X116000000Y-91500000D03*
X117500000Y-91400000D03*
X108800000Y-90900000D03*
X113200000Y-90000000D03*
X97800000Y-100200000D03*
X82400000Y-89500000D03*
X80675000Y-89525000D03*
X92100000Y-90500000D03*
X93600000Y-88000000D03*
X55925000Y-90175000D03*
X86700000Y-89100000D03*
X88500000Y-89200000D03*
X83100000Y-92300000D03*
X84512500Y-92187500D03*
X77500000Y-92100000D03*
X80400000Y-92300000D03*
X113350000Y-88350000D03*
X116850000Y-88500000D03*
X162000000Y-88650000D03*
D16*
X42350000Y-88700000D03*
D15*
X43500000Y-93100000D03*
X93850000Y-89500000D03*
X93850000Y-90550000D03*
X100300000Y-89800000D03*
X96100000Y-83800000D03*
X60000000Y-83500000D03*
X41700000Y-88000000D03*
X40500000Y-88000000D03*
D17*
X165050000Y-95250000D03*
X164500000Y-94800000D03*
X164050000Y-94150000D03*
D15*
X160500000Y-91500000D03*
X166800000Y-86300000D03*
X168100000Y-91800000D03*
D16*
X167000000Y-92000000D03*
X166400000Y-91320001D03*
X166400000Y-92000000D03*
X163600000Y-90650000D03*
X164700000Y-90650000D03*
X164150000Y-91300000D03*
X164150000Y-90650000D03*
X165300000Y-88665785D03*
D15*
X168100000Y-88900000D03*
X165900000Y-85400000D03*
X164900000Y-85400000D03*
X162900000Y-85400000D03*
D16*
X163000000Y-88000000D03*
X167000000Y-88000000D03*
X165850000Y-88000000D03*
X165299469Y-88000000D03*
X164152442Y-87997558D03*
X164700000Y-88000000D03*
D15*
X163900000Y-85400000D03*
X160900000Y-88000000D03*
X159100000Y-90700000D03*
X162000000Y-90600000D03*
X56100000Y-86600000D03*
X154700000Y-83400000D03*
X154700000Y-84400000D03*
X147900000Y-84400000D03*
X109500000Y-90000000D03*
X109400000Y-85900000D03*
X109000000Y-83900000D03*
X105000000Y-84000000D03*
X101200000Y-84000000D03*
X98900000Y-81400000D03*
X96100000Y-84800000D03*
X93900000Y-84200000D03*
X93900000Y-85300000D03*
D17*
X163600000Y-93700000D03*
D15*
X96300000Y-96200000D03*
X96300000Y-94800000D03*
X93800000Y-91800000D03*
D16*
X46400000Y-89350000D03*
X45806023Y-89341620D03*
X43550000Y-88700000D03*
X42999072Y-90049104D03*
X44700000Y-90650000D03*
X46999104Y-90699072D03*
X45300000Y-88000000D03*
X43600000Y-90000000D03*
X44150000Y-90000000D03*
X43550000Y-92000000D03*
D18*
X39000000Y-78000000D03*
X39000000Y-102000000D03*
X171000000Y-102000000D03*
X171000000Y-78000000D03*
X59000000Y-78000000D03*
X59000000Y-102000000D03*
X151000000Y-102000000D03*
X151000000Y-78000000D03*
X105000000Y-102000000D03*
X105000000Y-78000000D03*
D16*
X164150000Y-88650000D03*
X166400000Y-89950000D03*
X166409957Y-90688895D03*
X166450000Y-88700000D03*
X164700000Y-91300000D03*
X163550000Y-89350000D03*
X163554855Y-91955602D03*
X163600000Y-91300000D03*
X164150000Y-89350000D03*
D17*
X47066513Y-94433487D03*
X47533487Y-93966513D03*
X49133026Y-94066513D03*
X49600000Y-94533487D03*
D15*
X42200000Y-94500000D03*
X41700000Y-90900000D03*
D16*
X44152442Y-87997558D03*
X43000000Y-88000000D03*
D15*
X44900000Y-85500000D03*
X45900000Y-85500000D03*
X43900000Y-85500000D03*
X42900000Y-85500000D03*
D16*
X44700000Y-88000000D03*
X45850000Y-88000000D03*
X44150000Y-88700000D03*
X47000000Y-88000000D03*
X45850000Y-91300000D03*
X44700889Y-91299111D03*
X43550373Y-91299627D03*
X47000000Y-92000000D03*
X46400000Y-92000000D03*
X47600000Y-92000000D03*
D17*
X47800000Y-89300000D03*
X48850000Y-91300000D03*
X48850000Y-90000000D03*
X48850000Y-88700000D03*
X48850000Y-87900000D03*
D15*
X55100000Y-84600000D03*
X87300000Y-87800000D03*
X90500000Y-85800000D03*
X87800000Y-85800000D03*
X96300000Y-93400000D03*
X92700000Y-92300000D03*
X100400000Y-86600000D03*
X99600000Y-87500000D03*
X103600000Y-89800000D03*
X109700000Y-86900000D03*
X109700000Y-88000000D03*
X110000000Y-89100000D03*
X91400000Y-87900000D03*
X91400000Y-89000000D03*
D19*
G36*
X173746001Y-104746000D02*
G01*
X36254000Y-104746000D01*
X36254000Y-102130191D01*
X36742026Y-102130191D01*
X36793611Y-102497234D01*
X36904446Y-102850911D01*
X37071565Y-103181751D01*
X37290467Y-103480843D01*
X37555282Y-103740168D01*
X37858898Y-103952762D01*
X38193158Y-104112913D01*
X38549083Y-104216318D01*
X38917125Y-104260205D01*
X39287381Y-104243391D01*
X39649933Y-104166329D01*
X39995021Y-104031091D01*
X40313389Y-103841306D01*
X40596487Y-103602069D01*
X40836709Y-103319809D01*
X41027604Y-103002106D01*
X41164049Y-102657484D01*
X41242375Y-102295213D01*
X41246408Y-102130191D01*
X56742026Y-102130191D01*
X56793611Y-102497234D01*
X56904446Y-102850911D01*
X57071565Y-103181751D01*
X57290467Y-103480843D01*
X57555282Y-103740168D01*
X57858898Y-103952762D01*
X58193158Y-104112913D01*
X58549083Y-104216318D01*
X58917125Y-104260205D01*
X59287381Y-104243391D01*
X59649933Y-104166329D01*
X59995021Y-104031091D01*
X60313389Y-103841306D01*
X60596487Y-103602069D01*
X60836709Y-103319809D01*
X61027604Y-103002106D01*
X61164049Y-102657484D01*
X61242375Y-102295213D01*
X61246408Y-102130191D01*
X102742026Y-102130191D01*
X102793611Y-102497234D01*
X102904446Y-102850911D01*
X103071565Y-103181751D01*
X103290467Y-103480843D01*
X103555282Y-103740168D01*
X103858898Y-103952762D01*
X104193158Y-104112913D01*
X104549083Y-104216318D01*
X104917125Y-104260205D01*
X105287381Y-104243391D01*
X105649933Y-104166329D01*
X105995021Y-104031091D01*
X106313389Y-103841306D01*
X106596487Y-103602069D01*
X106836709Y-103319809D01*
X107027604Y-103002106D01*
X107164049Y-102657484D01*
X107242375Y-102295213D01*
X107246408Y-102130191D01*
X148742026Y-102130191D01*
X148793611Y-102497234D01*
X148904446Y-102850911D01*
X149071565Y-103181751D01*
X149290467Y-103480843D01*
X149555282Y-103740168D01*
X149858898Y-103952762D01*
X150193158Y-104112913D01*
X150549083Y-104216318D01*
X150917125Y-104260205D01*
X151287381Y-104243391D01*
X151649933Y-104166329D01*
X151995021Y-104031091D01*
X152313389Y-103841306D01*
X152596487Y-103602069D01*
X152836709Y-103319809D01*
X153027604Y-103002106D01*
X153164049Y-102657484D01*
X153242375Y-102295213D01*
X153246408Y-102130191D01*
X168742026Y-102130191D01*
X168793611Y-102497234D01*
X168904446Y-102850911D01*
X169071565Y-103181751D01*
X169290467Y-103480843D01*
X169555282Y-103740168D01*
X169858898Y-103952762D01*
X170193158Y-104112913D01*
X170549083Y-104216318D01*
X170917125Y-104260205D01*
X171287381Y-104243391D01*
X171649933Y-104166329D01*
X171995021Y-104031091D01*
X172313389Y-103841306D01*
X172596487Y-103602069D01*
X172836709Y-103319809D01*
X173027604Y-103002106D01*
X173164049Y-102657484D01*
X173242375Y-102295213D01*
X173254119Y-101814679D01*
X173193583Y-101449013D01*
X173074135Y-101098136D01*
X172898990Y-100771492D01*
X172672842Y-100477832D01*
X172401766Y-100225050D01*
X172093053Y-100019942D01*
X171754980Y-99868005D01*
X171396631Y-99773326D01*
X171027630Y-99738445D01*
X170657891Y-99764300D01*
X170297337Y-99850196D01*
X169955648Y-99993828D01*
X169642020Y-100191330D01*
X169364844Y-100437420D01*
X169131595Y-100725458D01*
X168948518Y-101047731D01*
X168820534Y-101395582D01*
X168751082Y-101759661D01*
X168742026Y-102130191D01*
X153246408Y-102130191D01*
X153254119Y-101814679D01*
X153193583Y-101449013D01*
X153074135Y-101098136D01*
X152898990Y-100771492D01*
X152672842Y-100477832D01*
X152401766Y-100225050D01*
X152093053Y-100019942D01*
X151754980Y-99868005D01*
X151396631Y-99773326D01*
X151027630Y-99738445D01*
X150657891Y-99764300D01*
X150297337Y-99850196D01*
X149955648Y-99993828D01*
X149642020Y-100191330D01*
X149364844Y-100437420D01*
X149131595Y-100725458D01*
X148948518Y-101047731D01*
X148820534Y-101395582D01*
X148751082Y-101759661D01*
X148742026Y-102130191D01*
X107246408Y-102130191D01*
X107254119Y-101814679D01*
X107193583Y-101449013D01*
X107074135Y-101098136D01*
X106898990Y-100771492D01*
X106672842Y-100477832D01*
X106401766Y-100225050D01*
X106093053Y-100019942D01*
X105754980Y-99868005D01*
X105396631Y-99773326D01*
X105027630Y-99738445D01*
X104657891Y-99764300D01*
X104297337Y-99850196D01*
X103955648Y-99993828D01*
X103642020Y-100191330D01*
X103364844Y-100437420D01*
X103131595Y-100725458D01*
X102948518Y-101047731D01*
X102820534Y-101395582D01*
X102751082Y-101759661D01*
X102742026Y-102130191D01*
X61246408Y-102130191D01*
X61254119Y-101814679D01*
X61193583Y-101449013D01*
X61074135Y-101098136D01*
X60898990Y-100771492D01*
X60672842Y-100477832D01*
X60401766Y-100225050D01*
X60093053Y-100019942D01*
X59754980Y-99868005D01*
X59396631Y-99773326D01*
X59027630Y-99738445D01*
X58657891Y-99764300D01*
X58297337Y-99850196D01*
X57955648Y-99993828D01*
X57642020Y-100191330D01*
X57364844Y-100437420D01*
X57131595Y-100725458D01*
X56948518Y-101047731D01*
X56820534Y-101395582D01*
X56751082Y-101759661D01*
X56742026Y-102130191D01*
X41246408Y-102130191D01*
X41254119Y-101814679D01*
X41193583Y-101449013D01*
X41074135Y-101098136D01*
X40898990Y-100771492D01*
X40672842Y-100477832D01*
X40401766Y-100225050D01*
X40093053Y-100019942D01*
X39754980Y-99868005D01*
X39396631Y-99773326D01*
X39027630Y-99738445D01*
X38657891Y-99764300D01*
X38297337Y-99850196D01*
X37955648Y-99993828D01*
X37642020Y-100191330D01*
X37364844Y-100437420D01*
X37131595Y-100725458D01*
X36948518Y-101047731D01*
X36820534Y-101395582D01*
X36751082Y-101759661D01*
X36742026Y-102130191D01*
X36254000Y-102130191D01*
X36254000Y-96903449D01*
X54890401Y-96903449D01*
X54890401Y-97096551D01*
X54950073Y-97280202D01*
X55063575Y-97436425D01*
X55219798Y-97549927D01*
X55403449Y-97609599D01*
X55596551Y-97609599D01*
X55780202Y-97549927D01*
X55936425Y-97436425D01*
X56049927Y-97280202D01*
X56109599Y-97096551D01*
X56109599Y-96903449D01*
X56049927Y-96719798D01*
X55936425Y-96563575D01*
X55780202Y-96450073D01*
X55596551Y-96390401D01*
X55403449Y-96390401D01*
X55219798Y-96450073D01*
X55063575Y-96563575D01*
X54950073Y-96719798D01*
X54890401Y-96903449D01*
X36254000Y-96903449D01*
X36254000Y-94403449D01*
X41590401Y-94403449D01*
X41590401Y-94596551D01*
X41650073Y-94780202D01*
X41763575Y-94936425D01*
X41919798Y-95049927D01*
X42103449Y-95109599D01*
X42296551Y-95109599D01*
X42480202Y-95049927D01*
X42636425Y-94936425D01*
X42749927Y-94780202D01*
X42809599Y-94596551D01*
X42809599Y-94403449D01*
X42791711Y-94348393D01*
X46583914Y-94348393D01*
X46583914Y-94518581D01*
X46642123Y-94678510D01*
X46751519Y-94808883D01*
X46898907Y-94893978D01*
X47066513Y-94923531D01*
X47234119Y-94893978D01*
X47381507Y-94808883D01*
X47490903Y-94678510D01*
X47574306Y-94449359D01*
X47701094Y-94427004D01*
X47848481Y-94341909D01*
X47957877Y-94211536D01*
X48016086Y-94051607D01*
X48016086Y-93981419D01*
X48650427Y-93981419D01*
X48650427Y-94151607D01*
X48708636Y-94311536D01*
X48818032Y-94441909D01*
X48965419Y-94527004D01*
X49092207Y-94549359D01*
X49175610Y-94778510D01*
X49285006Y-94908883D01*
X49432394Y-94993978D01*
X49600000Y-95023531D01*
X49767606Y-94993978D01*
X49914994Y-94908883D01*
X50024390Y-94778510D01*
X50082599Y-94618581D01*
X50082599Y-94448393D01*
X50024390Y-94288464D01*
X49914994Y-94158091D01*
X49767607Y-94072996D01*
X49640819Y-94050641D01*
X49557416Y-93821490D01*
X49448020Y-93691117D01*
X49316020Y-93614906D01*
X163117401Y-93614906D01*
X163117401Y-93785094D01*
X163175610Y-93945023D01*
X163285006Y-94075396D01*
X163432394Y-94160491D01*
X163547644Y-94180812D01*
X163625610Y-94395023D01*
X163735006Y-94525396D01*
X163882395Y-94610491D01*
X164017401Y-94634297D01*
X164017401Y-94885094D01*
X164075610Y-95045023D01*
X164185006Y-95175396D01*
X164332394Y-95260491D01*
X164554502Y-95299654D01*
X164625610Y-95495023D01*
X164735006Y-95625396D01*
X164882394Y-95710491D01*
X165050000Y-95740044D01*
X165217606Y-95710491D01*
X165364994Y-95625396D01*
X165474390Y-95495023D01*
X165532599Y-95335094D01*
X165532599Y-95164906D01*
X165474390Y-95004977D01*
X165364994Y-94874604D01*
X165217606Y-94789509D01*
X164995498Y-94750346D01*
X164924390Y-94554977D01*
X164814994Y-94424604D01*
X164667605Y-94339509D01*
X164532599Y-94315703D01*
X164532599Y-94064906D01*
X164474390Y-93904977D01*
X164364994Y-93774604D01*
X164217606Y-93689509D01*
X164102356Y-93669188D01*
X164024390Y-93454977D01*
X163914994Y-93324604D01*
X163767606Y-93239509D01*
X163600000Y-93209956D01*
X163432394Y-93239509D01*
X163285006Y-93324604D01*
X163175610Y-93454977D01*
X163117401Y-93614906D01*
X49316020Y-93614906D01*
X49300632Y-93606022D01*
X49133026Y-93576469D01*
X48965420Y-93606022D01*
X48818032Y-93691117D01*
X48708636Y-93821490D01*
X48650427Y-93981419D01*
X48016086Y-93981419D01*
X48016086Y-93881419D01*
X47957877Y-93721490D01*
X47848481Y-93591117D01*
X47701093Y-93506022D01*
X47533487Y-93476469D01*
X47365881Y-93506022D01*
X47218493Y-93591117D01*
X47109097Y-93721490D01*
X47025694Y-93950641D01*
X46898906Y-93972996D01*
X46751519Y-94058091D01*
X46642123Y-94188464D01*
X46583914Y-94348393D01*
X42791711Y-94348393D01*
X42749927Y-94219798D01*
X42636425Y-94063575D01*
X42480202Y-93950073D01*
X42296551Y-93890401D01*
X42103449Y-93890401D01*
X41919798Y-93950073D01*
X41763575Y-94063575D01*
X41650073Y-94219798D01*
X41590401Y-94403449D01*
X36254000Y-94403449D01*
X36254000Y-91994632D01*
X45960754Y-91994632D01*
X45988273Y-92153121D01*
X46071000Y-92291076D01*
X46197844Y-92389999D01*
X46351796Y-92436627D01*
X46512211Y-92424705D01*
X46717584Y-92327405D01*
X46797845Y-92389999D01*
X46951796Y-92436627D01*
X47112212Y-92424705D01*
X47257580Y-92355835D01*
X47368411Y-92239247D01*
X47383202Y-92203449D01*
X79790401Y-92203449D01*
X79790401Y-92396551D01*
X79850073Y-92580202D01*
X79963575Y-92736425D01*
X80119798Y-92849927D01*
X80303449Y-92909599D01*
X80496551Y-92909599D01*
X80680202Y-92849927D01*
X80836425Y-92736425D01*
X80949927Y-92580202D01*
X81009599Y-92396551D01*
X81009599Y-92203449D01*
X80973046Y-92090949D01*
X83902901Y-92090949D01*
X83902901Y-92284051D01*
X83962573Y-92467702D01*
X84076075Y-92623925D01*
X84232298Y-92737427D01*
X84415949Y-92797099D01*
X84609051Y-92797099D01*
X84792702Y-92737427D01*
X84948925Y-92623925D01*
X85062427Y-92467702D01*
X85122099Y-92284051D01*
X85122099Y-92203449D01*
X92090401Y-92203449D01*
X92090401Y-92396551D01*
X92150073Y-92580202D01*
X92263575Y-92736425D01*
X92419798Y-92849927D01*
X92603449Y-92909599D01*
X92796551Y-92909599D01*
X92980202Y-92849927D01*
X93136425Y-92736425D01*
X93249927Y-92580202D01*
X93309599Y-92396551D01*
X93309599Y-92203449D01*
X93249927Y-92019798D01*
X93136425Y-91863575D01*
X92980202Y-91750073D01*
X92796551Y-91690401D01*
X92603449Y-91690401D01*
X92419798Y-91750073D01*
X92263575Y-91863575D01*
X92150073Y-92019798D01*
X92090401Y-92203449D01*
X85122099Y-92203449D01*
X85122099Y-92090949D01*
X85062427Y-91907298D01*
X84948925Y-91751075D01*
X84792702Y-91637573D01*
X84609051Y-91577901D01*
X84415949Y-91577901D01*
X84232298Y-91637573D01*
X84076075Y-91751075D01*
X83962573Y-91907298D01*
X83902901Y-92090949D01*
X80973046Y-92090949D01*
X80949927Y-92019798D01*
X80836425Y-91863575D01*
X80680202Y-91750073D01*
X80496551Y-91690401D01*
X80303449Y-91690401D01*
X80119798Y-91750073D01*
X79963575Y-91863575D01*
X79850073Y-92019798D01*
X79790401Y-92203449D01*
X47383202Y-92203449D01*
X47429838Y-92090582D01*
X47431922Y-91919947D01*
X47374146Y-91769824D01*
X47266198Y-91650565D01*
X47122555Y-91578163D01*
X46962479Y-91562326D01*
X46807431Y-91605180D01*
X46713824Y-91674571D01*
X46522555Y-91578163D01*
X46362479Y-91562326D01*
X46207432Y-91605180D01*
X46078207Y-91700975D01*
X45992136Y-91836865D01*
X45960754Y-91994632D01*
X36254000Y-91994632D01*
X36254000Y-91294259D01*
X43111127Y-91294259D01*
X43138646Y-91452748D01*
X43221373Y-91590703D01*
X43348217Y-91689626D01*
X43502169Y-91736254D01*
X43662585Y-91724332D01*
X43807953Y-91655462D01*
X43918784Y-91538874D01*
X43980211Y-91390209D01*
X43981389Y-91293743D01*
X44261643Y-91293743D01*
X44289162Y-91452232D01*
X44371889Y-91590187D01*
X44498733Y-91689110D01*
X44652685Y-91735738D01*
X44813101Y-91723816D01*
X44958469Y-91654946D01*
X45069300Y-91538358D01*
X45130727Y-91389693D01*
X45132811Y-91219058D01*
X45131214Y-91214906D01*
X48367401Y-91214906D01*
X48367401Y-91385094D01*
X48425610Y-91545023D01*
X48535006Y-91675396D01*
X48682394Y-91760491D01*
X48850000Y-91790044D01*
X49017606Y-91760491D01*
X49164994Y-91675396D01*
X49274390Y-91545023D01*
X49332599Y-91385094D01*
X49332599Y-91214906D01*
X49274390Y-91054977D01*
X49164994Y-90924604D01*
X49017606Y-90839509D01*
X48850000Y-90809956D01*
X48682394Y-90839509D01*
X48535006Y-90924604D01*
X48425610Y-91054977D01*
X48367401Y-91214906D01*
X45131214Y-91214906D01*
X45075035Y-91068935D01*
X44967087Y-90949676D01*
X44823444Y-90877274D01*
X44663368Y-90861437D01*
X44508321Y-90904291D01*
X44379096Y-91000086D01*
X44293025Y-91135976D01*
X44261643Y-91293743D01*
X43981389Y-91293743D01*
X43982295Y-91219574D01*
X43924519Y-91069451D01*
X43816571Y-90950192D01*
X43672928Y-90877790D01*
X43512852Y-90861953D01*
X43357805Y-90904807D01*
X43228580Y-91000602D01*
X43142509Y-91136492D01*
X43111127Y-91294259D01*
X36254000Y-91294259D01*
X36254000Y-90693704D01*
X46559858Y-90693704D01*
X46587377Y-90852193D01*
X46670104Y-90990148D01*
X46796948Y-91089071D01*
X46950900Y-91135699D01*
X47111316Y-91123777D01*
X47256684Y-91054907D01*
X47367515Y-90938319D01*
X47428942Y-90789654D01*
X47431026Y-90619019D01*
X47373250Y-90468896D01*
X47265302Y-90349637D01*
X47121659Y-90277235D01*
X46961583Y-90261398D01*
X46806536Y-90304252D01*
X46677311Y-90400047D01*
X46591240Y-90535937D01*
X46559858Y-90693704D01*
X36254000Y-90693704D01*
X36254000Y-89994632D01*
X43160754Y-89994632D01*
X43188273Y-90153121D01*
X43271000Y-90291076D01*
X43397844Y-90389999D01*
X43551796Y-90436627D01*
X43712212Y-90424705D01*
X43857580Y-90355835D01*
X43968411Y-90239247D01*
X44029838Y-90090582D01*
X44031922Y-89919947D01*
X44029982Y-89914906D01*
X48367401Y-89914906D01*
X48367401Y-90085094D01*
X48425610Y-90245023D01*
X48535006Y-90375396D01*
X48682394Y-90460491D01*
X48850000Y-90490044D01*
X49017606Y-90460491D01*
X49164994Y-90375396D01*
X49274390Y-90245023D01*
X49332599Y-90085094D01*
X49332599Y-90078449D01*
X55315401Y-90078449D01*
X55315401Y-90271551D01*
X55375073Y-90455202D01*
X55488575Y-90611425D01*
X55644798Y-90724927D01*
X55828449Y-90784599D01*
X56021551Y-90784599D01*
X56205202Y-90724927D01*
X56361425Y-90611425D01*
X56474927Y-90455202D01*
X56491742Y-90403449D01*
X91490401Y-90403449D01*
X91490401Y-90596551D01*
X91550073Y-90780202D01*
X91663575Y-90936425D01*
X91819798Y-91049927D01*
X92003449Y-91109599D01*
X92196551Y-91109599D01*
X92380202Y-91049927D01*
X92536425Y-90936425D01*
X92633037Y-90803449D01*
X108190401Y-90803449D01*
X108190401Y-90996551D01*
X108250073Y-91180202D01*
X108363575Y-91336425D01*
X108519798Y-91449927D01*
X108703449Y-91509599D01*
X108896551Y-91509599D01*
X109080202Y-91449927D01*
X109236425Y-91336425D01*
X109260383Y-91303449D01*
X116890401Y-91303449D01*
X116890401Y-91496551D01*
X116950073Y-91680202D01*
X117063575Y-91836425D01*
X117219798Y-91949927D01*
X117403449Y-92009599D01*
X117596551Y-92009599D01*
X117780202Y-91949927D01*
X117936425Y-91836425D01*
X118049927Y-91680202D01*
X118109599Y-91496551D01*
X118109599Y-91496132D01*
X130890986Y-91496132D01*
X130910262Y-91705904D01*
X130968858Y-91908258D01*
X131064661Y-92095877D01*
X131194213Y-92261994D01*
X131352844Y-92400620D01*
X131534818Y-92506744D01*
X131733582Y-92576545D01*
X131941956Y-92607501D01*
X132152430Y-92598496D01*
X132357400Y-92549853D01*
X132549470Y-92463333D01*
X132721724Y-92342046D01*
X132867927Y-92190384D01*
X132982820Y-92013801D01*
X133062245Y-91818691D01*
X133103345Y-91612072D01*
X133103924Y-91445826D01*
X133432303Y-91445826D01*
X133442043Y-91656260D01*
X133491400Y-91861062D01*
X133578595Y-92052836D01*
X133700474Y-92224654D01*
X133852652Y-92370333D01*
X134029632Y-92484608D01*
X134225019Y-92563351D01*
X134505371Y-92604000D01*
X134592631Y-92604000D01*
X134749711Y-92589014D01*
X134951854Y-92529710D01*
X135139137Y-92433254D01*
X135304803Y-92303122D01*
X135442872Y-92144011D01*
X135548361Y-91961666D01*
X135617468Y-91762656D01*
X135647697Y-91554174D01*
X135640721Y-91403449D01*
X159890401Y-91403449D01*
X159890401Y-91596551D01*
X159950073Y-91780202D01*
X160063575Y-91936425D01*
X160219798Y-92049927D01*
X160403449Y-92109599D01*
X160596551Y-92109599D01*
X160780202Y-92049927D01*
X160936425Y-91936425D01*
X161049927Y-91780202D01*
X161109599Y-91596551D01*
X161109599Y-91403449D01*
X161049927Y-91219798D01*
X160936425Y-91063575D01*
X160780202Y-90950073D01*
X160596551Y-90890401D01*
X160403449Y-90890401D01*
X160219798Y-90950073D01*
X160063575Y-91063575D01*
X159950073Y-91219798D01*
X159890401Y-91403449D01*
X135640721Y-91403449D01*
X135637957Y-91343740D01*
X135588600Y-91138938D01*
X135501405Y-90947164D01*
X135379526Y-90775346D01*
X135227348Y-90629667D01*
X135186744Y-90603449D01*
X158490401Y-90603449D01*
X158490401Y-90796551D01*
X158550073Y-90980202D01*
X158663575Y-91136425D01*
X158819798Y-91249927D01*
X159003449Y-91309599D01*
X159196551Y-91309599D01*
X159380202Y-91249927D01*
X159536425Y-91136425D01*
X159649927Y-90980202D01*
X159709599Y-90796551D01*
X159709599Y-90644632D01*
X163160754Y-90644632D01*
X163188273Y-90803121D01*
X163292956Y-90977690D01*
X163192136Y-91136867D01*
X163160754Y-91294632D01*
X163188273Y-91453121D01*
X163271000Y-91591076D01*
X163397844Y-91689999D01*
X163551796Y-91736627D01*
X163712212Y-91724705D01*
X163886479Y-91642143D01*
X163947844Y-91689999D01*
X164101796Y-91736627D01*
X164262212Y-91724705D01*
X164436479Y-91642143D01*
X164497844Y-91689999D01*
X164651796Y-91736627D01*
X164812212Y-91724705D01*
X164957580Y-91655835D01*
X165068411Y-91539247D01*
X165129838Y-91390582D01*
X165131922Y-91219947D01*
X165074146Y-91069824D01*
X164966198Y-90950565D01*
X164822555Y-90878163D01*
X164662479Y-90862326D01*
X164507431Y-90905180D01*
X164434063Y-90959569D01*
X164272556Y-90878163D01*
X164028453Y-90854013D01*
X164031922Y-90569947D01*
X163974146Y-90419824D01*
X163866198Y-90300565D01*
X163722555Y-90228163D01*
X163562479Y-90212326D01*
X163407432Y-90255180D01*
X163278207Y-90350975D01*
X163192136Y-90486865D01*
X163160754Y-90644632D01*
X159709599Y-90644632D01*
X159709599Y-90603449D01*
X159649927Y-90419798D01*
X159536425Y-90263575D01*
X159380202Y-90150073D01*
X159196551Y-90090401D01*
X159003449Y-90090401D01*
X158819798Y-90150073D01*
X158663575Y-90263575D01*
X158550073Y-90419798D01*
X158490401Y-90603449D01*
X135186744Y-90603449D01*
X135050368Y-90515392D01*
X134854981Y-90436649D01*
X134574629Y-90396000D01*
X134487369Y-90396000D01*
X134330289Y-90410986D01*
X134128146Y-90470290D01*
X133940863Y-90566746D01*
X133775197Y-90696878D01*
X133637128Y-90855989D01*
X133531639Y-91038334D01*
X133462532Y-91237344D01*
X133432303Y-91445826D01*
X133103924Y-91445826D01*
X133104099Y-91395636D01*
X133064444Y-91188734D01*
X132986381Y-90993070D01*
X132872726Y-90815694D01*
X132727583Y-90663012D01*
X132556184Y-90540528D01*
X132364719Y-90452666D01*
X132160094Y-90402595D01*
X131949689Y-90392121D01*
X131741107Y-90421620D01*
X131541859Y-90490033D01*
X131359143Y-90594887D01*
X131199553Y-90732399D01*
X131068844Y-90897608D01*
X130971733Y-91084553D01*
X130911727Y-91286487D01*
X130890986Y-91496132D01*
X118109599Y-91496132D01*
X118109599Y-91303449D01*
X118049927Y-91119798D01*
X117936425Y-90963575D01*
X117780202Y-90850073D01*
X117596551Y-90790401D01*
X117403449Y-90790401D01*
X117219798Y-90850073D01*
X117063575Y-90963575D01*
X116950073Y-91119798D01*
X116890401Y-91303449D01*
X109260383Y-91303449D01*
X109349927Y-91180202D01*
X109409599Y-90996551D01*
X109409599Y-90803449D01*
X109349927Y-90619798D01*
X109236425Y-90463575D01*
X109080202Y-90350073D01*
X108896551Y-90290401D01*
X108703449Y-90290401D01*
X108519798Y-90350073D01*
X108363575Y-90463575D01*
X108250073Y-90619798D01*
X108190401Y-90803449D01*
X92633037Y-90803449D01*
X92649927Y-90780202D01*
X92709599Y-90596551D01*
X92709599Y-90403449D01*
X92649927Y-90219798D01*
X92536425Y-90063575D01*
X92380202Y-89950073D01*
X92196551Y-89890401D01*
X92003449Y-89890401D01*
X91819798Y-89950073D01*
X91663575Y-90063575D01*
X91550073Y-90219798D01*
X91490401Y-90403449D01*
X56491742Y-90403449D01*
X56534599Y-90271551D01*
X56534599Y-90078449D01*
X56474927Y-89894798D01*
X56361425Y-89738575D01*
X56205202Y-89625073D01*
X56021551Y-89565401D01*
X55828449Y-89565401D01*
X55644798Y-89625073D01*
X55488575Y-89738575D01*
X55375073Y-89894798D01*
X55315401Y-90078449D01*
X49332599Y-90078449D01*
X49332599Y-89914906D01*
X49274390Y-89754977D01*
X49164994Y-89624604D01*
X49017606Y-89539509D01*
X48850000Y-89509956D01*
X48682394Y-89539509D01*
X48535006Y-89624604D01*
X48425610Y-89754977D01*
X48367401Y-89914906D01*
X44029982Y-89914906D01*
X43974146Y-89769824D01*
X43866198Y-89650565D01*
X43722555Y-89578163D01*
X43562479Y-89562326D01*
X43407432Y-89605180D01*
X43278207Y-89700975D01*
X43192136Y-89836865D01*
X43160754Y-89994632D01*
X36254000Y-89994632D01*
X36254000Y-89336252D01*
X45366777Y-89336252D01*
X45394296Y-89494741D01*
X45477023Y-89632696D01*
X45603867Y-89731619D01*
X45757819Y-89778247D01*
X45918234Y-89766325D01*
X46113176Y-89673967D01*
X46197846Y-89740000D01*
X46351796Y-89786627D01*
X46512212Y-89774705D01*
X46657580Y-89705835D01*
X46768411Y-89589247D01*
X46829838Y-89440582D01*
X46829986Y-89428449D01*
X80065401Y-89428449D01*
X80065401Y-89621551D01*
X80125073Y-89805202D01*
X80238575Y-89961425D01*
X80394798Y-90074927D01*
X80578449Y-90134599D01*
X80771551Y-90134599D01*
X80955202Y-90074927D01*
X81111425Y-89961425D01*
X81224927Y-89805202D01*
X81284599Y-89621551D01*
X81284599Y-89428449D01*
X81224927Y-89244798D01*
X81111425Y-89088575D01*
X80994259Y-89003449D01*
X86090401Y-89003449D01*
X86090401Y-89196551D01*
X86150073Y-89380202D01*
X86263575Y-89536425D01*
X86419798Y-89649927D01*
X86603449Y-89709599D01*
X86796551Y-89709599D01*
X86815478Y-89703449D01*
X99690401Y-89703449D01*
X99690401Y-89896551D01*
X99750073Y-90080202D01*
X99863575Y-90236425D01*
X100019798Y-90349927D01*
X100203449Y-90409599D01*
X100396551Y-90409599D01*
X100580202Y-90349927D01*
X100736425Y-90236425D01*
X100849927Y-90080202D01*
X100907357Y-89903449D01*
X112590401Y-89903449D01*
X112590401Y-90096551D01*
X112650073Y-90280202D01*
X112763575Y-90436425D01*
X112919798Y-90549927D01*
X113103449Y-90609599D01*
X113296551Y-90609599D01*
X113480202Y-90549927D01*
X113636425Y-90436425D01*
X113679117Y-90377663D01*
X123217323Y-90377663D01*
X123255293Y-90556293D01*
X123331892Y-90722070D01*
X123443317Y-90866757D01*
X123584030Y-90983164D01*
X123747030Y-91065503D01*
X123924226Y-91109682D01*
X124106802Y-91113507D01*
X124285698Y-91076785D01*
X124452001Y-91001347D01*
X124597467Y-90890932D01*
X124714853Y-90751037D01*
X124798327Y-90588614D01*
X124843742Y-90411735D01*
X124844217Y-90377663D01*
X125452195Y-90377663D01*
X125490165Y-90556293D01*
X125566764Y-90722070D01*
X125678189Y-90866757D01*
X125818902Y-90983164D01*
X125981902Y-91065503D01*
X126159098Y-91109682D01*
X126341674Y-91113507D01*
X126520570Y-91076785D01*
X126686873Y-91001347D01*
X126832339Y-90890932D01*
X126949725Y-90751037D01*
X127033199Y-90588614D01*
X127078614Y-90411735D01*
X127081481Y-90206417D01*
X127041022Y-90028337D01*
X127000918Y-89944632D01*
X165960754Y-89944632D01*
X165988273Y-90103121D01*
X166071003Y-90241080D01*
X166145566Y-90299243D01*
X166002093Y-90525762D01*
X165970711Y-90683527D01*
X165998230Y-90842016D01*
X166092251Y-90998806D01*
X165992136Y-91156866D01*
X165960754Y-91314633D01*
X165988273Y-91473122D01*
X166102197Y-91663102D01*
X165992136Y-91836865D01*
X165960754Y-91994632D01*
X165988273Y-92153121D01*
X166071000Y-92291076D01*
X166197844Y-92389999D01*
X166351796Y-92436627D01*
X166512211Y-92424705D01*
X166717584Y-92327405D01*
X166797845Y-92389999D01*
X166951796Y-92436627D01*
X167112212Y-92424705D01*
X167257580Y-92355835D01*
X167368411Y-92239247D01*
X167429838Y-92090582D01*
X167431922Y-91919947D01*
X167374146Y-91769824D01*
X167266198Y-91650565D01*
X167122555Y-91578163D01*
X166828147Y-91549037D01*
X166831922Y-91239948D01*
X166774146Y-91089825D01*
X166701235Y-91009281D01*
X166778368Y-90928143D01*
X166839795Y-90779477D01*
X166841879Y-90608842D01*
X166784103Y-90458720D01*
X166651506Y-90312227D01*
X166768410Y-90189248D01*
X166829838Y-90040582D01*
X166831922Y-89869947D01*
X166774146Y-89719824D01*
X166666198Y-89600565D01*
X166522555Y-89528163D01*
X166362479Y-89512326D01*
X166207432Y-89555180D01*
X166078207Y-89650975D01*
X165992136Y-89786865D01*
X165960754Y-89944632D01*
X127000918Y-89944632D01*
X126962113Y-89863641D01*
X126848682Y-89720527D01*
X126706360Y-89606096D01*
X126542223Y-89526042D01*
X126364428Y-89484340D01*
X126181813Y-89483065D01*
X126003452Y-89522280D01*
X125838211Y-89600038D01*
X125694309Y-89712466D01*
X125578886Y-89853988D01*
X125497686Y-90017563D01*
X125454746Y-90195060D01*
X125452195Y-90377663D01*
X124844217Y-90377663D01*
X124846609Y-90206417D01*
X124806150Y-90028337D01*
X124727241Y-89863641D01*
X124613810Y-89720527D01*
X124471488Y-89606096D01*
X124307351Y-89526042D01*
X124129556Y-89484340D01*
X123946941Y-89483065D01*
X123768580Y-89522280D01*
X123603339Y-89600038D01*
X123459437Y-89712466D01*
X123344014Y-89853988D01*
X123262814Y-90017563D01*
X123219874Y-90195060D01*
X123217323Y-90377663D01*
X113679117Y-90377663D01*
X113749927Y-90280202D01*
X113809599Y-90096551D01*
X113809599Y-89903449D01*
X113749927Y-89719798D01*
X113636425Y-89563575D01*
X113480202Y-89450073D01*
X113296551Y-89390401D01*
X113103449Y-89390401D01*
X112919798Y-89450073D01*
X112763575Y-89563575D01*
X112650073Y-89719798D01*
X112590401Y-89903449D01*
X100907357Y-89903449D01*
X100909599Y-89896551D01*
X100909599Y-89703449D01*
X100849927Y-89519798D01*
X100736425Y-89363575D01*
X100580202Y-89250073D01*
X100396551Y-89190401D01*
X100203449Y-89190401D01*
X100019798Y-89250073D01*
X99863575Y-89363575D01*
X99750073Y-89519798D01*
X99690401Y-89703449D01*
X86815478Y-89703449D01*
X86980202Y-89649927D01*
X87136425Y-89536425D01*
X87249927Y-89380202D01*
X87309599Y-89196551D01*
X87309599Y-89003449D01*
X87249927Y-88819798D01*
X87136425Y-88663575D01*
X87006363Y-88569081D01*
X87104075Y-88377310D01*
X87203449Y-88409599D01*
X87396551Y-88409599D01*
X87580202Y-88349927D01*
X87736425Y-88236425D01*
X87849927Y-88080202D01*
X87909599Y-87896551D01*
X87909599Y-87803449D01*
X90790401Y-87803449D01*
X90790401Y-87996551D01*
X90850073Y-88180202D01*
X90963575Y-88336424D01*
X91119899Y-88450000D01*
X90963575Y-88563576D01*
X90850073Y-88719798D01*
X90790401Y-88903449D01*
X90790401Y-89096551D01*
X90850073Y-89280202D01*
X90963575Y-89436425D01*
X91119798Y-89549927D01*
X91303449Y-89609599D01*
X91496551Y-89609599D01*
X91680202Y-89549927D01*
X91836425Y-89436425D01*
X91949927Y-89280202D01*
X92009599Y-89096551D01*
X92009599Y-88903449D01*
X91949927Y-88719798D01*
X91836425Y-88563576D01*
X91680101Y-88450000D01*
X91836425Y-88336424D01*
X91949927Y-88180202D01*
X92009599Y-87996551D01*
X92009599Y-87903449D01*
X92990401Y-87903449D01*
X92990401Y-88096551D01*
X93050073Y-88280202D01*
X93163575Y-88436425D01*
X93319798Y-88549927D01*
X93503449Y-88609599D01*
X93696551Y-88609599D01*
X93880202Y-88549927D01*
X94036425Y-88436425D01*
X94149927Y-88280202D01*
X94209599Y-88096551D01*
X94209599Y-87903449D01*
X94149927Y-87719798D01*
X94036425Y-87563575D01*
X93880202Y-87450073D01*
X93736709Y-87403449D01*
X98990401Y-87403449D01*
X98990401Y-87596551D01*
X99050073Y-87780202D01*
X99163575Y-87936425D01*
X99319798Y-88049927D01*
X99503449Y-88109599D01*
X99696551Y-88109599D01*
X99880202Y-88049927D01*
X100036425Y-87936425D01*
X100149927Y-87780202D01*
X100209599Y-87596551D01*
X100209599Y-87403450D01*
X100146612Y-87209599D01*
X100496551Y-87209599D01*
X100680202Y-87149927D01*
X100836425Y-87036425D01*
X100949927Y-86880202D01*
X100974865Y-86803449D01*
X109090401Y-86803449D01*
X109090401Y-86996551D01*
X109150073Y-87180202D01*
X109263575Y-87336424D01*
X109419899Y-87450000D01*
X109263575Y-87563576D01*
X109150073Y-87719798D01*
X109090401Y-87903449D01*
X109090401Y-88096551D01*
X109150073Y-88280202D01*
X109263575Y-88436425D01*
X109419798Y-88549927D01*
X109602917Y-88609426D01*
X109450073Y-88819798D01*
X109390401Y-89003449D01*
X109390401Y-89196551D01*
X109450073Y-89380202D01*
X109563575Y-89536425D01*
X109719798Y-89649927D01*
X109903449Y-89709599D01*
X110096551Y-89709599D01*
X110280202Y-89649927D01*
X110436425Y-89536425D01*
X110549927Y-89380202D01*
X110561484Y-89344632D01*
X163710754Y-89344632D01*
X163738273Y-89503121D01*
X163821000Y-89641076D01*
X163947844Y-89739999D01*
X164101796Y-89786627D01*
X164262212Y-89774705D01*
X164407580Y-89705835D01*
X164518411Y-89589247D01*
X164579838Y-89440582D01*
X164581922Y-89269947D01*
X164524146Y-89119824D01*
X164416198Y-89000565D01*
X164272555Y-88928163D01*
X164112479Y-88912326D01*
X163957432Y-88955180D01*
X163828207Y-89050975D01*
X163742136Y-89186865D01*
X163710754Y-89344632D01*
X110561484Y-89344632D01*
X110609599Y-89196551D01*
X110609599Y-89003449D01*
X110549927Y-88819798D01*
X110436425Y-88663575D01*
X110280202Y-88550073D01*
X110097083Y-88490574D01*
X110249927Y-88280202D01*
X110258619Y-88253449D01*
X112740401Y-88253449D01*
X112740401Y-88446551D01*
X112800073Y-88630202D01*
X112913575Y-88786425D01*
X113069798Y-88899927D01*
X113253449Y-88959599D01*
X113446551Y-88959599D01*
X113630202Y-88899927D01*
X113786425Y-88786425D01*
X113899927Y-88630202D01*
X113959599Y-88446551D01*
X113959599Y-88253449D01*
X113899927Y-88069798D01*
X113786425Y-87913575D01*
X113772488Y-87903449D01*
X160290401Y-87903449D01*
X160290401Y-88096551D01*
X160350073Y-88280202D01*
X160463575Y-88436425D01*
X160619798Y-88549927D01*
X160803449Y-88609599D01*
X160996551Y-88609599D01*
X161180200Y-88549928D01*
X161252806Y-88497176D01*
X161390401Y-88567284D01*
X161390401Y-88746551D01*
X161450073Y-88930202D01*
X161563575Y-89086425D01*
X161719798Y-89199927D01*
X161903449Y-89259599D01*
X162096551Y-89259599D01*
X162280202Y-89199927D01*
X162436425Y-89086425D01*
X162549927Y-88930202D01*
X162609599Y-88746551D01*
X162609599Y-88553451D01*
X162572931Y-88440602D01*
X162725562Y-88333628D01*
X162797844Y-88389999D01*
X162951796Y-88436627D01*
X163112212Y-88424705D01*
X163257580Y-88355835D01*
X163368411Y-88239247D01*
X163429838Y-88090582D01*
X163431009Y-87994632D01*
X164260754Y-87994632D01*
X164288273Y-88153121D01*
X164371000Y-88291076D01*
X164497844Y-88389999D01*
X164651796Y-88436627D01*
X164909072Y-88417506D01*
X164860754Y-88660417D01*
X164888273Y-88818906D01*
X164971000Y-88956861D01*
X165097844Y-89055784D01*
X165251796Y-89102412D01*
X165412212Y-89090490D01*
X165557580Y-89021620D01*
X165668411Y-88905032D01*
X165729838Y-88756367D01*
X165730591Y-88694632D01*
X166010754Y-88694632D01*
X166038273Y-88853121D01*
X166121000Y-88991076D01*
X166247844Y-89089999D01*
X166401796Y-89136627D01*
X166562212Y-89124705D01*
X166707580Y-89055835D01*
X166818411Y-88939247D01*
X166879838Y-88790582D01*
X166881922Y-88619948D01*
X166815273Y-88446772D01*
X167112213Y-88424705D01*
X167257580Y-88355835D01*
X167368411Y-88239247D01*
X167429838Y-88090582D01*
X167431922Y-87919947D01*
X167374146Y-87769824D01*
X167266198Y-87650565D01*
X167122555Y-87578163D01*
X166962479Y-87562326D01*
X166807432Y-87605180D01*
X166678207Y-87700975D01*
X166592136Y-87836865D01*
X166560754Y-87994632D01*
X166610638Y-88281929D01*
X166412480Y-88262326D01*
X166257432Y-88305180D01*
X166128207Y-88400975D01*
X166042136Y-88536865D01*
X166010754Y-88694632D01*
X165730591Y-88694632D01*
X165731922Y-88585732D01*
X165674146Y-88435609D01*
X165566198Y-88316350D01*
X165422555Y-88243948D01*
X165128320Y-88214839D01*
X165131922Y-87919947D01*
X165074146Y-87769824D01*
X164966198Y-87650565D01*
X164822555Y-87578163D01*
X164662479Y-87562326D01*
X164507432Y-87605180D01*
X164378207Y-87700975D01*
X164292136Y-87836865D01*
X164260754Y-87994632D01*
X163431009Y-87994632D01*
X163431922Y-87919947D01*
X163374146Y-87769824D01*
X163266198Y-87650565D01*
X163122555Y-87578163D01*
X162962479Y-87562326D01*
X162807432Y-87605180D01*
X162678207Y-87700975D01*
X162592136Y-87836865D01*
X162560754Y-87994633D01*
X162583574Y-88126058D01*
X162439513Y-88215817D01*
X162280202Y-88100073D01*
X162096551Y-88040401D01*
X161903449Y-88040401D01*
X161719800Y-88100072D01*
X161647194Y-88152824D01*
X161509599Y-88082716D01*
X161509599Y-87903449D01*
X161449927Y-87719798D01*
X161336425Y-87563575D01*
X161180202Y-87450073D01*
X160996551Y-87390401D01*
X160803449Y-87390401D01*
X160619798Y-87450073D01*
X160463575Y-87563575D01*
X160350073Y-87719798D01*
X160290401Y-87903449D01*
X113772488Y-87903449D01*
X113630202Y-87800073D01*
X113446551Y-87740401D01*
X113253449Y-87740401D01*
X113069798Y-87800073D01*
X112913575Y-87913575D01*
X112800073Y-88069798D01*
X112740401Y-88253449D01*
X110258619Y-88253449D01*
X110309599Y-88096551D01*
X110309599Y-87903449D01*
X110249927Y-87719798D01*
X110136425Y-87563576D01*
X109980101Y-87450000D01*
X110136425Y-87336424D01*
X110249927Y-87180202D01*
X110309599Y-86996551D01*
X110309599Y-86803449D01*
X110249927Y-86619798D01*
X110136425Y-86463575D01*
X109980202Y-86350073D01*
X109796551Y-86290401D01*
X109603449Y-86290401D01*
X109419798Y-86350073D01*
X109263575Y-86463575D01*
X109150073Y-86619798D01*
X109090401Y-86803449D01*
X100974865Y-86803449D01*
X101009599Y-86696551D01*
X101009599Y-86503449D01*
X100949927Y-86319798D01*
X100836425Y-86163575D01*
X100680202Y-86050073D01*
X100496551Y-85990401D01*
X100303449Y-85990401D01*
X100119798Y-86050073D01*
X99963575Y-86163575D01*
X99850073Y-86319798D01*
X99790401Y-86503449D01*
X99790401Y-86696550D01*
X99853388Y-86890401D01*
X99503449Y-86890401D01*
X99319798Y-86950073D01*
X99163575Y-87063575D01*
X99050073Y-87219798D01*
X98990401Y-87403449D01*
X93736709Y-87403449D01*
X93696551Y-87390401D01*
X93503449Y-87390401D01*
X93319798Y-87450073D01*
X93163575Y-87563575D01*
X93050073Y-87719798D01*
X92990401Y-87903449D01*
X92009599Y-87903449D01*
X92009599Y-87803449D01*
X91949927Y-87619798D01*
X91836425Y-87463575D01*
X91680202Y-87350073D01*
X91496551Y-87290401D01*
X91303449Y-87290401D01*
X91119798Y-87350073D01*
X90963575Y-87463575D01*
X90850073Y-87619798D01*
X90790401Y-87803449D01*
X87909599Y-87803449D01*
X87909599Y-87703449D01*
X87849927Y-87519798D01*
X87736425Y-87363575D01*
X87580202Y-87250073D01*
X87396551Y-87190401D01*
X87203449Y-87190401D01*
X87019798Y-87250073D01*
X86863575Y-87363575D01*
X86750073Y-87519798D01*
X86690401Y-87703449D01*
X86690401Y-87896551D01*
X86750073Y-88080202D01*
X86863575Y-88236425D01*
X86993637Y-88330919D01*
X86895925Y-88522690D01*
X86796551Y-88490401D01*
X86603449Y-88490401D01*
X86419798Y-88550073D01*
X86263575Y-88663575D01*
X86150073Y-88819798D01*
X86090401Y-89003449D01*
X80994259Y-89003449D01*
X80955202Y-88975073D01*
X80771551Y-88915401D01*
X80578449Y-88915401D01*
X80394798Y-88975073D01*
X80238575Y-89088575D01*
X80125073Y-89244798D01*
X80065401Y-89428449D01*
X46829986Y-89428449D01*
X46831922Y-89269947D01*
X46774146Y-89119824D01*
X46666198Y-89000565D01*
X46522555Y-88928163D01*
X46362479Y-88912326D01*
X46207431Y-88955180D01*
X46122992Y-89017777D01*
X45928578Y-88919783D01*
X45768502Y-88903946D01*
X45613455Y-88946800D01*
X45484230Y-89042595D01*
X45398159Y-89178485D01*
X45366777Y-89336252D01*
X36254000Y-89336252D01*
X36254000Y-87903449D01*
X39890401Y-87903449D01*
X39890401Y-88096551D01*
X39950073Y-88280202D01*
X40063575Y-88436425D01*
X40219798Y-88549927D01*
X40403449Y-88609599D01*
X40596551Y-88609599D01*
X40780202Y-88549927D01*
X40936425Y-88436425D01*
X41100000Y-88211283D01*
X41263575Y-88436425D01*
X41419798Y-88549927D01*
X41603449Y-88609599D01*
X41895990Y-88609599D01*
X41938273Y-88853121D01*
X42021000Y-88991076D01*
X42147844Y-89089999D01*
X42301796Y-89136627D01*
X42462212Y-89124705D01*
X42607580Y-89055835D01*
X42718411Y-88939247D01*
X42779838Y-88790582D01*
X42781922Y-88619947D01*
X42743980Y-88521357D01*
X42851066Y-88406119D01*
X42951798Y-88436627D01*
X43112212Y-88424705D01*
X43257580Y-88355835D01*
X43368411Y-88239247D01*
X43429838Y-88090582D01*
X43431009Y-87994632D01*
X44260754Y-87994632D01*
X44288273Y-88153121D01*
X44371000Y-88291076D01*
X44497844Y-88389999D01*
X44651796Y-88436627D01*
X44812212Y-88424705D01*
X44957580Y-88355835D01*
X45068411Y-88239247D01*
X45129838Y-88090582D01*
X45131009Y-87994632D01*
X46560754Y-87994632D01*
X46588273Y-88153121D01*
X46671000Y-88291076D01*
X46797844Y-88389999D01*
X46951796Y-88436627D01*
X47112212Y-88424705D01*
X47257580Y-88355835D01*
X47368411Y-88239247D01*
X47429838Y-88090582D01*
X47431922Y-87919947D01*
X47391497Y-87814906D01*
X48367401Y-87814906D01*
X48367401Y-87985094D01*
X48425610Y-88145023D01*
X48555652Y-88300000D01*
X48425610Y-88454977D01*
X48367401Y-88614906D01*
X48367401Y-88785094D01*
X48425610Y-88945023D01*
X48535006Y-89075396D01*
X48682394Y-89160491D01*
X48850000Y-89190044D01*
X49017606Y-89160491D01*
X49164994Y-89075396D01*
X49274390Y-88945023D01*
X49332599Y-88785094D01*
X49332599Y-88614906D01*
X49274390Y-88454977D01*
X49144348Y-88300000D01*
X49274390Y-88145023D01*
X49332599Y-87985094D01*
X49332599Y-87814906D01*
X49274390Y-87654977D01*
X49164994Y-87524604D01*
X49017606Y-87439509D01*
X48850000Y-87409956D01*
X48682394Y-87439509D01*
X48535006Y-87524604D01*
X48425610Y-87654977D01*
X48367401Y-87814906D01*
X47391497Y-87814906D01*
X47374146Y-87769824D01*
X47266198Y-87650565D01*
X47122555Y-87578163D01*
X46962479Y-87562326D01*
X46807432Y-87605180D01*
X46678207Y-87700975D01*
X46592136Y-87836865D01*
X46560754Y-87994632D01*
X45131009Y-87994632D01*
X45131922Y-87919947D01*
X45074146Y-87769824D01*
X44966198Y-87650565D01*
X44822555Y-87578163D01*
X44662479Y-87562326D01*
X44507432Y-87605180D01*
X44378207Y-87700975D01*
X44292136Y-87836865D01*
X44260754Y-87994632D01*
X43431009Y-87994632D01*
X43431922Y-87919947D01*
X43374146Y-87769824D01*
X43266198Y-87650565D01*
X43122555Y-87578163D01*
X42962479Y-87562326D01*
X42807432Y-87605180D01*
X42678207Y-87700975D01*
X42592136Y-87836865D01*
X42560754Y-87994633D01*
X42612386Y-88291995D01*
X42257501Y-88256888D01*
X42309599Y-88096550D01*
X42309599Y-87903449D01*
X42249927Y-87719798D01*
X42136425Y-87563575D01*
X41980202Y-87450073D01*
X41796551Y-87390401D01*
X41603449Y-87390401D01*
X41419798Y-87450073D01*
X41263575Y-87563575D01*
X41100000Y-87788717D01*
X40936425Y-87563575D01*
X40780202Y-87450073D01*
X40596551Y-87390401D01*
X40403449Y-87390401D01*
X40219798Y-87450073D01*
X40063575Y-87563575D01*
X39950073Y-87719798D01*
X39890401Y-87903449D01*
X36254000Y-87903449D01*
X36254000Y-85403449D01*
X42290401Y-85403449D01*
X42290401Y-85596551D01*
X42350073Y-85780202D01*
X42463575Y-85936425D01*
X42619798Y-86049927D01*
X42803449Y-86109599D01*
X42996551Y-86109599D01*
X43180202Y-86049927D01*
X43336425Y-85936425D01*
X43449927Y-85780202D01*
X43509599Y-85596551D01*
X43509599Y-85403449D01*
X44290401Y-85403449D01*
X44290401Y-85596551D01*
X44350073Y-85780202D01*
X44463575Y-85936425D01*
X44619798Y-86049927D01*
X44803449Y-86109599D01*
X44996551Y-86109599D01*
X45180202Y-86049927D01*
X45336425Y-85936425D01*
X45449927Y-85780202D01*
X45509599Y-85596551D01*
X45509599Y-85403449D01*
X45449927Y-85219798D01*
X45336425Y-85063575D01*
X45180202Y-84950073D01*
X44996551Y-84890401D01*
X44803449Y-84890401D01*
X44619798Y-84950073D01*
X44463575Y-85063575D01*
X44350073Y-85219798D01*
X44290401Y-85403449D01*
X43509599Y-85403449D01*
X43449927Y-85219798D01*
X43336425Y-85063575D01*
X43180202Y-84950073D01*
X42996551Y-84890401D01*
X42803449Y-84890401D01*
X42619798Y-84950073D01*
X42463575Y-85063575D01*
X42350073Y-85219798D01*
X42290401Y-85403449D01*
X36254000Y-85403449D01*
X36254000Y-84503449D01*
X54490401Y-84503449D01*
X54490401Y-84696551D01*
X54550073Y-84880202D01*
X54663575Y-85036425D01*
X54819798Y-85149927D01*
X55003449Y-85209599D01*
X55196551Y-85209599D01*
X55380202Y-85149927D01*
X55536425Y-85036425D01*
X55649927Y-84880202D01*
X55709599Y-84696551D01*
X55709599Y-84503449D01*
X55649927Y-84319798D01*
X55591950Y-84239998D01*
X69503024Y-84239998D01*
X69503024Y-85940002D01*
X69522736Y-86039106D01*
X69578876Y-86123124D01*
X69662894Y-86179264D01*
X69761998Y-86198976D01*
X71462002Y-86198976D01*
X71561106Y-86179264D01*
X71645124Y-86123124D01*
X71701264Y-86039106D01*
X71720976Y-85940002D01*
X71720976Y-85035826D01*
X72044303Y-85035826D01*
X72054043Y-85246260D01*
X72103400Y-85451062D01*
X72190595Y-85642836D01*
X72312474Y-85814654D01*
X72464652Y-85960333D01*
X72641632Y-86074608D01*
X72837019Y-86153351D01*
X73117371Y-86194000D01*
X73204631Y-86194000D01*
X73361711Y-86179014D01*
X73563854Y-86119710D01*
X73751137Y-86023254D01*
X73916803Y-85893122D01*
X74054872Y-85734011D01*
X74160361Y-85551666D01*
X74229468Y-85352656D01*
X74259697Y-85144174D01*
X74254683Y-85035826D01*
X74584303Y-85035826D01*
X74594043Y-85246260D01*
X74643400Y-85451062D01*
X74730595Y-85642836D01*
X74852474Y-85814654D01*
X75004652Y-85960333D01*
X75181632Y-86074608D01*
X75377019Y-86153351D01*
X75657371Y-86194000D01*
X75744631Y-86194000D01*
X75901711Y-86179014D01*
X76103854Y-86119710D01*
X76291137Y-86023254D01*
X76456803Y-85893122D01*
X76594872Y-85734011D01*
X76700361Y-85551666D01*
X76769468Y-85352656D01*
X76799697Y-85144174D01*
X76794683Y-85035826D01*
X77124303Y-85035826D01*
X77134043Y-85246260D01*
X77183400Y-85451062D01*
X77270595Y-85642836D01*
X77392474Y-85814654D01*
X77544652Y-85960333D01*
X77721632Y-86074608D01*
X77917019Y-86153351D01*
X78197371Y-86194000D01*
X78284631Y-86194000D01*
X78441711Y-86179014D01*
X78643854Y-86119710D01*
X78831137Y-86023254D01*
X78996803Y-85893122D01*
X79134872Y-85734011D01*
X79240361Y-85551666D01*
X79309468Y-85352656D01*
X79339697Y-85144174D01*
X79334683Y-85035826D01*
X79664303Y-85035826D01*
X79674043Y-85246260D01*
X79723400Y-85451062D01*
X79810595Y-85642836D01*
X79932474Y-85814654D01*
X80084652Y-85960333D01*
X80261632Y-86074608D01*
X80457019Y-86153351D01*
X80737371Y-86194000D01*
X80824631Y-86194000D01*
X80981711Y-86179014D01*
X81183854Y-86119710D01*
X81371137Y-86023254D01*
X81536803Y-85893122D01*
X81674872Y-85734011D01*
X81780361Y-85551666D01*
X81849468Y-85352656D01*
X81879697Y-85144174D01*
X81874683Y-85035826D01*
X82204303Y-85035826D01*
X82214043Y-85246260D01*
X82263400Y-85451062D01*
X82350595Y-85642836D01*
X82472474Y-85814654D01*
X82624652Y-85960333D01*
X82801632Y-86074608D01*
X82997019Y-86153351D01*
X83277371Y-86194000D01*
X83364631Y-86194000D01*
X83521711Y-86179014D01*
X83723854Y-86119710D01*
X83911137Y-86023254D01*
X84076803Y-85893122D01*
X84214872Y-85734011D01*
X84232552Y-85703449D01*
X87190401Y-85703449D01*
X87190401Y-85896551D01*
X87250073Y-86080202D01*
X87363575Y-86236425D01*
X87519798Y-86349927D01*
X87703449Y-86409599D01*
X87896551Y-86409599D01*
X88080202Y-86349927D01*
X88236425Y-86236425D01*
X88349927Y-86080202D01*
X88409599Y-85896551D01*
X88409599Y-85703449D01*
X88349927Y-85519798D01*
X88236425Y-85363575D01*
X88080202Y-85250073D01*
X87896551Y-85190401D01*
X87703449Y-85190401D01*
X87519798Y-85250073D01*
X87363575Y-85363575D01*
X87250073Y-85519798D01*
X87190401Y-85703449D01*
X84232552Y-85703449D01*
X84320361Y-85551666D01*
X84389468Y-85352656D01*
X84419697Y-85144174D01*
X84409957Y-84933740D01*
X84360600Y-84728938D01*
X84273405Y-84537164D01*
X84151526Y-84365346D01*
X83999348Y-84219667D01*
X83822368Y-84105392D01*
X83817547Y-84103449D01*
X93290401Y-84103449D01*
X93290401Y-84296551D01*
X93350073Y-84480202D01*
X93463575Y-84636424D01*
X93619899Y-84750000D01*
X93463575Y-84863576D01*
X93350073Y-85019798D01*
X93290401Y-85203449D01*
X93290401Y-85396551D01*
X93350073Y-85580202D01*
X93463575Y-85736425D01*
X93619798Y-85849927D01*
X93803449Y-85909599D01*
X93996551Y-85909599D01*
X94180202Y-85849927D01*
X94336425Y-85736425D01*
X94449927Y-85580202D01*
X94509599Y-85396551D01*
X94509599Y-85203449D01*
X94449927Y-85019798D01*
X94336425Y-84863576D01*
X94180101Y-84750000D01*
X94244172Y-84703449D01*
X95490401Y-84703449D01*
X95490401Y-84896551D01*
X95550073Y-85080202D01*
X95663575Y-85236425D01*
X95819798Y-85349927D01*
X96003449Y-85409599D01*
X96196551Y-85409599D01*
X96380202Y-85349927D01*
X96536425Y-85236425D01*
X96649927Y-85080202D01*
X96681767Y-84982207D01*
X125452195Y-84982207D01*
X125490165Y-85160837D01*
X125566764Y-85326614D01*
X125678189Y-85471301D01*
X125818902Y-85587708D01*
X125981902Y-85670047D01*
X126159098Y-85714226D01*
X126341674Y-85718051D01*
X126520570Y-85681329D01*
X126686873Y-85605891D01*
X126832339Y-85495476D01*
X126949725Y-85355581D01*
X127033199Y-85193158D01*
X127060678Y-85086132D01*
X130970986Y-85086132D01*
X130990262Y-85295904D01*
X131048858Y-85498258D01*
X131144661Y-85685877D01*
X131274213Y-85851994D01*
X131432844Y-85990620D01*
X131614818Y-86096744D01*
X131813582Y-86166545D01*
X132021956Y-86197501D01*
X132232430Y-86188496D01*
X132437400Y-86139853D01*
X132629470Y-86053333D01*
X132801724Y-85932046D01*
X132947927Y-85780384D01*
X133062820Y-85603801D01*
X133142245Y-85408691D01*
X133183345Y-85202072D01*
X133183924Y-85035826D01*
X133512303Y-85035826D01*
X133522043Y-85246260D01*
X133571400Y-85451062D01*
X133658595Y-85642836D01*
X133780474Y-85814654D01*
X133932652Y-85960333D01*
X134109632Y-86074608D01*
X134305019Y-86153351D01*
X134585371Y-86194000D01*
X134672631Y-86194000D01*
X134829711Y-86179014D01*
X135031854Y-86119710D01*
X135219137Y-86023254D01*
X135384803Y-85893122D01*
X135522872Y-85734011D01*
X135628361Y-85551666D01*
X135697468Y-85352656D01*
X135704602Y-85303449D01*
X162290401Y-85303449D01*
X162290401Y-85496551D01*
X162350073Y-85680202D01*
X162463575Y-85836425D01*
X162619798Y-85949927D01*
X162803449Y-86009599D01*
X162996551Y-86009599D01*
X163180202Y-85949927D01*
X163336425Y-85836425D01*
X163449927Y-85680202D01*
X163509599Y-85496551D01*
X163509599Y-85303449D01*
X164290401Y-85303449D01*
X164290401Y-85496551D01*
X164350073Y-85680202D01*
X164463575Y-85836425D01*
X164619798Y-85949927D01*
X164803449Y-86009599D01*
X164996551Y-86009599D01*
X165180202Y-85949927D01*
X165336425Y-85836425D01*
X165449927Y-85680202D01*
X165509599Y-85496551D01*
X165509599Y-85303449D01*
X165449927Y-85119798D01*
X165336425Y-84963575D01*
X165180202Y-84850073D01*
X164996551Y-84790401D01*
X164803449Y-84790401D01*
X164619798Y-84850073D01*
X164463575Y-84963575D01*
X164350073Y-85119798D01*
X164290401Y-85303449D01*
X163509599Y-85303449D01*
X163449927Y-85119798D01*
X163336425Y-84963575D01*
X163180202Y-84850073D01*
X162996551Y-84790401D01*
X162803449Y-84790401D01*
X162619798Y-84850073D01*
X162463575Y-84963575D01*
X162350073Y-85119798D01*
X162290401Y-85303449D01*
X135704602Y-85303449D01*
X135727697Y-85144174D01*
X135717957Y-84933740D01*
X135668600Y-84728938D01*
X135581405Y-84537164D01*
X135459526Y-84365346D01*
X135307348Y-84219667D01*
X135130368Y-84105392D01*
X134934981Y-84026649D01*
X134654629Y-83986000D01*
X134567369Y-83986000D01*
X134410289Y-84000986D01*
X134208146Y-84060290D01*
X134020863Y-84156746D01*
X133855197Y-84286878D01*
X133717128Y-84445989D01*
X133611639Y-84628334D01*
X133542532Y-84827344D01*
X133512303Y-85035826D01*
X133183924Y-85035826D01*
X133184099Y-84985636D01*
X133144444Y-84778734D01*
X133066381Y-84583070D01*
X132952726Y-84405694D01*
X132807583Y-84253012D01*
X132636184Y-84130528D01*
X132444719Y-84042666D01*
X132240094Y-83992595D01*
X132029689Y-83982121D01*
X131821107Y-84011620D01*
X131621859Y-84080033D01*
X131439143Y-84184887D01*
X131279553Y-84322399D01*
X131148844Y-84487608D01*
X131051733Y-84674553D01*
X130991727Y-84876487D01*
X130970986Y-85086132D01*
X127060678Y-85086132D01*
X127078614Y-85016279D01*
X127081481Y-84810961D01*
X127041022Y-84632881D01*
X126962113Y-84468185D01*
X126848682Y-84325071D01*
X126706360Y-84210640D01*
X126542223Y-84130586D01*
X126364428Y-84088884D01*
X126181813Y-84087609D01*
X126003452Y-84126824D01*
X125838211Y-84204582D01*
X125694309Y-84317010D01*
X125578886Y-84458532D01*
X125497686Y-84622107D01*
X125454746Y-84799604D01*
X125452195Y-84982207D01*
X96681767Y-84982207D01*
X96709599Y-84896551D01*
X96709599Y-84703449D01*
X96649927Y-84519798D01*
X96536425Y-84363575D01*
X96380202Y-84250073D01*
X96196551Y-84190401D01*
X96003449Y-84190401D01*
X95819798Y-84250073D01*
X95663575Y-84363575D01*
X95550073Y-84519798D01*
X95490401Y-84703449D01*
X94244172Y-84703449D01*
X94336425Y-84636424D01*
X94449927Y-84480202D01*
X94509599Y-84296551D01*
X94509599Y-84103449D01*
X94449927Y-83919798D01*
X94438049Y-83903449D01*
X100590401Y-83903449D01*
X100590401Y-84096551D01*
X100650073Y-84280202D01*
X100763575Y-84436425D01*
X100919798Y-84549927D01*
X101103449Y-84609599D01*
X101296551Y-84609599D01*
X101480202Y-84549927D01*
X101636425Y-84436425D01*
X101749927Y-84280202D01*
X101809599Y-84096551D01*
X101809599Y-83903449D01*
X101777107Y-83803449D01*
X108390401Y-83803449D01*
X108390401Y-83996551D01*
X108450073Y-84180202D01*
X108563575Y-84336425D01*
X108719798Y-84449927D01*
X108903449Y-84509599D01*
X109096551Y-84509599D01*
X109280202Y-84449927D01*
X109436425Y-84336425D01*
X109549927Y-84180202D01*
X109609599Y-83996551D01*
X109609599Y-83803449D01*
X109549927Y-83619798D01*
X109436425Y-83463575D01*
X109280202Y-83350073D01*
X109136709Y-83303449D01*
X154090401Y-83303449D01*
X154090401Y-83496551D01*
X154150073Y-83680202D01*
X154263575Y-83836425D01*
X154419798Y-83949927D01*
X154603449Y-84009599D01*
X154796551Y-84009599D01*
X154980202Y-83949927D01*
X155136425Y-83836425D01*
X155249927Y-83680202D01*
X155309599Y-83496551D01*
X155309599Y-83303449D01*
X155249927Y-83119798D01*
X155136425Y-82963575D01*
X154980202Y-82850073D01*
X154796551Y-82790401D01*
X154603449Y-82790401D01*
X154419798Y-82850073D01*
X154263575Y-82963575D01*
X154150073Y-83119798D01*
X154090401Y-83303449D01*
X109136709Y-83303449D01*
X109096551Y-83290401D01*
X108903449Y-83290401D01*
X108719798Y-83350073D01*
X108563575Y-83463575D01*
X108450073Y-83619798D01*
X108390401Y-83803449D01*
X101777107Y-83803449D01*
X101749927Y-83719798D01*
X101636425Y-83563575D01*
X101480202Y-83450073D01*
X101296551Y-83390401D01*
X101103449Y-83390401D01*
X100919798Y-83450073D01*
X100763575Y-83563575D01*
X100650073Y-83719798D01*
X100590401Y-83903449D01*
X94438049Y-83903449D01*
X94336425Y-83763575D01*
X94180202Y-83650073D01*
X93996551Y-83590401D01*
X93803449Y-83590401D01*
X93619798Y-83650073D01*
X93463575Y-83763575D01*
X93350073Y-83919798D01*
X93290401Y-84103449D01*
X83817547Y-84103449D01*
X83626981Y-84026649D01*
X83346629Y-83986000D01*
X83259369Y-83986000D01*
X83102289Y-84000986D01*
X82900146Y-84060290D01*
X82712863Y-84156746D01*
X82547197Y-84286878D01*
X82409128Y-84445989D01*
X82303639Y-84628334D01*
X82234532Y-84827344D01*
X82204303Y-85035826D01*
X81874683Y-85035826D01*
X81869957Y-84933740D01*
X81820600Y-84728938D01*
X81733405Y-84537164D01*
X81611526Y-84365346D01*
X81459348Y-84219667D01*
X81282368Y-84105392D01*
X81086981Y-84026649D01*
X80806629Y-83986000D01*
X80719369Y-83986000D01*
X80562289Y-84000986D01*
X80360146Y-84060290D01*
X80172863Y-84156746D01*
X80007197Y-84286878D01*
X79869128Y-84445989D01*
X79763639Y-84628334D01*
X79694532Y-84827344D01*
X79664303Y-85035826D01*
X79334683Y-85035826D01*
X79329957Y-84933740D01*
X79280600Y-84728938D01*
X79193405Y-84537164D01*
X79071526Y-84365346D01*
X78919348Y-84219667D01*
X78742368Y-84105392D01*
X78546981Y-84026649D01*
X78266629Y-83986000D01*
X78179369Y-83986000D01*
X78022289Y-84000986D01*
X77820146Y-84060290D01*
X77632863Y-84156746D01*
X77467197Y-84286878D01*
X77329128Y-84445989D01*
X77223639Y-84628334D01*
X77154532Y-84827344D01*
X77124303Y-85035826D01*
X76794683Y-85035826D01*
X76789957Y-84933740D01*
X76740600Y-84728938D01*
X76653405Y-84537164D01*
X76531526Y-84365346D01*
X76379348Y-84219667D01*
X76202368Y-84105392D01*
X76006981Y-84026649D01*
X75726629Y-83986000D01*
X75639369Y-83986000D01*
X75482289Y-84000986D01*
X75280146Y-84060290D01*
X75092863Y-84156746D01*
X74927197Y-84286878D01*
X74789128Y-84445989D01*
X74683639Y-84628334D01*
X74614532Y-84827344D01*
X74584303Y-85035826D01*
X74254683Y-85035826D01*
X74249957Y-84933740D01*
X74200600Y-84728938D01*
X74113405Y-84537164D01*
X73991526Y-84365346D01*
X73839348Y-84219667D01*
X73662368Y-84105392D01*
X73466981Y-84026649D01*
X73186629Y-83986000D01*
X73099369Y-83986000D01*
X72942289Y-84000986D01*
X72740146Y-84060290D01*
X72552863Y-84156746D01*
X72387197Y-84286878D01*
X72249128Y-84445989D01*
X72143639Y-84628334D01*
X72074532Y-84827344D01*
X72044303Y-85035826D01*
X71720976Y-85035826D01*
X71720976Y-84239998D01*
X71701264Y-84140894D01*
X71645124Y-84056876D01*
X71561106Y-84000736D01*
X71462002Y-83981024D01*
X69761998Y-83981024D01*
X69662894Y-84000736D01*
X69578876Y-84056876D01*
X69522736Y-84140894D01*
X69503024Y-84239998D01*
X55591950Y-84239998D01*
X55536425Y-84163575D01*
X55380202Y-84050073D01*
X55196551Y-83990401D01*
X55003449Y-83990401D01*
X54819798Y-84050073D01*
X54663575Y-84163575D01*
X54550073Y-84319798D01*
X54490401Y-84503449D01*
X36254000Y-84503449D01*
X36254000Y-78130191D01*
X36742026Y-78130191D01*
X36793611Y-78497234D01*
X36904446Y-78850911D01*
X37071565Y-79181751D01*
X37290467Y-79480843D01*
X37555282Y-79740168D01*
X37858898Y-79952762D01*
X38193158Y-80112913D01*
X38549083Y-80216318D01*
X38917125Y-80260205D01*
X39287381Y-80243391D01*
X39649933Y-80166329D01*
X39995021Y-80031091D01*
X40313389Y-79841306D01*
X40596487Y-79602069D01*
X40836709Y-79319809D01*
X41027604Y-79002106D01*
X41164049Y-78657484D01*
X41242375Y-78295213D01*
X41246408Y-78130191D01*
X56742026Y-78130191D01*
X56793611Y-78497234D01*
X56904446Y-78850911D01*
X57071565Y-79181751D01*
X57290467Y-79480843D01*
X57555282Y-79740168D01*
X57858898Y-79952762D01*
X58193158Y-80112913D01*
X58549083Y-80216318D01*
X58917125Y-80260205D01*
X59287381Y-80243391D01*
X59649933Y-80166329D01*
X59995021Y-80031091D01*
X60313389Y-79841306D01*
X60596487Y-79602069D01*
X60836709Y-79319809D01*
X61027604Y-79002106D01*
X61164049Y-78657484D01*
X61242375Y-78295213D01*
X61246408Y-78130191D01*
X102742026Y-78130191D01*
X102793611Y-78497234D01*
X102904446Y-78850911D01*
X103071565Y-79181751D01*
X103290467Y-79480843D01*
X103555282Y-79740168D01*
X103858898Y-79952762D01*
X104193158Y-80112913D01*
X104549083Y-80216318D01*
X104917125Y-80260205D01*
X105287381Y-80243391D01*
X105649933Y-80166329D01*
X105995021Y-80031091D01*
X106313389Y-79841306D01*
X106596487Y-79602069D01*
X106836709Y-79319809D01*
X107027604Y-79002106D01*
X107164049Y-78657484D01*
X107242375Y-78295213D01*
X107246408Y-78130191D01*
X148742026Y-78130191D01*
X148793611Y-78497234D01*
X148904446Y-78850911D01*
X149071565Y-79181751D01*
X149290467Y-79480843D01*
X149555282Y-79740168D01*
X149858898Y-79952762D01*
X150193158Y-80112913D01*
X150549083Y-80216318D01*
X150917125Y-80260205D01*
X151287381Y-80243391D01*
X151649933Y-80166329D01*
X151995021Y-80031091D01*
X152313389Y-79841306D01*
X152596487Y-79602069D01*
X152836709Y-79319809D01*
X153027604Y-79002106D01*
X153164049Y-78657484D01*
X153242375Y-78295213D01*
X153246408Y-78130191D01*
X168742026Y-78130191D01*
X168793611Y-78497234D01*
X168904446Y-78850911D01*
X169071565Y-79181751D01*
X169290467Y-79480843D01*
X169555282Y-79740168D01*
X169858898Y-79952762D01*
X170193158Y-80112913D01*
X170549083Y-80216318D01*
X170917125Y-80260205D01*
X171287381Y-80243391D01*
X171649933Y-80166329D01*
X171995021Y-80031091D01*
X172313389Y-79841306D01*
X172596487Y-79602069D01*
X172836709Y-79319809D01*
X173027604Y-79002106D01*
X173164049Y-78657484D01*
X173242375Y-78295213D01*
X173254119Y-77814679D01*
X173193583Y-77449013D01*
X173074135Y-77098136D01*
X172898990Y-76771492D01*
X172672842Y-76477832D01*
X172401766Y-76225050D01*
X172093053Y-76019942D01*
X171754980Y-75868005D01*
X171396631Y-75773326D01*
X171027630Y-75738445D01*
X170657891Y-75764300D01*
X170297337Y-75850196D01*
X169955648Y-75993828D01*
X169642020Y-76191330D01*
X169364844Y-76437420D01*
X169131595Y-76725458D01*
X168948518Y-77047731D01*
X168820534Y-77395582D01*
X168751082Y-77759661D01*
X168742026Y-78130191D01*
X153246408Y-78130191D01*
X153254119Y-77814679D01*
X153193583Y-77449013D01*
X153074135Y-77098136D01*
X152898990Y-76771492D01*
X152672842Y-76477832D01*
X152401766Y-76225050D01*
X152093053Y-76019942D01*
X151754980Y-75868005D01*
X151396631Y-75773326D01*
X151027630Y-75738445D01*
X150657891Y-75764300D01*
X150297337Y-75850196D01*
X149955648Y-75993828D01*
X149642020Y-76191330D01*
X149364844Y-76437420D01*
X149131595Y-76725458D01*
X148948518Y-77047731D01*
X148820534Y-77395582D01*
X148751082Y-77759661D01*
X148742026Y-78130191D01*
X107246408Y-78130191D01*
X107254119Y-77814679D01*
X107193583Y-77449013D01*
X107074135Y-77098136D01*
X106898990Y-76771492D01*
X106672842Y-76477832D01*
X106401766Y-76225050D01*
X106093053Y-76019942D01*
X105754980Y-75868005D01*
X105396631Y-75773326D01*
X105027630Y-75738445D01*
X104657891Y-75764300D01*
X104297337Y-75850196D01*
X103955648Y-75993828D01*
X103642020Y-76191330D01*
X103364844Y-76437420D01*
X103131595Y-76725458D01*
X102948518Y-77047731D01*
X102820534Y-77395582D01*
X102751082Y-77759661D01*
X102742026Y-78130191D01*
X61246408Y-78130191D01*
X61254119Y-77814679D01*
X61193583Y-77449013D01*
X61074135Y-77098136D01*
X60898990Y-76771492D01*
X60672842Y-76477832D01*
X60401766Y-76225050D01*
X60093053Y-76019942D01*
X59754980Y-75868005D01*
X59396631Y-75773326D01*
X59027630Y-75738445D01*
X58657891Y-75764300D01*
X58297337Y-75850196D01*
X57955648Y-75993828D01*
X57642020Y-76191330D01*
X57364844Y-76437420D01*
X57131595Y-76725458D01*
X56948518Y-77047731D01*
X56820534Y-77395582D01*
X56751082Y-77759661D01*
X56742026Y-78130191D01*
X41246408Y-78130191D01*
X41254119Y-77814679D01*
X41193583Y-77449013D01*
X41074135Y-77098136D01*
X40898990Y-76771492D01*
X40672842Y-76477832D01*
X40401766Y-76225050D01*
X40093053Y-76019942D01*
X39754980Y-75868005D01*
X39396631Y-75773326D01*
X39027630Y-75738445D01*
X38657891Y-75764300D01*
X38297337Y-75850196D01*
X37955648Y-75993828D01*
X37642020Y-76191330D01*
X37364844Y-76437420D01*
X37131595Y-76725458D01*
X36948518Y-77047731D01*
X36820534Y-77395582D01*
X36751082Y-77759661D01*
X36742026Y-78130191D01*
X36254000Y-78130191D01*
X36254000Y-75254000D01*
X173746000Y-75254000D01*
X173746001Y-104746000D01*
X173746001Y-104746000D01*
G37*
M02*
