M48
; DRILL file {KiCad 5.99.0-unknown-ad69e44~101~ubuntu18.04.1} date Mon Jun 22 16:54:31 2020
; FORMAT={-:-/ absolute / inch / decimal}
; #@! TF.CreationDate,2020-06-22T16:54:31+08:00
; #@! TF.GenerationSoftware,Kicad,Pcbnew,5.99.0-unknown-ad69e44~101~ubuntu18.04.1
; #@! TF.FileFunction,Plated,1,6,PTH
FMAT,2
INCH
T1C0.0080
T2C0.0118
T3C0.0150
T4C0.0157
T5C0.0256
T6C0.0315
T7C0.0362
T8C0.0394
T9C0.0433
T10C0.0472
T11C0.0630
T12C0.0669
T13C0.0906
T14C0.0984
T15C0.1260
%
G90
G05
T1
X1.3819Y-2.4606
X1.3819Y-2.5
X1.4055Y-2.4016
X1.4252Y-1.9409
X1.437Y-1.7717
X1.5256Y-1.9724
X1.563Y-2.086
X1.563Y-2.1732
X1.6181Y-2.5039
X1.626Y-2.4567
X1.6535Y-1.8898
X1.6535Y-1.9331
X1.6575Y-2.0709
X1.6575Y-2.1063
X1.6575Y-2.1417
X1.6575Y-2.1772
X1.6614Y-2.3504
X1.6811Y-2.311
X1.6811Y-3.8051
X1.689Y-2.0709
X1.689Y-2.1063
X1.689Y-2.1417
X1.689Y-2.1772
X1.7244Y-2.0709
X1.7244Y-2.1063
X1.7244Y-2.1417
X1.7244Y-2.1772
X1.7441Y-1.8819
X1.7559Y-2.0709
X1.7559Y-2.1063
X1.7559Y-2.1417
X1.7559Y-2.1772
X1.7953Y-2.2362
X1.8209Y-2.2657
X1.8228Y-2.3327
X1.8346Y-2.4094
X1.8425Y-2.0433
X1.8465Y-2.1024
X1.8583Y-2.1378
X1.8583Y-2.1654
X1.8681Y-3.4961
X1.8701Y-2.0472
X1.8839Y-3.3189
X1.8937Y-3.1181
X1.8937Y-3.5335
X1.9055Y-3.1811
X1.9488Y-3.7067
X1.9587Y-3.002
X1.9941Y-3.7323
X2.0039Y-3.0256
X2.0295Y-3.7343
X2.0315Y-3.4882
X2.0354Y-3.2598
X2.0531Y-2.9882
X2.0531Y-3.1713
X2.0591Y-3.7343
X2.0807Y-3.5965
X2.1201Y-3.3622
X2.1417Y-3.7343
X2.1575Y-3.3622
X2.1772Y-2.1969
X2.1811Y-2.2677
X2.1909Y-3.4961
X2.1929Y-2.2323
X2.2244Y-2.248
X2.2303Y-2.7815
X2.2323Y-2.0039
X2.252Y-2.4724
X2.2618Y-3.5925
X2.2657Y-2.6043
X2.2657Y-2.8957
X2.2657Y-3.3287
X2.2677Y-3.4587
X2.2795Y-2.5394
X2.3248Y-2.252
X2.3248Y-3.5906
X2.3318Y-2.1536
X2.3501Y-2.1352
X2.3543Y-3.374
X2.3583Y-3.4606
X2.372Y-2.8937
X2.3976Y-2.752
X2.4016Y-2.0
X2.4134Y-2.4823
X2.4154Y-2.2941
X2.4154Y-2.3201
X2.4154Y-2.4429
X2.4154Y-2.628
X2.437Y-2.4626
X2.439Y-2.5059
X2.4494Y-2.442
X2.4617Y-2.193
X2.4801Y-2.1746
X2.4921Y-3.5433
X2.5106Y-2.3228
X2.5197Y-3.5079
X2.5236Y-2.0
X2.5276Y-2.4528
X2.5366Y-2.3228
X2.5601Y-2.252
X2.561Y-2.4449
X2.5785Y-2.2336
X2.7126Y-3.126
X2.7795Y-2.0079
X2.79Y-2.1916
X2.8084Y-2.21
X2.8268Y-1.9409
X2.8307Y-3.1786
X2.8327Y-2.0079
X2.8386Y-3.5
X2.8406Y-3.5394
X2.8492Y-1.4626
X2.865Y-2.2283
X2.8701Y-3.5906
X2.8752Y-1.4626
X2.891Y-2.2283
X2.9134Y-2.1201
X2.9315Y-2.4987
X2.9567Y-2.1181
X2.9591Y-2.5184
X2.9764Y-2.3248
X2.9984Y-2.5066
X3.0157Y-2.0
X3.0197Y-1.811
X3.022Y-2.4594
X3.0368Y-1.8312
X3.0368Y-1.8572
X3.0374Y-2.3248
X3.0394Y-2.2677
X3.0433Y-1.8898
X3.0709Y-2.0
X3.0728Y-3.5
X3.0728Y-3.5335
X3.0827Y-3.1496
X3.0984Y-3.1142
X3.106Y-1.6041
X3.1063Y-1.6299
X3.1142Y-1.9094
X3.1457Y-1.6142
X3.1516Y-3.2894
X3.1555Y-3.7047
X3.1614Y-3.1299
X3.1817Y-3.5781
X3.185Y-3.1063
X3.185Y-3.2441
X3.2031Y-2.2074
X3.2067Y-2.3268
X3.2126Y-2.0118
X3.2205Y-2.2264
X3.2313Y-2.9596
X3.2402Y-2.248
X3.2425Y-3.3806
X3.2425Y-3.42
X3.2425Y-3.4594
X3.2618Y-3.7008
X3.2717Y-3.6299
X3.2756Y-2.2717
X3.2815Y-3.0512
X3.2819Y-2.5487
X3.2819Y-2.5747
X3.2913Y-3.6693
X3.2953Y-2.0079
X3.2953Y-2.4594
X3.2953Y-2.4854
X3.2953Y-3.4902
X3.2953Y-3.6043
X3.2992Y-3.3517
X3.3189Y-1.9961
X3.3307Y-3.6732
X3.3327Y-3.5162
X3.3488Y-1.8715
X3.3488Y-1.8975
X3.3545Y-1.6926
X3.3805Y-1.6926
X3.4003Y-2.7172
X3.4094Y-1.1969
X3.4134Y-2.1772
X3.4173Y-1.1614
X3.4186Y-2.7356
X3.4331Y-1.5866
X3.4331Y-2.0039
X3.435Y-2.9626
X3.437Y-3.4646
X3.4449Y-3.3346
X3.4449Y-3.3622
X3.4457Y-2.3169
X3.4717Y-2.3169
X3.4724Y-2.9626
X3.4882Y-2.1811
X3.4902Y-1.5965
X3.4941Y-1.6457
X3.4961Y-2.8898
X3.5063Y-3.8939
X3.5157Y-3.6063
X3.5315Y-2.1811
X3.5394Y-3.5827
X3.5846Y-3.1004
X3.5866Y-1.2598
X3.5945Y-3.6024
X3.6024Y-2.9685
X3.6102Y-3.563
X3.6181Y-1.8846
X3.6181Y-1.9106
X3.6181Y-3.2283
X3.626Y-3.1988
X3.628Y-3.1043
X3.6339Y-2.1811
X3.6417Y-3.311
X3.6417Y-3.3425
X3.6417Y-3.374
X3.6417Y-3.4075
X3.6673Y-2.7173
X3.6673Y-2.7433
X3.6673Y-3.7736
X3.6772Y-1.7362
X3.6778Y-1.6187
X3.6811Y-3.6102
X3.685Y-1.1772
X3.689Y-2.9902
X3.6909Y-3.1713
X3.6929Y-3.311
X3.6929Y-3.3425
X3.6929Y-3.374
X3.6929Y-3.4075
X3.7008Y-3.7598
X3.7146Y-3.6102
X3.7205Y-1.4213
X3.7323Y-1.3386
X3.7402Y-3.6043
X3.7441Y-3.311
X3.7441Y-3.3425
X3.7441Y-3.374
X3.7441Y-3.4075
X3.7559Y-2.5027
X3.7559Y-2.5287
X3.7618Y-2.9646
X3.7637Y-3.5984
X3.7638Y-1.2402
X3.7717Y-2.5992
X3.7717Y-2.6252
X3.7756Y-3.7953
X3.7874Y-3.5945
X3.7913Y-1.6102
X3.7992Y-1.1378
X3.811Y-1.3071
X3.8118Y-3.4232
X3.813Y-3.6122
X3.8189Y-1.1654
X3.8307Y-1.4961
X3.8368Y-1.5337
X3.8378Y-3.4232
X3.8386Y-1.4134
X3.8661Y-1.7205
X3.8701Y-1.5315
X3.8839Y-2.874
X3.8858Y-1.252
X3.8858Y-1.2913
X3.8858Y-1.3346
X3.8898Y-2.9665
X3.9213Y-1.7441
X3.9252Y-1.252
X3.9252Y-1.2913
X3.9252Y-1.3346
X3.9252Y-3.3465
X3.9488Y-1.4055
X3.9488Y-3.1575
X3.9665Y-3.0335
X3.9685Y-1.252
X3.9685Y-1.2913
X3.9685Y-1.3346
X3.998Y-2.9094
X4.0039Y-1.5354
X4.0059Y-2.9469
X4.0079Y-1.1654
X4.0354Y-1.4606
X4.0453Y-3.2421
X4.0472Y-1.1496
X4.0512Y-1.3661
X4.0551Y-1.1811
X4.0551Y-1.3346
X4.0614Y-3.0499
X4.071Y-3.3194
X4.0929Y-3.1208
X4.0984Y-3.0492
X4.1063Y-1.2008
X4.1142Y-2.9843
X4.122Y-2.0039
X4.1339Y-1.2047
X4.1417Y-3.3307
X4.1457Y-3.2461
X4.1496Y-3.2165
X4.1693Y-3.0472
X4.1772Y-2.0079
X4.187Y-3.3327
X4.202Y-2.7192
X4.2146Y-3.3445
X4.2264Y-2.3327
X4.228Y-2.7192
X4.2283Y-1.998
X4.2429Y-2.4528
X4.2461Y-2.1772
X4.248Y-3.1906
X4.25Y-3.2814
X4.2689Y-2.4528
X4.2704Y-1.5173
X4.2704Y-1.5528
X4.2704Y-1.5921
X4.2795Y-3.3091
X4.2874Y-2.3327
X4.2883Y-2.2856
X4.294Y-1.9383
X4.2953Y-1.9921
X4.3058Y-1.478
X4.3058Y-1.5173
X4.3058Y-1.5528
X4.3058Y-1.5921
X4.3058Y-1.6315
X4.3067Y-2.2672
X4.3123Y-1.9199
X4.315Y-3.1673
X4.3189Y-3.3701
X4.3412Y-1.5173
X4.3412Y-1.5528
X4.3412Y-1.5921
X4.3465Y-2.3327
X4.3543Y-1.9961
X4.3583Y-3.3701
X4.361Y-2.6069
X4.3642Y-2.1791
X4.3709Y-1.9252
X4.387Y-2.6069
X4.3969Y-1.9252
X4.4016Y-3.3268
X4.4035Y-2.3346
X4.4094Y-3.1811
X4.4201Y-2.4488
X4.4252Y-2.0
X4.437Y-2.2823
X4.437Y-2.3083
X4.4461Y-2.4488
X4.4528Y-3.1673
X4.4626Y-2.3346
X4.4961Y-3.1024
X4.5157Y-2.0059
X4.5157Y-3.252
X4.5157Y-3.3543
X4.5217Y-2.3307
X4.5382Y-2.4744
X4.548Y-1.998
X4.561Y-3.1004
X4.5642Y-2.4744
X4.574Y-1.998
X4.5748Y-3.1969
X4.5873Y-2.6253
X4.5945Y-3.4272
X4.6024Y-2.002
X4.6056Y-2.6069
X4.6063Y-2.3839
X4.6083Y-3.122
X4.6083Y-3.1535
X4.6244Y-2.0184
X4.6362Y-2.3412
X4.6402Y-2.3137
X4.6559Y-2.046
X4.7933Y-2.8563
X4.7933Y-2.8898
X4.8228Y-2.8287
X4.876Y-2.7795
T2
X2.7244Y-3.2185
X2.7244Y-3.248
X2.7244Y-3.2776
X2.7244Y-3.3264
X2.7244Y-3.372
X2.7362Y-3.3492
X2.7476Y-3.2331
X2.7476Y-3.2626
X2.7697Y-3.2185
X2.7697Y-3.248
X2.7697Y-3.2776
X2.3425Y-2.9803
X2.3425Y-3.0098
X2.3425Y-3.0394
X2.3425Y-3.0882
X2.3425Y-3.1339
X2.3543Y-3.111
X2.3657Y-2.9949
X2.3657Y-3.0244
X2.3878Y-2.9803
X2.3878Y-3.0098
X2.3878Y-3.0394
T3
X1.4291Y-2.685
X1.4449Y-2.7638
X1.5394Y-2.2756
X1.7185Y-2.6063
X1.9449Y-2.6142
X1.9449Y-2.6732
X1.9449Y-2.7303
X1.9449Y-2.7894
X1.9764Y-1.9016
X2.0197Y-2.6142
X2.0197Y-2.6732
X2.0197Y-2.7303
X2.0197Y-2.7894
X2.0236Y-1.9016
X2.0827Y-2.5472
X2.0866Y-1.9055
X2.0906Y-2.6142
X2.0906Y-2.6732
X2.0906Y-2.7303
X2.126Y-1.4724
X2.1299Y-1.9055
X2.1299Y-2.5472
X2.1516Y-3.063
X2.1516Y-3.1024
X2.1535Y-3.0256
X2.189Y-3.2323
X2.1949Y-3.0256
X2.2362Y-3.0256
X2.2441Y-3.2303
X2.2972Y-3.2303
X2.3484Y-3.2303
X2.4134Y-3.2244
X2.4134Y-3.2795
X2.4134Y-3.3307
X2.4744Y-3.2244
X2.4744Y-3.2795
X2.4744Y-3.3307
X2.4882Y-2.9798
X2.5335Y-2.9798
X2.5709Y-3.4744
X2.5787Y-2.9818
X2.5787Y-3.0212
X2.5787Y-3.0586
X2.626Y-3.4724
X2.6476Y-2.9921
X2.6791Y-3.4724
X2.7303Y-3.4724
X2.7894Y-2.4488
X2.8445Y-2.4508
X2.8681Y-3.218
X2.9016Y-2.4488
X2.9134Y-3.218
X2.9587Y-3.22
X2.9587Y-3.2594
X2.9587Y-3.2968
X2.9921Y-3.3701
X2.9921Y-3.4291
X3.0276Y-3.3406
X3.0276Y-3.3976
X3.0295Y-3.4547
X3.0512Y-2.8425
X3.0669Y-2.7657
X3.0925Y-3.6909
X3.1181Y-1.9961
X3.1969Y-2.622
X3.2047Y-2.5039
X3.2441Y-2.3248
X3.3012Y-2.3189
X3.3268Y-2.748
X3.439Y-1.4902
X3.439Y-1.5374
X3.4409Y-1.3937
X3.4409Y-1.4409
X3.4449Y-2.8937
X3.5512Y-1.9843
X3.5591Y-2.8858
X3.5965Y-2.3209
X3.5984Y-1.1522
X3.6417Y-1.7913
X3.6791Y-1.7913
X3.7165Y-1.7559
X3.7165Y-1.7913
X3.7165Y-2.7913
X3.75Y-2.3209
X3.7677Y-1.9961
X3.813Y-2.3228
X3.8268Y-1.9961
X3.8583Y-2.189
X3.8622Y-3.6102
X3.874Y-2.3209
X3.9055Y-2.1417
X3.9252Y-2.7874
X3.9311Y-2.3209
X3.9409Y-1.9961
X3.9508Y-3.7953
X3.9843Y-3.6535
X3.9902Y-2.3209
X4.0Y-1.9921
X4.0079Y-3.8012
X4.0276Y-1.7087
X4.0433Y-3.6535
X4.0472Y-1.9882
X4.0492Y-2.3228
X4.0551Y-1.6811
X4.0827Y-1.7087
X4.0866Y-2.1535
X4.1063Y-2.3228
X4.1535Y-2.8976
X4.1673Y-2.3189
X4.2756Y-2.8976
X4.3898Y-2.8976
X4.5236Y-1.6378
X4.5236Y-1.6772
X4.5236Y-1.7165
X4.5512Y-2.7874
X4.5669Y-1.6772
X4.5669Y-1.7165
X4.6102Y-1.7165
X4.6969Y-2.1811
X4.7323Y-1.9213
X4.7441Y-3.0276
X4.7835Y-2.5118
X4.7913Y-2.5945
X4.7953Y-2.9331
X4.7992Y-2.3976
X4.8366Y-2.6949
T4
X3.0063Y-1.5149
X3.022Y-1.4873
X3.0378Y-1.5149
X3.0535Y-1.4873
X3.0693Y-1.5149
X3.085Y-1.4873
X3.1008Y-1.5149
X3.1323Y-1.5149
X3.148Y-1.4873
X3.1638Y-1.5149
X3.1795Y-1.4873
X3.1953Y-1.5149
X3.211Y-1.4873
X3.2268Y-1.5149
T5
X1.7874Y-3.6024
X1.7874Y-3.6524
X1.7874Y-3.7024
X1.7874Y-3.7524
X1.628Y-3.8634
X1.628Y-3.9134
X1.678Y-3.8634
X1.678Y-3.9134
X1.728Y-3.8634
X1.728Y-3.9134
X1.778Y-3.8634
X1.778Y-3.9134
X1.828Y-3.8634
X1.828Y-3.9134
T6
X1.3327Y-2.9803
X1.3327Y-3.0591
X1.3327Y-3.1378
X1.5295Y-2.9803
X1.5295Y-3.0591
X1.5295Y-3.1378
T7
X1.6638Y-1.6924
X1.6638Y-1.7956
X1.7622Y-1.6924
X1.7622Y-1.7956
X1.8409Y-1.6924
X1.8409Y-1.7956
X1.9394Y-1.6924
X1.9394Y-1.7956
T8
X1.374Y-3.2776
X1.374Y-3.3776
X1.374Y-3.4776
X1.374Y-3.5776
X1.374Y-3.6776
X1.474Y-3.2776
X1.474Y-3.3776
X1.474Y-3.4776
X1.474Y-3.5776
X1.474Y-3.6776
X1.6437Y-2.9902
X1.6437Y-3.0902
X1.6437Y-3.1902
X1.7972Y-3.2736
X1.7972Y-3.3736
X1.7972Y-3.4736
X4.2244Y-1.1732
X4.3244Y-1.1732
X4.4244Y-1.1732
X2.214Y-1.3897
X2.214Y-1.4696
X2.2537Y-1.8196
X2.3037Y-1.9196
X2.3537Y-1.8196
X2.4037Y-1.9196
X2.4537Y-1.8196
X2.5037Y-1.9196
X2.5537Y-1.8196
X2.6037Y-1.9196
X2.6537Y-1.8196
X2.7037Y-1.9196
X2.7435Y-1.3897
X2.7435Y-1.4696
X4.8071Y-3.1811
X4.8071Y-3.2811
X4.9071Y-3.1811
X4.9071Y-3.2811
X4.9134Y-1.6772
X4.9134Y-1.7772
X4.9134Y-1.8772
X4.9134Y-1.9772
X4.9134Y-2.0772
X4.9134Y-2.1772
X1.6299Y-3.3346
X1.6299Y-3.4346
X1.6299Y-3.5346
X1.6299Y-3.6346
X1.7972Y-3.0315
X1.7972Y-3.1315
T9
X4.7283Y-3.4154
X4.7283Y-3.6713
X4.9055Y-3.4154
X4.9055Y-3.6713
X2.9484Y-1.2834
X2.9484Y-1.4696
X3.2846Y-1.2834
X3.2846Y-1.4696
X1.9222Y-2.2244
T10
X4.5866Y-1.5315
X4.685Y-1.5315
T11
X4.6309Y-2.2244
T12
X2.1687Y-1.6897
X2.7888Y-1.6897
T13
X1.5429Y-1.5857
X1.5429Y-1.8094
X2.0602Y-1.5857
X2.0602Y-1.8094
T14
X2.0285Y-3.878
X4.5325Y-3.878
T15
X2.2537Y-1.5696
X2.7037Y-1.5696
T0
M30
