M48
;DRILL file {KiCad 6.0.0-rc1-unknown-8ecdf58~84~ubuntu16.04.1} date Mon 22 Oct 2018 05:09:23 PM +08
;FORMAT={-:-/ absolute / metric / decimal}
FMAT,2
METRIC
T1C0.152
T2C0.203
T3C0.400
T4C0.500
T5C0.650
T6C1.000
T7C1.050
T8C1.130
T9C1.450
T10C2.150
T11C3.150
%
G90
G05
M71
T1
X95.6Y-91.65
X96.7Y-95.6
X96.8Y-93.0
X101.5Y-82.5
X102.5Y-70.5
X102.5Y-72.5
X102.5Y-73.5
X102.5Y-74.5
X102.5Y-77.5
X102.5Y-86.5
X102.5Y-87.5
X102.5Y-88.5
X102.5Y-90.5
X102.5Y-92.5
X102.995Y-97.5
X103.5Y-71.5
X103.5Y-72.5
X103.5Y-73.5
X103.5Y-74.5
X103.5Y-76.5
X103.5Y-77.5
X103.5Y-81.5
X103.5Y-82.5
X103.5Y-83.5
X103.5Y-84.5
X103.5Y-85.5
X103.5Y-86.5
X103.5Y-87.5
X103.5Y-88.5
X103.5Y-89.5
X103.5Y-90.5
X103.5Y-91.5
X103.5Y-92.5
X103.605Y-97.5
X104.5Y-69.5
X104.5Y-71.5
X104.5Y-72.5
X104.5Y-73.5
X104.5Y-74.5
X104.5Y-76.5
X104.5Y-79.5
X104.5Y-80.5
X104.5Y-84.5
X104.5Y-86.5
X104.5Y-88.5
X104.5Y-89.5
X104.5Y-90.5
X104.5Y-91.5
X104.5Y-92.5
X104.5Y-98.8
X104.5Y-104.2
X105.3Y-98.8
X105.3Y-104.2
X105.5Y-72.5
X105.5Y-73.5
X105.5Y-74.5
X105.5Y-75.5
X105.5Y-76.5
X105.5Y-77.5
X105.5Y-79.5
X105.5Y-81.5
X105.5Y-86.5
X105.5Y-87.5
X105.5Y-88.5
X105.5Y-89.5
X105.5Y-90.5
X105.5Y-91.5
X106.1Y-98.8
X106.1Y-104.2
X106.5Y-68.5
X106.5Y-69.5
X106.5Y-70.5
X106.5Y-72.5
X106.5Y-74.5
X106.5Y-75.5
X106.5Y-76.5
X106.5Y-82.5
X106.5Y-85.5
X106.5Y-88.5
X106.5Y-89.5
X106.5Y-90.5
X106.5Y-93.5
X106.9Y-98.8
X107.5Y-68.5
X107.5Y-70.5
X107.5Y-71.5
X107.5Y-77.5
X107.5Y-79.5
X107.5Y-88.5
X107.5Y-89.5
X107.5Y-92.5
X107.7Y-98.8
X108.5Y-69.5
X108.5Y-70.5
X108.5Y-73.5
X108.5Y-76.5
X108.5Y-77.5
X108.5Y-78.5
X108.5Y-81.5
X108.5Y-83.5
X108.5Y-86.5
X108.5Y-91.5
X108.5Y-92.5
X108.5Y-93.5
X109.5Y-72.5
X109.5Y-73.5
X109.5Y-77.5
X109.5Y-78.5
X109.5Y-79.5
X109.5Y-81.5
X109.5Y-83.5
X109.5Y-86.5
X109.5Y-88.5
X109.5Y-90.5
X109.5Y-91.5
X109.5Y-92.5
X110.1Y-98.8
X110.5Y-74.5
X110.5Y-75.5
X110.5Y-80.5
X110.5Y-83.5
X110.5Y-84.5
X110.5Y-86.5
X110.5Y-88.5
X110.5Y-90.5
X110.5Y-91.5
X110.9Y-98.8
X110.9Y-104.2
X111.5Y-69.5
X111.5Y-70.5
X111.5Y-72.5
X111.5Y-74.5
X111.5Y-76.5
X111.5Y-77.5
X111.5Y-78.5
X111.5Y-81.5
X111.5Y-82.5
X111.5Y-83.5
X111.5Y-85.5
X111.5Y-88.5
X111.5Y-90.5
X111.5Y-91.5
X111.5Y-93.5
X111.7Y-98.8
X111.7Y-104.2
X112.5Y-75.5
X112.5Y-76.5
X112.5Y-77.5
X112.5Y-78.5
X112.5Y-80.5
X112.5Y-81.5
X112.5Y-82.5
X112.5Y-84.5
X112.5Y-85.5
X112.5Y-86.5
X112.5Y-88.5
X112.5Y-90.5
X112.5Y-91.5
X112.5Y-92.5
X112.5Y-98.8
X113.5Y-69.5
X113.5Y-70.5
X113.5Y-74.5
X113.5Y-76.508
X113.5Y-77.5
X113.5Y-78.5
X113.5Y-80.5
X113.5Y-81.5
X113.5Y-82.5
X113.5Y-83.5
X113.5Y-84.5
X113.5Y-85.5
X113.5Y-87.5
X113.5Y-88.5
X113.5Y-90.5
X113.5Y-91.5
X114.5Y-74.5
X114.5Y-76.5
X114.5Y-77.5
X114.5Y-78.5
X114.5Y-80.5
X114.5Y-81.5
X114.5Y-83.5
X114.5Y-84.5
X114.5Y-85.5
X114.5Y-87.5
X114.5Y-88.5
X114.5Y-89.5
X114.5Y-90.5
X114.5Y-91.5
X114.5Y-93.5
X114.7Y-105.3
X114.9Y-98.8
X115.5Y-70.5
X115.5Y-72.5
X115.5Y-74.5
X115.5Y-76.5
X115.5Y-77.5
X115.5Y-80.5
X115.5Y-82.5
X115.5Y-83.5
X115.5Y-87.5
X115.5Y-89.5
X115.5Y-90.5
X115.5Y-91.5
X115.5Y-92.5
X115.7Y-98.8
X116.5Y-74.5
X116.5Y-76.5
X116.5Y-77.5
X116.5Y-78.5
X116.5Y-79.5
X116.5Y-81.5
X116.5Y-84.5
X116.5Y-85.5
X116.5Y-87.5
X116.5Y-88.5
X116.5Y-90.5
X116.5Y-91.5
X116.5Y-98.8
X116.5Y-104.2
X117.3Y-98.8
X117.5Y-70.5
X117.5Y-72.5
X117.5Y-74.5
X117.5Y-76.5
X117.5Y-77.5
X117.5Y-78.5
X117.5Y-79.5
X117.5Y-80.5
X117.5Y-82.5
X117.5Y-83.5
X117.5Y-85.5
X117.5Y-87.5
X117.5Y-88.5
X117.5Y-90.5
X117.5Y-91.5
X117.5Y-92.5
X118.5Y-74.5
X118.5Y-75.5
X118.5Y-76.5
X118.5Y-77.5
X118.5Y-79.5
X118.5Y-80.5
X118.5Y-81.5
X118.5Y-83.5
X118.5Y-84.5
X118.5Y-85.5
X118.5Y-86.5
X118.5Y-89.5
X118.5Y-91.5
X118.5Y-93.5
X118.9Y-104.2
X119.5Y-69.5
X119.5Y-71.5
X119.5Y-76.5
X119.5Y-77.5
X119.5Y-79.5
X119.5Y-80.5
X119.5Y-81.5
X119.5Y-82.5
X119.5Y-84.5
X119.5Y-88.5
X119.5Y-89.5
X119.5Y-90.5
X119.5Y-91.5
X119.7Y-98.8
X119.7Y-104.2
X120.5Y-73.5
X120.5Y-74.5
X120.5Y-75.5
X120.5Y-76.5
X120.5Y-77.5
X120.5Y-79.5
X120.5Y-84.5
X120.5Y-86.5
X120.5Y-89.5
X120.5Y-90.5
X120.5Y-91.5
X120.5Y-92.5
X120.5Y-93.5
X120.5Y-98.8
X121.3Y-98.8
X121.3Y-104.2
X121.5Y-70.5
X121.5Y-71.5
X121.5Y-73.5
X121.5Y-74.5
X121.5Y-76.5
X121.5Y-77.5
X121.5Y-82.5
X121.5Y-83.5
X121.5Y-84.5
X121.5Y-88.5
X121.5Y-89.5
X121.5Y-90.5
X121.5Y-91.5
X122.1Y-98.8
X122.5Y-70.5
X122.5Y-71.5
X122.5Y-72.5
X122.5Y-78.5
X122.5Y-83.5
X122.5Y-84.5
X122.5Y-85.5
X122.5Y-89.5
X122.5Y-91.5
X122.5Y-92.5
X122.5Y-93.5
X123.5Y-71.5
X123.5Y-72.5
X123.5Y-73.5
X123.5Y-74.5
X123.5Y-75.5
X123.5Y-78.5
X123.5Y-80.5
X123.5Y-81.5
X123.5Y-82.5
X123.5Y-83.5
X123.5Y-86.5
X123.5Y-87.5
X123.5Y-90.5
X123.5Y-92.5
X123.5Y-93.5
X124.5Y-68.5
X124.5Y-69.5
X124.5Y-70.5
X124.5Y-71.5
X124.5Y-72.5
X124.5Y-74.5
X124.5Y-76.5
X124.5Y-78.5
X124.5Y-80.5
X124.5Y-81.5
X124.5Y-82.5
X124.5Y-83.5
X124.5Y-84.5
X124.5Y-85.5
X124.5Y-87.5
X124.5Y-88.5
X124.5Y-89.5
X124.5Y-91.5
X124.5Y-93.5
X124.5Y-98.8
X125.5Y-70.5
X125.5Y-71.5
X125.5Y-73.5
X125.5Y-74.5
X125.5Y-75.5
X125.5Y-76.5
X125.5Y-78.5
X125.5Y-79.5
X125.5Y-80.5
X125.5Y-81.5
X125.5Y-82.5
X125.5Y-83.5
X125.5Y-84.5
X125.5Y-85.5
X125.5Y-86.5
X125.5Y-88.5
X125.5Y-90.5
X125.5Y-92.5
X126.5Y-76.5
X126.5Y-79.5
X126.5Y-83.5
X126.5Y-84.5
X126.5Y-88.5
X126.5Y-91.5
X126.5Y-93.5
X127.5Y-88.5
X127.5Y-89.5
X127.5Y-92.5
X127.5Y-83.5
X128.0Y-73.0
X130.8Y-83.5
X133.4Y-76.1
X133.4Y-78.5
X133.5Y-73.5
X134.7Y-78.5
X134.7Y-80.2
X134.7Y-81.7
X135.4Y-76.1
X135.6Y-78.5
X135.6Y-80.2
X135.6Y-81.7
X137.8Y-74.5
X137.8Y-75.3
X137.95Y-78.2
X138.0Y-76.0
X138.0Y-77.0
X138.5Y-77.5
X153.1Y-96.6
X187.2Y-75.3
X187.2Y-77.2
T2
X67.4Y-75.6
X67.4Y-78.0
X67.4Y-80.4
X70.1Y-88.0
X70.3Y-78.0
X70.3Y-81.2
X70.7Y-82.4
X70.8Y-84.46
X70.8Y-85.476
X70.8Y-87.508
X70.8Y-88.5
X70.8Y-90.556
X70.8Y-91.572
X70.8Y-92.588
X70.8Y-86.492
X72.7Y-79.3
X73.05Y-92.456
X73.762Y-92.456
X74.6Y-91.2
X75.0Y-79.3
X75.082Y-92.456
X75.7Y-84.1
X75.794Y-92.456
X75.9Y-84.9
X76.0Y-79.3
X77.0Y-79.3
X77.114Y-92.456
X77.727Y-99.565
X77.826Y-92.456
X77.9Y-77.7
X78.0Y-79.3
X78.229Y-99.063
X78.235Y-97.787
X78.737Y-97.285
X79.0Y-79.3
X79.146Y-92.456
X79.2Y-77.4
X79.858Y-92.456
X79.984Y-79.3
X80.0Y-81.6
X80.4Y-77.7
X81.0Y-79.3
X81.178Y-92.456
X81.4Y-90.6
X81.6Y-82.3
X81.89Y-92.456
X82.0Y-79.3
X83.1Y-79.3
X83.21Y-92.456
X83.922Y-92.456
X84.0Y-89.6
X84.0Y-85.5
X84.0Y-86.5
X84.0Y-87.5
X84.0Y-88.5
X84.0Y-90.5
X84.1Y-79.3
X86.2Y-81.4
X86.2Y-82.4
X86.2Y-84.4
X86.2Y-91.6
X86.2Y-92.5
X86.2Y-83.4
X89.1Y-79.2
X89.1Y-80.8
X89.1Y-81.7
X89.1Y-83.3
X89.9Y-79.2
X89.9Y-80.8
X90.0Y-81.7
X90.0Y-83.3
X91.349Y-87.149
X91.851Y-87.651
X92.7Y-100.5
X92.8Y-97.3
X92.8Y-98.1
X93.0Y-80.2
X93.6Y-79.2
X93.6Y-81.7
X94.2Y-80.2
X95.9Y-97.9
X96.1Y-99.2
X97.0Y-100.8
X98.6Y-68.8
X98.809Y-82.045
X99.0Y-91.5
X99.3Y-94.5
X99.3Y-96.1
X99.311Y-82.547
X100.0Y-77.8
X100.2Y-90.0
X100.5Y-91.5
X100.5Y-93.0
X100.7Y-106.467
X100.8Y-98.8
X100.9Y-94.5
X101.5Y-68.5
X101.534Y-104.0
X102.0Y-97.5
X105.0Y-67.8
X106.9Y-104.2
X107.7Y-104.2
X108.5Y-104.2
X114.9Y-104.5
X115.7Y-104.5
X117.0Y-106.0
X121.5Y-105.0
X122.5Y-105.0
X125.0Y-96.0
X126.6Y-97.7
X127.2Y-97.0
X127.7Y-97.7
X127.8Y-104.2
X128.3Y-105.0
X130.3Y-106.0
X130.4Y-101.0
X130.4Y-101.9
X130.6Y-102.8
X130.7Y-103.7
X131.2Y-74.544
X131.2Y-75.256
X131.2Y-85.7
X131.2Y-88.1
X131.9Y-94.5
X133.1Y-104.2
X133.5Y-91.5
X133.5Y-94.5
X133.7Y-98.5
X134.5Y-85.6
X134.7Y-106.0
X134.8Y-83.4
X135.2Y-99.6
X135.5Y-84.144
X135.5Y-84.856
X136.2Y-64.9
X136.2Y-66.7
X137.2Y-96.6
X137.2Y-98.5
X137.6Y-101.2
X138.008Y-86.544
X138.008Y-87.256
X138.4Y-103.2
X138.45Y-81.15
X138.5Y-78.65
X138.5Y-99.7
X138.6Y-101.2
X139.0Y-87.0
X139.1Y-84.3
X139.6Y-88.4
X139.6Y-98.6
X139.6Y-105.0
X140.0Y-102.4
X140.1Y-106.0
X140.7Y-85.95
X141.55Y-75.05
X141.6Y-67.9
X142.1Y-78.9
X142.4Y-77.0
X143.0Y-100.0
X143.0Y-101.3
X143.1Y-75.7
X143.85Y-82.4
X144.1Y-86.5
X144.4Y-94.5
X144.7Y-67.3
X145.2Y-94.5
X145.3Y-77.8
X145.3Y-84.4
X145.8Y-78.7
X146.0Y-76.05
X146.0Y-94.5
X146.5Y-88.5
X146.8Y-94.5
X147.3Y-67.9
X147.6Y-90.5
X147.6Y-92.5
X147.6Y-94.5
X147.9Y-68.7
X147.9Y-69.6
X148.2Y-74.1
X148.2Y-75.1
X148.5Y-71.5
X149.0Y-98.5
X149.0Y-100.0
X149.2Y-69.2
X149.2Y-70.1
X149.2Y-78.8
X150.0Y-75.2
X150.5Y-84.2
X151.1Y-71.4
X151.7Y-84.2
X151.9Y-94.5
X152.0Y-99.7
X152.0Y-104.7
X152.0Y-106.0
X152.1Y-79.0
X152.8Y-70.5
X152.9Y-78.4
X152.9Y-84.2
X153.0Y-77.6
X153.4Y-74.5
X153.4Y-76.3
X153.4Y-104.7
X153.4Y-106.0
X153.5Y-79.2
X153.5Y-92.5
X153.5Y-94.5
X153.7Y-70.6
X154.6Y-103.4
X154.9Y-100.4
X157.0Y-100.6
X157.5Y-76.0
X157.5Y-77.0
X157.9Y-70.9
X158.1Y-98.6
X158.5Y-94.5
X158.5Y-103.4
X158.5Y-104.6
X159.0Y-77.5
X159.3Y-98.6
X160.0Y-104.6
X160.3Y-78.1
X160.4Y-94.5
X161.2Y-78.1
X161.5Y-99.6
X161.5Y-101.0
X161.5Y-103.1
X161.7Y-103.9
X162.5Y-104.1
X162.9Y-71.5
X163.2Y-99.6
X164.0Y-98.5
X164.2Y-90.5
X165.925Y-72.175
X166.0Y-96.5
X166.3Y-99.6
X166.6Y-90.5
X167.4Y-99.6
X168.1Y-80.0
X168.2Y-98.5
X168.4Y-79.0
X168.6Y-102.6
X168.8Y-71.5
X169.3Y-77.2
X169.4Y-74.3
X169.5Y-94.5
X169.5Y-98.5
X169.5Y-101.5
X169.9Y-104.6
X169.9Y-106.0
X170.6Y-84.4
X170.8Y-99.5
X171.0Y-104.6
X171.0Y-106.0
X171.5Y-94.5
X171.5Y-98.5
X171.9Y-84.4
X172.0Y-73.7
X172.0Y-103.1
X172.1Y-99.9
X172.1Y-101.0
X172.5Y-104.1
X172.8Y-98.7
X173.7Y-99.6
X174.0Y-94.5
X174.7Y-98.7
X175.5Y-99.5
X176.7Y-99.7
X177.6Y-84.3
X178.5Y-79.7
X178.5Y-96.5
X178.5Y-98.6
X178.5Y-101.0
X179.1Y-102.5
X181.8Y-78.3
X184.9Y-81.1
X186.2Y-79.4
X187.2Y-93.8
X190.6Y-81.9
X190.7Y-84.5
X190.7Y-85.4
X190.7Y-86.5
X190.7Y-87.5
X190.7Y-91.8
X190.7Y-92.8
X192.6Y-74.0
X192.9Y-79.2
X193.1Y-92.4
X193.8Y-92.4
X193.9Y-79.2
X194.4Y-74.0
X194.8Y-86.1
X194.8Y-87.5
X195.0Y-79.2
X195.096Y-92.4
X195.808Y-92.4
X195.9Y-79.2
X196.1Y-87.5
X197.0Y-79.2
X197.128Y-92.4
X197.84Y-92.4
X197.9Y-77.5
X197.9Y-79.2
X199.0Y-79.2
X199.16Y-92.4
X199.872Y-92.4
X200.0Y-79.2
X201.0Y-79.2
X201.1Y-77.5
X201.192Y-92.4
X201.904Y-92.4
X202.0Y-79.2
X203.1Y-79.2
X203.2Y-92.4
X203.9Y-85.484
X203.9Y-86.5
X203.9Y-87.5
X203.9Y-88.5
X203.9Y-89.5
X203.9Y-90.5
X203.9Y-92.4
X204.1Y-79.2
X205.6Y-96.2
X206.3Y-81.4
X206.3Y-82.4
X206.3Y-83.5
X206.3Y-84.4
X206.3Y-91.6
X206.3Y-92.6
X206.3Y-93.6
X207.0Y-96.2
T3
X84.2Y-74.8
X118.0Y-105.0
X132.8Y-72.0
X138.3Y-73.0
X142.0Y-81.4
X142.4Y-74.2
X143.1Y-69.7
T4
X140.0Y-65.7
X141.25Y-65.7
X142.5Y-65.7
X143.75Y-65.7
T5
X96.2Y-65.0
X97.47Y-65.0
X98.74Y-65.0
X100.01Y-65.0
X101.28Y-65.0
X102.55Y-65.0
X103.82Y-65.0
X105.09Y-65.0
X106.36Y-65.0
X107.63Y-65.0
X108.9Y-65.0
X110.17Y-65.0
X111.44Y-65.0
X112.71Y-65.0
X113.98Y-65.0
X115.25Y-65.0
X116.52Y-65.0
X117.79Y-65.0
X119.06Y-65.0
X120.33Y-65.0
X121.6Y-65.0
X122.87Y-65.0
X124.14Y-65.0
X125.41Y-65.0
X126.68Y-65.0
X127.95Y-65.0
X129.22Y-65.0
X130.49Y-65.0
X131.76Y-65.0
X133.03Y-65.0
T6
X180.3Y-68.4
X180.3Y-70.94
X180.3Y-73.48
X180.3Y-76.02
X182.84Y-68.4
X182.84Y-70.94
X182.84Y-73.48
X182.84Y-76.02
X195.3Y-68.8
X197.84Y-68.8
X200.38Y-68.8
X93.5Y-102.96
X93.5Y-105.5
X96.04Y-102.96
X96.04Y-105.5
X98.58Y-102.96
X98.58Y-105.5
X145.92Y-81.1
X148.46Y-81.1
X151.0Y-81.1
X73.9Y-68.8
X76.44Y-68.8
X78.98Y-68.8
X81.52Y-68.8
X84.06Y-68.8
X93.4Y-68.4
X93.4Y-70.94
X93.4Y-73.48
X95.94Y-68.4
X95.94Y-70.94
X95.94Y-73.48
X73.9Y-105.2
X76.44Y-105.2
X78.98Y-105.2
X81.52Y-105.2
X84.06Y-105.2
T7
X69.32Y-83.63
X87.32Y-87.63
X189.32Y-83.63
X207.32Y-87.63
T8
X102.65Y-102.0
X126.35Y-102.0
T9
X136.0Y-71.1
X136.0Y-89.9
T10
X68.32Y-85.63
X88.32Y-85.63
X188.32Y-85.63
X208.32Y-85.63
T11
X69.0Y-70.0
X69.0Y-104.0
X89.0Y-70.0
X89.0Y-104.0
X188.0Y-70.0
X188.0Y-104.0
X208.0Y-70.0
X208.0Y-104.0
T0
M30
