G04 #@! TF.GenerationSoftware,KiCad,Pcbnew,6.0.0-rc1-unknown-8ecdf58~84~ubuntu16.04.1*
G04 #@! TF.CreationDate,2018-10-22T17:09:18+08:00*
G04 #@! TF.ProjectId,ovc2_stereo,6F7663325F73746572656F2E6B696361,rev?*
G04 #@! TF.SameCoordinates,Original*
G04 #@! TF.FileFunction,Legend,Top*
G04 #@! TF.FilePolarity,Positive*
%FSLAX46Y46*%
G04 Gerber Fmt 4.6, Leading zero omitted, Abs format (unit mm)*
G04 Created by KiCad (PCBNEW 6.0.0-rc1-unknown-8ecdf58~84~ubuntu16.04.1) date Mon 22 Oct 2018 05:09:18 PM +08*
%MOMM*%
%LPD*%
G01*
G04 APERTURE LIST*
%ADD10C,0.127000*%
%ADD11C,0.200000*%
%ADD12C,0.150000*%
%ADD13C,0.120000*%
%ADD14C,1.000000*%
%ADD15C,0.100000*%
G04 APERTURE END LIST*
D10*
X85842857Y-100000000D02*
X85785714Y-99971428D01*
X85700000Y-99971428D01*
X85614285Y-100000000D01*
X85557142Y-100057142D01*
X85528571Y-100114285D01*
X85500000Y-100228571D01*
X85500000Y-100314285D01*
X85528571Y-100428571D01*
X85557142Y-100485714D01*
X85614285Y-100542857D01*
X85700000Y-100571428D01*
X85757142Y-100571428D01*
X85842857Y-100542857D01*
X85871428Y-100514285D01*
X85871428Y-100314285D01*
X85757142Y-100314285D01*
X86128571Y-100571428D02*
X86128571Y-99971428D01*
X86471428Y-100571428D01*
X86471428Y-99971428D01*
X86757142Y-100571428D02*
X86757142Y-99971428D01*
X86900000Y-99971428D01*
X86985714Y-100000000D01*
X87042857Y-100057142D01*
X87071428Y-100114285D01*
X87100000Y-100228571D01*
X87100000Y-100314285D01*
X87071428Y-100428571D01*
X87042857Y-100485714D01*
X86985714Y-100542857D01*
X86900000Y-100571428D01*
X86757142Y-100571428D01*
X87800000Y-100571428D02*
X87800000Y-99971428D01*
X87942857Y-99971428D01*
X88028571Y-100000000D01*
X88085714Y-100057142D01*
X88114285Y-100114285D01*
X88142857Y-100228571D01*
X88142857Y-100314285D01*
X88114285Y-100428571D01*
X88085714Y-100485714D01*
X88028571Y-100542857D01*
X87942857Y-100571428D01*
X87800000Y-100571428D01*
X88742857Y-100514285D02*
X88714285Y-100542857D01*
X88628571Y-100571428D01*
X88571428Y-100571428D01*
X88485714Y-100542857D01*
X88428571Y-100485714D01*
X88400000Y-100428571D01*
X88371428Y-100314285D01*
X88371428Y-100228571D01*
X88400000Y-100114285D01*
X88428571Y-100057142D01*
X88485714Y-100000000D01*
X88571428Y-99971428D01*
X88628571Y-99971428D01*
X88714285Y-100000000D01*
X88742857Y-100028571D01*
X89285714Y-100571428D02*
X89000000Y-100571428D01*
X89000000Y-99971428D01*
X89485714Y-100571428D02*
X89485714Y-99971428D01*
X89828571Y-100571428D02*
X89571428Y-100228571D01*
X89828571Y-99971428D02*
X89485714Y-100314285D01*
X90471428Y-100571428D02*
X90471428Y-99971428D01*
X90614285Y-99971428D01*
X90700000Y-100000000D01*
X90757142Y-100057142D01*
X90785714Y-100114285D01*
X90814285Y-100228571D01*
X90814285Y-100314285D01*
X90785714Y-100428571D01*
X90757142Y-100485714D01*
X90700000Y-100542857D01*
X90614285Y-100571428D01*
X90471428Y-100571428D01*
X91042857Y-100400000D02*
X91328571Y-100400000D01*
X90985714Y-100571428D02*
X91185714Y-99971428D01*
X91385714Y-100571428D01*
X91500000Y-99971428D02*
X91842857Y-99971428D01*
X91671428Y-100571428D02*
X91671428Y-99971428D01*
X92157142Y-99971428D02*
X92214285Y-99971428D01*
X92271428Y-100000000D01*
X92300000Y-100028571D01*
X92328571Y-100085714D01*
X92357142Y-100200000D01*
X92357142Y-100342857D01*
X92328571Y-100457142D01*
X92300000Y-100514285D01*
X92271428Y-100542857D01*
X92214285Y-100571428D01*
X92157142Y-100571428D01*
X92100000Y-100542857D01*
X92071428Y-100514285D01*
X92042857Y-100457142D01*
X92014285Y-100342857D01*
X92014285Y-100200000D01*
X92042857Y-100085714D01*
X92071428Y-100028571D01*
X92100000Y-100000000D01*
X92157142Y-99971428D01*
X90457142Y-99571428D02*
X90457142Y-98971428D01*
X90800000Y-99571428D01*
X90800000Y-98971428D01*
X91057142Y-99542857D02*
X91142857Y-99571428D01*
X91285714Y-99571428D01*
X91342857Y-99542857D01*
X91371428Y-99514285D01*
X91400000Y-99457142D01*
X91400000Y-99400000D01*
X91371428Y-99342857D01*
X91342857Y-99314285D01*
X91285714Y-99285714D01*
X91171428Y-99257142D01*
X91114285Y-99228571D01*
X91085714Y-99200000D01*
X91057142Y-99142857D01*
X91057142Y-99085714D01*
X91085714Y-99028571D01*
X91114285Y-99000000D01*
X91171428Y-98971428D01*
X91314285Y-98971428D01*
X91400000Y-99000000D01*
X91571428Y-98971428D02*
X91914285Y-98971428D01*
X91742857Y-99571428D02*
X91742857Y-98971428D01*
X92085714Y-99400000D02*
X92371428Y-99400000D01*
X92028571Y-99571428D02*
X92228571Y-98971428D01*
X92428571Y-99571428D01*
X87771428Y-99571428D02*
X87771428Y-98971428D01*
X88114285Y-99571428D01*
X88114285Y-98971428D01*
X88742857Y-99514285D02*
X88714285Y-99542857D01*
X88628571Y-99571428D01*
X88571428Y-99571428D01*
X88485714Y-99542857D01*
X88428571Y-99485714D01*
X88400000Y-99428571D01*
X88371428Y-99314285D01*
X88371428Y-99228571D01*
X88400000Y-99114285D01*
X88428571Y-99057142D01*
X88485714Y-99000000D01*
X88571428Y-98971428D01*
X88628571Y-98971428D01*
X88714285Y-99000000D01*
X88742857Y-99028571D01*
X89200000Y-99257142D02*
X89000000Y-99257142D01*
X89000000Y-99571428D02*
X89000000Y-98971428D01*
X89285714Y-98971428D01*
X89828571Y-99000000D02*
X89771428Y-98971428D01*
X89685714Y-98971428D01*
X89600000Y-99000000D01*
X89542857Y-99057142D01*
X89514285Y-99114285D01*
X89485714Y-99228571D01*
X89485714Y-99314285D01*
X89514285Y-99428571D01*
X89542857Y-99485714D01*
X89600000Y-99542857D01*
X89685714Y-99571428D01*
X89742857Y-99571428D01*
X89828571Y-99542857D01*
X89857142Y-99514285D01*
X89857142Y-99314285D01*
X89742857Y-99314285D01*
X85142857Y-99571428D02*
X85142857Y-98971428D01*
X85285714Y-98971428D01*
X85371428Y-99000000D01*
X85428571Y-99057142D01*
X85457142Y-99114285D01*
X85485714Y-99228571D01*
X85485714Y-99314285D01*
X85457142Y-99428571D01*
X85428571Y-99485714D01*
X85371428Y-99542857D01*
X85285714Y-99571428D01*
X85142857Y-99571428D01*
X85857142Y-98971428D02*
X85971428Y-98971428D01*
X86028571Y-99000000D01*
X86085714Y-99057142D01*
X86114285Y-99171428D01*
X86114285Y-99371428D01*
X86085714Y-99485714D01*
X86028571Y-99542857D01*
X85971428Y-99571428D01*
X85857142Y-99571428D01*
X85800000Y-99542857D01*
X85742857Y-99485714D01*
X85714285Y-99371428D01*
X85714285Y-99171428D01*
X85742857Y-99057142D01*
X85800000Y-99000000D01*
X85857142Y-98971428D01*
X86371428Y-99571428D02*
X86371428Y-98971428D01*
X86714285Y-99571428D01*
X86714285Y-98971428D01*
X87000000Y-99257142D02*
X87200000Y-99257142D01*
X87285714Y-99571428D02*
X87000000Y-99571428D01*
X87000000Y-98971428D01*
X87285714Y-98971428D01*
X83800000Y-102857142D02*
X83771428Y-102914285D01*
X83771428Y-103000000D01*
X83800000Y-103085714D01*
X83857142Y-103142857D01*
X83914285Y-103171428D01*
X84028571Y-103200000D01*
X84114285Y-103200000D01*
X84228571Y-103171428D01*
X84285714Y-103142857D01*
X84342857Y-103085714D01*
X84371428Y-103000000D01*
X84371428Y-102942857D01*
X84342857Y-102857142D01*
X84314285Y-102828571D01*
X84114285Y-102828571D01*
X84114285Y-102942857D01*
X84371428Y-102571428D02*
X83771428Y-102571428D01*
X84371428Y-102228571D01*
X83771428Y-102228571D01*
X84371428Y-101942857D02*
X83771428Y-101942857D01*
X83771428Y-101800000D01*
X83800000Y-101714285D01*
X83857142Y-101657142D01*
X83914285Y-101628571D01*
X84028571Y-101600000D01*
X84114285Y-101600000D01*
X84228571Y-101628571D01*
X84285714Y-101657142D01*
X84342857Y-101714285D01*
X84371428Y-101800000D01*
X84371428Y-101942857D01*
X81171428Y-103085714D02*
X81171428Y-102971428D01*
X81200000Y-102914285D01*
X81257142Y-102857142D01*
X81371428Y-102828571D01*
X81571428Y-102828571D01*
X81685714Y-102857142D01*
X81742857Y-102914285D01*
X81771428Y-102971428D01*
X81771428Y-103085714D01*
X81742857Y-103142857D01*
X81685714Y-103200000D01*
X81571428Y-103228571D01*
X81371428Y-103228571D01*
X81257142Y-103200000D01*
X81200000Y-103142857D01*
X81171428Y-103085714D01*
X81171428Y-102571428D02*
X81657142Y-102571428D01*
X81714285Y-102542857D01*
X81742857Y-102514285D01*
X81771428Y-102457142D01*
X81771428Y-102342857D01*
X81742857Y-102285714D01*
X81714285Y-102257142D01*
X81657142Y-102228571D01*
X81171428Y-102228571D01*
X81171428Y-102028571D02*
X81171428Y-101685714D01*
X81771428Y-101857142D02*
X81171428Y-101857142D01*
X81171428Y-101542857D02*
X81171428Y-101171428D01*
X81400000Y-101371428D01*
X81400000Y-101285714D01*
X81428571Y-101228571D01*
X81457142Y-101200000D01*
X81514285Y-101171428D01*
X81657142Y-101171428D01*
X81714285Y-101200000D01*
X81742857Y-101228571D01*
X81771428Y-101285714D01*
X81771428Y-101457142D01*
X81742857Y-101514285D01*
X81714285Y-101542857D01*
X78571428Y-103085714D02*
X78571428Y-102971428D01*
X78600000Y-102914285D01*
X78657142Y-102857142D01*
X78771428Y-102828571D01*
X78971428Y-102828571D01*
X79085714Y-102857142D01*
X79142857Y-102914285D01*
X79171428Y-102971428D01*
X79171428Y-103085714D01*
X79142857Y-103142857D01*
X79085714Y-103200000D01*
X78971428Y-103228571D01*
X78771428Y-103228571D01*
X78657142Y-103200000D01*
X78600000Y-103142857D01*
X78571428Y-103085714D01*
X78571428Y-102571428D02*
X79057142Y-102571428D01*
X79114285Y-102542857D01*
X79142857Y-102514285D01*
X79171428Y-102457142D01*
X79171428Y-102342857D01*
X79142857Y-102285714D01*
X79114285Y-102257142D01*
X79057142Y-102228571D01*
X78571428Y-102228571D01*
X78571428Y-102028571D02*
X78571428Y-101685714D01*
X79171428Y-101857142D02*
X78571428Y-101857142D01*
X78628571Y-101514285D02*
X78600000Y-101485714D01*
X78571428Y-101428571D01*
X78571428Y-101285714D01*
X78600000Y-101228571D01*
X78628571Y-101200000D01*
X78685714Y-101171428D01*
X78742857Y-101171428D01*
X78828571Y-101200000D01*
X79171428Y-101542857D01*
X79171428Y-101171428D01*
X76071428Y-103085714D02*
X76071428Y-102971428D01*
X76100000Y-102914285D01*
X76157142Y-102857142D01*
X76271428Y-102828571D01*
X76471428Y-102828571D01*
X76585714Y-102857142D01*
X76642857Y-102914285D01*
X76671428Y-102971428D01*
X76671428Y-103085714D01*
X76642857Y-103142857D01*
X76585714Y-103200000D01*
X76471428Y-103228571D01*
X76271428Y-103228571D01*
X76157142Y-103200000D01*
X76100000Y-103142857D01*
X76071428Y-103085714D01*
X76071428Y-102571428D02*
X76557142Y-102571428D01*
X76614285Y-102542857D01*
X76642857Y-102514285D01*
X76671428Y-102457142D01*
X76671428Y-102342857D01*
X76642857Y-102285714D01*
X76614285Y-102257142D01*
X76557142Y-102228571D01*
X76071428Y-102228571D01*
X76071428Y-102028571D02*
X76071428Y-101685714D01*
X76671428Y-101857142D02*
X76071428Y-101857142D01*
X76671428Y-101171428D02*
X76671428Y-101514285D01*
X76671428Y-101342857D02*
X76071428Y-101342857D01*
X76157142Y-101400000D01*
X76214285Y-101457142D01*
X76242857Y-101514285D01*
X73571428Y-103142857D02*
X73571428Y-102771428D01*
X73800000Y-102971428D01*
X73800000Y-102885714D01*
X73828571Y-102828571D01*
X73857142Y-102800000D01*
X73914285Y-102771428D01*
X74057142Y-102771428D01*
X74114285Y-102800000D01*
X74142857Y-102828571D01*
X74171428Y-102885714D01*
X74171428Y-103057142D01*
X74142857Y-103114285D01*
X74114285Y-103142857D01*
X73571428Y-102600000D02*
X74171428Y-102400000D01*
X73571428Y-102200000D01*
X73571428Y-102057142D02*
X73571428Y-101685714D01*
X73800000Y-101885714D01*
X73800000Y-101800000D01*
X73828571Y-101742857D01*
X73857142Y-101714285D01*
X73914285Y-101685714D01*
X74057142Y-101685714D01*
X74114285Y-101714285D01*
X74142857Y-101742857D01*
X74171428Y-101800000D01*
X74171428Y-101971428D01*
X74142857Y-102028571D01*
X74114285Y-102057142D01*
X73571428Y-72585714D02*
X73571428Y-72471428D01*
X73600000Y-72414285D01*
X73657142Y-72357142D01*
X73771428Y-72328571D01*
X73971428Y-72328571D01*
X74085714Y-72357142D01*
X74142857Y-72414285D01*
X74171428Y-72471428D01*
X74171428Y-72585714D01*
X74142857Y-72642857D01*
X74085714Y-72700000D01*
X73971428Y-72728571D01*
X73771428Y-72728571D01*
X73657142Y-72700000D01*
X73600000Y-72642857D01*
X73571428Y-72585714D01*
X73571428Y-72071428D02*
X74057142Y-72071428D01*
X74114285Y-72042857D01*
X74142857Y-72014285D01*
X74171428Y-71957142D01*
X74171428Y-71842857D01*
X74142857Y-71785714D01*
X74114285Y-71757142D01*
X74057142Y-71728571D01*
X73571428Y-71728571D01*
X73571428Y-71528571D02*
X73571428Y-71185714D01*
X74171428Y-71357142D02*
X73571428Y-71357142D01*
X73628571Y-71014285D02*
X73600000Y-70985714D01*
X73571428Y-70928571D01*
X73571428Y-70785714D01*
X73600000Y-70728571D01*
X73628571Y-70700000D01*
X73685714Y-70671428D01*
X73742857Y-70671428D01*
X73828571Y-70700000D01*
X74171428Y-71042857D01*
X74171428Y-70671428D01*
X76171428Y-72585714D02*
X76171428Y-72471428D01*
X76200000Y-72414285D01*
X76257142Y-72357142D01*
X76371428Y-72328571D01*
X76571428Y-72328571D01*
X76685714Y-72357142D01*
X76742857Y-72414285D01*
X76771428Y-72471428D01*
X76771428Y-72585714D01*
X76742857Y-72642857D01*
X76685714Y-72700000D01*
X76571428Y-72728571D01*
X76371428Y-72728571D01*
X76257142Y-72700000D01*
X76200000Y-72642857D01*
X76171428Y-72585714D01*
X76171428Y-72071428D02*
X76657142Y-72071428D01*
X76714285Y-72042857D01*
X76742857Y-72014285D01*
X76771428Y-71957142D01*
X76771428Y-71842857D01*
X76742857Y-71785714D01*
X76714285Y-71757142D01*
X76657142Y-71728571D01*
X76171428Y-71728571D01*
X76171428Y-71528571D02*
X76171428Y-71185714D01*
X76771428Y-71357142D02*
X76171428Y-71357142D01*
X76771428Y-70671428D02*
X76771428Y-71014285D01*
X76771428Y-70842857D02*
X76171428Y-70842857D01*
X76257142Y-70900000D01*
X76314285Y-70957142D01*
X76342857Y-71014285D01*
X79271428Y-71900000D02*
X78671428Y-71900000D01*
X79271428Y-71614285D02*
X78671428Y-71614285D01*
X79271428Y-71271428D01*
X78671428Y-71271428D01*
X79271428Y-70671428D02*
X79271428Y-71014285D01*
X79271428Y-70842857D02*
X78671428Y-70842857D01*
X78757142Y-70900000D01*
X78814285Y-70957142D01*
X78842857Y-71014285D01*
X81871428Y-71900000D02*
X81271428Y-71900000D01*
X81871428Y-71614285D02*
X81271428Y-71614285D01*
X81871428Y-71271428D01*
X81271428Y-71271428D01*
X81328571Y-71014285D02*
X81300000Y-70985714D01*
X81271428Y-70928571D01*
X81271428Y-70785714D01*
X81300000Y-70728571D01*
X81328571Y-70700000D01*
X81385714Y-70671428D01*
X81442857Y-70671428D01*
X81528571Y-70700000D01*
X81871428Y-71042857D01*
X81871428Y-70671428D01*
X83800000Y-71957142D02*
X83771428Y-72014285D01*
X83771428Y-72100000D01*
X83800000Y-72185714D01*
X83857142Y-72242857D01*
X83914285Y-72271428D01*
X84028571Y-72300000D01*
X84114285Y-72300000D01*
X84228571Y-72271428D01*
X84285714Y-72242857D01*
X84342857Y-72185714D01*
X84371428Y-72100000D01*
X84371428Y-72042857D01*
X84342857Y-71957142D01*
X84314285Y-71928571D01*
X84114285Y-71928571D01*
X84114285Y-72042857D01*
X84371428Y-71671428D02*
X83771428Y-71671428D01*
X84371428Y-71328571D01*
X83771428Y-71328571D01*
X84371428Y-71042857D02*
X83771428Y-71042857D01*
X83771428Y-70900000D01*
X83800000Y-70814285D01*
X83857142Y-70757142D01*
X83914285Y-70728571D01*
X84028571Y-70700000D01*
X84114285Y-70700000D01*
X84228571Y-70728571D01*
X84285714Y-70757142D01*
X84342857Y-70814285D01*
X84371428Y-70900000D01*
X84371428Y-71042857D01*
D11*
X92141421Y-93000000D02*
G75*
G03X92141421Y-93000000I-141421J0D01*
G01*
X96341421Y-78200000D02*
G75*
G03X96341421Y-78200000I-141421J0D01*
G01*
X91041421Y-80200000D02*
G75*
G03X91041421Y-80200000I-141421J0D01*
G01*
D10*
X89785714Y-73171428D02*
X90128571Y-73171428D01*
X89957142Y-73771428D02*
X89957142Y-73171428D01*
X90328571Y-73771428D02*
X90328571Y-73171428D01*
X90471428Y-73171428D01*
X90557142Y-73200000D01*
X90614285Y-73257142D01*
X90642857Y-73314285D01*
X90671428Y-73428571D01*
X90671428Y-73514285D01*
X90642857Y-73628571D01*
X90614285Y-73685714D01*
X90557142Y-73742857D01*
X90471428Y-73771428D01*
X90328571Y-73771428D01*
X90928571Y-73771428D02*
X90928571Y-73171428D01*
X89814285Y-74071428D02*
X90157142Y-74071428D01*
X89985714Y-74671428D02*
X89985714Y-74071428D01*
X90357142Y-74671428D02*
X90357142Y-74071428D01*
X90500000Y-74071428D01*
X90585714Y-74100000D01*
X90642857Y-74157142D01*
X90671428Y-74214285D01*
X90700000Y-74328571D01*
X90700000Y-74414285D01*
X90671428Y-74528571D01*
X90642857Y-74585714D01*
X90585714Y-74642857D01*
X90500000Y-74671428D01*
X90357142Y-74671428D01*
X91071428Y-74071428D02*
X91185714Y-74071428D01*
X91242857Y-74100000D01*
X91300000Y-74157142D01*
X91328571Y-74271428D01*
X91328571Y-74471428D01*
X91300000Y-74585714D01*
X91242857Y-74642857D01*
X91185714Y-74671428D01*
X91071428Y-74671428D01*
X91014285Y-74642857D01*
X90957142Y-74585714D01*
X90928571Y-74471428D01*
X90928571Y-74271428D01*
X90957142Y-74157142D01*
X91014285Y-74100000D01*
X91071428Y-74071428D01*
X90142857Y-75000000D02*
X90085714Y-74971428D01*
X90000000Y-74971428D01*
X89914285Y-75000000D01*
X89857142Y-75057142D01*
X89828571Y-75114285D01*
X89800000Y-75228571D01*
X89800000Y-75314285D01*
X89828571Y-75428571D01*
X89857142Y-75485714D01*
X89914285Y-75542857D01*
X90000000Y-75571428D01*
X90057142Y-75571428D01*
X90142857Y-75542857D01*
X90171428Y-75514285D01*
X90171428Y-75314285D01*
X90057142Y-75314285D01*
X90428571Y-75571428D02*
X90428571Y-74971428D01*
X90771428Y-75571428D01*
X90771428Y-74971428D01*
X91057142Y-75571428D02*
X91057142Y-74971428D01*
X91200000Y-74971428D01*
X91285714Y-75000000D01*
X91342857Y-75057142D01*
X91371428Y-75114285D01*
X91400000Y-75228571D01*
X91400000Y-75314285D01*
X91371428Y-75428571D01*
X91342857Y-75485714D01*
X91285714Y-75542857D01*
X91200000Y-75571428D01*
X91057142Y-75571428D01*
X97928571Y-73171428D02*
X98271428Y-73171428D01*
X98100000Y-73771428D02*
X98100000Y-73171428D01*
X98814285Y-73714285D02*
X98785714Y-73742857D01*
X98700000Y-73771428D01*
X98642857Y-73771428D01*
X98557142Y-73742857D01*
X98500000Y-73685714D01*
X98471428Y-73628571D01*
X98442857Y-73514285D01*
X98442857Y-73428571D01*
X98471428Y-73314285D01*
X98500000Y-73257142D01*
X98557142Y-73200000D01*
X98642857Y-73171428D01*
X98700000Y-73171428D01*
X98785714Y-73200000D01*
X98814285Y-73228571D01*
X99071428Y-73771428D02*
X99071428Y-73171428D01*
X99414285Y-73771428D02*
X99157142Y-73428571D01*
X99414285Y-73171428D02*
X99071428Y-73514285D01*
X98328571Y-71071428D02*
X97985714Y-71071428D01*
X98157142Y-71071428D02*
X98157142Y-70471428D01*
X98100000Y-70557142D01*
X98042857Y-70614285D01*
X97985714Y-70642857D01*
X98500000Y-70471428D02*
X98700000Y-71071428D01*
X98900000Y-70471428D01*
X99185714Y-70728571D02*
X99128571Y-70700000D01*
X99100000Y-70671428D01*
X99071428Y-70614285D01*
X99071428Y-70585714D01*
X99100000Y-70528571D01*
X99128571Y-70500000D01*
X99185714Y-70471428D01*
X99300000Y-70471428D01*
X99357142Y-70500000D01*
X99385714Y-70528571D01*
X99414285Y-70585714D01*
X99414285Y-70614285D01*
X99385714Y-70671428D01*
X99357142Y-70700000D01*
X99300000Y-70728571D01*
X99185714Y-70728571D01*
X99128571Y-70757142D01*
X99100000Y-70785714D01*
X99071428Y-70842857D01*
X99071428Y-70957142D01*
X99100000Y-71014285D01*
X99128571Y-71042857D01*
X99185714Y-71071428D01*
X99300000Y-71071428D01*
X99357142Y-71042857D01*
X99385714Y-71014285D01*
X99414285Y-70957142D01*
X99414285Y-70842857D01*
X99385714Y-70785714D01*
X99357142Y-70757142D01*
X99300000Y-70728571D01*
X97900000Y-67771428D02*
X98242857Y-67771428D01*
X98071428Y-68371428D02*
X98071428Y-67771428D01*
X98442857Y-68371428D02*
X98442857Y-67771428D01*
X98642857Y-68200000D01*
X98842857Y-67771428D01*
X98842857Y-68371428D01*
X99100000Y-68342857D02*
X99185714Y-68371428D01*
X99328571Y-68371428D01*
X99385714Y-68342857D01*
X99414285Y-68314285D01*
X99442857Y-68257142D01*
X99442857Y-68200000D01*
X99414285Y-68142857D01*
X99385714Y-68114285D01*
X99328571Y-68085714D01*
X99214285Y-68057142D01*
X99157142Y-68028571D01*
X99128571Y-68000000D01*
X99100000Y-67942857D01*
X99100000Y-67885714D01*
X99128571Y-67828571D01*
X99157142Y-67800000D01*
X99214285Y-67771428D01*
X99357142Y-67771428D01*
X99442857Y-67800000D01*
X184442857Y-67300000D02*
X184385714Y-67271428D01*
X184300000Y-67271428D01*
X184214285Y-67300000D01*
X184157142Y-67357142D01*
X184128571Y-67414285D01*
X184100000Y-67528571D01*
X184100000Y-67614285D01*
X184128571Y-67728571D01*
X184157142Y-67785714D01*
X184214285Y-67842857D01*
X184300000Y-67871428D01*
X184357142Y-67871428D01*
X184442857Y-67842857D01*
X184471428Y-67814285D01*
X184471428Y-67614285D01*
X184357142Y-67614285D01*
X184728571Y-67871428D02*
X184728571Y-67271428D01*
X185071428Y-67871428D01*
X185071428Y-67271428D01*
X185357142Y-67871428D02*
X185357142Y-67271428D01*
X185500000Y-67271428D01*
X185585714Y-67300000D01*
X185642857Y-67357142D01*
X185671428Y-67414285D01*
X185700000Y-67528571D01*
X185700000Y-67614285D01*
X185671428Y-67728571D01*
X185642857Y-67785714D01*
X185585714Y-67842857D01*
X185500000Y-67871428D01*
X185357142Y-67871428D01*
X185100000Y-72614285D02*
X185071428Y-72642857D01*
X184985714Y-72671428D01*
X184928571Y-72671428D01*
X184842857Y-72642857D01*
X184785714Y-72585714D01*
X184757142Y-72528571D01*
X184728571Y-72414285D01*
X184728571Y-72328571D01*
X184757142Y-72214285D01*
X184785714Y-72157142D01*
X184842857Y-72100000D01*
X184928571Y-72071428D01*
X184985714Y-72071428D01*
X185071428Y-72100000D01*
X185100000Y-72128571D01*
X185328571Y-72642857D02*
X185414285Y-72671428D01*
X185557142Y-72671428D01*
X185614285Y-72642857D01*
X185642857Y-72614285D01*
X185671428Y-72557142D01*
X185671428Y-72500000D01*
X185642857Y-72442857D01*
X185614285Y-72414285D01*
X185557142Y-72385714D01*
X185442857Y-72357142D01*
X185385714Y-72328571D01*
X185357142Y-72300000D01*
X185328571Y-72242857D01*
X185328571Y-72185714D01*
X185357142Y-72128571D01*
X185385714Y-72100000D01*
X185442857Y-72071428D01*
X185585714Y-72071428D01*
X185671428Y-72100000D01*
X184757142Y-73671428D02*
X184757142Y-73071428D01*
X184957142Y-73500000D01*
X185157142Y-73071428D01*
X185157142Y-73671428D01*
X185442857Y-73671428D02*
X185442857Y-73071428D01*
X185700000Y-73642857D02*
X185785714Y-73671428D01*
X185928571Y-73671428D01*
X185985714Y-73642857D01*
X186014285Y-73614285D01*
X186042857Y-73557142D01*
X186042857Y-73500000D01*
X186014285Y-73442857D01*
X185985714Y-73414285D01*
X185928571Y-73385714D01*
X185814285Y-73357142D01*
X185757142Y-73328571D01*
X185728571Y-73300000D01*
X185700000Y-73242857D01*
X185700000Y-73185714D01*
X185728571Y-73128571D01*
X185757142Y-73100000D01*
X185814285Y-73071428D01*
X185957142Y-73071428D01*
X186042857Y-73100000D01*
X186414285Y-73071428D02*
X186528571Y-73071428D01*
X186585714Y-73100000D01*
X186642857Y-73157142D01*
X186671428Y-73271428D01*
X186671428Y-73471428D01*
X186642857Y-73585714D01*
X186585714Y-73642857D01*
X186528571Y-73671428D01*
X186414285Y-73671428D01*
X186357142Y-73642857D01*
X186300000Y-73585714D01*
X186271428Y-73471428D01*
X186271428Y-73271428D01*
X186300000Y-73157142D01*
X186357142Y-73100000D01*
X186414285Y-73071428D01*
X184828571Y-76242857D02*
X184914285Y-76271428D01*
X185057142Y-76271428D01*
X185114285Y-76242857D01*
X185142857Y-76214285D01*
X185171428Y-76157142D01*
X185171428Y-76100000D01*
X185142857Y-76042857D01*
X185114285Y-76014285D01*
X185057142Y-75985714D01*
X184942857Y-75957142D01*
X184885714Y-75928571D01*
X184857142Y-75900000D01*
X184828571Y-75842857D01*
X184828571Y-75785714D01*
X184857142Y-75728571D01*
X184885714Y-75700000D01*
X184942857Y-75671428D01*
X185085714Y-75671428D01*
X185171428Y-75700000D01*
X185771428Y-76214285D02*
X185742857Y-76242857D01*
X185657142Y-76271428D01*
X185600000Y-76271428D01*
X185514285Y-76242857D01*
X185457142Y-76185714D01*
X185428571Y-76128571D01*
X185400000Y-76014285D01*
X185400000Y-75928571D01*
X185428571Y-75814285D01*
X185457142Y-75757142D01*
X185514285Y-75700000D01*
X185600000Y-75671428D01*
X185657142Y-75671428D01*
X185742857Y-75700000D01*
X185771428Y-75728571D01*
X186028571Y-76271428D02*
X186028571Y-75671428D01*
X186371428Y-76271428D02*
X186114285Y-75928571D01*
X186371428Y-75671428D02*
X186028571Y-76014285D01*
X177257142Y-75671428D02*
X177257142Y-75071428D01*
X177457142Y-75500000D01*
X177657142Y-75071428D01*
X177657142Y-75671428D01*
X178057142Y-75071428D02*
X178171428Y-75071428D01*
X178228571Y-75100000D01*
X178285714Y-75157142D01*
X178314285Y-75271428D01*
X178314285Y-75471428D01*
X178285714Y-75585714D01*
X178228571Y-75642857D01*
X178171428Y-75671428D01*
X178057142Y-75671428D01*
X178000000Y-75642857D01*
X177942857Y-75585714D01*
X177914285Y-75471428D01*
X177914285Y-75271428D01*
X177942857Y-75157142D01*
X178000000Y-75100000D01*
X178057142Y-75071428D01*
X178542857Y-75642857D02*
X178628571Y-75671428D01*
X178771428Y-75671428D01*
X178828571Y-75642857D01*
X178857142Y-75614285D01*
X178885714Y-75557142D01*
X178885714Y-75500000D01*
X178857142Y-75442857D01*
X178828571Y-75414285D01*
X178771428Y-75385714D01*
X178657142Y-75357142D01*
X178600000Y-75328571D01*
X178571428Y-75300000D01*
X178542857Y-75242857D01*
X178542857Y-75185714D01*
X178571428Y-75128571D01*
X178600000Y-75100000D01*
X178657142Y-75071428D01*
X178800000Y-75071428D01*
X178885714Y-75100000D01*
X179142857Y-75671428D02*
X179142857Y-75071428D01*
X177214285Y-73171428D02*
X177214285Y-72571428D01*
X177557142Y-73171428D01*
X177557142Y-72571428D01*
X178185714Y-73171428D02*
X177985714Y-72885714D01*
X177842857Y-73171428D02*
X177842857Y-72571428D01*
X178071428Y-72571428D01*
X178128571Y-72600000D01*
X178157142Y-72628571D01*
X178185714Y-72685714D01*
X178185714Y-72771428D01*
X178157142Y-72828571D01*
X178128571Y-72857142D01*
X178071428Y-72885714D01*
X177842857Y-72885714D01*
X178414285Y-73142857D02*
X178500000Y-73171428D01*
X178642857Y-73171428D01*
X178700000Y-73142857D01*
X178728571Y-73114285D01*
X178757142Y-73057142D01*
X178757142Y-73000000D01*
X178728571Y-72942857D01*
X178700000Y-72914285D01*
X178642857Y-72885714D01*
X178528571Y-72857142D01*
X178471428Y-72828571D01*
X178442857Y-72800000D01*
X178414285Y-72742857D01*
X178414285Y-72685714D01*
X178442857Y-72628571D01*
X178471428Y-72600000D01*
X178528571Y-72571428D01*
X178671428Y-72571428D01*
X178757142Y-72600000D01*
X178928571Y-72571428D02*
X179271428Y-72571428D01*
X179100000Y-73171428D02*
X179100000Y-72571428D01*
X177300000Y-68444428D02*
X177414285Y-68444428D01*
X177471428Y-68473000D01*
X177528571Y-68530142D01*
X177557142Y-68644428D01*
X177557142Y-68844428D01*
X177528571Y-68958714D01*
X177471428Y-69015857D01*
X177414285Y-69044428D01*
X177300000Y-69044428D01*
X177242857Y-69015857D01*
X177185714Y-68958714D01*
X177157142Y-68844428D01*
X177157142Y-68644428D01*
X177185714Y-68530142D01*
X177242857Y-68473000D01*
X177300000Y-68444428D01*
X177814285Y-68444428D02*
X177814285Y-68930142D01*
X177842857Y-68987285D01*
X177871428Y-69015857D01*
X177928571Y-69044428D01*
X178042857Y-69044428D01*
X178100000Y-69015857D01*
X178128571Y-68987285D01*
X178157142Y-68930142D01*
X178157142Y-68444428D01*
X178357142Y-68444428D02*
X178700000Y-68444428D01*
X178528571Y-69044428D02*
X178528571Y-68444428D01*
X176857142Y-70042857D02*
X176942857Y-70071428D01*
X177085714Y-70071428D01*
X177142857Y-70042857D01*
X177171428Y-70014285D01*
X177200000Y-69957142D01*
X177200000Y-69900000D01*
X177171428Y-69842857D01*
X177142857Y-69814285D01*
X177085714Y-69785714D01*
X176971428Y-69757142D01*
X176914285Y-69728571D01*
X176885714Y-69700000D01*
X176857142Y-69642857D01*
X176857142Y-69585714D01*
X176885714Y-69528571D01*
X176914285Y-69500000D01*
X176971428Y-69471428D01*
X177114285Y-69471428D01*
X177200000Y-69500000D01*
X177571428Y-69785714D02*
X177571428Y-70071428D01*
X177371428Y-69471428D02*
X177571428Y-69785714D01*
X177771428Y-69471428D01*
X177971428Y-70071428D02*
X177971428Y-69471428D01*
X178314285Y-70071428D01*
X178314285Y-69471428D01*
X178942857Y-70014285D02*
X178914285Y-70042857D01*
X178828571Y-70071428D01*
X178771428Y-70071428D01*
X178685714Y-70042857D01*
X178628571Y-69985714D01*
X178600000Y-69928571D01*
X178571428Y-69814285D01*
X178571428Y-69728571D01*
X178600000Y-69614285D01*
X178628571Y-69557142D01*
X178685714Y-69500000D01*
X178771428Y-69471428D01*
X178828571Y-69471428D01*
X178914285Y-69500000D01*
X178942857Y-69528571D01*
X177585714Y-71098428D02*
X177585714Y-70498428D01*
X177871428Y-71098428D02*
X177871428Y-70498428D01*
X178214285Y-71098428D01*
X178214285Y-70498428D01*
X150257142Y-79371428D02*
X150600000Y-79371428D01*
X150428571Y-79971428D02*
X150428571Y-79371428D01*
X150742857Y-79371428D02*
X151142857Y-79971428D01*
X151142857Y-79371428D02*
X150742857Y-79971428D01*
X151342857Y-79428571D02*
X151371428Y-79400000D01*
X151428571Y-79371428D01*
X151571428Y-79371428D01*
X151628571Y-79400000D01*
X151657142Y-79428571D01*
X151685714Y-79485714D01*
X151685714Y-79542857D01*
X151657142Y-79628571D01*
X151314285Y-79971428D01*
X151685714Y-79971428D01*
X148514285Y-79971428D02*
X148314285Y-79685714D01*
X148171428Y-79971428D02*
X148171428Y-79371428D01*
X148400000Y-79371428D01*
X148457142Y-79400000D01*
X148485714Y-79428571D01*
X148514285Y-79485714D01*
X148514285Y-79571428D01*
X148485714Y-79628571D01*
X148457142Y-79657142D01*
X148400000Y-79685714D01*
X148171428Y-79685714D01*
X148714285Y-79371428D02*
X149114285Y-79971428D01*
X149114285Y-79371428D02*
X148714285Y-79971428D01*
X149314285Y-79428571D02*
X149342857Y-79400000D01*
X149400000Y-79371428D01*
X149542857Y-79371428D01*
X149600000Y-79400000D01*
X149628571Y-79428571D01*
X149657142Y-79485714D01*
X149657142Y-79542857D01*
X149628571Y-79628571D01*
X149285714Y-79971428D01*
X149657142Y-79971428D01*
X144200000Y-81457142D02*
X144171428Y-81514285D01*
X144171428Y-81600000D01*
X144200000Y-81685714D01*
X144257142Y-81742857D01*
X144314285Y-81771428D01*
X144428571Y-81800000D01*
X144514285Y-81800000D01*
X144628571Y-81771428D01*
X144685714Y-81742857D01*
X144742857Y-81685714D01*
X144771428Y-81600000D01*
X144771428Y-81542857D01*
X144742857Y-81457142D01*
X144714285Y-81428571D01*
X144514285Y-81428571D01*
X144514285Y-81542857D01*
X144771428Y-81171428D02*
X144171428Y-81171428D01*
X144771428Y-80828571D01*
X144171428Y-80828571D01*
X144771428Y-80542857D02*
X144171428Y-80542857D01*
X144171428Y-80400000D01*
X144200000Y-80314285D01*
X144257142Y-80257142D01*
X144314285Y-80228571D01*
X144428571Y-80200000D01*
X144514285Y-80200000D01*
X144628571Y-80228571D01*
X144685714Y-80257142D01*
X144742857Y-80314285D01*
X144771428Y-80400000D01*
X144771428Y-80542857D01*
X144228571Y-82071428D02*
X144285714Y-82071428D01*
X144342857Y-82100000D01*
X144371428Y-82128571D01*
X144400000Y-82185714D01*
X144428571Y-82300000D01*
X144428571Y-82442857D01*
X144400000Y-82557142D01*
X144371428Y-82614285D01*
X144342857Y-82642857D01*
X144285714Y-82671428D01*
X144228571Y-82671428D01*
X144171428Y-82642857D01*
X144142857Y-82614285D01*
X144114285Y-82557142D01*
X144085714Y-82442857D01*
X144085714Y-82300000D01*
X144114285Y-82185714D01*
X144142857Y-82128571D01*
X144171428Y-82100000D01*
X144228571Y-82071428D01*
X144600000Y-82071428D02*
X144800000Y-82671428D01*
X145000000Y-82071428D01*
X145228571Y-82671428D02*
X145342857Y-82671428D01*
X145400000Y-82642857D01*
X145428571Y-82614285D01*
X145485714Y-82528571D01*
X145514285Y-82414285D01*
X145514285Y-82185714D01*
X145485714Y-82128571D01*
X145457142Y-82100000D01*
X145400000Y-82071428D01*
X145285714Y-82071428D01*
X145228571Y-82100000D01*
X145200000Y-82128571D01*
X145171428Y-82185714D01*
X145171428Y-82328571D01*
X145200000Y-82385714D01*
X145228571Y-82414285D01*
X145285714Y-82442857D01*
X145400000Y-82442857D01*
X145457142Y-82414285D01*
X145485714Y-82385714D01*
X145514285Y-82328571D01*
X132242857Y-98971428D02*
X131900000Y-98971428D01*
X132071428Y-98971428D02*
X132071428Y-98371428D01*
X132014285Y-98457142D01*
X131957142Y-98514285D01*
X131900000Y-98542857D01*
X132414285Y-98371428D02*
X132614285Y-98971428D01*
X132814285Y-98371428D01*
X133128571Y-98371428D02*
X133185714Y-98371428D01*
X133242857Y-98400000D01*
X133271428Y-98428571D01*
X133300000Y-98485714D01*
X133328571Y-98600000D01*
X133328571Y-98742857D01*
X133300000Y-98857142D01*
X133271428Y-98914285D01*
X133242857Y-98942857D01*
X133185714Y-98971428D01*
X133128571Y-98971428D01*
X133071428Y-98942857D01*
X133042857Y-98914285D01*
X133014285Y-98857142D01*
X132985714Y-98742857D01*
X132985714Y-98600000D01*
X133014285Y-98485714D01*
X133042857Y-98428571D01*
X133071428Y-98400000D01*
X133128571Y-98371428D01*
X133528571Y-98371428D02*
X133900000Y-98371428D01*
X133700000Y-98600000D01*
X133785714Y-98600000D01*
X133842857Y-98628571D01*
X133871428Y-98657142D01*
X133900000Y-98714285D01*
X133900000Y-98857142D01*
X133871428Y-98914285D01*
X133842857Y-98942857D01*
X133785714Y-98971428D01*
X133614285Y-98971428D01*
X133557142Y-98942857D01*
X133528571Y-98914285D01*
X199842857Y-71000000D02*
X199785714Y-70971428D01*
X199700000Y-70971428D01*
X199614285Y-71000000D01*
X199557142Y-71057142D01*
X199528571Y-71114285D01*
X199500000Y-71228571D01*
X199500000Y-71314285D01*
X199528571Y-71428571D01*
X199557142Y-71485714D01*
X199614285Y-71542857D01*
X199700000Y-71571428D01*
X199757142Y-71571428D01*
X199842857Y-71542857D01*
X199871428Y-71514285D01*
X199871428Y-71314285D01*
X199757142Y-71314285D01*
X200128571Y-71571428D02*
X200128571Y-70971428D01*
X200471428Y-71571428D01*
X200471428Y-70971428D01*
X200757142Y-71571428D02*
X200757142Y-70971428D01*
X200900000Y-70971428D01*
X200985714Y-71000000D01*
X201042857Y-71057142D01*
X201071428Y-71114285D01*
X201100000Y-71228571D01*
X201100000Y-71314285D01*
X201071428Y-71428571D01*
X201042857Y-71485714D01*
X200985714Y-71542857D01*
X200900000Y-71571428D01*
X200757142Y-71571428D01*
X197428571Y-71571428D02*
X197085714Y-71571428D01*
X197257142Y-71571428D02*
X197257142Y-70971428D01*
X197200000Y-71057142D01*
X197142857Y-71114285D01*
X197085714Y-71142857D01*
X197600000Y-70971428D02*
X197800000Y-71571428D01*
X198000000Y-70971428D01*
X198285714Y-71228571D02*
X198228571Y-71200000D01*
X198200000Y-71171428D01*
X198171428Y-71114285D01*
X198171428Y-71085714D01*
X198200000Y-71028571D01*
X198228571Y-71000000D01*
X198285714Y-70971428D01*
X198400000Y-70971428D01*
X198457142Y-71000000D01*
X198485714Y-71028571D01*
X198514285Y-71085714D01*
X198514285Y-71114285D01*
X198485714Y-71171428D01*
X198457142Y-71200000D01*
X198400000Y-71228571D01*
X198285714Y-71228571D01*
X198228571Y-71257142D01*
X198200000Y-71285714D01*
X198171428Y-71342857D01*
X198171428Y-71457142D01*
X198200000Y-71514285D01*
X198228571Y-71542857D01*
X198285714Y-71571428D01*
X198400000Y-71571428D01*
X198457142Y-71542857D01*
X198485714Y-71514285D01*
X198514285Y-71457142D01*
X198514285Y-71342857D01*
X198485714Y-71285714D01*
X198457142Y-71257142D01*
X198400000Y-71228571D01*
X194557142Y-70971428D02*
X194928571Y-70971428D01*
X194728571Y-71200000D01*
X194814285Y-71200000D01*
X194871428Y-71228571D01*
X194900000Y-71257142D01*
X194928571Y-71314285D01*
X194928571Y-71457142D01*
X194900000Y-71514285D01*
X194871428Y-71542857D01*
X194814285Y-71571428D01*
X194642857Y-71571428D01*
X194585714Y-71542857D01*
X194557142Y-71514285D01*
X195100000Y-70971428D02*
X195300000Y-71571428D01*
X195500000Y-70971428D01*
X195642857Y-70971428D02*
X196014285Y-70971428D01*
X195814285Y-71200000D01*
X195900000Y-71200000D01*
X195957142Y-71228571D01*
X195985714Y-71257142D01*
X196014285Y-71314285D01*
X196014285Y-71457142D01*
X195985714Y-71514285D01*
X195957142Y-71542857D01*
X195900000Y-71571428D01*
X195728571Y-71571428D01*
X195671428Y-71542857D01*
X195642857Y-71514285D01*
D12*
X159054642Y-78471428D02*
X158711785Y-78471428D01*
X158883214Y-78471428D02*
X158883214Y-77871428D01*
X158826071Y-77957142D01*
X158768928Y-78014285D01*
X158711785Y-78042857D01*
X159626071Y-78471428D02*
X159283214Y-78471428D01*
X159454642Y-78471428D02*
X159454642Y-77871428D01*
X159397500Y-77957142D01*
X159340357Y-78014285D01*
X159283214Y-78042857D01*
X159054642Y-85671428D02*
X158711785Y-85671428D01*
X158883214Y-85671428D02*
X158883214Y-85071428D01*
X158826071Y-85157142D01*
X158768928Y-85214285D01*
X158711785Y-85242857D01*
X159283214Y-85128571D02*
X159311785Y-85100000D01*
X159368928Y-85071428D01*
X159511785Y-85071428D01*
X159568928Y-85100000D01*
X159597500Y-85128571D01*
X159626071Y-85185714D01*
X159626071Y-85242857D01*
X159597500Y-85328571D01*
X159254642Y-85671428D01*
X159626071Y-85671428D01*
X171311785Y-85128571D02*
X171340357Y-85100000D01*
X171397500Y-85071428D01*
X171540357Y-85071428D01*
X171597500Y-85100000D01*
X171626071Y-85128571D01*
X171654642Y-85185714D01*
X171654642Y-85242857D01*
X171626071Y-85328571D01*
X171283214Y-85671428D01*
X171654642Y-85671428D01*
X171883214Y-85128571D02*
X171911785Y-85100000D01*
X171968928Y-85071428D01*
X172111785Y-85071428D01*
X172168928Y-85100000D01*
X172197500Y-85128571D01*
X172226071Y-85185714D01*
X172226071Y-85242857D01*
X172197500Y-85328571D01*
X171854642Y-85671428D01*
X172226071Y-85671428D01*
X172054642Y-77871428D02*
X171711785Y-77871428D01*
X171883214Y-77871428D02*
X171883214Y-77271428D01*
X171826071Y-77357142D01*
X171768928Y-77414285D01*
X171711785Y-77442857D01*
D11*
X146841421Y-77500000D02*
G75*
G03X146841421Y-77500000I-141421J0D01*
G01*
D10*
X211000000Y-104000000D02*
G75*
G03X211000000Y-104000000I-3000000J0D01*
G01*
X191000000Y-104000000D02*
G75*
G03X191000000Y-104000000I-3000000J0D01*
G01*
X211000000Y-70000000D02*
G75*
G03X211000000Y-70000000I-3000000J0D01*
G01*
X191000000Y-70000000D02*
G75*
G03X191000000Y-70000000I-3000000J0D01*
G01*
X92000000Y-70000000D02*
G75*
G03X92000000Y-70000000I-3000000J0D01*
G01*
X72000000Y-70000000D02*
G75*
G03X72000000Y-70000000I-3000000J0D01*
G01*
X72000000Y-104000000D02*
G75*
G03X72000000Y-104000000I-3000000J0D01*
G01*
X92000000Y-104000000D02*
G75*
G03X92000000Y-104000000I-3000000J0D01*
G01*
D12*
X171845357Y-71514285D02*
X171845357Y-71228571D01*
X172045357Y-71828571D02*
X171845357Y-71514285D01*
X171645357Y-71828571D01*
X172683214Y-72571428D02*
X173083214Y-73171428D01*
X173083214Y-72571428D02*
X172683214Y-73171428D01*
D10*
X172400000Y-71500000D02*
X172700000Y-71800000D01*
X172400000Y-71500000D02*
X172700000Y-71200000D01*
X173600000Y-71500000D02*
X172400000Y-71500000D01*
X173600000Y-72800000D02*
X173900000Y-72500000D01*
X173600000Y-72800000D02*
X173300000Y-72500000D01*
X173600000Y-71500000D02*
X173600000Y-72800000D01*
D11*
X173916228Y-71500000D02*
G75*
G03X173916228Y-71500000I-316228J0D01*
G01*
X169174761Y-72847619D02*
X168841428Y-71847619D01*
X168508095Y-72847619D01*
X168174761Y-72371428D02*
X167841428Y-72371428D01*
X167698571Y-71847619D02*
X168174761Y-71847619D01*
X168174761Y-72847619D01*
X167698571Y-72847619D01*
X166698571Y-71942857D02*
X166746190Y-71895238D01*
X166889047Y-71847619D01*
X166984285Y-71847619D01*
X167127142Y-71895238D01*
X167222380Y-71990476D01*
X167270000Y-72085714D01*
X167317619Y-72276190D01*
X167317619Y-72419047D01*
X167270000Y-72609523D01*
X167222380Y-72704761D01*
X167127142Y-72800000D01*
X166984285Y-72847619D01*
X166889047Y-72847619D01*
X166746190Y-72800000D01*
X166698571Y-72752380D01*
X166412857Y-72847619D02*
X165841428Y-72847619D01*
X166127142Y-71847619D02*
X166127142Y-72847619D01*
X165317619Y-72847619D02*
X165127142Y-72847619D01*
X165031904Y-72800000D01*
X164936666Y-72704761D01*
X164889047Y-72514285D01*
X164889047Y-72180952D01*
X164936666Y-71990476D01*
X165031904Y-71895238D01*
X165127142Y-71847619D01*
X165317619Y-71847619D01*
X165412857Y-71895238D01*
X165508095Y-71990476D01*
X165555714Y-72180952D01*
X165555714Y-72514285D01*
X165508095Y-72704761D01*
X165412857Y-72800000D01*
X165317619Y-72847619D01*
X163889047Y-71847619D02*
X164222380Y-72323809D01*
X164460476Y-71847619D02*
X164460476Y-72847619D01*
X164079523Y-72847619D01*
X163984285Y-72800000D01*
X163936666Y-72752380D01*
X163889047Y-72657142D01*
X163889047Y-72514285D01*
X163936666Y-72419047D01*
X163984285Y-72371428D01*
X164079523Y-72323809D01*
X164460476Y-72323809D01*
X163460476Y-71847619D02*
X163460476Y-72847619D01*
X162889047Y-71847619D01*
X162889047Y-72847619D01*
X162460476Y-72133333D02*
X161984285Y-72133333D01*
X162555714Y-71847619D02*
X162222380Y-72847619D01*
X161889047Y-71847619D01*
X161698571Y-72847619D02*
X161365238Y-71847619D01*
X161031904Y-72847619D01*
X108410952Y-101902380D02*
X108315714Y-101854761D01*
X108268095Y-101807142D01*
X108220476Y-101711904D01*
X108220476Y-101426190D01*
X108268095Y-101330952D01*
X108315714Y-101283333D01*
X108410952Y-101235714D01*
X108553809Y-101235714D01*
X108649047Y-101283333D01*
X108696666Y-101330952D01*
X108744285Y-101426190D01*
X108744285Y-101711904D01*
X108696666Y-101807142D01*
X108649047Y-101854761D01*
X108553809Y-101902380D01*
X108410952Y-101902380D01*
X109172857Y-101235714D02*
X109172857Y-102235714D01*
X109172857Y-101283333D02*
X109268095Y-101235714D01*
X109458571Y-101235714D01*
X109553809Y-101283333D01*
X109601428Y-101330952D01*
X109649047Y-101426190D01*
X109649047Y-101711904D01*
X109601428Y-101807142D01*
X109553809Y-101854761D01*
X109458571Y-101902380D01*
X109268095Y-101902380D01*
X109172857Y-101854761D01*
X110458571Y-101854761D02*
X110363333Y-101902380D01*
X110172857Y-101902380D01*
X110077619Y-101854761D01*
X110030000Y-101759523D01*
X110030000Y-101378571D01*
X110077619Y-101283333D01*
X110172857Y-101235714D01*
X110363333Y-101235714D01*
X110458571Y-101283333D01*
X110506190Y-101378571D01*
X110506190Y-101473809D01*
X110030000Y-101569047D01*
X110934761Y-101235714D02*
X110934761Y-101902380D01*
X110934761Y-101330952D02*
X110982380Y-101283333D01*
X111077619Y-101235714D01*
X111220476Y-101235714D01*
X111315714Y-101283333D01*
X111363333Y-101378571D01*
X111363333Y-101902380D01*
X112506190Y-101235714D02*
X112744285Y-101902380D01*
X112982380Y-101235714D01*
X113363333Y-101902380D02*
X113363333Y-101235714D01*
X113363333Y-100902380D02*
X113315714Y-100950000D01*
X113363333Y-100997619D01*
X113410952Y-100950000D01*
X113363333Y-100902380D01*
X113363333Y-100997619D01*
X113791904Y-101854761D02*
X113887142Y-101902380D01*
X114077619Y-101902380D01*
X114172857Y-101854761D01*
X114220476Y-101759523D01*
X114220476Y-101711904D01*
X114172857Y-101616666D01*
X114077619Y-101569047D01*
X113934761Y-101569047D01*
X113839523Y-101521428D01*
X113791904Y-101426190D01*
X113791904Y-101378571D01*
X113839523Y-101283333D01*
X113934761Y-101235714D01*
X114077619Y-101235714D01*
X114172857Y-101283333D01*
X114649047Y-101902380D02*
X114649047Y-101235714D01*
X114649047Y-100902380D02*
X114601428Y-100950000D01*
X114649047Y-100997619D01*
X114696666Y-100950000D01*
X114649047Y-100902380D01*
X114649047Y-100997619D01*
X115268095Y-101902380D02*
X115172857Y-101854761D01*
X115125238Y-101807142D01*
X115077619Y-101711904D01*
X115077619Y-101426190D01*
X115125238Y-101330952D01*
X115172857Y-101283333D01*
X115268095Y-101235714D01*
X115410952Y-101235714D01*
X115506190Y-101283333D01*
X115553809Y-101330952D01*
X115601428Y-101426190D01*
X115601428Y-101711904D01*
X115553809Y-101807142D01*
X115506190Y-101854761D01*
X115410952Y-101902380D01*
X115268095Y-101902380D01*
X116030000Y-101235714D02*
X116030000Y-101902380D01*
X116030000Y-101330952D02*
X116077619Y-101283333D01*
X116172857Y-101235714D01*
X116315714Y-101235714D01*
X116410952Y-101283333D01*
X116458571Y-101378571D01*
X116458571Y-101902380D01*
X118125238Y-101854761D02*
X118030000Y-101902380D01*
X117839523Y-101902380D01*
X117744285Y-101854761D01*
X117696666Y-101807142D01*
X117649047Y-101711904D01*
X117649047Y-101426190D01*
X117696666Y-101330952D01*
X117744285Y-101283333D01*
X117839523Y-101235714D01*
X118030000Y-101235714D01*
X118125238Y-101283333D01*
X118696666Y-101902380D02*
X118601428Y-101854761D01*
X118553809Y-101807142D01*
X118506190Y-101711904D01*
X118506190Y-101426190D01*
X118553809Y-101330952D01*
X118601428Y-101283333D01*
X118696666Y-101235714D01*
X118839523Y-101235714D01*
X118934761Y-101283333D01*
X118982380Y-101330952D01*
X119030000Y-101426190D01*
X119030000Y-101711904D01*
X118982380Y-101807142D01*
X118934761Y-101854761D01*
X118839523Y-101902380D01*
X118696666Y-101902380D01*
X119458571Y-101902380D02*
X119458571Y-101235714D01*
X119458571Y-101330952D02*
X119506190Y-101283333D01*
X119601428Y-101235714D01*
X119744285Y-101235714D01*
X119839523Y-101283333D01*
X119887142Y-101378571D01*
X119887142Y-101902380D01*
X119887142Y-101378571D02*
X119934761Y-101283333D01*
X120030000Y-101235714D01*
X120172857Y-101235714D01*
X120268095Y-101283333D01*
X120315714Y-101378571D01*
X120315714Y-101902380D01*
X120791904Y-101235714D02*
X120791904Y-102235714D01*
X120791904Y-101283333D02*
X120887142Y-101235714D01*
X121077619Y-101235714D01*
X121172857Y-101283333D01*
X121220476Y-101330952D01*
X121268095Y-101426190D01*
X121268095Y-101711904D01*
X121220476Y-101807142D01*
X121172857Y-101854761D01*
X121077619Y-101902380D01*
X120887142Y-101902380D01*
X120791904Y-101854761D01*
X122125238Y-101235714D02*
X122125238Y-101902380D01*
X121696666Y-101235714D02*
X121696666Y-101759523D01*
X121744285Y-101854761D01*
X121839523Y-101902380D01*
X121982380Y-101902380D01*
X122077619Y-101854761D01*
X122125238Y-101807142D01*
X122458571Y-101235714D02*
X122839523Y-101235714D01*
X122601428Y-100902380D02*
X122601428Y-101759523D01*
X122649047Y-101854761D01*
X122744285Y-101902380D01*
X122839523Y-101902380D01*
X123553809Y-101854761D02*
X123458571Y-101902380D01*
X123268095Y-101902380D01*
X123172857Y-101854761D01*
X123125238Y-101759523D01*
X123125238Y-101378571D01*
X123172857Y-101283333D01*
X123268095Y-101235714D01*
X123458571Y-101235714D01*
X123553809Y-101283333D01*
X123601428Y-101378571D01*
X123601428Y-101473809D01*
X123125238Y-101569047D01*
X124030000Y-101902380D02*
X124030000Y-101235714D01*
X124030000Y-101426190D02*
X124077619Y-101330952D01*
X124125238Y-101283333D01*
X124220476Y-101235714D01*
X124315714Y-101235714D01*
X108268095Y-103602380D02*
X108268095Y-102935714D01*
X108268095Y-103126190D02*
X108315714Y-103030952D01*
X108363333Y-102983333D01*
X108458571Y-102935714D01*
X108553809Y-102935714D01*
X109268095Y-103554761D02*
X109172857Y-103602380D01*
X108982380Y-103602380D01*
X108887142Y-103554761D01*
X108839523Y-103459523D01*
X108839523Y-103078571D01*
X108887142Y-102983333D01*
X108982380Y-102935714D01*
X109172857Y-102935714D01*
X109268095Y-102983333D01*
X109315714Y-103078571D01*
X109315714Y-103173809D01*
X108839523Y-103269047D01*
X109649047Y-102935714D02*
X109887142Y-103602380D01*
X110125238Y-102935714D01*
X110506190Y-103507142D02*
X110553809Y-103554761D01*
X110506190Y-103602380D01*
X110458571Y-103554761D01*
X110506190Y-103507142D01*
X110506190Y-103602380D01*
X111696666Y-102697619D02*
X111744285Y-102650000D01*
X111839523Y-102602380D01*
X112077619Y-102602380D01*
X112172857Y-102650000D01*
X112220476Y-102697619D01*
X112268095Y-102792857D01*
X112268095Y-102888095D01*
X112220476Y-103030952D01*
X111649047Y-103602380D01*
X112268095Y-103602380D01*
X112696666Y-103602380D02*
X112696666Y-102602380D01*
X112696666Y-102983333D02*
X112791904Y-102935714D01*
X112982380Y-102935714D01*
X113077619Y-102983333D01*
X113125238Y-103030952D01*
X113172857Y-103126190D01*
X113172857Y-103411904D01*
X113125238Y-103507142D01*
X113077619Y-103554761D01*
X112982380Y-103602380D01*
X112791904Y-103602380D01*
X112696666Y-103554761D01*
X116030000Y-103602380D02*
X115934761Y-103554761D01*
X115887142Y-103507142D01*
X115839523Y-103411904D01*
X115839523Y-103126190D01*
X115887142Y-103030952D01*
X115934761Y-102983333D01*
X116030000Y-102935714D01*
X116172857Y-102935714D01*
X116268095Y-102983333D01*
X116315714Y-103030952D01*
X116363333Y-103126190D01*
X116363333Y-103411904D01*
X116315714Y-103507142D01*
X116268095Y-103554761D01*
X116172857Y-103602380D01*
X116030000Y-103602380D01*
X117220476Y-103554761D02*
X117125238Y-103602380D01*
X116934761Y-103602380D01*
X116839523Y-103554761D01*
X116791904Y-103507142D01*
X116744285Y-103411904D01*
X116744285Y-103126190D01*
X116791904Y-103030952D01*
X116839523Y-102983333D01*
X116934761Y-102935714D01*
X117125238Y-102935714D01*
X117220476Y-102983333D01*
X117506190Y-102935714D02*
X117887142Y-102935714D01*
X117649047Y-102602380D02*
X117649047Y-103459523D01*
X117696666Y-103554761D01*
X117791904Y-103602380D01*
X117887142Y-103602380D01*
X118934761Y-102697619D02*
X118982380Y-102650000D01*
X119077619Y-102602380D01*
X119315714Y-102602380D01*
X119410952Y-102650000D01*
X119458571Y-102697619D01*
X119506190Y-102792857D01*
X119506190Y-102888095D01*
X119458571Y-103030952D01*
X118887142Y-103602380D01*
X119506190Y-103602380D01*
X120125238Y-102602380D02*
X120220476Y-102602380D01*
X120315714Y-102650000D01*
X120363333Y-102697619D01*
X120410952Y-102792857D01*
X120458571Y-102983333D01*
X120458571Y-103221428D01*
X120410952Y-103411904D01*
X120363333Y-103507142D01*
X120315714Y-103554761D01*
X120220476Y-103602380D01*
X120125238Y-103602380D01*
X120030000Y-103554761D01*
X119982380Y-103507142D01*
X119934761Y-103411904D01*
X119887142Y-103221428D01*
X119887142Y-102983333D01*
X119934761Y-102792857D01*
X119982380Y-102697619D01*
X120030000Y-102650000D01*
X120125238Y-102602380D01*
X121410952Y-103602380D02*
X120839523Y-103602380D01*
X121125238Y-103602380D02*
X121125238Y-102602380D01*
X121030000Y-102745238D01*
X120934761Y-102840476D01*
X120839523Y-102888095D01*
X121982380Y-103030952D02*
X121887142Y-102983333D01*
X121839523Y-102935714D01*
X121791904Y-102840476D01*
X121791904Y-102792857D01*
X121839523Y-102697619D01*
X121887142Y-102650000D01*
X121982380Y-102602380D01*
X122172857Y-102602380D01*
X122268095Y-102650000D01*
X122315714Y-102697619D01*
X122363333Y-102792857D01*
X122363333Y-102840476D01*
X122315714Y-102935714D01*
X122268095Y-102983333D01*
X122172857Y-103030952D01*
X121982380Y-103030952D01*
X121887142Y-103078571D01*
X121839523Y-103126190D01*
X121791904Y-103221428D01*
X121791904Y-103411904D01*
X121839523Y-103507142D01*
X121887142Y-103554761D01*
X121982380Y-103602380D01*
X122172857Y-103602380D01*
X122268095Y-103554761D01*
X122315714Y-103507142D01*
X122363333Y-103411904D01*
X122363333Y-103221428D01*
X122315714Y-103126190D01*
X122268095Y-103078571D01*
X122172857Y-103030952D01*
X176600000Y-94900000D02*
X176900000Y-94200000D01*
X176300000Y-94200000D02*
X176600000Y-94800000D01*
X176900000Y-94200000D02*
X176300000Y-94200000D01*
X176900000Y-94900000D02*
X176300000Y-94900000D01*
X113300000Y-106700000D02*
X113900000Y-106400000D01*
X113300000Y-106100000D02*
X113300000Y-106700000D01*
X114000000Y-106400000D02*
X113300000Y-106100000D01*
X114000000Y-106100000D02*
X114000000Y-106700000D01*
X139800000Y-96500000D02*
G75*
G03X139800000Y-96500000I-100000J0D01*
G01*
X131800000Y-104000000D02*
G75*
G03X131800000Y-104000000I-100000J0D01*
G01*
X145141421Y-74700000D02*
G75*
G03X145141421Y-74700000I-141421J0D01*
G01*
X162800000Y-104000000D02*
G75*
G03X162800000Y-104000000I-100000J0D01*
G01*
X173300000Y-104000000D02*
G75*
G03X173300000Y-104000000I-100000J0D01*
G01*
X188716228Y-87500000D02*
G75*
G03X188716228Y-87500000I-316228J0D01*
G01*
X172216228Y-73600000D02*
G75*
G03X172216228Y-73600000I-316228J0D01*
G01*
X129316228Y-68200000D02*
G75*
G03X129316228Y-68200000I-316228J0D01*
G01*
D13*
G04 #@! TO.C,R21*
X136441422Y-106410000D02*
X136958578Y-106410000D01*
X136441422Y-104990000D02*
X136958578Y-104990000D01*
G04 #@! TO.C,R20*
X166941422Y-106410000D02*
X167458578Y-106410000D01*
X166941422Y-104990000D02*
X167458578Y-104990000D01*
G04 #@! TO.C,R17*
X177441422Y-106410000D02*
X177958578Y-106410000D01*
X177441422Y-104990000D02*
X177958578Y-104990000D01*
D14*
G04 #@! TO.C,J9*
X207820000Y-76130000D02*
X207820000Y-83130000D01*
X188820000Y-76130000D02*
X207820000Y-76130000D01*
X188820000Y-82130000D02*
X188820000Y-76130000D01*
X188820000Y-95130000D02*
X188820000Y-88130000D01*
X207820000Y-95130000D02*
X188820000Y-95130000D01*
X207820000Y-89130000D02*
X207820000Y-95130000D01*
G04 #@! TO.C,J8*
X87820000Y-76130000D02*
X87820000Y-83130000D01*
X68820000Y-76130000D02*
X87820000Y-76130000D01*
X68820000Y-82130000D02*
X68820000Y-76130000D01*
X68820000Y-95130000D02*
X68820000Y-88130000D01*
X87820000Y-95130000D02*
X68820000Y-95130000D01*
X87820000Y-89130000D02*
X87820000Y-95130000D01*
D13*
G04 #@! TO.C,TP9*
X146800000Y-83700000D02*
G75*
G03X146800000Y-83700000I-700000J0D01*
G01*
G04 #@! TO.C,TP8*
X134000000Y-97200000D02*
G75*
G03X134000000Y-97200000I-700000J0D01*
G01*
G04 #@! TO.C,J13*
X193970000Y-70130000D02*
X193970000Y-68800000D01*
X195300000Y-70130000D02*
X193970000Y-70130000D01*
X196570000Y-70130000D02*
X196570000Y-67470000D01*
X196570000Y-67470000D02*
X201710000Y-67470000D01*
X196570000Y-70130000D02*
X201710000Y-70130000D01*
X201710000Y-70130000D02*
X201710000Y-67470000D01*
G04 #@! TO.C,C159*
X129690000Y-96997936D02*
X129690000Y-98202064D01*
X131510000Y-96997936D02*
X131510000Y-98202064D01*
G04 #@! TO.C,C4*
X129210000Y-102202064D02*
X129210000Y-100997936D01*
X127390000Y-102202064D02*
X127390000Y-100997936D01*
G04 #@! TO.C,C38*
X160910000Y-102602064D02*
X160910000Y-101397936D01*
X159090000Y-102602064D02*
X159090000Y-101397936D01*
G04 #@! TO.C,C7*
X171410000Y-102602064D02*
X171410000Y-101397936D01*
X169590000Y-102602064D02*
X169590000Y-101397936D01*
G04 #@! TO.C,C60*
X138302064Y-92590000D02*
X137097936Y-92590000D01*
X138302064Y-94410000D02*
X137097936Y-94410000D01*
G04 #@! TO.C,C63*
X149897936Y-91410000D02*
X151102064Y-91410000D01*
X149897936Y-89590000D02*
X151102064Y-89590000D01*
G04 #@! TO.C,C64*
X149897936Y-93910000D02*
X151102064Y-93910000D01*
X149897936Y-92090000D02*
X151102064Y-92090000D01*
G04 #@! TO.C,J11*
X138100000Y-67250000D02*
X139100000Y-67250000D01*
X138100000Y-67250000D02*
X138100000Y-66250000D01*
X144850000Y-64050000D02*
X141875000Y-64050000D01*
X144850000Y-64900000D02*
X144850000Y-64050000D01*
X145050000Y-64900000D02*
X144850000Y-64900000D01*
X145050000Y-65700000D02*
X145050000Y-64900000D01*
X144850000Y-65700000D02*
X145050000Y-65700000D01*
X144850000Y-66450000D02*
X144850000Y-65700000D01*
X141875000Y-66450000D02*
X144850000Y-66450000D01*
X138900000Y-64050000D02*
X141875000Y-64050000D01*
X138900000Y-64900000D02*
X138900000Y-64050000D01*
X138700000Y-64900000D02*
X138900000Y-64900000D01*
X138700000Y-65700000D02*
X138700000Y-64900000D01*
X138900000Y-65700000D02*
X138700000Y-65700000D01*
X138900000Y-66450000D02*
X138900000Y-65700000D01*
X141875000Y-66450000D02*
X138900000Y-66450000D01*
X145360000Y-63540000D02*
X138390000Y-63540000D01*
X145360000Y-66960000D02*
X145360000Y-63540000D01*
X138390000Y-66960000D02*
X145360000Y-66960000D01*
X138390000Y-63540000D02*
X138390000Y-66960000D01*
G04 #@! TO.C,J4*
X95440000Y-66110000D02*
X95440000Y-65000000D01*
X96200000Y-66110000D02*
X95440000Y-66110000D01*
X96960000Y-64436529D02*
X96960000Y-63890000D01*
X96960000Y-66110000D02*
X96960000Y-65563471D01*
X96960000Y-63890000D02*
X133725000Y-63890000D01*
X96960000Y-66110000D02*
X133725000Y-66110000D01*
X133725000Y-64692470D02*
X133725000Y-63890000D01*
X133725000Y-66110000D02*
X133725000Y-65307530D01*
D12*
G04 #@! TO.C,U20*
X145575000Y-67175000D02*
X140925000Y-67175000D01*
X146650000Y-75275000D02*
X140925000Y-75275000D01*
X145575000Y-67175000D02*
X145575000Y-67200000D01*
X140925000Y-67175000D02*
X140925000Y-67200000D01*
X140925000Y-75225000D02*
X140925000Y-75200000D01*
D13*
G04 #@! TO.C,U19*
X94700000Y-79900000D02*
X91700000Y-79900000D01*
X94700000Y-82100000D02*
X92500000Y-82100000D01*
G04 #@! TO.C,U18*
X92500000Y-78500000D02*
X95500000Y-78500000D01*
X92500000Y-76300000D02*
X94700000Y-76300000D01*
G04 #@! TO.C,J10*
X72570000Y-70130000D02*
X72570000Y-68800000D01*
X73900000Y-70130000D02*
X72570000Y-70130000D01*
X75170000Y-70130000D02*
X75170000Y-67470000D01*
X75170000Y-67470000D02*
X85390000Y-67470000D01*
X75170000Y-70130000D02*
X85390000Y-70130000D01*
X85390000Y-70130000D02*
X85390000Y-67470000D01*
G04 #@! TO.C,J7*
X72570000Y-106530000D02*
X72570000Y-105200000D01*
X73900000Y-106530000D02*
X72570000Y-106530000D01*
X75170000Y-106530000D02*
X75170000Y-103870000D01*
X75170000Y-103870000D02*
X85390000Y-103870000D01*
X75170000Y-106530000D02*
X85390000Y-106530000D01*
X85390000Y-106530000D02*
X85390000Y-103870000D01*
G04 #@! TO.C,J5*
X92170000Y-106830000D02*
X92170000Y-105500000D01*
X93500000Y-106830000D02*
X92170000Y-106830000D01*
X92170000Y-104230000D02*
X92170000Y-101630000D01*
X94770000Y-104230000D02*
X92170000Y-104230000D01*
X94770000Y-106830000D02*
X94770000Y-104230000D01*
X92170000Y-101630000D02*
X99910000Y-101630000D01*
X94770000Y-106830000D02*
X99910000Y-106830000D01*
X99910000Y-106830000D02*
X99910000Y-101630000D01*
D12*
G04 #@! TO.C,U2*
X70573950Y-87508000D02*
G75*
G03X70573950Y-87508000I-201950J0D01*
G01*
G04 #@! TO.C,U1*
X190573950Y-87508000D02*
G75*
G03X190573950Y-87508000I-201950J0D01*
G01*
G04 #@! TO.C,U9*
X92900000Y-92400000D02*
X93300000Y-92400000D01*
X96100000Y-92400000D02*
X95700000Y-92400000D01*
X96100000Y-92400000D02*
X96100000Y-92800000D01*
X96100000Y-95600000D02*
X95700000Y-95600000D01*
X96100000Y-95600000D02*
X96100000Y-95200000D01*
X92900000Y-95600000D02*
X93300000Y-95600000D01*
X92900000Y-95600000D02*
X92900000Y-95200000D01*
G04 #@! TO.C,U8*
X151675000Y-105500000D02*
X151675000Y-106175000D01*
X151675000Y-106175000D02*
X151000000Y-106175000D01*
X140325000Y-105500000D02*
X140325000Y-106175000D01*
X140325000Y-106175000D02*
X141000000Y-106175000D01*
X140325000Y-95500000D02*
X140325000Y-94825000D01*
X140325000Y-94825000D02*
X141000000Y-94825000D01*
X151000000Y-94825000D02*
X151675000Y-94825000D01*
X151675000Y-94825000D02*
X151675000Y-95500000D01*
D13*
G04 #@! TO.C,C44*
X164260000Y-99260000D02*
X164260000Y-97560000D01*
X164260000Y-93740000D02*
X164260000Y-95440000D01*
X159804437Y-93740000D02*
X164260000Y-93740000D01*
X159804437Y-99260000D02*
X164260000Y-99260000D01*
X158740000Y-98195563D02*
X158740000Y-97560000D01*
X158740000Y-94804437D02*
X158740000Y-95440000D01*
X158740000Y-94804437D02*
X159804437Y-93740000D01*
X158740000Y-98195563D02*
X159804437Y-99260000D01*
X157875000Y-94815000D02*
X158500000Y-94815000D01*
X158187500Y-94502500D02*
X158187500Y-95127500D01*
G04 #@! TO.C,C62*
X146087500Y-84202500D02*
X146087500Y-84827500D01*
X145775000Y-84515000D02*
X146400000Y-84515000D01*
X146640000Y-87895563D02*
X147704437Y-88960000D01*
X146640000Y-84504437D02*
X147704437Y-83440000D01*
X146640000Y-84504437D02*
X146640000Y-85140000D01*
X146640000Y-87895563D02*
X146640000Y-87260000D01*
X147704437Y-88960000D02*
X152160000Y-88960000D01*
X147704437Y-83440000D02*
X152160000Y-83440000D01*
X152160000Y-83440000D02*
X152160000Y-85140000D01*
X152160000Y-88960000D02*
X152160000Y-87260000D01*
G04 #@! TO.C,C168*
X167740000Y-93740000D02*
X167740000Y-95440000D01*
X167740000Y-99260000D02*
X167740000Y-97560000D01*
X172195563Y-99260000D02*
X167740000Y-99260000D01*
X172195563Y-93740000D02*
X167740000Y-93740000D01*
X173260000Y-94804437D02*
X173260000Y-95440000D01*
X173260000Y-98195563D02*
X173260000Y-97560000D01*
X173260000Y-98195563D02*
X172195563Y-99260000D01*
X173260000Y-94804437D02*
X172195563Y-93740000D01*
X174125000Y-98185000D02*
X173500000Y-98185000D01*
X173812500Y-98497500D02*
X173812500Y-97872500D01*
G04 #@! TO.C,Q3*
X156280000Y-95840000D02*
X154870000Y-95840000D01*
X154870000Y-98160000D02*
X156900000Y-98160000D01*
X154870000Y-98160000D02*
X154870000Y-97500000D01*
X154870000Y-96500000D02*
X154870000Y-95840000D01*
G04 #@! TO.C,R56*
X143580000Y-78300000D02*
X143580000Y-79300000D01*
X142220000Y-79300000D02*
X142220000Y-78300000D01*
G04 #@! TO.C,Q4*
X141130000Y-78200000D02*
X141130000Y-78860000D01*
X141130000Y-76540000D02*
X141130000Y-77200000D01*
X141130000Y-76540000D02*
X139100000Y-76540000D01*
X139720000Y-78860000D02*
X141130000Y-78860000D01*
G04 #@! TO.C,Q5*
X139720000Y-81460000D02*
X141130000Y-81460000D01*
X141130000Y-79140000D02*
X139100000Y-79140000D01*
X141130000Y-79140000D02*
X141130000Y-79800000D01*
X141130000Y-80800000D02*
X141130000Y-81460000D01*
G04 #@! TO.C,Q2*
X132730000Y-94000000D02*
X132730000Y-94660000D01*
X132730000Y-92340000D02*
X132730000Y-93000000D01*
X132730000Y-92340000D02*
X130700000Y-92340000D01*
X131320000Y-94660000D02*
X132730000Y-94660000D01*
G04 #@! TO.C,Q1*
X139720000Y-84060000D02*
X141130000Y-84060000D01*
X141130000Y-81740000D02*
X139100000Y-81740000D01*
X141130000Y-81740000D02*
X141130000Y-82400000D01*
X141130000Y-83400000D02*
X141130000Y-84060000D01*
D15*
G04 #@! TO.C,D1*
X175750000Y-95485000D02*
G75*
G03X175750000Y-95485000I-50000J0D01*
G01*
G04 #@! TO.C,D2*
X114635000Y-105500000D02*
G75*
G03X114635000Y-105500000I-50000J0D01*
G01*
D12*
G04 #@! TO.C,U15*
X172700000Y-74400000D02*
X173700000Y-73400000D01*
X158000000Y-74400000D02*
X172700000Y-74400000D01*
X158000000Y-88600000D02*
X158000000Y-74400000D01*
X172700000Y-88600000D02*
X158000000Y-88600000D01*
X172700000Y-74400000D02*
X172700000Y-88600000D01*
G04 #@! TO.C,J1*
X137500000Y-69500000D02*
X133000000Y-69500000D01*
X137500000Y-69500000D02*
X137500000Y-91500000D01*
X137500000Y-91500000D02*
X131500000Y-91500000D01*
X131500000Y-91500000D02*
X131500000Y-71000000D01*
X131500000Y-71000000D02*
X133000000Y-69500000D01*
D13*
G04 #@! TO.C,U12*
X144900000Y-77900000D02*
X147900000Y-77900000D01*
X144900000Y-75700000D02*
X147100000Y-75700000D01*
D12*
G04 #@! TO.C,U11*
G36*
X151650000Y-76200000D02*
X152150000Y-76500000D01*
X152150000Y-75900000D01*
X151650000Y-76200000D01*
G37*
X151650000Y-76200000D02*
X152150000Y-76500000D01*
X152150000Y-75900000D01*
X151650000Y-76200000D01*
G04 #@! TO.C,U3*
X128150000Y-88400000D02*
X128150000Y-95150000D01*
X128150000Y-95150000D02*
X121400000Y-95150000D01*
X128150000Y-88400000D02*
X128150000Y-95150000D01*
X128150000Y-95150000D02*
X121400000Y-95150000D01*
X100850000Y-88400000D02*
X100850000Y-95150000D01*
X100850000Y-95150000D02*
X107600000Y-95150000D01*
X128150000Y-88400000D02*
X128150000Y-95150000D01*
X128150000Y-95150000D02*
X121400000Y-95150000D01*
X100850000Y-74600000D02*
X100850000Y-67850000D01*
X100850000Y-67850000D02*
X107600000Y-67850000D01*
X128150000Y-74600000D02*
X128150000Y-69000000D01*
X128150000Y-69000000D02*
X127000000Y-67850000D01*
X127000000Y-67850000D02*
X121400000Y-67850000D01*
D11*
X128100000Y-68000000D02*
G75*
G03X128100000Y-68000000I-100000J0D01*
G01*
D12*
G04 #@! TO.C,U4*
X156500000Y-68500000D02*
X154500000Y-68500000D01*
X154500000Y-68500000D02*
X154500000Y-70500000D01*
X154500000Y-90500000D02*
X154500000Y-92500000D01*
X154500000Y-92500000D02*
X156500000Y-92500000D01*
X174500000Y-92500000D02*
X176500000Y-92500000D01*
X176500000Y-92500000D02*
X176500000Y-90500000D01*
X176500000Y-70500000D02*
X176500000Y-68500000D01*
X176500000Y-68500000D02*
X174500000Y-68500000D01*
D13*
G04 #@! TO.C,C59*
X144540000Y-92300000D02*
X143120000Y-92300000D01*
X145300000Y-85700000D02*
X143120000Y-85700000D01*
X138700000Y-85700000D02*
X140880000Y-85700000D01*
X139460000Y-92300000D02*
X140880000Y-92300000D01*
X145300000Y-85700000D02*
X145300000Y-91540000D01*
X145300000Y-91540000D02*
X144540000Y-92300000D01*
X139460000Y-92300000D02*
X138700000Y-91540000D01*
X138700000Y-91540000D02*
X138700000Y-85700000D01*
G04 #@! TO.C,U17*
X99700000Y-98340000D02*
X98300000Y-98340000D01*
X98300000Y-100660000D02*
X100200000Y-100660000D01*
G04 #@! TO.C,R60*
X143950000Y-84280000D02*
X142950000Y-84280000D01*
X142950000Y-82920000D02*
X143950000Y-82920000D01*
G04 #@! TO.C,Q14*
X157160000Y-102680000D02*
X157160000Y-101270000D01*
X154840000Y-101270000D02*
X154840000Y-103300000D01*
X154840000Y-101270000D02*
X155500000Y-101270000D01*
X156500000Y-101270000D02*
X157160000Y-101270000D01*
G04 #@! TO.C,R58*
X133820000Y-94000000D02*
X133820000Y-93000000D01*
X135180000Y-93000000D02*
X135180000Y-94000000D01*
G04 #@! TO.C,R57*
X143580000Y-80900000D02*
X143580000Y-81900000D01*
X142220000Y-81900000D02*
X142220000Y-80900000D01*
G04 #@! TO.C,R21*
D12*
X135814285Y-104671428D02*
X135614285Y-104385714D01*
X135471428Y-104671428D02*
X135471428Y-104071428D01*
X135700000Y-104071428D01*
X135757142Y-104100000D01*
X135785714Y-104128571D01*
X135814285Y-104185714D01*
X135814285Y-104271428D01*
X135785714Y-104328571D01*
X135757142Y-104357142D01*
X135700000Y-104385714D01*
X135471428Y-104385714D01*
X136042857Y-104128571D02*
X136071428Y-104100000D01*
X136128571Y-104071428D01*
X136271428Y-104071428D01*
X136328571Y-104100000D01*
X136357142Y-104128571D01*
X136385714Y-104185714D01*
X136385714Y-104242857D01*
X136357142Y-104328571D01*
X136014285Y-104671428D01*
X136385714Y-104671428D01*
X136957142Y-104671428D02*
X136614285Y-104671428D01*
X136785714Y-104671428D02*
X136785714Y-104071428D01*
X136728571Y-104157142D01*
X136671428Y-104214285D01*
X136614285Y-104242857D01*
G04 #@! TO.C,R20*
X166814285Y-104671428D02*
X166614285Y-104385714D01*
X166471428Y-104671428D02*
X166471428Y-104071428D01*
X166700000Y-104071428D01*
X166757142Y-104100000D01*
X166785714Y-104128571D01*
X166814285Y-104185714D01*
X166814285Y-104271428D01*
X166785714Y-104328571D01*
X166757142Y-104357142D01*
X166700000Y-104385714D01*
X166471428Y-104385714D01*
X167042857Y-104128571D02*
X167071428Y-104100000D01*
X167128571Y-104071428D01*
X167271428Y-104071428D01*
X167328571Y-104100000D01*
X167357142Y-104128571D01*
X167385714Y-104185714D01*
X167385714Y-104242857D01*
X167357142Y-104328571D01*
X167014285Y-104671428D01*
X167385714Y-104671428D01*
X167757142Y-104071428D02*
X167814285Y-104071428D01*
X167871428Y-104100000D01*
X167900000Y-104128571D01*
X167928571Y-104185714D01*
X167957142Y-104300000D01*
X167957142Y-104442857D01*
X167928571Y-104557142D01*
X167900000Y-104614285D01*
X167871428Y-104642857D01*
X167814285Y-104671428D01*
X167757142Y-104671428D01*
X167700000Y-104642857D01*
X167671428Y-104614285D01*
X167642857Y-104557142D01*
X167614285Y-104442857D01*
X167614285Y-104300000D01*
X167642857Y-104185714D01*
X167671428Y-104128571D01*
X167700000Y-104100000D01*
X167757142Y-104071428D01*
G04 #@! TO.C,R17*
X177114285Y-104671428D02*
X176914285Y-104385714D01*
X176771428Y-104671428D02*
X176771428Y-104071428D01*
X177000000Y-104071428D01*
X177057142Y-104100000D01*
X177085714Y-104128571D01*
X177114285Y-104185714D01*
X177114285Y-104271428D01*
X177085714Y-104328571D01*
X177057142Y-104357142D01*
X177000000Y-104385714D01*
X176771428Y-104385714D01*
X177685714Y-104671428D02*
X177342857Y-104671428D01*
X177514285Y-104671428D02*
X177514285Y-104071428D01*
X177457142Y-104157142D01*
X177400000Y-104214285D01*
X177342857Y-104242857D01*
X177885714Y-104071428D02*
X178285714Y-104071428D01*
X178028571Y-104671428D01*
G04 #@! TO.C,C61*
X138014285Y-101414285D02*
X137985714Y-101442857D01*
X137900000Y-101471428D01*
X137842857Y-101471428D01*
X137757142Y-101442857D01*
X137700000Y-101385714D01*
X137671428Y-101328571D01*
X137642857Y-101214285D01*
X137642857Y-101128571D01*
X137671428Y-101014285D01*
X137700000Y-100957142D01*
X137757142Y-100900000D01*
X137842857Y-100871428D01*
X137900000Y-100871428D01*
X137985714Y-100900000D01*
X138014285Y-100928571D01*
X138528571Y-100871428D02*
X138414285Y-100871428D01*
X138357142Y-100900000D01*
X138328571Y-100928571D01*
X138271428Y-101014285D01*
X138242857Y-101128571D01*
X138242857Y-101357142D01*
X138271428Y-101414285D01*
X138300000Y-101442857D01*
X138357142Y-101471428D01*
X138471428Y-101471428D01*
X138528571Y-101442857D01*
X138557142Y-101414285D01*
X138585714Y-101357142D01*
X138585714Y-101214285D01*
X138557142Y-101157142D01*
X138528571Y-101128571D01*
X138471428Y-101100000D01*
X138357142Y-101100000D01*
X138300000Y-101128571D01*
X138271428Y-101157142D01*
X138242857Y-101214285D01*
X139157142Y-101471428D02*
X138814285Y-101471428D01*
X138985714Y-101471428D02*
X138985714Y-100871428D01*
X138928571Y-100957142D01*
X138871428Y-101014285D01*
X138814285Y-101042857D01*
G04 #@! TO.C,J9*
X198120000Y-84801428D02*
X198120000Y-85230000D01*
X198091428Y-85315714D01*
X198034285Y-85372857D01*
X197948571Y-85401428D01*
X197891428Y-85401428D01*
X198434285Y-85401428D02*
X198548571Y-85401428D01*
X198605714Y-85372857D01*
X198634285Y-85344285D01*
X198691428Y-85258571D01*
X198720000Y-85144285D01*
X198720000Y-84915714D01*
X198691428Y-84858571D01*
X198662857Y-84830000D01*
X198605714Y-84801428D01*
X198491428Y-84801428D01*
X198434285Y-84830000D01*
X198405714Y-84858571D01*
X198377142Y-84915714D01*
X198377142Y-85058571D01*
X198405714Y-85115714D01*
X198434285Y-85144285D01*
X198491428Y-85172857D01*
X198605714Y-85172857D01*
X198662857Y-85144285D01*
X198691428Y-85115714D01*
X198720000Y-85058571D01*
G04 #@! TO.C,J8*
X78120000Y-84801428D02*
X78120000Y-85230000D01*
X78091428Y-85315714D01*
X78034285Y-85372857D01*
X77948571Y-85401428D01*
X77891428Y-85401428D01*
X78491428Y-85058571D02*
X78434285Y-85030000D01*
X78405714Y-85001428D01*
X78377142Y-84944285D01*
X78377142Y-84915714D01*
X78405714Y-84858571D01*
X78434285Y-84830000D01*
X78491428Y-84801428D01*
X78605714Y-84801428D01*
X78662857Y-84830000D01*
X78691428Y-84858571D01*
X78720000Y-84915714D01*
X78720000Y-84944285D01*
X78691428Y-85001428D01*
X78662857Y-85030000D01*
X78605714Y-85058571D01*
X78491428Y-85058571D01*
X78434285Y-85087142D01*
X78405714Y-85115714D01*
X78377142Y-85172857D01*
X78377142Y-85287142D01*
X78405714Y-85344285D01*
X78434285Y-85372857D01*
X78491428Y-85401428D01*
X78605714Y-85401428D01*
X78662857Y-85372857D01*
X78691428Y-85344285D01*
X78720000Y-85287142D01*
X78720000Y-85172857D01*
X78691428Y-85115714D01*
X78662857Y-85087142D01*
X78605714Y-85058571D01*
G04 #@! TO.C,C5*
X171100000Y-90714285D02*
X171071428Y-90742857D01*
X170985714Y-90771428D01*
X170928571Y-90771428D01*
X170842857Y-90742857D01*
X170785714Y-90685714D01*
X170757142Y-90628571D01*
X170728571Y-90514285D01*
X170728571Y-90428571D01*
X170757142Y-90314285D01*
X170785714Y-90257142D01*
X170842857Y-90200000D01*
X170928571Y-90171428D01*
X170985714Y-90171428D01*
X171071428Y-90200000D01*
X171100000Y-90228571D01*
X171642857Y-90171428D02*
X171357142Y-90171428D01*
X171328571Y-90457142D01*
X171357142Y-90428571D01*
X171414285Y-90400000D01*
X171557142Y-90400000D01*
X171614285Y-90428571D01*
X171642857Y-90457142D01*
X171671428Y-90514285D01*
X171671428Y-90657142D01*
X171642857Y-90714285D01*
X171614285Y-90742857D01*
X171557142Y-90771428D01*
X171414285Y-90771428D01*
X171357142Y-90742857D01*
X171328571Y-90714285D01*
G04 #@! TO.C,J13*
X191914285Y-67771428D02*
X191914285Y-68200000D01*
X191885714Y-68285714D01*
X191828571Y-68342857D01*
X191742857Y-68371428D01*
X191685714Y-68371428D01*
X192514285Y-68371428D02*
X192171428Y-68371428D01*
X192342857Y-68371428D02*
X192342857Y-67771428D01*
X192285714Y-67857142D01*
X192228571Y-67914285D01*
X192171428Y-67942857D01*
X192714285Y-67771428D02*
X193085714Y-67771428D01*
X192885714Y-68000000D01*
X192971428Y-68000000D01*
X193028571Y-68028571D01*
X193057142Y-68057142D01*
X193085714Y-68114285D01*
X193085714Y-68257142D01*
X193057142Y-68314285D01*
X193028571Y-68342857D01*
X192971428Y-68371428D01*
X192800000Y-68371428D01*
X192742857Y-68342857D01*
X192714285Y-68314285D01*
G04 #@! TO.C,C159*
X129214285Y-98271428D02*
X129242857Y-98300000D01*
X129271428Y-98385714D01*
X129271428Y-98442857D01*
X129242857Y-98528571D01*
X129185714Y-98585714D01*
X129128571Y-98614285D01*
X129014285Y-98642857D01*
X128928571Y-98642857D01*
X128814285Y-98614285D01*
X128757142Y-98585714D01*
X128700000Y-98528571D01*
X128671428Y-98442857D01*
X128671428Y-98385714D01*
X128700000Y-98300000D01*
X128728571Y-98271428D01*
X129271428Y-97700000D02*
X129271428Y-98042857D01*
X129271428Y-97871428D02*
X128671428Y-97871428D01*
X128757142Y-97928571D01*
X128814285Y-97985714D01*
X128842857Y-98042857D01*
X128671428Y-97157142D02*
X128671428Y-97442857D01*
X128957142Y-97471428D01*
X128928571Y-97442857D01*
X128900000Y-97385714D01*
X128900000Y-97242857D01*
X128928571Y-97185714D01*
X128957142Y-97157142D01*
X129014285Y-97128571D01*
X129157142Y-97128571D01*
X129214285Y-97157142D01*
X129242857Y-97185714D01*
X129271428Y-97242857D01*
X129271428Y-97385714D01*
X129242857Y-97442857D01*
X129214285Y-97471428D01*
X129271428Y-96842857D02*
X129271428Y-96728571D01*
X129242857Y-96671428D01*
X129214285Y-96642857D01*
X129128571Y-96585714D01*
X129014285Y-96557142D01*
X128785714Y-96557142D01*
X128728571Y-96585714D01*
X128700000Y-96614285D01*
X128671428Y-96671428D01*
X128671428Y-96785714D01*
X128700000Y-96842857D01*
X128728571Y-96871428D01*
X128785714Y-96900000D01*
X128928571Y-96900000D01*
X128985714Y-96871428D01*
X129014285Y-96842857D01*
X129042857Y-96785714D01*
X129042857Y-96671428D01*
X129014285Y-96614285D01*
X128985714Y-96585714D01*
X128928571Y-96557142D01*
G04 #@! TO.C,C4*
X126664285Y-100700000D02*
X126692857Y-100728571D01*
X126721428Y-100814285D01*
X126721428Y-100871428D01*
X126692857Y-100957142D01*
X126635714Y-101014285D01*
X126578571Y-101042857D01*
X126464285Y-101071428D01*
X126378571Y-101071428D01*
X126264285Y-101042857D01*
X126207142Y-101014285D01*
X126150000Y-100957142D01*
X126121428Y-100871428D01*
X126121428Y-100814285D01*
X126150000Y-100728571D01*
X126178571Y-100700000D01*
X126321428Y-100185714D02*
X126721428Y-100185714D01*
X126092857Y-100328571D02*
X126521428Y-100471428D01*
X126521428Y-100100000D01*
G04 #@! TO.C,C38*
X158614285Y-102385714D02*
X158642857Y-102414285D01*
X158671428Y-102500000D01*
X158671428Y-102557142D01*
X158642857Y-102642857D01*
X158585714Y-102700000D01*
X158528571Y-102728571D01*
X158414285Y-102757142D01*
X158328571Y-102757142D01*
X158214285Y-102728571D01*
X158157142Y-102700000D01*
X158100000Y-102642857D01*
X158071428Y-102557142D01*
X158071428Y-102500000D01*
X158100000Y-102414285D01*
X158128571Y-102385714D01*
X158071428Y-102185714D02*
X158071428Y-101814285D01*
X158300000Y-102014285D01*
X158300000Y-101928571D01*
X158328571Y-101871428D01*
X158357142Y-101842857D01*
X158414285Y-101814285D01*
X158557142Y-101814285D01*
X158614285Y-101842857D01*
X158642857Y-101871428D01*
X158671428Y-101928571D01*
X158671428Y-102100000D01*
X158642857Y-102157142D01*
X158614285Y-102185714D01*
X158328571Y-101471428D02*
X158300000Y-101528571D01*
X158271428Y-101557142D01*
X158214285Y-101585714D01*
X158185714Y-101585714D01*
X158128571Y-101557142D01*
X158100000Y-101528571D01*
X158071428Y-101471428D01*
X158071428Y-101357142D01*
X158100000Y-101300000D01*
X158128571Y-101271428D01*
X158185714Y-101242857D01*
X158214285Y-101242857D01*
X158271428Y-101271428D01*
X158300000Y-101300000D01*
X158328571Y-101357142D01*
X158328571Y-101471428D01*
X158357142Y-101528571D01*
X158385714Y-101557142D01*
X158442857Y-101585714D01*
X158557142Y-101585714D01*
X158614285Y-101557142D01*
X158642857Y-101528571D01*
X158671428Y-101471428D01*
X158671428Y-101357142D01*
X158642857Y-101300000D01*
X158614285Y-101271428D01*
X158557142Y-101242857D01*
X158442857Y-101242857D01*
X158385714Y-101271428D01*
X158357142Y-101300000D01*
X158328571Y-101357142D01*
G04 #@! TO.C,C7*
X172314285Y-102100000D02*
X172342857Y-102128571D01*
X172371428Y-102214285D01*
X172371428Y-102271428D01*
X172342857Y-102357142D01*
X172285714Y-102414285D01*
X172228571Y-102442857D01*
X172114285Y-102471428D01*
X172028571Y-102471428D01*
X171914285Y-102442857D01*
X171857142Y-102414285D01*
X171800000Y-102357142D01*
X171771428Y-102271428D01*
X171771428Y-102214285D01*
X171800000Y-102128571D01*
X171828571Y-102100000D01*
X171771428Y-101900000D02*
X171771428Y-101500000D01*
X172371428Y-101757142D01*
G04 #@! TO.C,C60*
X137014285Y-92214285D02*
X136985714Y-92242857D01*
X136900000Y-92271428D01*
X136842857Y-92271428D01*
X136757142Y-92242857D01*
X136700000Y-92185714D01*
X136671428Y-92128571D01*
X136642857Y-92014285D01*
X136642857Y-91928571D01*
X136671428Y-91814285D01*
X136700000Y-91757142D01*
X136757142Y-91700000D01*
X136842857Y-91671428D01*
X136900000Y-91671428D01*
X136985714Y-91700000D01*
X137014285Y-91728571D01*
X137528571Y-91671428D02*
X137414285Y-91671428D01*
X137357142Y-91700000D01*
X137328571Y-91728571D01*
X137271428Y-91814285D01*
X137242857Y-91928571D01*
X137242857Y-92157142D01*
X137271428Y-92214285D01*
X137300000Y-92242857D01*
X137357142Y-92271428D01*
X137471428Y-92271428D01*
X137528571Y-92242857D01*
X137557142Y-92214285D01*
X137585714Y-92157142D01*
X137585714Y-92014285D01*
X137557142Y-91957142D01*
X137528571Y-91928571D01*
X137471428Y-91900000D01*
X137357142Y-91900000D01*
X137300000Y-91928571D01*
X137271428Y-91957142D01*
X137242857Y-92014285D01*
X137957142Y-91671428D02*
X138014285Y-91671428D01*
X138071428Y-91700000D01*
X138100000Y-91728571D01*
X138128571Y-91785714D01*
X138157142Y-91900000D01*
X138157142Y-92042857D01*
X138128571Y-92157142D01*
X138100000Y-92214285D01*
X138071428Y-92242857D01*
X138014285Y-92271428D01*
X137957142Y-92271428D01*
X137900000Y-92242857D01*
X137871428Y-92214285D01*
X137842857Y-92157142D01*
X137814285Y-92042857D01*
X137814285Y-91900000D01*
X137842857Y-91785714D01*
X137871428Y-91728571D01*
X137900000Y-91700000D01*
X137957142Y-91671428D01*
G04 #@! TO.C,C63*
X147684079Y-90935586D02*
X147712651Y-90964157D01*
X147741222Y-91049872D01*
X147741222Y-91107014D01*
X147712651Y-91192729D01*
X147655508Y-91249872D01*
X147598365Y-91278443D01*
X147484079Y-91307014D01*
X147398365Y-91307014D01*
X147284079Y-91278443D01*
X147226936Y-91249872D01*
X147169794Y-91192729D01*
X147141222Y-91107014D01*
X147141222Y-91049872D01*
X147169794Y-90964157D01*
X147198365Y-90935586D01*
X147141222Y-90421300D02*
X147141222Y-90535586D01*
X147169794Y-90592729D01*
X147198365Y-90621300D01*
X147284079Y-90678443D01*
X147398365Y-90707014D01*
X147626936Y-90707014D01*
X147684079Y-90678443D01*
X147712651Y-90649872D01*
X147741222Y-90592729D01*
X147741222Y-90478443D01*
X147712651Y-90421300D01*
X147684079Y-90392729D01*
X147626936Y-90364157D01*
X147484079Y-90364157D01*
X147426936Y-90392729D01*
X147398365Y-90421300D01*
X147369794Y-90478443D01*
X147369794Y-90592729D01*
X147398365Y-90649872D01*
X147426936Y-90678443D01*
X147484079Y-90707014D01*
X147141222Y-90164157D02*
X147141222Y-89792729D01*
X147369794Y-89992729D01*
X147369794Y-89907014D01*
X147398365Y-89849872D01*
X147426936Y-89821300D01*
X147484079Y-89792729D01*
X147626936Y-89792729D01*
X147684079Y-89821300D01*
X147712651Y-89849872D01*
X147741222Y-89907014D01*
X147741222Y-90078443D01*
X147712651Y-90135586D01*
X147684079Y-90164157D01*
G04 #@! TO.C,C64*
X147684079Y-93435586D02*
X147712651Y-93464157D01*
X147741222Y-93549872D01*
X147741222Y-93607014D01*
X147712651Y-93692729D01*
X147655508Y-93749872D01*
X147598365Y-93778443D01*
X147484079Y-93807014D01*
X147398365Y-93807014D01*
X147284079Y-93778443D01*
X147226936Y-93749872D01*
X147169794Y-93692729D01*
X147141222Y-93607014D01*
X147141222Y-93549872D01*
X147169794Y-93464157D01*
X147198365Y-93435586D01*
X147141222Y-92921300D02*
X147141222Y-93035586D01*
X147169794Y-93092729D01*
X147198365Y-93121300D01*
X147284079Y-93178443D01*
X147398365Y-93207014D01*
X147626936Y-93207014D01*
X147684079Y-93178443D01*
X147712651Y-93149872D01*
X147741222Y-93092729D01*
X147741222Y-92978443D01*
X147712651Y-92921300D01*
X147684079Y-92892729D01*
X147626936Y-92864157D01*
X147484079Y-92864157D01*
X147426936Y-92892729D01*
X147398365Y-92921300D01*
X147369794Y-92978443D01*
X147369794Y-93092729D01*
X147398365Y-93149872D01*
X147426936Y-93178443D01*
X147484079Y-93207014D01*
X147341222Y-92349872D02*
X147741222Y-92349872D01*
X147112651Y-92492729D02*
X147541222Y-92635586D01*
X147541222Y-92264157D01*
G04 #@! TO.C,FB1*
X99457142Y-96100000D02*
X99457142Y-96300000D01*
X99771428Y-96300000D02*
X99171428Y-96300000D01*
X99171428Y-96014285D01*
X99457142Y-95585714D02*
X99485714Y-95500000D01*
X99514285Y-95471428D01*
X99571428Y-95442857D01*
X99657142Y-95442857D01*
X99714285Y-95471428D01*
X99742857Y-95500000D01*
X99771428Y-95557142D01*
X99771428Y-95785714D01*
X99171428Y-95785714D01*
X99171428Y-95585714D01*
X99200000Y-95528571D01*
X99228571Y-95500000D01*
X99285714Y-95471428D01*
X99342857Y-95471428D01*
X99400000Y-95500000D01*
X99428571Y-95528571D01*
X99457142Y-95585714D01*
X99457142Y-95785714D01*
X99771428Y-94871428D02*
X99771428Y-95214285D01*
X99771428Y-95042857D02*
X99171428Y-95042857D01*
X99257142Y-95100000D01*
X99314285Y-95157142D01*
X99342857Y-95214285D01*
G04 #@! TO.C,R9*
X152371428Y-103250128D02*
X152085714Y-103450128D01*
X152371428Y-103592985D02*
X151771428Y-103592985D01*
X151771428Y-103364413D01*
X151800000Y-103307270D01*
X151828571Y-103278699D01*
X151885714Y-103250128D01*
X151971428Y-103250128D01*
X152028571Y-103278699D01*
X152057142Y-103307270D01*
X152085714Y-103364413D01*
X152085714Y-103592985D01*
X152371428Y-102964413D02*
X152371428Y-102850128D01*
X152342857Y-102792985D01*
X152314285Y-102764413D01*
X152228571Y-102707270D01*
X152114285Y-102678699D01*
X151885714Y-102678699D01*
X151828571Y-102707270D01*
X151800000Y-102735842D01*
X151771428Y-102792985D01*
X151771428Y-102907270D01*
X151800000Y-102964413D01*
X151828571Y-102992985D01*
X151885714Y-103021556D01*
X152028571Y-103021556D01*
X152085714Y-102992985D01*
X152114285Y-102964413D01*
X152142857Y-102907270D01*
X152142857Y-102792985D01*
X152114285Y-102735842D01*
X152085714Y-102707270D01*
X152028571Y-102678699D01*
G04 #@! TO.C,R10*
X153114285Y-101971428D02*
X152914285Y-101685714D01*
X152771428Y-101971428D02*
X152771428Y-101371428D01*
X153000000Y-101371428D01*
X153057142Y-101400000D01*
X153085714Y-101428571D01*
X153114285Y-101485714D01*
X153114285Y-101571428D01*
X153085714Y-101628571D01*
X153057142Y-101657142D01*
X153000000Y-101685714D01*
X152771428Y-101685714D01*
X153685714Y-101971428D02*
X153342857Y-101971428D01*
X153514285Y-101971428D02*
X153514285Y-101371428D01*
X153457142Y-101457142D01*
X153400000Y-101514285D01*
X153342857Y-101542857D01*
X154057142Y-101371428D02*
X154114285Y-101371428D01*
X154171428Y-101400000D01*
X154200000Y-101428571D01*
X154228571Y-101485714D01*
X154257142Y-101600000D01*
X154257142Y-101742857D01*
X154228571Y-101857142D01*
X154200000Y-101914285D01*
X154171428Y-101942857D01*
X154114285Y-101971428D01*
X154057142Y-101971428D01*
X154000000Y-101942857D01*
X153971428Y-101914285D01*
X153942857Y-101857142D01*
X153914285Y-101742857D01*
X153914285Y-101600000D01*
X153942857Y-101485714D01*
X153971428Y-101428571D01*
X154000000Y-101400000D01*
X154057142Y-101371428D01*
G04 #@! TO.C,R16*
X174614285Y-106371428D02*
X174414285Y-106085714D01*
X174271428Y-106371428D02*
X174271428Y-105771428D01*
X174500000Y-105771428D01*
X174557142Y-105800000D01*
X174585714Y-105828571D01*
X174614285Y-105885714D01*
X174614285Y-105971428D01*
X174585714Y-106028571D01*
X174557142Y-106057142D01*
X174500000Y-106085714D01*
X174271428Y-106085714D01*
X175185714Y-106371428D02*
X174842857Y-106371428D01*
X175014285Y-106371428D02*
X175014285Y-105771428D01*
X174957142Y-105857142D01*
X174900000Y-105914285D01*
X174842857Y-105942857D01*
X175700000Y-105771428D02*
X175585714Y-105771428D01*
X175528571Y-105800000D01*
X175500000Y-105828571D01*
X175442857Y-105914285D01*
X175414285Y-106028571D01*
X175414285Y-106257142D01*
X175442857Y-106314285D01*
X175471428Y-106342857D01*
X175528571Y-106371428D01*
X175642857Y-106371428D01*
X175700000Y-106342857D01*
X175728571Y-106314285D01*
X175757142Y-106257142D01*
X175757142Y-106114285D01*
X175728571Y-106057142D01*
X175700000Y-106028571D01*
X175642857Y-106000000D01*
X175528571Y-106000000D01*
X175471428Y-106028571D01*
X175442857Y-106057142D01*
X175414285Y-106114285D01*
G04 #@! TO.C,R14*
X157971428Y-99685714D02*
X157685714Y-99885714D01*
X157971428Y-100028571D02*
X157371428Y-100028571D01*
X157371428Y-99800000D01*
X157400000Y-99742857D01*
X157428571Y-99714285D01*
X157485714Y-99685714D01*
X157571428Y-99685714D01*
X157628571Y-99714285D01*
X157657142Y-99742857D01*
X157685714Y-99800000D01*
X157685714Y-100028571D01*
X157971428Y-99114285D02*
X157971428Y-99457142D01*
X157971428Y-99285714D02*
X157371428Y-99285714D01*
X157457142Y-99342857D01*
X157514285Y-99400000D01*
X157542857Y-99457142D01*
X157571428Y-98600000D02*
X157971428Y-98600000D01*
X157342857Y-98742857D02*
X157771428Y-98885714D01*
X157771428Y-98514285D01*
G04 #@! TO.C,R15*
X170614285Y-105271428D02*
X170414285Y-104985714D01*
X170271428Y-105271428D02*
X170271428Y-104671428D01*
X170500000Y-104671428D01*
X170557142Y-104700000D01*
X170585714Y-104728571D01*
X170614285Y-104785714D01*
X170614285Y-104871428D01*
X170585714Y-104928571D01*
X170557142Y-104957142D01*
X170500000Y-104985714D01*
X170271428Y-104985714D01*
X171185714Y-105271428D02*
X170842857Y-105271428D01*
X171014285Y-105271428D02*
X171014285Y-104671428D01*
X170957142Y-104757142D01*
X170900000Y-104814285D01*
X170842857Y-104842857D01*
X171728571Y-104671428D02*
X171442857Y-104671428D01*
X171414285Y-104957142D01*
X171442857Y-104928571D01*
X171500000Y-104900000D01*
X171642857Y-104900000D01*
X171700000Y-104928571D01*
X171728571Y-104957142D01*
X171757142Y-105014285D01*
X171757142Y-105157142D01*
X171728571Y-105214285D01*
X171700000Y-105242857D01*
X171642857Y-105271428D01*
X171500000Y-105271428D01*
X171442857Y-105242857D01*
X171414285Y-105214285D01*
G04 #@! TO.C,R19*
X164114285Y-106371428D02*
X163914285Y-106085714D01*
X163771428Y-106371428D02*
X163771428Y-105771428D01*
X164000000Y-105771428D01*
X164057142Y-105800000D01*
X164085714Y-105828571D01*
X164114285Y-105885714D01*
X164114285Y-105971428D01*
X164085714Y-106028571D01*
X164057142Y-106057142D01*
X164000000Y-106085714D01*
X163771428Y-106085714D01*
X164685714Y-106371428D02*
X164342857Y-106371428D01*
X164514285Y-106371428D02*
X164514285Y-105771428D01*
X164457142Y-105857142D01*
X164400000Y-105914285D01*
X164342857Y-105942857D01*
X164971428Y-106371428D02*
X165085714Y-106371428D01*
X165142857Y-106342857D01*
X165171428Y-106314285D01*
X165228571Y-106228571D01*
X165257142Y-106114285D01*
X165257142Y-105885714D01*
X165228571Y-105828571D01*
X165200000Y-105800000D01*
X165142857Y-105771428D01*
X165028571Y-105771428D01*
X164971428Y-105800000D01*
X164942857Y-105828571D01*
X164914285Y-105885714D01*
X164914285Y-106028571D01*
X164942857Y-106085714D01*
X164971428Y-106114285D01*
X165028571Y-106142857D01*
X165142857Y-106142857D01*
X165200000Y-106114285D01*
X165228571Y-106085714D01*
X165257142Y-106028571D01*
G04 #@! TO.C,R18*
X160114285Y-105271428D02*
X159914285Y-104985714D01*
X159771428Y-105271428D02*
X159771428Y-104671428D01*
X160000000Y-104671428D01*
X160057142Y-104700000D01*
X160085714Y-104728571D01*
X160114285Y-104785714D01*
X160114285Y-104871428D01*
X160085714Y-104928571D01*
X160057142Y-104957142D01*
X160000000Y-104985714D01*
X159771428Y-104985714D01*
X160685714Y-105271428D02*
X160342857Y-105271428D01*
X160514285Y-105271428D02*
X160514285Y-104671428D01*
X160457142Y-104757142D01*
X160400000Y-104814285D01*
X160342857Y-104842857D01*
X161028571Y-104928571D02*
X160971428Y-104900000D01*
X160942857Y-104871428D01*
X160914285Y-104814285D01*
X160914285Y-104785714D01*
X160942857Y-104728571D01*
X160971428Y-104700000D01*
X161028571Y-104671428D01*
X161142857Y-104671428D01*
X161200000Y-104700000D01*
X161228571Y-104728571D01*
X161257142Y-104785714D01*
X161257142Y-104814285D01*
X161228571Y-104871428D01*
X161200000Y-104900000D01*
X161142857Y-104928571D01*
X161028571Y-104928571D01*
X160971428Y-104957142D01*
X160942857Y-104985714D01*
X160914285Y-105042857D01*
X160914285Y-105157142D01*
X160942857Y-105214285D01*
X160971428Y-105242857D01*
X161028571Y-105271428D01*
X161142857Y-105271428D01*
X161200000Y-105242857D01*
X161228571Y-105214285D01*
X161257142Y-105157142D01*
X161257142Y-105042857D01*
X161228571Y-104985714D01*
X161200000Y-104957142D01*
X161142857Y-104928571D01*
G04 #@! TO.C,R30*
X154914285Y-98971428D02*
X154714285Y-98685714D01*
X154571428Y-98971428D02*
X154571428Y-98371428D01*
X154800000Y-98371428D01*
X154857142Y-98400000D01*
X154885714Y-98428571D01*
X154914285Y-98485714D01*
X154914285Y-98571428D01*
X154885714Y-98628571D01*
X154857142Y-98657142D01*
X154800000Y-98685714D01*
X154571428Y-98685714D01*
X155114285Y-98371428D02*
X155485714Y-98371428D01*
X155285714Y-98600000D01*
X155371428Y-98600000D01*
X155428571Y-98628571D01*
X155457142Y-98657142D01*
X155485714Y-98714285D01*
X155485714Y-98857142D01*
X155457142Y-98914285D01*
X155428571Y-98942857D01*
X155371428Y-98971428D01*
X155200000Y-98971428D01*
X155142857Y-98942857D01*
X155114285Y-98914285D01*
X155857142Y-98371428D02*
X155914285Y-98371428D01*
X155971428Y-98400000D01*
X156000000Y-98428571D01*
X156028571Y-98485714D01*
X156057142Y-98600000D01*
X156057142Y-98742857D01*
X156028571Y-98857142D01*
X156000000Y-98914285D01*
X155971428Y-98942857D01*
X155914285Y-98971428D01*
X155857142Y-98971428D01*
X155800000Y-98942857D01*
X155771428Y-98914285D01*
X155742857Y-98857142D01*
X155714285Y-98742857D01*
X155714285Y-98600000D01*
X155742857Y-98485714D01*
X155771428Y-98428571D01*
X155800000Y-98400000D01*
X155857142Y-98371428D01*
G04 #@! TO.C,R7*
X111200000Y-104771428D02*
X111000000Y-104485714D01*
X110857142Y-104771428D02*
X110857142Y-104171428D01*
X111085714Y-104171428D01*
X111142857Y-104200000D01*
X111171428Y-104228571D01*
X111200000Y-104285714D01*
X111200000Y-104371428D01*
X111171428Y-104428571D01*
X111142857Y-104457142D01*
X111085714Y-104485714D01*
X110857142Y-104485714D01*
X111400000Y-104171428D02*
X111800000Y-104171428D01*
X111542857Y-104771428D01*
G04 #@! TO.C,FB26*
X131914285Y-95157142D02*
X131714285Y-95157142D01*
X131714285Y-95471428D02*
X131714285Y-94871428D01*
X132000000Y-94871428D01*
X132428571Y-95157142D02*
X132514285Y-95185714D01*
X132542857Y-95214285D01*
X132571428Y-95271428D01*
X132571428Y-95357142D01*
X132542857Y-95414285D01*
X132514285Y-95442857D01*
X132457142Y-95471428D01*
X132228571Y-95471428D01*
X132228571Y-94871428D01*
X132428571Y-94871428D01*
X132485714Y-94900000D01*
X132514285Y-94928571D01*
X132542857Y-94985714D01*
X132542857Y-95042857D01*
X132514285Y-95100000D01*
X132485714Y-95128571D01*
X132428571Y-95157142D01*
X132228571Y-95157142D01*
X132800000Y-94928571D02*
X132828571Y-94900000D01*
X132885714Y-94871428D01*
X133028571Y-94871428D01*
X133085714Y-94900000D01*
X133114285Y-94928571D01*
X133142857Y-94985714D01*
X133142857Y-95042857D01*
X133114285Y-95128571D01*
X132771428Y-95471428D01*
X133142857Y-95471428D01*
X133657142Y-94871428D02*
X133542857Y-94871428D01*
X133485714Y-94900000D01*
X133457142Y-94928571D01*
X133400000Y-95014285D01*
X133371428Y-95128571D01*
X133371428Y-95357142D01*
X133400000Y-95414285D01*
X133428571Y-95442857D01*
X133485714Y-95471428D01*
X133600000Y-95471428D01*
X133657142Y-95442857D01*
X133685714Y-95414285D01*
X133714285Y-95357142D01*
X133714285Y-95214285D01*
X133685714Y-95157142D01*
X133657142Y-95128571D01*
X133600000Y-95100000D01*
X133485714Y-95100000D01*
X133428571Y-95128571D01*
X133400000Y-95157142D01*
X133371428Y-95214285D01*
G04 #@! TO.C,R1*
X178951428Y-94600000D02*
X178665714Y-94800000D01*
X178951428Y-94942857D02*
X178351428Y-94942857D01*
X178351428Y-94714285D01*
X178380000Y-94657142D01*
X178408571Y-94628571D01*
X178465714Y-94600000D01*
X178551428Y-94600000D01*
X178608571Y-94628571D01*
X178637142Y-94657142D01*
X178665714Y-94714285D01*
X178665714Y-94942857D01*
X178951428Y-94028571D02*
X178951428Y-94371428D01*
X178951428Y-94200000D02*
X178351428Y-94200000D01*
X178437142Y-94257142D01*
X178494285Y-94314285D01*
X178522857Y-94371428D01*
G04 #@! TO.C,R8*
X122900000Y-105271428D02*
X122700000Y-104985714D01*
X122557142Y-105271428D02*
X122557142Y-104671428D01*
X122785714Y-104671428D01*
X122842857Y-104700000D01*
X122871428Y-104728571D01*
X122900000Y-104785714D01*
X122900000Y-104871428D01*
X122871428Y-104928571D01*
X122842857Y-104957142D01*
X122785714Y-104985714D01*
X122557142Y-104985714D01*
X123242857Y-104928571D02*
X123185714Y-104900000D01*
X123157142Y-104871428D01*
X123128571Y-104814285D01*
X123128571Y-104785714D01*
X123157142Y-104728571D01*
X123185714Y-104700000D01*
X123242857Y-104671428D01*
X123357142Y-104671428D01*
X123414285Y-104700000D01*
X123442857Y-104728571D01*
X123471428Y-104785714D01*
X123471428Y-104814285D01*
X123442857Y-104871428D01*
X123414285Y-104900000D01*
X123357142Y-104928571D01*
X123242857Y-104928571D01*
X123185714Y-104957142D01*
X123157142Y-104985714D01*
X123128571Y-105042857D01*
X123128571Y-105157142D01*
X123157142Y-105214285D01*
X123185714Y-105242857D01*
X123242857Y-105271428D01*
X123357142Y-105271428D01*
X123414285Y-105242857D01*
X123442857Y-105214285D01*
X123471428Y-105157142D01*
X123471428Y-105042857D01*
X123442857Y-104985714D01*
X123414285Y-104957142D01*
X123357142Y-104928571D01*
G04 #@! TO.C,R11*
X124514285Y-105271428D02*
X124314285Y-104985714D01*
X124171428Y-105271428D02*
X124171428Y-104671428D01*
X124400000Y-104671428D01*
X124457142Y-104700000D01*
X124485714Y-104728571D01*
X124514285Y-104785714D01*
X124514285Y-104871428D01*
X124485714Y-104928571D01*
X124457142Y-104957142D01*
X124400000Y-104985714D01*
X124171428Y-104985714D01*
X125085714Y-105271428D02*
X124742857Y-105271428D01*
X124914285Y-105271428D02*
X124914285Y-104671428D01*
X124857142Y-104757142D01*
X124800000Y-104814285D01*
X124742857Y-104842857D01*
X125657142Y-105271428D02*
X125314285Y-105271428D01*
X125485714Y-105271428D02*
X125485714Y-104671428D01*
X125428571Y-104757142D01*
X125371428Y-104814285D01*
X125314285Y-104842857D01*
G04 #@! TO.C,R13*
X126614285Y-105271428D02*
X126414285Y-104985714D01*
X126271428Y-105271428D02*
X126271428Y-104671428D01*
X126500000Y-104671428D01*
X126557142Y-104700000D01*
X126585714Y-104728571D01*
X126614285Y-104785714D01*
X126614285Y-104871428D01*
X126585714Y-104928571D01*
X126557142Y-104957142D01*
X126500000Y-104985714D01*
X126271428Y-104985714D01*
X127185714Y-105271428D02*
X126842857Y-105271428D01*
X127014285Y-105271428D02*
X127014285Y-104671428D01*
X126957142Y-104757142D01*
X126900000Y-104814285D01*
X126842857Y-104842857D01*
X127385714Y-104671428D02*
X127757142Y-104671428D01*
X127557142Y-104900000D01*
X127642857Y-104900000D01*
X127700000Y-104928571D01*
X127728571Y-104957142D01*
X127757142Y-105014285D01*
X127757142Y-105157142D01*
X127728571Y-105214285D01*
X127700000Y-105242857D01*
X127642857Y-105271428D01*
X127471428Y-105271428D01*
X127414285Y-105242857D01*
X127385714Y-105214285D01*
G04 #@! TO.C,R12*
X124514285Y-106271428D02*
X124314285Y-105985714D01*
X124171428Y-106271428D02*
X124171428Y-105671428D01*
X124400000Y-105671428D01*
X124457142Y-105700000D01*
X124485714Y-105728571D01*
X124514285Y-105785714D01*
X124514285Y-105871428D01*
X124485714Y-105928571D01*
X124457142Y-105957142D01*
X124400000Y-105985714D01*
X124171428Y-105985714D01*
X125085714Y-106271428D02*
X124742857Y-106271428D01*
X124914285Y-106271428D02*
X124914285Y-105671428D01*
X124857142Y-105757142D01*
X124800000Y-105814285D01*
X124742857Y-105842857D01*
X125314285Y-105728571D02*
X125342857Y-105700000D01*
X125400000Y-105671428D01*
X125542857Y-105671428D01*
X125600000Y-105700000D01*
X125628571Y-105728571D01*
X125657142Y-105785714D01*
X125657142Y-105842857D01*
X125628571Y-105928571D01*
X125285714Y-106271428D01*
X125657142Y-106271428D01*
G04 #@! TO.C,C94*
X136214285Y-66185714D02*
X136242857Y-66214285D01*
X136271428Y-66300000D01*
X136271428Y-66357142D01*
X136242857Y-66442857D01*
X136185714Y-66500000D01*
X136128571Y-66528571D01*
X136014285Y-66557142D01*
X135928571Y-66557142D01*
X135814285Y-66528571D01*
X135757142Y-66500000D01*
X135700000Y-66442857D01*
X135671428Y-66357142D01*
X135671428Y-66300000D01*
X135700000Y-66214285D01*
X135728571Y-66185714D01*
X136271428Y-65900000D02*
X136271428Y-65785714D01*
X136242857Y-65728571D01*
X136214285Y-65700000D01*
X136128571Y-65642857D01*
X136014285Y-65614285D01*
X135785714Y-65614285D01*
X135728571Y-65642857D01*
X135700000Y-65671428D01*
X135671428Y-65728571D01*
X135671428Y-65842857D01*
X135700000Y-65900000D01*
X135728571Y-65928571D01*
X135785714Y-65957142D01*
X135928571Y-65957142D01*
X135985714Y-65928571D01*
X136014285Y-65900000D01*
X136042857Y-65842857D01*
X136042857Y-65728571D01*
X136014285Y-65671428D01*
X135985714Y-65642857D01*
X135928571Y-65614285D01*
X135871428Y-65100000D02*
X136271428Y-65100000D01*
X135642857Y-65242857D02*
X136071428Y-65385714D01*
X136071428Y-65014285D01*
G04 #@! TO.C,C93*
X138664285Y-76114285D02*
X138635714Y-76142857D01*
X138550000Y-76171428D01*
X138492857Y-76171428D01*
X138407142Y-76142857D01*
X138350000Y-76085714D01*
X138321428Y-76028571D01*
X138292857Y-75914285D01*
X138292857Y-75828571D01*
X138321428Y-75714285D01*
X138350000Y-75657142D01*
X138407142Y-75600000D01*
X138492857Y-75571428D01*
X138550000Y-75571428D01*
X138635714Y-75600000D01*
X138664285Y-75628571D01*
X138950000Y-76171428D02*
X139064285Y-76171428D01*
X139121428Y-76142857D01*
X139150000Y-76114285D01*
X139207142Y-76028571D01*
X139235714Y-75914285D01*
X139235714Y-75685714D01*
X139207142Y-75628571D01*
X139178571Y-75600000D01*
X139121428Y-75571428D01*
X139007142Y-75571428D01*
X138950000Y-75600000D01*
X138921428Y-75628571D01*
X138892857Y-75685714D01*
X138892857Y-75828571D01*
X138921428Y-75885714D01*
X138950000Y-75914285D01*
X139007142Y-75942857D01*
X139121428Y-75942857D01*
X139178571Y-75914285D01*
X139207142Y-75885714D01*
X139235714Y-75828571D01*
X139435714Y-75571428D02*
X139807142Y-75571428D01*
X139607142Y-75800000D01*
X139692857Y-75800000D01*
X139750000Y-75828571D01*
X139778571Y-75857142D01*
X139807142Y-75914285D01*
X139807142Y-76057142D01*
X139778571Y-76114285D01*
X139750000Y-76142857D01*
X139692857Y-76171428D01*
X139521428Y-76171428D01*
X139464285Y-76142857D01*
X139435714Y-76114285D01*
G04 #@! TO.C,C92*
X149014285Y-74985714D02*
X149042857Y-75014285D01*
X149071428Y-75100000D01*
X149071428Y-75157142D01*
X149042857Y-75242857D01*
X148985714Y-75300000D01*
X148928571Y-75328571D01*
X148814285Y-75357142D01*
X148728571Y-75357142D01*
X148614285Y-75328571D01*
X148557142Y-75300000D01*
X148500000Y-75242857D01*
X148471428Y-75157142D01*
X148471428Y-75100000D01*
X148500000Y-75014285D01*
X148528571Y-74985714D01*
X149071428Y-74700000D02*
X149071428Y-74585714D01*
X149042857Y-74528571D01*
X149014285Y-74500000D01*
X148928571Y-74442857D01*
X148814285Y-74414285D01*
X148585714Y-74414285D01*
X148528571Y-74442857D01*
X148500000Y-74471428D01*
X148471428Y-74528571D01*
X148471428Y-74642857D01*
X148500000Y-74700000D01*
X148528571Y-74728571D01*
X148585714Y-74757142D01*
X148728571Y-74757142D01*
X148785714Y-74728571D01*
X148814285Y-74700000D01*
X148842857Y-74642857D01*
X148842857Y-74528571D01*
X148814285Y-74471428D01*
X148785714Y-74442857D01*
X148728571Y-74414285D01*
X148528571Y-74185714D02*
X148500000Y-74157142D01*
X148471428Y-74100000D01*
X148471428Y-73957142D01*
X148500000Y-73900000D01*
X148528571Y-73871428D01*
X148585714Y-73842857D01*
X148642857Y-73842857D01*
X148728571Y-73871428D01*
X149071428Y-74214285D01*
X149071428Y-73842857D01*
G04 #@! TO.C,C91*
X95014285Y-98314285D02*
X94985714Y-98342857D01*
X94900000Y-98371428D01*
X94842857Y-98371428D01*
X94757142Y-98342857D01*
X94700000Y-98285714D01*
X94671428Y-98228571D01*
X94642857Y-98114285D01*
X94642857Y-98028571D01*
X94671428Y-97914285D01*
X94700000Y-97857142D01*
X94757142Y-97800000D01*
X94842857Y-97771428D01*
X94900000Y-97771428D01*
X94985714Y-97800000D01*
X95014285Y-97828571D01*
X95300000Y-98371428D02*
X95414285Y-98371428D01*
X95471428Y-98342857D01*
X95500000Y-98314285D01*
X95557142Y-98228571D01*
X95585714Y-98114285D01*
X95585714Y-97885714D01*
X95557142Y-97828571D01*
X95528571Y-97800000D01*
X95471428Y-97771428D01*
X95357142Y-97771428D01*
X95300000Y-97800000D01*
X95271428Y-97828571D01*
X95242857Y-97885714D01*
X95242857Y-98028571D01*
X95271428Y-98085714D01*
X95300000Y-98114285D01*
X95357142Y-98142857D01*
X95471428Y-98142857D01*
X95528571Y-98114285D01*
X95557142Y-98085714D01*
X95585714Y-98028571D01*
X96157142Y-98371428D02*
X95814285Y-98371428D01*
X95985714Y-98371428D02*
X95985714Y-97771428D01*
X95928571Y-97857142D01*
X95871428Y-97914285D01*
X95814285Y-97942857D01*
G04 #@! TO.C,C90*
X97707496Y-97985714D02*
X97736068Y-98014285D01*
X97764639Y-98100000D01*
X97764639Y-98157142D01*
X97736068Y-98242857D01*
X97678925Y-98300000D01*
X97621782Y-98328571D01*
X97507496Y-98357142D01*
X97421782Y-98357142D01*
X97307496Y-98328571D01*
X97250353Y-98300000D01*
X97193211Y-98242857D01*
X97164639Y-98157142D01*
X97164639Y-98100000D01*
X97193211Y-98014285D01*
X97221782Y-97985714D01*
X97764639Y-97700000D02*
X97764639Y-97585714D01*
X97736068Y-97528571D01*
X97707496Y-97500000D01*
X97621782Y-97442857D01*
X97507496Y-97414285D01*
X97278925Y-97414285D01*
X97221782Y-97442857D01*
X97193211Y-97471428D01*
X97164639Y-97528571D01*
X97164639Y-97642857D01*
X97193211Y-97700000D01*
X97221782Y-97728571D01*
X97278925Y-97757142D01*
X97421782Y-97757142D01*
X97478925Y-97728571D01*
X97507496Y-97700000D01*
X97536068Y-97642857D01*
X97536068Y-97528571D01*
X97507496Y-97471428D01*
X97478925Y-97442857D01*
X97421782Y-97414285D01*
X97164639Y-97042857D02*
X97164639Y-96985714D01*
X97193211Y-96928571D01*
X97221782Y-96900000D01*
X97278925Y-96871428D01*
X97393211Y-96842857D01*
X97536068Y-96842857D01*
X97650353Y-96871428D01*
X97707496Y-96900000D01*
X97736068Y-96928571D01*
X97764639Y-96985714D01*
X97764639Y-97042857D01*
X97736068Y-97100000D01*
X97707496Y-97128571D01*
X97650353Y-97157142D01*
X97536068Y-97185714D01*
X97393211Y-97185714D01*
X97278925Y-97157142D01*
X97221782Y-97128571D01*
X97193211Y-97100000D01*
X97164639Y-97042857D01*
G04 #@! TO.C,C89*
X97714285Y-91915220D02*
X97742857Y-91943791D01*
X97771428Y-92029506D01*
X97771428Y-92086648D01*
X97742857Y-92172363D01*
X97685714Y-92229506D01*
X97628571Y-92258077D01*
X97514285Y-92286648D01*
X97428571Y-92286648D01*
X97314285Y-92258077D01*
X97257142Y-92229506D01*
X97200000Y-92172363D01*
X97171428Y-92086648D01*
X97171428Y-92029506D01*
X97200000Y-91943791D01*
X97228571Y-91915220D01*
X97428571Y-91572363D02*
X97400000Y-91629506D01*
X97371428Y-91658077D01*
X97314285Y-91686648D01*
X97285714Y-91686648D01*
X97228571Y-91658077D01*
X97200000Y-91629506D01*
X97171428Y-91572363D01*
X97171428Y-91458077D01*
X97200000Y-91400934D01*
X97228571Y-91372363D01*
X97285714Y-91343791D01*
X97314285Y-91343791D01*
X97371428Y-91372363D01*
X97400000Y-91400934D01*
X97428571Y-91458077D01*
X97428571Y-91572363D01*
X97457142Y-91629506D01*
X97485714Y-91658077D01*
X97542857Y-91686648D01*
X97657142Y-91686648D01*
X97714285Y-91658077D01*
X97742857Y-91629506D01*
X97771428Y-91572363D01*
X97771428Y-91458077D01*
X97742857Y-91400934D01*
X97714285Y-91372363D01*
X97657142Y-91343791D01*
X97542857Y-91343791D01*
X97485714Y-91372363D01*
X97457142Y-91400934D01*
X97428571Y-91458077D01*
X97771428Y-91058077D02*
X97771428Y-90943791D01*
X97742857Y-90886648D01*
X97714285Y-90858077D01*
X97628571Y-90800934D01*
X97514285Y-90772363D01*
X97285714Y-90772363D01*
X97228571Y-90800934D01*
X97200000Y-90829506D01*
X97171428Y-90886648D01*
X97171428Y-91000934D01*
X97200000Y-91058077D01*
X97228571Y-91086648D01*
X97285714Y-91115220D01*
X97428571Y-91115220D01*
X97485714Y-91086648D01*
X97514285Y-91058077D01*
X97542857Y-91000934D01*
X97542857Y-90886648D01*
X97514285Y-90829506D01*
X97485714Y-90800934D01*
X97428571Y-90772363D01*
G04 #@! TO.C,C88*
X92814285Y-97885714D02*
X92842857Y-97914285D01*
X92871428Y-98000000D01*
X92871428Y-98057142D01*
X92842857Y-98142857D01*
X92785714Y-98200000D01*
X92728571Y-98228571D01*
X92614285Y-98257142D01*
X92528571Y-98257142D01*
X92414285Y-98228571D01*
X92357142Y-98200000D01*
X92300000Y-98142857D01*
X92271428Y-98057142D01*
X92271428Y-98000000D01*
X92300000Y-97914285D01*
X92328571Y-97885714D01*
X92528571Y-97542857D02*
X92500000Y-97600000D01*
X92471428Y-97628571D01*
X92414285Y-97657142D01*
X92385714Y-97657142D01*
X92328571Y-97628571D01*
X92300000Y-97600000D01*
X92271428Y-97542857D01*
X92271428Y-97428571D01*
X92300000Y-97371428D01*
X92328571Y-97342857D01*
X92385714Y-97314285D01*
X92414285Y-97314285D01*
X92471428Y-97342857D01*
X92500000Y-97371428D01*
X92528571Y-97428571D01*
X92528571Y-97542857D01*
X92557142Y-97600000D01*
X92585714Y-97628571D01*
X92642857Y-97657142D01*
X92757142Y-97657142D01*
X92814285Y-97628571D01*
X92842857Y-97600000D01*
X92871428Y-97542857D01*
X92871428Y-97428571D01*
X92842857Y-97371428D01*
X92814285Y-97342857D01*
X92757142Y-97314285D01*
X92642857Y-97314285D01*
X92585714Y-97342857D01*
X92557142Y-97371428D01*
X92528571Y-97428571D01*
X92528571Y-96971428D02*
X92500000Y-97028571D01*
X92471428Y-97057142D01*
X92414285Y-97085714D01*
X92385714Y-97085714D01*
X92328571Y-97057142D01*
X92300000Y-97028571D01*
X92271428Y-96971428D01*
X92271428Y-96857142D01*
X92300000Y-96800000D01*
X92328571Y-96771428D01*
X92385714Y-96742857D01*
X92414285Y-96742857D01*
X92471428Y-96771428D01*
X92500000Y-96800000D01*
X92528571Y-96857142D01*
X92528571Y-96971428D01*
X92557142Y-97028571D01*
X92585714Y-97057142D01*
X92642857Y-97085714D01*
X92757142Y-97085714D01*
X92814285Y-97057142D01*
X92842857Y-97028571D01*
X92871428Y-96971428D01*
X92871428Y-96857142D01*
X92842857Y-96800000D01*
X92814285Y-96771428D01*
X92757142Y-96742857D01*
X92642857Y-96742857D01*
X92585714Y-96771428D01*
X92557142Y-96800000D01*
X92528571Y-96857142D01*
G04 #@! TO.C,C87*
X89914285Y-79414285D02*
X89885714Y-79442857D01*
X89800000Y-79471428D01*
X89742857Y-79471428D01*
X89657142Y-79442857D01*
X89600000Y-79385714D01*
X89571428Y-79328571D01*
X89542857Y-79214285D01*
X89542857Y-79128571D01*
X89571428Y-79014285D01*
X89600000Y-78957142D01*
X89657142Y-78900000D01*
X89742857Y-78871428D01*
X89800000Y-78871428D01*
X89885714Y-78900000D01*
X89914285Y-78928571D01*
X90257142Y-79128571D02*
X90200000Y-79100000D01*
X90171428Y-79071428D01*
X90142857Y-79014285D01*
X90142857Y-78985714D01*
X90171428Y-78928571D01*
X90200000Y-78900000D01*
X90257142Y-78871428D01*
X90371428Y-78871428D01*
X90428571Y-78900000D01*
X90457142Y-78928571D01*
X90485714Y-78985714D01*
X90485714Y-79014285D01*
X90457142Y-79071428D01*
X90428571Y-79100000D01*
X90371428Y-79128571D01*
X90257142Y-79128571D01*
X90200000Y-79157142D01*
X90171428Y-79185714D01*
X90142857Y-79242857D01*
X90142857Y-79357142D01*
X90171428Y-79414285D01*
X90200000Y-79442857D01*
X90257142Y-79471428D01*
X90371428Y-79471428D01*
X90428571Y-79442857D01*
X90457142Y-79414285D01*
X90485714Y-79357142D01*
X90485714Y-79242857D01*
X90457142Y-79185714D01*
X90428571Y-79157142D01*
X90371428Y-79128571D01*
X90685714Y-78871428D02*
X91085714Y-78871428D01*
X90828571Y-79471428D01*
G04 #@! TO.C,C86*
X96514285Y-79414285D02*
X96485714Y-79442857D01*
X96400000Y-79471428D01*
X96342857Y-79471428D01*
X96257142Y-79442857D01*
X96200000Y-79385714D01*
X96171428Y-79328571D01*
X96142857Y-79214285D01*
X96142857Y-79128571D01*
X96171428Y-79014285D01*
X96200000Y-78957142D01*
X96257142Y-78900000D01*
X96342857Y-78871428D01*
X96400000Y-78871428D01*
X96485714Y-78900000D01*
X96514285Y-78928571D01*
X96857142Y-79128571D02*
X96800000Y-79100000D01*
X96771428Y-79071428D01*
X96742857Y-79014285D01*
X96742857Y-78985714D01*
X96771428Y-78928571D01*
X96800000Y-78900000D01*
X96857142Y-78871428D01*
X96971428Y-78871428D01*
X97028571Y-78900000D01*
X97057142Y-78928571D01*
X97085714Y-78985714D01*
X97085714Y-79014285D01*
X97057142Y-79071428D01*
X97028571Y-79100000D01*
X96971428Y-79128571D01*
X96857142Y-79128571D01*
X96800000Y-79157142D01*
X96771428Y-79185714D01*
X96742857Y-79242857D01*
X96742857Y-79357142D01*
X96771428Y-79414285D01*
X96800000Y-79442857D01*
X96857142Y-79471428D01*
X96971428Y-79471428D01*
X97028571Y-79442857D01*
X97057142Y-79414285D01*
X97085714Y-79357142D01*
X97085714Y-79242857D01*
X97057142Y-79185714D01*
X97028571Y-79157142D01*
X96971428Y-79128571D01*
X97600000Y-78871428D02*
X97485714Y-78871428D01*
X97428571Y-78900000D01*
X97400000Y-78928571D01*
X97342857Y-79014285D01*
X97314285Y-79128571D01*
X97314285Y-79357142D01*
X97342857Y-79414285D01*
X97371428Y-79442857D01*
X97428571Y-79471428D01*
X97542857Y-79471428D01*
X97600000Y-79442857D01*
X97628571Y-79414285D01*
X97657142Y-79357142D01*
X97657142Y-79214285D01*
X97628571Y-79157142D01*
X97600000Y-79128571D01*
X97542857Y-79100000D01*
X97428571Y-79100000D01*
X97371428Y-79128571D01*
X97342857Y-79157142D01*
X97314285Y-79214285D01*
G04 #@! TO.C,C78*
X146614285Y-79814285D02*
X146585714Y-79842857D01*
X146500000Y-79871428D01*
X146442857Y-79871428D01*
X146357142Y-79842857D01*
X146300000Y-79785714D01*
X146271428Y-79728571D01*
X146242857Y-79614285D01*
X146242857Y-79528571D01*
X146271428Y-79414285D01*
X146300000Y-79357142D01*
X146357142Y-79300000D01*
X146442857Y-79271428D01*
X146500000Y-79271428D01*
X146585714Y-79300000D01*
X146614285Y-79328571D01*
X146814285Y-79271428D02*
X147214285Y-79271428D01*
X146957142Y-79871428D01*
X147528571Y-79528571D02*
X147471428Y-79500000D01*
X147442857Y-79471428D01*
X147414285Y-79414285D01*
X147414285Y-79385714D01*
X147442857Y-79328571D01*
X147471428Y-79300000D01*
X147528571Y-79271428D01*
X147642857Y-79271428D01*
X147700000Y-79300000D01*
X147728571Y-79328571D01*
X147757142Y-79385714D01*
X147757142Y-79414285D01*
X147728571Y-79471428D01*
X147700000Y-79500000D01*
X147642857Y-79528571D01*
X147528571Y-79528571D01*
X147471428Y-79557142D01*
X147442857Y-79585714D01*
X147414285Y-79642857D01*
X147414285Y-79757142D01*
X147442857Y-79814285D01*
X147471428Y-79842857D01*
X147528571Y-79871428D01*
X147642857Y-79871428D01*
X147700000Y-79842857D01*
X147728571Y-79814285D01*
X147757142Y-79757142D01*
X147757142Y-79642857D01*
X147728571Y-79585714D01*
X147700000Y-79557142D01*
X147642857Y-79528571D01*
G04 #@! TO.C,C85*
X144214285Y-79814285D02*
X144185714Y-79842857D01*
X144100000Y-79871428D01*
X144042857Y-79871428D01*
X143957142Y-79842857D01*
X143900000Y-79785714D01*
X143871428Y-79728571D01*
X143842857Y-79614285D01*
X143842857Y-79528571D01*
X143871428Y-79414285D01*
X143900000Y-79357142D01*
X143957142Y-79300000D01*
X144042857Y-79271428D01*
X144100000Y-79271428D01*
X144185714Y-79300000D01*
X144214285Y-79328571D01*
X144557142Y-79528571D02*
X144500000Y-79500000D01*
X144471428Y-79471428D01*
X144442857Y-79414285D01*
X144442857Y-79385714D01*
X144471428Y-79328571D01*
X144500000Y-79300000D01*
X144557142Y-79271428D01*
X144671428Y-79271428D01*
X144728571Y-79300000D01*
X144757142Y-79328571D01*
X144785714Y-79385714D01*
X144785714Y-79414285D01*
X144757142Y-79471428D01*
X144728571Y-79500000D01*
X144671428Y-79528571D01*
X144557142Y-79528571D01*
X144500000Y-79557142D01*
X144471428Y-79585714D01*
X144442857Y-79642857D01*
X144442857Y-79757142D01*
X144471428Y-79814285D01*
X144500000Y-79842857D01*
X144557142Y-79871428D01*
X144671428Y-79871428D01*
X144728571Y-79842857D01*
X144757142Y-79814285D01*
X144785714Y-79757142D01*
X144785714Y-79642857D01*
X144757142Y-79585714D01*
X144728571Y-79557142D01*
X144671428Y-79528571D01*
X145328571Y-79271428D02*
X145042857Y-79271428D01*
X145014285Y-79557142D01*
X145042857Y-79528571D01*
X145100000Y-79500000D01*
X145242857Y-79500000D01*
X145300000Y-79528571D01*
X145328571Y-79557142D01*
X145357142Y-79614285D01*
X145357142Y-79757142D01*
X145328571Y-79814285D01*
X145300000Y-79842857D01*
X145242857Y-79871428D01*
X145100000Y-79871428D01*
X145042857Y-79842857D01*
X145014285Y-79814285D01*
G04 #@! TO.C,C2*
X116914285Y-99600000D02*
X116942857Y-99628571D01*
X116971428Y-99714285D01*
X116971428Y-99771428D01*
X116942857Y-99857142D01*
X116885714Y-99914285D01*
X116828571Y-99942857D01*
X116714285Y-99971428D01*
X116628571Y-99971428D01*
X116514285Y-99942857D01*
X116457142Y-99914285D01*
X116400000Y-99857142D01*
X116371428Y-99771428D01*
X116371428Y-99714285D01*
X116400000Y-99628571D01*
X116428571Y-99600000D01*
X116428571Y-99371428D02*
X116400000Y-99342857D01*
X116371428Y-99285714D01*
X116371428Y-99142857D01*
X116400000Y-99085714D01*
X116428571Y-99057142D01*
X116485714Y-99028571D01*
X116542857Y-99028571D01*
X116628571Y-99057142D01*
X116971428Y-99400000D01*
X116971428Y-99028571D01*
G04 #@! TO.C,C6*
X115714285Y-99600000D02*
X115742857Y-99628571D01*
X115771428Y-99714285D01*
X115771428Y-99771428D01*
X115742857Y-99857142D01*
X115685714Y-99914285D01*
X115628571Y-99942857D01*
X115514285Y-99971428D01*
X115428571Y-99971428D01*
X115314285Y-99942857D01*
X115257142Y-99914285D01*
X115200000Y-99857142D01*
X115171428Y-99771428D01*
X115171428Y-99714285D01*
X115200000Y-99628571D01*
X115228571Y-99600000D01*
X115171428Y-99085714D02*
X115171428Y-99200000D01*
X115200000Y-99257142D01*
X115228571Y-99285714D01*
X115314285Y-99342857D01*
X115428571Y-99371428D01*
X115657142Y-99371428D01*
X115714285Y-99342857D01*
X115742857Y-99314285D01*
X115771428Y-99257142D01*
X115771428Y-99142857D01*
X115742857Y-99085714D01*
X115714285Y-99057142D01*
X115657142Y-99028571D01*
X115514285Y-99028571D01*
X115457142Y-99057142D01*
X115428571Y-99085714D01*
X115400000Y-99142857D01*
X115400000Y-99257142D01*
X115428571Y-99314285D01*
X115457142Y-99342857D01*
X115514285Y-99371428D01*
G04 #@! TO.C,C13*
X106114285Y-100185714D02*
X106142857Y-100214285D01*
X106171428Y-100300000D01*
X106171428Y-100357142D01*
X106142857Y-100442857D01*
X106085714Y-100500000D01*
X106028571Y-100528571D01*
X105914285Y-100557142D01*
X105828571Y-100557142D01*
X105714285Y-100528571D01*
X105657142Y-100500000D01*
X105600000Y-100442857D01*
X105571428Y-100357142D01*
X105571428Y-100300000D01*
X105600000Y-100214285D01*
X105628571Y-100185714D01*
X106171428Y-99614285D02*
X106171428Y-99957142D01*
X106171428Y-99785714D02*
X105571428Y-99785714D01*
X105657142Y-99842857D01*
X105714285Y-99900000D01*
X105742857Y-99957142D01*
X105571428Y-99414285D02*
X105571428Y-99042857D01*
X105800000Y-99242857D01*
X105800000Y-99157142D01*
X105828571Y-99100000D01*
X105857142Y-99071428D01*
X105914285Y-99042857D01*
X106057142Y-99042857D01*
X106114285Y-99071428D01*
X106142857Y-99100000D01*
X106171428Y-99157142D01*
X106171428Y-99328571D01*
X106142857Y-99385714D01*
X106114285Y-99414285D01*
G04 #@! TO.C,C14*
X112114285Y-100185714D02*
X112142857Y-100214285D01*
X112171428Y-100300000D01*
X112171428Y-100357142D01*
X112142857Y-100442857D01*
X112085714Y-100500000D01*
X112028571Y-100528571D01*
X111914285Y-100557142D01*
X111828571Y-100557142D01*
X111714285Y-100528571D01*
X111657142Y-100500000D01*
X111600000Y-100442857D01*
X111571428Y-100357142D01*
X111571428Y-100300000D01*
X111600000Y-100214285D01*
X111628571Y-100185714D01*
X112171428Y-99614285D02*
X112171428Y-99957142D01*
X112171428Y-99785714D02*
X111571428Y-99785714D01*
X111657142Y-99842857D01*
X111714285Y-99900000D01*
X111742857Y-99957142D01*
X111771428Y-99100000D02*
X112171428Y-99100000D01*
X111542857Y-99242857D02*
X111971428Y-99385714D01*
X111971428Y-99014285D01*
G04 #@! TO.C,C41*
X110914285Y-100185714D02*
X110942857Y-100214285D01*
X110971428Y-100300000D01*
X110971428Y-100357142D01*
X110942857Y-100442857D01*
X110885714Y-100500000D01*
X110828571Y-100528571D01*
X110714285Y-100557142D01*
X110628571Y-100557142D01*
X110514285Y-100528571D01*
X110457142Y-100500000D01*
X110400000Y-100442857D01*
X110371428Y-100357142D01*
X110371428Y-100300000D01*
X110400000Y-100214285D01*
X110428571Y-100185714D01*
X110571428Y-99671428D02*
X110971428Y-99671428D01*
X110342857Y-99814285D02*
X110771428Y-99957142D01*
X110771428Y-99585714D01*
X110971428Y-99042857D02*
X110971428Y-99385714D01*
X110971428Y-99214285D02*
X110371428Y-99214285D01*
X110457142Y-99271428D01*
X110514285Y-99328571D01*
X110542857Y-99385714D01*
G04 #@! TO.C,C22*
X107314285Y-100185714D02*
X107342857Y-100214285D01*
X107371428Y-100300000D01*
X107371428Y-100357142D01*
X107342857Y-100442857D01*
X107285714Y-100500000D01*
X107228571Y-100528571D01*
X107114285Y-100557142D01*
X107028571Y-100557142D01*
X106914285Y-100528571D01*
X106857142Y-100500000D01*
X106800000Y-100442857D01*
X106771428Y-100357142D01*
X106771428Y-100300000D01*
X106800000Y-100214285D01*
X106828571Y-100185714D01*
X106828571Y-99957142D02*
X106800000Y-99928571D01*
X106771428Y-99871428D01*
X106771428Y-99728571D01*
X106800000Y-99671428D01*
X106828571Y-99642857D01*
X106885714Y-99614285D01*
X106942857Y-99614285D01*
X107028571Y-99642857D01*
X107371428Y-99985714D01*
X107371428Y-99614285D01*
X106828571Y-99385714D02*
X106800000Y-99357142D01*
X106771428Y-99300000D01*
X106771428Y-99157142D01*
X106800000Y-99100000D01*
X106828571Y-99071428D01*
X106885714Y-99042857D01*
X106942857Y-99042857D01*
X107028571Y-99071428D01*
X107371428Y-99414285D01*
X107371428Y-99042857D01*
G04 #@! TO.C,C9*
X126600000Y-106214285D02*
X126571428Y-106242857D01*
X126485714Y-106271428D01*
X126428571Y-106271428D01*
X126342857Y-106242857D01*
X126285714Y-106185714D01*
X126257142Y-106128571D01*
X126228571Y-106014285D01*
X126228571Y-105928571D01*
X126257142Y-105814285D01*
X126285714Y-105757142D01*
X126342857Y-105700000D01*
X126428571Y-105671428D01*
X126485714Y-105671428D01*
X126571428Y-105700000D01*
X126600000Y-105728571D01*
X126885714Y-106271428D02*
X127000000Y-106271428D01*
X127057142Y-106242857D01*
X127085714Y-106214285D01*
X127142857Y-106128571D01*
X127171428Y-106014285D01*
X127171428Y-105785714D01*
X127142857Y-105728571D01*
X127114285Y-105700000D01*
X127057142Y-105671428D01*
X126942857Y-105671428D01*
X126885714Y-105700000D01*
X126857142Y-105728571D01*
X126828571Y-105785714D01*
X126828571Y-105928571D01*
X126857142Y-105985714D01*
X126885714Y-106014285D01*
X126942857Y-106042857D01*
X127057142Y-106042857D01*
X127114285Y-106014285D01*
X127142857Y-105985714D01*
X127171428Y-105928571D01*
G04 #@! TO.C,C39*
X169414285Y-106085714D02*
X169442857Y-106114285D01*
X169471428Y-106200000D01*
X169471428Y-106257142D01*
X169442857Y-106342857D01*
X169385714Y-106400000D01*
X169328571Y-106428571D01*
X169214285Y-106457142D01*
X169128571Y-106457142D01*
X169014285Y-106428571D01*
X168957142Y-106400000D01*
X168900000Y-106342857D01*
X168871428Y-106257142D01*
X168871428Y-106200000D01*
X168900000Y-106114285D01*
X168928571Y-106085714D01*
X168871428Y-105885714D02*
X168871428Y-105514285D01*
X169100000Y-105714285D01*
X169100000Y-105628571D01*
X169128571Y-105571428D01*
X169157142Y-105542857D01*
X169214285Y-105514285D01*
X169357142Y-105514285D01*
X169414285Y-105542857D01*
X169442857Y-105571428D01*
X169471428Y-105628571D01*
X169471428Y-105800000D01*
X169442857Y-105857142D01*
X169414285Y-105885714D01*
X169471428Y-105228571D02*
X169471428Y-105114285D01*
X169442857Y-105057142D01*
X169414285Y-105028571D01*
X169328571Y-104971428D01*
X169214285Y-104942857D01*
X168985714Y-104942857D01*
X168928571Y-104971428D01*
X168900000Y-105000000D01*
X168871428Y-105057142D01*
X168871428Y-105171428D01*
X168900000Y-105228571D01*
X168928571Y-105257142D01*
X168985714Y-105285714D01*
X169128571Y-105285714D01*
X169185714Y-105257142D01*
X169214285Y-105228571D01*
X169242857Y-105171428D01*
X169242857Y-105057142D01*
X169214285Y-105000000D01*
X169185714Y-104971428D01*
X169128571Y-104942857D01*
G04 #@! TO.C,C40*
X160114285Y-106214285D02*
X160085714Y-106242857D01*
X160000000Y-106271428D01*
X159942857Y-106271428D01*
X159857142Y-106242857D01*
X159800000Y-106185714D01*
X159771428Y-106128571D01*
X159742857Y-106014285D01*
X159742857Y-105928571D01*
X159771428Y-105814285D01*
X159800000Y-105757142D01*
X159857142Y-105700000D01*
X159942857Y-105671428D01*
X160000000Y-105671428D01*
X160085714Y-105700000D01*
X160114285Y-105728571D01*
X160628571Y-105871428D02*
X160628571Y-106271428D01*
X160485714Y-105642857D02*
X160342857Y-106071428D01*
X160714285Y-106071428D01*
X161057142Y-105671428D02*
X161114285Y-105671428D01*
X161171428Y-105700000D01*
X161200000Y-105728571D01*
X161228571Y-105785714D01*
X161257142Y-105900000D01*
X161257142Y-106042857D01*
X161228571Y-106157142D01*
X161200000Y-106214285D01*
X161171428Y-106242857D01*
X161114285Y-106271428D01*
X161057142Y-106271428D01*
X161000000Y-106242857D01*
X160971428Y-106214285D01*
X160942857Y-106157142D01*
X160914285Y-106042857D01*
X160914285Y-105900000D01*
X160942857Y-105785714D01*
X160971428Y-105728571D01*
X161000000Y-105700000D01*
X161057142Y-105671428D01*
G04 #@! TO.C,C34*
X180314285Y-104185714D02*
X180342857Y-104214285D01*
X180371428Y-104300000D01*
X180371428Y-104357142D01*
X180342857Y-104442857D01*
X180285714Y-104500000D01*
X180228571Y-104528571D01*
X180114285Y-104557142D01*
X180028571Y-104557142D01*
X179914285Y-104528571D01*
X179857142Y-104500000D01*
X179800000Y-104442857D01*
X179771428Y-104357142D01*
X179771428Y-104300000D01*
X179800000Y-104214285D01*
X179828571Y-104185714D01*
X179771428Y-103985714D02*
X179771428Y-103614285D01*
X180000000Y-103814285D01*
X180000000Y-103728571D01*
X180028571Y-103671428D01*
X180057142Y-103642857D01*
X180114285Y-103614285D01*
X180257142Y-103614285D01*
X180314285Y-103642857D01*
X180342857Y-103671428D01*
X180371428Y-103728571D01*
X180371428Y-103900000D01*
X180342857Y-103957142D01*
X180314285Y-103985714D01*
X179971428Y-103100000D02*
X180371428Y-103100000D01*
X179742857Y-103242857D02*
X180171428Y-103385714D01*
X180171428Y-103014285D01*
G04 #@! TO.C,C35*
X170614285Y-106214285D02*
X170585714Y-106242857D01*
X170500000Y-106271428D01*
X170442857Y-106271428D01*
X170357142Y-106242857D01*
X170300000Y-106185714D01*
X170271428Y-106128571D01*
X170242857Y-106014285D01*
X170242857Y-105928571D01*
X170271428Y-105814285D01*
X170300000Y-105757142D01*
X170357142Y-105700000D01*
X170442857Y-105671428D01*
X170500000Y-105671428D01*
X170585714Y-105700000D01*
X170614285Y-105728571D01*
X170814285Y-105671428D02*
X171185714Y-105671428D01*
X170985714Y-105900000D01*
X171071428Y-105900000D01*
X171128571Y-105928571D01*
X171157142Y-105957142D01*
X171185714Y-106014285D01*
X171185714Y-106157142D01*
X171157142Y-106214285D01*
X171128571Y-106242857D01*
X171071428Y-106271428D01*
X170900000Y-106271428D01*
X170842857Y-106242857D01*
X170814285Y-106214285D01*
X171728571Y-105671428D02*
X171442857Y-105671428D01*
X171414285Y-105957142D01*
X171442857Y-105928571D01*
X171500000Y-105900000D01*
X171642857Y-105900000D01*
X171700000Y-105928571D01*
X171728571Y-105957142D01*
X171757142Y-106014285D01*
X171757142Y-106157142D01*
X171728571Y-106214285D01*
X171700000Y-106242857D01*
X171642857Y-106271428D01*
X171500000Y-106271428D01*
X171442857Y-106242857D01*
X171414285Y-106214285D01*
G04 #@! TO.C,C3*
X120514285Y-99600000D02*
X120542857Y-99628571D01*
X120571428Y-99714285D01*
X120571428Y-99771428D01*
X120542857Y-99857142D01*
X120485714Y-99914285D01*
X120428571Y-99942857D01*
X120314285Y-99971428D01*
X120228571Y-99971428D01*
X120114285Y-99942857D01*
X120057142Y-99914285D01*
X120000000Y-99857142D01*
X119971428Y-99771428D01*
X119971428Y-99714285D01*
X120000000Y-99628571D01*
X120028571Y-99600000D01*
X119971428Y-99400000D02*
X119971428Y-99028571D01*
X120200000Y-99228571D01*
X120200000Y-99142857D01*
X120228571Y-99085714D01*
X120257142Y-99057142D01*
X120314285Y-99028571D01*
X120457142Y-99028571D01*
X120514285Y-99057142D01*
X120542857Y-99085714D01*
X120571428Y-99142857D01*
X120571428Y-99314285D01*
X120542857Y-99371428D01*
X120514285Y-99400000D01*
G04 #@! TO.C,C1*
X121714285Y-99600000D02*
X121742857Y-99628571D01*
X121771428Y-99714285D01*
X121771428Y-99771428D01*
X121742857Y-99857142D01*
X121685714Y-99914285D01*
X121628571Y-99942857D01*
X121514285Y-99971428D01*
X121428571Y-99971428D01*
X121314285Y-99942857D01*
X121257142Y-99914285D01*
X121200000Y-99857142D01*
X121171428Y-99771428D01*
X121171428Y-99714285D01*
X121200000Y-99628571D01*
X121228571Y-99600000D01*
X121771428Y-99028571D02*
X121771428Y-99371428D01*
X121771428Y-99200000D02*
X121171428Y-99200000D01*
X121257142Y-99257142D01*
X121314285Y-99314285D01*
X121342857Y-99371428D01*
G04 #@! TO.C,C17*
X106514285Y-105385714D02*
X106542857Y-105414285D01*
X106571428Y-105500000D01*
X106571428Y-105557142D01*
X106542857Y-105642857D01*
X106485714Y-105700000D01*
X106428571Y-105728571D01*
X106314285Y-105757142D01*
X106228571Y-105757142D01*
X106114285Y-105728571D01*
X106057142Y-105700000D01*
X106000000Y-105642857D01*
X105971428Y-105557142D01*
X105971428Y-105500000D01*
X106000000Y-105414285D01*
X106028571Y-105385714D01*
X106571428Y-104814285D02*
X106571428Y-105157142D01*
X106571428Y-104985714D02*
X105971428Y-104985714D01*
X106057142Y-105042857D01*
X106114285Y-105100000D01*
X106142857Y-105157142D01*
X105971428Y-104614285D02*
X105971428Y-104214285D01*
X106571428Y-104471428D01*
G04 #@! TO.C,C46*
X105314285Y-105385714D02*
X105342857Y-105414285D01*
X105371428Y-105500000D01*
X105371428Y-105557142D01*
X105342857Y-105642857D01*
X105285714Y-105700000D01*
X105228571Y-105728571D01*
X105114285Y-105757142D01*
X105028571Y-105757142D01*
X104914285Y-105728571D01*
X104857142Y-105700000D01*
X104800000Y-105642857D01*
X104771428Y-105557142D01*
X104771428Y-105500000D01*
X104800000Y-105414285D01*
X104828571Y-105385714D01*
X104971428Y-104871428D02*
X105371428Y-104871428D01*
X104742857Y-105014285D02*
X105171428Y-105157142D01*
X105171428Y-104785714D01*
X104771428Y-104300000D02*
X104771428Y-104414285D01*
X104800000Y-104471428D01*
X104828571Y-104500000D01*
X104914285Y-104557142D01*
X105028571Y-104585714D01*
X105257142Y-104585714D01*
X105314285Y-104557142D01*
X105342857Y-104528571D01*
X105371428Y-104471428D01*
X105371428Y-104357142D01*
X105342857Y-104300000D01*
X105314285Y-104271428D01*
X105257142Y-104242857D01*
X105114285Y-104242857D01*
X105057142Y-104271428D01*
X105028571Y-104300000D01*
X105000000Y-104357142D01*
X105000000Y-104471428D01*
X105028571Y-104528571D01*
X105057142Y-104557142D01*
X105114285Y-104585714D01*
G04 #@! TO.C,C8*
X138814285Y-103800000D02*
X138842857Y-103828571D01*
X138871428Y-103914285D01*
X138871428Y-103971428D01*
X138842857Y-104057142D01*
X138785714Y-104114285D01*
X138728571Y-104142857D01*
X138614285Y-104171428D01*
X138528571Y-104171428D01*
X138414285Y-104142857D01*
X138357142Y-104114285D01*
X138300000Y-104057142D01*
X138271428Y-103971428D01*
X138271428Y-103914285D01*
X138300000Y-103828571D01*
X138328571Y-103800000D01*
X138528571Y-103457142D02*
X138500000Y-103514285D01*
X138471428Y-103542857D01*
X138414285Y-103571428D01*
X138385714Y-103571428D01*
X138328571Y-103542857D01*
X138300000Y-103514285D01*
X138271428Y-103457142D01*
X138271428Y-103342857D01*
X138300000Y-103285714D01*
X138328571Y-103257142D01*
X138385714Y-103228571D01*
X138414285Y-103228571D01*
X138471428Y-103257142D01*
X138500000Y-103285714D01*
X138528571Y-103342857D01*
X138528571Y-103457142D01*
X138557142Y-103514285D01*
X138585714Y-103542857D01*
X138642857Y-103571428D01*
X138757142Y-103571428D01*
X138814285Y-103542857D01*
X138842857Y-103514285D01*
X138871428Y-103457142D01*
X138871428Y-103342857D01*
X138842857Y-103285714D01*
X138814285Y-103257142D01*
X138757142Y-103228571D01*
X138642857Y-103228571D01*
X138585714Y-103257142D01*
X138557142Y-103285714D01*
X138528571Y-103342857D01*
G04 #@! TO.C,C12*
X94014285Y-100214285D02*
X93985714Y-100242857D01*
X93900000Y-100271428D01*
X93842857Y-100271428D01*
X93757142Y-100242857D01*
X93700000Y-100185714D01*
X93671428Y-100128571D01*
X93642857Y-100014285D01*
X93642857Y-99928571D01*
X93671428Y-99814285D01*
X93700000Y-99757142D01*
X93757142Y-99700000D01*
X93842857Y-99671428D01*
X93900000Y-99671428D01*
X93985714Y-99700000D01*
X94014285Y-99728571D01*
X94585714Y-100271428D02*
X94242857Y-100271428D01*
X94414285Y-100271428D02*
X94414285Y-99671428D01*
X94357142Y-99757142D01*
X94300000Y-99814285D01*
X94242857Y-99842857D01*
X94814285Y-99728571D02*
X94842857Y-99700000D01*
X94900000Y-99671428D01*
X95042857Y-99671428D01*
X95100000Y-99700000D01*
X95128571Y-99728571D01*
X95157142Y-99785714D01*
X95157142Y-99842857D01*
X95128571Y-99928571D01*
X94785714Y-100271428D01*
X95157142Y-100271428D01*
G04 #@! TO.C,C58*
X153214285Y-96885714D02*
X153242857Y-96914285D01*
X153271428Y-97000000D01*
X153271428Y-97057142D01*
X153242857Y-97142857D01*
X153185714Y-97200000D01*
X153128571Y-97228571D01*
X153014285Y-97257142D01*
X152928571Y-97257142D01*
X152814285Y-97228571D01*
X152757142Y-97200000D01*
X152700000Y-97142857D01*
X152671428Y-97057142D01*
X152671428Y-97000000D01*
X152700000Y-96914285D01*
X152728571Y-96885714D01*
X152671428Y-96342857D02*
X152671428Y-96628571D01*
X152957142Y-96657142D01*
X152928571Y-96628571D01*
X152900000Y-96571428D01*
X152900000Y-96428571D01*
X152928571Y-96371428D01*
X152957142Y-96342857D01*
X153014285Y-96314285D01*
X153157142Y-96314285D01*
X153214285Y-96342857D01*
X153242857Y-96371428D01*
X153271428Y-96428571D01*
X153271428Y-96571428D01*
X153242857Y-96628571D01*
X153214285Y-96657142D01*
X152928571Y-95971428D02*
X152900000Y-96028571D01*
X152871428Y-96057142D01*
X152814285Y-96085714D01*
X152785714Y-96085714D01*
X152728571Y-96057142D01*
X152700000Y-96028571D01*
X152671428Y-95971428D01*
X152671428Y-95857142D01*
X152700000Y-95800000D01*
X152728571Y-95771428D01*
X152785714Y-95742857D01*
X152814285Y-95742857D01*
X152871428Y-95771428D01*
X152900000Y-95800000D01*
X152928571Y-95857142D01*
X152928571Y-95971428D01*
X152957142Y-96028571D01*
X152985714Y-96057142D01*
X153042857Y-96085714D01*
X153157142Y-96085714D01*
X153214285Y-96057142D01*
X153242857Y-96028571D01*
X153271428Y-95971428D01*
X153271428Y-95857142D01*
X153242857Y-95800000D01*
X153214285Y-95771428D01*
X153157142Y-95742857D01*
X153042857Y-95742857D01*
X152985714Y-95771428D01*
X152957142Y-95800000D01*
X152928571Y-95857142D01*
G04 #@! TO.C,J3*
X153001428Y-81300000D02*
X153430000Y-81300000D01*
X153515714Y-81328571D01*
X153572857Y-81385714D01*
X153601428Y-81471428D01*
X153601428Y-81528571D01*
X153001428Y-81071428D02*
X153001428Y-80700000D01*
X153230000Y-80900000D01*
X153230000Y-80814285D01*
X153258571Y-80757142D01*
X153287142Y-80728571D01*
X153344285Y-80700000D01*
X153487142Y-80700000D01*
X153544285Y-80728571D01*
X153572857Y-80757142D01*
X153601428Y-80814285D01*
X153601428Y-80985714D01*
X153572857Y-81042857D01*
X153544285Y-81071428D01*
G04 #@! TO.C,J11*
X136914285Y-63971428D02*
X136914285Y-64400000D01*
X136885714Y-64485714D01*
X136828571Y-64542857D01*
X136742857Y-64571428D01*
X136685714Y-64571428D01*
X137514285Y-64571428D02*
X137171428Y-64571428D01*
X137342857Y-64571428D02*
X137342857Y-63971428D01*
X137285714Y-64057142D01*
X137228571Y-64114285D01*
X137171428Y-64142857D01*
X138085714Y-64571428D02*
X137742857Y-64571428D01*
X137914285Y-64571428D02*
X137914285Y-63971428D01*
X137857142Y-64057142D01*
X137800000Y-64114285D01*
X137742857Y-64142857D01*
G04 #@! TO.C,U20*
X147157142Y-72771428D02*
X147157142Y-73257142D01*
X147185714Y-73314285D01*
X147214285Y-73342857D01*
X147271428Y-73371428D01*
X147385714Y-73371428D01*
X147442857Y-73342857D01*
X147471428Y-73314285D01*
X147500000Y-73257142D01*
X147500000Y-72771428D01*
X147757142Y-72828571D02*
X147785714Y-72800000D01*
X147842857Y-72771428D01*
X147985714Y-72771428D01*
X148042857Y-72800000D01*
X148071428Y-72828571D01*
X148100000Y-72885714D01*
X148100000Y-72942857D01*
X148071428Y-73028571D01*
X147728571Y-73371428D01*
X148100000Y-73371428D01*
X148471428Y-72771428D02*
X148528571Y-72771428D01*
X148585714Y-72800000D01*
X148614285Y-72828571D01*
X148642857Y-72885714D01*
X148671428Y-73000000D01*
X148671428Y-73142857D01*
X148642857Y-73257142D01*
X148614285Y-73314285D01*
X148585714Y-73342857D01*
X148528571Y-73371428D01*
X148471428Y-73371428D01*
X148414285Y-73342857D01*
X148385714Y-73314285D01*
X148357142Y-73257142D01*
X148328571Y-73142857D01*
X148328571Y-73000000D01*
X148357142Y-72885714D01*
X148385714Y-72828571D01*
X148414285Y-72800000D01*
X148471428Y-72771428D01*
G04 #@! TO.C,U19*
X89557142Y-80871428D02*
X89557142Y-81357142D01*
X89585714Y-81414285D01*
X89614285Y-81442857D01*
X89671428Y-81471428D01*
X89785714Y-81471428D01*
X89842857Y-81442857D01*
X89871428Y-81414285D01*
X89900000Y-81357142D01*
X89900000Y-80871428D01*
X90500000Y-81471428D02*
X90157142Y-81471428D01*
X90328571Y-81471428D02*
X90328571Y-80871428D01*
X90271428Y-80957142D01*
X90214285Y-81014285D01*
X90157142Y-81042857D01*
X90785714Y-81471428D02*
X90900000Y-81471428D01*
X90957142Y-81442857D01*
X90985714Y-81414285D01*
X91042857Y-81328571D01*
X91071428Y-81214285D01*
X91071428Y-80985714D01*
X91042857Y-80928571D01*
X91014285Y-80900000D01*
X90957142Y-80871428D01*
X90842857Y-80871428D01*
X90785714Y-80900000D01*
X90757142Y-80928571D01*
X90728571Y-80985714D01*
X90728571Y-81128571D01*
X90757142Y-81185714D01*
X90785714Y-81214285D01*
X90842857Y-81242857D01*
X90957142Y-81242857D01*
X91014285Y-81214285D01*
X91042857Y-81185714D01*
X91071428Y-81128571D01*
G04 #@! TO.C,U18*
X96057142Y-77071428D02*
X96057142Y-77557142D01*
X96085714Y-77614285D01*
X96114285Y-77642857D01*
X96171428Y-77671428D01*
X96285714Y-77671428D01*
X96342857Y-77642857D01*
X96371428Y-77614285D01*
X96400000Y-77557142D01*
X96400000Y-77071428D01*
X97000000Y-77671428D02*
X96657142Y-77671428D01*
X96828571Y-77671428D02*
X96828571Y-77071428D01*
X96771428Y-77157142D01*
X96714285Y-77214285D01*
X96657142Y-77242857D01*
X97342857Y-77328571D02*
X97285714Y-77300000D01*
X97257142Y-77271428D01*
X97228571Y-77214285D01*
X97228571Y-77185714D01*
X97257142Y-77128571D01*
X97285714Y-77100000D01*
X97342857Y-77071428D01*
X97457142Y-77071428D01*
X97514285Y-77100000D01*
X97542857Y-77128571D01*
X97571428Y-77185714D01*
X97571428Y-77214285D01*
X97542857Y-77271428D01*
X97514285Y-77300000D01*
X97457142Y-77328571D01*
X97342857Y-77328571D01*
X97285714Y-77357142D01*
X97257142Y-77385714D01*
X97228571Y-77442857D01*
X97228571Y-77557142D01*
X97257142Y-77614285D01*
X97285714Y-77642857D01*
X97342857Y-77671428D01*
X97457142Y-77671428D01*
X97514285Y-77642857D01*
X97542857Y-77614285D01*
X97571428Y-77557142D01*
X97571428Y-77442857D01*
X97542857Y-77385714D01*
X97514285Y-77357142D01*
X97457142Y-77328571D01*
G04 #@! TO.C,U2*
X69642857Y-89171428D02*
X69642857Y-89657142D01*
X69671428Y-89714285D01*
X69700000Y-89742857D01*
X69757142Y-89771428D01*
X69871428Y-89771428D01*
X69928571Y-89742857D01*
X69957142Y-89714285D01*
X69985714Y-89657142D01*
X69985714Y-89171428D01*
X70242857Y-89228571D02*
X70271428Y-89200000D01*
X70328571Y-89171428D01*
X70471428Y-89171428D01*
X70528571Y-89200000D01*
X70557142Y-89228571D01*
X70585714Y-89285714D01*
X70585714Y-89342857D01*
X70557142Y-89428571D01*
X70214285Y-89771428D01*
X70585714Y-89771428D01*
G04 #@! TO.C,U1*
X206671428Y-87457142D02*
X207157142Y-87457142D01*
X207214285Y-87428571D01*
X207242857Y-87400000D01*
X207271428Y-87342857D01*
X207271428Y-87228571D01*
X207242857Y-87171428D01*
X207214285Y-87142857D01*
X207157142Y-87114285D01*
X206671428Y-87114285D01*
X207271428Y-86514285D02*
X207271428Y-86857142D01*
X207271428Y-86685714D02*
X206671428Y-86685714D01*
X206757142Y-86742857D01*
X206814285Y-86800000D01*
X206842857Y-86857142D01*
G04 #@! TO.C,U9*
X91242857Y-91671428D02*
X91242857Y-92157142D01*
X91271428Y-92214285D01*
X91300000Y-92242857D01*
X91357142Y-92271428D01*
X91471428Y-92271428D01*
X91528571Y-92242857D01*
X91557142Y-92214285D01*
X91585714Y-92157142D01*
X91585714Y-91671428D01*
X91900000Y-92271428D02*
X92014285Y-92271428D01*
X92071428Y-92242857D01*
X92100000Y-92214285D01*
X92157142Y-92128571D01*
X92185714Y-92014285D01*
X92185714Y-91785714D01*
X92157142Y-91728571D01*
X92128571Y-91700000D01*
X92071428Y-91671428D01*
X91957142Y-91671428D01*
X91900000Y-91700000D01*
X91871428Y-91728571D01*
X91842857Y-91785714D01*
X91842857Y-91928571D01*
X91871428Y-91985714D01*
X91900000Y-92014285D01*
X91957142Y-92042857D01*
X92071428Y-92042857D01*
X92128571Y-92014285D01*
X92157142Y-91985714D01*
X92185714Y-91928571D01*
G04 #@! TO.C,U8*
X141342857Y-93971428D02*
X141342857Y-94457142D01*
X141371428Y-94514285D01*
X141400000Y-94542857D01*
X141457142Y-94571428D01*
X141571428Y-94571428D01*
X141628571Y-94542857D01*
X141657142Y-94514285D01*
X141685714Y-94457142D01*
X141685714Y-93971428D01*
X142057142Y-94228571D02*
X142000000Y-94200000D01*
X141971428Y-94171428D01*
X141942857Y-94114285D01*
X141942857Y-94085714D01*
X141971428Y-94028571D01*
X142000000Y-94000000D01*
X142057142Y-93971428D01*
X142171428Y-93971428D01*
X142228571Y-94000000D01*
X142257142Y-94028571D01*
X142285714Y-94085714D01*
X142285714Y-94114285D01*
X142257142Y-94171428D01*
X142228571Y-94200000D01*
X142171428Y-94228571D01*
X142057142Y-94228571D01*
X142000000Y-94257142D01*
X141971428Y-94285714D01*
X141942857Y-94342857D01*
X141942857Y-94457142D01*
X141971428Y-94514285D01*
X142000000Y-94542857D01*
X142057142Y-94571428D01*
X142171428Y-94571428D01*
X142228571Y-94542857D01*
X142257142Y-94514285D01*
X142285714Y-94457142D01*
X142285714Y-94342857D01*
X142257142Y-94285714D01*
X142228571Y-94257142D01*
X142171428Y-94228571D01*
G04 #@! TO.C,C10*
X137614285Y-95714285D02*
X137585714Y-95742857D01*
X137500000Y-95771428D01*
X137442857Y-95771428D01*
X137357142Y-95742857D01*
X137300000Y-95685714D01*
X137271428Y-95628571D01*
X137242857Y-95514285D01*
X137242857Y-95428571D01*
X137271428Y-95314285D01*
X137300000Y-95257142D01*
X137357142Y-95200000D01*
X137442857Y-95171428D01*
X137500000Y-95171428D01*
X137585714Y-95200000D01*
X137614285Y-95228571D01*
X138185714Y-95771428D02*
X137842857Y-95771428D01*
X138014285Y-95771428D02*
X138014285Y-95171428D01*
X137957142Y-95257142D01*
X137900000Y-95314285D01*
X137842857Y-95342857D01*
X138557142Y-95171428D02*
X138614285Y-95171428D01*
X138671428Y-95200000D01*
X138700000Y-95228571D01*
X138728571Y-95285714D01*
X138757142Y-95400000D01*
X138757142Y-95542857D01*
X138728571Y-95657142D01*
X138700000Y-95714285D01*
X138671428Y-95742857D01*
X138614285Y-95771428D01*
X138557142Y-95771428D01*
X138500000Y-95742857D01*
X138471428Y-95714285D01*
X138442857Y-95657142D01*
X138414285Y-95542857D01*
X138414285Y-95400000D01*
X138442857Y-95285714D01*
X138471428Y-95228571D01*
X138500000Y-95200000D01*
X138557142Y-95171428D01*
G04 #@! TO.C,C15*
X137614285Y-98714285D02*
X137585714Y-98742857D01*
X137500000Y-98771428D01*
X137442857Y-98771428D01*
X137357142Y-98742857D01*
X137300000Y-98685714D01*
X137271428Y-98628571D01*
X137242857Y-98514285D01*
X137242857Y-98428571D01*
X137271428Y-98314285D01*
X137300000Y-98257142D01*
X137357142Y-98200000D01*
X137442857Y-98171428D01*
X137500000Y-98171428D01*
X137585714Y-98200000D01*
X137614285Y-98228571D01*
X138185714Y-98771428D02*
X137842857Y-98771428D01*
X138014285Y-98771428D02*
X138014285Y-98171428D01*
X137957142Y-98257142D01*
X137900000Y-98314285D01*
X137842857Y-98342857D01*
X138728571Y-98171428D02*
X138442857Y-98171428D01*
X138414285Y-98457142D01*
X138442857Y-98428571D01*
X138500000Y-98400000D01*
X138642857Y-98400000D01*
X138700000Y-98428571D01*
X138728571Y-98457142D01*
X138757142Y-98514285D01*
X138757142Y-98657142D01*
X138728571Y-98714285D01*
X138700000Y-98742857D01*
X138642857Y-98771428D01*
X138500000Y-98771428D01*
X138442857Y-98742857D01*
X138414285Y-98714285D01*
G04 #@! TO.C,C11*
X137614285Y-97214285D02*
X137585714Y-97242857D01*
X137500000Y-97271428D01*
X137442857Y-97271428D01*
X137357142Y-97242857D01*
X137300000Y-97185714D01*
X137271428Y-97128571D01*
X137242857Y-97014285D01*
X137242857Y-96928571D01*
X137271428Y-96814285D01*
X137300000Y-96757142D01*
X137357142Y-96700000D01*
X137442857Y-96671428D01*
X137500000Y-96671428D01*
X137585714Y-96700000D01*
X137614285Y-96728571D01*
X138185714Y-97271428D02*
X137842857Y-97271428D01*
X138014285Y-97271428D02*
X138014285Y-96671428D01*
X137957142Y-96757142D01*
X137900000Y-96814285D01*
X137842857Y-96842857D01*
X138757142Y-97271428D02*
X138414285Y-97271428D01*
X138585714Y-97271428D02*
X138585714Y-96671428D01*
X138528571Y-96757142D01*
X138471428Y-96814285D01*
X138414285Y-96842857D01*
G04 #@! TO.C,U7*
X129842857Y-103571428D02*
X129842857Y-104057142D01*
X129871428Y-104114285D01*
X129900000Y-104142857D01*
X129957142Y-104171428D01*
X130071428Y-104171428D01*
X130128571Y-104142857D01*
X130157142Y-104114285D01*
X130185714Y-104057142D01*
X130185714Y-103571428D01*
X130414285Y-103571428D02*
X130814285Y-103571428D01*
X130557142Y-104171428D01*
G04 #@! TO.C,C44*
X165214285Y-94785714D02*
X165242857Y-94814285D01*
X165271428Y-94900000D01*
X165271428Y-94957142D01*
X165242857Y-95042857D01*
X165185714Y-95100000D01*
X165128571Y-95128571D01*
X165014285Y-95157142D01*
X164928571Y-95157142D01*
X164814285Y-95128571D01*
X164757142Y-95100000D01*
X164700000Y-95042857D01*
X164671428Y-94957142D01*
X164671428Y-94900000D01*
X164700000Y-94814285D01*
X164728571Y-94785714D01*
X164871428Y-94271428D02*
X165271428Y-94271428D01*
X164642857Y-94414285D02*
X165071428Y-94557142D01*
X165071428Y-94185714D01*
X164871428Y-93700000D02*
X165271428Y-93700000D01*
X164642857Y-93842857D02*
X165071428Y-93985714D01*
X165071428Y-93614285D01*
G04 #@! TO.C,C42*
X165614285Y-99814285D02*
X165585714Y-99842857D01*
X165500000Y-99871428D01*
X165442857Y-99871428D01*
X165357142Y-99842857D01*
X165300000Y-99785714D01*
X165271428Y-99728571D01*
X165242857Y-99614285D01*
X165242857Y-99528571D01*
X165271428Y-99414285D01*
X165300000Y-99357142D01*
X165357142Y-99300000D01*
X165442857Y-99271428D01*
X165500000Y-99271428D01*
X165585714Y-99300000D01*
X165614285Y-99328571D01*
X166128571Y-99471428D02*
X166128571Y-99871428D01*
X165985714Y-99242857D02*
X165842857Y-99671428D01*
X166214285Y-99671428D01*
X166414285Y-99328571D02*
X166442857Y-99300000D01*
X166500000Y-99271428D01*
X166642857Y-99271428D01*
X166700000Y-99300000D01*
X166728571Y-99328571D01*
X166757142Y-99385714D01*
X166757142Y-99442857D01*
X166728571Y-99528571D01*
X166385714Y-99871428D01*
X166757142Y-99871428D01*
G04 #@! TO.C,C43*
X169114285Y-103485714D02*
X169142857Y-103514285D01*
X169171428Y-103600000D01*
X169171428Y-103657142D01*
X169142857Y-103742857D01*
X169085714Y-103800000D01*
X169028571Y-103828571D01*
X168914285Y-103857142D01*
X168828571Y-103857142D01*
X168714285Y-103828571D01*
X168657142Y-103800000D01*
X168600000Y-103742857D01*
X168571428Y-103657142D01*
X168571428Y-103600000D01*
X168600000Y-103514285D01*
X168628571Y-103485714D01*
X168771428Y-102971428D02*
X169171428Y-102971428D01*
X168542857Y-103114285D02*
X168971428Y-103257142D01*
X168971428Y-102885714D01*
X168571428Y-102714285D02*
X168571428Y-102342857D01*
X168800000Y-102542857D01*
X168800000Y-102457142D01*
X168828571Y-102400000D01*
X168857142Y-102371428D01*
X168914285Y-102342857D01*
X169057142Y-102342857D01*
X169114285Y-102371428D01*
X169142857Y-102400000D01*
X169171428Y-102457142D01*
X169171428Y-102628571D01*
X169142857Y-102685714D01*
X169114285Y-102714285D01*
G04 #@! TO.C,U6*
X161842857Y-99471428D02*
X161842857Y-99957142D01*
X161871428Y-100014285D01*
X161900000Y-100042857D01*
X161957142Y-100071428D01*
X162071428Y-100071428D01*
X162128571Y-100042857D01*
X162157142Y-100014285D01*
X162185714Y-99957142D01*
X162185714Y-99471428D01*
X162728571Y-99471428D02*
X162614285Y-99471428D01*
X162557142Y-99500000D01*
X162528571Y-99528571D01*
X162471428Y-99614285D01*
X162442857Y-99728571D01*
X162442857Y-99957142D01*
X162471428Y-100014285D01*
X162500000Y-100042857D01*
X162557142Y-100071428D01*
X162671428Y-100071428D01*
X162728571Y-100042857D01*
X162757142Y-100014285D01*
X162785714Y-99957142D01*
X162785714Y-99814285D01*
X162757142Y-99757142D01*
X162728571Y-99728571D01*
X162671428Y-99700000D01*
X162557142Y-99700000D01*
X162500000Y-99728571D01*
X162471428Y-99757142D01*
X162442857Y-99814285D01*
G04 #@! TO.C,C62*
X153114285Y-84485714D02*
X153142857Y-84514285D01*
X153171428Y-84600000D01*
X153171428Y-84657142D01*
X153142857Y-84742857D01*
X153085714Y-84800000D01*
X153028571Y-84828571D01*
X152914285Y-84857142D01*
X152828571Y-84857142D01*
X152714285Y-84828571D01*
X152657142Y-84800000D01*
X152600000Y-84742857D01*
X152571428Y-84657142D01*
X152571428Y-84600000D01*
X152600000Y-84514285D01*
X152628571Y-84485714D01*
X152571428Y-83971428D02*
X152571428Y-84085714D01*
X152600000Y-84142857D01*
X152628571Y-84171428D01*
X152714285Y-84228571D01*
X152828571Y-84257142D01*
X153057142Y-84257142D01*
X153114285Y-84228571D01*
X153142857Y-84200000D01*
X153171428Y-84142857D01*
X153171428Y-84028571D01*
X153142857Y-83971428D01*
X153114285Y-83942857D01*
X153057142Y-83914285D01*
X152914285Y-83914285D01*
X152857142Y-83942857D01*
X152828571Y-83971428D01*
X152800000Y-84028571D01*
X152800000Y-84142857D01*
X152828571Y-84200000D01*
X152857142Y-84228571D01*
X152914285Y-84257142D01*
X152628571Y-83685714D02*
X152600000Y-83657142D01*
X152571428Y-83600000D01*
X152571428Y-83457142D01*
X152600000Y-83400000D01*
X152628571Y-83371428D01*
X152685714Y-83342857D01*
X152742857Y-83342857D01*
X152828571Y-83371428D01*
X153171428Y-83714285D01*
X153171428Y-83342857D01*
G04 #@! TO.C,C168*
X167314285Y-94971428D02*
X167342857Y-95000000D01*
X167371428Y-95085714D01*
X167371428Y-95142857D01*
X167342857Y-95228571D01*
X167285714Y-95285714D01*
X167228571Y-95314285D01*
X167114285Y-95342857D01*
X167028571Y-95342857D01*
X166914285Y-95314285D01*
X166857142Y-95285714D01*
X166800000Y-95228571D01*
X166771428Y-95142857D01*
X166771428Y-95085714D01*
X166800000Y-95000000D01*
X166828571Y-94971428D01*
X167371428Y-94400000D02*
X167371428Y-94742857D01*
X167371428Y-94571428D02*
X166771428Y-94571428D01*
X166857142Y-94628571D01*
X166914285Y-94685714D01*
X166942857Y-94742857D01*
X166771428Y-93885714D02*
X166771428Y-94000000D01*
X166800000Y-94057142D01*
X166828571Y-94085714D01*
X166914285Y-94142857D01*
X167028571Y-94171428D01*
X167257142Y-94171428D01*
X167314285Y-94142857D01*
X167342857Y-94114285D01*
X167371428Y-94057142D01*
X167371428Y-93942857D01*
X167342857Y-93885714D01*
X167314285Y-93857142D01*
X167257142Y-93828571D01*
X167114285Y-93828571D01*
X167057142Y-93857142D01*
X167028571Y-93885714D01*
X167000000Y-93942857D01*
X167000000Y-94057142D01*
X167028571Y-94114285D01*
X167057142Y-94142857D01*
X167114285Y-94171428D01*
X167028571Y-93485714D02*
X167000000Y-93542857D01*
X166971428Y-93571428D01*
X166914285Y-93600000D01*
X166885714Y-93600000D01*
X166828571Y-93571428D01*
X166800000Y-93542857D01*
X166771428Y-93485714D01*
X166771428Y-93371428D01*
X166800000Y-93314285D01*
X166828571Y-93285714D01*
X166885714Y-93257142D01*
X166914285Y-93257142D01*
X166971428Y-93285714D01*
X167000000Y-93314285D01*
X167028571Y-93371428D01*
X167028571Y-93485714D01*
X167057142Y-93542857D01*
X167085714Y-93571428D01*
X167142857Y-93600000D01*
X167257142Y-93600000D01*
X167314285Y-93571428D01*
X167342857Y-93542857D01*
X167371428Y-93485714D01*
X167371428Y-93371428D01*
X167342857Y-93314285D01*
X167314285Y-93285714D01*
X167257142Y-93257142D01*
X167142857Y-93257142D01*
X167085714Y-93285714D01*
X167057142Y-93314285D01*
X167028571Y-93371428D01*
G04 #@! TO.C,C37*
X178614285Y-98714285D02*
X178585714Y-98742857D01*
X178500000Y-98771428D01*
X178442857Y-98771428D01*
X178357142Y-98742857D01*
X178300000Y-98685714D01*
X178271428Y-98628571D01*
X178242857Y-98514285D01*
X178242857Y-98428571D01*
X178271428Y-98314285D01*
X178300000Y-98257142D01*
X178357142Y-98200000D01*
X178442857Y-98171428D01*
X178500000Y-98171428D01*
X178585714Y-98200000D01*
X178614285Y-98228571D01*
X178814285Y-98171428D02*
X179185714Y-98171428D01*
X178985714Y-98400000D01*
X179071428Y-98400000D01*
X179128571Y-98428571D01*
X179157142Y-98457142D01*
X179185714Y-98514285D01*
X179185714Y-98657142D01*
X179157142Y-98714285D01*
X179128571Y-98742857D01*
X179071428Y-98771428D01*
X178900000Y-98771428D01*
X178842857Y-98742857D01*
X178814285Y-98714285D01*
X179385714Y-98171428D02*
X179785714Y-98171428D01*
X179528571Y-98771428D01*
G04 #@! TO.C,C36*
X178614285Y-97214285D02*
X178585714Y-97242857D01*
X178500000Y-97271428D01*
X178442857Y-97271428D01*
X178357142Y-97242857D01*
X178300000Y-97185714D01*
X178271428Y-97128571D01*
X178242857Y-97014285D01*
X178242857Y-96928571D01*
X178271428Y-96814285D01*
X178300000Y-96757142D01*
X178357142Y-96700000D01*
X178442857Y-96671428D01*
X178500000Y-96671428D01*
X178585714Y-96700000D01*
X178614285Y-96728571D01*
X178814285Y-96671428D02*
X179185714Y-96671428D01*
X178985714Y-96900000D01*
X179071428Y-96900000D01*
X179128571Y-96928571D01*
X179157142Y-96957142D01*
X179185714Y-97014285D01*
X179185714Y-97157142D01*
X179157142Y-97214285D01*
X179128571Y-97242857D01*
X179071428Y-97271428D01*
X178900000Y-97271428D01*
X178842857Y-97242857D01*
X178814285Y-97214285D01*
X179700000Y-96671428D02*
X179585714Y-96671428D01*
X179528571Y-96700000D01*
X179500000Y-96728571D01*
X179442857Y-96814285D01*
X179414285Y-96928571D01*
X179414285Y-97157142D01*
X179442857Y-97214285D01*
X179471428Y-97242857D01*
X179528571Y-97271428D01*
X179642857Y-97271428D01*
X179700000Y-97242857D01*
X179728571Y-97214285D01*
X179757142Y-97157142D01*
X179757142Y-97014285D01*
X179728571Y-96957142D01*
X179700000Y-96928571D01*
X179642857Y-96900000D01*
X179528571Y-96900000D01*
X179471428Y-96928571D01*
X179442857Y-96957142D01*
X179414285Y-97014285D01*
G04 #@! TO.C,U16*
X172757142Y-99271428D02*
X172757142Y-99757142D01*
X172785714Y-99814285D01*
X172814285Y-99842857D01*
X172871428Y-99871428D01*
X172985714Y-99871428D01*
X173042857Y-99842857D01*
X173071428Y-99814285D01*
X173100000Y-99757142D01*
X173100000Y-99271428D01*
X173700000Y-99871428D02*
X173357142Y-99871428D01*
X173528571Y-99871428D02*
X173528571Y-99271428D01*
X173471428Y-99357142D01*
X173414285Y-99414285D01*
X173357142Y-99442857D01*
X174214285Y-99271428D02*
X174100000Y-99271428D01*
X174042857Y-99300000D01*
X174014285Y-99328571D01*
X173957142Y-99414285D01*
X173928571Y-99528571D01*
X173928571Y-99757142D01*
X173957142Y-99814285D01*
X173985714Y-99842857D01*
X174042857Y-99871428D01*
X174157142Y-99871428D01*
X174214285Y-99842857D01*
X174242857Y-99814285D01*
X174271428Y-99757142D01*
X174271428Y-99614285D01*
X174242857Y-99557142D01*
X174214285Y-99528571D01*
X174157142Y-99500000D01*
X174042857Y-99500000D01*
X173985714Y-99528571D01*
X173957142Y-99557142D01*
X173928571Y-99614285D01*
G04 #@! TO.C,Q3*
X155542857Y-95528571D02*
X155485714Y-95500000D01*
X155428571Y-95442857D01*
X155342857Y-95357142D01*
X155285714Y-95328571D01*
X155228571Y-95328571D01*
X155257142Y-95471428D02*
X155200000Y-95442857D01*
X155142857Y-95385714D01*
X155114285Y-95271428D01*
X155114285Y-95071428D01*
X155142857Y-94957142D01*
X155200000Y-94900000D01*
X155257142Y-94871428D01*
X155371428Y-94871428D01*
X155428571Y-94900000D01*
X155485714Y-94957142D01*
X155514285Y-95071428D01*
X155514285Y-95271428D01*
X155485714Y-95385714D01*
X155428571Y-95442857D01*
X155371428Y-95471428D01*
X155257142Y-95471428D01*
X155714285Y-94871428D02*
X156085714Y-94871428D01*
X155885714Y-95100000D01*
X155971428Y-95100000D01*
X156028571Y-95128571D01*
X156057142Y-95157142D01*
X156085714Y-95214285D01*
X156085714Y-95357142D01*
X156057142Y-95414285D01*
X156028571Y-95442857D01*
X155971428Y-95471428D01*
X155800000Y-95471428D01*
X155742857Y-95442857D01*
X155714285Y-95414285D01*
G04 #@! TO.C,R56*
X141971428Y-79485714D02*
X141685714Y-79685714D01*
X141971428Y-79828571D02*
X141371428Y-79828571D01*
X141371428Y-79600000D01*
X141400000Y-79542857D01*
X141428571Y-79514285D01*
X141485714Y-79485714D01*
X141571428Y-79485714D01*
X141628571Y-79514285D01*
X141657142Y-79542857D01*
X141685714Y-79600000D01*
X141685714Y-79828571D01*
X141371428Y-78942857D02*
X141371428Y-79228571D01*
X141657142Y-79257142D01*
X141628571Y-79228571D01*
X141600000Y-79171428D01*
X141600000Y-79028571D01*
X141628571Y-78971428D01*
X141657142Y-78942857D01*
X141714285Y-78914285D01*
X141857142Y-78914285D01*
X141914285Y-78942857D01*
X141942857Y-78971428D01*
X141971428Y-79028571D01*
X141971428Y-79171428D01*
X141942857Y-79228571D01*
X141914285Y-79257142D01*
X141371428Y-78400000D02*
X141371428Y-78514285D01*
X141400000Y-78571428D01*
X141428571Y-78600000D01*
X141514285Y-78657142D01*
X141628571Y-78685714D01*
X141857142Y-78685714D01*
X141914285Y-78657142D01*
X141942857Y-78628571D01*
X141971428Y-78571428D01*
X141971428Y-78457142D01*
X141942857Y-78400000D01*
X141914285Y-78371428D01*
X141857142Y-78342857D01*
X141714285Y-78342857D01*
X141657142Y-78371428D01*
X141628571Y-78400000D01*
X141600000Y-78457142D01*
X141600000Y-78571428D01*
X141628571Y-78628571D01*
X141657142Y-78657142D01*
X141714285Y-78685714D01*
G04 #@! TO.C,Q4*
X138728571Y-77557142D02*
X138700000Y-77614285D01*
X138642857Y-77671428D01*
X138557142Y-77757142D01*
X138528571Y-77814285D01*
X138528571Y-77871428D01*
X138671428Y-77842857D02*
X138642857Y-77900000D01*
X138585714Y-77957142D01*
X138471428Y-77985714D01*
X138271428Y-77985714D01*
X138157142Y-77957142D01*
X138100000Y-77900000D01*
X138071428Y-77842857D01*
X138071428Y-77728571D01*
X138100000Y-77671428D01*
X138157142Y-77614285D01*
X138271428Y-77585714D01*
X138471428Y-77585714D01*
X138585714Y-77614285D01*
X138642857Y-77671428D01*
X138671428Y-77728571D01*
X138671428Y-77842857D01*
X138271428Y-77071428D02*
X138671428Y-77071428D01*
X138042857Y-77214285D02*
X138471428Y-77357142D01*
X138471428Y-76985714D01*
G04 #@! TO.C,Q5*
X138728571Y-80157142D02*
X138700000Y-80214285D01*
X138642857Y-80271428D01*
X138557142Y-80357142D01*
X138528571Y-80414285D01*
X138528571Y-80471428D01*
X138671428Y-80442857D02*
X138642857Y-80500000D01*
X138585714Y-80557142D01*
X138471428Y-80585714D01*
X138271428Y-80585714D01*
X138157142Y-80557142D01*
X138100000Y-80500000D01*
X138071428Y-80442857D01*
X138071428Y-80328571D01*
X138100000Y-80271428D01*
X138157142Y-80214285D01*
X138271428Y-80185714D01*
X138471428Y-80185714D01*
X138585714Y-80214285D01*
X138642857Y-80271428D01*
X138671428Y-80328571D01*
X138671428Y-80442857D01*
X138071428Y-79642857D02*
X138071428Y-79928571D01*
X138357142Y-79957142D01*
X138328571Y-79928571D01*
X138300000Y-79871428D01*
X138300000Y-79728571D01*
X138328571Y-79671428D01*
X138357142Y-79642857D01*
X138414285Y-79614285D01*
X138557142Y-79614285D01*
X138614285Y-79642857D01*
X138642857Y-79671428D01*
X138671428Y-79728571D01*
X138671428Y-79871428D01*
X138642857Y-79928571D01*
X138614285Y-79957142D01*
G04 #@! TO.C,Q2*
X129542857Y-93828571D02*
X129485714Y-93800000D01*
X129428571Y-93742857D01*
X129342857Y-93657142D01*
X129285714Y-93628571D01*
X129228571Y-93628571D01*
X129257142Y-93771428D02*
X129200000Y-93742857D01*
X129142857Y-93685714D01*
X129114285Y-93571428D01*
X129114285Y-93371428D01*
X129142857Y-93257142D01*
X129200000Y-93200000D01*
X129257142Y-93171428D01*
X129371428Y-93171428D01*
X129428571Y-93200000D01*
X129485714Y-93257142D01*
X129514285Y-93371428D01*
X129514285Y-93571428D01*
X129485714Y-93685714D01*
X129428571Y-93742857D01*
X129371428Y-93771428D01*
X129257142Y-93771428D01*
X129742857Y-93228571D02*
X129771428Y-93200000D01*
X129828571Y-93171428D01*
X129971428Y-93171428D01*
X130028571Y-93200000D01*
X130057142Y-93228571D01*
X130085714Y-93285714D01*
X130085714Y-93342857D01*
X130057142Y-93428571D01*
X129714285Y-93771428D01*
X130085714Y-93771428D01*
G04 #@! TO.C,Q1*
X138728571Y-82857142D02*
X138700000Y-82914285D01*
X138642857Y-82971428D01*
X138557142Y-83057142D01*
X138528571Y-83114285D01*
X138528571Y-83171428D01*
X138671428Y-83142857D02*
X138642857Y-83200000D01*
X138585714Y-83257142D01*
X138471428Y-83285714D01*
X138271428Y-83285714D01*
X138157142Y-83257142D01*
X138100000Y-83200000D01*
X138071428Y-83142857D01*
X138071428Y-83028571D01*
X138100000Y-82971428D01*
X138157142Y-82914285D01*
X138271428Y-82885714D01*
X138471428Y-82885714D01*
X138585714Y-82914285D01*
X138642857Y-82971428D01*
X138671428Y-83028571D01*
X138671428Y-83142857D01*
X138671428Y-82314285D02*
X138671428Y-82657142D01*
X138671428Y-82485714D02*
X138071428Y-82485714D01*
X138157142Y-82542857D01*
X138214285Y-82600000D01*
X138242857Y-82657142D01*
G04 #@! TO.C,D1*
X174871428Y-94942857D02*
X174271428Y-94942857D01*
X174271428Y-94800000D01*
X174300000Y-94714285D01*
X174357142Y-94657142D01*
X174414285Y-94628571D01*
X174528571Y-94600000D01*
X174614285Y-94600000D01*
X174728571Y-94628571D01*
X174785714Y-94657142D01*
X174842857Y-94714285D01*
X174871428Y-94800000D01*
X174871428Y-94942857D01*
X174871428Y-94028571D02*
X174871428Y-94371428D01*
X174871428Y-94200000D02*
X174271428Y-94200000D01*
X174357142Y-94257142D01*
X174414285Y-94314285D01*
X174442857Y-94371428D01*
G04 #@! TO.C,D2*
X113157142Y-104771428D02*
X113157142Y-104171428D01*
X113300000Y-104171428D01*
X113385714Y-104200000D01*
X113442857Y-104257142D01*
X113471428Y-104314285D01*
X113500000Y-104428571D01*
X113500000Y-104514285D01*
X113471428Y-104628571D01*
X113442857Y-104685714D01*
X113385714Y-104742857D01*
X113300000Y-104771428D01*
X113157142Y-104771428D01*
X113728571Y-104228571D02*
X113757142Y-104200000D01*
X113814285Y-104171428D01*
X113957142Y-104171428D01*
X114014285Y-104200000D01*
X114042857Y-104228571D01*
X114071428Y-104285714D01*
X114071428Y-104342857D01*
X114042857Y-104428571D01*
X113700000Y-104771428D01*
X114071428Y-104771428D01*
G04 #@! TO.C,U15*
X154657142Y-67271428D02*
X154657142Y-67757142D01*
X154685714Y-67814285D01*
X154714285Y-67842857D01*
X154771428Y-67871428D01*
X154885714Y-67871428D01*
X154942857Y-67842857D01*
X154971428Y-67814285D01*
X155000000Y-67757142D01*
X155000000Y-67271428D01*
X155600000Y-67871428D02*
X155257142Y-67871428D01*
X155428571Y-67871428D02*
X155428571Y-67271428D01*
X155371428Y-67357142D01*
X155314285Y-67414285D01*
X155257142Y-67442857D01*
X156142857Y-67271428D02*
X155857142Y-67271428D01*
X155828571Y-67557142D01*
X155857142Y-67528571D01*
X155914285Y-67500000D01*
X156057142Y-67500000D01*
X156114285Y-67528571D01*
X156142857Y-67557142D01*
X156171428Y-67614285D01*
X156171428Y-67757142D01*
X156142857Y-67814285D01*
X156114285Y-67842857D01*
X156057142Y-67871428D01*
X155914285Y-67871428D01*
X155857142Y-67842857D01*
X155828571Y-67814285D01*
G04 #@! TO.C,J1*
X134300000Y-68371428D02*
X134300000Y-68800000D01*
X134271428Y-68885714D01*
X134214285Y-68942857D01*
X134128571Y-68971428D01*
X134071428Y-68971428D01*
X134900000Y-68971428D02*
X134557142Y-68971428D01*
X134728571Y-68971428D02*
X134728571Y-68371428D01*
X134671428Y-68457142D01*
X134614285Y-68514285D01*
X134557142Y-68542857D01*
G04 #@! TO.C,U12*
X145257142Y-76471428D02*
X145257142Y-76957142D01*
X145285714Y-77014285D01*
X145314285Y-77042857D01*
X145371428Y-77071428D01*
X145485714Y-77071428D01*
X145542857Y-77042857D01*
X145571428Y-77014285D01*
X145600000Y-76957142D01*
X145600000Y-76471428D01*
X146200000Y-77071428D02*
X145857142Y-77071428D01*
X146028571Y-77071428D02*
X146028571Y-76471428D01*
X145971428Y-76557142D01*
X145914285Y-76614285D01*
X145857142Y-76642857D01*
X146428571Y-76528571D02*
X146457142Y-76500000D01*
X146514285Y-76471428D01*
X146657142Y-76471428D01*
X146714285Y-76500000D01*
X146742857Y-76528571D01*
X146771428Y-76585714D01*
X146771428Y-76642857D01*
X146742857Y-76728571D01*
X146400000Y-77071428D01*
X146771428Y-77071428D01*
G04 #@! TO.C,U11*
X150457142Y-74671428D02*
X150457142Y-75157142D01*
X150485714Y-75214285D01*
X150514285Y-75242857D01*
X150571428Y-75271428D01*
X150685714Y-75271428D01*
X150742857Y-75242857D01*
X150771428Y-75214285D01*
X150800000Y-75157142D01*
X150800000Y-74671428D01*
X151400000Y-75271428D02*
X151057142Y-75271428D01*
X151228571Y-75271428D02*
X151228571Y-74671428D01*
X151171428Y-74757142D01*
X151114285Y-74814285D01*
X151057142Y-74842857D01*
X151971428Y-75271428D02*
X151628571Y-75271428D01*
X151800000Y-75271428D02*
X151800000Y-74671428D01*
X151742857Y-74757142D01*
X151685714Y-74814285D01*
X151628571Y-74842857D01*
G04 #@! TO.C,U3*
X128642857Y-69071428D02*
X128642857Y-69557142D01*
X128671428Y-69614285D01*
X128700000Y-69642857D01*
X128757142Y-69671428D01*
X128871428Y-69671428D01*
X128928571Y-69642857D01*
X128957142Y-69614285D01*
X128985714Y-69557142D01*
X128985714Y-69071428D01*
X129214285Y-69071428D02*
X129585714Y-69071428D01*
X129385714Y-69300000D01*
X129471428Y-69300000D01*
X129528571Y-69328571D01*
X129557142Y-69357142D01*
X129585714Y-69414285D01*
X129585714Y-69557142D01*
X129557142Y-69614285D01*
X129528571Y-69642857D01*
X129471428Y-69671428D01*
X129300000Y-69671428D01*
X129242857Y-69642857D01*
X129214285Y-69614285D01*
G04 #@! TO.C,U4*
X173142857Y-75571428D02*
X173142857Y-76057142D01*
X173171428Y-76114285D01*
X173200000Y-76142857D01*
X173257142Y-76171428D01*
X173371428Y-76171428D01*
X173428571Y-76142857D01*
X173457142Y-76114285D01*
X173485714Y-76057142D01*
X173485714Y-75571428D01*
X174028571Y-75771428D02*
X174028571Y-76171428D01*
X173885714Y-75542857D02*
X173742857Y-75971428D01*
X174114285Y-75971428D01*
G04 #@! TO.C,C59*
X144714285Y-89385714D02*
X144742857Y-89414285D01*
X144771428Y-89500000D01*
X144771428Y-89557142D01*
X144742857Y-89642857D01*
X144685714Y-89700000D01*
X144628571Y-89728571D01*
X144514285Y-89757142D01*
X144428571Y-89757142D01*
X144314285Y-89728571D01*
X144257142Y-89700000D01*
X144200000Y-89642857D01*
X144171428Y-89557142D01*
X144171428Y-89500000D01*
X144200000Y-89414285D01*
X144228571Y-89385714D01*
X144171428Y-88842857D02*
X144171428Y-89128571D01*
X144457142Y-89157142D01*
X144428571Y-89128571D01*
X144400000Y-89071428D01*
X144400000Y-88928571D01*
X144428571Y-88871428D01*
X144457142Y-88842857D01*
X144514285Y-88814285D01*
X144657142Y-88814285D01*
X144714285Y-88842857D01*
X144742857Y-88871428D01*
X144771428Y-88928571D01*
X144771428Y-89071428D01*
X144742857Y-89128571D01*
X144714285Y-89157142D01*
X144771428Y-88528571D02*
X144771428Y-88414285D01*
X144742857Y-88357142D01*
X144714285Y-88328571D01*
X144628571Y-88271428D01*
X144514285Y-88242857D01*
X144285714Y-88242857D01*
X144228571Y-88271428D01*
X144200000Y-88300000D01*
X144171428Y-88357142D01*
X144171428Y-88471428D01*
X144200000Y-88528571D01*
X144228571Y-88557142D01*
X144285714Y-88585714D01*
X144428571Y-88585714D01*
X144485714Y-88557142D01*
X144514285Y-88528571D01*
X144542857Y-88471428D01*
X144542857Y-88357142D01*
X144514285Y-88300000D01*
X144485714Y-88271428D01*
X144428571Y-88242857D01*
X144981428Y-93660952D02*
X144981428Y-92899047D01*
X145362380Y-93280000D02*
X144600476Y-93280000D01*
G04 #@! TO.C,U17*
X100757142Y-99171428D02*
X100757142Y-99657142D01*
X100785714Y-99714285D01*
X100814285Y-99742857D01*
X100871428Y-99771428D01*
X100985714Y-99771428D01*
X101042857Y-99742857D01*
X101071428Y-99714285D01*
X101100000Y-99657142D01*
X101100000Y-99171428D01*
X101700000Y-99771428D02*
X101357142Y-99771428D01*
X101528571Y-99771428D02*
X101528571Y-99171428D01*
X101471428Y-99257142D01*
X101414285Y-99314285D01*
X101357142Y-99342857D01*
X101900000Y-99171428D02*
X102300000Y-99171428D01*
X102042857Y-99771428D01*
G04 #@! TO.C,R60*
X143614285Y-85171428D02*
X143414285Y-84885714D01*
X143271428Y-85171428D02*
X143271428Y-84571428D01*
X143500000Y-84571428D01*
X143557142Y-84600000D01*
X143585714Y-84628571D01*
X143614285Y-84685714D01*
X143614285Y-84771428D01*
X143585714Y-84828571D01*
X143557142Y-84857142D01*
X143500000Y-84885714D01*
X143271428Y-84885714D01*
X144128571Y-84571428D02*
X144014285Y-84571428D01*
X143957142Y-84600000D01*
X143928571Y-84628571D01*
X143871428Y-84714285D01*
X143842857Y-84828571D01*
X143842857Y-85057142D01*
X143871428Y-85114285D01*
X143900000Y-85142857D01*
X143957142Y-85171428D01*
X144071428Y-85171428D01*
X144128571Y-85142857D01*
X144157142Y-85114285D01*
X144185714Y-85057142D01*
X144185714Y-84914285D01*
X144157142Y-84857142D01*
X144128571Y-84828571D01*
X144071428Y-84800000D01*
X143957142Y-84800000D01*
X143900000Y-84828571D01*
X143871428Y-84857142D01*
X143842857Y-84914285D01*
X144557142Y-84571428D02*
X144614285Y-84571428D01*
X144671428Y-84600000D01*
X144700000Y-84628571D01*
X144728571Y-84685714D01*
X144757142Y-84800000D01*
X144757142Y-84942857D01*
X144728571Y-85057142D01*
X144700000Y-85114285D01*
X144671428Y-85142857D01*
X144614285Y-85171428D01*
X144557142Y-85171428D01*
X144500000Y-85142857D01*
X144471428Y-85114285D01*
X144442857Y-85057142D01*
X144414285Y-84942857D01*
X144414285Y-84800000D01*
X144442857Y-84685714D01*
X144471428Y-84628571D01*
X144500000Y-84600000D01*
X144557142Y-84571428D01*
G04 #@! TO.C,Q14*
X155657142Y-104428571D02*
X155600000Y-104400000D01*
X155542857Y-104342857D01*
X155457142Y-104257142D01*
X155400000Y-104228571D01*
X155342857Y-104228571D01*
X155371428Y-104371428D02*
X155314285Y-104342857D01*
X155257142Y-104285714D01*
X155228571Y-104171428D01*
X155228571Y-103971428D01*
X155257142Y-103857142D01*
X155314285Y-103800000D01*
X155371428Y-103771428D01*
X155485714Y-103771428D01*
X155542857Y-103800000D01*
X155600000Y-103857142D01*
X155628571Y-103971428D01*
X155628571Y-104171428D01*
X155600000Y-104285714D01*
X155542857Y-104342857D01*
X155485714Y-104371428D01*
X155371428Y-104371428D01*
X156200000Y-104371428D02*
X155857142Y-104371428D01*
X156028571Y-104371428D02*
X156028571Y-103771428D01*
X155971428Y-103857142D01*
X155914285Y-103914285D01*
X155857142Y-103942857D01*
X156714285Y-103971428D02*
X156714285Y-104371428D01*
X156571428Y-103742857D02*
X156428571Y-104171428D01*
X156800000Y-104171428D01*
G04 #@! TO.C,R58*
X134014285Y-92271428D02*
X133814285Y-91985714D01*
X133671428Y-92271428D02*
X133671428Y-91671428D01*
X133900000Y-91671428D01*
X133957142Y-91700000D01*
X133985714Y-91728571D01*
X134014285Y-91785714D01*
X134014285Y-91871428D01*
X133985714Y-91928571D01*
X133957142Y-91957142D01*
X133900000Y-91985714D01*
X133671428Y-91985714D01*
X134557142Y-91671428D02*
X134271428Y-91671428D01*
X134242857Y-91957142D01*
X134271428Y-91928571D01*
X134328571Y-91900000D01*
X134471428Y-91900000D01*
X134528571Y-91928571D01*
X134557142Y-91957142D01*
X134585714Y-92014285D01*
X134585714Y-92157142D01*
X134557142Y-92214285D01*
X134528571Y-92242857D01*
X134471428Y-92271428D01*
X134328571Y-92271428D01*
X134271428Y-92242857D01*
X134242857Y-92214285D01*
X134928571Y-91928571D02*
X134871428Y-91900000D01*
X134842857Y-91871428D01*
X134814285Y-91814285D01*
X134814285Y-91785714D01*
X134842857Y-91728571D01*
X134871428Y-91700000D01*
X134928571Y-91671428D01*
X135042857Y-91671428D01*
X135100000Y-91700000D01*
X135128571Y-91728571D01*
X135157142Y-91785714D01*
X135157142Y-91814285D01*
X135128571Y-91871428D01*
X135100000Y-91900000D01*
X135042857Y-91928571D01*
X134928571Y-91928571D01*
X134871428Y-91957142D01*
X134842857Y-91985714D01*
X134814285Y-92042857D01*
X134814285Y-92157142D01*
X134842857Y-92214285D01*
X134871428Y-92242857D01*
X134928571Y-92271428D01*
X135042857Y-92271428D01*
X135100000Y-92242857D01*
X135128571Y-92214285D01*
X135157142Y-92157142D01*
X135157142Y-92042857D01*
X135128571Y-91985714D01*
X135100000Y-91957142D01*
X135042857Y-91928571D01*
G04 #@! TO.C,R57*
X141971428Y-81885714D02*
X141685714Y-82085714D01*
X141971428Y-82228571D02*
X141371428Y-82228571D01*
X141371428Y-82000000D01*
X141400000Y-81942857D01*
X141428571Y-81914285D01*
X141485714Y-81885714D01*
X141571428Y-81885714D01*
X141628571Y-81914285D01*
X141657142Y-81942857D01*
X141685714Y-82000000D01*
X141685714Y-82228571D01*
X141371428Y-81342857D02*
X141371428Y-81628571D01*
X141657142Y-81657142D01*
X141628571Y-81628571D01*
X141600000Y-81571428D01*
X141600000Y-81428571D01*
X141628571Y-81371428D01*
X141657142Y-81342857D01*
X141714285Y-81314285D01*
X141857142Y-81314285D01*
X141914285Y-81342857D01*
X141942857Y-81371428D01*
X141971428Y-81428571D01*
X141971428Y-81571428D01*
X141942857Y-81628571D01*
X141914285Y-81657142D01*
X141371428Y-81114285D02*
X141371428Y-80714285D01*
X141971428Y-80971428D01*
G04 #@! TD*
M02*
