G04 #@! TF.GenerationSoftware,KiCad,Pcbnew,6.0.0-rc1-unknown-8ecdf58~84~ubuntu16.04.1*
G04 #@! TF.CreationDate,2018-10-22T17:09:18+08:00*
G04 #@! TF.ProjectId,ovc2_stereo,6F7663325F73746572656F2E6B696361,rev?*
G04 #@! TF.SameCoordinates,Original*
G04 #@! TF.FileFunction,Copper,L3,Inr*
G04 #@! TF.FilePolarity,Positive*
%FSLAX46Y46*%
G04 Gerber Fmt 4.6, Leading zero omitted, Abs format (unit mm)*
G04 Created by KiCad (PCBNEW 6.0.0-rc1-unknown-8ecdf58~84~ubuntu16.04.1) date Mon 22 Oct 2018 05:09:18 PM +08*
%MOMM*%
%LPD*%
G01*
G04 APERTURE LIST*
G04 #@! TA.AperFunction,ViaPad*
%ADD10C,1.450000*%
G04 #@! TD*
G04 #@! TA.AperFunction,ViaPad*
%ADD11C,2.550000*%
G04 #@! TD*
G04 #@! TA.AperFunction,ViaPad*
%ADD12O,1.700000X1.700000*%
G04 #@! TD*
G04 #@! TA.AperFunction,ViaPad*
%ADD13C,1.700000*%
G04 #@! TD*
G04 #@! TA.AperFunction,ViaPad*
%ADD14O,0.800000X1.300000*%
G04 #@! TD*
G04 #@! TA.AperFunction,Conductor*
%ADD15C,0.100000*%
G04 #@! TD*
G04 #@! TA.AperFunction,ViaPad*
%ADD16C,0.800000*%
G04 #@! TD*
G04 #@! TA.AperFunction,ViaPad*
%ADD17O,1.000000X1.000000*%
G04 #@! TD*
G04 #@! TA.AperFunction,ViaPad*
%ADD18C,1.000000*%
G04 #@! TD*
G04 #@! TA.AperFunction,ViaPad*
%ADD19C,1.850000*%
G04 #@! TD*
G04 #@! TA.AperFunction,ViaPad*
%ADD20C,1.530000*%
G04 #@! TD*
G04 #@! TA.AperFunction,ViaPad*
%ADD21C,4.000000*%
G04 #@! TD*
G04 #@! TA.AperFunction,ViaPad*
%ADD22C,0.406400*%
G04 #@! TD*
G04 #@! TA.AperFunction,ViaPad*
%ADD23C,0.508000*%
G04 #@! TD*
G04 #@! TA.AperFunction,ViaPad*
%ADD24C,0.510000*%
G04 #@! TD*
G04 #@! TA.AperFunction,Conductor*
%ADD25C,0.508000*%
G04 #@! TD*
G04 #@! TA.AperFunction,Conductor*
%ADD26C,0.178000*%
G04 #@! TD*
G04 #@! TA.AperFunction,Conductor*
%ADD27C,0.254000*%
G04 #@! TD*
G04 #@! TA.AperFunction,Conductor*
%ADD28C,0.177800*%
G04 #@! TD*
G04 #@! TA.AperFunction,Conductor*
%ADD29C,0.203200*%
G04 #@! TD*
G04 #@! TA.AperFunction,Conductor*
%ADD30C,0.152400*%
G04 #@! TD*
G04 #@! TA.AperFunction,Conductor*
%ADD31C,0.180000*%
G04 #@! TD*
G04 APERTURE END LIST*
D10*
G04 #@! TO.N,GND*
G04 #@! TO.C,J9*
X189320000Y-83630000D03*
X207320000Y-87630000D03*
D11*
X208320000Y-85630000D03*
X188320000Y-85630000D03*
G04 #@! TD*
D10*
G04 #@! TO.N,GND*
G04 #@! TO.C,J8*
X69320000Y-83630000D03*
X87320000Y-87630000D03*
D11*
X88320000Y-85630000D03*
X68320000Y-85630000D03*
G04 #@! TD*
D12*
G04 #@! TO.N,FPGA_TCK*
G04 #@! TO.C,J6*
X95940000Y-73480000D03*
G04 #@! TO.N,GND*
X93400000Y-73480000D03*
G04 #@! TO.N,+1V8*
X95940000Y-70940000D03*
G04 #@! TO.N,FPGA_TDO*
X93400000Y-70940000D03*
G04 #@! TO.N,FPGA_TMS*
X95940000Y-68400000D03*
D13*
G04 #@! TO.N,FPGA_TDI*
X93400000Y-68400000D03*
G04 #@! TD*
D12*
G04 #@! TO.N,IMU_SCK_3V3*
G04 #@! TO.C,J12*
X182840000Y-76020000D03*
G04 #@! TO.N,IMU_MOSI_3V3*
X180300000Y-76020000D03*
G04 #@! TO.N,IMU_MISO_3V3*
X182840000Y-73480000D03*
G04 #@! TO.N,IMU_NRST_3V3*
X180300000Y-73480000D03*
G04 #@! TO.N,IMU_CS_3V3*
X182840000Y-70940000D03*
G04 #@! TO.N,IMU_SYNC_IN_3V3*
X180300000Y-70940000D03*
G04 #@! TO.N,GND*
X182840000Y-68400000D03*
D13*
G04 #@! TO.N,IMU_SYNC_OUT_3V3*
X180300000Y-68400000D03*
G04 #@! TD*
D12*
G04 #@! TO.N,GND*
G04 #@! TO.C,J13*
X200380000Y-68800000D03*
G04 #@! TO.N,+1V8*
X197840000Y-68800000D03*
D13*
G04 #@! TO.N,+3V3*
X195300000Y-68800000D03*
G04 #@! TD*
D12*
G04 #@! TO.N,GND*
G04 #@! TO.C,J3*
X145920000Y-81100000D03*
G04 #@! TO.N,IMU_RX2_3V3*
X148460000Y-81100000D03*
D13*
G04 #@! TO.N,IMU_TX2_3V3*
X151000000Y-81100000D03*
G04 #@! TD*
D14*
G04 #@! TO.N,GND*
G04 #@! TO.C,J11*
X143750000Y-65700000D03*
G04 #@! TO.N,+5V*
X142500000Y-65700000D03*
G04 #@! TO.N,FAN_TACH*
X141250000Y-65700000D03*
D15*
G04 #@! TO.N,Net-(J11-Pad1)*
G36*
X140219603Y-65050963D02*
X140239018Y-65053843D01*
X140258057Y-65058612D01*
X140276537Y-65065224D01*
X140294279Y-65073616D01*
X140311114Y-65083706D01*
X140326879Y-65095398D01*
X140341421Y-65108579D01*
X140354602Y-65123121D01*
X140366294Y-65138886D01*
X140376384Y-65155721D01*
X140384776Y-65173463D01*
X140391388Y-65191943D01*
X140396157Y-65210982D01*
X140399037Y-65230397D01*
X140400000Y-65250000D01*
X140400000Y-66150000D01*
X140399037Y-66169603D01*
X140396157Y-66189018D01*
X140391388Y-66208057D01*
X140384776Y-66226537D01*
X140376384Y-66244279D01*
X140366294Y-66261114D01*
X140354602Y-66276879D01*
X140341421Y-66291421D01*
X140326879Y-66304602D01*
X140311114Y-66316294D01*
X140294279Y-66326384D01*
X140276537Y-66334776D01*
X140258057Y-66341388D01*
X140239018Y-66346157D01*
X140219603Y-66349037D01*
X140200000Y-66350000D01*
X139800000Y-66350000D01*
X139780397Y-66349037D01*
X139760982Y-66346157D01*
X139741943Y-66341388D01*
X139723463Y-66334776D01*
X139705721Y-66326384D01*
X139688886Y-66316294D01*
X139673121Y-66304602D01*
X139658579Y-66291421D01*
X139645398Y-66276879D01*
X139633706Y-66261114D01*
X139623616Y-66244279D01*
X139615224Y-66226537D01*
X139608612Y-66208057D01*
X139603843Y-66189018D01*
X139600963Y-66169603D01*
X139600000Y-66150000D01*
X139600000Y-65250000D01*
X139600963Y-65230397D01*
X139603843Y-65210982D01*
X139608612Y-65191943D01*
X139615224Y-65173463D01*
X139623616Y-65155721D01*
X139633706Y-65138886D01*
X139645398Y-65123121D01*
X139658579Y-65108579D01*
X139673121Y-65095398D01*
X139688886Y-65083706D01*
X139705721Y-65073616D01*
X139723463Y-65065224D01*
X139741943Y-65058612D01*
X139760982Y-65053843D01*
X139780397Y-65050963D01*
X139800000Y-65050000D01*
X140200000Y-65050000D01*
X140219603Y-65050963D01*
X140219603Y-65050963D01*
G37*
D16*
X140000000Y-65700000D03*
G04 #@! TD*
D17*
G04 #@! TO.N,GND*
G04 #@! TO.C,J4*
X133030000Y-65000000D03*
G04 #@! TO.N,+1V8*
X131760000Y-65000000D03*
G04 #@! TO.N,/fpga_io/LSEXP_23*
X130490000Y-65000000D03*
G04 #@! TO.N,/fpga_io/LSEXP_22*
X129220000Y-65000000D03*
G04 #@! TO.N,/fpga_io/LSEXP_21*
X127950000Y-65000000D03*
G04 #@! TO.N,/fpga_io/LSEXP_20*
X126680000Y-65000000D03*
G04 #@! TO.N,/fpga_io/LSEXP_19*
X125410000Y-65000000D03*
G04 #@! TO.N,/fpga_io/LSEXP_18*
X124140000Y-65000000D03*
G04 #@! TO.N,/fpga_io/LSEXP_17*
X122870000Y-65000000D03*
G04 #@! TO.N,/fpga_io/LSEXP_16*
X121600000Y-65000000D03*
G04 #@! TO.N,GND*
X120330000Y-65000000D03*
G04 #@! TO.N,/fpga_io/LSEXP_15*
X119060000Y-65000000D03*
G04 #@! TO.N,/fpga_io/LSEXP_14*
X117790000Y-65000000D03*
G04 #@! TO.N,/fpga_io/LSEXP_13*
X116520000Y-65000000D03*
G04 #@! TO.N,/fpga_io/LSEXP_12*
X115250000Y-65000000D03*
G04 #@! TO.N,/fpga_io/LSEXP_11*
X113980000Y-65000000D03*
G04 #@! TO.N,/fpga_io/LSEXP_10*
X112710000Y-65000000D03*
G04 #@! TO.N,/fpga_io/LSEXP_9*
X111440000Y-65000000D03*
G04 #@! TO.N,/fpga_io/LSEXP_8*
X110170000Y-65000000D03*
G04 #@! TO.N,GND*
X108900000Y-65000000D03*
G04 #@! TO.N,/fpga_io/LSEXP_7*
X107630000Y-65000000D03*
G04 #@! TO.N,/fpga_io/LSEXP_6*
X106360000Y-65000000D03*
G04 #@! TO.N,/fpga_io/LSEXP_5*
X105090000Y-65000000D03*
G04 #@! TO.N,/fpga_io/LSEXP_4*
X103820000Y-65000000D03*
G04 #@! TO.N,/fpga_io/LSEXP_3*
X102550000Y-65000000D03*
G04 #@! TO.N,/fpga_io/LSEXP_2*
X101280000Y-65000000D03*
G04 #@! TO.N,/fpga_io/LSEXP_1*
X100010000Y-65000000D03*
G04 #@! TO.N,/fpga_io/LSEXP_0*
X98740000Y-65000000D03*
G04 #@! TO.N,+1V8*
X97470000Y-65000000D03*
D18*
G04 #@! TO.N,GND*
X96200000Y-65000000D03*
G04 #@! TD*
D12*
G04 #@! TO.N,GND*
G04 #@! TO.C,J10*
X84060000Y-68800000D03*
G04 #@! TO.N,/fpga_io/AUXIO_IN2_3V3*
X81520000Y-68800000D03*
G04 #@! TO.N,/fpga_io/AUXIO_IN1_3V3*
X78980000Y-68800000D03*
G04 #@! TO.N,/fpga_io/AUXIO_OUT1_3V3*
X76440000Y-68800000D03*
D13*
G04 #@! TO.N,/fpga_io/AUXIO_OUT2_3V3*
X73900000Y-68800000D03*
G04 #@! TD*
D12*
G04 #@! TO.N,GND*
G04 #@! TO.C,J7*
X84060000Y-105200000D03*
G04 #@! TO.N,/fpga_io/AUXOUT3_3V3*
X81520000Y-105200000D03*
G04 #@! TO.N,/fpga_io/AUXOUT2_3V3*
X78980000Y-105200000D03*
G04 #@! TO.N,/fpga_io/AUXOUT1_3V3*
X76440000Y-105200000D03*
D13*
G04 #@! TO.N,+3V3*
X73900000Y-105200000D03*
G04 #@! TD*
D12*
G04 #@! TO.N,FPGA_NSTATUS*
G04 #@! TO.C,J5*
X98580000Y-102960000D03*
G04 #@! TO.N,FPGA_CONFIG_DATA0*
X98580000Y-105500000D03*
G04 #@! TO.N,FPGA_NCONFIG*
X96040000Y-102960000D03*
G04 #@! TO.N,FPGA_CONFIG_DCLK*
X96040000Y-105500000D03*
G04 #@! TO.N,FPGA_CONF_DONE*
X93500000Y-102960000D03*
D13*
G04 #@! TO.N,GND*
X93500000Y-105500000D03*
G04 #@! TD*
D19*
G04 #@! TO.N,N/C*
G04 #@! TO.C,J1*
X136000000Y-71100000D03*
X136000000Y-89900000D03*
G04 #@! TD*
D20*
G04 #@! TO.N,GND*
G04 #@! TO.C,J2*
X126350000Y-102000000D03*
X102650000Y-102000000D03*
G04 #@! TD*
D21*
G04 #@! TO.N,GND*
X69000000Y-104000000D03*
D22*
X103500000Y-81500000D03*
X105500000Y-81500000D03*
D23*
X131200000Y-85700000D03*
X131200000Y-88100000D03*
D22*
X126500000Y-88500000D03*
X127500000Y-89500000D03*
X125500000Y-92500000D03*
X126500000Y-93500000D03*
X126500000Y-91500000D03*
X125500000Y-90500000D03*
X124500000Y-91500000D03*
X124500000Y-93500000D03*
X123500000Y-92500000D03*
X122500000Y-91500000D03*
X122500000Y-92500000D03*
X122500000Y-93500000D03*
X123500000Y-93500000D03*
X127500000Y-92500000D03*
X124500000Y-82500030D03*
X127500018Y-83500000D03*
X126500000Y-79500000D03*
X123500000Y-90500000D03*
X124500000Y-87500000D03*
X125500000Y-84500000D03*
X124500000Y-89500000D03*
X121500000Y-90500000D03*
X121500000Y-91500000D03*
X120500000Y-89500000D03*
X120500000Y-90500000D03*
X120500000Y-91500000D03*
X121500000Y-88500000D03*
X130800000Y-83500000D03*
X133400000Y-78500000D03*
X133400000Y-76100000D03*
X125500000Y-70500000D03*
X128000000Y-73000000D03*
X124500000Y-71500000D03*
X125500000Y-75500000D03*
X123500000Y-74500000D03*
X124500000Y-68500000D03*
X119500000Y-69500000D03*
X121500000Y-70500000D03*
X122500000Y-71500000D03*
X119500000Y-71500000D03*
X117500000Y-70500000D03*
X133500000Y-73500000D03*
X121500000Y-73500000D03*
X120500000Y-73500000D03*
X120500000Y-74500000D03*
X121500000Y-74500000D03*
X117500000Y-72500000D03*
X115500000Y-72500000D03*
X115500000Y-70500000D03*
X123500000Y-80500000D03*
X110500000Y-74500000D03*
X109500000Y-77500000D03*
X108500000Y-76500000D03*
X108500000Y-77500000D03*
X108500000Y-78500000D03*
X112500000Y-75500000D03*
X112500000Y-77500000D03*
X113500000Y-74500000D03*
X115500000Y-74500000D03*
X115500000Y-76500000D03*
X118500000Y-75500000D03*
X118500000Y-74500000D03*
X119500000Y-76500000D03*
X118500000Y-76500000D03*
X120500000Y-76500000D03*
X121500000Y-76500000D03*
X120500000Y-75500000D03*
X121500000Y-77500000D03*
X116500000Y-79500000D03*
X117500000Y-79500000D03*
X117500000Y-78500000D03*
X113500000Y-78500000D03*
X112500000Y-81500000D03*
X107500000Y-77500000D03*
X112500000Y-82500000D03*
X114500000Y-81500000D03*
X114500000Y-83500000D03*
X112500000Y-86500000D03*
X110500000Y-84500000D03*
X116500000Y-85500000D03*
X118500000Y-79500000D03*
X119500000Y-79500000D03*
X119500000Y-77500000D03*
X120500000Y-77500000D03*
X117500000Y-83500000D03*
X120500000Y-84500000D03*
X118500000Y-80500000D03*
X116500000Y-74500000D03*
X109500000Y-72500000D03*
X109500000Y-73500000D03*
X107500000Y-71500000D03*
X107500000Y-70500000D03*
X106500000Y-70500000D03*
X106500000Y-72500000D03*
X104500000Y-72500000D03*
X103500000Y-71500000D03*
X102500000Y-72500000D03*
X104500000Y-69500000D03*
X104500000Y-74500000D03*
X108500000Y-69500000D03*
X104500000Y-84500000D03*
X119500000Y-91500000D03*
X120500000Y-92500000D03*
X117500000Y-92500000D03*
X120500000Y-93500000D03*
X122100000Y-98800000D03*
X119700000Y-98800000D03*
X124500000Y-98800000D03*
X117300000Y-98800000D03*
X114900000Y-98800000D03*
X112500000Y-98800000D03*
X110100000Y-98800000D03*
X107700000Y-98800000D03*
X105300000Y-98800000D03*
X104500000Y-98800000D03*
X104500000Y-104200000D03*
X115500000Y-92500000D03*
X116500000Y-90500000D03*
X119500000Y-90500000D03*
X114500000Y-93500000D03*
X118500000Y-93500000D03*
X115500000Y-90500000D03*
X113500000Y-90500000D03*
X111500000Y-93500000D03*
X112500000Y-92500000D03*
X109500000Y-92500000D03*
X108500000Y-93500000D03*
X108500000Y-92500000D03*
X109500000Y-91500000D03*
X110500000Y-91500000D03*
X110500000Y-90500000D03*
X109500000Y-90500000D03*
X112500000Y-88500000D03*
X114500000Y-87500000D03*
X115500000Y-87500000D03*
X116500000Y-87500000D03*
X116500000Y-88500000D03*
X119500000Y-89500000D03*
X119500000Y-88500000D03*
X106500000Y-93500000D03*
X103500000Y-92500000D03*
X102500000Y-92500000D03*
X103500000Y-91500000D03*
X110500000Y-88500000D03*
X109500000Y-88500000D03*
X111500000Y-90500000D03*
X104500000Y-91500000D03*
X107500000Y-92500000D03*
X108500000Y-91500000D03*
X105500000Y-91500000D03*
X105500000Y-90500000D03*
X106500000Y-90500000D03*
X107500000Y-89500000D03*
X104500000Y-90500000D03*
X103500000Y-89500000D03*
X103500000Y-90500000D03*
X104500000Y-92500000D03*
X102500000Y-88500000D03*
X103500000Y-88500000D03*
X104500000Y-89500000D03*
X106500000Y-89500000D03*
X105500000Y-89500000D03*
X106500000Y-88500000D03*
D23*
X106900000Y-104200000D03*
D22*
X111700000Y-104200000D03*
X116500000Y-104200000D03*
X106500000Y-75500000D03*
X111500000Y-69500000D03*
D23*
X134500000Y-85600000D03*
D22*
X101500000Y-82500000D03*
X110500000Y-80500000D03*
X118500000Y-81500000D03*
X117500000Y-80500000D03*
X118500000Y-89500000D03*
X120500000Y-79500000D03*
X119500000Y-81500000D03*
X119500000Y-84500000D03*
X117500000Y-82500000D03*
X118500000Y-85500000D03*
X105500000Y-86500000D03*
X103500000Y-86500000D03*
X111500000Y-74500000D03*
X114500000Y-74500000D03*
X117500000Y-74500000D03*
X109500000Y-81500000D03*
X109500000Y-83500000D03*
X109500000Y-86500000D03*
X113500000Y-69500000D03*
X104500000Y-79500000D03*
X120500000Y-86500000D03*
D23*
X159000000Y-77500000D03*
X169500000Y-94500000D03*
X175500000Y-99500000D03*
X169500000Y-98500000D03*
X172800000Y-98700000D03*
X174700000Y-98700000D03*
X170800000Y-99500000D03*
X172100000Y-101000000D03*
X172100000Y-99900000D03*
X173700000Y-99600000D03*
X169500000Y-101500000D03*
X166000000Y-96500000D03*
X164000000Y-98500000D03*
X161500000Y-101000000D03*
X163200000Y-99600000D03*
X161499998Y-99600000D03*
X144100000Y-86500000D03*
X153500000Y-92500000D03*
X157000000Y-100600000D03*
X137200000Y-98500000D03*
X152000000Y-104700000D03*
X152000000Y-106000000D03*
X153400000Y-106000000D03*
X153400000Y-104700000D03*
X149000000Y-100000000D03*
X151900000Y-94500000D03*
X153500000Y-94500000D03*
X131900000Y-94500000D03*
X139600000Y-88400010D03*
X149000000Y-98500000D03*
X137200000Y-96600000D03*
D22*
X126500000Y-76500000D03*
D23*
X86200000Y-84400000D03*
X86200000Y-81400000D03*
X86200000Y-91600000D03*
X84000000Y-90500000D03*
X83100000Y-79300000D03*
X81000304Y-79300000D03*
X79984318Y-79300000D03*
X78000000Y-79300000D03*
X76000000Y-79300000D03*
X70800014Y-86492000D03*
X70800000Y-91572000D03*
D21*
X69000000Y-70000000D03*
X89000000Y-70000000D03*
X89000000Y-104000000D03*
X188000000Y-104000000D03*
X188000000Y-70000000D03*
X208000000Y-70000000D03*
X208000000Y-104000000D03*
D23*
X96100000Y-99200000D03*
X100799994Y-98800000D03*
X72700000Y-79300000D03*
X81400000Y-90600000D03*
X80000000Y-81600000D03*
X75900000Y-84900000D03*
X74600000Y-91200000D03*
X67400000Y-78000000D03*
X70300000Y-78000000D03*
D22*
X103500000Y-76500000D03*
X102500000Y-77500000D03*
X105500000Y-77500000D03*
D24*
X93600000Y-79200000D03*
X93600000Y-81700000D03*
X95900000Y-97900000D03*
X92800000Y-98100000D03*
D22*
X96700000Y-95600000D03*
X95600000Y-91650000D03*
X96800000Y-93000000D03*
D23*
X84000000Y-86500000D03*
D24*
X140700000Y-85950000D03*
X139100000Y-84300000D03*
X138450000Y-81150000D03*
X138500000Y-78649992D03*
D22*
X114700000Y-105300000D03*
D24*
X141550000Y-75050000D03*
X145800000Y-78700000D03*
X146000000Y-76050000D03*
X149200000Y-78800000D03*
X150000000Y-75200000D03*
D23*
X151700000Y-84199990D03*
D24*
X148200000Y-74100000D03*
X152900000Y-84200000D03*
X150500000Y-84200000D03*
D23*
X153500000Y-79200000D03*
D24*
X144700000Y-67300000D03*
X141600000Y-67900000D03*
X136200000Y-64900000D03*
D23*
X160300000Y-78100000D03*
X157900000Y-70900000D03*
X162900000Y-71500000D03*
X169400000Y-74300000D03*
X170600000Y-84400000D03*
X153400000Y-76300000D03*
D24*
X151100000Y-71400000D03*
D23*
X153700000Y-70600000D03*
X153400000Y-74500000D03*
X195900000Y-79200000D03*
X197900000Y-79200000D03*
X200000000Y-79200000D03*
X201000000Y-79200000D03*
X192900000Y-79200000D03*
X203100000Y-79200000D03*
X79200000Y-77400000D03*
D24*
X77900000Y-77700000D03*
X80400000Y-77700000D03*
D23*
X206300000Y-84400000D03*
X203900000Y-86500000D03*
X206300000Y-81400000D03*
X203900000Y-90500000D03*
X197900000Y-77500000D03*
X201100000Y-77500000D03*
X206300000Y-91600000D03*
X190700000Y-86500000D03*
X190700000Y-91800000D03*
X190600000Y-81900000D03*
X168800000Y-71500000D03*
X177600000Y-84300000D03*
X130400000Y-101000000D03*
X134800000Y-83400000D03*
D22*
X110500000Y-86500000D03*
D23*
X168600000Y-102600000D03*
D24*
X179100000Y-102500000D03*
X137600000Y-101200000D03*
X138400000Y-103200000D03*
D23*
G04 #@! TO.N,+3V3*
X176700000Y-99700000D03*
X178500000Y-96500000D03*
X178500000Y-98600000D03*
X178500000Y-101000000D03*
X172500000Y-104100000D03*
X171500000Y-94500000D03*
X174000000Y-94500000D03*
X171500000Y-98500000D03*
X160400000Y-94500000D03*
X75700000Y-84100000D03*
D16*
X84200000Y-74800000D03*
D23*
X67400000Y-80400000D03*
D24*
X93000000Y-80200000D03*
X148200000Y-75100000D03*
X142099988Y-78900000D03*
D16*
X132800000Y-72000000D03*
D23*
X169300000Y-77200000D03*
X171900000Y-84400000D03*
X172000000Y-73700000D03*
D24*
X152800000Y-70500000D03*
D23*
X90000000Y-83300000D03*
X90000000Y-81700000D03*
D24*
X192600000Y-74000000D03*
X194400000Y-74000000D03*
D23*
X205600000Y-96200000D03*
X207000000Y-96200000D03*
D22*
G04 #@! TO.N,FPGA_CONFIG_DCLK*
X102500000Y-70500000D03*
G04 #@! TO.N,PCIE_REFCLK-*
X105300000Y-104200000D03*
G04 #@! TO.N,PCIE_REFCLK+*
X106100000Y-104200000D03*
G04 #@! TO.N,PCIE_LANE0_RX-*
X111500000Y-91500000D03*
G04 #@! TO.N,PCIE_LANE0_RX+*
X112500000Y-91500000D03*
G04 #@! TO.N,PCIE_LANE1_RX-*
X113500000Y-91500000D03*
G04 #@! TO.N,PCIE_LANE1_RX+*
X114500000Y-91500000D03*
G04 #@! TO.N,PCIE_LANE1_TX-*
X110900000Y-98800000D03*
G04 #@! TO.N,PCIE_LANE1_TX+*
X111700000Y-98800000D03*
G04 #@! TO.N,PCIE_LANE0_TX-*
X106100000Y-98800000D03*
G04 #@! TO.N,PCIE_LANE0_TX+*
X106900000Y-98800000D03*
G04 #@! TO.N,FPGA_NCONFIG*
X108500000Y-73500000D03*
D24*
X115700000Y-104500000D03*
X101534269Y-104000000D03*
D22*
G04 #@! TO.N,FPGA_CONF_DONE*
X106500000Y-69500000D03*
D24*
X100700000Y-106466740D03*
D22*
G04 #@! TO.N,FPGA_NSTATUS*
X104500000Y-71500000D03*
D24*
X114900000Y-104500000D03*
D23*
G04 #@! TO.N,+12V*
X169900000Y-104600000D03*
X171000000Y-104600000D03*
X169900000Y-106000000D03*
X171000000Y-106000000D03*
X160000000Y-104600000D03*
X158500000Y-103400000D03*
X158500000Y-104600000D03*
X130400000Y-101900000D03*
X154900000Y-100400000D03*
X143000000Y-100000000D03*
X143000000Y-101300000D03*
X139600002Y-105000000D03*
X138600000Y-101200000D03*
X140100000Y-106000000D03*
X127800000Y-104200000D03*
D24*
X138500000Y-99700000D03*
D23*
G04 #@! TO.N,CAM2_CLKIN+*
X84000000Y-87500000D03*
X91348552Y-87148552D03*
G04 #@! TO.N,CAM2_CLKIN-*
X84000000Y-88500006D03*
X91851448Y-87651448D03*
D22*
G04 #@! TO.N,CAM2_CLKOUT+*
X102500000Y-87500000D03*
D23*
X73050400Y-92456000D03*
D22*
G04 #@! TO.N,CAM2_CLKOUT-*
X102500000Y-86500000D03*
D23*
X73761600Y-92456000D03*
D22*
G04 #@! TO.N,CAM1_CLKIN+*
X121500000Y-89500000D03*
D23*
X203900000Y-87500000D03*
G04 #@! TO.N,CAM1_CLKIN-*
X203900000Y-88500000D03*
D22*
X122500000Y-89500000D03*
D23*
G04 #@! TO.N,CAM1_CLKOUT+*
X193100000Y-92400000D03*
D22*
X124500000Y-85500000D03*
D23*
G04 #@! TO.N,CAM1_CLKOUT-*
X193800000Y-92400000D03*
D22*
X124500000Y-84500000D03*
G04 #@! TO.N,CAM2_DOUT3+*
X103500000Y-83500000D03*
D23*
X81178400Y-92456000D03*
D22*
G04 #@! TO.N,CAM2_DOUT3-*
X103500000Y-82500000D03*
D23*
X81889600Y-92456000D03*
D22*
G04 #@! TO.N,CAM2_DOUT2+*
X103500000Y-85500000D03*
D23*
X79146400Y-92456000D03*
D22*
G04 #@! TO.N,CAM2_DOUT2-*
X103500000Y-84500000D03*
D23*
X79857600Y-92456000D03*
G04 #@! TO.N,CAM2_DOUT1+*
X78234552Y-97787448D03*
X77114400Y-92456000D03*
G04 #@! TO.N,CAM2_DOUT1-*
X78737448Y-97284552D03*
X77825600Y-92456000D03*
G04 #@! TO.N,CAM2_DOUT0+*
X77726552Y-99565448D03*
X75082400Y-92456000D03*
G04 #@! TO.N,CAM2_DOUT0-*
X78229448Y-99062552D03*
X75793600Y-92456000D03*
D22*
G04 #@! TO.N,CAM1_DOUT3+*
X125500000Y-80500000D03*
D23*
X201903600Y-92400000D03*
G04 #@! TO.N,CAM1_DOUT3-*
X201192400Y-92400000D03*
D22*
X125500000Y-81500000D03*
G04 #@! TO.N,CAM1_DOUT2+*
X125500000Y-83500000D03*
D23*
X199160400Y-92400000D03*
D22*
G04 #@! TO.N,CAM1_DOUT2-*
X125500000Y-82500000D03*
D23*
X199871600Y-92400000D03*
D22*
G04 #@! TO.N,CAM1_DOUT1+*
X123500000Y-87500000D03*
D23*
X197128400Y-92400000D03*
D22*
G04 #@! TO.N,CAM1_DOUT1-*
X123500000Y-86500000D03*
D23*
X197839600Y-92400000D03*
D22*
G04 #@! TO.N,CAM1_DOUT0+*
X124500000Y-88500000D03*
D23*
X195096400Y-92400000D03*
D22*
G04 #@! TO.N,CAM1_DOUT0-*
X125500000Y-88500000D03*
D23*
X195807600Y-92400000D03*
G04 #@! TO.N,+1V8*
X158100000Y-98600000D03*
X158500000Y-94500000D03*
D22*
X121500000Y-83500000D03*
X123500000Y-78500000D03*
X123500000Y-83500000D03*
X137800000Y-75300000D03*
X137800000Y-74500000D03*
X124500000Y-76500000D03*
X109500000Y-78500000D03*
X116500000Y-78500000D03*
X112500000Y-78500000D03*
X109500000Y-79500000D03*
X116500000Y-84500000D03*
X111500000Y-83500000D03*
X106500000Y-76500000D03*
X121500000Y-82500000D03*
X108500000Y-86500000D03*
X108500000Y-83500000D03*
X106500000Y-82500000D03*
X106500000Y-85500000D03*
X108500000Y-81500000D03*
X123500000Y-75500000D03*
X111500000Y-70500000D03*
X113500000Y-70500000D03*
X105500000Y-79500000D03*
X111500000Y-72500000D03*
X122500000Y-85500000D03*
D23*
X166300000Y-99600000D03*
X167400000Y-99600000D03*
X168200000Y-98500000D03*
X162500000Y-104100000D03*
X159300000Y-98600000D03*
X89900000Y-80800000D03*
X89900000Y-79200000D03*
D24*
X97000000Y-100800000D03*
X92700000Y-100500000D03*
D23*
X81600000Y-82300000D03*
X67400000Y-75600000D03*
X100000000Y-77800000D03*
D24*
X94200000Y-80200000D03*
X92800000Y-97300000D03*
D23*
X99300000Y-96100000D03*
D24*
X143850000Y-82400000D03*
X136200000Y-66700000D03*
D23*
X161200000Y-78100000D03*
D22*
X108500000Y-70500000D03*
D24*
X148500000Y-71500000D03*
X145300000Y-77800000D03*
D23*
X187200000Y-93800000D03*
X98600000Y-68800000D03*
G04 #@! TO.N,JETSON_CARRIER_PWR_ON*
X121500000Y-105000000D03*
X130600000Y-102800000D03*
X154600000Y-103400000D03*
D22*
G04 #@! TO.N,CAM1_SYNC-*
X125500000Y-79500000D03*
D23*
X203200000Y-92400000D03*
G04 #@! TO.N,CAM1_SYNC+*
X203900000Y-92400000D03*
D22*
X125500000Y-78500000D03*
D23*
G04 #@! TO.N,CAM2_SYNC-*
X99311448Y-82547448D03*
X83210400Y-92456000D03*
G04 #@! TO.N,CAM2_SYNC+*
X98808552Y-82044552D03*
X83921600Y-92456000D03*
G04 #@! TO.N,/power/AGND*
X139600000Y-98600000D03*
D22*
X153100000Y-96600000D03*
G04 #@! TO.N,FPGA_CONFIG_DATA0*
X103500000Y-73500000D03*
D23*
G04 #@! TO.N,PCIE_RST_3V3*
X108500000Y-104200000D03*
G04 #@! TO.N,/imagers/CAM2_VDDPIX*
X84100000Y-79299994D03*
X81999984Y-79300000D03*
X77000000Y-79300000D03*
X75000000Y-79300000D03*
G04 #@! TO.N,Net-(R35-Pad1)*
X86200006Y-83400000D03*
G04 #@! TO.N,/imagers/CAM2_1V8*
X89100000Y-79200000D03*
X89100000Y-80800000D03*
X83999988Y-89600000D03*
X70800012Y-92588000D03*
X84000000Y-85500000D03*
G04 #@! TO.N,/imagers/CAM2_3V3*
X86200000Y-92500000D03*
X86200000Y-82400000D03*
X89100000Y-81700000D03*
X89100000Y-83300000D03*
X79000000Y-79300000D03*
X70800000Y-87508000D03*
D22*
G04 #@! TO.N,Net-(R34-Pad2)*
X106500000Y-74500000D03*
G04 #@! TO.N,JETSON_RESET_OUT*
X121300000Y-104200000D03*
D23*
X161700000Y-103900000D03*
G04 #@! TO.N,/power/PG_GRP1*
X161500000Y-103100000D03*
X172000000Y-103100000D03*
X130700000Y-103700000D03*
D24*
X140000000Y-102400000D03*
D23*
G04 #@! TO.N,/imagers/CAM1_3V3*
X199000000Y-79200000D03*
X206300000Y-82400000D03*
X206300000Y-92600000D03*
X206300000Y-93600000D03*
X190700000Y-87500000D03*
G04 #@! TO.N,/imagers/CAM1_VDDPIX*
X195000000Y-79200000D03*
X197000000Y-79200000D03*
X202000000Y-79200000D03*
X204100000Y-79200000D03*
G04 #@! TO.N,/imagers/CAM1_1V8*
X203900000Y-85483598D03*
X203900000Y-89500000D03*
X190700000Y-92800000D03*
G04 #@! TO.N,Net-(R62-Pad1)*
X206300000Y-83500000D03*
D22*
G04 #@! TO.N,/fpga_power/VCC_GXBL*
X113500000Y-88500000D03*
X112500000Y-90500000D03*
X114500000Y-90500000D03*
X111500000Y-88500000D03*
X115500000Y-89500000D03*
X117500000Y-88500000D03*
X117500000Y-90500000D03*
D23*
X127200000Y-97000000D03*
X125000000Y-96000000D03*
X127700000Y-97700000D03*
X126600000Y-97700000D03*
D22*
G04 #@! TO.N,/fpga_power/RREF_TL*
X127500000Y-88500000D03*
G04 #@! TO.N,/fpga_pcie/REFCLK-*
X102995200Y-97500000D03*
X114500000Y-88500000D03*
G04 #@! TO.N,/fpga_pcie/REFCLK+*
X103604800Y-97500000D03*
X114500000Y-89500000D03*
G04 #@! TO.N,/fpga_io/PCIE_RST_1V8*
X105500000Y-76500000D03*
D24*
X102000000Y-97500000D03*
D23*
G04 #@! TO.N,1V03*
X134700000Y-106000000D03*
X130300000Y-106000000D03*
X135200000Y-99600000D03*
X133700000Y-98500000D03*
X133500000Y-94500000D03*
D22*
G04 #@! TO.N,/fpga_power/RREF_BL*
X102500000Y-90500000D03*
G04 #@! TO.N,/fpga_io/CLK100*
X104500000Y-80500000D03*
G04 #@! TO.N,0V9*
X110500000Y-75500000D03*
X111500000Y-76500000D03*
X111500000Y-77500000D03*
X112500000Y-76500000D03*
X114500000Y-76500000D03*
X113500000Y-76508408D03*
X111500000Y-78500000D03*
X116500000Y-76500000D03*
X117500000Y-76500000D03*
X118500000Y-77500000D03*
X117500000Y-77500000D03*
X115500000Y-77500000D03*
X116500000Y-77500000D03*
X113500000Y-77500000D03*
X114500000Y-77500000D03*
X114500000Y-80500000D03*
X113500000Y-80500000D03*
X112500000Y-80500000D03*
X113500000Y-81500000D03*
X111500000Y-81500000D03*
X111500000Y-82500000D03*
X110500000Y-83500000D03*
X113500000Y-82500000D03*
X116500000Y-81500000D03*
X115500000Y-82500000D03*
X115500000Y-83500000D03*
X113500000Y-83500000D03*
X112500000Y-84500000D03*
X113500000Y-84500000D03*
X114500000Y-84500000D03*
X111500000Y-85500000D03*
X112500000Y-85500000D03*
X113500000Y-85500000D03*
X114500000Y-85500000D03*
X117500000Y-85500000D03*
X118500000Y-83500000D03*
X118500000Y-84500000D03*
D23*
X146500000Y-88500000D03*
X152000000Y-99700000D03*
X145200000Y-94500000D03*
X146800000Y-94500000D03*
X146000000Y-94500000D03*
X144400000Y-94500000D03*
X147600000Y-94500000D03*
X147600000Y-92500000D03*
X147600000Y-90500000D03*
D24*
X145300000Y-84400000D03*
D22*
G04 #@! TO.N,/fpga_power/VCCA*
X114500000Y-78500000D03*
X115500000Y-80500000D03*
X113500000Y-87500000D03*
X117500000Y-87500000D03*
X118500000Y-86500000D03*
X119500000Y-82500000D03*
X119500000Y-80500000D03*
D23*
G04 #@! TO.N,DISCHARGE*
X122500000Y-105000000D03*
X139000000Y-87000000D03*
X133500000Y-91500000D03*
D24*
X107700000Y-104200000D03*
X117000000Y-106000000D03*
D22*
G04 #@! TO.N,PCIE_LANE2_RX+*
X115500000Y-91499994D03*
G04 #@! TO.N,PCIE_LANE2_RX-*
X116500000Y-91500000D03*
G04 #@! TO.N,PCIE_LANE2_TX+*
X115700000Y-98800000D03*
G04 #@! TO.N,PCIE_LANE2_TX-*
X116500000Y-98800000D03*
G04 #@! TO.N,PCIE_LANE3_RX+*
X117500000Y-91500000D03*
G04 #@! TO.N,PCIE_LANE3_RX-*
X118500000Y-91500000D03*
G04 #@! TO.N,PCIE_LANE3_TX+*
X121300000Y-98800000D03*
G04 #@! TO.N,PCIE_LANE3_TX-*
X120500000Y-98800000D03*
D24*
G04 #@! TO.N,FPGA_TMS*
X105000000Y-67800000D03*
D22*
G04 #@! TO.N,FPGA_TCK*
X107500000Y-68500000D03*
D24*
G04 #@! TO.N,FPGA_TDI*
X101500000Y-68500000D03*
D22*
G04 #@! TO.N,FPGA_TDO*
X106500000Y-68500000D03*
G04 #@! TO.N,TX2_LED*
X110900000Y-104200000D03*
D16*
G04 #@! TO.N,+5V*
X138300000Y-73000000D03*
X118000000Y-105000000D03*
X142000000Y-81400000D03*
X142400000Y-74200000D03*
X143100000Y-69700000D03*
D22*
G04 #@! TO.N,/fpga_io/LED_DI_1V8*
X124500000Y-72500000D03*
D24*
X142400000Y-77000000D03*
D22*
G04 #@! TO.N,/fpga_io/LED_CI_1V8*
X125500000Y-71500000D03*
D24*
X143100000Y-75700000D03*
D23*
G04 #@! TO.N,CAM2_MISO_3V3*
X70100000Y-88000000D03*
G04 #@! TO.N,CAM2_MOSI_3V3*
X70800000Y-88500000D03*
G04 #@! TO.N,CAM2_SCK_3V3*
X70800000Y-90556000D03*
G04 #@! TO.N,CAM2_TRG_3V3*
X70300000Y-81200000D03*
G04 #@! TO.N,CAM2_RST_3V3*
X70800000Y-84460000D03*
G04 #@! TO.N,CAM2_CS_3V3*
X70800000Y-85476000D03*
G04 #@! TO.N,/fpga_io/HSEXP_1-*
X138007799Y-86544400D03*
D22*
X125500000Y-85500000D03*
G04 #@! TO.N,/fpga_io/HSEXP_1+*
X125500000Y-86500000D03*
D23*
X138007799Y-87255600D03*
D22*
G04 #@! TO.N,/fpga_io/HSEXP_3+*
X126500000Y-84499980D03*
D23*
X135500000Y-84855600D03*
G04 #@! TO.N,/fpga_io/HSEXP_3-*
X135500000Y-84144400D03*
D22*
X126500000Y-83500000D03*
D23*
G04 #@! TO.N,/fpga_io/HSEXP_7-*
X131200000Y-74544400D03*
D22*
X121500000Y-84500000D03*
D23*
G04 #@! TO.N,/fpga_io/HSEXP_7+*
X131200000Y-75255600D03*
D22*
X122500000Y-84500000D03*
G04 #@! TO.N,/fpga_io/HSEXP16*
X125500000Y-76500000D03*
X135399994Y-76100000D03*
G04 #@! TO.N,/fpga_io/HSEXP15*
X138000000Y-77000000D03*
X124500000Y-78500000D03*
G04 #@! TO.N,/fpga_io/HSEXP14*
X138500000Y-77500000D03*
X122500000Y-78500000D03*
G04 #@! TO.N,/fpga_io/HSEXP13*
X135600000Y-78500000D03*
X124500000Y-81500000D03*
G04 #@! TO.N,/fpga_io/HSEXP12*
X134700000Y-78500000D03*
X124500000Y-80500000D03*
G04 #@! TO.N,/fpga_io/HSEXP11*
X135600000Y-80200000D03*
X123500000Y-82500000D03*
G04 #@! TO.N,/fpga_io/HSEXP10*
X134700000Y-80200000D03*
X123500000Y-81500000D03*
G04 #@! TO.N,/fpga_io/HSEXP9*
X135600000Y-81700000D03*
X122500000Y-83500000D03*
G04 #@! TO.N,/fpga_io/HSEXP8*
X134700000Y-81700000D03*
X124500000Y-83500000D03*
D24*
G04 #@! TO.N,CAM1_CS_3V3*
X153000000Y-77600000D03*
D23*
X190700000Y-85400000D03*
D22*
X187200000Y-77200000D03*
D23*
G04 #@! TO.N,CAM1_RST_3V3*
X190700000Y-84500000D03*
X181800000Y-78300000D03*
D24*
G04 #@! TO.N,CAM1_TRG_3V3*
X193900000Y-79200000D03*
G04 #@! TO.N,CAM1_SCK_3V3*
X152100000Y-79000000D03*
D23*
X194800000Y-86100000D03*
X184900000Y-81100000D03*
G04 #@! TO.N,CAM1_MISO_3V3*
X196100000Y-87500000D03*
D22*
X187200000Y-75300000D03*
D24*
G04 #@! TO.N,CAM1_MOSI_3V3*
X152900000Y-78400000D03*
D23*
X194800000Y-87500000D03*
X186200000Y-79400000D03*
D22*
G04 #@! TO.N,/fpga_io/CAM1_RST_1V8*
X124500000Y-69500000D03*
G04 #@! TO.N,/fpga_io/CAM2_MISO_1V8*
X103500000Y-72500000D03*
G04 #@! TO.N,/fpga_io/CAM2_TRG_1V8*
X104500000Y-76500000D03*
G04 #@! TO.N,/fpga_io/CAM2_RST_1V8*
X103500000Y-77500000D03*
G04 #@! TO.N,/fpga_io/CAM2_CS_1V8*
X105500000Y-75500000D03*
G04 #@! TO.N,/fpga_io/CAM2_MOSI_1V8*
X105500000Y-74500000D03*
G04 #@! TO.N,/fpga_io/CAM2_SCK_1V8*
X102500000Y-73500000D03*
G04 #@! TO.N,/fpga_io/IMU_SYNC_OUT_1V8*
X123500000Y-72500000D03*
D23*
G04 #@! TO.N,/fpga_io/IMU_MISO_1V8*
X157500000Y-76000000D03*
D22*
X122500000Y-72500000D03*
G04 #@! TO.N,/fpga_io/CAM1_MISO_1V8*
X124500000Y-70500000D03*
G04 #@! TO.N,IMU_TX1_3V3*
X119700000Y-104200000D03*
D23*
X166600000Y-90500000D03*
X168100000Y-80000000D03*
D22*
G04 #@! TO.N,IMU_RX1_3V3*
X118900000Y-104200000D03*
D23*
X164200000Y-90500000D03*
G04 #@! TO.N,IMU_SYNC_OUT_3V3*
X168400000Y-79000000D03*
X165925000Y-72175000D03*
G04 #@! TO.N,IMU_SCK_3V3*
X149200000Y-69200000D03*
G04 #@! TO.N,IMU_MOSI_3V3*
X149200000Y-70100000D03*
G04 #@! TO.N,IMU_MISO_3V3*
X178500000Y-79700000D03*
G04 #@! TO.N,IMU_NRST_3V3*
X147900000Y-69600000D03*
G04 #@! TO.N,IMU_SYNC_IN_3V3*
X147900000Y-68700000D03*
G04 #@! TO.N,IMU_CS_3V3*
X147300000Y-67900000D03*
G04 #@! TO.N,CAM2_MONITOR*
X70700000Y-82400000D03*
D22*
G04 #@! TO.N,/fpga_io/CAM2_MONITOR_1V8*
X104500000Y-73500000D03*
D23*
G04 #@! TO.N,/fpga_io/IMU_TX1_1V8*
X157500000Y-77000000D03*
D22*
X123500000Y-73500000D03*
D23*
G04 #@! TO.N,Net-(R8-Pad1)*
X133100000Y-104200000D03*
X128300000Y-105000000D03*
D22*
G04 #@! TO.N,/fpga_io/AUXOUT3*
X103500000Y-74500000D03*
G04 #@! TO.N,/fpga_io/AUXOUT2*
X102500000Y-74500000D03*
G04 #@! TO.N,/fpga_io/AUXOUT1*
X105500000Y-73500000D03*
G04 #@! TO.N,MPU_MOSI*
X103500000Y-87500000D03*
D23*
X100200006Y-90000000D03*
G04 #@! TO.N,MPU_SCK*
X100500000Y-91500000D03*
D22*
X104500000Y-88500000D03*
D23*
G04 #@! TO.N,MPU_CS*
X99000000Y-91500000D03*
D22*
X104500000Y-86500000D03*
G04 #@! TO.N,MPU_INT*
X105500000Y-88500000D03*
D23*
X99300000Y-94499992D03*
G04 #@! TO.N,MPU_FSYNC*
X100500000Y-93000000D03*
D22*
X105500000Y-87500000D03*
D23*
G04 #@! TO.N,MPU_MISO*
X100900000Y-94500000D03*
D22*
X107500000Y-88500000D03*
G04 #@! TO.N,Net-(U3-PadC6)*
X125500000Y-73500000D03*
X138000000Y-76000000D03*
G04 #@! TO.N,Net-(U3-PadC7)*
X125500000Y-74500000D03*
G04 #@! TO.N,Net-(U3-PadD7)*
X124500000Y-74500000D03*
X137950010Y-78200000D03*
G04 #@! TO.N,FAN_TACH*
X122500000Y-70500000D03*
G04 #@! TO.N,FAN_PWM*
X121500000Y-71500000D03*
G04 #@! TO.N,/fpga_io/CAM1_TRG_1V8*
X123500000Y-71500000D03*
G04 #@! TO.N,/fpga_io/LSEXP_2*
X105500000Y-72500000D03*
G04 #@! TO.N,/fpga_io/CONF_CRC_ERROR*
X107500000Y-79500000D03*
G04 #@! TD*
D25*
G04 #@! TO.N,+3V3*
X74500000Y-84100000D02*
X70800000Y-80400000D01*
X70800000Y-80400000D02*
X67400000Y-80400000D01*
X75700000Y-84100000D02*
X74500000Y-84100000D01*
D26*
G04 #@! TO.N,FPGA_CONFIG_DCLK*
X102500000Y-70500000D02*
X103000000Y-71000000D01*
X103000000Y-71000000D02*
X103000000Y-93500000D01*
X103000000Y-93500000D02*
X94800000Y-101700000D01*
X95190001Y-104650001D02*
X96040000Y-105500000D01*
X94800000Y-104260000D02*
X95190001Y-104650001D01*
X94800000Y-101700000D02*
X94800000Y-104260000D01*
G04 #@! TO.N,FPGA_NCONFIG*
X102034269Y-103500000D02*
X101534269Y-104000000D01*
X104500000Y-103500000D02*
X102034269Y-103500000D01*
X108500000Y-99500000D02*
X104500000Y-103500000D01*
X108500000Y-73500000D02*
X108000000Y-74000000D01*
X108500000Y-96500000D02*
X108500000Y-99500000D01*
X108000000Y-74000000D02*
X108000000Y-96000000D01*
X108000000Y-96000000D02*
X108500000Y-96500000D01*
G04 #@! TO.N,FPGA_CONF_DONE*
X100700000Y-101300000D02*
X100700000Y-106466740D01*
X107000000Y-95000000D02*
X100700000Y-101300000D01*
X107000000Y-70000000D02*
X107000000Y-95000000D01*
X106500000Y-69500000D02*
X107000000Y-70000000D01*
G04 #@! TO.N,FPGA_NSTATUS*
X98580000Y-101757919D02*
X98580000Y-102960000D01*
X104500000Y-71500000D02*
X105000000Y-72000000D01*
X105000000Y-72000000D02*
X105000000Y-93500000D01*
X105000000Y-93500000D02*
X98580000Y-99920000D01*
X98580000Y-99920000D02*
X98580000Y-101757919D01*
D27*
G04 #@! TO.N,JETSON_CARRIER_PWR_ON*
X121500000Y-105000000D02*
X121500000Y-105500000D01*
X121500000Y-105500000D02*
X122000000Y-106000000D01*
X126700000Y-103800000D02*
X126700000Y-106000000D01*
X130600000Y-102800000D02*
X127700000Y-102800000D01*
X122000000Y-106000000D02*
X126700000Y-106000000D01*
X127700000Y-102800000D02*
X126700000Y-103800000D01*
X154240790Y-103400000D02*
X154600000Y-103400000D01*
X153740790Y-103900000D02*
X154240790Y-103400000D01*
X126700000Y-106000000D02*
X129000000Y-106000000D01*
X129000000Y-106000000D02*
X130000000Y-105000000D01*
X134600000Y-103900000D02*
X153740790Y-103900000D01*
X130000000Y-105000000D02*
X133500000Y-105000000D01*
X133500000Y-105000000D02*
X134600000Y-103900000D01*
G04 #@! TO.N,/power/AGND*
X139853999Y-98346001D02*
X139600000Y-98600000D01*
X141100000Y-97100000D02*
X139853999Y-98346001D01*
X153100000Y-96600000D02*
X152600000Y-97100000D01*
X152600000Y-97100000D02*
X141100000Y-97100000D01*
D26*
G04 #@! TO.N,FPGA_CONFIG_DATA0*
X97300000Y-104220000D02*
X97730001Y-104650001D01*
X97730001Y-104650001D02*
X98580000Y-105500000D01*
X98000000Y-101000000D02*
X97300000Y-101700000D01*
X97300000Y-101700000D02*
X97300000Y-104220000D01*
X103500000Y-73500000D02*
X104000000Y-74000000D01*
X98000000Y-99500000D02*
X98000000Y-101000000D01*
X104000000Y-74000000D02*
X104000000Y-93500000D01*
X104000000Y-93500000D02*
X98000000Y-99500000D01*
D28*
G04 #@! TO.N,JETSON_RESET_OUT*
X162200000Y-103400000D02*
X161700000Y-103900000D01*
X162200000Y-102600000D02*
X162200000Y-103400000D01*
X161500000Y-101900000D02*
X162200000Y-102600000D01*
X141500000Y-101900000D02*
X161500000Y-101900000D01*
X121300000Y-104200000D02*
X121300000Y-102700000D01*
X121300000Y-102700000D02*
X123600000Y-100400000D01*
X140000000Y-100400000D02*
X141500000Y-101900000D01*
X123600000Y-100400000D02*
X140000000Y-100400000D01*
D27*
G04 #@! TO.N,/power/PG_GRP1*
X161000000Y-103600000D02*
X161500000Y-103100000D01*
X169900000Y-103100000D02*
X172000000Y-103100000D01*
X168000000Y-105000000D02*
X169900000Y-103100000D01*
X164500000Y-105000000D02*
X168000000Y-105000000D01*
X161000000Y-103600000D02*
X161000000Y-104500000D01*
X161000000Y-104500000D02*
X161500000Y-105000000D01*
X161500000Y-105000000D02*
X164500000Y-105000000D01*
X160800000Y-102400000D02*
X161500000Y-103100000D01*
X140100000Y-102400000D02*
X160800000Y-102400000D01*
X132000000Y-102400000D02*
X140200000Y-102400000D01*
X130700000Y-103700000D02*
X132000000Y-102400000D01*
D26*
G04 #@! TO.N,/fpga_io/PCIE_RST_1V8*
X105500000Y-76500000D02*
X106000000Y-77000000D01*
X106000000Y-77000000D02*
X106000000Y-91500000D01*
X106000000Y-91500000D02*
X106000000Y-93500000D01*
X106000000Y-93500000D02*
X102000000Y-97500000D01*
D27*
G04 #@! TO.N,1V03*
X130300000Y-106000000D02*
X134700000Y-106000000D01*
D29*
G04 #@! TO.N,DISCHARGE*
X139000000Y-87000000D02*
X139000000Y-87700000D01*
X139000000Y-87700000D02*
X138400000Y-88300000D01*
X138400000Y-88300000D02*
X138400000Y-90100000D01*
X137000000Y-91500000D02*
X133500000Y-91500000D01*
X138400000Y-90100000D02*
X137000000Y-91500000D01*
D27*
X107700000Y-104750000D02*
X108950000Y-106000000D01*
X108950000Y-106000000D02*
X117000000Y-106000000D01*
X107700000Y-104200000D02*
X107700000Y-104750000D01*
D25*
G04 #@! TO.N,+5V*
X122100000Y-94900000D02*
X129000000Y-94900000D01*
X142000000Y-81965685D02*
X142000000Y-81400000D01*
X131000000Y-92900000D02*
X137900000Y-92900000D01*
X118000000Y-99000000D02*
X122100000Y-94900000D01*
X137900000Y-92900000D02*
X142000000Y-88800000D01*
X118000000Y-105000000D02*
X118000000Y-99000000D01*
X129000000Y-94900000D02*
X131000000Y-92900000D01*
X142000000Y-88800000D02*
X142000000Y-81965685D01*
X141200000Y-73000000D02*
X142400000Y-74200000D01*
X138300000Y-73000000D02*
X141200000Y-73000000D01*
D28*
G04 #@! TO.N,/fpga_io/HSEXP_7-*
X121200000Y-84500000D02*
X121500000Y-84500000D01*
X120509500Y-83809500D02*
X121200000Y-84500000D01*
X120509500Y-81621092D02*
X120509500Y-83809500D01*
X121309500Y-80821092D02*
X120509500Y-81621092D01*
X121309500Y-78421092D02*
X121309500Y-80821092D01*
X131200000Y-74544400D02*
X131034900Y-74709500D01*
X122621092Y-77109500D02*
X121309500Y-78421092D01*
X127521092Y-77109500D02*
X122621092Y-77109500D01*
X131034900Y-74709500D02*
X129921092Y-74709500D01*
X129921092Y-74709500D02*
X127521092Y-77109500D01*
G04 #@! TO.N,/fpga_io/HSEXP_7+*
X131034900Y-75090500D02*
X131200000Y-75255600D01*
X120890500Y-83621092D02*
X120890500Y-81778908D01*
X121269408Y-84000000D02*
X120890500Y-83621092D01*
X122000000Y-84000000D02*
X121269408Y-84000000D01*
X120890500Y-81778908D02*
X121690500Y-80978908D01*
X122500000Y-84500000D02*
X122000000Y-84000000D01*
X121690500Y-78578908D02*
X122778908Y-77490500D01*
X122778908Y-77490500D02*
X127678908Y-77490500D01*
X127678908Y-77490500D02*
X130078908Y-75090500D01*
X121690500Y-80978908D02*
X121690500Y-78578908D01*
X130078908Y-75090500D02*
X131034900Y-75090500D01*
G04 #@! TO.N,/fpga_io/HSEXP16*
X134300000Y-76100000D02*
X135399994Y-76100000D01*
X132100000Y-73900000D02*
X134300000Y-76100000D01*
X128100000Y-73900000D02*
X132100000Y-73900000D01*
X125500000Y-76500000D02*
X128100000Y-73900000D01*
G04 #@! TO.N,/fpga_io/HSEXP15*
X132600000Y-77000000D02*
X138000000Y-77000000D01*
X131600000Y-78000000D02*
X132600000Y-77000000D01*
X125000000Y-78000000D02*
X131600000Y-78000000D01*
X124500000Y-78500000D02*
X125000000Y-78000000D01*
G04 #@! TO.N,/fpga_io/HSEXP14*
X122703199Y-78703199D02*
X122500000Y-78500000D01*
X138500000Y-77500000D02*
X133000000Y-77500000D01*
X133000000Y-77500000D02*
X131500000Y-79000000D01*
X131500000Y-79000000D02*
X123000000Y-79000000D01*
X123000000Y-79000000D02*
X122703199Y-78703199D01*
G04 #@! TO.N,/fpga_io/HSEXP13*
X135600000Y-78500000D02*
X133100000Y-81000000D01*
X133100000Y-81000000D02*
X125000000Y-81000000D01*
X125000000Y-81000000D02*
X124500000Y-81500000D01*
G04 #@! TO.N,/fpga_io/HSEXP12*
X134700000Y-78500000D02*
X133200000Y-80000000D01*
X133200000Y-80000000D02*
X126000000Y-80000000D01*
X125000000Y-80000000D02*
X124500000Y-80500000D01*
X126000000Y-80000000D02*
X125000000Y-80000000D01*
G04 #@! TO.N,/fpga_io/HSEXP11*
X124000000Y-83000000D02*
X123500000Y-82500000D01*
X132600000Y-83000000D02*
X124000000Y-83000000D01*
X134900000Y-80900000D02*
X134700000Y-80900000D01*
X135600000Y-80200000D02*
X134900000Y-80900000D01*
X134700000Y-80900000D02*
X132600000Y-83000000D01*
G04 #@! TO.N,/fpga_io/HSEXP10*
X123703199Y-81703199D02*
X123500000Y-81500000D01*
X124000000Y-82000000D02*
X123703199Y-81703199D01*
X132900000Y-82000000D02*
X124000000Y-82000000D01*
X134700000Y-80200000D02*
X132900000Y-82000000D01*
G04 #@! TO.N,/fpga_io/HSEXP9*
X135600000Y-81700000D02*
X132300000Y-85000000D01*
X132300000Y-85000000D02*
X124419690Y-85000000D01*
X124000000Y-85000000D02*
X122500000Y-83500000D01*
X124419690Y-85000000D02*
X124000000Y-85000000D01*
G04 #@! TO.N,/fpga_io/HSEXP8*
X132400000Y-84000000D02*
X125000000Y-84000000D01*
X125000000Y-84000000D02*
X124500000Y-83500000D01*
X134700000Y-81700000D02*
X132400000Y-84000000D01*
G04 #@! TO.N,CAM1_CS_3V3*
X191100000Y-85400000D02*
X190700000Y-85400000D01*
X192000000Y-84500000D02*
X191100000Y-85400000D01*
X192000000Y-81200000D02*
X192000000Y-84500000D01*
X190300000Y-79500000D02*
X192000000Y-81200000D01*
D30*
X190300000Y-79500000D02*
X189300000Y-78500000D01*
X188000000Y-77200000D02*
X187200000Y-77200000D01*
X189300000Y-78500000D02*
X188000000Y-77200000D01*
D28*
G04 #@! TO.N,CAM1_RST_3V3*
X191000000Y-84500000D02*
X190700000Y-84500000D01*
X181800000Y-78300000D02*
X188300000Y-78300000D01*
X191400000Y-81400000D02*
X191400000Y-84100000D01*
X188300000Y-78300000D02*
X191400000Y-81400000D01*
X191400000Y-84100000D02*
X191000000Y-84500000D01*
G04 #@! TO.N,CAM1_SCK_3V3*
X195500000Y-87900000D02*
X195500000Y-86800000D01*
X195500000Y-86800000D02*
X194800000Y-86100000D01*
X194400000Y-89000000D02*
X195500000Y-87900000D01*
X184900000Y-87700000D02*
X186200000Y-89000000D01*
X184900000Y-81100000D02*
X184900000Y-87700000D01*
X186200000Y-89000000D02*
X194400000Y-89000000D01*
G04 #@! TO.N,CAM1_MISO_3V3*
X196100000Y-83700000D02*
X196100000Y-87500000D01*
X190000000Y-77600000D02*
X196100000Y-83700000D01*
D30*
X187700000Y-75300000D02*
X187200000Y-75300000D01*
X190000000Y-77600000D02*
X187700000Y-75300000D01*
D28*
G04 #@! TO.N,CAM1_MOSI_3V3*
X193800000Y-88500000D02*
X194800000Y-87500000D01*
X186200000Y-87200000D02*
X187500000Y-88500000D01*
X187500000Y-88500000D02*
X193800000Y-88500000D01*
X186200000Y-79400000D02*
X186200000Y-87200000D01*
D26*
G04 #@! TO.N,/fpga_io/IMU_MISO_1V8*
X154900000Y-73400000D02*
X157500000Y-76000000D01*
X124700000Y-73000000D02*
X125200000Y-72500000D01*
X123000000Y-73000000D02*
X124700000Y-73000000D01*
X143200000Y-73400000D02*
X154900000Y-73400000D01*
X141900000Y-72100000D02*
X143200000Y-73400000D01*
X137300000Y-72100000D02*
X141900000Y-72100000D01*
X122500000Y-72500000D02*
X123000000Y-73000000D01*
X136600000Y-72800000D02*
X137300000Y-72100000D01*
D28*
X135200000Y-72800000D02*
X136600000Y-72800000D01*
X126500000Y-72500000D02*
X127800000Y-71200000D01*
X127800000Y-71200000D02*
X133600000Y-71200000D01*
X125200000Y-72500000D02*
X126500000Y-72500000D01*
X133600000Y-71200000D02*
X135200000Y-72800000D01*
G04 #@! TO.N,IMU_TX1_3V3*
X119700000Y-103300000D02*
X119700000Y-104200000D01*
X123400000Y-99600000D02*
X119700000Y-103300000D01*
X124900000Y-99600000D02*
X123400000Y-99600000D01*
X125300000Y-99200000D02*
X124900000Y-99600000D01*
X131300000Y-99200000D02*
X125300000Y-99200000D01*
X166600000Y-90500000D02*
X166600000Y-90900000D01*
X166600000Y-90900000D02*
X161600000Y-95900000D01*
X161600000Y-95900000D02*
X134600000Y-95900000D01*
X134600000Y-95900000D02*
X131300000Y-99200000D01*
G04 #@! TO.N,IMU_RX1_3V3*
X123700000Y-98300000D02*
X118900000Y-103100000D01*
X131200000Y-98300000D02*
X123700000Y-98300000D01*
X118900000Y-103100000D02*
X118900000Y-104200000D01*
X164200000Y-90500000D02*
X164200000Y-92300000D01*
X164200000Y-92300000D02*
X161200000Y-95300000D01*
X161200000Y-95300000D02*
X134200000Y-95300000D01*
X134200000Y-95300000D02*
X131200000Y-98300000D01*
G04 #@! TO.N,IMU_SYNC_OUT_3V3*
X176525000Y-72175000D02*
X180300000Y-68400000D01*
X165925000Y-72175000D02*
X176525000Y-72175000D01*
D26*
G04 #@! TO.N,/fpga_io/IMU_TX1_1V8*
X142800000Y-76300000D02*
X143400000Y-76900000D01*
X140500000Y-76300000D02*
X142800000Y-76300000D01*
X123500000Y-73500000D02*
X124700000Y-73500000D01*
X157400000Y-76900000D02*
X157500000Y-77000000D01*
X143400000Y-76900000D02*
X157400000Y-76900000D01*
X138200000Y-74000000D02*
X140500000Y-76300000D01*
D28*
X124800000Y-73500000D02*
X124700000Y-73500000D01*
X125300000Y-73000000D02*
X124800000Y-73500000D01*
X127100000Y-73000000D02*
X125300000Y-73000000D01*
X127700000Y-72400000D02*
X127100000Y-73000000D01*
X128700000Y-72400000D02*
X127700000Y-72400000D01*
X138200000Y-74000000D02*
X135200000Y-74000000D01*
X135200000Y-74000000D02*
X134000000Y-72800000D01*
X134000000Y-72800000D02*
X129100000Y-72800000D01*
X129100000Y-72800000D02*
X128700000Y-72400000D01*
D29*
G04 #@! TO.N,Net-(R8-Pad1)*
X128800000Y-104500000D02*
X128300000Y-105000000D01*
X132800000Y-104500000D02*
X128800000Y-104500000D01*
X133100000Y-104200000D02*
X132800000Y-104500000D01*
D28*
G04 #@! TO.N,/fpga_io/LSEXP_2*
X105500000Y-72500000D02*
X105500000Y-71500000D01*
X101280000Y-67280000D02*
X101280000Y-65000000D01*
X105500000Y-71500000D02*
X101280000Y-67280000D01*
G04 #@! TD*
D31*
G04 #@! TO.N,/fpga_power/VCCA*
G36*
X113003600Y-77598740D02*
X113079172Y-77781188D01*
X113218812Y-77920828D01*
X113401260Y-77996400D01*
X113598740Y-77996400D01*
X113781188Y-77920828D01*
X113920828Y-77781188D01*
X113996400Y-77598740D01*
X113996400Y-77590000D01*
X114003600Y-77590000D01*
X114003600Y-77598740D01*
X114079172Y-77781188D01*
X114218812Y-77920828D01*
X114401260Y-77996400D01*
X114598740Y-77996400D01*
X114781188Y-77920828D01*
X114920828Y-77781188D01*
X114996400Y-77598740D01*
X114996400Y-77590000D01*
X115003600Y-77590000D01*
X115003600Y-77598740D01*
X115079172Y-77781188D01*
X115218812Y-77920828D01*
X115401260Y-77996400D01*
X115598740Y-77996400D01*
X115781188Y-77920828D01*
X115920828Y-77781188D01*
X115996400Y-77598740D01*
X115996400Y-77590000D01*
X116003600Y-77590000D01*
X116003600Y-77598740D01*
X116079172Y-77781188D01*
X116218812Y-77920828D01*
X116401260Y-77996400D01*
X116598740Y-77996400D01*
X116781188Y-77920828D01*
X116920828Y-77781188D01*
X116996400Y-77598740D01*
X116996400Y-77590000D01*
X117003600Y-77590000D01*
X117003600Y-77598740D01*
X117079172Y-77781188D01*
X117218812Y-77920828D01*
X117401260Y-77996400D01*
X117598740Y-77996400D01*
X117781188Y-77920828D01*
X117920828Y-77781188D01*
X117996400Y-77598740D01*
X117996400Y-77590000D01*
X118003600Y-77590000D01*
X118003600Y-77598740D01*
X118079172Y-77781188D01*
X118218812Y-77920828D01*
X118401260Y-77996400D01*
X118598740Y-77996400D01*
X118781188Y-77920828D01*
X118920828Y-77781188D01*
X118996400Y-77598740D01*
X118996400Y-77590000D01*
X119003600Y-77590000D01*
X119003600Y-77598740D01*
X119079172Y-77781188D01*
X119218812Y-77920828D01*
X119401260Y-77996400D01*
X119598740Y-77996400D01*
X119781188Y-77920828D01*
X119910000Y-77792016D01*
X119910000Y-79207984D01*
X119781188Y-79079172D01*
X119598740Y-79003600D01*
X119401260Y-79003600D01*
X119218812Y-79079172D01*
X119079172Y-79218812D01*
X119003600Y-79401260D01*
X119003600Y-79598740D01*
X119079172Y-79781188D01*
X119218812Y-79920828D01*
X119401260Y-79996400D01*
X119598740Y-79996400D01*
X119781188Y-79920828D01*
X119910000Y-79792016D01*
X119910000Y-81207984D01*
X119781188Y-81079172D01*
X119598740Y-81003600D01*
X119401260Y-81003600D01*
X119218812Y-81079172D01*
X119079172Y-81218812D01*
X119003600Y-81401260D01*
X119003600Y-81598740D01*
X119079172Y-81781188D01*
X119218812Y-81920828D01*
X119401260Y-81996400D01*
X119598740Y-81996400D01*
X119781188Y-81920828D01*
X119910000Y-81792016D01*
X119910000Y-84207984D01*
X119781188Y-84079172D01*
X119598740Y-84003600D01*
X119401260Y-84003600D01*
X119218812Y-84079172D01*
X119079172Y-84218812D01*
X119003600Y-84401260D01*
X119003600Y-84598740D01*
X119079172Y-84781188D01*
X119218812Y-84920828D01*
X119401260Y-84996400D01*
X119598740Y-84996400D01*
X119781188Y-84920828D01*
X119910000Y-84792016D01*
X119910000Y-88207984D01*
X119781188Y-88079172D01*
X119598740Y-88003600D01*
X119401260Y-88003600D01*
X119218812Y-88079172D01*
X119079172Y-88218812D01*
X119003600Y-88401260D01*
X119003600Y-88410000D01*
X117996400Y-88410000D01*
X117996400Y-88401260D01*
X117920828Y-88218812D01*
X117781188Y-88079172D01*
X117598740Y-88003600D01*
X117401260Y-88003600D01*
X117218812Y-88079172D01*
X117079172Y-88218812D01*
X117003600Y-88401260D01*
X117003600Y-88410000D01*
X116996400Y-88410000D01*
X116996400Y-88401260D01*
X116920828Y-88218812D01*
X116781188Y-88079172D01*
X116598740Y-88003600D01*
X116401260Y-88003600D01*
X116218812Y-88079172D01*
X116079172Y-88218812D01*
X116003600Y-88401260D01*
X116003600Y-88410000D01*
X114996400Y-88410000D01*
X114996400Y-88401260D01*
X114920828Y-88218812D01*
X114781188Y-88079172D01*
X114598740Y-88003600D01*
X114401260Y-88003600D01*
X114218812Y-88079172D01*
X114079172Y-88218812D01*
X114003600Y-88401260D01*
X114003600Y-88410000D01*
X113996400Y-88410000D01*
X113996400Y-88401260D01*
X113920828Y-88218812D01*
X113781188Y-88079172D01*
X113598740Y-88003600D01*
X113401260Y-88003600D01*
X113218812Y-88079172D01*
X113079172Y-88218812D01*
X113003600Y-88401260D01*
X113003600Y-88410000D01*
X112996400Y-88410000D01*
X112996400Y-88401260D01*
X112920828Y-88218812D01*
X112781188Y-88079172D01*
X112598740Y-88003600D01*
X112590000Y-88003600D01*
X112590000Y-87401260D01*
X114003600Y-87401260D01*
X114003600Y-87598740D01*
X114079172Y-87781188D01*
X114218812Y-87920828D01*
X114401260Y-87996400D01*
X114598740Y-87996400D01*
X114781188Y-87920828D01*
X114920828Y-87781188D01*
X114996400Y-87598740D01*
X114996400Y-87401260D01*
X115003600Y-87401260D01*
X115003600Y-87598740D01*
X115079172Y-87781188D01*
X115218812Y-87920828D01*
X115401260Y-87996400D01*
X115598740Y-87996400D01*
X115781188Y-87920828D01*
X115920828Y-87781188D01*
X115996400Y-87598740D01*
X115996400Y-87401260D01*
X116003600Y-87401260D01*
X116003600Y-87598740D01*
X116079172Y-87781188D01*
X116218812Y-87920828D01*
X116401260Y-87996400D01*
X116598740Y-87996400D01*
X116781188Y-87920828D01*
X116920828Y-87781188D01*
X116996400Y-87598740D01*
X116996400Y-87401260D01*
X116920828Y-87218812D01*
X116781188Y-87079172D01*
X116598740Y-87003600D01*
X116401260Y-87003600D01*
X116218812Y-87079172D01*
X116079172Y-87218812D01*
X116003600Y-87401260D01*
X115996400Y-87401260D01*
X115920828Y-87218812D01*
X115781188Y-87079172D01*
X115598740Y-87003600D01*
X115401260Y-87003600D01*
X115218812Y-87079172D01*
X115079172Y-87218812D01*
X115003600Y-87401260D01*
X114996400Y-87401260D01*
X114920828Y-87218812D01*
X114781188Y-87079172D01*
X114598740Y-87003600D01*
X114401260Y-87003600D01*
X114218812Y-87079172D01*
X114079172Y-87218812D01*
X114003600Y-87401260D01*
X112590000Y-87401260D01*
X112590000Y-86996400D01*
X112598740Y-86996400D01*
X112781188Y-86920828D01*
X112920828Y-86781188D01*
X112996400Y-86598740D01*
X112996400Y-86401260D01*
X112920828Y-86218812D01*
X112781188Y-86079172D01*
X112598740Y-86003600D01*
X112590000Y-86003600D01*
X112590000Y-85996400D01*
X112598740Y-85996400D01*
X112781188Y-85920828D01*
X112920828Y-85781188D01*
X112996400Y-85598740D01*
X112996400Y-85401260D01*
X113003600Y-85401260D01*
X113003600Y-85598740D01*
X113079172Y-85781188D01*
X113218812Y-85920828D01*
X113401260Y-85996400D01*
X113598740Y-85996400D01*
X113781188Y-85920828D01*
X113920828Y-85781188D01*
X113996400Y-85598740D01*
X113996400Y-85401260D01*
X114003600Y-85401260D01*
X114003600Y-85598740D01*
X114079172Y-85781188D01*
X114218812Y-85920828D01*
X114401260Y-85996400D01*
X114598740Y-85996400D01*
X114781188Y-85920828D01*
X114920828Y-85781188D01*
X114996400Y-85598740D01*
X114996400Y-85401260D01*
X116003600Y-85401260D01*
X116003600Y-85598740D01*
X116079172Y-85781188D01*
X116218812Y-85920828D01*
X116401260Y-85996400D01*
X116598740Y-85996400D01*
X116781188Y-85920828D01*
X116920828Y-85781188D01*
X116996400Y-85598740D01*
X116996400Y-85401260D01*
X117003600Y-85401260D01*
X117003600Y-85598740D01*
X117079172Y-85781188D01*
X117218812Y-85920828D01*
X117401260Y-85996400D01*
X117598740Y-85996400D01*
X117781188Y-85920828D01*
X117920828Y-85781188D01*
X117996400Y-85598740D01*
X117996400Y-85401260D01*
X118003600Y-85401260D01*
X118003600Y-85598740D01*
X118079172Y-85781188D01*
X118218812Y-85920828D01*
X118401260Y-85996400D01*
X118598740Y-85996400D01*
X118781188Y-85920828D01*
X118920828Y-85781188D01*
X118996400Y-85598740D01*
X118996400Y-85401260D01*
X118920828Y-85218812D01*
X118781188Y-85079172D01*
X118598740Y-85003600D01*
X118401260Y-85003600D01*
X118218812Y-85079172D01*
X118079172Y-85218812D01*
X118003600Y-85401260D01*
X117996400Y-85401260D01*
X117920828Y-85218812D01*
X117781188Y-85079172D01*
X117598740Y-85003600D01*
X117401260Y-85003600D01*
X117218812Y-85079172D01*
X117079172Y-85218812D01*
X117003600Y-85401260D01*
X116996400Y-85401260D01*
X116920828Y-85218812D01*
X116781188Y-85079172D01*
X116598740Y-85003600D01*
X116401260Y-85003600D01*
X116218812Y-85079172D01*
X116079172Y-85218812D01*
X116003600Y-85401260D01*
X114996400Y-85401260D01*
X114920828Y-85218812D01*
X114781188Y-85079172D01*
X114598740Y-85003600D01*
X114401260Y-85003600D01*
X114218812Y-85079172D01*
X114079172Y-85218812D01*
X114003600Y-85401260D01*
X113996400Y-85401260D01*
X113920828Y-85218812D01*
X113781188Y-85079172D01*
X113598740Y-85003600D01*
X113401260Y-85003600D01*
X113218812Y-85079172D01*
X113079172Y-85218812D01*
X113003600Y-85401260D01*
X112996400Y-85401260D01*
X112920828Y-85218812D01*
X112781188Y-85079172D01*
X112598740Y-85003600D01*
X112590000Y-85003600D01*
X112590000Y-84996400D01*
X112598740Y-84996400D01*
X112781188Y-84920828D01*
X112920828Y-84781188D01*
X112996400Y-84598740D01*
X112996400Y-84401260D01*
X113003600Y-84401260D01*
X113003600Y-84598740D01*
X113079172Y-84781188D01*
X113218812Y-84920828D01*
X113401260Y-84996400D01*
X113598740Y-84996400D01*
X113781188Y-84920828D01*
X113920828Y-84781188D01*
X113996400Y-84598740D01*
X113996400Y-84401260D01*
X114003600Y-84401260D01*
X114003600Y-84598740D01*
X114079172Y-84781188D01*
X114218812Y-84920828D01*
X114401260Y-84996400D01*
X114598740Y-84996400D01*
X114781188Y-84920828D01*
X114920828Y-84781188D01*
X114996400Y-84598740D01*
X114996400Y-84401260D01*
X116003600Y-84401260D01*
X116003600Y-84598740D01*
X116079172Y-84781188D01*
X116218812Y-84920828D01*
X116401260Y-84996400D01*
X116598740Y-84996400D01*
X116781188Y-84920828D01*
X116920828Y-84781188D01*
X116996400Y-84598740D01*
X116996400Y-84401260D01*
X118003600Y-84401260D01*
X118003600Y-84598740D01*
X118079172Y-84781188D01*
X118218812Y-84920828D01*
X118401260Y-84996400D01*
X118598740Y-84996400D01*
X118781188Y-84920828D01*
X118920828Y-84781188D01*
X118996400Y-84598740D01*
X118996400Y-84401260D01*
X118920828Y-84218812D01*
X118781188Y-84079172D01*
X118598740Y-84003600D01*
X118401260Y-84003600D01*
X118218812Y-84079172D01*
X118079172Y-84218812D01*
X118003600Y-84401260D01*
X116996400Y-84401260D01*
X116920828Y-84218812D01*
X116781188Y-84079172D01*
X116598740Y-84003600D01*
X116401260Y-84003600D01*
X116218812Y-84079172D01*
X116079172Y-84218812D01*
X116003600Y-84401260D01*
X114996400Y-84401260D01*
X114920828Y-84218812D01*
X114781188Y-84079172D01*
X114598740Y-84003600D01*
X114401260Y-84003600D01*
X114218812Y-84079172D01*
X114079172Y-84218812D01*
X114003600Y-84401260D01*
X113996400Y-84401260D01*
X113920828Y-84218812D01*
X113781188Y-84079172D01*
X113598740Y-84003600D01*
X113401260Y-84003600D01*
X113218812Y-84079172D01*
X113079172Y-84218812D01*
X113003600Y-84401260D01*
X112996400Y-84401260D01*
X112920828Y-84218812D01*
X112781188Y-84079172D01*
X112598740Y-84003600D01*
X112590000Y-84003600D01*
X112590000Y-83401260D01*
X113003600Y-83401260D01*
X113003600Y-83598740D01*
X113079172Y-83781188D01*
X113218812Y-83920828D01*
X113401260Y-83996400D01*
X113598740Y-83996400D01*
X113781188Y-83920828D01*
X113920828Y-83781188D01*
X113996400Y-83598740D01*
X113996400Y-83401260D01*
X114003600Y-83401260D01*
X114003600Y-83598740D01*
X114079172Y-83781188D01*
X114218812Y-83920828D01*
X114401260Y-83996400D01*
X114598740Y-83996400D01*
X114781188Y-83920828D01*
X114920828Y-83781188D01*
X114996400Y-83598740D01*
X114996400Y-83401260D01*
X115003600Y-83401260D01*
X115003600Y-83598740D01*
X115079172Y-83781188D01*
X115218812Y-83920828D01*
X115401260Y-83996400D01*
X115598740Y-83996400D01*
X115781188Y-83920828D01*
X115920828Y-83781188D01*
X115996400Y-83598740D01*
X115996400Y-83401260D01*
X117003600Y-83401260D01*
X117003600Y-83598740D01*
X117079172Y-83781188D01*
X117218812Y-83920828D01*
X117401260Y-83996400D01*
X117598740Y-83996400D01*
X117781188Y-83920828D01*
X117920828Y-83781188D01*
X117996400Y-83598740D01*
X117996400Y-83401260D01*
X118003600Y-83401260D01*
X118003600Y-83598740D01*
X118079172Y-83781188D01*
X118218812Y-83920828D01*
X118401260Y-83996400D01*
X118598740Y-83996400D01*
X118781188Y-83920828D01*
X118920828Y-83781188D01*
X118996400Y-83598740D01*
X118996400Y-83401260D01*
X118920828Y-83218812D01*
X118781188Y-83079172D01*
X118598740Y-83003600D01*
X118401260Y-83003600D01*
X118218812Y-83079172D01*
X118079172Y-83218812D01*
X118003600Y-83401260D01*
X117996400Y-83401260D01*
X117920828Y-83218812D01*
X117781188Y-83079172D01*
X117598740Y-83003600D01*
X117401260Y-83003600D01*
X117218812Y-83079172D01*
X117079172Y-83218812D01*
X117003600Y-83401260D01*
X115996400Y-83401260D01*
X115920828Y-83218812D01*
X115781188Y-83079172D01*
X115598740Y-83003600D01*
X115401260Y-83003600D01*
X115218812Y-83079172D01*
X115079172Y-83218812D01*
X115003600Y-83401260D01*
X114996400Y-83401260D01*
X114920828Y-83218812D01*
X114781188Y-83079172D01*
X114598740Y-83003600D01*
X114401260Y-83003600D01*
X114218812Y-83079172D01*
X114079172Y-83218812D01*
X114003600Y-83401260D01*
X113996400Y-83401260D01*
X113920828Y-83218812D01*
X113781188Y-83079172D01*
X113598740Y-83003600D01*
X113401260Y-83003600D01*
X113218812Y-83079172D01*
X113079172Y-83218812D01*
X113003600Y-83401260D01*
X112590000Y-83401260D01*
X112590000Y-82996400D01*
X112598740Y-82996400D01*
X112781188Y-82920828D01*
X112920828Y-82781188D01*
X112996400Y-82598740D01*
X112996400Y-82401260D01*
X113003600Y-82401260D01*
X113003600Y-82598740D01*
X113079172Y-82781188D01*
X113218812Y-82920828D01*
X113401260Y-82996400D01*
X113598740Y-82996400D01*
X113781188Y-82920828D01*
X113920828Y-82781188D01*
X113996400Y-82598740D01*
X113996400Y-82401260D01*
X115003600Y-82401260D01*
X115003600Y-82598740D01*
X115079172Y-82781188D01*
X115218812Y-82920828D01*
X115401260Y-82996400D01*
X115598740Y-82996400D01*
X115781188Y-82920828D01*
X115920828Y-82781188D01*
X115996400Y-82598740D01*
X115996400Y-82401260D01*
X117003600Y-82401260D01*
X117003600Y-82598740D01*
X117079172Y-82781188D01*
X117218812Y-82920828D01*
X117401260Y-82996400D01*
X117598740Y-82996400D01*
X117781188Y-82920828D01*
X117920828Y-82781188D01*
X117996400Y-82598740D01*
X117996400Y-82401260D01*
X117920828Y-82218812D01*
X117781188Y-82079172D01*
X117598740Y-82003600D01*
X117401260Y-82003600D01*
X117218812Y-82079172D01*
X117079172Y-82218812D01*
X117003600Y-82401260D01*
X115996400Y-82401260D01*
X115920828Y-82218812D01*
X115781188Y-82079172D01*
X115598740Y-82003600D01*
X115401260Y-82003600D01*
X115218812Y-82079172D01*
X115079172Y-82218812D01*
X115003600Y-82401260D01*
X113996400Y-82401260D01*
X113920828Y-82218812D01*
X113781188Y-82079172D01*
X113598740Y-82003600D01*
X113401260Y-82003600D01*
X113218812Y-82079172D01*
X113079172Y-82218812D01*
X113003600Y-82401260D01*
X112996400Y-82401260D01*
X112920828Y-82218812D01*
X112781188Y-82079172D01*
X112598740Y-82003600D01*
X112590000Y-82003600D01*
X112590000Y-81996400D01*
X112598740Y-81996400D01*
X112781188Y-81920828D01*
X112920828Y-81781188D01*
X112996400Y-81598740D01*
X112996400Y-81401260D01*
X113003600Y-81401260D01*
X113003600Y-81598740D01*
X113079172Y-81781188D01*
X113218812Y-81920828D01*
X113401260Y-81996400D01*
X113598740Y-81996400D01*
X113781188Y-81920828D01*
X113920828Y-81781188D01*
X113996400Y-81598740D01*
X113996400Y-81401260D01*
X114003600Y-81401260D01*
X114003600Y-81598740D01*
X114079172Y-81781188D01*
X114218812Y-81920828D01*
X114401260Y-81996400D01*
X114598740Y-81996400D01*
X114781188Y-81920828D01*
X114920828Y-81781188D01*
X114996400Y-81598740D01*
X114996400Y-81401260D01*
X116003600Y-81401260D01*
X116003600Y-81598740D01*
X116079172Y-81781188D01*
X116218812Y-81920828D01*
X116401260Y-81996400D01*
X116598740Y-81996400D01*
X116781188Y-81920828D01*
X116920828Y-81781188D01*
X116996400Y-81598740D01*
X116996400Y-81401260D01*
X118003600Y-81401260D01*
X118003600Y-81598740D01*
X118079172Y-81781188D01*
X118218812Y-81920828D01*
X118401260Y-81996400D01*
X118598740Y-81996400D01*
X118781188Y-81920828D01*
X118920828Y-81781188D01*
X118996400Y-81598740D01*
X118996400Y-81401260D01*
X118920828Y-81218812D01*
X118781188Y-81079172D01*
X118598740Y-81003600D01*
X118401260Y-81003600D01*
X118218812Y-81079172D01*
X118079172Y-81218812D01*
X118003600Y-81401260D01*
X116996400Y-81401260D01*
X116920828Y-81218812D01*
X116781188Y-81079172D01*
X116598740Y-81003600D01*
X116401260Y-81003600D01*
X116218812Y-81079172D01*
X116079172Y-81218812D01*
X116003600Y-81401260D01*
X114996400Y-81401260D01*
X114920828Y-81218812D01*
X114781188Y-81079172D01*
X114598740Y-81003600D01*
X114401260Y-81003600D01*
X114218812Y-81079172D01*
X114079172Y-81218812D01*
X114003600Y-81401260D01*
X113996400Y-81401260D01*
X113920828Y-81218812D01*
X113781188Y-81079172D01*
X113598740Y-81003600D01*
X113401260Y-81003600D01*
X113218812Y-81079172D01*
X113079172Y-81218812D01*
X113003600Y-81401260D01*
X112996400Y-81401260D01*
X112920828Y-81218812D01*
X112781188Y-81079172D01*
X112598740Y-81003600D01*
X112590000Y-81003600D01*
X112590000Y-80996400D01*
X112598740Y-80996400D01*
X112781188Y-80920828D01*
X112920828Y-80781188D01*
X112996400Y-80598740D01*
X112996400Y-80401260D01*
X113003600Y-80401260D01*
X113003600Y-80598740D01*
X113079172Y-80781188D01*
X113218812Y-80920828D01*
X113401260Y-80996400D01*
X113598740Y-80996400D01*
X113781188Y-80920828D01*
X113920828Y-80781188D01*
X113996400Y-80598740D01*
X113996400Y-80401260D01*
X114003600Y-80401260D01*
X114003600Y-80598740D01*
X114079172Y-80781188D01*
X114218812Y-80920828D01*
X114401260Y-80996400D01*
X114598740Y-80996400D01*
X114781188Y-80920828D01*
X114920828Y-80781188D01*
X114996400Y-80598740D01*
X114996400Y-80401260D01*
X117003600Y-80401260D01*
X117003600Y-80598740D01*
X117079172Y-80781188D01*
X117218812Y-80920828D01*
X117401260Y-80996400D01*
X117598740Y-80996400D01*
X117781188Y-80920828D01*
X117920828Y-80781188D01*
X117996400Y-80598740D01*
X117996400Y-80401260D01*
X118003600Y-80401260D01*
X118003600Y-80598740D01*
X118079172Y-80781188D01*
X118218812Y-80920828D01*
X118401260Y-80996400D01*
X118598740Y-80996400D01*
X118781188Y-80920828D01*
X118920828Y-80781188D01*
X118996400Y-80598740D01*
X118996400Y-80401260D01*
X118920828Y-80218812D01*
X118781188Y-80079172D01*
X118598740Y-80003600D01*
X118401260Y-80003600D01*
X118218812Y-80079172D01*
X118079172Y-80218812D01*
X118003600Y-80401260D01*
X117996400Y-80401260D01*
X117920828Y-80218812D01*
X117781188Y-80079172D01*
X117598740Y-80003600D01*
X117401260Y-80003600D01*
X117218812Y-80079172D01*
X117079172Y-80218812D01*
X117003600Y-80401260D01*
X114996400Y-80401260D01*
X114920828Y-80218812D01*
X114781188Y-80079172D01*
X114598740Y-80003600D01*
X114401260Y-80003600D01*
X114218812Y-80079172D01*
X114079172Y-80218812D01*
X114003600Y-80401260D01*
X113996400Y-80401260D01*
X113920828Y-80218812D01*
X113781188Y-80079172D01*
X113598740Y-80003600D01*
X113401260Y-80003600D01*
X113218812Y-80079172D01*
X113079172Y-80218812D01*
X113003600Y-80401260D01*
X112996400Y-80401260D01*
X112920828Y-80218812D01*
X112781188Y-80079172D01*
X112598740Y-80003600D01*
X112590000Y-80003600D01*
X112590000Y-79401260D01*
X116003600Y-79401260D01*
X116003600Y-79598740D01*
X116079172Y-79781188D01*
X116218812Y-79920828D01*
X116401260Y-79996400D01*
X116598740Y-79996400D01*
X116781188Y-79920828D01*
X116920828Y-79781188D01*
X116996400Y-79598740D01*
X116996400Y-79401260D01*
X117003600Y-79401260D01*
X117003600Y-79598740D01*
X117079172Y-79781188D01*
X117218812Y-79920828D01*
X117401260Y-79996400D01*
X117598740Y-79996400D01*
X117781188Y-79920828D01*
X117920828Y-79781188D01*
X117996400Y-79598740D01*
X117996400Y-79401260D01*
X118003600Y-79401260D01*
X118003600Y-79598740D01*
X118079172Y-79781188D01*
X118218812Y-79920828D01*
X118401260Y-79996400D01*
X118598740Y-79996400D01*
X118781188Y-79920828D01*
X118920828Y-79781188D01*
X118996400Y-79598740D01*
X118996400Y-79401260D01*
X118920828Y-79218812D01*
X118781188Y-79079172D01*
X118598740Y-79003600D01*
X118401260Y-79003600D01*
X118218812Y-79079172D01*
X118079172Y-79218812D01*
X118003600Y-79401260D01*
X117996400Y-79401260D01*
X117920828Y-79218812D01*
X117781188Y-79079172D01*
X117598740Y-79003600D01*
X117401260Y-79003600D01*
X117218812Y-79079172D01*
X117079172Y-79218812D01*
X117003600Y-79401260D01*
X116996400Y-79401260D01*
X116920828Y-79218812D01*
X116781188Y-79079172D01*
X116598740Y-79003600D01*
X116401260Y-79003600D01*
X116218812Y-79079172D01*
X116079172Y-79218812D01*
X116003600Y-79401260D01*
X112590000Y-79401260D01*
X112590000Y-78996400D01*
X112598740Y-78996400D01*
X112781188Y-78920828D01*
X112920828Y-78781188D01*
X112996400Y-78598740D01*
X112996400Y-78401260D01*
X113003600Y-78401260D01*
X113003600Y-78598740D01*
X113079172Y-78781188D01*
X113218812Y-78920828D01*
X113401260Y-78996400D01*
X113598740Y-78996400D01*
X113781188Y-78920828D01*
X113920828Y-78781188D01*
X113996400Y-78598740D01*
X113996400Y-78401260D01*
X116003600Y-78401260D01*
X116003600Y-78598740D01*
X116079172Y-78781188D01*
X116218812Y-78920828D01*
X116401260Y-78996400D01*
X116598740Y-78996400D01*
X116781188Y-78920828D01*
X116920828Y-78781188D01*
X116996400Y-78598740D01*
X116996400Y-78401260D01*
X117003600Y-78401260D01*
X117003600Y-78598740D01*
X117079172Y-78781188D01*
X117218812Y-78920828D01*
X117401260Y-78996400D01*
X117598740Y-78996400D01*
X117781188Y-78920828D01*
X117920828Y-78781188D01*
X117996400Y-78598740D01*
X117996400Y-78401260D01*
X117920828Y-78218812D01*
X117781188Y-78079172D01*
X117598740Y-78003600D01*
X117401260Y-78003600D01*
X117218812Y-78079172D01*
X117079172Y-78218812D01*
X117003600Y-78401260D01*
X116996400Y-78401260D01*
X116920828Y-78218812D01*
X116781188Y-78079172D01*
X116598740Y-78003600D01*
X116401260Y-78003600D01*
X116218812Y-78079172D01*
X116079172Y-78218812D01*
X116003600Y-78401260D01*
X113996400Y-78401260D01*
X113920828Y-78218812D01*
X113781188Y-78079172D01*
X113598740Y-78003600D01*
X113401260Y-78003600D01*
X113218812Y-78079172D01*
X113079172Y-78218812D01*
X113003600Y-78401260D01*
X112996400Y-78401260D01*
X112920828Y-78218812D01*
X112781188Y-78079172D01*
X112598740Y-78003600D01*
X112590000Y-78003600D01*
X112590000Y-77996400D01*
X112598740Y-77996400D01*
X112781188Y-77920828D01*
X112920828Y-77781188D01*
X112996400Y-77598740D01*
X112996400Y-77590000D01*
X113003600Y-77590000D01*
X113003600Y-77598740D01*
X113003600Y-77598740D01*
G37*
X113003600Y-77598740D02*
X113079172Y-77781188D01*
X113218812Y-77920828D01*
X113401260Y-77996400D01*
X113598740Y-77996400D01*
X113781188Y-77920828D01*
X113920828Y-77781188D01*
X113996400Y-77598740D01*
X113996400Y-77590000D01*
X114003600Y-77590000D01*
X114003600Y-77598740D01*
X114079172Y-77781188D01*
X114218812Y-77920828D01*
X114401260Y-77996400D01*
X114598740Y-77996400D01*
X114781188Y-77920828D01*
X114920828Y-77781188D01*
X114996400Y-77598740D01*
X114996400Y-77590000D01*
X115003600Y-77590000D01*
X115003600Y-77598740D01*
X115079172Y-77781188D01*
X115218812Y-77920828D01*
X115401260Y-77996400D01*
X115598740Y-77996400D01*
X115781188Y-77920828D01*
X115920828Y-77781188D01*
X115996400Y-77598740D01*
X115996400Y-77590000D01*
X116003600Y-77590000D01*
X116003600Y-77598740D01*
X116079172Y-77781188D01*
X116218812Y-77920828D01*
X116401260Y-77996400D01*
X116598740Y-77996400D01*
X116781188Y-77920828D01*
X116920828Y-77781188D01*
X116996400Y-77598740D01*
X116996400Y-77590000D01*
X117003600Y-77590000D01*
X117003600Y-77598740D01*
X117079172Y-77781188D01*
X117218812Y-77920828D01*
X117401260Y-77996400D01*
X117598740Y-77996400D01*
X117781188Y-77920828D01*
X117920828Y-77781188D01*
X117996400Y-77598740D01*
X117996400Y-77590000D01*
X118003600Y-77590000D01*
X118003600Y-77598740D01*
X118079172Y-77781188D01*
X118218812Y-77920828D01*
X118401260Y-77996400D01*
X118598740Y-77996400D01*
X118781188Y-77920828D01*
X118920828Y-77781188D01*
X118996400Y-77598740D01*
X118996400Y-77590000D01*
X119003600Y-77590000D01*
X119003600Y-77598740D01*
X119079172Y-77781188D01*
X119218812Y-77920828D01*
X119401260Y-77996400D01*
X119598740Y-77996400D01*
X119781188Y-77920828D01*
X119910000Y-77792016D01*
X119910000Y-79207984D01*
X119781188Y-79079172D01*
X119598740Y-79003600D01*
X119401260Y-79003600D01*
X119218812Y-79079172D01*
X119079172Y-79218812D01*
X119003600Y-79401260D01*
X119003600Y-79598740D01*
X119079172Y-79781188D01*
X119218812Y-79920828D01*
X119401260Y-79996400D01*
X119598740Y-79996400D01*
X119781188Y-79920828D01*
X119910000Y-79792016D01*
X119910000Y-81207984D01*
X119781188Y-81079172D01*
X119598740Y-81003600D01*
X119401260Y-81003600D01*
X119218812Y-81079172D01*
X119079172Y-81218812D01*
X119003600Y-81401260D01*
X119003600Y-81598740D01*
X119079172Y-81781188D01*
X119218812Y-81920828D01*
X119401260Y-81996400D01*
X119598740Y-81996400D01*
X119781188Y-81920828D01*
X119910000Y-81792016D01*
X119910000Y-84207984D01*
X119781188Y-84079172D01*
X119598740Y-84003600D01*
X119401260Y-84003600D01*
X119218812Y-84079172D01*
X119079172Y-84218812D01*
X119003600Y-84401260D01*
X119003600Y-84598740D01*
X119079172Y-84781188D01*
X119218812Y-84920828D01*
X119401260Y-84996400D01*
X119598740Y-84996400D01*
X119781188Y-84920828D01*
X119910000Y-84792016D01*
X119910000Y-88207984D01*
X119781188Y-88079172D01*
X119598740Y-88003600D01*
X119401260Y-88003600D01*
X119218812Y-88079172D01*
X119079172Y-88218812D01*
X119003600Y-88401260D01*
X119003600Y-88410000D01*
X117996400Y-88410000D01*
X117996400Y-88401260D01*
X117920828Y-88218812D01*
X117781188Y-88079172D01*
X117598740Y-88003600D01*
X117401260Y-88003600D01*
X117218812Y-88079172D01*
X117079172Y-88218812D01*
X117003600Y-88401260D01*
X117003600Y-88410000D01*
X116996400Y-88410000D01*
X116996400Y-88401260D01*
X116920828Y-88218812D01*
X116781188Y-88079172D01*
X116598740Y-88003600D01*
X116401260Y-88003600D01*
X116218812Y-88079172D01*
X116079172Y-88218812D01*
X116003600Y-88401260D01*
X116003600Y-88410000D01*
X114996400Y-88410000D01*
X114996400Y-88401260D01*
X114920828Y-88218812D01*
X114781188Y-88079172D01*
X114598740Y-88003600D01*
X114401260Y-88003600D01*
X114218812Y-88079172D01*
X114079172Y-88218812D01*
X114003600Y-88401260D01*
X114003600Y-88410000D01*
X113996400Y-88410000D01*
X113996400Y-88401260D01*
X113920828Y-88218812D01*
X113781188Y-88079172D01*
X113598740Y-88003600D01*
X113401260Y-88003600D01*
X113218812Y-88079172D01*
X113079172Y-88218812D01*
X113003600Y-88401260D01*
X113003600Y-88410000D01*
X112996400Y-88410000D01*
X112996400Y-88401260D01*
X112920828Y-88218812D01*
X112781188Y-88079172D01*
X112598740Y-88003600D01*
X112590000Y-88003600D01*
X112590000Y-87401260D01*
X114003600Y-87401260D01*
X114003600Y-87598740D01*
X114079172Y-87781188D01*
X114218812Y-87920828D01*
X114401260Y-87996400D01*
X114598740Y-87996400D01*
X114781188Y-87920828D01*
X114920828Y-87781188D01*
X114996400Y-87598740D01*
X114996400Y-87401260D01*
X115003600Y-87401260D01*
X115003600Y-87598740D01*
X115079172Y-87781188D01*
X115218812Y-87920828D01*
X115401260Y-87996400D01*
X115598740Y-87996400D01*
X115781188Y-87920828D01*
X115920828Y-87781188D01*
X115996400Y-87598740D01*
X115996400Y-87401260D01*
X116003600Y-87401260D01*
X116003600Y-87598740D01*
X116079172Y-87781188D01*
X116218812Y-87920828D01*
X116401260Y-87996400D01*
X116598740Y-87996400D01*
X116781188Y-87920828D01*
X116920828Y-87781188D01*
X116996400Y-87598740D01*
X116996400Y-87401260D01*
X116920828Y-87218812D01*
X116781188Y-87079172D01*
X116598740Y-87003600D01*
X116401260Y-87003600D01*
X116218812Y-87079172D01*
X116079172Y-87218812D01*
X116003600Y-87401260D01*
X115996400Y-87401260D01*
X115920828Y-87218812D01*
X115781188Y-87079172D01*
X115598740Y-87003600D01*
X115401260Y-87003600D01*
X115218812Y-87079172D01*
X115079172Y-87218812D01*
X115003600Y-87401260D01*
X114996400Y-87401260D01*
X114920828Y-87218812D01*
X114781188Y-87079172D01*
X114598740Y-87003600D01*
X114401260Y-87003600D01*
X114218812Y-87079172D01*
X114079172Y-87218812D01*
X114003600Y-87401260D01*
X112590000Y-87401260D01*
X112590000Y-86996400D01*
X112598740Y-86996400D01*
X112781188Y-86920828D01*
X112920828Y-86781188D01*
X112996400Y-86598740D01*
X112996400Y-86401260D01*
X112920828Y-86218812D01*
X112781188Y-86079172D01*
X112598740Y-86003600D01*
X112590000Y-86003600D01*
X112590000Y-85996400D01*
X112598740Y-85996400D01*
X112781188Y-85920828D01*
X112920828Y-85781188D01*
X112996400Y-85598740D01*
X112996400Y-85401260D01*
X113003600Y-85401260D01*
X113003600Y-85598740D01*
X113079172Y-85781188D01*
X113218812Y-85920828D01*
X113401260Y-85996400D01*
X113598740Y-85996400D01*
X113781188Y-85920828D01*
X113920828Y-85781188D01*
X113996400Y-85598740D01*
X113996400Y-85401260D01*
X114003600Y-85401260D01*
X114003600Y-85598740D01*
X114079172Y-85781188D01*
X114218812Y-85920828D01*
X114401260Y-85996400D01*
X114598740Y-85996400D01*
X114781188Y-85920828D01*
X114920828Y-85781188D01*
X114996400Y-85598740D01*
X114996400Y-85401260D01*
X116003600Y-85401260D01*
X116003600Y-85598740D01*
X116079172Y-85781188D01*
X116218812Y-85920828D01*
X116401260Y-85996400D01*
X116598740Y-85996400D01*
X116781188Y-85920828D01*
X116920828Y-85781188D01*
X116996400Y-85598740D01*
X116996400Y-85401260D01*
X117003600Y-85401260D01*
X117003600Y-85598740D01*
X117079172Y-85781188D01*
X117218812Y-85920828D01*
X117401260Y-85996400D01*
X117598740Y-85996400D01*
X117781188Y-85920828D01*
X117920828Y-85781188D01*
X117996400Y-85598740D01*
X117996400Y-85401260D01*
X118003600Y-85401260D01*
X118003600Y-85598740D01*
X118079172Y-85781188D01*
X118218812Y-85920828D01*
X118401260Y-85996400D01*
X118598740Y-85996400D01*
X118781188Y-85920828D01*
X118920828Y-85781188D01*
X118996400Y-85598740D01*
X118996400Y-85401260D01*
X118920828Y-85218812D01*
X118781188Y-85079172D01*
X118598740Y-85003600D01*
X118401260Y-85003600D01*
X118218812Y-85079172D01*
X118079172Y-85218812D01*
X118003600Y-85401260D01*
X117996400Y-85401260D01*
X117920828Y-85218812D01*
X117781188Y-85079172D01*
X117598740Y-85003600D01*
X117401260Y-85003600D01*
X117218812Y-85079172D01*
X117079172Y-85218812D01*
X117003600Y-85401260D01*
X116996400Y-85401260D01*
X116920828Y-85218812D01*
X116781188Y-85079172D01*
X116598740Y-85003600D01*
X116401260Y-85003600D01*
X116218812Y-85079172D01*
X116079172Y-85218812D01*
X116003600Y-85401260D01*
X114996400Y-85401260D01*
X114920828Y-85218812D01*
X114781188Y-85079172D01*
X114598740Y-85003600D01*
X114401260Y-85003600D01*
X114218812Y-85079172D01*
X114079172Y-85218812D01*
X114003600Y-85401260D01*
X113996400Y-85401260D01*
X113920828Y-85218812D01*
X113781188Y-85079172D01*
X113598740Y-85003600D01*
X113401260Y-85003600D01*
X113218812Y-85079172D01*
X113079172Y-85218812D01*
X113003600Y-85401260D01*
X112996400Y-85401260D01*
X112920828Y-85218812D01*
X112781188Y-85079172D01*
X112598740Y-85003600D01*
X112590000Y-85003600D01*
X112590000Y-84996400D01*
X112598740Y-84996400D01*
X112781188Y-84920828D01*
X112920828Y-84781188D01*
X112996400Y-84598740D01*
X112996400Y-84401260D01*
X113003600Y-84401260D01*
X113003600Y-84598740D01*
X113079172Y-84781188D01*
X113218812Y-84920828D01*
X113401260Y-84996400D01*
X113598740Y-84996400D01*
X113781188Y-84920828D01*
X113920828Y-84781188D01*
X113996400Y-84598740D01*
X113996400Y-84401260D01*
X114003600Y-84401260D01*
X114003600Y-84598740D01*
X114079172Y-84781188D01*
X114218812Y-84920828D01*
X114401260Y-84996400D01*
X114598740Y-84996400D01*
X114781188Y-84920828D01*
X114920828Y-84781188D01*
X114996400Y-84598740D01*
X114996400Y-84401260D01*
X116003600Y-84401260D01*
X116003600Y-84598740D01*
X116079172Y-84781188D01*
X116218812Y-84920828D01*
X116401260Y-84996400D01*
X116598740Y-84996400D01*
X116781188Y-84920828D01*
X116920828Y-84781188D01*
X116996400Y-84598740D01*
X116996400Y-84401260D01*
X118003600Y-84401260D01*
X118003600Y-84598740D01*
X118079172Y-84781188D01*
X118218812Y-84920828D01*
X118401260Y-84996400D01*
X118598740Y-84996400D01*
X118781188Y-84920828D01*
X118920828Y-84781188D01*
X118996400Y-84598740D01*
X118996400Y-84401260D01*
X118920828Y-84218812D01*
X118781188Y-84079172D01*
X118598740Y-84003600D01*
X118401260Y-84003600D01*
X118218812Y-84079172D01*
X118079172Y-84218812D01*
X118003600Y-84401260D01*
X116996400Y-84401260D01*
X116920828Y-84218812D01*
X116781188Y-84079172D01*
X116598740Y-84003600D01*
X116401260Y-84003600D01*
X116218812Y-84079172D01*
X116079172Y-84218812D01*
X116003600Y-84401260D01*
X114996400Y-84401260D01*
X114920828Y-84218812D01*
X114781188Y-84079172D01*
X114598740Y-84003600D01*
X114401260Y-84003600D01*
X114218812Y-84079172D01*
X114079172Y-84218812D01*
X114003600Y-84401260D01*
X113996400Y-84401260D01*
X113920828Y-84218812D01*
X113781188Y-84079172D01*
X113598740Y-84003600D01*
X113401260Y-84003600D01*
X113218812Y-84079172D01*
X113079172Y-84218812D01*
X113003600Y-84401260D01*
X112996400Y-84401260D01*
X112920828Y-84218812D01*
X112781188Y-84079172D01*
X112598740Y-84003600D01*
X112590000Y-84003600D01*
X112590000Y-83401260D01*
X113003600Y-83401260D01*
X113003600Y-83598740D01*
X113079172Y-83781188D01*
X113218812Y-83920828D01*
X113401260Y-83996400D01*
X113598740Y-83996400D01*
X113781188Y-83920828D01*
X113920828Y-83781188D01*
X113996400Y-83598740D01*
X113996400Y-83401260D01*
X114003600Y-83401260D01*
X114003600Y-83598740D01*
X114079172Y-83781188D01*
X114218812Y-83920828D01*
X114401260Y-83996400D01*
X114598740Y-83996400D01*
X114781188Y-83920828D01*
X114920828Y-83781188D01*
X114996400Y-83598740D01*
X114996400Y-83401260D01*
X115003600Y-83401260D01*
X115003600Y-83598740D01*
X115079172Y-83781188D01*
X115218812Y-83920828D01*
X115401260Y-83996400D01*
X115598740Y-83996400D01*
X115781188Y-83920828D01*
X115920828Y-83781188D01*
X115996400Y-83598740D01*
X115996400Y-83401260D01*
X117003600Y-83401260D01*
X117003600Y-83598740D01*
X117079172Y-83781188D01*
X117218812Y-83920828D01*
X117401260Y-83996400D01*
X117598740Y-83996400D01*
X117781188Y-83920828D01*
X117920828Y-83781188D01*
X117996400Y-83598740D01*
X117996400Y-83401260D01*
X118003600Y-83401260D01*
X118003600Y-83598740D01*
X118079172Y-83781188D01*
X118218812Y-83920828D01*
X118401260Y-83996400D01*
X118598740Y-83996400D01*
X118781188Y-83920828D01*
X118920828Y-83781188D01*
X118996400Y-83598740D01*
X118996400Y-83401260D01*
X118920828Y-83218812D01*
X118781188Y-83079172D01*
X118598740Y-83003600D01*
X118401260Y-83003600D01*
X118218812Y-83079172D01*
X118079172Y-83218812D01*
X118003600Y-83401260D01*
X117996400Y-83401260D01*
X117920828Y-83218812D01*
X117781188Y-83079172D01*
X117598740Y-83003600D01*
X117401260Y-83003600D01*
X117218812Y-83079172D01*
X117079172Y-83218812D01*
X117003600Y-83401260D01*
X115996400Y-83401260D01*
X115920828Y-83218812D01*
X115781188Y-83079172D01*
X115598740Y-83003600D01*
X115401260Y-83003600D01*
X115218812Y-83079172D01*
X115079172Y-83218812D01*
X115003600Y-83401260D01*
X114996400Y-83401260D01*
X114920828Y-83218812D01*
X114781188Y-83079172D01*
X114598740Y-83003600D01*
X114401260Y-83003600D01*
X114218812Y-83079172D01*
X114079172Y-83218812D01*
X114003600Y-83401260D01*
X113996400Y-83401260D01*
X113920828Y-83218812D01*
X113781188Y-83079172D01*
X113598740Y-83003600D01*
X113401260Y-83003600D01*
X113218812Y-83079172D01*
X113079172Y-83218812D01*
X113003600Y-83401260D01*
X112590000Y-83401260D01*
X112590000Y-82996400D01*
X112598740Y-82996400D01*
X112781188Y-82920828D01*
X112920828Y-82781188D01*
X112996400Y-82598740D01*
X112996400Y-82401260D01*
X113003600Y-82401260D01*
X113003600Y-82598740D01*
X113079172Y-82781188D01*
X113218812Y-82920828D01*
X113401260Y-82996400D01*
X113598740Y-82996400D01*
X113781188Y-82920828D01*
X113920828Y-82781188D01*
X113996400Y-82598740D01*
X113996400Y-82401260D01*
X115003600Y-82401260D01*
X115003600Y-82598740D01*
X115079172Y-82781188D01*
X115218812Y-82920828D01*
X115401260Y-82996400D01*
X115598740Y-82996400D01*
X115781188Y-82920828D01*
X115920828Y-82781188D01*
X115996400Y-82598740D01*
X115996400Y-82401260D01*
X117003600Y-82401260D01*
X117003600Y-82598740D01*
X117079172Y-82781188D01*
X117218812Y-82920828D01*
X117401260Y-82996400D01*
X117598740Y-82996400D01*
X117781188Y-82920828D01*
X117920828Y-82781188D01*
X117996400Y-82598740D01*
X117996400Y-82401260D01*
X117920828Y-82218812D01*
X117781188Y-82079172D01*
X117598740Y-82003600D01*
X117401260Y-82003600D01*
X117218812Y-82079172D01*
X117079172Y-82218812D01*
X117003600Y-82401260D01*
X115996400Y-82401260D01*
X115920828Y-82218812D01*
X115781188Y-82079172D01*
X115598740Y-82003600D01*
X115401260Y-82003600D01*
X115218812Y-82079172D01*
X115079172Y-82218812D01*
X115003600Y-82401260D01*
X113996400Y-82401260D01*
X113920828Y-82218812D01*
X113781188Y-82079172D01*
X113598740Y-82003600D01*
X113401260Y-82003600D01*
X113218812Y-82079172D01*
X113079172Y-82218812D01*
X113003600Y-82401260D01*
X112996400Y-82401260D01*
X112920828Y-82218812D01*
X112781188Y-82079172D01*
X112598740Y-82003600D01*
X112590000Y-82003600D01*
X112590000Y-81996400D01*
X112598740Y-81996400D01*
X112781188Y-81920828D01*
X112920828Y-81781188D01*
X112996400Y-81598740D01*
X112996400Y-81401260D01*
X113003600Y-81401260D01*
X113003600Y-81598740D01*
X113079172Y-81781188D01*
X113218812Y-81920828D01*
X113401260Y-81996400D01*
X113598740Y-81996400D01*
X113781188Y-81920828D01*
X113920828Y-81781188D01*
X113996400Y-81598740D01*
X113996400Y-81401260D01*
X114003600Y-81401260D01*
X114003600Y-81598740D01*
X114079172Y-81781188D01*
X114218812Y-81920828D01*
X114401260Y-81996400D01*
X114598740Y-81996400D01*
X114781188Y-81920828D01*
X114920828Y-81781188D01*
X114996400Y-81598740D01*
X114996400Y-81401260D01*
X116003600Y-81401260D01*
X116003600Y-81598740D01*
X116079172Y-81781188D01*
X116218812Y-81920828D01*
X116401260Y-81996400D01*
X116598740Y-81996400D01*
X116781188Y-81920828D01*
X116920828Y-81781188D01*
X116996400Y-81598740D01*
X116996400Y-81401260D01*
X118003600Y-81401260D01*
X118003600Y-81598740D01*
X118079172Y-81781188D01*
X118218812Y-81920828D01*
X118401260Y-81996400D01*
X118598740Y-81996400D01*
X118781188Y-81920828D01*
X118920828Y-81781188D01*
X118996400Y-81598740D01*
X118996400Y-81401260D01*
X118920828Y-81218812D01*
X118781188Y-81079172D01*
X118598740Y-81003600D01*
X118401260Y-81003600D01*
X118218812Y-81079172D01*
X118079172Y-81218812D01*
X118003600Y-81401260D01*
X116996400Y-81401260D01*
X116920828Y-81218812D01*
X116781188Y-81079172D01*
X116598740Y-81003600D01*
X116401260Y-81003600D01*
X116218812Y-81079172D01*
X116079172Y-81218812D01*
X116003600Y-81401260D01*
X114996400Y-81401260D01*
X114920828Y-81218812D01*
X114781188Y-81079172D01*
X114598740Y-81003600D01*
X114401260Y-81003600D01*
X114218812Y-81079172D01*
X114079172Y-81218812D01*
X114003600Y-81401260D01*
X113996400Y-81401260D01*
X113920828Y-81218812D01*
X113781188Y-81079172D01*
X113598740Y-81003600D01*
X113401260Y-81003600D01*
X113218812Y-81079172D01*
X113079172Y-81218812D01*
X113003600Y-81401260D01*
X112996400Y-81401260D01*
X112920828Y-81218812D01*
X112781188Y-81079172D01*
X112598740Y-81003600D01*
X112590000Y-81003600D01*
X112590000Y-80996400D01*
X112598740Y-80996400D01*
X112781188Y-80920828D01*
X112920828Y-80781188D01*
X112996400Y-80598740D01*
X112996400Y-80401260D01*
X113003600Y-80401260D01*
X113003600Y-80598740D01*
X113079172Y-80781188D01*
X113218812Y-80920828D01*
X113401260Y-80996400D01*
X113598740Y-80996400D01*
X113781188Y-80920828D01*
X113920828Y-80781188D01*
X113996400Y-80598740D01*
X113996400Y-80401260D01*
X114003600Y-80401260D01*
X114003600Y-80598740D01*
X114079172Y-80781188D01*
X114218812Y-80920828D01*
X114401260Y-80996400D01*
X114598740Y-80996400D01*
X114781188Y-80920828D01*
X114920828Y-80781188D01*
X114996400Y-80598740D01*
X114996400Y-80401260D01*
X117003600Y-80401260D01*
X117003600Y-80598740D01*
X117079172Y-80781188D01*
X117218812Y-80920828D01*
X117401260Y-80996400D01*
X117598740Y-80996400D01*
X117781188Y-80920828D01*
X117920828Y-80781188D01*
X117996400Y-80598740D01*
X117996400Y-80401260D01*
X118003600Y-80401260D01*
X118003600Y-80598740D01*
X118079172Y-80781188D01*
X118218812Y-80920828D01*
X118401260Y-80996400D01*
X118598740Y-80996400D01*
X118781188Y-80920828D01*
X118920828Y-80781188D01*
X118996400Y-80598740D01*
X118996400Y-80401260D01*
X118920828Y-80218812D01*
X118781188Y-80079172D01*
X118598740Y-80003600D01*
X118401260Y-80003600D01*
X118218812Y-80079172D01*
X118079172Y-80218812D01*
X118003600Y-80401260D01*
X117996400Y-80401260D01*
X117920828Y-80218812D01*
X117781188Y-80079172D01*
X117598740Y-80003600D01*
X117401260Y-80003600D01*
X117218812Y-80079172D01*
X117079172Y-80218812D01*
X117003600Y-80401260D01*
X114996400Y-80401260D01*
X114920828Y-80218812D01*
X114781188Y-80079172D01*
X114598740Y-80003600D01*
X114401260Y-80003600D01*
X114218812Y-80079172D01*
X114079172Y-80218812D01*
X114003600Y-80401260D01*
X113996400Y-80401260D01*
X113920828Y-80218812D01*
X113781188Y-80079172D01*
X113598740Y-80003600D01*
X113401260Y-80003600D01*
X113218812Y-80079172D01*
X113079172Y-80218812D01*
X113003600Y-80401260D01*
X112996400Y-80401260D01*
X112920828Y-80218812D01*
X112781188Y-80079172D01*
X112598740Y-80003600D01*
X112590000Y-80003600D01*
X112590000Y-79401260D01*
X116003600Y-79401260D01*
X116003600Y-79598740D01*
X116079172Y-79781188D01*
X116218812Y-79920828D01*
X116401260Y-79996400D01*
X116598740Y-79996400D01*
X116781188Y-79920828D01*
X116920828Y-79781188D01*
X116996400Y-79598740D01*
X116996400Y-79401260D01*
X117003600Y-79401260D01*
X117003600Y-79598740D01*
X117079172Y-79781188D01*
X117218812Y-79920828D01*
X117401260Y-79996400D01*
X117598740Y-79996400D01*
X117781188Y-79920828D01*
X117920828Y-79781188D01*
X117996400Y-79598740D01*
X117996400Y-79401260D01*
X118003600Y-79401260D01*
X118003600Y-79598740D01*
X118079172Y-79781188D01*
X118218812Y-79920828D01*
X118401260Y-79996400D01*
X118598740Y-79996400D01*
X118781188Y-79920828D01*
X118920828Y-79781188D01*
X118996400Y-79598740D01*
X118996400Y-79401260D01*
X118920828Y-79218812D01*
X118781188Y-79079172D01*
X118598740Y-79003600D01*
X118401260Y-79003600D01*
X118218812Y-79079172D01*
X118079172Y-79218812D01*
X118003600Y-79401260D01*
X117996400Y-79401260D01*
X117920828Y-79218812D01*
X117781188Y-79079172D01*
X117598740Y-79003600D01*
X117401260Y-79003600D01*
X117218812Y-79079172D01*
X117079172Y-79218812D01*
X117003600Y-79401260D01*
X116996400Y-79401260D01*
X116920828Y-79218812D01*
X116781188Y-79079172D01*
X116598740Y-79003600D01*
X116401260Y-79003600D01*
X116218812Y-79079172D01*
X116079172Y-79218812D01*
X116003600Y-79401260D01*
X112590000Y-79401260D01*
X112590000Y-78996400D01*
X112598740Y-78996400D01*
X112781188Y-78920828D01*
X112920828Y-78781188D01*
X112996400Y-78598740D01*
X112996400Y-78401260D01*
X113003600Y-78401260D01*
X113003600Y-78598740D01*
X113079172Y-78781188D01*
X113218812Y-78920828D01*
X113401260Y-78996400D01*
X113598740Y-78996400D01*
X113781188Y-78920828D01*
X113920828Y-78781188D01*
X113996400Y-78598740D01*
X113996400Y-78401260D01*
X116003600Y-78401260D01*
X116003600Y-78598740D01*
X116079172Y-78781188D01*
X116218812Y-78920828D01*
X116401260Y-78996400D01*
X116598740Y-78996400D01*
X116781188Y-78920828D01*
X116920828Y-78781188D01*
X116996400Y-78598740D01*
X116996400Y-78401260D01*
X117003600Y-78401260D01*
X117003600Y-78598740D01*
X117079172Y-78781188D01*
X117218812Y-78920828D01*
X117401260Y-78996400D01*
X117598740Y-78996400D01*
X117781188Y-78920828D01*
X117920828Y-78781188D01*
X117996400Y-78598740D01*
X117996400Y-78401260D01*
X117920828Y-78218812D01*
X117781188Y-78079172D01*
X117598740Y-78003600D01*
X117401260Y-78003600D01*
X117218812Y-78079172D01*
X117079172Y-78218812D01*
X117003600Y-78401260D01*
X116996400Y-78401260D01*
X116920828Y-78218812D01*
X116781188Y-78079172D01*
X116598740Y-78003600D01*
X116401260Y-78003600D01*
X116218812Y-78079172D01*
X116079172Y-78218812D01*
X116003600Y-78401260D01*
X113996400Y-78401260D01*
X113920828Y-78218812D01*
X113781188Y-78079172D01*
X113598740Y-78003600D01*
X113401260Y-78003600D01*
X113218812Y-78079172D01*
X113079172Y-78218812D01*
X113003600Y-78401260D01*
X112996400Y-78401260D01*
X112920828Y-78218812D01*
X112781188Y-78079172D01*
X112598740Y-78003600D01*
X112590000Y-78003600D01*
X112590000Y-77996400D01*
X112598740Y-77996400D01*
X112781188Y-77920828D01*
X112920828Y-77781188D01*
X112996400Y-77598740D01*
X112996400Y-77590000D01*
X113003600Y-77590000D01*
X113003600Y-77598740D01*
D27*
G04 #@! TO.N,/imagers/CAM1_1V8*
G36*
X205373000Y-93873000D02*
X189627000Y-93873000D01*
X189627000Y-91683795D01*
X190115800Y-91683795D01*
X190115800Y-91916205D01*
X190204739Y-92130923D01*
X190369077Y-92295261D01*
X190583795Y-92384200D01*
X190816205Y-92384200D01*
X191030923Y-92295261D01*
X191042389Y-92283795D01*
X192515800Y-92283795D01*
X192515800Y-92516205D01*
X192604739Y-92730923D01*
X192769077Y-92895261D01*
X192983795Y-92984200D01*
X193216205Y-92984200D01*
X193430923Y-92895261D01*
X193450000Y-92876184D01*
X193469077Y-92895261D01*
X193683795Y-92984200D01*
X193916205Y-92984200D01*
X194130923Y-92895261D01*
X194295261Y-92730923D01*
X194384200Y-92516205D01*
X194384200Y-92283795D01*
X194512200Y-92283795D01*
X194512200Y-92516205D01*
X194601139Y-92730923D01*
X194765477Y-92895261D01*
X194980195Y-92984200D01*
X195212605Y-92984200D01*
X195427323Y-92895261D01*
X195452000Y-92870584D01*
X195476677Y-92895261D01*
X195691395Y-92984200D01*
X195923805Y-92984200D01*
X196138523Y-92895261D01*
X196302861Y-92730923D01*
X196391800Y-92516205D01*
X196391800Y-92283795D01*
X196544200Y-92283795D01*
X196544200Y-92516205D01*
X196633139Y-92730923D01*
X196797477Y-92895261D01*
X197012195Y-92984200D01*
X197244605Y-92984200D01*
X197459323Y-92895261D01*
X197484000Y-92870584D01*
X197508677Y-92895261D01*
X197723395Y-92984200D01*
X197955805Y-92984200D01*
X198170523Y-92895261D01*
X198334861Y-92730923D01*
X198423800Y-92516205D01*
X198423800Y-92283795D01*
X198576200Y-92283795D01*
X198576200Y-92516205D01*
X198665139Y-92730923D01*
X198829477Y-92895261D01*
X199044195Y-92984200D01*
X199276605Y-92984200D01*
X199491323Y-92895261D01*
X199516000Y-92870584D01*
X199540677Y-92895261D01*
X199755395Y-92984200D01*
X199987805Y-92984200D01*
X200202523Y-92895261D01*
X200366861Y-92730923D01*
X200455800Y-92516205D01*
X200455800Y-92283795D01*
X200608200Y-92283795D01*
X200608200Y-92516205D01*
X200697139Y-92730923D01*
X200861477Y-92895261D01*
X201076195Y-92984200D01*
X201308605Y-92984200D01*
X201523323Y-92895261D01*
X201548000Y-92870584D01*
X201572677Y-92895261D01*
X201787395Y-92984200D01*
X202019805Y-92984200D01*
X202234523Y-92895261D01*
X202398861Y-92730923D01*
X202487800Y-92516205D01*
X202487800Y-92283795D01*
X202615800Y-92283795D01*
X202615800Y-92516205D01*
X202704739Y-92730923D01*
X202869077Y-92895261D01*
X203083795Y-92984200D01*
X203316205Y-92984200D01*
X203530923Y-92895261D01*
X203550000Y-92876184D01*
X203569077Y-92895261D01*
X203783795Y-92984200D01*
X204016205Y-92984200D01*
X204230923Y-92895261D01*
X204395261Y-92730923D01*
X204484200Y-92516205D01*
X204484200Y-92283795D01*
X204395261Y-92069077D01*
X204230923Y-91904739D01*
X204016205Y-91815800D01*
X203783795Y-91815800D01*
X203569077Y-91904739D01*
X203550000Y-91923816D01*
X203530923Y-91904739D01*
X203316205Y-91815800D01*
X203083795Y-91815800D01*
X202869077Y-91904739D01*
X202704739Y-92069077D01*
X202615800Y-92283795D01*
X202487800Y-92283795D01*
X202398861Y-92069077D01*
X202234523Y-91904739D01*
X202019805Y-91815800D01*
X201787395Y-91815800D01*
X201572677Y-91904739D01*
X201548000Y-91929416D01*
X201523323Y-91904739D01*
X201308605Y-91815800D01*
X201076195Y-91815800D01*
X200861477Y-91904739D01*
X200697139Y-92069077D01*
X200608200Y-92283795D01*
X200455800Y-92283795D01*
X200366861Y-92069077D01*
X200202523Y-91904739D01*
X199987805Y-91815800D01*
X199755395Y-91815800D01*
X199540677Y-91904739D01*
X199516000Y-91929416D01*
X199491323Y-91904739D01*
X199276605Y-91815800D01*
X199044195Y-91815800D01*
X198829477Y-91904739D01*
X198665139Y-92069077D01*
X198576200Y-92283795D01*
X198423800Y-92283795D01*
X198334861Y-92069077D01*
X198170523Y-91904739D01*
X197955805Y-91815800D01*
X197723395Y-91815800D01*
X197508677Y-91904739D01*
X197484000Y-91929416D01*
X197459323Y-91904739D01*
X197244605Y-91815800D01*
X197012195Y-91815800D01*
X196797477Y-91904739D01*
X196633139Y-92069077D01*
X196544200Y-92283795D01*
X196391800Y-92283795D01*
X196302861Y-92069077D01*
X196138523Y-91904739D01*
X195923805Y-91815800D01*
X195691395Y-91815800D01*
X195476677Y-91904739D01*
X195452000Y-91929416D01*
X195427323Y-91904739D01*
X195212605Y-91815800D01*
X194980195Y-91815800D01*
X194765477Y-91904739D01*
X194601139Y-92069077D01*
X194512200Y-92283795D01*
X194384200Y-92283795D01*
X194295261Y-92069077D01*
X194130923Y-91904739D01*
X193916205Y-91815800D01*
X193683795Y-91815800D01*
X193469077Y-91904739D01*
X193450000Y-91923816D01*
X193430923Y-91904739D01*
X193216205Y-91815800D01*
X192983795Y-91815800D01*
X192769077Y-91904739D01*
X192604739Y-92069077D01*
X192515800Y-92283795D01*
X191042389Y-92283795D01*
X191195261Y-92130923D01*
X191284200Y-91916205D01*
X191284200Y-91683795D01*
X191195261Y-91469077D01*
X191030923Y-91304739D01*
X190816205Y-91215800D01*
X190583795Y-91215800D01*
X190369077Y-91304739D01*
X190204739Y-91469077D01*
X190115800Y-91683795D01*
X189627000Y-91683795D01*
X189627000Y-90383795D01*
X203315800Y-90383795D01*
X203315800Y-90616205D01*
X203404739Y-90830923D01*
X203569077Y-90995261D01*
X203783795Y-91084200D01*
X204016205Y-91084200D01*
X204230923Y-90995261D01*
X204395261Y-90830923D01*
X204484200Y-90616205D01*
X204484200Y-90383795D01*
X204395261Y-90169077D01*
X204230923Y-90004739D01*
X204016205Y-89915800D01*
X203783795Y-89915800D01*
X203569077Y-90004739D01*
X203404739Y-90169077D01*
X203315800Y-90383795D01*
X189627000Y-90383795D01*
X189627000Y-89627000D01*
X197500000Y-89627000D01*
X197548601Y-89617333D01*
X197589803Y-89589803D01*
X197617333Y-89548601D01*
X197627000Y-89500000D01*
X197627000Y-86383795D01*
X203315800Y-86383795D01*
X203315800Y-86616205D01*
X203404739Y-86830923D01*
X203569077Y-86995261D01*
X203580518Y-87000000D01*
X203569077Y-87004739D01*
X203404739Y-87169077D01*
X203315800Y-87383795D01*
X203315800Y-87616205D01*
X203404739Y-87830923D01*
X203569077Y-87995261D01*
X203580518Y-88000000D01*
X203569077Y-88004739D01*
X203404739Y-88169077D01*
X203315800Y-88383795D01*
X203315800Y-88616205D01*
X203404739Y-88830923D01*
X203569077Y-88995261D01*
X203783795Y-89084200D01*
X204016205Y-89084200D01*
X204230923Y-88995261D01*
X204395261Y-88830923D01*
X204484200Y-88616205D01*
X204484200Y-88383795D01*
X204395261Y-88169077D01*
X204230923Y-88004739D01*
X204219482Y-88000000D01*
X204230923Y-87995261D01*
X204395261Y-87830923D01*
X204484200Y-87616205D01*
X204484200Y-87383795D01*
X204395261Y-87169077D01*
X204230923Y-87004739D01*
X204219482Y-87000000D01*
X204230923Y-86995261D01*
X204395261Y-86830923D01*
X204484200Y-86616205D01*
X204484200Y-86383795D01*
X204395261Y-86169077D01*
X204230923Y-86004739D01*
X204016205Y-85915800D01*
X203783795Y-85915800D01*
X203569077Y-86004739D01*
X203404739Y-86169077D01*
X203315800Y-86383795D01*
X197627000Y-86383795D01*
X197627000Y-84127000D01*
X205373000Y-84127000D01*
X205373000Y-93873000D01*
X205373000Y-93873000D01*
G37*
X205373000Y-93873000D02*
X189627000Y-93873000D01*
X189627000Y-91683795D01*
X190115800Y-91683795D01*
X190115800Y-91916205D01*
X190204739Y-92130923D01*
X190369077Y-92295261D01*
X190583795Y-92384200D01*
X190816205Y-92384200D01*
X191030923Y-92295261D01*
X191042389Y-92283795D01*
X192515800Y-92283795D01*
X192515800Y-92516205D01*
X192604739Y-92730923D01*
X192769077Y-92895261D01*
X192983795Y-92984200D01*
X193216205Y-92984200D01*
X193430923Y-92895261D01*
X193450000Y-92876184D01*
X193469077Y-92895261D01*
X193683795Y-92984200D01*
X193916205Y-92984200D01*
X194130923Y-92895261D01*
X194295261Y-92730923D01*
X194384200Y-92516205D01*
X194384200Y-92283795D01*
X194512200Y-92283795D01*
X194512200Y-92516205D01*
X194601139Y-92730923D01*
X194765477Y-92895261D01*
X194980195Y-92984200D01*
X195212605Y-92984200D01*
X195427323Y-92895261D01*
X195452000Y-92870584D01*
X195476677Y-92895261D01*
X195691395Y-92984200D01*
X195923805Y-92984200D01*
X196138523Y-92895261D01*
X196302861Y-92730923D01*
X196391800Y-92516205D01*
X196391800Y-92283795D01*
X196544200Y-92283795D01*
X196544200Y-92516205D01*
X196633139Y-92730923D01*
X196797477Y-92895261D01*
X197012195Y-92984200D01*
X197244605Y-92984200D01*
X197459323Y-92895261D01*
X197484000Y-92870584D01*
X197508677Y-92895261D01*
X197723395Y-92984200D01*
X197955805Y-92984200D01*
X198170523Y-92895261D01*
X198334861Y-92730923D01*
X198423800Y-92516205D01*
X198423800Y-92283795D01*
X198576200Y-92283795D01*
X198576200Y-92516205D01*
X198665139Y-92730923D01*
X198829477Y-92895261D01*
X199044195Y-92984200D01*
X199276605Y-92984200D01*
X199491323Y-92895261D01*
X199516000Y-92870584D01*
X199540677Y-92895261D01*
X199755395Y-92984200D01*
X199987805Y-92984200D01*
X200202523Y-92895261D01*
X200366861Y-92730923D01*
X200455800Y-92516205D01*
X200455800Y-92283795D01*
X200608200Y-92283795D01*
X200608200Y-92516205D01*
X200697139Y-92730923D01*
X200861477Y-92895261D01*
X201076195Y-92984200D01*
X201308605Y-92984200D01*
X201523323Y-92895261D01*
X201548000Y-92870584D01*
X201572677Y-92895261D01*
X201787395Y-92984200D01*
X202019805Y-92984200D01*
X202234523Y-92895261D01*
X202398861Y-92730923D01*
X202487800Y-92516205D01*
X202487800Y-92283795D01*
X202615800Y-92283795D01*
X202615800Y-92516205D01*
X202704739Y-92730923D01*
X202869077Y-92895261D01*
X203083795Y-92984200D01*
X203316205Y-92984200D01*
X203530923Y-92895261D01*
X203550000Y-92876184D01*
X203569077Y-92895261D01*
X203783795Y-92984200D01*
X204016205Y-92984200D01*
X204230923Y-92895261D01*
X204395261Y-92730923D01*
X204484200Y-92516205D01*
X204484200Y-92283795D01*
X204395261Y-92069077D01*
X204230923Y-91904739D01*
X204016205Y-91815800D01*
X203783795Y-91815800D01*
X203569077Y-91904739D01*
X203550000Y-91923816D01*
X203530923Y-91904739D01*
X203316205Y-91815800D01*
X203083795Y-91815800D01*
X202869077Y-91904739D01*
X202704739Y-92069077D01*
X202615800Y-92283795D01*
X202487800Y-92283795D01*
X202398861Y-92069077D01*
X202234523Y-91904739D01*
X202019805Y-91815800D01*
X201787395Y-91815800D01*
X201572677Y-91904739D01*
X201548000Y-91929416D01*
X201523323Y-91904739D01*
X201308605Y-91815800D01*
X201076195Y-91815800D01*
X200861477Y-91904739D01*
X200697139Y-92069077D01*
X200608200Y-92283795D01*
X200455800Y-92283795D01*
X200366861Y-92069077D01*
X200202523Y-91904739D01*
X199987805Y-91815800D01*
X199755395Y-91815800D01*
X199540677Y-91904739D01*
X199516000Y-91929416D01*
X199491323Y-91904739D01*
X199276605Y-91815800D01*
X199044195Y-91815800D01*
X198829477Y-91904739D01*
X198665139Y-92069077D01*
X198576200Y-92283795D01*
X198423800Y-92283795D01*
X198334861Y-92069077D01*
X198170523Y-91904739D01*
X197955805Y-91815800D01*
X197723395Y-91815800D01*
X197508677Y-91904739D01*
X197484000Y-91929416D01*
X197459323Y-91904739D01*
X197244605Y-91815800D01*
X197012195Y-91815800D01*
X196797477Y-91904739D01*
X196633139Y-92069077D01*
X196544200Y-92283795D01*
X196391800Y-92283795D01*
X196302861Y-92069077D01*
X196138523Y-91904739D01*
X195923805Y-91815800D01*
X195691395Y-91815800D01*
X195476677Y-91904739D01*
X195452000Y-91929416D01*
X195427323Y-91904739D01*
X195212605Y-91815800D01*
X194980195Y-91815800D01*
X194765477Y-91904739D01*
X194601139Y-92069077D01*
X194512200Y-92283795D01*
X194384200Y-92283795D01*
X194295261Y-92069077D01*
X194130923Y-91904739D01*
X193916205Y-91815800D01*
X193683795Y-91815800D01*
X193469077Y-91904739D01*
X193450000Y-91923816D01*
X193430923Y-91904739D01*
X193216205Y-91815800D01*
X192983795Y-91815800D01*
X192769077Y-91904739D01*
X192604739Y-92069077D01*
X192515800Y-92283795D01*
X191042389Y-92283795D01*
X191195261Y-92130923D01*
X191284200Y-91916205D01*
X191284200Y-91683795D01*
X191195261Y-91469077D01*
X191030923Y-91304739D01*
X190816205Y-91215800D01*
X190583795Y-91215800D01*
X190369077Y-91304739D01*
X190204739Y-91469077D01*
X190115800Y-91683795D01*
X189627000Y-91683795D01*
X189627000Y-90383795D01*
X203315800Y-90383795D01*
X203315800Y-90616205D01*
X203404739Y-90830923D01*
X203569077Y-90995261D01*
X203783795Y-91084200D01*
X204016205Y-91084200D01*
X204230923Y-90995261D01*
X204395261Y-90830923D01*
X204484200Y-90616205D01*
X204484200Y-90383795D01*
X204395261Y-90169077D01*
X204230923Y-90004739D01*
X204016205Y-89915800D01*
X203783795Y-89915800D01*
X203569077Y-90004739D01*
X203404739Y-90169077D01*
X203315800Y-90383795D01*
X189627000Y-90383795D01*
X189627000Y-89627000D01*
X197500000Y-89627000D01*
X197548601Y-89617333D01*
X197589803Y-89589803D01*
X197617333Y-89548601D01*
X197627000Y-89500000D01*
X197627000Y-86383795D01*
X203315800Y-86383795D01*
X203315800Y-86616205D01*
X203404739Y-86830923D01*
X203569077Y-86995261D01*
X203580518Y-87000000D01*
X203569077Y-87004739D01*
X203404739Y-87169077D01*
X203315800Y-87383795D01*
X203315800Y-87616205D01*
X203404739Y-87830923D01*
X203569077Y-87995261D01*
X203580518Y-88000000D01*
X203569077Y-88004739D01*
X203404739Y-88169077D01*
X203315800Y-88383795D01*
X203315800Y-88616205D01*
X203404739Y-88830923D01*
X203569077Y-88995261D01*
X203783795Y-89084200D01*
X204016205Y-89084200D01*
X204230923Y-88995261D01*
X204395261Y-88830923D01*
X204484200Y-88616205D01*
X204484200Y-88383795D01*
X204395261Y-88169077D01*
X204230923Y-88004739D01*
X204219482Y-88000000D01*
X204230923Y-87995261D01*
X204395261Y-87830923D01*
X204484200Y-87616205D01*
X204484200Y-87383795D01*
X204395261Y-87169077D01*
X204230923Y-87004739D01*
X204219482Y-87000000D01*
X204230923Y-86995261D01*
X204395261Y-86830923D01*
X204484200Y-86616205D01*
X204484200Y-86383795D01*
X204395261Y-86169077D01*
X204230923Y-86004739D01*
X204016205Y-85915800D01*
X203783795Y-85915800D01*
X203569077Y-86004739D01*
X203404739Y-86169077D01*
X203315800Y-86383795D01*
X197627000Y-86383795D01*
X197627000Y-84127000D01*
X205373000Y-84127000D01*
X205373000Y-93873000D01*
G04 #@! TO.N,/imagers/CAM2_1V8*
G36*
X89373000Y-78945702D02*
X89315800Y-79083795D01*
X89315800Y-79316205D01*
X89373000Y-79454298D01*
X89373000Y-80545702D01*
X89315800Y-80683795D01*
X89315800Y-80916205D01*
X89373000Y-81054298D01*
X89373000Y-81180747D01*
X89216205Y-81115800D01*
X88983795Y-81115800D01*
X88769077Y-81204739D01*
X88604739Y-81369077D01*
X88515800Y-81583795D01*
X88515800Y-81816205D01*
X88604739Y-82030923D01*
X88769077Y-82195261D01*
X88983795Y-82284200D01*
X89216205Y-82284200D01*
X89373000Y-82219253D01*
X89373000Y-82780747D01*
X89216205Y-82715800D01*
X88983795Y-82715800D01*
X88769077Y-82804739D01*
X88604739Y-82969077D01*
X88515800Y-83183795D01*
X88515800Y-83416205D01*
X88604739Y-83630923D01*
X88769077Y-83795261D01*
X88983795Y-83884200D01*
X89216205Y-83884200D01*
X89373000Y-83819253D01*
X89373000Y-84412904D01*
X89229273Y-84269177D01*
X88639294Y-84024800D01*
X88000706Y-84024800D01*
X87410727Y-84269177D01*
X86959177Y-84720727D01*
X86714800Y-85310706D01*
X86714800Y-85949294D01*
X86959177Y-86539273D01*
X87028505Y-86608601D01*
X86722277Y-86735444D01*
X86425444Y-87032277D01*
X86264800Y-87420108D01*
X86264800Y-87839892D01*
X86425444Y-88227723D01*
X86722277Y-88524556D01*
X87110108Y-88685200D01*
X87529892Y-88685200D01*
X87917723Y-88524556D01*
X88214556Y-88227723D01*
X88375200Y-87839892D01*
X88375200Y-87420108D01*
X88298609Y-87235200D01*
X88639294Y-87235200D01*
X89229273Y-86990823D01*
X89373000Y-86847096D01*
X89373000Y-93173000D01*
X70227000Y-93173000D01*
X70227000Y-92339795D01*
X72466200Y-92339795D01*
X72466200Y-92572205D01*
X72555139Y-92786923D01*
X72719477Y-92951261D01*
X72934195Y-93040200D01*
X73166605Y-93040200D01*
X73381323Y-92951261D01*
X73406000Y-92926584D01*
X73430677Y-92951261D01*
X73645395Y-93040200D01*
X73877805Y-93040200D01*
X74092523Y-92951261D01*
X74256861Y-92786923D01*
X74345800Y-92572205D01*
X74345800Y-92339795D01*
X74498200Y-92339795D01*
X74498200Y-92572205D01*
X74587139Y-92786923D01*
X74751477Y-92951261D01*
X74966195Y-93040200D01*
X75198605Y-93040200D01*
X75413323Y-92951261D01*
X75438000Y-92926584D01*
X75462677Y-92951261D01*
X75677395Y-93040200D01*
X75909805Y-93040200D01*
X76124523Y-92951261D01*
X76288861Y-92786923D01*
X76377800Y-92572205D01*
X76377800Y-92339795D01*
X76530200Y-92339795D01*
X76530200Y-92572205D01*
X76619139Y-92786923D01*
X76783477Y-92951261D01*
X76998195Y-93040200D01*
X77230605Y-93040200D01*
X77445323Y-92951261D01*
X77470000Y-92926584D01*
X77494677Y-92951261D01*
X77709395Y-93040200D01*
X77941805Y-93040200D01*
X78156523Y-92951261D01*
X78320861Y-92786923D01*
X78409800Y-92572205D01*
X78409800Y-92339795D01*
X78562200Y-92339795D01*
X78562200Y-92572205D01*
X78651139Y-92786923D01*
X78815477Y-92951261D01*
X79030195Y-93040200D01*
X79262605Y-93040200D01*
X79477323Y-92951261D01*
X79502000Y-92926584D01*
X79526677Y-92951261D01*
X79741395Y-93040200D01*
X79973805Y-93040200D01*
X80188523Y-92951261D01*
X80352861Y-92786923D01*
X80441800Y-92572205D01*
X80441800Y-92339795D01*
X80594200Y-92339795D01*
X80594200Y-92572205D01*
X80683139Y-92786923D01*
X80847477Y-92951261D01*
X81062195Y-93040200D01*
X81294605Y-93040200D01*
X81509323Y-92951261D01*
X81534000Y-92926584D01*
X81558677Y-92951261D01*
X81773395Y-93040200D01*
X82005805Y-93040200D01*
X82220523Y-92951261D01*
X82384861Y-92786923D01*
X82473800Y-92572205D01*
X82473800Y-92339795D01*
X82626200Y-92339795D01*
X82626200Y-92572205D01*
X82715139Y-92786923D01*
X82879477Y-92951261D01*
X83094195Y-93040200D01*
X83326605Y-93040200D01*
X83541323Y-92951261D01*
X83566000Y-92926584D01*
X83590677Y-92951261D01*
X83805395Y-93040200D01*
X84037805Y-93040200D01*
X84252523Y-92951261D01*
X84416861Y-92786923D01*
X84505800Y-92572205D01*
X84505800Y-92339795D01*
X84416861Y-92125077D01*
X84252523Y-91960739D01*
X84037805Y-91871800D01*
X83805395Y-91871800D01*
X83590677Y-91960739D01*
X83566000Y-91985416D01*
X83541323Y-91960739D01*
X83326605Y-91871800D01*
X83094195Y-91871800D01*
X82879477Y-91960739D01*
X82715139Y-92125077D01*
X82626200Y-92339795D01*
X82473800Y-92339795D01*
X82384861Y-92125077D01*
X82220523Y-91960739D01*
X82005805Y-91871800D01*
X81773395Y-91871800D01*
X81558677Y-91960739D01*
X81534000Y-91985416D01*
X81509323Y-91960739D01*
X81294605Y-91871800D01*
X81062195Y-91871800D01*
X80847477Y-91960739D01*
X80683139Y-92125077D01*
X80594200Y-92339795D01*
X80441800Y-92339795D01*
X80352861Y-92125077D01*
X80188523Y-91960739D01*
X79973805Y-91871800D01*
X79741395Y-91871800D01*
X79526677Y-91960739D01*
X79502000Y-91985416D01*
X79477323Y-91960739D01*
X79262605Y-91871800D01*
X79030195Y-91871800D01*
X78815477Y-91960739D01*
X78651139Y-92125077D01*
X78562200Y-92339795D01*
X78409800Y-92339795D01*
X78320861Y-92125077D01*
X78156523Y-91960739D01*
X77941805Y-91871800D01*
X77709395Y-91871800D01*
X77494677Y-91960739D01*
X77470000Y-91985416D01*
X77445323Y-91960739D01*
X77230605Y-91871800D01*
X76998195Y-91871800D01*
X76783477Y-91960739D01*
X76619139Y-92125077D01*
X76530200Y-92339795D01*
X76377800Y-92339795D01*
X76288861Y-92125077D01*
X76124523Y-91960739D01*
X75909805Y-91871800D01*
X75677395Y-91871800D01*
X75462677Y-91960739D01*
X75438000Y-91985416D01*
X75413323Y-91960739D01*
X75198605Y-91871800D01*
X74966195Y-91871800D01*
X74751477Y-91960739D01*
X74587139Y-92125077D01*
X74498200Y-92339795D01*
X74345800Y-92339795D01*
X74256861Y-92125077D01*
X74092523Y-91960739D01*
X73877805Y-91871800D01*
X73645395Y-91871800D01*
X73430677Y-91960739D01*
X73406000Y-91985416D01*
X73381323Y-91960739D01*
X73166605Y-91871800D01*
X72934195Y-91871800D01*
X72719477Y-91960739D01*
X72555139Y-92125077D01*
X72466200Y-92339795D01*
X70227000Y-92339795D01*
X70227000Y-91715244D01*
X70304739Y-91902923D01*
X70469077Y-92067261D01*
X70683795Y-92156200D01*
X70916205Y-92156200D01*
X71130923Y-92067261D01*
X71295261Y-91902923D01*
X71384200Y-91688205D01*
X71384200Y-91455795D01*
X71295261Y-91241077D01*
X71137979Y-91083795D01*
X74015800Y-91083795D01*
X74015800Y-91316205D01*
X74104739Y-91530923D01*
X74269077Y-91695261D01*
X74483795Y-91784200D01*
X74716205Y-91784200D01*
X74930923Y-91695261D01*
X75095261Y-91530923D01*
X75114782Y-91483795D01*
X85615800Y-91483795D01*
X85615800Y-91716205D01*
X85704739Y-91930923D01*
X85823816Y-92050000D01*
X85704739Y-92169077D01*
X85615800Y-92383795D01*
X85615800Y-92616205D01*
X85704739Y-92830923D01*
X85869077Y-92995261D01*
X86083795Y-93084200D01*
X86316205Y-93084200D01*
X86530923Y-92995261D01*
X86695261Y-92830923D01*
X86784200Y-92616205D01*
X86784200Y-92383795D01*
X86695261Y-92169077D01*
X86576184Y-92050000D01*
X86695261Y-91930923D01*
X86784200Y-91716205D01*
X86784200Y-91483795D01*
X86695261Y-91269077D01*
X86530923Y-91104739D01*
X86316205Y-91015800D01*
X86083795Y-91015800D01*
X85869077Y-91104739D01*
X85704739Y-91269077D01*
X85615800Y-91483795D01*
X75114782Y-91483795D01*
X75184200Y-91316205D01*
X75184200Y-91083795D01*
X75095261Y-90869077D01*
X74930923Y-90704739D01*
X74716205Y-90615800D01*
X74483795Y-90615800D01*
X74269077Y-90704739D01*
X74104739Y-90869077D01*
X74015800Y-91083795D01*
X71137979Y-91083795D01*
X71130923Y-91076739D01*
X71100168Y-91064000D01*
X71130923Y-91051261D01*
X71295261Y-90886923D01*
X71384200Y-90672205D01*
X71384200Y-90483795D01*
X80815800Y-90483795D01*
X80815800Y-90716205D01*
X80904739Y-90930923D01*
X81069077Y-91095261D01*
X81283795Y-91184200D01*
X81516205Y-91184200D01*
X81730923Y-91095261D01*
X81895261Y-90930923D01*
X81984200Y-90716205D01*
X81984200Y-90483795D01*
X81942779Y-90383795D01*
X83415800Y-90383795D01*
X83415800Y-90616205D01*
X83504739Y-90830923D01*
X83669077Y-90995261D01*
X83883795Y-91084200D01*
X84116205Y-91084200D01*
X84330923Y-90995261D01*
X84495261Y-90830923D01*
X84584200Y-90616205D01*
X84584200Y-90383795D01*
X84495261Y-90169077D01*
X84330923Y-90004739D01*
X84116205Y-89915800D01*
X83883795Y-89915800D01*
X83669077Y-90004739D01*
X83504739Y-90169077D01*
X83415800Y-90383795D01*
X81942779Y-90383795D01*
X81895261Y-90269077D01*
X81730923Y-90104739D01*
X81516205Y-90015800D01*
X81283795Y-90015800D01*
X81069077Y-90104739D01*
X80904739Y-90269077D01*
X80815800Y-90483795D01*
X71384200Y-90483795D01*
X71384200Y-90439795D01*
X71295261Y-90225077D01*
X71130923Y-90060739D01*
X70916205Y-89971800D01*
X70683795Y-89971800D01*
X70469077Y-90060739D01*
X70304739Y-90225077D01*
X70227000Y-90412756D01*
X70227000Y-88643244D01*
X70304739Y-88830923D01*
X70469077Y-88995261D01*
X70683795Y-89084200D01*
X70916205Y-89084200D01*
X71130923Y-88995261D01*
X71295261Y-88830923D01*
X71384200Y-88616205D01*
X71384200Y-88383795D01*
X71295261Y-88169077D01*
X71130923Y-88004739D01*
X71129139Y-88004000D01*
X71130923Y-88003261D01*
X71295261Y-87838923D01*
X71384200Y-87624205D01*
X71384200Y-87391795D01*
X71295261Y-87177077D01*
X71130923Y-87012739D01*
X71100175Y-87000003D01*
X71130937Y-86987261D01*
X71295275Y-86822923D01*
X71384214Y-86608205D01*
X71384214Y-86383795D01*
X83415800Y-86383795D01*
X83415800Y-86616205D01*
X83504739Y-86830923D01*
X83669077Y-86995261D01*
X83680518Y-87000000D01*
X83669077Y-87004739D01*
X83504739Y-87169077D01*
X83415800Y-87383795D01*
X83415800Y-87616205D01*
X83504739Y-87830923D01*
X83669077Y-87995261D01*
X83680525Y-88000003D01*
X83669077Y-88004745D01*
X83504739Y-88169083D01*
X83415800Y-88383801D01*
X83415800Y-88616211D01*
X83504739Y-88830929D01*
X83669077Y-88995267D01*
X83883795Y-89084206D01*
X84116205Y-89084206D01*
X84330923Y-88995267D01*
X84495261Y-88830929D01*
X84584200Y-88616211D01*
X84584200Y-88383801D01*
X84495261Y-88169083D01*
X84330923Y-88004745D01*
X84319475Y-88000003D01*
X84330923Y-87995261D01*
X84495261Y-87830923D01*
X84584200Y-87616205D01*
X84584200Y-87383795D01*
X84495261Y-87169077D01*
X84330923Y-87004739D01*
X84319482Y-87000000D01*
X84330923Y-86995261D01*
X84495261Y-86830923D01*
X84584200Y-86616205D01*
X84584200Y-86383795D01*
X84495261Y-86169077D01*
X84330923Y-86004739D01*
X84116205Y-85915800D01*
X83883795Y-85915800D01*
X83669077Y-86004739D01*
X83504739Y-86169077D01*
X83415800Y-86383795D01*
X71384214Y-86383795D01*
X71384214Y-86375795D01*
X71295275Y-86161077D01*
X71130937Y-85996739D01*
X71100175Y-85983997D01*
X71130923Y-85971261D01*
X71295261Y-85806923D01*
X71328366Y-85727000D01*
X77000000Y-85727000D01*
X77048601Y-85717333D01*
X77089803Y-85689803D01*
X77117333Y-85648601D01*
X77127000Y-85600000D01*
X77127000Y-81483795D01*
X79415800Y-81483795D01*
X79415800Y-81716205D01*
X79504739Y-81930923D01*
X79669077Y-82095261D01*
X79883795Y-82184200D01*
X80116205Y-82184200D01*
X80117182Y-82183795D01*
X81015800Y-82183795D01*
X81015800Y-82416205D01*
X81104739Y-82630923D01*
X81269077Y-82795261D01*
X81483795Y-82884200D01*
X81716205Y-82884200D01*
X81930923Y-82795261D01*
X82095261Y-82630923D01*
X82184200Y-82416205D01*
X82184200Y-82183795D01*
X82095261Y-81969077D01*
X81930923Y-81804739D01*
X81716205Y-81715800D01*
X81483795Y-81715800D01*
X81269077Y-81804739D01*
X81104739Y-81969077D01*
X81015800Y-82183795D01*
X80117182Y-82183795D01*
X80330923Y-82095261D01*
X80495261Y-81930923D01*
X80584200Y-81716205D01*
X80584200Y-81483795D01*
X80501358Y-81283795D01*
X85615800Y-81283795D01*
X85615800Y-81516205D01*
X85704739Y-81730923D01*
X85869077Y-81895261D01*
X85880518Y-81900000D01*
X85869077Y-81904739D01*
X85704739Y-82069077D01*
X85615800Y-82283795D01*
X85615800Y-82516205D01*
X85704739Y-82730923D01*
X85869077Y-82895261D01*
X85880521Y-82900001D01*
X85869083Y-82904739D01*
X85704745Y-83069077D01*
X85615806Y-83283795D01*
X85615806Y-83516205D01*
X85704745Y-83730923D01*
X85869083Y-83895261D01*
X85880521Y-83899999D01*
X85869077Y-83904739D01*
X85704739Y-84069077D01*
X85615800Y-84283795D01*
X85615800Y-84516205D01*
X85704739Y-84730923D01*
X85869077Y-84895261D01*
X86083795Y-84984200D01*
X86316205Y-84984200D01*
X86530923Y-84895261D01*
X86695261Y-84730923D01*
X86784200Y-84516205D01*
X86784200Y-84283795D01*
X86695261Y-84069077D01*
X86530923Y-83904739D01*
X86519485Y-83900001D01*
X86530929Y-83895261D01*
X86695267Y-83730923D01*
X86784206Y-83516205D01*
X86784206Y-83283795D01*
X86695267Y-83069077D01*
X86530929Y-82904739D01*
X86519485Y-82899999D01*
X86530923Y-82895261D01*
X86695261Y-82730923D01*
X86784200Y-82516205D01*
X86784200Y-82283795D01*
X86695261Y-82069077D01*
X86530923Y-81904739D01*
X86519482Y-81900000D01*
X86530923Y-81895261D01*
X86695261Y-81730923D01*
X86784200Y-81516205D01*
X86784200Y-81283795D01*
X86695261Y-81069077D01*
X86530923Y-80904739D01*
X86316205Y-80815800D01*
X86083795Y-80815800D01*
X85869077Y-80904739D01*
X85704739Y-81069077D01*
X85615800Y-81283795D01*
X80501358Y-81283795D01*
X80495261Y-81269077D01*
X80330923Y-81104739D01*
X80116205Y-81015800D01*
X79883795Y-81015800D01*
X79669077Y-81104739D01*
X79504739Y-81269077D01*
X79415800Y-81483795D01*
X77127000Y-81483795D01*
X77127000Y-79879729D01*
X77330923Y-79795261D01*
X77495261Y-79630923D01*
X77500000Y-79619482D01*
X77504739Y-79630923D01*
X77669077Y-79795261D01*
X77883795Y-79884200D01*
X78116205Y-79884200D01*
X78330923Y-79795261D01*
X78495261Y-79630923D01*
X78500000Y-79619482D01*
X78504739Y-79630923D01*
X78669077Y-79795261D01*
X78883795Y-79884200D01*
X79116205Y-79884200D01*
X79330923Y-79795261D01*
X79492159Y-79634025D01*
X79653395Y-79795261D01*
X79868113Y-79884200D01*
X80100523Y-79884200D01*
X80315241Y-79795261D01*
X80479579Y-79630923D01*
X80492311Y-79600185D01*
X80505043Y-79630923D01*
X80669381Y-79795261D01*
X80884099Y-79884200D01*
X81116509Y-79884200D01*
X81331227Y-79795261D01*
X81495565Y-79630923D01*
X81500144Y-79619868D01*
X81504723Y-79630923D01*
X81669061Y-79795261D01*
X81883779Y-79884200D01*
X82116189Y-79884200D01*
X82330907Y-79795261D01*
X82495245Y-79630923D01*
X82549992Y-79498752D01*
X82604739Y-79630923D01*
X82769077Y-79795261D01*
X82983795Y-79884200D01*
X83216205Y-79884200D01*
X83430923Y-79795261D01*
X83595261Y-79630923D01*
X83600001Y-79619479D01*
X83604739Y-79630917D01*
X83769077Y-79795255D01*
X83983795Y-79884194D01*
X84216205Y-79884194D01*
X84430923Y-79795255D01*
X84595261Y-79630917D01*
X84684200Y-79416199D01*
X84684200Y-79183789D01*
X84595261Y-78969071D01*
X84430923Y-78804733D01*
X84216205Y-78715794D01*
X83983795Y-78715794D01*
X83769077Y-78804733D01*
X83604739Y-78969071D01*
X83599999Y-78980515D01*
X83595261Y-78969077D01*
X83430923Y-78804739D01*
X83216205Y-78715800D01*
X82983795Y-78715800D01*
X82769077Y-78804739D01*
X82604739Y-78969077D01*
X82549992Y-79101248D01*
X82495245Y-78969077D01*
X82330907Y-78804739D01*
X82116189Y-78715800D01*
X81883779Y-78715800D01*
X81669061Y-78804739D01*
X81504723Y-78969077D01*
X81500144Y-78980132D01*
X81495565Y-78969077D01*
X81331227Y-78804739D01*
X81116509Y-78715800D01*
X80884099Y-78715800D01*
X80669381Y-78804739D01*
X80505043Y-78969077D01*
X80492311Y-78999815D01*
X80479579Y-78969077D01*
X80315241Y-78804739D01*
X80100523Y-78715800D01*
X79868113Y-78715800D01*
X79653395Y-78804739D01*
X79492159Y-78965975D01*
X79330923Y-78804739D01*
X79116205Y-78715800D01*
X78883795Y-78715800D01*
X78669077Y-78804739D01*
X78504739Y-78969077D01*
X78500000Y-78980518D01*
X78495261Y-78969077D01*
X78330923Y-78804739D01*
X78116205Y-78715800D01*
X77883795Y-78715800D01*
X77669077Y-78804739D01*
X77504739Y-78969077D01*
X77500000Y-78980518D01*
X77495261Y-78969077D01*
X77330923Y-78804739D01*
X77127000Y-78720271D01*
X77127000Y-78627000D01*
X89373000Y-78627000D01*
X89373000Y-78945702D01*
X89373000Y-78945702D01*
G37*
X89373000Y-78945702D02*
X89315800Y-79083795D01*
X89315800Y-79316205D01*
X89373000Y-79454298D01*
X89373000Y-80545702D01*
X89315800Y-80683795D01*
X89315800Y-80916205D01*
X89373000Y-81054298D01*
X89373000Y-81180747D01*
X89216205Y-81115800D01*
X88983795Y-81115800D01*
X88769077Y-81204739D01*
X88604739Y-81369077D01*
X88515800Y-81583795D01*
X88515800Y-81816205D01*
X88604739Y-82030923D01*
X88769077Y-82195261D01*
X88983795Y-82284200D01*
X89216205Y-82284200D01*
X89373000Y-82219253D01*
X89373000Y-82780747D01*
X89216205Y-82715800D01*
X88983795Y-82715800D01*
X88769077Y-82804739D01*
X88604739Y-82969077D01*
X88515800Y-83183795D01*
X88515800Y-83416205D01*
X88604739Y-83630923D01*
X88769077Y-83795261D01*
X88983795Y-83884200D01*
X89216205Y-83884200D01*
X89373000Y-83819253D01*
X89373000Y-84412904D01*
X89229273Y-84269177D01*
X88639294Y-84024800D01*
X88000706Y-84024800D01*
X87410727Y-84269177D01*
X86959177Y-84720727D01*
X86714800Y-85310706D01*
X86714800Y-85949294D01*
X86959177Y-86539273D01*
X87028505Y-86608601D01*
X86722277Y-86735444D01*
X86425444Y-87032277D01*
X86264800Y-87420108D01*
X86264800Y-87839892D01*
X86425444Y-88227723D01*
X86722277Y-88524556D01*
X87110108Y-88685200D01*
X87529892Y-88685200D01*
X87917723Y-88524556D01*
X88214556Y-88227723D01*
X88375200Y-87839892D01*
X88375200Y-87420108D01*
X88298609Y-87235200D01*
X88639294Y-87235200D01*
X89229273Y-86990823D01*
X89373000Y-86847096D01*
X89373000Y-93173000D01*
X70227000Y-93173000D01*
X70227000Y-92339795D01*
X72466200Y-92339795D01*
X72466200Y-92572205D01*
X72555139Y-92786923D01*
X72719477Y-92951261D01*
X72934195Y-93040200D01*
X73166605Y-93040200D01*
X73381323Y-92951261D01*
X73406000Y-92926584D01*
X73430677Y-92951261D01*
X73645395Y-93040200D01*
X73877805Y-93040200D01*
X74092523Y-92951261D01*
X74256861Y-92786923D01*
X74345800Y-92572205D01*
X74345800Y-92339795D01*
X74498200Y-92339795D01*
X74498200Y-92572205D01*
X74587139Y-92786923D01*
X74751477Y-92951261D01*
X74966195Y-93040200D01*
X75198605Y-93040200D01*
X75413323Y-92951261D01*
X75438000Y-92926584D01*
X75462677Y-92951261D01*
X75677395Y-93040200D01*
X75909805Y-93040200D01*
X76124523Y-92951261D01*
X76288861Y-92786923D01*
X76377800Y-92572205D01*
X76377800Y-92339795D01*
X76530200Y-92339795D01*
X76530200Y-92572205D01*
X76619139Y-92786923D01*
X76783477Y-92951261D01*
X76998195Y-93040200D01*
X77230605Y-93040200D01*
X77445323Y-92951261D01*
X77470000Y-92926584D01*
X77494677Y-92951261D01*
X77709395Y-93040200D01*
X77941805Y-93040200D01*
X78156523Y-92951261D01*
X78320861Y-92786923D01*
X78409800Y-92572205D01*
X78409800Y-92339795D01*
X78562200Y-92339795D01*
X78562200Y-92572205D01*
X78651139Y-92786923D01*
X78815477Y-92951261D01*
X79030195Y-93040200D01*
X79262605Y-93040200D01*
X79477323Y-92951261D01*
X79502000Y-92926584D01*
X79526677Y-92951261D01*
X79741395Y-93040200D01*
X79973805Y-93040200D01*
X80188523Y-92951261D01*
X80352861Y-92786923D01*
X80441800Y-92572205D01*
X80441800Y-92339795D01*
X80594200Y-92339795D01*
X80594200Y-92572205D01*
X80683139Y-92786923D01*
X80847477Y-92951261D01*
X81062195Y-93040200D01*
X81294605Y-93040200D01*
X81509323Y-92951261D01*
X81534000Y-92926584D01*
X81558677Y-92951261D01*
X81773395Y-93040200D01*
X82005805Y-93040200D01*
X82220523Y-92951261D01*
X82384861Y-92786923D01*
X82473800Y-92572205D01*
X82473800Y-92339795D01*
X82626200Y-92339795D01*
X82626200Y-92572205D01*
X82715139Y-92786923D01*
X82879477Y-92951261D01*
X83094195Y-93040200D01*
X83326605Y-93040200D01*
X83541323Y-92951261D01*
X83566000Y-92926584D01*
X83590677Y-92951261D01*
X83805395Y-93040200D01*
X84037805Y-93040200D01*
X84252523Y-92951261D01*
X84416861Y-92786923D01*
X84505800Y-92572205D01*
X84505800Y-92339795D01*
X84416861Y-92125077D01*
X84252523Y-91960739D01*
X84037805Y-91871800D01*
X83805395Y-91871800D01*
X83590677Y-91960739D01*
X83566000Y-91985416D01*
X83541323Y-91960739D01*
X83326605Y-91871800D01*
X83094195Y-91871800D01*
X82879477Y-91960739D01*
X82715139Y-92125077D01*
X82626200Y-92339795D01*
X82473800Y-92339795D01*
X82384861Y-92125077D01*
X82220523Y-91960739D01*
X82005805Y-91871800D01*
X81773395Y-91871800D01*
X81558677Y-91960739D01*
X81534000Y-91985416D01*
X81509323Y-91960739D01*
X81294605Y-91871800D01*
X81062195Y-91871800D01*
X80847477Y-91960739D01*
X80683139Y-92125077D01*
X80594200Y-92339795D01*
X80441800Y-92339795D01*
X80352861Y-92125077D01*
X80188523Y-91960739D01*
X79973805Y-91871800D01*
X79741395Y-91871800D01*
X79526677Y-91960739D01*
X79502000Y-91985416D01*
X79477323Y-91960739D01*
X79262605Y-91871800D01*
X79030195Y-91871800D01*
X78815477Y-91960739D01*
X78651139Y-92125077D01*
X78562200Y-92339795D01*
X78409800Y-92339795D01*
X78320861Y-92125077D01*
X78156523Y-91960739D01*
X77941805Y-91871800D01*
X77709395Y-91871800D01*
X77494677Y-91960739D01*
X77470000Y-91985416D01*
X77445323Y-91960739D01*
X77230605Y-91871800D01*
X76998195Y-91871800D01*
X76783477Y-91960739D01*
X76619139Y-92125077D01*
X76530200Y-92339795D01*
X76377800Y-92339795D01*
X76288861Y-92125077D01*
X76124523Y-91960739D01*
X75909805Y-91871800D01*
X75677395Y-91871800D01*
X75462677Y-91960739D01*
X75438000Y-91985416D01*
X75413323Y-91960739D01*
X75198605Y-91871800D01*
X74966195Y-91871800D01*
X74751477Y-91960739D01*
X74587139Y-92125077D01*
X74498200Y-92339795D01*
X74345800Y-92339795D01*
X74256861Y-92125077D01*
X74092523Y-91960739D01*
X73877805Y-91871800D01*
X73645395Y-91871800D01*
X73430677Y-91960739D01*
X73406000Y-91985416D01*
X73381323Y-91960739D01*
X73166605Y-91871800D01*
X72934195Y-91871800D01*
X72719477Y-91960739D01*
X72555139Y-92125077D01*
X72466200Y-92339795D01*
X70227000Y-92339795D01*
X70227000Y-91715244D01*
X70304739Y-91902923D01*
X70469077Y-92067261D01*
X70683795Y-92156200D01*
X70916205Y-92156200D01*
X71130923Y-92067261D01*
X71295261Y-91902923D01*
X71384200Y-91688205D01*
X71384200Y-91455795D01*
X71295261Y-91241077D01*
X71137979Y-91083795D01*
X74015800Y-91083795D01*
X74015800Y-91316205D01*
X74104739Y-91530923D01*
X74269077Y-91695261D01*
X74483795Y-91784200D01*
X74716205Y-91784200D01*
X74930923Y-91695261D01*
X75095261Y-91530923D01*
X75114782Y-91483795D01*
X85615800Y-91483795D01*
X85615800Y-91716205D01*
X85704739Y-91930923D01*
X85823816Y-92050000D01*
X85704739Y-92169077D01*
X85615800Y-92383795D01*
X85615800Y-92616205D01*
X85704739Y-92830923D01*
X85869077Y-92995261D01*
X86083795Y-93084200D01*
X86316205Y-93084200D01*
X86530923Y-92995261D01*
X86695261Y-92830923D01*
X86784200Y-92616205D01*
X86784200Y-92383795D01*
X86695261Y-92169077D01*
X86576184Y-92050000D01*
X86695261Y-91930923D01*
X86784200Y-91716205D01*
X86784200Y-91483795D01*
X86695261Y-91269077D01*
X86530923Y-91104739D01*
X86316205Y-91015800D01*
X86083795Y-91015800D01*
X85869077Y-91104739D01*
X85704739Y-91269077D01*
X85615800Y-91483795D01*
X75114782Y-91483795D01*
X75184200Y-91316205D01*
X75184200Y-91083795D01*
X75095261Y-90869077D01*
X74930923Y-90704739D01*
X74716205Y-90615800D01*
X74483795Y-90615800D01*
X74269077Y-90704739D01*
X74104739Y-90869077D01*
X74015800Y-91083795D01*
X71137979Y-91083795D01*
X71130923Y-91076739D01*
X71100168Y-91064000D01*
X71130923Y-91051261D01*
X71295261Y-90886923D01*
X71384200Y-90672205D01*
X71384200Y-90483795D01*
X80815800Y-90483795D01*
X80815800Y-90716205D01*
X80904739Y-90930923D01*
X81069077Y-91095261D01*
X81283795Y-91184200D01*
X81516205Y-91184200D01*
X81730923Y-91095261D01*
X81895261Y-90930923D01*
X81984200Y-90716205D01*
X81984200Y-90483795D01*
X81942779Y-90383795D01*
X83415800Y-90383795D01*
X83415800Y-90616205D01*
X83504739Y-90830923D01*
X83669077Y-90995261D01*
X83883795Y-91084200D01*
X84116205Y-91084200D01*
X84330923Y-90995261D01*
X84495261Y-90830923D01*
X84584200Y-90616205D01*
X84584200Y-90383795D01*
X84495261Y-90169077D01*
X84330923Y-90004739D01*
X84116205Y-89915800D01*
X83883795Y-89915800D01*
X83669077Y-90004739D01*
X83504739Y-90169077D01*
X83415800Y-90383795D01*
X81942779Y-90383795D01*
X81895261Y-90269077D01*
X81730923Y-90104739D01*
X81516205Y-90015800D01*
X81283795Y-90015800D01*
X81069077Y-90104739D01*
X80904739Y-90269077D01*
X80815800Y-90483795D01*
X71384200Y-90483795D01*
X71384200Y-90439795D01*
X71295261Y-90225077D01*
X71130923Y-90060739D01*
X70916205Y-89971800D01*
X70683795Y-89971800D01*
X70469077Y-90060739D01*
X70304739Y-90225077D01*
X70227000Y-90412756D01*
X70227000Y-88643244D01*
X70304739Y-88830923D01*
X70469077Y-88995261D01*
X70683795Y-89084200D01*
X70916205Y-89084200D01*
X71130923Y-88995261D01*
X71295261Y-88830923D01*
X71384200Y-88616205D01*
X71384200Y-88383795D01*
X71295261Y-88169077D01*
X71130923Y-88004739D01*
X71129139Y-88004000D01*
X71130923Y-88003261D01*
X71295261Y-87838923D01*
X71384200Y-87624205D01*
X71384200Y-87391795D01*
X71295261Y-87177077D01*
X71130923Y-87012739D01*
X71100175Y-87000003D01*
X71130937Y-86987261D01*
X71295275Y-86822923D01*
X71384214Y-86608205D01*
X71384214Y-86383795D01*
X83415800Y-86383795D01*
X83415800Y-86616205D01*
X83504739Y-86830923D01*
X83669077Y-86995261D01*
X83680518Y-87000000D01*
X83669077Y-87004739D01*
X83504739Y-87169077D01*
X83415800Y-87383795D01*
X83415800Y-87616205D01*
X83504739Y-87830923D01*
X83669077Y-87995261D01*
X83680525Y-88000003D01*
X83669077Y-88004745D01*
X83504739Y-88169083D01*
X83415800Y-88383801D01*
X83415800Y-88616211D01*
X83504739Y-88830929D01*
X83669077Y-88995267D01*
X83883795Y-89084206D01*
X84116205Y-89084206D01*
X84330923Y-88995267D01*
X84495261Y-88830929D01*
X84584200Y-88616211D01*
X84584200Y-88383801D01*
X84495261Y-88169083D01*
X84330923Y-88004745D01*
X84319475Y-88000003D01*
X84330923Y-87995261D01*
X84495261Y-87830923D01*
X84584200Y-87616205D01*
X84584200Y-87383795D01*
X84495261Y-87169077D01*
X84330923Y-87004739D01*
X84319482Y-87000000D01*
X84330923Y-86995261D01*
X84495261Y-86830923D01*
X84584200Y-86616205D01*
X84584200Y-86383795D01*
X84495261Y-86169077D01*
X84330923Y-86004739D01*
X84116205Y-85915800D01*
X83883795Y-85915800D01*
X83669077Y-86004739D01*
X83504739Y-86169077D01*
X83415800Y-86383795D01*
X71384214Y-86383795D01*
X71384214Y-86375795D01*
X71295275Y-86161077D01*
X71130937Y-85996739D01*
X71100175Y-85983997D01*
X71130923Y-85971261D01*
X71295261Y-85806923D01*
X71328366Y-85727000D01*
X77000000Y-85727000D01*
X77048601Y-85717333D01*
X77089803Y-85689803D01*
X77117333Y-85648601D01*
X77127000Y-85600000D01*
X77127000Y-81483795D01*
X79415800Y-81483795D01*
X79415800Y-81716205D01*
X79504739Y-81930923D01*
X79669077Y-82095261D01*
X79883795Y-82184200D01*
X80116205Y-82184200D01*
X80117182Y-82183795D01*
X81015800Y-82183795D01*
X81015800Y-82416205D01*
X81104739Y-82630923D01*
X81269077Y-82795261D01*
X81483795Y-82884200D01*
X81716205Y-82884200D01*
X81930923Y-82795261D01*
X82095261Y-82630923D01*
X82184200Y-82416205D01*
X82184200Y-82183795D01*
X82095261Y-81969077D01*
X81930923Y-81804739D01*
X81716205Y-81715800D01*
X81483795Y-81715800D01*
X81269077Y-81804739D01*
X81104739Y-81969077D01*
X81015800Y-82183795D01*
X80117182Y-82183795D01*
X80330923Y-82095261D01*
X80495261Y-81930923D01*
X80584200Y-81716205D01*
X80584200Y-81483795D01*
X80501358Y-81283795D01*
X85615800Y-81283795D01*
X85615800Y-81516205D01*
X85704739Y-81730923D01*
X85869077Y-81895261D01*
X85880518Y-81900000D01*
X85869077Y-81904739D01*
X85704739Y-82069077D01*
X85615800Y-82283795D01*
X85615800Y-82516205D01*
X85704739Y-82730923D01*
X85869077Y-82895261D01*
X85880521Y-82900001D01*
X85869083Y-82904739D01*
X85704745Y-83069077D01*
X85615806Y-83283795D01*
X85615806Y-83516205D01*
X85704745Y-83730923D01*
X85869083Y-83895261D01*
X85880521Y-83899999D01*
X85869077Y-83904739D01*
X85704739Y-84069077D01*
X85615800Y-84283795D01*
X85615800Y-84516205D01*
X85704739Y-84730923D01*
X85869077Y-84895261D01*
X86083795Y-84984200D01*
X86316205Y-84984200D01*
X86530923Y-84895261D01*
X86695261Y-84730923D01*
X86784200Y-84516205D01*
X86784200Y-84283795D01*
X86695261Y-84069077D01*
X86530923Y-83904739D01*
X86519485Y-83900001D01*
X86530929Y-83895261D01*
X86695267Y-83730923D01*
X86784206Y-83516205D01*
X86784206Y-83283795D01*
X86695267Y-83069077D01*
X86530929Y-82904739D01*
X86519485Y-82899999D01*
X86530923Y-82895261D01*
X86695261Y-82730923D01*
X86784200Y-82516205D01*
X86784200Y-82283795D01*
X86695261Y-82069077D01*
X86530923Y-81904739D01*
X86519482Y-81900000D01*
X86530923Y-81895261D01*
X86695261Y-81730923D01*
X86784200Y-81516205D01*
X86784200Y-81283795D01*
X86695261Y-81069077D01*
X86530923Y-80904739D01*
X86316205Y-80815800D01*
X86083795Y-80815800D01*
X85869077Y-80904739D01*
X85704739Y-81069077D01*
X85615800Y-81283795D01*
X80501358Y-81283795D01*
X80495261Y-81269077D01*
X80330923Y-81104739D01*
X80116205Y-81015800D01*
X79883795Y-81015800D01*
X79669077Y-81104739D01*
X79504739Y-81269077D01*
X79415800Y-81483795D01*
X77127000Y-81483795D01*
X77127000Y-79879729D01*
X77330923Y-79795261D01*
X77495261Y-79630923D01*
X77500000Y-79619482D01*
X77504739Y-79630923D01*
X77669077Y-79795261D01*
X77883795Y-79884200D01*
X78116205Y-79884200D01*
X78330923Y-79795261D01*
X78495261Y-79630923D01*
X78500000Y-79619482D01*
X78504739Y-79630923D01*
X78669077Y-79795261D01*
X78883795Y-79884200D01*
X79116205Y-79884200D01*
X79330923Y-79795261D01*
X79492159Y-79634025D01*
X79653395Y-79795261D01*
X79868113Y-79884200D01*
X80100523Y-79884200D01*
X80315241Y-79795261D01*
X80479579Y-79630923D01*
X80492311Y-79600185D01*
X80505043Y-79630923D01*
X80669381Y-79795261D01*
X80884099Y-79884200D01*
X81116509Y-79884200D01*
X81331227Y-79795261D01*
X81495565Y-79630923D01*
X81500144Y-79619868D01*
X81504723Y-79630923D01*
X81669061Y-79795261D01*
X81883779Y-79884200D01*
X82116189Y-79884200D01*
X82330907Y-79795261D01*
X82495245Y-79630923D01*
X82549992Y-79498752D01*
X82604739Y-79630923D01*
X82769077Y-79795261D01*
X82983795Y-79884200D01*
X83216205Y-79884200D01*
X83430923Y-79795261D01*
X83595261Y-79630923D01*
X83600001Y-79619479D01*
X83604739Y-79630917D01*
X83769077Y-79795255D01*
X83983795Y-79884194D01*
X84216205Y-79884194D01*
X84430923Y-79795255D01*
X84595261Y-79630917D01*
X84684200Y-79416199D01*
X84684200Y-79183789D01*
X84595261Y-78969071D01*
X84430923Y-78804733D01*
X84216205Y-78715794D01*
X83983795Y-78715794D01*
X83769077Y-78804733D01*
X83604739Y-78969071D01*
X83599999Y-78980515D01*
X83595261Y-78969077D01*
X83430923Y-78804739D01*
X83216205Y-78715800D01*
X82983795Y-78715800D01*
X82769077Y-78804739D01*
X82604739Y-78969077D01*
X82549992Y-79101248D01*
X82495245Y-78969077D01*
X82330907Y-78804739D01*
X82116189Y-78715800D01*
X81883779Y-78715800D01*
X81669061Y-78804739D01*
X81504723Y-78969077D01*
X81500144Y-78980132D01*
X81495565Y-78969077D01*
X81331227Y-78804739D01*
X81116509Y-78715800D01*
X80884099Y-78715800D01*
X80669381Y-78804739D01*
X80505043Y-78969077D01*
X80492311Y-78999815D01*
X80479579Y-78969077D01*
X80315241Y-78804739D01*
X80100523Y-78715800D01*
X79868113Y-78715800D01*
X79653395Y-78804739D01*
X79492159Y-78965975D01*
X79330923Y-78804739D01*
X79116205Y-78715800D01*
X78883795Y-78715800D01*
X78669077Y-78804739D01*
X78504739Y-78969077D01*
X78500000Y-78980518D01*
X78495261Y-78969077D01*
X78330923Y-78804739D01*
X78116205Y-78715800D01*
X77883795Y-78715800D01*
X77669077Y-78804739D01*
X77504739Y-78969077D01*
X77500000Y-78980518D01*
X77495261Y-78969077D01*
X77330923Y-78804739D01*
X77127000Y-78720271D01*
X77127000Y-78627000D01*
X89373000Y-78627000D01*
X89373000Y-78945702D01*
G04 #@! TD*
M02*
