%TF.GenerationSoftware,KiCad,Pcbnew,5.99.0-unknown-ad69e44~101~ubuntu18.04.1*%
%TF.CreationDate,2020-06-22T16:53:12+08:00*%
%TF.ProjectId,ovc4,6f766334-2e6b-4696-9361-645f70636258,rev?*%
%TF.SameCoordinates,Original*%
%TF.FileFunction,Soldermask,Bot*%
%TF.FilePolarity,Negative*%
%FSLAX46Y46*%
G04 Gerber Fmt 4.6, Leading zero omitted, Abs format (unit mm)*
G04 Created by KiCad (PCBNEW 5.99.0-unknown-ad69e44~101~ubuntu18.04.1) date 2020-06-22 16:53:12*
%MOMM*%
%LPD*%
G01*
G04 APERTURE LIST*
%ADD10C,2.600000*%
%ADD11C,1.700000*%
%ADD12C,1.200000*%
%ADD13O,1.800000X1.800000*%
%ADD14O,1.100000X1.100000*%
%ADD15C,2.100000*%
%ADD16C,1.300000*%
%ADD17C,1.100000*%
%ADD18C,1.600000*%
%ADD19C,3.100000*%
%ADD20C,1.800000*%
%ADD21O,1.800000X2.300000*%
%ADD22C,1.471600*%
%ADD23C,2.300000*%
%ADD24C,3.700000*%
%ADD25C,1.624000*%
%ADD26C,0.700000*%
%ADD27C,0.750000*%
%ADD28C,1.500000*%
G04 APERTURE END LIST*
D10*
%TO.C,U1*%
X115125000Y-98500000D03*
X51525000Y-98500000D03*
D11*
X117625000Y-56500000D03*
D12*
X48825000Y-56500000D03*
%TD*%
%TO.C,CAM1*%
G36*
G01*
X118510001Y-54767498D02*
X118510001Y-52767498D01*
G75*
G02*
X118560001Y-52717498I50000J0D01*
G01*
X119160001Y-52717498D01*
G75*
G02*
X119210001Y-52767498I0J-50000D01*
G01*
X119210001Y-54767498D01*
G75*
G02*
X119160001Y-54817498I-50000J0D01*
G01*
X118560001Y-54817498D01*
G75*
G02*
X118510001Y-54767498I0J50000D01*
G01*
G37*
G36*
G01*
X117510001Y-54767498D02*
X117510001Y-52767498D01*
G75*
G02*
X117560001Y-52717498I50000J0D01*
G01*
X118160001Y-52717498D01*
G75*
G02*
X118210001Y-52767498I0J-50000D01*
G01*
X118210001Y-54767498D01*
G75*
G02*
X118160001Y-54817498I-50000J0D01*
G01*
X117560001Y-54817498D01*
G75*
G02*
X117510001Y-54767498I0J50000D01*
G01*
G37*
G36*
G01*
X116510001Y-54767498D02*
X116510001Y-52767498D01*
G75*
G02*
X116560001Y-52717498I50000J0D01*
G01*
X117160001Y-52717498D01*
G75*
G02*
X117210001Y-52767498I0J-50000D01*
G01*
X117210001Y-54767498D01*
G75*
G02*
X117160001Y-54817498I-50000J0D01*
G01*
X116560001Y-54817498D01*
G75*
G02*
X116510001Y-54767498I0J50000D01*
G01*
G37*
G36*
G01*
X115510001Y-54767498D02*
X115510001Y-52767498D01*
G75*
G02*
X115560001Y-52717498I50000J0D01*
G01*
X116160001Y-52717498D01*
G75*
G02*
X116210001Y-52767498I0J-50000D01*
G01*
X116210001Y-54767498D01*
G75*
G02*
X116160001Y-54817498I-50000J0D01*
G01*
X115560001Y-54817498D01*
G75*
G02*
X115510001Y-54767498I0J50000D01*
G01*
G37*
G36*
G01*
X114510001Y-54767498D02*
X114510001Y-52767498D01*
G75*
G02*
X114560001Y-52717498I50000J0D01*
G01*
X115160001Y-52717498D01*
G75*
G02*
X115210001Y-52767498I0J-50000D01*
G01*
X115210001Y-54767498D01*
G75*
G02*
X115160001Y-54817498I-50000J0D01*
G01*
X114560001Y-54817498D01*
G75*
G02*
X114510001Y-54767498I0J50000D01*
G01*
G37*
G36*
G01*
X113510001Y-54767498D02*
X113510001Y-52767498D01*
G75*
G02*
X113560001Y-52717498I50000J0D01*
G01*
X114160001Y-52717498D01*
G75*
G02*
X114210001Y-52767498I0J-50000D01*
G01*
X114210001Y-54767498D01*
G75*
G02*
X114160001Y-54817498I-50000J0D01*
G01*
X113560001Y-54817498D01*
G75*
G02*
X113510001Y-54767498I0J50000D01*
G01*
G37*
G36*
G01*
X112510001Y-54767498D02*
X112510001Y-52767498D01*
G75*
G02*
X112560001Y-52717498I50000J0D01*
G01*
X113160001Y-52717498D01*
G75*
G02*
X113210001Y-52767498I0J-50000D01*
G01*
X113210001Y-54767498D01*
G75*
G02*
X113160001Y-54817498I-50000J0D01*
G01*
X112560001Y-54817498D01*
G75*
G02*
X112510001Y-54767498I0J50000D01*
G01*
G37*
G36*
G01*
X111510001Y-54767498D02*
X111510001Y-52767498D01*
G75*
G02*
X111560001Y-52717498I50000J0D01*
G01*
X112160001Y-52717498D01*
G75*
G02*
X112210001Y-52767498I0J-50000D01*
G01*
X112210001Y-54767498D01*
G75*
G02*
X112160001Y-54817498I-50000J0D01*
G01*
X111560001Y-54817498D01*
G75*
G02*
X111510001Y-54767498I0J50000D01*
G01*
G37*
G36*
G01*
X110510001Y-54767498D02*
X110510001Y-52767498D01*
G75*
G02*
X110560001Y-52717498I50000J0D01*
G01*
X111160001Y-52717498D01*
G75*
G02*
X111210001Y-52767498I0J-50000D01*
G01*
X111210001Y-54767498D01*
G75*
G02*
X111160001Y-54817498I-50000J0D01*
G01*
X110560001Y-54817498D01*
G75*
G02*
X110510001Y-54767498I0J50000D01*
G01*
G37*
G36*
G01*
X109510001Y-54767498D02*
X109510001Y-52767498D01*
G75*
G02*
X109560001Y-52717498I50000J0D01*
G01*
X110160001Y-52717498D01*
G75*
G02*
X110210001Y-52767498I0J-50000D01*
G01*
X110210001Y-54767498D01*
G75*
G02*
X110160001Y-54817498I-50000J0D01*
G01*
X109560001Y-54817498D01*
G75*
G02*
X109510001Y-54767498I0J50000D01*
G01*
G37*
G36*
G01*
X108510001Y-54767498D02*
X108510001Y-52767498D01*
G75*
G02*
X108560001Y-52717498I50000J0D01*
G01*
X109160001Y-52717498D01*
G75*
G02*
X109210001Y-52767498I0J-50000D01*
G01*
X109210001Y-54767498D01*
G75*
G02*
X109160001Y-54817498I-50000J0D01*
G01*
X108560001Y-54817498D01*
G75*
G02*
X108510001Y-54767498I0J50000D01*
G01*
G37*
G36*
G01*
X107510001Y-54767498D02*
X107510001Y-52767498D01*
G75*
G02*
X107560001Y-52717498I50000J0D01*
G01*
X108160001Y-52717498D01*
G75*
G02*
X108210001Y-52767498I0J-50000D01*
G01*
X108210001Y-54767498D01*
G75*
G02*
X108160001Y-54817498I-50000J0D01*
G01*
X107560001Y-54817498D01*
G75*
G02*
X107510001Y-54767498I0J50000D01*
G01*
G37*
G36*
G01*
X106510001Y-54767498D02*
X106510001Y-52767498D01*
G75*
G02*
X106560001Y-52717498I50000J0D01*
G01*
X107160001Y-52717498D01*
G75*
G02*
X107210001Y-52767498I0J-50000D01*
G01*
X107210001Y-54767498D01*
G75*
G02*
X107160001Y-54817498I-50000J0D01*
G01*
X106560001Y-54817498D01*
G75*
G02*
X106510001Y-54767498I0J50000D01*
G01*
G37*
G36*
G01*
X105510001Y-54767498D02*
X105510001Y-52767498D01*
G75*
G02*
X105560001Y-52717498I50000J0D01*
G01*
X106160001Y-52717498D01*
G75*
G02*
X106210001Y-52767498I0J-50000D01*
G01*
X106210001Y-54767498D01*
G75*
G02*
X106160001Y-54817498I-50000J0D01*
G01*
X105560001Y-54817498D01*
G75*
G02*
X105510001Y-54767498I0J50000D01*
G01*
G37*
G36*
G01*
X119510001Y-53767498D02*
X119510001Y-49567498D01*
G75*
G02*
X119560001Y-49517498I50000J0D01*
G01*
X120160001Y-49517498D01*
G75*
G02*
X120210001Y-49567498I0J-50000D01*
G01*
X120210001Y-53767498D01*
G75*
G02*
X120160001Y-53817498I-50000J0D01*
G01*
X119560001Y-53817498D01*
G75*
G02*
X119510001Y-53767498I0J50000D01*
G01*
G37*
G36*
G01*
X104510001Y-54767498D02*
X104510001Y-52767498D01*
G75*
G02*
X104560001Y-52717498I50000J0D01*
G01*
X105160001Y-52717498D01*
G75*
G02*
X105210001Y-52767498I0J-50000D01*
G01*
X105210001Y-54767498D01*
G75*
G02*
X105160001Y-54817498I-50000J0D01*
G01*
X104560001Y-54817498D01*
G75*
G02*
X104510001Y-54767498I0J50000D01*
G01*
G37*
G36*
G01*
X103510001Y-53767498D02*
X103510001Y-49567498D01*
G75*
G02*
X103560001Y-49517498I50000J0D01*
G01*
X104160001Y-49517498D01*
G75*
G02*
X104210001Y-49567498I0J-50000D01*
G01*
X104210001Y-53767498D01*
G75*
G02*
X104160001Y-53817498I-50000J0D01*
G01*
X103560001Y-53817498D01*
G75*
G02*
X103510001Y-53767498I0J50000D01*
G01*
G37*
%TD*%
D13*
%TO.C,J12*%
X41400000Y-92320000D03*
X41400000Y-89780000D03*
X41400000Y-87240000D03*
G36*
G01*
X40500000Y-85550000D02*
X40500000Y-83850000D01*
G75*
G02*
X40550000Y-83800000I50000J0D01*
G01*
X42250000Y-83800000D01*
G75*
G02*
X42300000Y-83850000I0J-50000D01*
G01*
X42300000Y-85550000D01*
G75*
G02*
X42250000Y-85600000I-50000J0D01*
G01*
X40550000Y-85600000D01*
G75*
G02*
X40500000Y-85550000I0J50000D01*
G01*
G37*
%TD*%
D14*
%TO.C,J11*%
X45400000Y-95310000D03*
X45400000Y-94040000D03*
X45400000Y-92770000D03*
G36*
G01*
X44850000Y-92000000D02*
X44850000Y-91000000D01*
G75*
G02*
X44900000Y-90950000I50000J0D01*
G01*
X45900000Y-90950000D01*
G75*
G02*
X45950000Y-91000000I0J-50000D01*
G01*
X45950000Y-92000000D01*
G75*
G02*
X45900000Y-92050000I-50000J0D01*
G01*
X44900000Y-92050000D01*
G75*
G02*
X44850000Y-92000000I0J50000D01*
G01*
G37*
%TD*%
D13*
%TO.C,J9*%
X45650000Y-88230000D03*
X45650000Y-85690000D03*
G36*
G01*
X44750000Y-84000000D02*
X44750000Y-82300000D01*
G75*
G02*
X44800000Y-82250000I50000J0D01*
G01*
X46500000Y-82250000D01*
G75*
G02*
X46550000Y-82300000I0J-50000D01*
G01*
X46550000Y-84000000D01*
G75*
G02*
X46500000Y-84050000I-50000J0D01*
G01*
X44800000Y-84050000D01*
G75*
G02*
X44750000Y-84000000I0J50000D01*
G01*
G37*
%TD*%
%TO.C,J7*%
X124800000Y-55300000D03*
X124800000Y-52760000D03*
X124800000Y-50220000D03*
X124800000Y-47680000D03*
X124800000Y-45140000D03*
G36*
G01*
X123900000Y-43450000D02*
X123900000Y-41750000D01*
G75*
G02*
X123950000Y-41700000I50000J0D01*
G01*
X125650000Y-41700000D01*
G75*
G02*
X125700000Y-41750000I0J-50000D01*
G01*
X125700000Y-43450000D01*
G75*
G02*
X125650000Y-43500000I-50000J0D01*
G01*
X123950000Y-43500000D01*
G75*
G02*
X123900000Y-43450000I0J50000D01*
G01*
G37*
%TD*%
%TO.C,J8*%
X37440000Y-93410000D03*
X34900000Y-93410000D03*
X37440000Y-90870000D03*
X34900000Y-90870000D03*
X37440000Y-88330000D03*
X34900000Y-88330000D03*
X37440000Y-85790000D03*
X34900000Y-85790000D03*
X37440000Y-83250000D03*
G36*
G01*
X34000000Y-84100000D02*
X34000000Y-82400000D01*
G75*
G02*
X34050000Y-82350000I50000J0D01*
G01*
X35750000Y-82350000D01*
G75*
G02*
X35800000Y-82400000I0J-50000D01*
G01*
X35800000Y-84100000D01*
G75*
G02*
X35750000Y-84150000I-50000J0D01*
G01*
X34050000Y-84150000D01*
G75*
G02*
X34000000Y-84100000I0J50000D01*
G01*
G37*
%TD*%
%TO.C,J5*%
X124640000Y-83340000D03*
X122100000Y-83340000D03*
X124640000Y-80800000D03*
G36*
G01*
X121200000Y-81650000D02*
X121200000Y-79950000D01*
G75*
G02*
X121250000Y-79900000I50000J0D01*
G01*
X122950000Y-79900000D01*
G75*
G02*
X123000000Y-79950000I0J-50000D01*
G01*
X123000000Y-81650000D01*
G75*
G02*
X122950000Y-81700000I-50000J0D01*
G01*
X121250000Y-81700000D01*
G75*
G02*
X121200000Y-81650000I0J50000D01*
G01*
G37*
%TD*%
%TO.C,CAM4*%
G36*
G01*
X94810001Y-71667498D02*
X94810001Y-75867498D01*
G75*
G02*
X94760001Y-75917498I-50000J0D01*
G01*
X94160001Y-75917498D01*
G75*
G02*
X94110001Y-75867498I0J50000D01*
G01*
X94110001Y-71667498D01*
G75*
G02*
X94160001Y-71617498I50000J0D01*
G01*
X94760001Y-71617498D01*
G75*
G02*
X94810001Y-71667498I0J-50000D01*
G01*
G37*
G36*
G01*
X93810001Y-70667498D02*
X93810001Y-72667498D01*
G75*
G02*
X93760001Y-72717498I-50000J0D01*
G01*
X93160001Y-72717498D01*
G75*
G02*
X93110001Y-72667498I0J50000D01*
G01*
X93110001Y-70667498D01*
G75*
G02*
X93160001Y-70617498I50000J0D01*
G01*
X93760001Y-70617498D01*
G75*
G02*
X93810001Y-70667498I0J-50000D01*
G01*
G37*
G36*
G01*
X78810001Y-71667498D02*
X78810001Y-75867498D01*
G75*
G02*
X78760001Y-75917498I-50000J0D01*
G01*
X78160001Y-75917498D01*
G75*
G02*
X78110001Y-75867498I0J50000D01*
G01*
X78110001Y-71667498D01*
G75*
G02*
X78160001Y-71617498I50000J0D01*
G01*
X78760001Y-71617498D01*
G75*
G02*
X78810001Y-71667498I0J-50000D01*
G01*
G37*
G36*
G01*
X92810001Y-70667498D02*
X92810001Y-72667498D01*
G75*
G02*
X92760001Y-72717498I-50000J0D01*
G01*
X92160001Y-72717498D01*
G75*
G02*
X92110001Y-72667498I0J50000D01*
G01*
X92110001Y-70667498D01*
G75*
G02*
X92160001Y-70617498I50000J0D01*
G01*
X92760001Y-70617498D01*
G75*
G02*
X92810001Y-70667498I0J-50000D01*
G01*
G37*
G36*
G01*
X91810001Y-70667498D02*
X91810001Y-72667498D01*
G75*
G02*
X91760001Y-72717498I-50000J0D01*
G01*
X91160001Y-72717498D01*
G75*
G02*
X91110001Y-72667498I0J50000D01*
G01*
X91110001Y-70667498D01*
G75*
G02*
X91160001Y-70617498I50000J0D01*
G01*
X91760001Y-70617498D01*
G75*
G02*
X91810001Y-70667498I0J-50000D01*
G01*
G37*
G36*
G01*
X90810001Y-70667498D02*
X90810001Y-72667498D01*
G75*
G02*
X90760001Y-72717498I-50000J0D01*
G01*
X90160001Y-72717498D01*
G75*
G02*
X90110001Y-72667498I0J50000D01*
G01*
X90110001Y-70667498D01*
G75*
G02*
X90160001Y-70617498I50000J0D01*
G01*
X90760001Y-70617498D01*
G75*
G02*
X90810001Y-70667498I0J-50000D01*
G01*
G37*
G36*
G01*
X89810001Y-70667498D02*
X89810001Y-72667498D01*
G75*
G02*
X89760001Y-72717498I-50000J0D01*
G01*
X89160001Y-72717498D01*
G75*
G02*
X89110001Y-72667498I0J50000D01*
G01*
X89110001Y-70667498D01*
G75*
G02*
X89160001Y-70617498I50000J0D01*
G01*
X89760001Y-70617498D01*
G75*
G02*
X89810001Y-70667498I0J-50000D01*
G01*
G37*
G36*
G01*
X88810001Y-70667498D02*
X88810001Y-72667498D01*
G75*
G02*
X88760001Y-72717498I-50000J0D01*
G01*
X88160001Y-72717498D01*
G75*
G02*
X88110001Y-72667498I0J50000D01*
G01*
X88110001Y-70667498D01*
G75*
G02*
X88160001Y-70617498I50000J0D01*
G01*
X88760001Y-70617498D01*
G75*
G02*
X88810001Y-70667498I0J-50000D01*
G01*
G37*
G36*
G01*
X87810001Y-70667498D02*
X87810001Y-72667498D01*
G75*
G02*
X87760001Y-72717498I-50000J0D01*
G01*
X87160001Y-72717498D01*
G75*
G02*
X87110001Y-72667498I0J50000D01*
G01*
X87110001Y-70667498D01*
G75*
G02*
X87160001Y-70617498I50000J0D01*
G01*
X87760001Y-70617498D01*
G75*
G02*
X87810001Y-70667498I0J-50000D01*
G01*
G37*
G36*
G01*
X86810001Y-70667498D02*
X86810001Y-72667498D01*
G75*
G02*
X86760001Y-72717498I-50000J0D01*
G01*
X86160001Y-72717498D01*
G75*
G02*
X86110001Y-72667498I0J50000D01*
G01*
X86110001Y-70667498D01*
G75*
G02*
X86160001Y-70617498I50000J0D01*
G01*
X86760001Y-70617498D01*
G75*
G02*
X86810001Y-70667498I0J-50000D01*
G01*
G37*
G36*
G01*
X85810001Y-70667498D02*
X85810001Y-72667498D01*
G75*
G02*
X85760001Y-72717498I-50000J0D01*
G01*
X85160001Y-72717498D01*
G75*
G02*
X85110001Y-72667498I0J50000D01*
G01*
X85110001Y-70667498D01*
G75*
G02*
X85160001Y-70617498I50000J0D01*
G01*
X85760001Y-70617498D01*
G75*
G02*
X85810001Y-70667498I0J-50000D01*
G01*
G37*
G36*
G01*
X84810001Y-70667498D02*
X84810001Y-72667498D01*
G75*
G02*
X84760001Y-72717498I-50000J0D01*
G01*
X84160001Y-72717498D01*
G75*
G02*
X84110001Y-72667498I0J50000D01*
G01*
X84110001Y-70667498D01*
G75*
G02*
X84160001Y-70617498I50000J0D01*
G01*
X84760001Y-70617498D01*
G75*
G02*
X84810001Y-70667498I0J-50000D01*
G01*
G37*
G36*
G01*
X83810001Y-70667498D02*
X83810001Y-72667498D01*
G75*
G02*
X83760001Y-72717498I-50000J0D01*
G01*
X83160001Y-72717498D01*
G75*
G02*
X83110001Y-72667498I0J50000D01*
G01*
X83110001Y-70667498D01*
G75*
G02*
X83160001Y-70617498I50000J0D01*
G01*
X83760001Y-70617498D01*
G75*
G02*
X83810001Y-70667498I0J-50000D01*
G01*
G37*
G36*
G01*
X82810001Y-70667498D02*
X82810001Y-72667498D01*
G75*
G02*
X82760001Y-72717498I-50000J0D01*
G01*
X82160001Y-72717498D01*
G75*
G02*
X82110001Y-72667498I0J50000D01*
G01*
X82110001Y-70667498D01*
G75*
G02*
X82160001Y-70617498I50000J0D01*
G01*
X82760001Y-70617498D01*
G75*
G02*
X82810001Y-70667498I0J-50000D01*
G01*
G37*
G36*
G01*
X81810001Y-70667498D02*
X81810001Y-72667498D01*
G75*
G02*
X81760001Y-72717498I-50000J0D01*
G01*
X81160001Y-72717498D01*
G75*
G02*
X81110001Y-72667498I0J50000D01*
G01*
X81110001Y-70667498D01*
G75*
G02*
X81160001Y-70617498I50000J0D01*
G01*
X81760001Y-70617498D01*
G75*
G02*
X81810001Y-70667498I0J-50000D01*
G01*
G37*
G36*
G01*
X80810001Y-70667498D02*
X80810001Y-72667498D01*
G75*
G02*
X80760001Y-72717498I-50000J0D01*
G01*
X80160001Y-72717498D01*
G75*
G02*
X80110001Y-72667498I0J50000D01*
G01*
X80110001Y-70667498D01*
G75*
G02*
X80160001Y-70617498I50000J0D01*
G01*
X80760001Y-70617498D01*
G75*
G02*
X80810001Y-70667498I0J-50000D01*
G01*
G37*
G36*
G01*
X79810001Y-70667498D02*
X79810001Y-72667498D01*
G75*
G02*
X79760001Y-72717498I-50000J0D01*
G01*
X79160001Y-72717498D01*
G75*
G02*
X79110001Y-72667498I0J50000D01*
G01*
X79110001Y-70667498D01*
G75*
G02*
X79160001Y-70617498I50000J0D01*
G01*
X79760001Y-70617498D01*
G75*
G02*
X79810001Y-70667498I0J-50000D01*
G01*
G37*
%TD*%
D15*
%TO.C,SW2*%
X120100000Y-86750000D03*
X124600000Y-86750000D03*
X120100000Y-93250000D03*
X124600000Y-93250000D03*
%TD*%
D13*
%TO.C,J1*%
X41750000Y-81030000D03*
X41750000Y-78490000D03*
G36*
G01*
X40850000Y-76800000D02*
X40850000Y-75100000D01*
G75*
G02*
X40900000Y-75050000I50000J0D01*
G01*
X42600000Y-75050000D01*
G75*
G02*
X42650000Y-75100000I0J-50000D01*
G01*
X42650000Y-76800000D01*
G75*
G02*
X42600000Y-76850000I-50000J0D01*
G01*
X40900000Y-76850000D01*
G75*
G02*
X40850000Y-76800000I0J50000D01*
G01*
G37*
%TD*%
D16*
%TO.C,SW1*%
X33850000Y-79700000D03*
X33850000Y-77700000D03*
X33850000Y-75700000D03*
X38850000Y-79700000D03*
X38850000Y-77700000D03*
X38850000Y-75700000D03*
%TD*%
D17*
%TO.C,TP5*%
X108100000Y-85950000D03*
%TD*%
%TO.C,TP4*%
X105150000Y-80000000D03*
%TD*%
%TO.C,TP3*%
X108350000Y-80000000D03*
%TD*%
%TO.C,TP2*%
X108700000Y-82100000D03*
%TD*%
%TO.C,TP1*%
X112300000Y-86000000D03*
%TD*%
D13*
%TO.C,J6*%
X112380000Y-29800000D03*
X109840000Y-29800000D03*
G36*
G01*
X108150000Y-30700000D02*
X106450000Y-30700000D01*
G75*
G02*
X106400000Y-30650000I0J50000D01*
G01*
X106400000Y-28950000D01*
G75*
G02*
X106450000Y-28900000I50000J0D01*
G01*
X108150000Y-28900000D01*
G75*
G02*
X108200000Y-28950000I0J-50000D01*
G01*
X108200000Y-30650000D01*
G75*
G02*
X108150000Y-30700000I-50000J0D01*
G01*
G37*
%TD*%
D10*
%TO.C,H4*%
X35000000Y-98000000D03*
%TD*%
%TO.C,H3*%
X124000000Y-98000000D03*
%TD*%
%TO.C,H2*%
X124000000Y-31000000D03*
%TD*%
%TO.C,H1*%
X35000000Y-31000000D03*
%TD*%
%TO.C,CAM5*%
G36*
G01*
X78660001Y-67917498D02*
X74460001Y-67917498D01*
G75*
G02*
X74410001Y-67867498I0J50000D01*
G01*
X74410001Y-67267498D01*
G75*
G02*
X74460001Y-67217498I50000J0D01*
G01*
X78660001Y-67217498D01*
G75*
G02*
X78710001Y-67267498I0J-50000D01*
G01*
X78710001Y-67867498D01*
G75*
G02*
X78660001Y-67917498I-50000J0D01*
G01*
G37*
G36*
G01*
X79660001Y-66917498D02*
X77660001Y-66917498D01*
G75*
G02*
X77610001Y-66867498I0J50000D01*
G01*
X77610001Y-66267498D01*
G75*
G02*
X77660001Y-66217498I50000J0D01*
G01*
X79660001Y-66217498D01*
G75*
G02*
X79710001Y-66267498I0J-50000D01*
G01*
X79710001Y-66867498D01*
G75*
G02*
X79660001Y-66917498I-50000J0D01*
G01*
G37*
G36*
G01*
X78660001Y-51917498D02*
X74460001Y-51917498D01*
G75*
G02*
X74410001Y-51867498I0J50000D01*
G01*
X74410001Y-51267498D01*
G75*
G02*
X74460001Y-51217498I50000J0D01*
G01*
X78660001Y-51217498D01*
G75*
G02*
X78710001Y-51267498I0J-50000D01*
G01*
X78710001Y-51867498D01*
G75*
G02*
X78660001Y-51917498I-50000J0D01*
G01*
G37*
G36*
G01*
X79660001Y-65917498D02*
X77660001Y-65917498D01*
G75*
G02*
X77610001Y-65867498I0J50000D01*
G01*
X77610001Y-65267498D01*
G75*
G02*
X77660001Y-65217498I50000J0D01*
G01*
X79660001Y-65217498D01*
G75*
G02*
X79710001Y-65267498I0J-50000D01*
G01*
X79710001Y-65867498D01*
G75*
G02*
X79660001Y-65917498I-50000J0D01*
G01*
G37*
G36*
G01*
X79660001Y-64917498D02*
X77660001Y-64917498D01*
G75*
G02*
X77610001Y-64867498I0J50000D01*
G01*
X77610001Y-64267498D01*
G75*
G02*
X77660001Y-64217498I50000J0D01*
G01*
X79660001Y-64217498D01*
G75*
G02*
X79710001Y-64267498I0J-50000D01*
G01*
X79710001Y-64867498D01*
G75*
G02*
X79660001Y-64917498I-50000J0D01*
G01*
G37*
G36*
G01*
X79660001Y-63917498D02*
X77660001Y-63917498D01*
G75*
G02*
X77610001Y-63867498I0J50000D01*
G01*
X77610001Y-63267498D01*
G75*
G02*
X77660001Y-63217498I50000J0D01*
G01*
X79660001Y-63217498D01*
G75*
G02*
X79710001Y-63267498I0J-50000D01*
G01*
X79710001Y-63867498D01*
G75*
G02*
X79660001Y-63917498I-50000J0D01*
G01*
G37*
G36*
G01*
X79660001Y-62917498D02*
X77660001Y-62917498D01*
G75*
G02*
X77610001Y-62867498I0J50000D01*
G01*
X77610001Y-62267498D01*
G75*
G02*
X77660001Y-62217498I50000J0D01*
G01*
X79660001Y-62217498D01*
G75*
G02*
X79710001Y-62267498I0J-50000D01*
G01*
X79710001Y-62867498D01*
G75*
G02*
X79660001Y-62917498I-50000J0D01*
G01*
G37*
G36*
G01*
X79660001Y-61917498D02*
X77660001Y-61917498D01*
G75*
G02*
X77610001Y-61867498I0J50000D01*
G01*
X77610001Y-61267498D01*
G75*
G02*
X77660001Y-61217498I50000J0D01*
G01*
X79660001Y-61217498D01*
G75*
G02*
X79710001Y-61267498I0J-50000D01*
G01*
X79710001Y-61867498D01*
G75*
G02*
X79660001Y-61917498I-50000J0D01*
G01*
G37*
G36*
G01*
X79660001Y-60917498D02*
X77660001Y-60917498D01*
G75*
G02*
X77610001Y-60867498I0J50000D01*
G01*
X77610001Y-60267498D01*
G75*
G02*
X77660001Y-60217498I50000J0D01*
G01*
X79660001Y-60217498D01*
G75*
G02*
X79710001Y-60267498I0J-50000D01*
G01*
X79710001Y-60867498D01*
G75*
G02*
X79660001Y-60917498I-50000J0D01*
G01*
G37*
G36*
G01*
X79660001Y-59917498D02*
X77660001Y-59917498D01*
G75*
G02*
X77610001Y-59867498I0J50000D01*
G01*
X77610001Y-59267498D01*
G75*
G02*
X77660001Y-59217498I50000J0D01*
G01*
X79660001Y-59217498D01*
G75*
G02*
X79710001Y-59267498I0J-50000D01*
G01*
X79710001Y-59867498D01*
G75*
G02*
X79660001Y-59917498I-50000J0D01*
G01*
G37*
G36*
G01*
X79660001Y-58917498D02*
X77660001Y-58917498D01*
G75*
G02*
X77610001Y-58867498I0J50000D01*
G01*
X77610001Y-58267498D01*
G75*
G02*
X77660001Y-58217498I50000J0D01*
G01*
X79660001Y-58217498D01*
G75*
G02*
X79710001Y-58267498I0J-50000D01*
G01*
X79710001Y-58867498D01*
G75*
G02*
X79660001Y-58917498I-50000J0D01*
G01*
G37*
G36*
G01*
X79660001Y-57917498D02*
X77660001Y-57917498D01*
G75*
G02*
X77610001Y-57867498I0J50000D01*
G01*
X77610001Y-57267498D01*
G75*
G02*
X77660001Y-57217498I50000J0D01*
G01*
X79660001Y-57217498D01*
G75*
G02*
X79710001Y-57267498I0J-50000D01*
G01*
X79710001Y-57867498D01*
G75*
G02*
X79660001Y-57917498I-50000J0D01*
G01*
G37*
G36*
G01*
X79660001Y-56917498D02*
X77660001Y-56917498D01*
G75*
G02*
X77610001Y-56867498I0J50000D01*
G01*
X77610001Y-56267498D01*
G75*
G02*
X77660001Y-56217498I50000J0D01*
G01*
X79660001Y-56217498D01*
G75*
G02*
X79710001Y-56267498I0J-50000D01*
G01*
X79710001Y-56867498D01*
G75*
G02*
X79660001Y-56917498I-50000J0D01*
G01*
G37*
G36*
G01*
X79660001Y-55917498D02*
X77660001Y-55917498D01*
G75*
G02*
X77610001Y-55867498I0J50000D01*
G01*
X77610001Y-55267498D01*
G75*
G02*
X77660001Y-55217498I50000J0D01*
G01*
X79660001Y-55217498D01*
G75*
G02*
X79710001Y-55267498I0J-50000D01*
G01*
X79710001Y-55867498D01*
G75*
G02*
X79660001Y-55917498I-50000J0D01*
G01*
G37*
G36*
G01*
X79660001Y-54917498D02*
X77660001Y-54917498D01*
G75*
G02*
X77610001Y-54867498I0J50000D01*
G01*
X77610001Y-54267498D01*
G75*
G02*
X77660001Y-54217498I50000J0D01*
G01*
X79660001Y-54217498D01*
G75*
G02*
X79710001Y-54267498I0J-50000D01*
G01*
X79710001Y-54867498D01*
G75*
G02*
X79660001Y-54917498I-50000J0D01*
G01*
G37*
G36*
G01*
X79660001Y-53917498D02*
X77660001Y-53917498D01*
G75*
G02*
X77610001Y-53867498I0J50000D01*
G01*
X77610001Y-53267498D01*
G75*
G02*
X77660001Y-53217498I50000J0D01*
G01*
X79660001Y-53217498D01*
G75*
G02*
X79710001Y-53267498I0J-50000D01*
G01*
X79710001Y-53867498D01*
G75*
G02*
X79660001Y-53917498I-50000J0D01*
G01*
G37*
G36*
G01*
X79660001Y-52917498D02*
X77660001Y-52917498D01*
G75*
G02*
X77610001Y-52867498I0J50000D01*
G01*
X77610001Y-52267498D01*
G75*
G02*
X77660001Y-52217498I50000J0D01*
G01*
X79660001Y-52217498D01*
G75*
G02*
X79710001Y-52267498I0J-50000D01*
G01*
X79710001Y-52867498D01*
G75*
G02*
X79660001Y-52917498I-50000J0D01*
G01*
G37*
%TD*%
D18*
%TO.C,U18*%
X49260001Y-45607498D03*
X46760001Y-45607498D03*
X44760001Y-45607498D03*
X42260001Y-45607498D03*
X49260001Y-42987498D03*
X46760001Y-42987498D03*
X44760001Y-42987498D03*
X42260001Y-42987498D03*
D19*
X52330001Y-45957498D03*
X39190001Y-45957498D03*
X39190001Y-40277498D03*
X52330001Y-40277498D03*
%TD*%
D20*
%TO.C,J4*%
X119000000Y-31720000D03*
X116500000Y-31720000D03*
D21*
X119000000Y-38900000D03*
G36*
G01*
X117135295Y-40050000D02*
X115864705Y-40050000D01*
G75*
G02*
X115600000Y-39785295I0J264705D01*
G01*
X115600000Y-38014705D01*
G75*
G02*
X115864705Y-37750000I264705J0D01*
G01*
X117135295Y-37750000D01*
G75*
G02*
X117400000Y-38014705I0J-264705D01*
G01*
X117400000Y-39785295D01*
G75*
G02*
X117135295Y-40050000I-264705J0D01*
G01*
G37*
%TD*%
D22*
%TO.C,U21*%
X56235001Y-37327498D03*
X56235001Y-35297498D03*
X69685001Y-35297498D03*
X69685001Y-37327498D03*
D23*
X55085001Y-42917498D03*
X70835001Y-42917498D03*
D24*
X57245001Y-39867498D03*
X68675001Y-39867498D03*
D25*
X57245001Y-46217498D03*
X58515001Y-48757498D03*
X59785001Y-46217498D03*
X61055001Y-48757498D03*
X62325001Y-46217498D03*
X63595001Y-48757498D03*
X64865001Y-46217498D03*
X66135001Y-48757498D03*
X67405001Y-46217498D03*
X68675001Y-48757498D03*
%TD*%
%TO.C,CAM3*%
G36*
G01*
X82410001Y-53767498D02*
X82410001Y-49567498D01*
G75*
G02*
X82460001Y-49517498I50000J0D01*
G01*
X83060001Y-49517498D01*
G75*
G02*
X83110001Y-49567498I0J-50000D01*
G01*
X83110001Y-53767498D01*
G75*
G02*
X83060001Y-53817498I-50000J0D01*
G01*
X82460001Y-53817498D01*
G75*
G02*
X82410001Y-53767498I0J50000D01*
G01*
G37*
G36*
G01*
X83410001Y-54767498D02*
X83410001Y-52767498D01*
G75*
G02*
X83460001Y-52717498I50000J0D01*
G01*
X84060001Y-52717498D01*
G75*
G02*
X84110001Y-52767498I0J-50000D01*
G01*
X84110001Y-54767498D01*
G75*
G02*
X84060001Y-54817498I-50000J0D01*
G01*
X83460001Y-54817498D01*
G75*
G02*
X83410001Y-54767498I0J50000D01*
G01*
G37*
G36*
G01*
X98410001Y-53767498D02*
X98410001Y-49567498D01*
G75*
G02*
X98460001Y-49517498I50000J0D01*
G01*
X99060001Y-49517498D01*
G75*
G02*
X99110001Y-49567498I0J-50000D01*
G01*
X99110001Y-53767498D01*
G75*
G02*
X99060001Y-53817498I-50000J0D01*
G01*
X98460001Y-53817498D01*
G75*
G02*
X98410001Y-53767498I0J50000D01*
G01*
G37*
G36*
G01*
X84410001Y-54767498D02*
X84410001Y-52767498D01*
G75*
G02*
X84460001Y-52717498I50000J0D01*
G01*
X85060001Y-52717498D01*
G75*
G02*
X85110001Y-52767498I0J-50000D01*
G01*
X85110001Y-54767498D01*
G75*
G02*
X85060001Y-54817498I-50000J0D01*
G01*
X84460001Y-54817498D01*
G75*
G02*
X84410001Y-54767498I0J50000D01*
G01*
G37*
G36*
G01*
X85410001Y-54767498D02*
X85410001Y-52767498D01*
G75*
G02*
X85460001Y-52717498I50000J0D01*
G01*
X86060001Y-52717498D01*
G75*
G02*
X86110001Y-52767498I0J-50000D01*
G01*
X86110001Y-54767498D01*
G75*
G02*
X86060001Y-54817498I-50000J0D01*
G01*
X85460001Y-54817498D01*
G75*
G02*
X85410001Y-54767498I0J50000D01*
G01*
G37*
G36*
G01*
X86410001Y-54767498D02*
X86410001Y-52767498D01*
G75*
G02*
X86460001Y-52717498I50000J0D01*
G01*
X87060001Y-52717498D01*
G75*
G02*
X87110001Y-52767498I0J-50000D01*
G01*
X87110001Y-54767498D01*
G75*
G02*
X87060001Y-54817498I-50000J0D01*
G01*
X86460001Y-54817498D01*
G75*
G02*
X86410001Y-54767498I0J50000D01*
G01*
G37*
G36*
G01*
X87410001Y-54767498D02*
X87410001Y-52767498D01*
G75*
G02*
X87460001Y-52717498I50000J0D01*
G01*
X88060001Y-52717498D01*
G75*
G02*
X88110001Y-52767498I0J-50000D01*
G01*
X88110001Y-54767498D01*
G75*
G02*
X88060001Y-54817498I-50000J0D01*
G01*
X87460001Y-54817498D01*
G75*
G02*
X87410001Y-54767498I0J50000D01*
G01*
G37*
G36*
G01*
X88410001Y-54767498D02*
X88410001Y-52767498D01*
G75*
G02*
X88460001Y-52717498I50000J0D01*
G01*
X89060001Y-52717498D01*
G75*
G02*
X89110001Y-52767498I0J-50000D01*
G01*
X89110001Y-54767498D01*
G75*
G02*
X89060001Y-54817498I-50000J0D01*
G01*
X88460001Y-54817498D01*
G75*
G02*
X88410001Y-54767498I0J50000D01*
G01*
G37*
G36*
G01*
X89410001Y-54767498D02*
X89410001Y-52767498D01*
G75*
G02*
X89460001Y-52717498I50000J0D01*
G01*
X90060001Y-52717498D01*
G75*
G02*
X90110001Y-52767498I0J-50000D01*
G01*
X90110001Y-54767498D01*
G75*
G02*
X90060001Y-54817498I-50000J0D01*
G01*
X89460001Y-54817498D01*
G75*
G02*
X89410001Y-54767498I0J50000D01*
G01*
G37*
G36*
G01*
X90410001Y-54767498D02*
X90410001Y-52767498D01*
G75*
G02*
X90460001Y-52717498I50000J0D01*
G01*
X91060001Y-52717498D01*
G75*
G02*
X91110001Y-52767498I0J-50000D01*
G01*
X91110001Y-54767498D01*
G75*
G02*
X91060001Y-54817498I-50000J0D01*
G01*
X90460001Y-54817498D01*
G75*
G02*
X90410001Y-54767498I0J50000D01*
G01*
G37*
G36*
G01*
X91410001Y-54767498D02*
X91410001Y-52767498D01*
G75*
G02*
X91460001Y-52717498I50000J0D01*
G01*
X92060001Y-52717498D01*
G75*
G02*
X92110001Y-52767498I0J-50000D01*
G01*
X92110001Y-54767498D01*
G75*
G02*
X92060001Y-54817498I-50000J0D01*
G01*
X91460001Y-54817498D01*
G75*
G02*
X91410001Y-54767498I0J50000D01*
G01*
G37*
G36*
G01*
X92410001Y-54767498D02*
X92410001Y-52767498D01*
G75*
G02*
X92460001Y-52717498I50000J0D01*
G01*
X93060001Y-52717498D01*
G75*
G02*
X93110001Y-52767498I0J-50000D01*
G01*
X93110001Y-54767498D01*
G75*
G02*
X93060001Y-54817498I-50000J0D01*
G01*
X92460001Y-54817498D01*
G75*
G02*
X92410001Y-54767498I0J50000D01*
G01*
G37*
G36*
G01*
X93410001Y-54767498D02*
X93410001Y-52767498D01*
G75*
G02*
X93460001Y-52717498I50000J0D01*
G01*
X94060001Y-52717498D01*
G75*
G02*
X94110001Y-52767498I0J-50000D01*
G01*
X94110001Y-54767498D01*
G75*
G02*
X94060001Y-54817498I-50000J0D01*
G01*
X93460001Y-54817498D01*
G75*
G02*
X93410001Y-54767498I0J50000D01*
G01*
G37*
G36*
G01*
X94410001Y-54767498D02*
X94410001Y-52767498D01*
G75*
G02*
X94460001Y-52717498I50000J0D01*
G01*
X95060001Y-52717498D01*
G75*
G02*
X95110001Y-52767498I0J-50000D01*
G01*
X95110001Y-54767498D01*
G75*
G02*
X95060001Y-54817498I-50000J0D01*
G01*
X94460001Y-54817498D01*
G75*
G02*
X94410001Y-54767498I0J50000D01*
G01*
G37*
G36*
G01*
X95410001Y-54767498D02*
X95410001Y-52767498D01*
G75*
G02*
X95460001Y-52717498I50000J0D01*
G01*
X96060001Y-52717498D01*
G75*
G02*
X96110001Y-52767498I0J-50000D01*
G01*
X96110001Y-54767498D01*
G75*
G02*
X96060001Y-54817498I-50000J0D01*
G01*
X95460001Y-54817498D01*
G75*
G02*
X95410001Y-54767498I0J50000D01*
G01*
G37*
G36*
G01*
X96410001Y-54767498D02*
X96410001Y-52767498D01*
G75*
G02*
X96460001Y-52717498I50000J0D01*
G01*
X97060001Y-52717498D01*
G75*
G02*
X97110001Y-52767498I0J-50000D01*
G01*
X97110001Y-54767498D01*
G75*
G02*
X97060001Y-54817498I-50000J0D01*
G01*
X96460001Y-54817498D01*
G75*
G02*
X96410001Y-54767498I0J50000D01*
G01*
G37*
G36*
G01*
X97410001Y-54767498D02*
X97410001Y-52767498D01*
G75*
G02*
X97460001Y-52717498I50000J0D01*
G01*
X98060001Y-52717498D01*
G75*
G02*
X98110001Y-52767498I0J-50000D01*
G01*
X98110001Y-54767498D01*
G75*
G02*
X98060001Y-54817498I-50000J0D01*
G01*
X97460001Y-54817498D01*
G75*
G02*
X97410001Y-54767498I0J50000D01*
G01*
G37*
%TD*%
%TO.C,CAM2*%
G36*
G01*
X115910001Y-71667498D02*
X115910001Y-75867498D01*
G75*
G02*
X115860001Y-75917498I-50000J0D01*
G01*
X115260001Y-75917498D01*
G75*
G02*
X115210001Y-75867498I0J50000D01*
G01*
X115210001Y-71667498D01*
G75*
G02*
X115260001Y-71617498I50000J0D01*
G01*
X115860001Y-71617498D01*
G75*
G02*
X115910001Y-71667498I0J-50000D01*
G01*
G37*
G36*
G01*
X114910001Y-70667498D02*
X114910001Y-72667498D01*
G75*
G02*
X114860001Y-72717498I-50000J0D01*
G01*
X114260001Y-72717498D01*
G75*
G02*
X114210001Y-72667498I0J50000D01*
G01*
X114210001Y-70667498D01*
G75*
G02*
X114260001Y-70617498I50000J0D01*
G01*
X114860001Y-70617498D01*
G75*
G02*
X114910001Y-70667498I0J-50000D01*
G01*
G37*
G36*
G01*
X99910001Y-71667498D02*
X99910001Y-75867498D01*
G75*
G02*
X99860001Y-75917498I-50000J0D01*
G01*
X99260001Y-75917498D01*
G75*
G02*
X99210001Y-75867498I0J50000D01*
G01*
X99210001Y-71667498D01*
G75*
G02*
X99260001Y-71617498I50000J0D01*
G01*
X99860001Y-71617498D01*
G75*
G02*
X99910001Y-71667498I0J-50000D01*
G01*
G37*
G36*
G01*
X113910001Y-70667498D02*
X113910001Y-72667498D01*
G75*
G02*
X113860001Y-72717498I-50000J0D01*
G01*
X113260001Y-72717498D01*
G75*
G02*
X113210001Y-72667498I0J50000D01*
G01*
X113210001Y-70667498D01*
G75*
G02*
X113260001Y-70617498I50000J0D01*
G01*
X113860001Y-70617498D01*
G75*
G02*
X113910001Y-70667498I0J-50000D01*
G01*
G37*
G36*
G01*
X112910001Y-70667498D02*
X112910001Y-72667498D01*
G75*
G02*
X112860001Y-72717498I-50000J0D01*
G01*
X112260001Y-72717498D01*
G75*
G02*
X112210001Y-72667498I0J50000D01*
G01*
X112210001Y-70667498D01*
G75*
G02*
X112260001Y-70617498I50000J0D01*
G01*
X112860001Y-70617498D01*
G75*
G02*
X112910001Y-70667498I0J-50000D01*
G01*
G37*
G36*
G01*
X111910001Y-70667498D02*
X111910001Y-72667498D01*
G75*
G02*
X111860001Y-72717498I-50000J0D01*
G01*
X111260001Y-72717498D01*
G75*
G02*
X111210001Y-72667498I0J50000D01*
G01*
X111210001Y-70667498D01*
G75*
G02*
X111260001Y-70617498I50000J0D01*
G01*
X111860001Y-70617498D01*
G75*
G02*
X111910001Y-70667498I0J-50000D01*
G01*
G37*
G36*
G01*
X110910001Y-70667498D02*
X110910001Y-72667498D01*
G75*
G02*
X110860001Y-72717498I-50000J0D01*
G01*
X110260001Y-72717498D01*
G75*
G02*
X110210001Y-72667498I0J50000D01*
G01*
X110210001Y-70667498D01*
G75*
G02*
X110260001Y-70617498I50000J0D01*
G01*
X110860001Y-70617498D01*
G75*
G02*
X110910001Y-70667498I0J-50000D01*
G01*
G37*
G36*
G01*
X109910001Y-70667498D02*
X109910001Y-72667498D01*
G75*
G02*
X109860001Y-72717498I-50000J0D01*
G01*
X109260001Y-72717498D01*
G75*
G02*
X109210001Y-72667498I0J50000D01*
G01*
X109210001Y-70667498D01*
G75*
G02*
X109260001Y-70617498I50000J0D01*
G01*
X109860001Y-70617498D01*
G75*
G02*
X109910001Y-70667498I0J-50000D01*
G01*
G37*
G36*
G01*
X108910001Y-70667498D02*
X108910001Y-72667498D01*
G75*
G02*
X108860001Y-72717498I-50000J0D01*
G01*
X108260001Y-72717498D01*
G75*
G02*
X108210001Y-72667498I0J50000D01*
G01*
X108210001Y-70667498D01*
G75*
G02*
X108260001Y-70617498I50000J0D01*
G01*
X108860001Y-70617498D01*
G75*
G02*
X108910001Y-70667498I0J-50000D01*
G01*
G37*
G36*
G01*
X107910001Y-70667498D02*
X107910001Y-72667498D01*
G75*
G02*
X107860001Y-72717498I-50000J0D01*
G01*
X107260001Y-72717498D01*
G75*
G02*
X107210001Y-72667498I0J50000D01*
G01*
X107210001Y-70667498D01*
G75*
G02*
X107260001Y-70617498I50000J0D01*
G01*
X107860001Y-70617498D01*
G75*
G02*
X107910001Y-70667498I0J-50000D01*
G01*
G37*
G36*
G01*
X106910001Y-70667498D02*
X106910001Y-72667498D01*
G75*
G02*
X106860001Y-72717498I-50000J0D01*
G01*
X106260001Y-72717498D01*
G75*
G02*
X106210001Y-72667498I0J50000D01*
G01*
X106210001Y-70667498D01*
G75*
G02*
X106260001Y-70617498I50000J0D01*
G01*
X106860001Y-70617498D01*
G75*
G02*
X106910001Y-70667498I0J-50000D01*
G01*
G37*
G36*
G01*
X105910001Y-70667498D02*
X105910001Y-72667498D01*
G75*
G02*
X105860001Y-72717498I-50000J0D01*
G01*
X105260001Y-72717498D01*
G75*
G02*
X105210001Y-72667498I0J50000D01*
G01*
X105210001Y-70667498D01*
G75*
G02*
X105260001Y-70617498I50000J0D01*
G01*
X105860001Y-70617498D01*
G75*
G02*
X105910001Y-70667498I0J-50000D01*
G01*
G37*
G36*
G01*
X104910001Y-70667498D02*
X104910001Y-72667498D01*
G75*
G02*
X104860001Y-72717498I-50000J0D01*
G01*
X104260001Y-72717498D01*
G75*
G02*
X104210001Y-72667498I0J50000D01*
G01*
X104210001Y-70667498D01*
G75*
G02*
X104260001Y-70617498I50000J0D01*
G01*
X104860001Y-70617498D01*
G75*
G02*
X104910001Y-70667498I0J-50000D01*
G01*
G37*
G36*
G01*
X103910001Y-70667498D02*
X103910001Y-72667498D01*
G75*
G02*
X103860001Y-72717498I-50000J0D01*
G01*
X103260001Y-72717498D01*
G75*
G02*
X103210001Y-72667498I0J50000D01*
G01*
X103210001Y-70667498D01*
G75*
G02*
X103260001Y-70617498I50000J0D01*
G01*
X103860001Y-70617498D01*
G75*
G02*
X103910001Y-70667498I0J-50000D01*
G01*
G37*
G36*
G01*
X102910001Y-70667498D02*
X102910001Y-72667498D01*
G75*
G02*
X102860001Y-72717498I-50000J0D01*
G01*
X102260001Y-72717498D01*
G75*
G02*
X102210001Y-72667498I0J50000D01*
G01*
X102210001Y-70667498D01*
G75*
G02*
X102260001Y-70617498I50000J0D01*
G01*
X102860001Y-70617498D01*
G75*
G02*
X102910001Y-70667498I0J-50000D01*
G01*
G37*
G36*
G01*
X101910001Y-70667498D02*
X101910001Y-72667498D01*
G75*
G02*
X101860001Y-72717498I-50000J0D01*
G01*
X101260001Y-72717498D01*
G75*
G02*
X101210001Y-72667498I0J50000D01*
G01*
X101210001Y-70667498D01*
G75*
G02*
X101260001Y-70617498I50000J0D01*
G01*
X101860001Y-70617498D01*
G75*
G02*
X101910001Y-70667498I0J-50000D01*
G01*
G37*
G36*
G01*
X100910001Y-70667498D02*
X100910001Y-72667498D01*
G75*
G02*
X100860001Y-72717498I-50000J0D01*
G01*
X100260001Y-72717498D01*
G75*
G02*
X100210001Y-72667498I0J50000D01*
G01*
X100210001Y-70667498D01*
G75*
G02*
X100260001Y-70617498I50000J0D01*
G01*
X100860001Y-70617498D01*
G75*
G02*
X100910001Y-70667498I0J-50000D01*
G01*
G37*
%TD*%
%TO.C,CAM0*%
G36*
G01*
X119960001Y-59517498D02*
X124160001Y-59517498D01*
G75*
G02*
X124210001Y-59567498I0J-50000D01*
G01*
X124210001Y-60167498D01*
G75*
G02*
X124160001Y-60217498I-50000J0D01*
G01*
X119960001Y-60217498D01*
G75*
G02*
X119910001Y-60167498I0J50000D01*
G01*
X119910001Y-59567498D01*
G75*
G02*
X119960001Y-59517498I50000J0D01*
G01*
G37*
G36*
G01*
X118960001Y-60517498D02*
X120960001Y-60517498D01*
G75*
G02*
X121010001Y-60567498I0J-50000D01*
G01*
X121010001Y-61167498D01*
G75*
G02*
X120960001Y-61217498I-50000J0D01*
G01*
X118960001Y-61217498D01*
G75*
G02*
X118910001Y-61167498I0J50000D01*
G01*
X118910001Y-60567498D01*
G75*
G02*
X118960001Y-60517498I50000J0D01*
G01*
G37*
G36*
G01*
X119960001Y-75517498D02*
X124160001Y-75517498D01*
G75*
G02*
X124210001Y-75567498I0J-50000D01*
G01*
X124210001Y-76167498D01*
G75*
G02*
X124160001Y-76217498I-50000J0D01*
G01*
X119960001Y-76217498D01*
G75*
G02*
X119910001Y-76167498I0J50000D01*
G01*
X119910001Y-75567498D01*
G75*
G02*
X119960001Y-75517498I50000J0D01*
G01*
G37*
G36*
G01*
X118960001Y-61517498D02*
X120960001Y-61517498D01*
G75*
G02*
X121010001Y-61567498I0J-50000D01*
G01*
X121010001Y-62167498D01*
G75*
G02*
X120960001Y-62217498I-50000J0D01*
G01*
X118960001Y-62217498D01*
G75*
G02*
X118910001Y-62167498I0J50000D01*
G01*
X118910001Y-61567498D01*
G75*
G02*
X118960001Y-61517498I50000J0D01*
G01*
G37*
G36*
G01*
X118960001Y-62517498D02*
X120960001Y-62517498D01*
G75*
G02*
X121010001Y-62567498I0J-50000D01*
G01*
X121010001Y-63167498D01*
G75*
G02*
X120960001Y-63217498I-50000J0D01*
G01*
X118960001Y-63217498D01*
G75*
G02*
X118910001Y-63167498I0J50000D01*
G01*
X118910001Y-62567498D01*
G75*
G02*
X118960001Y-62517498I50000J0D01*
G01*
G37*
G36*
G01*
X118960001Y-63517498D02*
X120960001Y-63517498D01*
G75*
G02*
X121010001Y-63567498I0J-50000D01*
G01*
X121010001Y-64167498D01*
G75*
G02*
X120960001Y-64217498I-50000J0D01*
G01*
X118960001Y-64217498D01*
G75*
G02*
X118910001Y-64167498I0J50000D01*
G01*
X118910001Y-63567498D01*
G75*
G02*
X118960001Y-63517498I50000J0D01*
G01*
G37*
G36*
G01*
X118960001Y-64517498D02*
X120960001Y-64517498D01*
G75*
G02*
X121010001Y-64567498I0J-50000D01*
G01*
X121010001Y-65167498D01*
G75*
G02*
X120960001Y-65217498I-50000J0D01*
G01*
X118960001Y-65217498D01*
G75*
G02*
X118910001Y-65167498I0J50000D01*
G01*
X118910001Y-64567498D01*
G75*
G02*
X118960001Y-64517498I50000J0D01*
G01*
G37*
G36*
G01*
X118960001Y-65517498D02*
X120960001Y-65517498D01*
G75*
G02*
X121010001Y-65567498I0J-50000D01*
G01*
X121010001Y-66167498D01*
G75*
G02*
X120960001Y-66217498I-50000J0D01*
G01*
X118960001Y-66217498D01*
G75*
G02*
X118910001Y-66167498I0J50000D01*
G01*
X118910001Y-65567498D01*
G75*
G02*
X118960001Y-65517498I50000J0D01*
G01*
G37*
G36*
G01*
X118960001Y-66517498D02*
X120960001Y-66517498D01*
G75*
G02*
X121010001Y-66567498I0J-50000D01*
G01*
X121010001Y-67167498D01*
G75*
G02*
X120960001Y-67217498I-50000J0D01*
G01*
X118960001Y-67217498D01*
G75*
G02*
X118910001Y-67167498I0J50000D01*
G01*
X118910001Y-66567498D01*
G75*
G02*
X118960001Y-66517498I50000J0D01*
G01*
G37*
G36*
G01*
X118960001Y-67517498D02*
X120960001Y-67517498D01*
G75*
G02*
X121010001Y-67567498I0J-50000D01*
G01*
X121010001Y-68167498D01*
G75*
G02*
X120960001Y-68217498I-50000J0D01*
G01*
X118960001Y-68217498D01*
G75*
G02*
X118910001Y-68167498I0J50000D01*
G01*
X118910001Y-67567498D01*
G75*
G02*
X118960001Y-67517498I50000J0D01*
G01*
G37*
G36*
G01*
X118960001Y-68517498D02*
X120960001Y-68517498D01*
G75*
G02*
X121010001Y-68567498I0J-50000D01*
G01*
X121010001Y-69167498D01*
G75*
G02*
X120960001Y-69217498I-50000J0D01*
G01*
X118960001Y-69217498D01*
G75*
G02*
X118910001Y-69167498I0J50000D01*
G01*
X118910001Y-68567498D01*
G75*
G02*
X118960001Y-68517498I50000J0D01*
G01*
G37*
G36*
G01*
X118960001Y-69517498D02*
X120960001Y-69517498D01*
G75*
G02*
X121010001Y-69567498I0J-50000D01*
G01*
X121010001Y-70167498D01*
G75*
G02*
X120960001Y-70217498I-50000J0D01*
G01*
X118960001Y-70217498D01*
G75*
G02*
X118910001Y-70167498I0J50000D01*
G01*
X118910001Y-69567498D01*
G75*
G02*
X118960001Y-69517498I50000J0D01*
G01*
G37*
G36*
G01*
X118960001Y-70517498D02*
X120960001Y-70517498D01*
G75*
G02*
X121010001Y-70567498I0J-50000D01*
G01*
X121010001Y-71167498D01*
G75*
G02*
X120960001Y-71217498I-50000J0D01*
G01*
X118960001Y-71217498D01*
G75*
G02*
X118910001Y-71167498I0J50000D01*
G01*
X118910001Y-70567498D01*
G75*
G02*
X118960001Y-70517498I50000J0D01*
G01*
G37*
G36*
G01*
X118960001Y-71517498D02*
X120960001Y-71517498D01*
G75*
G02*
X121010001Y-71567498I0J-50000D01*
G01*
X121010001Y-72167498D01*
G75*
G02*
X120960001Y-72217498I-50000J0D01*
G01*
X118960001Y-72217498D01*
G75*
G02*
X118910001Y-72167498I0J50000D01*
G01*
X118910001Y-71567498D01*
G75*
G02*
X118960001Y-71517498I50000J0D01*
G01*
G37*
G36*
G01*
X118960001Y-72517498D02*
X120960001Y-72517498D01*
G75*
G02*
X121010001Y-72567498I0J-50000D01*
G01*
X121010001Y-73167498D01*
G75*
G02*
X120960001Y-73217498I-50000J0D01*
G01*
X118960001Y-73217498D01*
G75*
G02*
X118910001Y-73167498I0J50000D01*
G01*
X118910001Y-72567498D01*
G75*
G02*
X118960001Y-72517498I50000J0D01*
G01*
G37*
G36*
G01*
X118960001Y-73517498D02*
X120960001Y-73517498D01*
G75*
G02*
X121010001Y-73567498I0J-50000D01*
G01*
X121010001Y-74167498D01*
G75*
G02*
X120960001Y-74217498I-50000J0D01*
G01*
X118960001Y-74217498D01*
G75*
G02*
X118910001Y-74167498I0J50000D01*
G01*
X118910001Y-73567498D01*
G75*
G02*
X118960001Y-73517498I50000J0D01*
G01*
G37*
G36*
G01*
X118960001Y-74517498D02*
X120960001Y-74517498D01*
G75*
G02*
X121010001Y-74567498I0J-50000D01*
G01*
X121010001Y-75167498D01*
G75*
G02*
X120960001Y-75217498I-50000J0D01*
G01*
X118960001Y-75217498D01*
G75*
G02*
X118910001Y-75167498I0J50000D01*
G01*
X118910001Y-74567498D01*
G75*
G02*
X118960001Y-74517498I50000J0D01*
G01*
G37*
%TD*%
D26*
%TO.C,U11*%
X69200000Y-83250000D03*
X69200000Y-82500000D03*
X69790000Y-82120000D03*
X69790000Y-82870000D03*
X70350000Y-83250000D03*
X70350000Y-81750000D03*
X70350000Y-82500000D03*
X69200000Y-81750000D03*
X69200000Y-84490000D03*
X69500000Y-85070000D03*
X69200000Y-85650000D03*
%TD*%
%TO.C,U9*%
X59500000Y-77200000D03*
X59500000Y-76450000D03*
X60090000Y-76070000D03*
X60090000Y-76820000D03*
X60650000Y-77200000D03*
X60650000Y-75700000D03*
X60650000Y-76450000D03*
X59500000Y-75700000D03*
X59500000Y-78440000D03*
X59800000Y-79020000D03*
X59500000Y-79600000D03*
%TD*%
D13*
%TO.C,J3*%
X45650000Y-79540000D03*
G36*
G01*
X44750000Y-77850000D02*
X44750000Y-76150000D01*
G75*
G02*
X44800000Y-76100000I50000J0D01*
G01*
X46500000Y-76100000D01*
G75*
G02*
X46550000Y-76150000I0J-50000D01*
G01*
X46550000Y-77850000D01*
G75*
G02*
X46500000Y-77900000I-50000J0D01*
G01*
X44800000Y-77900000D01*
G75*
G02*
X44750000Y-77850000I0J50000D01*
G01*
G37*
%TD*%
D27*
%TO.C,J2*%
X77160001Y-38477498D03*
X81160001Y-38477498D03*
X81560001Y-37777498D03*
X80760001Y-37777498D03*
X79960001Y-37777498D03*
X78360001Y-37777498D03*
X77560001Y-37777498D03*
X76760001Y-37777498D03*
X81960001Y-38477498D03*
X80360001Y-38477498D03*
X79560001Y-38477498D03*
X78760001Y-38477498D03*
X77960001Y-38477498D03*
X76360001Y-38477498D03*
D28*
X83430001Y-32597498D03*
X74890001Y-32597498D03*
X74890001Y-37327498D03*
X83430001Y-37327498D03*
%TD*%
D14*
%TO.C,MCU_SWD1*%
X46430000Y-98130000D03*
X46430000Y-99400000D03*
X45160000Y-98130000D03*
X45160000Y-99400000D03*
X43890000Y-98130000D03*
X43890000Y-99400000D03*
X42620000Y-98130000D03*
X42620000Y-99400000D03*
X41350000Y-98130000D03*
G36*
G01*
X41850000Y-99950000D02*
X40850000Y-99950000D01*
G75*
G02*
X40800000Y-99900000I0J50000D01*
G01*
X40800000Y-98900000D01*
G75*
G02*
X40850000Y-98850000I50000J0D01*
G01*
X41850000Y-98850000D01*
G75*
G02*
X41900000Y-98900000I0J-50000D01*
G01*
X41900000Y-99900000D01*
G75*
G02*
X41850000Y-99950000I-50000J0D01*
G01*
G37*
%TD*%
M02*
