%TF.GenerationSoftware,KiCad,Pcbnew,5.99.0-unknown-ad69e44~101~ubuntu18.04.1*%
%TF.CreationDate,2020-06-22T16:53:11+08:00*%
%TF.ProjectId,ovc4,6f766334-2e6b-4696-9361-645f70636258,rev?*%
%TF.SameCoordinates,Original*%
%TF.FileFunction,Copper,L6,Bot*%
%TF.FilePolarity,Positive*%
%FSLAX46Y46*%
G04 Gerber Fmt 4.6, Leading zero omitted, Abs format (unit mm)*
G04 Created by KiCad (PCBNEW 5.99.0-unknown-ad69e44~101~ubuntu18.04.1) date 2020-06-22 16:53:11*
%MOMM*%
%LPD*%
G01*
G04 APERTURE LIST*
%TA.AperFunction,ComponentPad*%
%ADD10C,2.500000*%
%TD*%
%TA.AperFunction,ComponentPad*%
%ADD11C,1.600000*%
%TD*%
%TA.AperFunction,ComponentPad*%
%ADD12C,1.100000*%
%TD*%
%TA.AperFunction,SMDPad,CuDef*%
%ADD13R,0.600000X2.000000*%
%TD*%
%TA.AperFunction,SMDPad,CuDef*%
%ADD14R,0.600000X4.200000*%
%TD*%
%TA.AperFunction,ComponentPad*%
%ADD15O,1.700000X1.700000*%
%TD*%
%TA.AperFunction,ComponentPad*%
%ADD16R,1.700000X1.700000*%
%TD*%
%TA.AperFunction,ComponentPad*%
%ADD17O,1.000000X1.000000*%
%TD*%
%TA.AperFunction,ComponentPad*%
%ADD18R,1.000000X1.000000*%
%TD*%
%TA.AperFunction,ComponentPad*%
%ADD19C,2.000000*%
%TD*%
%TA.AperFunction,ComponentPad*%
%ADD20C,1.200000*%
%TD*%
%TA.AperFunction,SMDPad,CuDef*%
%ADD21C,1.000000*%
%TD*%
%TA.AperFunction,SMDPad,CuDef*%
%ADD22R,4.200000X0.600000*%
%TD*%
%TA.AperFunction,SMDPad,CuDef*%
%ADD23R,2.000000X0.600000*%
%TD*%
%TA.AperFunction,ComponentPad*%
%ADD24C,1.500000*%
%TD*%
%TA.AperFunction,ComponentPad*%
%ADD25C,3.000000*%
%TD*%
%TA.AperFunction,ComponentPad*%
%ADD26O,1.700000X2.200000*%
%TD*%
%TA.AperFunction,ComponentPad*%
%ADD27C,1.371600*%
%TD*%
%TA.AperFunction,ComponentPad*%
%ADD28C,2.200000*%
%TD*%
%TA.AperFunction,ComponentPad*%
%ADD29C,3.600000*%
%TD*%
%TA.AperFunction,ComponentPad*%
%ADD30C,1.524000*%
%TD*%
%TA.AperFunction,ComponentPad*%
%ADD31C,0.600000*%
%TD*%
%TA.AperFunction,ComponentPad*%
%ADD32C,0.650000*%
%TD*%
%TA.AperFunction,ComponentPad*%
%ADD33C,1.400000*%
%TD*%
%TA.AperFunction,ViaPad*%
%ADD34C,0.457200*%
%TD*%
%TA.AperFunction,ViaPad*%
%ADD35C,0.762000*%
%TD*%
%TA.AperFunction,Conductor*%
%ADD36C,0.203200*%
%TD*%
%TA.AperFunction,Conductor*%
%ADD37C,0.304800*%
%TD*%
%TA.AperFunction,Conductor*%
%ADD38C,0.177800*%
%TD*%
%TA.AperFunction,Conductor*%
%ADD39C,0.254000*%
%TD*%
G04 APERTURE END LIST*
D10*
%TO.P,U1,265*%
%TO.N,N/C*%
X115125000Y-98500000D03*
X51525000Y-98500000D03*
D11*
%TO.P,U1,264*%
X117625000Y-56500000D03*
D12*
%TO.P,U1,263*%
X48825000Y-56500000D03*
%TD*%
D13*
%TO.P,CAM1,15,3V3*%
%TO.N,+3V3*%
X118860001Y-53767498D03*
%TO.P,CAM1,14,SDA*%
%TO.N,CAM1_SDA_1V8*%
X117860001Y-53767498D03*
%TO.P,CAM1,13,SCL*%
%TO.N,CAM1_SCL_1V8*%
X116860001Y-53767498D03*
%TO.P,CAM1,12,GPIO/NC*%
%TO.N,CAM1_TRIGGER*%
X115860001Y-53767498D03*
%TO.P,CAM1,11,ENABLE*%
%TO.N,CAM1_ENABLE*%
X114860001Y-53767498D03*
%TO.P,CAM1,10,GND*%
%TO.N,GND*%
X113860001Y-53767498D03*
%TO.P,CAM1,9,CLK+*%
%TO.N,CAM1_CLK+*%
X112860001Y-53767498D03*
%TO.P,CAM1,8,CLK-*%
%TO.N,CAM1_CLK-*%
X111860001Y-53767498D03*
%TO.P,CAM1,7,GND*%
%TO.N,GND*%
X110860001Y-53767498D03*
%TO.P,CAM1,6,DAT1+*%
%TO.N,CAM1_DAT1+*%
X109860001Y-53767498D03*
%TO.P,CAM1,5,DAT1-*%
%TO.N,CAM1_DAT1-*%
X108860001Y-53767498D03*
%TO.P,CAM1,4,GND*%
%TO.N,GND*%
X107860001Y-53767498D03*
%TO.P,CAM1,3,DAT0+*%
%TO.N,CAM1_DAT0+*%
X106860001Y-53767498D03*
%TO.P,CAM1,2,DAT0-*%
%TO.N,CAM1_DAT0-*%
X105860001Y-53767498D03*
D14*
%TO.P,CAM1,16,PAD*%
%TO.N,GND*%
X119860001Y-51667498D03*
D13*
%TO.P,CAM1,1,GND*%
X104860001Y-53767498D03*
D14*
%TO.P,CAM1,16,PAD*%
X103860001Y-51667498D03*
%TD*%
D15*
%TO.P,J12,4,Pin_4*%
%TO.N,/Interfaces/FAN_PWM_5V*%
X41400000Y-92320000D03*
%TO.P,J12,3,Pin_3*%
%TO.N,/Interfaces/FAN_TACH_5V*%
X41400000Y-89780000D03*
%TO.P,J12,2,Pin_2*%
%TO.N,+5V*%
X41400000Y-87240000D03*
D16*
%TO.P,J12,1,Pin_1*%
%TO.N,GND*%
X41400000Y-84700000D03*
%TD*%
D17*
%TO.P,J11,4,Pin_4*%
%TO.N,/Interfaces/FAN_PWM_5V*%
X45400000Y-95310000D03*
%TO.P,J11,3,Pin_3*%
%TO.N,/Interfaces/FAN_TACH_5V*%
X45400000Y-94040000D03*
%TO.P,J11,2,Pin_2*%
%TO.N,+5V*%
X45400000Y-92770000D03*
D18*
%TO.P,J11,1,Pin_1*%
%TO.N,GND*%
X45400000Y-91500000D03*
%TD*%
D15*
%TO.P,J9,3,Pin_3*%
%TO.N,GND*%
X45650000Y-88230000D03*
%TO.P,J9,2,Pin_2*%
%TO.N,/Power/MCU_nPWEN_5V*%
X45650000Y-85690000D03*
D16*
%TO.P,J9,1,Pin_1*%
%TO.N,+5V*%
X45650000Y-83150000D03*
%TD*%
D15*
%TO.P,J7,6,Pin_6*%
%TO.N,CAM1_SDA_1V8*%
X124800000Y-55300000D03*
%TO.P,J7,5,Pin_5*%
%TO.N,CAM1_SCL_1V8*%
X124800000Y-52760000D03*
%TO.P,J7,4,Pin_4*%
%TO.N,CAM1_ENABLE*%
X124800000Y-50220000D03*
%TO.P,J7,3,Pin_3*%
%TO.N,CAM1_TRIGGER*%
X124800000Y-47680000D03*
%TO.P,J7,2,Pin_2*%
%TO.N,GND*%
X124800000Y-45140000D03*
D16*
%TO.P,J7,1,Pin_1*%
%TO.N,+3V3*%
X124800000Y-42600000D03*
%TD*%
D15*
%TO.P,J8,10,Pin_10*%
%TO.N,GND*%
X37440000Y-93410000D03*
%TO.P,J8,9,Pin_9*%
%TO.N,+1V8*%
X34900000Y-93410000D03*
%TO.P,J8,8,Pin_8*%
%TO.N,/MCU/SWDCLK/MCU_GPIO5/FC6*%
X37440000Y-90870000D03*
%TO.P,J8,7,Pin_7*%
%TO.N,/MCU/SWDIO/MCU_GPIO6/FC6*%
X34900000Y-90870000D03*
%TO.P,J8,6,Pin_6*%
%TO.N,/MCU/MCU_GPIO3/FC6*%
X37440000Y-88330000D03*
%TO.P,J8,5,Pin_5*%
%TO.N,/MCU/MCU_GPIO4/FC6*%
X34900000Y-88330000D03*
%TO.P,J8,4,Pin_4*%
%TO.N,/MCU/MCU_GPIO1*%
X37440000Y-85790000D03*
%TO.P,J8,3,Pin_3*%
%TO.N,/MCU/MCU_GPIO2*%
X34900000Y-85790000D03*
%TO.P,J8,2,Pin_2*%
%TO.N,/MCU/MCU_GPIO0*%
X37440000Y-83250000D03*
D16*
%TO.P,J8,1,Pin_1*%
%TO.N,+3V3*%
X34900000Y-83250000D03*
%TD*%
D15*
%TO.P,J5,4,Pin_4*%
%TO.N,GND*%
X124640000Y-83340000D03*
%TO.P,J5,3,Pin_3*%
%TO.N,/MCU/ISP_USART_RXD*%
X122100000Y-83340000D03*
%TO.P,J5,2,Pin_2*%
%TO.N,+1V8*%
X124640000Y-80800000D03*
D16*
%TO.P,J5,1,Pin_1*%
%TO.N,/MCU/ISP_USART_TXD*%
X122100000Y-80800000D03*
%TD*%
D14*
%TO.P,CAM4,16,PAD*%
%TO.N,GND*%
X94460001Y-73767498D03*
D13*
%TO.P,CAM4,1,GND*%
X93460001Y-71667498D03*
D14*
%TO.P,CAM4,16,PAD*%
X78460001Y-73767498D03*
D13*
%TO.P,CAM4,2,DAT0-*%
%TO.N,CAM4_DAT0-*%
X92460001Y-71667498D03*
%TO.P,CAM4,3,DAT0+*%
%TO.N,CAM4_DAT0+*%
X91460001Y-71667498D03*
%TO.P,CAM4,4,GND*%
%TO.N,GND*%
X90460001Y-71667498D03*
%TO.P,CAM4,5,DAT1-*%
%TO.N,CAM4_DAT1-*%
X89460001Y-71667498D03*
%TO.P,CAM4,6,DAT1+*%
%TO.N,CAM4_DAT1+*%
X88460001Y-71667498D03*
%TO.P,CAM4,7,GND*%
%TO.N,GND*%
X87460001Y-71667498D03*
%TO.P,CAM4,8,CLK-*%
%TO.N,CAM4_CLK-*%
X86460001Y-71667498D03*
%TO.P,CAM4,9,CLK+*%
%TO.N,CAM4_CLK+*%
X85460001Y-71667498D03*
%TO.P,CAM4,10,GND*%
%TO.N,GND*%
X84460001Y-71667498D03*
%TO.P,CAM4,11,ENABLE*%
%TO.N,CAM4_ENABLE*%
X83460001Y-71667498D03*
%TO.P,CAM4,12,GPIO/NC*%
%TO.N,CAM4_TRIGGER*%
X82460001Y-71667498D03*
%TO.P,CAM4,13,SCL*%
%TO.N,CAM4_SCL_1V8*%
X81460001Y-71667498D03*
%TO.P,CAM4,14,SDA*%
%TO.N,CAM4_SDA_1V8*%
X80460001Y-71667498D03*
%TO.P,CAM4,15,3V3*%
%TO.N,+3V3*%
X79460001Y-71667498D03*
%TD*%
D19*
%TO.P,SW2,1,1*%
%TO.N,/MCU/MCU_GPIO_BUTTON*%
X120100000Y-86750000D03*
%TO.P,SW2,2,2*%
%TO.N,GND*%
X124600000Y-86750000D03*
%TO.P,SW2,1,1*%
%TO.N,/MCU/MCU_GPIO_BUTTON*%
X120100000Y-93250000D03*
%TO.P,SW2,2,2*%
%TO.N,GND*%
X124600000Y-93250000D03*
%TD*%
D15*
%TO.P,J1,3,Pin_3*%
%TO.N,GND*%
X41750000Y-81030000D03*
%TO.P,J1,2,Pin_2*%
%TO.N,DEBUG_UART_TXD*%
X41750000Y-78490000D03*
D16*
%TO.P,J1,1,Pin_1*%
%TO.N,DEBUG_UART_RXD*%
X41750000Y-75950000D03*
%TD*%
D20*
%TO.P,SW1,6,C*%
%TO.N,GND*%
X33850000Y-79700000D03*
%TO.P,SW1,5,B*%
%TO.N,RST_BUTTON*%
X33850000Y-77700000D03*
%TO.P,SW1,4,A*%
%TO.N,Net-(SW1-Pad4)*%
X33850000Y-75700000D03*
%TO.P,SW1,3,C*%
%TO.N,Net-(SW1-Pad3)*%
X38850000Y-79700000D03*
%TO.P,SW1,2,B*%
%TO.N,/Power/MCU_nPWEN_5V*%
X38850000Y-77700000D03*
%TO.P,SW1,1,A*%
%TO.N,Net-(D6-Pad1)*%
X38850000Y-75700000D03*
%TD*%
D21*
%TO.P,TP5,1,1*%
%TO.N,IMU_INT1*%
X108100000Y-85950000D03*
%TD*%
%TO.P,TP4,1,1*%
%TO.N,/MCU/IMU_MISO*%
X105150000Y-80000000D03*
%TD*%
%TO.P,TP3,1,1*%
%TO.N,/MCU/IMU_MOSI*%
X108350000Y-80000000D03*
%TD*%
%TO.P,TP2,1,1*%
%TO.N,/MCU/IMU_CLK*%
X108700000Y-82100000D03*
%TD*%
%TO.P,TP1,1,1*%
%TO.N,/MCU/IMU_CS*%
X112300000Y-86000000D03*
%TD*%
D15*
%TO.P,J6,3,Pin_3*%
%TO.N,GND*%
X112380000Y-29800000D03*
%TO.P,J6,2,Pin_2*%
%TO.N,USB_SCL*%
X109840000Y-29800000D03*
D16*
%TO.P,J6,1,Pin_1*%
%TO.N,USB_SDA*%
X107300000Y-29800000D03*
%TD*%
D22*
%TO.P,CAM5,16,PAD*%
%TO.N,GND*%
X76560001Y-67567498D03*
D23*
%TO.P,CAM5,1,GND*%
X78660001Y-66567498D03*
D22*
%TO.P,CAM5,16,PAD*%
X76560001Y-51567498D03*
D23*
%TO.P,CAM5,2,DAT0-*%
%TO.N,CAM5_DAT0-*%
X78660001Y-65567498D03*
%TO.P,CAM5,3,DAT0+*%
%TO.N,CAM5_DAT0+*%
X78660001Y-64567498D03*
%TO.P,CAM5,4,GND*%
%TO.N,GND*%
X78660001Y-63567498D03*
%TO.P,CAM5,5,DAT1-*%
%TO.N,CAM5_DAT1-*%
X78660001Y-62567498D03*
%TO.P,CAM5,6,DAT1+*%
%TO.N,CAM5_DAT1+*%
X78660001Y-61567498D03*
%TO.P,CAM5,7,GND*%
%TO.N,GND*%
X78660001Y-60567498D03*
%TO.P,CAM5,8,CLK-*%
%TO.N,CAM5_CLK-*%
X78660001Y-59567498D03*
%TO.P,CAM5,9,CLK+*%
%TO.N,CAM5_CLK+*%
X78660001Y-58567498D03*
%TO.P,CAM5,10,GND*%
%TO.N,GND*%
X78660001Y-57567498D03*
%TO.P,CAM5,11,ENABLE*%
%TO.N,CAM5_ENABLE*%
X78660001Y-56567498D03*
%TO.P,CAM5,12,GPIO/NC*%
%TO.N,CAM5_TRIGGER*%
X78660001Y-55567498D03*
%TO.P,CAM5,13,SCL*%
%TO.N,CAM5_SCL_1V8*%
X78660001Y-54567498D03*
%TO.P,CAM5,14,SDA*%
%TO.N,CAM5_SDA_1V8*%
X78660001Y-53567498D03*
%TO.P,CAM5,15,3V3*%
%TO.N,+3V3*%
X78660001Y-52567498D03*
%TD*%
D24*
%TO.P,U18,1,VBUSA*%
%TO.N,/USB/VBUS_USER0*%
X49260001Y-45607498D03*
%TO.P,U18,2,D-A*%
%TO.N,/USB/USB2_USER0_D_N*%
X46760001Y-45607498D03*
%TO.P,U18,3,D+A*%
%TO.N,/USB/USB2_USER0_D_P*%
X44760001Y-45607498D03*
%TO.P,U18,4,GNDA*%
%TO.N,GND*%
X42260001Y-45607498D03*
%TO.P,U18,5,VBUSB*%
%TO.N,/USB/VBUS_USER1*%
X49260001Y-42987498D03*
%TO.P,U18,6,D-B*%
%TO.N,/USB/USB2_USER1_D_P*%
X46760001Y-42987498D03*
%TO.P,U18,7,D+B*%
%TO.N,/USB/USB2_USER1_D_N*%
X44760001Y-42987498D03*
%TO.P,U18,8,GNDB*%
%TO.N,GND*%
X42260001Y-42987498D03*
D25*
%TO.P,U18,9,Shield*%
X52330001Y-45957498D03*
X39190001Y-45957498D03*
X39190001Y-40277498D03*
X52330001Y-40277498D03*
%TD*%
D26*
%TO.P,J4,2,Pin_2*%
%TO.N,GND*%
X119000000Y-38900000D03*
%TO.P,J4,1,Pin_1*%
%TO.N,/Power/AUX_PWR*%
%TA.AperFunction,ComponentPad*%
G36*
G01*
X117100000Y-40000000D02*
X115900000Y-40000000D01*
G75*
G02*
X115650000Y-39750000I0J250000D01*
G01*
X115650000Y-38050000D01*
G75*
G02*
X115900000Y-37800000I250000J0D01*
G01*
X117100000Y-37800000D01*
G75*
G02*
X117350000Y-38050000I0J-250000D01*
G01*
X117350000Y-39750000D01*
G75*
G02*
X117100000Y-40000000I-250000J0D01*
G01*
G37*
%TD.AperFunction*%
%TD*%
D27*
%TO.P,U21,11,GRNYEL_C*%
%TO.N,Net-(R32-Pad1)*%
X56235001Y-37327498D03*
%TO.P,U21,12,GRNYEL_A*%
%TO.N,+3V3*%
X56235001Y-35297498D03*
%TO.P,U21,14,GRN_C*%
%TO.N,Net-(R33-Pad1)*%
X69685001Y-35297498D03*
%TO.P,U21,13,GRN_A*%
%TO.N,+3V3*%
X69685001Y-37327498D03*
D28*
%TO.P,U21,SHLD,SHLD*%
%TO.N,GND*%
X55085001Y-42917498D03*
X70835001Y-42917498D03*
D29*
%TO.P,U21,MNT,MNT*%
X57245001Y-39867498D03*
X68675001Y-39867498D03*
D30*
%TO.P,U21,1,TRD0+*%
%TO.N,GBE_MDI0_P*%
X57245001Y-46217498D03*
%TO.P,U21,2,TRD0-*%
%TO.N,GBE_MDI0_N*%
X58515001Y-48757498D03*
%TO.P,U21,3,TRD1+*%
%TO.N,GBE_MDI1_P*%
X59785001Y-46217498D03*
%TO.P,U21,4,TRD1-*%
%TO.N,GBE_MDI1_N*%
X61055001Y-48757498D03*
%TO.P,U21,5,CT*%
%TO.N,Net-(C65-Pad1)*%
X62325001Y-46217498D03*
%TO.P,U21,6,CT*%
X63595001Y-48757498D03*
%TO.P,U21,7,TRD2+*%
%TO.N,GBE_MDI2_P*%
X64865001Y-46217498D03*
%TO.P,U21,8,TRD2-*%
%TO.N,GBE_MDI2_N*%
X66135001Y-48757498D03*
%TO.P,U21,9,TRD3+*%
%TO.N,GBE_MDI3_P*%
X67405001Y-46217498D03*
%TO.P,U21,10,TRD3-*%
%TO.N,GBE_MDI3_N*%
X68675001Y-48757498D03*
%TD*%
D14*
%TO.P,CAM3,16,PAD*%
%TO.N,GND*%
X82760001Y-51667498D03*
D13*
%TO.P,CAM3,1,GND*%
X83760001Y-53767498D03*
D14*
%TO.P,CAM3,16,PAD*%
X98760001Y-51667498D03*
D13*
%TO.P,CAM3,2,DAT0-*%
%TO.N,CAM3_DAT0-*%
X84760001Y-53767498D03*
%TO.P,CAM3,3,DAT0+*%
%TO.N,CAM3_DAT0+*%
X85760001Y-53767498D03*
%TO.P,CAM3,4,GND*%
%TO.N,GND*%
X86760001Y-53767498D03*
%TO.P,CAM3,5,DAT1-*%
%TO.N,CAM3_DAT1-*%
X87760001Y-53767498D03*
%TO.P,CAM3,6,DAT1+*%
%TO.N,CAM3_DAT1+*%
X88760001Y-53767498D03*
%TO.P,CAM3,7,GND*%
%TO.N,GND*%
X89760001Y-53767498D03*
%TO.P,CAM3,8,CLK-*%
%TO.N,CAM3_CLK-*%
X90760001Y-53767498D03*
%TO.P,CAM3,9,CLK+*%
%TO.N,CAM3_CLK+*%
X91760001Y-53767498D03*
%TO.P,CAM3,10,GND*%
%TO.N,GND*%
X92760001Y-53767498D03*
%TO.P,CAM3,11,ENABLE*%
%TO.N,CAM3_ENABLE*%
X93760001Y-53767498D03*
%TO.P,CAM3,12,GPIO/NC*%
%TO.N,CAM3_TRIGGER*%
X94760001Y-53767498D03*
%TO.P,CAM3,13,SCL*%
%TO.N,CAM3_SCL_1V8*%
X95760001Y-53767498D03*
%TO.P,CAM3,14,SDA*%
%TO.N,CAM3_SDA_1V8*%
X96760001Y-53767498D03*
%TO.P,CAM3,15,3V3*%
%TO.N,+3V3*%
X97760001Y-53767498D03*
%TD*%
D14*
%TO.P,CAM2,16,PAD*%
%TO.N,GND*%
X115560001Y-73767498D03*
D13*
%TO.P,CAM2,1,GND*%
X114560001Y-71667498D03*
D14*
%TO.P,CAM2,16,PAD*%
X99560001Y-73767498D03*
D13*
%TO.P,CAM2,2,DAT0-*%
%TO.N,CAM2_DAT0-*%
X113560001Y-71667498D03*
%TO.P,CAM2,3,DAT0+*%
%TO.N,CAM2_DAT0+*%
X112560001Y-71667498D03*
%TO.P,CAM2,4,GND*%
%TO.N,GND*%
X111560001Y-71667498D03*
%TO.P,CAM2,5,DAT1-*%
%TO.N,CAM2_DAT1-*%
X110560001Y-71667498D03*
%TO.P,CAM2,6,DAT1+*%
%TO.N,CAM2_DAT1+*%
X109560001Y-71667498D03*
%TO.P,CAM2,7,GND*%
%TO.N,GND*%
X108560001Y-71667498D03*
%TO.P,CAM2,8,CLK-*%
%TO.N,CAM2_CLK-*%
X107560001Y-71667498D03*
%TO.P,CAM2,9,CLK+*%
%TO.N,CAM2_CLK+*%
X106560001Y-71667498D03*
%TO.P,CAM2,10,GND*%
%TO.N,GND*%
X105560001Y-71667498D03*
%TO.P,CAM2,11,ENABLE*%
%TO.N,CAM2_ENABLE*%
X104560001Y-71667498D03*
%TO.P,CAM2,12,GPIO/NC*%
%TO.N,CAM2_TRIGGER*%
X103560001Y-71667498D03*
%TO.P,CAM2,13,SCL*%
%TO.N,CAM2_SCL_1V8*%
X102560001Y-71667498D03*
%TO.P,CAM2,14,SDA*%
%TO.N,CAM2_SDA_1V8*%
X101560001Y-71667498D03*
%TO.P,CAM2,15,3V3*%
%TO.N,+3V3*%
X100560001Y-71667498D03*
%TD*%
D22*
%TO.P,CAM0,16,PAD*%
%TO.N,GND*%
X122060001Y-59867498D03*
D23*
%TO.P,CAM0,1,GND*%
X119960001Y-60867498D03*
D22*
%TO.P,CAM0,16,PAD*%
X122060001Y-75867498D03*
D23*
%TO.P,CAM0,2,DAT0-*%
%TO.N,CAM0_DAT0-*%
X119960001Y-61867498D03*
%TO.P,CAM0,3,DAT0+*%
%TO.N,CAM0_DAT0+*%
X119960001Y-62867498D03*
%TO.P,CAM0,4,GND*%
%TO.N,GND*%
X119960001Y-63867498D03*
%TO.P,CAM0,5,DAT1-*%
%TO.N,CAM0_DAT1-*%
X119960001Y-64867498D03*
%TO.P,CAM0,6,DAT1+*%
%TO.N,CAM0_DAT1+*%
X119960001Y-65867498D03*
%TO.P,CAM0,7,GND*%
%TO.N,GND*%
X119960001Y-66867498D03*
%TO.P,CAM0,8,CLK-*%
%TO.N,CAM0_CLK-*%
X119960001Y-67867498D03*
%TO.P,CAM0,9,CLK+*%
%TO.N,CAM0_CLK+*%
X119960001Y-68867498D03*
%TO.P,CAM0,10,GND*%
%TO.N,GND*%
X119960001Y-69867498D03*
%TO.P,CAM0,11,ENABLE*%
%TO.N,CAM0_ENABLE*%
X119960001Y-70867498D03*
%TO.P,CAM0,12,GPIO/NC*%
%TO.N,CAM0_TRIGGER*%
X119960001Y-71867498D03*
%TO.P,CAM0,13,SCL*%
%TO.N,CAM0_SCL_1V8*%
X119960001Y-72867498D03*
%TO.P,CAM0,14,SDA*%
%TO.N,CAM0_SDA_1V8*%
X119960001Y-73867498D03*
%TO.P,CAM0,15,3V3*%
%TO.N,+3V3*%
X119960001Y-74867498D03*
%TD*%
D31*
%TO.P,U11,25,PGND*%
%TO.N,GND*%
X69200000Y-83250000D03*
X69200000Y-82500000D03*
X69790000Y-82120000D03*
X69790000Y-82870000D03*
X70350000Y-83250000D03*
X70350000Y-81750000D03*
X70350000Y-82500000D03*
X69200000Y-81750000D03*
X69200000Y-84490000D03*
X69500000Y-85070000D03*
X69200000Y-85650000D03*
%TD*%
%TO.P,U9,25,PGND*%
%TO.N,GND*%
X59500000Y-77200000D03*
X59500000Y-76450000D03*
X60090000Y-76070000D03*
X60090000Y-76820000D03*
X60650000Y-77200000D03*
X60650000Y-75700000D03*
X60650000Y-76450000D03*
X59500000Y-75700000D03*
X59500000Y-78440000D03*
X59800000Y-79020000D03*
X59500000Y-79600000D03*
%TD*%
D15*
%TO.P,J3,2,Pin_2*%
%TO.N,GND*%
X45650000Y-79540000D03*
D16*
%TO.P,J3,1,Pin_1*%
%TO.N,/Power/nFORCE_RECOVERY*%
X45650000Y-77000000D03*
%TD*%
D32*
%TO.P,J2,B1,GND*%
%TO.N,GND*%
X77160001Y-38477498D03*
%TO.P,J2,B12,GND*%
X81160001Y-38477498D03*
%TO.P,J2,B11,RX1+*%
%TO.N,/USB/CONN_RX1+*%
X81560001Y-37777498D03*
%TO.P,J2,B10,RX1-*%
%TO.N,/USB/CONN_RX1-*%
X80760001Y-37777498D03*
%TO.P,J2,B8,SBU2*%
%TO.N,/USB/CONN_SBU2*%
X79960001Y-37777498D03*
%TO.P,J2,B5,CC2*%
%TO.N,/USB/CONN_CC2*%
X78360001Y-37777498D03*
%TO.P,J2,B3,TX2-*%
%TO.N,/USB/CONN_TX2-*%
X77560001Y-37777498D03*
%TO.P,J2,B2,TX2+*%
%TO.N,/USB/CONN_TX2+*%
X76760001Y-37777498D03*
%TO.P,J2,B12,GND*%
%TO.N,GND*%
X81960001Y-38477498D03*
%TO.P,J2,B9,VBUS*%
%TO.N,/USB/CONN_VBUS*%
X80360001Y-38477498D03*
%TO.P,J2,B7,D-*%
%TO.N,/USB/USB0_D_N*%
X79560001Y-38477498D03*
%TO.P,J2,B6,D+*%
%TO.N,/USB/USB0_D_P*%
X78760001Y-38477498D03*
%TO.P,J2,B4,VBUS*%
%TO.N,/USB/CONN_VBUS*%
X77960001Y-38477498D03*
%TO.P,J2,B1,GND*%
%TO.N,GND*%
X76360001Y-38477498D03*
D33*
%TO.P,J2,S1,SHIELD*%
X83430001Y-32597498D03*
X74890001Y-32597498D03*
X74890001Y-37327498D03*
X83430001Y-37327498D03*
%TD*%
D17*
%TO.P,MCU_SWD1,10,~RESET~*%
%TO.N,NX_MCU_nRST*%
X46430000Y-98130000D03*
%TO.P,MCU_SWD1,9,GNDDetect*%
%TO.N,GND*%
X46430000Y-99400000D03*
%TO.P,MCU_SWD1,8,NC/TDI*%
%TO.N,Net-(MCU_SWD1-Pad8)*%
X45160000Y-98130000D03*
%TO.P,MCU_SWD1,7,KEY*%
%TO.N,Net-(MCU_SWD1-Pad7)*%
X45160000Y-99400000D03*
%TO.P,MCU_SWD1,6,SWO/TDO*%
%TO.N,Net-(MCU_SWD1-Pad6)*%
X43890000Y-98130000D03*
%TO.P,MCU_SWD1,5,GND*%
%TO.N,GND*%
X43890000Y-99400000D03*
%TO.P,MCU_SWD1,4,SWDCLK/TCK*%
%TO.N,/MCU/SWDCLK/MCU_GPIO5/FC6*%
X42620000Y-98130000D03*
%TO.P,MCU_SWD1,3,GND*%
%TO.N,GND*%
X42620000Y-99400000D03*
%TO.P,MCU_SWD1,2,SWDIO/TMS*%
%TO.N,/MCU/SWDIO/MCU_GPIO6/FC6*%
X41350000Y-98130000D03*
D18*
%TO.P,MCU_SWD1,1,VTref*%
%TO.N,+1V8*%
X41350000Y-99400000D03*
%TD*%
D34*
%TO.N,CAM4_SDA_1V8*%
X82075000Y-75175000D03*
%TO.N,CAM4_TRIGGER*%
X92150000Y-78850000D03*
%TO.N,CAM4_ENABLE*%
X91050000Y-78750000D03*
%TO.N,+1V8*%
X87250000Y-75250000D03*
%TO.N,GND*%
X88200000Y-75250000D03*
%TO.N,+3V3*%
X42700000Y-58700000D03*
%TO.N,GND*%
X46300000Y-59250000D03*
X46250000Y-57550000D03*
D35*
X43650000Y-66200000D03*
%TO.N,+5V*%
X93450000Y-45500000D03*
X49400000Y-70850000D03*
X51300000Y-70850000D03*
%TO.N,+1V8*%
X76950000Y-87750000D03*
X76000000Y-87100000D03*
D34*
%TO.N,CAM0_CLK+*%
X116516513Y-66683487D03*
%TO.N,CAM0_CLK-*%
X116983487Y-66216513D03*
%TO.N,CAM0_DAT0-*%
X115930200Y-62850000D03*
%TO.N,CAM0_DAT0+*%
X115269800Y-62850000D03*
%TO.N,CAM0_DAT1+*%
X112269800Y-62200000D03*
%TO.N,CAM0_DAT1-*%
X112930200Y-62200000D03*
%TO.N,GND*%
X110600000Y-50700000D03*
X107400000Y-50750000D03*
X107850000Y-55300000D03*
X110850000Y-55350000D03*
X114700000Y-50950000D03*
X116900000Y-50850000D03*
%TO.N,CAM1_DAT1+*%
X109389241Y-57587114D03*
%TO.N,CAM1_DAT1-*%
X108922267Y-58054088D03*
%TO.N,CAM1_CLK+*%
X112700000Y-57969800D03*
%TO.N,CAM1_CLK-*%
X112700000Y-58630200D03*
%TO.N,CAM1_DAT0+*%
X115519800Y-50750000D03*
%TO.N,CAM1_DAT0-*%
X116180200Y-50750000D03*
%TO.N,GND*%
X98650000Y-73000000D03*
%TO.N,CAM3_CLK+*%
X109066513Y-49233487D03*
%TO.N,CAM3_CLK-*%
X109533487Y-48766513D03*
%TO.N,CAM3_DAT1+*%
X91900000Y-48530200D03*
%TO.N,CAM3_DAT1-*%
X91900000Y-47869800D03*
%TO.N,CAM4_DAT1+*%
X95800000Y-66019800D03*
%TO.N,CAM4_DAT1-*%
X95800000Y-66680200D03*
%TO.N,MCU_USB1_D_P*%
X87519800Y-58850000D03*
%TO.N,MCU_USB1_D_N*%
X88180200Y-58850000D03*
%TO.N,CAM5_CLK-*%
X95400000Y-64230200D03*
%TO.N,CAM5_CLK+*%
X95400000Y-63569800D03*
%TO.N,CAM5_DAT1+*%
X83700000Y-62469800D03*
%TO.N,CAM5_DAT1-*%
X83700000Y-63130200D03*
%TO.N,GND*%
X88750000Y-41800000D03*
D35*
%TO.N,/USB/CONN_VBUS*%
X87350000Y-39050000D03*
X87350000Y-37850000D03*
X87400000Y-36600000D03*
D34*
%TO.N,/USB/CONN_CC2*%
X87200000Y-40300000D03*
%TO.N,/USB/ABSIDE*%
X88650000Y-40550000D03*
D35*
%TO.N,/Power/VAUX*%
X102300000Y-43400000D03*
D34*
%TO.N,GND*%
X98200000Y-43700000D03*
%TO.N,+1V8*%
X83350000Y-77500000D03*
X100750000Y-77050000D03*
X98800000Y-75350000D03*
X104500000Y-75800000D03*
%TO.N,CAM2_SDA_1V8*%
X101550000Y-73900000D03*
%TO.N,CAM2_SCL_1V8*%
X101750000Y-74850000D03*
%TO.N,GND*%
X93700000Y-75950000D03*
%TO.N,+1V8*%
X95550000Y-75300000D03*
X105900000Y-77400000D03*
X113100000Y-80450000D03*
%TO.N,/MCU/IMU_MISO*%
X104100000Y-77450000D03*
%TO.N,+1V8*%
X80050000Y-83550000D03*
X116700000Y-87050000D03*
D35*
%TO.N,+3V3*%
X77900000Y-70250000D03*
%TO.N,+1V8*%
X102700000Y-92800000D03*
X101200000Y-92800000D03*
%TO.N,GND*%
X101800000Y-96550000D03*
D34*
%TO.N,/MCU/MCU_GPIO4/FC6*%
X49500000Y-94150000D03*
D35*
%TO.N,+1V8*%
X78550000Y-93750000D03*
D34*
%TO.N,/MCU/MCU_GPIO3/FC6*%
X50650000Y-94800000D03*
%TO.N,/MCU/MCU_GPIO2*%
X51550000Y-94850000D03*
%TO.N,/MCU/MCU_GPIO1*%
X52300000Y-94850000D03*
%TO.N,/MCU/SWDIO/MCU_GPIO6/FC6*%
X42700000Y-96650000D03*
%TO.N,+5V*%
X47850000Y-84300000D03*
%TO.N,GND*%
X57450000Y-91250000D03*
%TO.N,/Interfaces/FAN_PWM_5V*%
X55650000Y-88800000D03*
%TO.N,GND*%
X57550000Y-84550000D03*
%TO.N,+5V*%
X59800000Y-85700000D03*
%TO.N,/Interfaces/FAN_TACH_5V*%
X59900000Y-87900000D03*
%TO.N,/Interfaces/FAN_PWM*%
X57600000Y-87850000D03*
%TO.N,/Interfaces/FAN_TACH*%
X63300000Y-90000000D03*
%TO.N,+1V8*%
X59050000Y-91200000D03*
%TO.N,/Interfaces/FAN_PWM*%
X56650000Y-70650000D03*
%TO.N,/Power/nFORCE_RECOVERY*%
X61350000Y-66750000D03*
%TO.N,/Interfaces/FAN_TACH*%
X59050000Y-57200000D03*
%TO.N,FRAME_TRIGGER*%
X62213637Y-62027271D03*
%TO.N,NX_MCU_GPIO*%
X61900000Y-62550000D03*
%TO.N,NX_MCU_nRST*%
X61300000Y-63050000D03*
%TO.N,/Power/nFORCE_RECOVERY*%
X61350000Y-62050000D03*
%TO.N,/MCU/MCU_GPIO0*%
X48100000Y-89750000D03*
%TO.N,/MCU/MCU_GPIO1*%
X47450000Y-88800000D03*
%TO.N,GND*%
X84600000Y-93300000D03*
%TO.N,+1V8*%
X83700000Y-91550000D03*
%TO.N,GND*%
X72900000Y-91200000D03*
D35*
X121700000Y-65900000D03*
X122850000Y-68450000D03*
D34*
%TO.N,CAM0_ENABLE*%
X123850000Y-70600000D03*
%TO.N,CAM0_TRIGGER*%
X122500000Y-71850000D03*
%TO.N,CAM0_SCL_1V8*%
X121750000Y-72550000D03*
%TO.N,CAM0_SDA_1V8*%
X121750000Y-73400000D03*
D35*
%TO.N,+5V*%
X51300000Y-69350000D03*
X53100000Y-69350000D03*
X49400000Y-69350000D03*
D34*
%TO.N,/MCU/MCU_GPIO0*%
X94350000Y-91700000D03*
X54400000Y-94850000D03*
%TO.N,+3V3*%
X94000000Y-95500000D03*
%TO.N,GND*%
X93150000Y-95850000D03*
%TO.N,/USB/CONN_TX2+*%
X73030200Y-37150000D03*
%TO.N,/USB/CONN_TX2-*%
X72369800Y-37150000D03*
%TO.N,/Power/NX_nSHUTDOWN_REQ*%
X64000000Y-89100000D03*
D35*
%TO.N,GND*%
X67250000Y-76000000D03*
D34*
X38750000Y-50100000D03*
%TO.N,VBUS*%
X97455283Y-38955283D03*
%TO.N,/USB/CONN_CC1*%
X97300000Y-38000000D03*
D35*
%TO.N,/Power/VAUX*%
X116000000Y-43600000D03*
X114900000Y-43600000D03*
X116000000Y-42600000D03*
X117100000Y-43600000D03*
X114900000Y-42600000D03*
X114900000Y-41600000D03*
%TO.N,+5V*%
X51400000Y-48300000D03*
X50200000Y-48300000D03*
D34*
X48400000Y-80800000D03*
%TO.N,GND*%
X51700000Y-82800000D03*
X51600000Y-88600000D03*
%TO.N,/Power/BATT*%
X57550000Y-66150000D03*
X55700000Y-56700000D03*
%TO.N,/Power/POWER_EN*%
X55300000Y-55800000D03*
%TO.N,Net-(R32-Pad1)*%
X57200000Y-62800000D03*
%TO.N,/Power/NX_nSHUTDOWN_REQ*%
X56500000Y-57100000D03*
%TO.N,nSYS_RESET*%
X55400000Y-57600000D03*
%TO.N,/MCU/MCU_GPIO1*%
X95000000Y-91550000D03*
%TO.N,/MCU/MCU_GPIO2*%
X95598693Y-91400217D03*
%TO.N,/MCU/MCU_GPIO3/FC6*%
X96200000Y-91300000D03*
%TO.N,+1V8*%
X83700000Y-88650000D03*
%TO.N,MCU_nPWEN*%
X80815103Y-90884897D03*
%TO.N,/MCU/MCU_GPIO4/FC6*%
X84650000Y-89312598D03*
%TO.N,GND*%
X71950000Y-51000000D03*
X74000000Y-53850000D03*
X117000000Y-60550000D03*
X114850000Y-59200000D03*
X113350000Y-59300000D03*
X111850000Y-59300000D03*
X110400000Y-59250000D03*
X108900000Y-59250000D03*
X107350000Y-59250000D03*
D35*
X105850000Y-58900000D03*
X104300000Y-59000000D03*
X102850000Y-59000000D03*
X101350000Y-58950000D03*
X99850000Y-58950000D03*
X98400000Y-58950000D03*
X96850000Y-59000000D03*
X95250000Y-58950000D03*
X91350000Y-58950000D03*
X83850000Y-58900000D03*
X82400000Y-59050000D03*
D34*
X81450000Y-59100000D03*
X77150000Y-59050000D03*
X75600000Y-59050000D03*
D35*
X73700000Y-62200000D03*
X72250000Y-62250000D03*
X70850000Y-62200000D03*
D34*
X65050000Y-62100000D03*
%TO.N,GBE_MDI3_P*%
X63769800Y-59000000D03*
%TO.N,GBE_MDI3_N*%
X64430200Y-59000000D03*
%TO.N,/USB/USBSS_TX_P*%
X73430200Y-56600000D03*
%TO.N,/USB/USBSS_TX_N*%
X72769800Y-56600000D03*
%TO.N,CAM2_DAT1+*%
X107769800Y-62300000D03*
%TO.N,CAM2_DAT1-*%
X108430200Y-62300000D03*
%TO.N,CAM2_DAT0+*%
X110769800Y-66215860D03*
%TO.N,CAM2_DAT0-*%
X111430200Y-66215860D03*
%TO.N,+1V8*%
X116200000Y-81200000D03*
%TO.N,/MCU/ISP_USART_TXD*%
X115850000Y-78750000D03*
%TO.N,/MCU/ISP_USART_RXD*%
X114200000Y-78800000D03*
%TO.N,+3V3*%
X88800000Y-73400000D03*
%TO.N,+1V8*%
X91500000Y-75400000D03*
%TO.N,+5V*%
X54800000Y-85400000D03*
%TO.N,GND*%
X53850000Y-85400000D03*
X52850000Y-91350000D03*
%TO.N,+5V*%
X52150000Y-80550000D03*
X48100000Y-79200000D03*
%TO.N,GND*%
X50900000Y-76850000D03*
X52150000Y-75900000D03*
%TO.N,/Power/POWER_EN*%
X49750000Y-76250000D03*
D35*
%TO.N,GND*%
X65500000Y-76737500D03*
X65500000Y-77687500D03*
X65500000Y-75737500D03*
X63200000Y-75687500D03*
X64350000Y-75687500D03*
D34*
X68900000Y-79400000D03*
D35*
%TO.N,+1V8*%
X76000000Y-85600000D03*
X76900000Y-86300000D03*
X76900000Y-84850000D03*
%TO.N,GND*%
X65300000Y-88250000D03*
X68050000Y-88200000D03*
X66700000Y-88200000D03*
X69350000Y-88200000D03*
%TO.N,+3V3*%
X62850000Y-84600000D03*
X61300000Y-84600000D03*
X61300000Y-83300000D03*
X62850000Y-83300000D03*
X62850000Y-81900000D03*
X61300000Y-81900000D03*
%TO.N,+5V*%
X54700000Y-76850000D03*
%TO.N,GND*%
X75150000Y-83737500D03*
X75150000Y-82787500D03*
X75150000Y-81787500D03*
X74000000Y-81737500D03*
X72850000Y-81737500D03*
X59650000Y-82050000D03*
X58350000Y-82050000D03*
X57000000Y-82050000D03*
X55600000Y-82100000D03*
%TO.N,+5V*%
X54650000Y-77800000D03*
X55750000Y-76850000D03*
X56800000Y-76850000D03*
X54650000Y-78800000D03*
D34*
%TO.N,+3V3*%
X71900000Y-80737500D03*
%TO.N,GND*%
X60250000Y-73500000D03*
%TO.N,+5V*%
X57550000Y-73550000D03*
%TO.N,nSYS_RESET*%
X60900000Y-69900000D03*
%TO.N,GND*%
X78050000Y-88900000D03*
X72100000Y-88900000D03*
%TO.N,+5V*%
X72150000Y-89900000D03*
%TO.N,+1V8*%
X78050000Y-89750000D03*
%TO.N,+5V*%
X80150000Y-94100000D03*
%TO.N,GND*%
X82850000Y-94000000D03*
%TO.N,/MCU/IMU_MOSI*%
X107900001Y-81042498D03*
%TO.N,IMU_INT1*%
X107950000Y-83347398D03*
%TO.N,Net-(R14-Pad2)*%
X83100000Y-92200000D03*
%TO.N,GND*%
X35100000Y-62500000D03*
%TO.N,+5V*%
X35100000Y-63500000D03*
D35*
%TO.N,+3V3*%
X121800000Y-74500000D03*
%TO.N,GND*%
X121900000Y-60900000D03*
X120500000Y-76900000D03*
D34*
%TO.N,/USB/CONN_CC1*%
X79900000Y-41000000D03*
%TO.N,/USB/USB0_D_N*%
X78891921Y-40743539D03*
%TO.N,/USB/USB0_D_P*%
X78900000Y-41400000D03*
%TO.N,CAM4_DAT0-*%
X93150000Y-69680200D03*
%TO.N,CAM4_DAT0+*%
X93150000Y-69019800D03*
%TO.N,+3V3*%
X102800000Y-29200000D03*
%TO.N,USB_SCL*%
X105000000Y-30600000D03*
%TO.N,USB_SDA*%
X104300000Y-30500000D03*
D35*
%TO.N,+5V*%
X53100000Y-66400000D03*
X53100000Y-67900000D03*
X49400000Y-66400000D03*
X51300000Y-66400000D03*
X51300000Y-67900000D03*
X49400000Y-67900000D03*
D34*
%TO.N,Net-(R33-Pad1)*%
X57900000Y-64500000D03*
%TO.N,NX_MCU_BOOT*%
X61950000Y-63650000D03*
%TO.N,NX_MCU_nRST*%
X89900000Y-91000000D03*
%TO.N,IMU_INT1*%
X64200000Y-62300000D03*
%TO.N,/MCU/SWDCLK/MCU_GPIO5/FC6*%
X87500000Y-85400000D03*
%TO.N,/MCU/SWDIO/MCU_GPIO6/FC6*%
X87500000Y-84700000D03*
%TO.N,MCU_nPWEN*%
X89300000Y-91600000D03*
%TO.N,CAM5_SCL_1V8*%
X80900000Y-82400000D03*
X80900000Y-78900000D03*
%TO.N,FRAME_TRIGGER*%
X80300000Y-79500000D03*
%TO.N,NX_MCU_GPIO*%
X78700000Y-79100000D03*
%TO.N,NX_MCU_BOOT*%
X78300000Y-80000000D03*
D35*
%TO.N,GND*%
X54100000Y-64700000D03*
X52900000Y-64700000D03*
X53000000Y-48400000D03*
X54100000Y-48400000D03*
D34*
%TO.N,Net-(R14-Pad2)*%
X93500000Y-91700000D03*
D35*
%TO.N,/USB/CONN_VBUS*%
X87400000Y-35400000D03*
D34*
%TO.N,GND*%
X91300000Y-91500000D03*
%TO.N,+1V8*%
X83600000Y-93200000D03*
%TO.N,IMU_INT1*%
X91900000Y-82000000D03*
D35*
%TO.N,+5V*%
X94400000Y-45500000D03*
X92500000Y-45500000D03*
X94400000Y-44600000D03*
%TO.N,/Power/VAUX*%
X103700000Y-43400000D03*
X103000000Y-42700000D03*
D34*
%TO.N,GND*%
X91100000Y-32000000D03*
D35*
X91400000Y-29265000D03*
D34*
X86800000Y-29500000D03*
%TO.N,VBUS*%
X103000000Y-30000000D03*
%TO.N,/USB/ABSIDE*%
X96500000Y-28900000D03*
%TO.N,+3V3*%
X97000000Y-29600000D03*
%TO.N,/USB/GATES*%
X101800000Y-29600000D03*
%TO.N,GND*%
X87300000Y-88000000D03*
%TO.N,+1V8*%
X83800000Y-85132600D03*
%TO.N,/MCU/IMU_CS*%
X112000000Y-80800000D03*
X91700000Y-90500000D03*
D35*
%TO.N,GND*%
X84500000Y-69800000D03*
D34*
X105200000Y-84600000D03*
%TO.N,+1V8*%
X103404383Y-84312598D03*
%TO.N,CAM0_TRIGGER*%
X107050000Y-84950000D03*
%TO.N,CAM0_ENABLE*%
X106350000Y-84650000D03*
%TO.N,CAM2_ENABLE*%
X100300000Y-80200000D03*
%TO.N,CAM2_TRIGGER*%
X99700000Y-85000000D03*
%TO.N,CAM4_SCL_1V8*%
X93750000Y-80550000D03*
%TO.N,CAM4_SDA_1V8*%
X92100000Y-81250000D03*
%TO.N,MCU_USB1_D_N*%
X97480200Y-86950000D03*
%TO.N,MCU_USB1_D_P*%
X96819800Y-86950000D03*
%TO.N,/MCU/IMU_CLK*%
X108700000Y-84050000D03*
X109600000Y-80450000D03*
%TO.N,CAM0_SDA_1V8*%
X117050000Y-80100000D03*
%TO.N,CAM0_SCL_1V8*%
X117050000Y-79300000D03*
%TO.N,/USB/USB2_D_N*%
X61350000Y-58930200D03*
%TO.N,/USB/USB2_D_P*%
X61350000Y-58269800D03*
D35*
%TO.N,GND*%
X54000000Y-37400000D03*
X98100000Y-91700000D03*
D34*
X105300000Y-82450000D03*
%TO.N,+1V8*%
X102750000Y-82350000D03*
%TO.N,GND*%
X95100000Y-86550000D03*
X93800000Y-86550000D03*
X92500000Y-86550000D03*
X95100000Y-85700000D03*
X93800000Y-85700000D03*
X92500000Y-85700000D03*
X95100000Y-84900000D03*
X93800000Y-84900000D03*
X92500000Y-84900000D03*
X95100000Y-84100000D03*
X93800000Y-84100000D03*
X92500000Y-84100000D03*
%TO.N,+1V8*%
X96850000Y-91750000D03*
D35*
%TO.N,GND*%
X100350000Y-96400000D03*
D34*
X95900000Y-96400000D03*
%TO.N,CAM4_CLK+*%
X86366513Y-69016513D03*
%TO.N,CAM4_CLK-*%
X86833487Y-69483487D03*
%TO.N,CAM3_SDA_1V8*%
X83200000Y-57700000D03*
%TO.N,CAM3_SCL_1V8*%
X82300000Y-57100000D03*
%TO.N,CAM3_TRIGGER*%
X81800000Y-56550000D03*
%TO.N,CAM3_ENABLE*%
X81360001Y-56067498D03*
%TO.N,GND*%
X35700000Y-61000000D03*
D35*
X39100000Y-57800000D03*
X36300000Y-68200000D03*
D34*
X36200000Y-49300000D03*
%TO.N,/USB/HUB_nOVR1*%
X47200000Y-55000000D03*
X41100000Y-63600000D03*
%TO.N,/USB/HUB_nOVR0*%
X47200000Y-54300000D03*
X41300000Y-62400000D03*
%TO.N,GND*%
X109367498Y-37539999D03*
X109367498Y-41439999D03*
X109367498Y-40439999D03*
X110267498Y-40439999D03*
X108467498Y-40439999D03*
X109367498Y-39439999D03*
X110267498Y-39439999D03*
X108467498Y-39439999D03*
X108467498Y-38539999D03*
X109367498Y-38539999D03*
X110267498Y-38539999D03*
X97500000Y-35900000D03*
%TO.N,Net-(C1-Pad1)*%
X93600000Y-29900000D03*
X86600000Y-30400000D03*
%TO.N,GND*%
X71800000Y-49300000D03*
X76700000Y-46000000D03*
%TO.N,+3V3*%
X79100000Y-48500000D03*
%TO.N,GND*%
X77300000Y-48000000D03*
X94800000Y-34000000D03*
X95600000Y-31500000D03*
%TO.N,+3V3*%
X96800000Y-33200000D03*
%TO.N,GND*%
X100800000Y-33900000D03*
X99700000Y-33900000D03*
X98700000Y-33900000D03*
X100800000Y-32800000D03*
X99700000Y-32800000D03*
X98700000Y-32800000D03*
X98700000Y-31800000D03*
X99700000Y-31800000D03*
X100800000Y-31800000D03*
X93415000Y-41115000D03*
X93400000Y-44100000D03*
X96300000Y-40900000D03*
X99600000Y-44300000D03*
X101700000Y-39000000D03*
X98300000Y-38900000D03*
X102500000Y-37100000D03*
%TO.N,/USB/GATES*%
X94500000Y-36100000D03*
D35*
%TO.N,GND*%
X36700000Y-70200000D03*
D34*
%TO.N,/USB/CONN_CC2*%
X100300000Y-35700000D03*
%TO.N,USB_SCL*%
X102900000Y-34700000D03*
%TO.N,USB_SDA*%
X103000000Y-33900000D03*
%TO.N,+3V3*%
X46600000Y-61200000D03*
%TO.N,/USB/HUB_nPWR*%
X46900000Y-53400000D03*
%TO.N,GND*%
X44600000Y-54400000D03*
X44600000Y-52600000D03*
X44600000Y-53500000D03*
X44600000Y-55300000D03*
X43800000Y-54400000D03*
X43800000Y-52600000D03*
X43800000Y-53500000D03*
X43800000Y-55300000D03*
X42900000Y-54400000D03*
X42900000Y-52600000D03*
X42900000Y-53500000D03*
X42900000Y-55300000D03*
X42100000Y-53500000D03*
X42100000Y-54400000D03*
X42100000Y-55300000D03*
X42100000Y-52600000D03*
%TO.N,+3V3*%
X39700000Y-55200000D03*
X39700000Y-52984898D03*
%TO.N,GND*%
X42000000Y-48000000D03*
%TO.N,+3V3*%
X42000000Y-49100000D03*
%TO.N,GND*%
X47500000Y-52000000D03*
%TO.N,+3V3*%
X46800000Y-51900000D03*
X45600000Y-56800000D03*
%TO.N,/USB/HUB_nPWR*%
X42200000Y-59700000D03*
%TO.N,GND*%
X44300000Y-47800000D03*
X36500000Y-45000000D03*
%TO.N,CAM2_CLK-*%
X107390201Y-69067498D03*
%TO.N,GND*%
X112400000Y-50800000D03*
%TO.N,CAM3_DAT0+*%
X111019800Y-48900000D03*
%TO.N,CAM3_DAT0-*%
X111680200Y-48900000D03*
%TO.N,/MCU/IMU_MISO*%
X105400000Y-81700000D03*
%TO.N,GND*%
X114700000Y-85200000D03*
%TO.N,+1V8*%
X114700000Y-82600000D03*
%TO.N,GND*%
X111800000Y-84500000D03*
%TO.N,+1V8*%
X110700000Y-85600000D03*
%TO.N,GND*%
X109700000Y-85600000D03*
%TO.N,/USB/USB2_D_P*%
X70866513Y-55666513D03*
%TO.N,/USB/USB2_D_N*%
X71333487Y-56133487D03*
%TO.N,GND*%
X83700000Y-51000000D03*
X78000000Y-50800000D03*
D35*
%TO.N,+3V3*%
X98000000Y-55600000D03*
D34*
%TO.N,GND*%
X56700000Y-50900000D03*
X61000000Y-50800000D03*
X64100000Y-50800000D03*
X70600000Y-51000000D03*
X75100000Y-53800000D03*
D35*
%TO.N,+3V3*%
X79200000Y-50700000D03*
D34*
%TO.N,GND*%
X76600000Y-50800000D03*
X81600000Y-51100000D03*
X84300000Y-50700000D03*
X86700000Y-55300000D03*
X92300000Y-55400000D03*
X89700000Y-55400000D03*
X88600000Y-55400000D03*
X87200000Y-50900000D03*
D35*
X90200000Y-50400000D03*
X95700000Y-50700000D03*
X97200000Y-50700000D03*
X99200000Y-54400000D03*
X100100000Y-50700000D03*
X101600000Y-50600000D03*
X102800000Y-50500000D03*
X103800000Y-54700000D03*
D34*
X104700000Y-50900000D03*
X106100000Y-51000000D03*
X109100000Y-50600000D03*
X77200000Y-57600000D03*
D35*
X81400000Y-63600000D03*
X81200000Y-66600000D03*
X77500000Y-72200000D03*
X87500000Y-73500000D03*
X90400000Y-73300000D03*
X94400000Y-70900000D03*
%TO.N,+3V3*%
X99700000Y-70800000D03*
%TO.N,GND*%
X105500000Y-73600000D03*
X108600000Y-73600000D03*
X111500000Y-73600000D03*
X115600000Y-70800000D03*
X121500000Y-63800000D03*
%TO.N,+3V3*%
X119300000Y-55400000D03*
%TO.N,GND*%
X120200000Y-48800000D03*
D34*
%TO.N,CAM1_SDA_1V8*%
X118260001Y-51967498D03*
%TO.N,CAM1_SCL_1V8*%
X117460001Y-51267498D03*
%TO.N,CAM1_TRIGGER*%
X117860001Y-58767498D03*
%TO.N,CAM1_ENABLE*%
X117760001Y-59467498D03*
%TO.N,CAM5_SCL_1V8*%
X75160001Y-63967498D03*
%TO.N,CAM5_SDA_1V8*%
X74460001Y-63467498D03*
%TO.N,CAM5_ENABLE*%
X76760001Y-62467498D03*
%TO.N,CAM5_TRIGGER*%
X76160001Y-63667498D03*
%TO.N,CAM5_DAT0-*%
X83360001Y-65397698D03*
%TO.N,CAM5_DAT0+*%
X83360001Y-64737298D03*
%TO.N,GND*%
X82360001Y-87867498D03*
X82360001Y-86867498D03*
X82360001Y-85867498D03*
%TO.N,+1V8*%
X103960001Y-79267498D03*
%TO.N,GND*%
X103160001Y-77467498D03*
X89060001Y-98904998D03*
%TO.N,/USB/CONN_RX1+*%
X85204801Y-42992498D03*
%TO.N,/USB/CONN_RX1-*%
X85865201Y-42992498D03*
%TO.N,/USB/USBSS_TX_P*%
X77135001Y-47172698D03*
%TO.N,/USB/USBSS_TX_N*%
X77135001Y-46512298D03*
%TO.N,GBE_MDI2_P*%
X65026514Y-57200985D03*
%TO.N,GBE_MDI2_N*%
X65493488Y-56734011D03*
%TO.N,CAM2_CLK+*%
X106729801Y-69067498D03*
%TO.N,/USB/USB0_D_P*%
X85060001Y-48197698D03*
%TO.N,/USB/USB0_D_N*%
X85060001Y-47537298D03*
%TO.N,GBE_MDI0_P*%
X59226514Y-54700985D03*
%TO.N,GBE_MDI0_N*%
X59693488Y-54234011D03*
%TO.N,GBE_MDI1_P*%
X62526514Y-55700985D03*
%TO.N,GBE_MDI1_N*%
X62993488Y-55234011D03*
%TD*%
D36*
%TO.N,/USB/ABSIDE*%
X90800000Y-38400000D02*
X90800000Y-34625000D01*
X88650000Y-40550000D02*
X90800000Y-38400000D01*
X90800000Y-34625000D02*
X96500000Y-28925000D01*
X96500000Y-28925000D02*
X96500000Y-28900000D01*
%TO.N,NX_MCU_nRST*%
X61300000Y-63950000D02*
X80750000Y-83400000D01*
X61300000Y-63050000D02*
X61300000Y-63950000D01*
X80750000Y-83400000D02*
X87525000Y-83400000D01*
X87525000Y-83400000D02*
X89900000Y-85775000D01*
X89900000Y-85775000D02*
X89900000Y-91000000D01*
%TO.N,IMU_INT1*%
X86837500Y-82000000D02*
X82787500Y-77950000D01*
X91900000Y-82000000D02*
X86837500Y-82000000D01*
X82787500Y-77950000D02*
X79625000Y-77950000D01*
X79625000Y-77950000D02*
X64200000Y-62525000D01*
X64200000Y-62525000D02*
X64200000Y-62300000D01*
%TO.N,CAM4_SDA_1V8*%
X82075000Y-75175000D02*
X80460001Y-73560001D01*
X82650000Y-75750000D02*
X82075000Y-75175000D01*
X88150000Y-81250000D02*
X82650000Y-75750000D01*
X88150000Y-81250000D02*
X92100000Y-81250000D01*
X80460001Y-73560001D02*
X80460001Y-71667498D01*
%TO.N,CAM4_SCL_1V8*%
X81460001Y-72710001D02*
X89300000Y-80550000D01*
X81460001Y-71667498D02*
X81460001Y-72710001D01*
X89300000Y-80550000D02*
X93750000Y-80550000D01*
%TO.N,CAM4_TRIGGER*%
X82460001Y-72760001D02*
X89050000Y-79350000D01*
X91650000Y-79350000D02*
X92150000Y-78850000D01*
X82460001Y-71667498D02*
X82460001Y-72760001D01*
X89050000Y-79350000D02*
X91650000Y-79350000D01*
%TO.N,CAM4_ENABLE*%
X89450000Y-78750000D02*
X83460001Y-72760001D01*
X91050000Y-78750000D02*
X89450000Y-78750000D01*
X83460001Y-72760001D02*
X83460001Y-71667498D01*
%TO.N,/MCU/SWDCLK/MCU_GPIO5/FC6*%
X81400000Y-88300000D02*
X81400000Y-85400000D01*
X76800000Y-92900000D02*
X81400000Y-88300000D01*
X45750000Y-97150000D02*
X50000000Y-92900000D01*
X42620000Y-98130000D02*
X43600000Y-97150000D01*
X50000000Y-92900000D02*
X76800000Y-92900000D01*
X43600000Y-97150000D02*
X45750000Y-97150000D01*
X81400000Y-85400000D02*
X82300000Y-84500000D01*
X84300000Y-84500000D02*
X85200000Y-85400000D01*
X82300000Y-84500000D02*
X84300000Y-84500000D01*
X85200000Y-85400000D02*
X87500000Y-85400000D01*
%TO.N,/USB/HUB_nPWR*%
X46900000Y-53800000D02*
X44075000Y-56625000D01*
X42200000Y-59700000D02*
X42523289Y-59700000D01*
X42523289Y-59700000D02*
X44075000Y-58148289D01*
X44075000Y-58148289D02*
X44075000Y-56625000D01*
%TO.N,/USB/HUB_nOVR1*%
X41100000Y-63500000D02*
X47200000Y-57400000D01*
X41100000Y-63600000D02*
X41100000Y-63500000D01*
X47200000Y-57400000D02*
X47200000Y-55000000D01*
%TO.N,/USB/HUB_nOVR0*%
X44700000Y-56800000D02*
X44700000Y-59000000D01*
X44700000Y-59000000D02*
X42650000Y-61050000D01*
X47200000Y-54300000D02*
X44700000Y-56800000D01*
X42800000Y-60900000D02*
X42650000Y-61050000D01*
X42650000Y-61050000D02*
X41300000Y-62400000D01*
D37*
%TO.N,Net-(R33-Pad1)*%
X66202502Y-35297498D02*
X55750000Y-45750000D01*
X69685001Y-35297498D02*
X66202502Y-35297498D01*
X55750000Y-45750000D02*
X55750000Y-52700000D01*
X55750000Y-52700000D02*
X57900000Y-54850000D01*
X57900000Y-54850000D02*
X57900000Y-61800000D01*
D36*
%TO.N,/Power/NX_nSHUTDOWN_REQ*%
X64000000Y-79000000D02*
X61550000Y-76550000D01*
X64000000Y-89100000D02*
X64000000Y-79000000D01*
X61550000Y-76550000D02*
X61550000Y-69150000D01*
X61550000Y-69150000D02*
X56500000Y-64100000D01*
X56500000Y-64100000D02*
X56500000Y-57100000D01*
%TO.N,/Interfaces/FAN_TACH*%
X62300000Y-76250000D02*
X64650000Y-78600000D01*
X62300000Y-68650000D02*
X62300000Y-76250000D01*
X64650000Y-78600000D02*
X64650000Y-89450000D01*
X59050000Y-57200000D02*
X59050000Y-65400000D01*
X64650000Y-89450000D02*
X64100000Y-90000000D01*
X59050000Y-65400000D02*
X62300000Y-68650000D01*
X64100000Y-90000000D02*
X63300000Y-90000000D01*
%TO.N,/MCU/SWDIO/MCU_GPIO6/FC6*%
X80800000Y-87900000D02*
X76550000Y-92150000D01*
X81900000Y-83900000D02*
X80800000Y-85000000D01*
X84900000Y-83900000D02*
X81900000Y-83900000D01*
X49850000Y-92150000D02*
X45500000Y-96500000D01*
X80800000Y-85000000D02*
X80800000Y-87900000D01*
X85700000Y-84700000D02*
X84900000Y-83900000D01*
X87500000Y-84700000D02*
X85700000Y-84700000D01*
X76550000Y-92150000D02*
X49850000Y-92150000D01*
X45500000Y-96500000D02*
X42850000Y-96500000D01*
X42850000Y-96500000D02*
X42700000Y-96650000D01*
%TO.N,/MCU/MCU_GPIO3/FC6*%
X96200000Y-92000000D02*
X91500000Y-96700000D01*
X96200000Y-91300000D02*
X96200000Y-92000000D01*
X91500000Y-96700000D02*
X52550000Y-96700000D01*
X52550000Y-96700000D02*
X50650000Y-94800000D01*
%TO.N,/MCU/MCU_GPIO2*%
X51550000Y-94850000D02*
X52825000Y-96125000D01*
X95598693Y-91901307D02*
X91500000Y-96000000D01*
X52825000Y-96125000D02*
X91375000Y-96125000D01*
X91375000Y-96125000D02*
X91500000Y-96000000D01*
%TO.N,/MCU/MCU_GPIO1*%
X95000000Y-91750000D02*
X91200000Y-95550000D01*
X95000000Y-91550000D02*
X95000000Y-91750000D01*
X91200000Y-95550000D02*
X53000000Y-95550000D01*
X53000000Y-95550000D02*
X52300000Y-94850000D01*
%TO.N,USB_SCL*%
X105750000Y-31350000D02*
X108290000Y-31350000D01*
X105000000Y-30600000D02*
X105750000Y-31350000D01*
X108290000Y-31350000D02*
X109840000Y-29800000D01*
D37*
%TO.N,/USB/GATES*%
X95900000Y-34700000D02*
X95900000Y-33100000D01*
X95900000Y-33100000D02*
X99400000Y-29600000D01*
X94500000Y-36100000D02*
X95900000Y-34700000D01*
X99400000Y-29600000D02*
X101800000Y-29600000D01*
D36*
%TO.N,CAM0_SCL_1V8*%
X118460001Y-72867498D02*
X117850000Y-73477499D01*
X119960001Y-72867498D02*
X118460001Y-72867498D01*
X117850000Y-73477499D02*
X117850000Y-78500000D01*
X117850000Y-78500000D02*
X117050000Y-79300000D01*
%TO.N,CAM0_SDA_1V8*%
X118760001Y-73867498D02*
X118450000Y-74177499D01*
X119960001Y-73867498D02*
X118760001Y-73867498D01*
X118450000Y-74177499D02*
X118450000Y-78700000D01*
X118450000Y-78700000D02*
X117050000Y-80100000D01*
D38*
%TO.N,GBE_MDI2_N*%
X65275711Y-51623833D02*
X65253523Y-51687242D01*
%TO.N,GBE_MDI2_P*%
X64865001Y-46217498D02*
X64865001Y-56841906D01*
%TO.N,GBE_MDI2_N*%
X65358955Y-51519449D02*
X65311452Y-51566952D01*
X65546001Y-52053999D02*
X65748451Y-52053999D01*
X65479245Y-51461520D02*
X65415836Y-51483708D01*
X65246001Y-49646498D02*
X65246001Y-50553999D01*
X65415836Y-52024289D02*
X65479245Y-52046477D01*
X65546001Y-51453999D02*
X65479245Y-51461520D01*
X65358955Y-51988548D02*
X65415836Y-52024289D01*
X65815208Y-51446477D02*
X65748451Y-51453999D01*
X65878617Y-51424289D02*
X65815208Y-51446477D01*
X65935498Y-51388548D02*
X65878617Y-51424289D01*
X65983001Y-51341045D02*
X65935498Y-51388548D01*
X65311452Y-52766952D02*
X65275711Y-52823833D01*
X66018742Y-51284164D02*
X65983001Y-51341045D01*
X66135001Y-48757498D02*
X65246001Y-49646498D01*
X65358955Y-52719449D02*
X65311452Y-52766952D01*
X66040930Y-51220755D02*
X66018742Y-51284164D01*
X65415836Y-52683708D02*
X65358955Y-52719449D01*
X66040930Y-51087242D02*
X66048451Y-51153999D01*
X66018742Y-52484164D02*
X65983001Y-52541045D01*
X65546001Y-52653999D02*
X65479245Y-52661520D01*
X66018742Y-51023833D02*
X66040930Y-51087242D01*
X66040930Y-52420755D02*
X66018742Y-52484164D01*
X65246001Y-50553999D02*
X65253523Y-50620755D01*
X65748451Y-51453999D02*
X65546001Y-51453999D01*
X65311452Y-51941045D02*
X65358955Y-51988548D01*
X65253523Y-50620755D02*
X65275711Y-50684164D01*
X65415836Y-50824289D02*
X65479245Y-50846477D01*
X65311452Y-51566952D02*
X65275711Y-51623833D01*
X65253523Y-51687242D02*
X65246001Y-51753999D01*
%TO.N,GBE_MDI2_P*%
X64865001Y-56841906D02*
X65026514Y-57003419D01*
%TO.N,GBE_MDI2_N*%
X65878617Y-50883708D02*
X65935498Y-50919449D01*
X66048451Y-52353999D02*
X66040930Y-52420755D01*
X65295922Y-56734011D02*
X65493488Y-56734011D01*
X65935498Y-50919449D02*
X65983001Y-50966952D01*
X65748451Y-50853999D02*
X65815208Y-50861520D01*
X65983001Y-50966952D02*
X66018742Y-51023833D01*
%TO.N,GBE_MDI2_P*%
X65026514Y-57003419D02*
X65026514Y-57200985D01*
%TO.N,GBE_MDI2_N*%
X65878617Y-52083708D02*
X65935498Y-52119449D01*
X65815208Y-50861520D02*
X65878617Y-50883708D01*
X66040930Y-52287242D02*
X66048451Y-52353999D01*
X65815208Y-52646477D02*
X65748451Y-52653999D01*
X65246001Y-56684090D02*
X65295922Y-56734011D01*
X65275711Y-50684164D02*
X65311452Y-50741045D01*
X66048451Y-51153999D02*
X66040930Y-51220755D01*
X65479245Y-52661520D02*
X65415836Y-52683708D01*
X65311452Y-50741045D02*
X65358955Y-50788548D01*
X65253523Y-51820755D02*
X65275711Y-51884164D01*
X65415836Y-51483708D02*
X65358955Y-51519449D01*
X65479245Y-52046477D02*
X65546001Y-52053999D01*
X65358955Y-50788548D02*
X65415836Y-50824289D01*
X65479245Y-50846477D02*
X65546001Y-50853999D01*
X65275711Y-52823833D02*
X65253523Y-52887242D01*
X65246001Y-51753999D02*
X65253523Y-51820755D01*
X65546001Y-50853999D02*
X65748451Y-50853999D01*
X65983001Y-52541045D02*
X65935498Y-52588548D01*
X65275711Y-51884164D02*
X65311452Y-51941045D01*
X65748451Y-52053999D02*
X65815208Y-52061520D01*
X65935498Y-52588548D02*
X65878617Y-52624289D01*
X65815208Y-52061520D02*
X65878617Y-52083708D01*
X65878617Y-52624289D02*
X65815208Y-52646477D01*
X65935498Y-52119449D02*
X65983001Y-52166952D01*
X65983001Y-52166952D02*
X66018742Y-52223833D01*
X66018742Y-52223833D02*
X66040930Y-52287242D01*
X65246001Y-52953999D02*
X65246001Y-56684090D01*
X65748451Y-52653999D02*
X65546001Y-52653999D01*
X65253523Y-52887242D02*
X65246001Y-52953999D01*
D37*
%TO.N,+1V8*%
X71825000Y-87925000D02*
X72000000Y-87750000D01*
X72650000Y-87100000D02*
X71825000Y-87925000D01*
X68550000Y-91200000D02*
X71825000Y-87925000D01*
X76000000Y-87100000D02*
X72650000Y-87100000D01*
D38*
%TO.N,CAM1_DAT0+*%
X111267735Y-52111856D02*
X111307300Y-52116314D01*
X110413842Y-51878735D02*
X110418300Y-51918300D01*
X111230155Y-52098706D02*
X111267735Y-52111856D01*
X111147107Y-52015658D02*
X111168290Y-52049370D01*
X111585755Y-51758107D02*
X111623335Y-51744957D01*
X111129500Y-51938514D02*
X111133957Y-51978078D01*
X111111892Y-51841155D02*
X111125042Y-51878735D01*
X110951700Y-51740500D02*
X110991264Y-51744957D01*
X110840843Y-51779290D02*
X110874555Y-51758107D01*
X110812690Y-51807443D02*
X110840843Y-51779290D01*
X111196443Y-52077523D02*
X111230155Y-52098706D01*
X110778357Y-51878735D02*
X110791507Y-51841155D01*
X110518955Y-52098706D02*
X110556535Y-52111856D01*
X110240500Y-51740500D02*
X110280064Y-51744957D01*
X110773900Y-51918300D02*
X110778357Y-51878735D01*
X110773900Y-51938514D02*
X110773900Y-51918300D01*
X110756292Y-52015658D02*
X110769442Y-51978078D01*
X110673244Y-52098706D02*
X110706956Y-52077523D01*
X110791507Y-51841155D02*
X110812690Y-51807443D01*
X110735109Y-52049370D02*
X110756292Y-52015658D01*
X110379509Y-51807443D02*
X110400692Y-51841155D01*
X110556535Y-52111856D02*
X110596100Y-52116314D01*
X110317644Y-51758107D02*
X110351356Y-51779290D01*
X110706956Y-52077523D02*
X110735109Y-52049370D01*
X110457090Y-52049370D02*
X110485243Y-52077523D01*
X108040567Y-52184858D02*
X108088123Y-52168217D01*
X110991264Y-51744957D02*
X111028844Y-51758107D01*
X110435907Y-52015658D02*
X110457090Y-52049370D01*
X108166412Y-52105785D02*
X108193217Y-52063123D01*
X110418300Y-51918300D02*
X110418300Y-51938514D01*
X110351356Y-51779290D02*
X110379509Y-51807443D01*
X107800214Y-52141412D02*
X107842876Y-52168217D01*
X107666412Y-51825214D02*
X107693217Y-51867876D01*
X110485243Y-52077523D02*
X110518955Y-52098706D01*
X108440500Y-51740500D02*
X110240500Y-51740500D01*
X108221141Y-51915432D02*
X108237782Y-51867876D01*
X111062556Y-51779290D02*
X111090709Y-51807443D01*
X110422757Y-51978078D02*
X110435907Y-52015658D01*
X107630785Y-51789587D02*
X107666412Y-51825214D01*
X107764587Y-52105785D02*
X107800214Y-52141412D01*
X107490500Y-51740500D02*
X107540567Y-51746141D01*
X110280064Y-51744957D02*
X110317644Y-51758107D01*
X108209858Y-52015567D02*
X108221141Y-51915432D01*
X108300214Y-51789587D02*
X108342876Y-51762782D01*
X107721141Y-52015567D02*
X107737782Y-52063123D01*
X110596100Y-52116314D02*
X110635664Y-52111856D01*
X107709858Y-51915432D02*
X107721141Y-52015567D01*
X111485100Y-51938514D02*
X111485100Y-51918300D01*
X110400692Y-51841155D02*
X110413842Y-51878735D01*
X106860001Y-53767498D02*
X106860001Y-53067498D01*
X111485100Y-51918300D02*
X111489557Y-51878735D01*
X110769442Y-51978078D02*
X110773900Y-51938514D01*
X108130785Y-52141412D02*
X108166412Y-52105785D01*
X110912135Y-51744957D02*
X110951700Y-51740500D01*
X107890432Y-52184858D02*
X107940500Y-52190500D01*
X107588123Y-51762782D02*
X107630785Y-51789587D01*
X111133957Y-51978078D02*
X111147107Y-52015658D01*
X108264587Y-51825214D02*
X108300214Y-51789587D01*
X110874555Y-51758107D02*
X110912135Y-51744957D01*
X106550501Y-52468907D02*
X107278908Y-51740500D01*
X111467492Y-52015658D02*
X111480642Y-51978078D01*
X107540567Y-51746141D02*
X107588123Y-51762782D01*
X111090709Y-51807443D02*
X111111892Y-51841155D01*
X106550501Y-52757998D02*
X106550501Y-52468907D01*
X108088123Y-52168217D02*
X108130785Y-52141412D01*
X106860001Y-53067498D02*
X106550501Y-52757998D01*
X107990500Y-52190500D02*
X108040567Y-52184858D01*
X111125042Y-51878735D02*
X111129500Y-51918300D01*
X107278908Y-51740500D02*
X107490500Y-51740500D01*
X111168290Y-52049370D02*
X111196443Y-52077523D01*
X107842876Y-52168217D02*
X107890432Y-52184858D01*
X108237782Y-51867876D02*
X108264587Y-51825214D01*
X107940500Y-52190500D02*
X107990500Y-52190500D01*
X108193217Y-52063123D02*
X108209858Y-52015567D01*
X107693217Y-51867876D02*
X107709858Y-51915432D01*
X108390432Y-51746141D02*
X108440500Y-51740500D01*
X111028844Y-51758107D02*
X111062556Y-51779290D01*
X111129500Y-51918300D02*
X111129500Y-51938514D01*
X107737782Y-52063123D02*
X107764587Y-52105785D01*
X108342876Y-51762782D02*
X108390432Y-51746141D01*
X110635664Y-52111856D02*
X110673244Y-52098706D01*
X110418300Y-51938514D02*
X110422757Y-51978078D01*
X111307300Y-52116314D02*
X111346864Y-52111856D01*
X111346864Y-52111856D02*
X111384444Y-52098706D01*
X111384444Y-52098706D02*
X111418156Y-52077523D01*
X111418156Y-52077523D02*
X111446309Y-52049370D01*
X111446309Y-52049370D02*
X111467492Y-52015658D01*
X111480642Y-51978078D02*
X111485100Y-51938514D01*
X114434681Y-50434727D02*
X115326111Y-50434727D01*
X111489557Y-51878735D02*
X111502707Y-51841155D01*
X111502707Y-51841155D02*
X111523890Y-51807443D01*
X111523890Y-51807443D02*
X111552043Y-51779290D01*
X111552043Y-51779290D02*
X111585755Y-51758107D01*
X111623335Y-51744957D02*
X111662900Y-51740500D01*
X111662900Y-51740500D02*
X113128908Y-51740500D01*
X113128908Y-51740500D02*
X114434681Y-50434727D01*
X115326111Y-50434727D02*
X115519800Y-50628416D01*
X115519800Y-50628416D02*
X115519800Y-50750000D01*
%TO.N,CAM3_CLK+*%
X103952402Y-48357998D02*
X104707998Y-48357998D01*
X99486864Y-48740203D02*
X99514077Y-48662435D01*
X106125488Y-48864971D02*
X106173636Y-48848123D01*
X103948280Y-48358938D02*
X103950288Y-48358236D01*
X103946478Y-48360070D02*
X103948280Y-48358938D01*
X104935798Y-48585798D02*
X104935798Y-48642883D01*
X106352296Y-48443767D02*
X106388367Y-48407696D01*
X103944974Y-48361574D02*
X103946478Y-48360070D01*
X105975959Y-48848123D02*
X106024107Y-48864971D01*
X103943842Y-48363376D02*
X103944974Y-48361574D01*
X96927123Y-48358938D02*
X96928925Y-48360070D01*
X103942902Y-48367498D02*
X103943140Y-48365384D01*
X103942902Y-48580562D02*
X103942902Y-48367498D01*
X103933677Y-48662435D02*
X103942902Y-48580562D01*
X102834526Y-48662435D02*
X102861739Y-48740203D01*
X102825302Y-48580562D02*
X102834526Y-48662435D01*
X102825302Y-47776998D02*
X102825302Y-48580562D01*
X102825063Y-47774885D02*
X102825302Y-47776998D01*
X106325157Y-48486959D02*
X106352296Y-48443767D01*
X102817915Y-47767737D02*
X102819923Y-47768439D01*
X105852709Y-48693573D02*
X105869557Y-48741721D01*
X102861739Y-48740203D02*
X102905573Y-48809966D01*
X102479202Y-47767498D02*
X102815802Y-47767498D01*
X102469940Y-47774885D02*
X102470642Y-47772877D01*
X102460477Y-48662435D02*
X102469702Y-48580562D01*
X103862630Y-48809966D02*
X103906464Y-48740203D01*
X102389430Y-48809966D02*
X102433264Y-48740203D01*
X103804370Y-48868226D02*
X103862630Y-48809966D01*
X102331170Y-48868226D02*
X102389430Y-48809966D01*
X105441096Y-48443767D02*
X105477167Y-48407696D01*
X103734607Y-48912060D02*
X103804370Y-48868226D01*
X102261407Y-48912060D02*
X102331170Y-48868226D01*
X103656839Y-48939273D02*
X103734607Y-48912060D01*
X102183639Y-48939273D02*
X102261407Y-48912060D01*
X102477088Y-47767737D02*
X102479202Y-47767498D01*
X106252899Y-48784913D02*
X106280038Y-48741721D01*
X103574966Y-48948498D02*
X103656839Y-48939273D01*
X97071033Y-48868226D02*
X97140796Y-48912060D01*
X98059602Y-47767498D02*
X98396202Y-47767498D01*
X102824361Y-47772877D02*
X102825063Y-47774885D01*
X98405463Y-47774885D02*
X98405702Y-47776998D01*
X105932767Y-48820984D02*
X105975959Y-48848123D01*
X102101766Y-48948498D02*
X102183639Y-48939273D01*
X104886099Y-48443767D02*
X104913238Y-48486959D01*
X103193237Y-48948498D02*
X103574966Y-48948498D01*
X102823229Y-47771075D02*
X102824361Y-47772877D01*
X101720037Y-48948498D02*
X102101766Y-48948498D01*
X103111364Y-48939273D02*
X103193237Y-48948498D01*
X102821725Y-47769571D02*
X102823229Y-47771075D01*
X96923002Y-48357998D02*
X96925115Y-48358236D01*
X105214288Y-48864971D02*
X105262436Y-48848123D01*
X101638164Y-48939273D02*
X101720037Y-48948498D01*
X96968939Y-48740203D02*
X97012773Y-48809966D01*
X104958357Y-48741721D02*
X104985496Y-48784913D01*
X103033596Y-48912060D02*
X103111364Y-48939273D01*
X101560396Y-48912060D02*
X101638164Y-48939273D01*
X102963833Y-48868226D02*
X103033596Y-48912060D01*
X98057488Y-47767737D02*
X98059602Y-47767498D01*
X101490633Y-48868226D02*
X101560396Y-48912060D01*
X101351161Y-47772877D02*
X101351863Y-47774885D01*
X101348525Y-47769571D02*
X101350029Y-47771075D01*
X101388539Y-48740203D02*
X101432373Y-48809966D01*
X101006002Y-47767498D02*
X101342602Y-47767498D01*
X101003888Y-47767737D02*
X101006002Y-47767498D01*
X109066513Y-49185921D02*
X109066513Y-49233487D01*
X102475080Y-47768439D02*
X102477088Y-47767737D01*
X105841286Y-48535107D02*
X105846998Y-48585798D01*
X101001880Y-47768439D02*
X101003888Y-47767737D01*
X102473278Y-47769571D02*
X102475080Y-47768439D01*
X101000078Y-47769571D02*
X101001880Y-47768439D01*
X100998574Y-47771075D02*
X101000078Y-47769571D01*
X100996740Y-47774885D02*
X100997442Y-47772877D01*
X96932502Y-48580562D02*
X96941726Y-48662435D01*
X105391398Y-48642883D02*
X105391398Y-48585798D01*
X100996502Y-48580562D02*
X100996502Y-47776998D01*
X100916230Y-48809966D02*
X100960064Y-48740203D01*
X100857970Y-48868226D02*
X100916230Y-48809966D01*
X98405702Y-47776998D02*
X98405702Y-48580562D01*
X100788207Y-48912060D02*
X100857970Y-48868226D01*
X98050102Y-47776998D02*
X98050340Y-47774885D01*
X100710439Y-48939273D02*
X100788207Y-48912060D01*
X99959173Y-48809966D02*
X100017433Y-48868226D01*
X99915339Y-48740203D02*
X99959173Y-48809966D01*
X100164964Y-48939273D02*
X100246837Y-48948498D01*
X91760001Y-53767498D02*
X91760001Y-52267497D01*
X99888126Y-48662435D02*
X99915339Y-48740203D01*
X105385686Y-48693573D02*
X105391398Y-48642883D01*
X96928925Y-48360070D02*
X96930429Y-48361574D01*
X101346723Y-47768439D02*
X101348525Y-47769571D01*
X98613996Y-48912060D02*
X98691764Y-48939273D01*
X100246837Y-48948498D02*
X100628566Y-48948498D01*
X99532802Y-47767498D02*
X99869402Y-47767498D01*
X98051042Y-47772877D02*
X98052174Y-47771075D01*
X91760001Y-52267497D02*
X91450501Y-51957997D01*
X96925115Y-48358236D02*
X96927123Y-48358938D01*
X97300437Y-48948498D02*
X97682166Y-48948498D01*
X105846998Y-48585798D02*
X105846998Y-48642883D01*
X102905573Y-48809966D02*
X102963833Y-48868226D01*
X102815802Y-47767498D02*
X102817915Y-47767737D01*
X98398315Y-47767737D02*
X98400323Y-47768439D01*
X105305628Y-48820984D02*
X105341699Y-48784913D01*
X99523540Y-47774885D02*
X99524242Y-47772877D01*
X102819923Y-47768439D02*
X102821725Y-47769571D01*
X106302598Y-48642883D02*
X106302598Y-48585798D01*
X98052174Y-47771075D02*
X98053678Y-47769571D01*
X100996502Y-47776998D02*
X100996740Y-47774885D01*
X98013664Y-48740203D02*
X98040877Y-48662435D01*
X97764039Y-48939273D02*
X97841807Y-48912060D01*
X96930429Y-48361574D02*
X96931561Y-48363376D01*
X98485973Y-48809966D02*
X98544233Y-48868226D01*
X97218564Y-48939273D02*
X97300437Y-48948498D01*
X99523302Y-47776998D02*
X99523540Y-47774885D01*
X105520359Y-48380557D02*
X105568507Y-48363709D01*
X99525374Y-47771075D02*
X99526878Y-47769571D01*
X99877961Y-47772877D02*
X99878663Y-47774885D01*
X98404761Y-47772877D02*
X98405463Y-47774885D01*
X104707998Y-48357998D02*
X104758688Y-48363709D01*
X98050340Y-47774885D02*
X98051042Y-47772877D01*
X99523302Y-48580562D02*
X99523302Y-47776998D01*
X105391398Y-48585798D02*
X105397109Y-48535107D01*
X102469702Y-47776998D02*
X102469940Y-47774885D01*
X97012773Y-48809966D02*
X97071033Y-48868226D01*
X96932502Y-48367498D02*
X96932502Y-48580562D01*
X91450501Y-51957997D02*
X91450501Y-50846406D01*
X99443030Y-48809966D02*
X99486864Y-48740203D01*
X98050102Y-48580562D02*
X98050102Y-47776998D01*
X91450501Y-50846406D02*
X93938909Y-48357998D01*
X102469702Y-48580562D02*
X102469702Y-47776998D01*
X105568507Y-48363709D02*
X105619198Y-48357998D01*
X97841807Y-48912060D02*
X97911570Y-48868226D01*
X105477167Y-48407696D02*
X105520359Y-48380557D01*
X101432373Y-48809966D02*
X101490633Y-48868226D01*
X99384770Y-48868226D02*
X99443030Y-48809966D01*
X105368838Y-48741721D02*
X105385686Y-48693573D01*
X101342602Y-47767498D02*
X101344715Y-47767737D01*
X93938909Y-48357998D02*
X96923002Y-48357998D01*
X97911570Y-48868226D02*
X97969830Y-48809966D01*
X99871515Y-47767737D02*
X99873523Y-47768439D01*
X100960064Y-48740203D02*
X100987277Y-48662435D01*
X101350029Y-47771075D02*
X101351161Y-47772877D01*
X98396202Y-47767498D02*
X98398315Y-47767737D01*
X96931561Y-48363376D02*
X96932263Y-48365384D01*
X102471774Y-47771075D02*
X102473278Y-47769571D01*
X98400323Y-47768439D02*
X98402125Y-47769571D01*
X99514077Y-48662435D02*
X99523302Y-48580562D01*
X100987277Y-48662435D02*
X100996502Y-48580562D01*
X105718036Y-48380557D02*
X105761228Y-48407696D01*
X98055480Y-47768439D02*
X98057488Y-47767737D01*
X103906464Y-48740203D02*
X103933677Y-48662435D01*
X105112907Y-48864971D02*
X105163598Y-48870683D01*
X98053678Y-47769571D02*
X98055480Y-47768439D01*
X99315007Y-48912060D02*
X99384770Y-48868226D01*
X97969830Y-48809966D02*
X98013664Y-48740203D01*
X98544233Y-48868226D02*
X98613996Y-48912060D01*
X101351863Y-47774885D02*
X101352102Y-47776998D01*
X98405702Y-48580562D02*
X98414926Y-48662435D01*
X102433264Y-48740203D02*
X102460477Y-48662435D01*
X96932263Y-48365384D02*
X96932502Y-48367498D01*
X103950288Y-48358236D02*
X103952402Y-48357998D01*
X98773637Y-48948498D02*
X99155366Y-48948498D01*
X97682166Y-48948498D02*
X97764039Y-48939273D01*
X106280038Y-48741721D02*
X106296886Y-48693573D01*
X103943140Y-48365384D02*
X103943842Y-48363376D01*
X105262436Y-48848123D02*
X105305628Y-48820984D01*
X98402125Y-47769571D02*
X98403629Y-47771075D01*
X99875325Y-47769571D02*
X99876829Y-47771075D01*
X102470642Y-47772877D02*
X102471774Y-47771075D01*
X98403629Y-47771075D02*
X98404761Y-47772877D01*
X99876829Y-47771075D02*
X99877961Y-47772877D01*
X97140796Y-48912060D02*
X97218564Y-48939273D01*
X101352102Y-47776998D02*
X101352102Y-48580562D01*
X98414926Y-48662435D02*
X98442139Y-48740203D01*
X101352102Y-48580562D02*
X101361326Y-48662435D01*
X105619198Y-48357998D02*
X105669888Y-48363709D01*
X98442139Y-48740203D02*
X98485973Y-48809966D01*
X101361326Y-48662435D02*
X101388539Y-48740203D01*
X101344715Y-47767737D02*
X101346723Y-47768439D01*
X98691764Y-48939273D02*
X98773637Y-48948498D01*
X100628566Y-48948498D02*
X100710439Y-48939273D01*
X96941726Y-48662435D02*
X96968939Y-48740203D01*
X99869402Y-47767498D02*
X99871515Y-47767737D01*
X100997442Y-47772877D02*
X100998574Y-47771075D01*
X104850028Y-48407696D02*
X104886099Y-48443767D01*
X99155366Y-48948498D02*
X99237239Y-48939273D01*
X99873523Y-47768439D02*
X99875325Y-47769571D01*
X99237239Y-48939273D02*
X99315007Y-48912060D01*
X98040877Y-48662435D02*
X98050102Y-48580562D01*
X99524242Y-47772877D02*
X99525374Y-47771075D01*
X106308309Y-48535107D02*
X106325157Y-48486959D01*
X99526878Y-47769571D02*
X99528680Y-47768439D01*
X99528680Y-47768439D02*
X99530688Y-47767737D01*
X99530688Y-47767737D02*
X99532802Y-47767498D01*
X99878663Y-47774885D02*
X99878902Y-47776998D01*
X105669888Y-48363709D02*
X105718036Y-48380557D01*
X100017433Y-48868226D02*
X100087196Y-48912060D01*
X99878902Y-47776998D02*
X99878902Y-48580562D01*
X100087196Y-48912060D02*
X100164964Y-48939273D01*
X99878902Y-48580562D02*
X99888126Y-48662435D01*
X104758688Y-48363709D02*
X104806836Y-48380557D01*
X104806836Y-48380557D02*
X104850028Y-48407696D01*
X104913238Y-48486959D02*
X104930086Y-48535107D01*
X104930086Y-48535107D02*
X104935798Y-48585798D01*
X104935798Y-48642883D02*
X104941509Y-48693573D01*
X104941509Y-48693573D02*
X104958357Y-48741721D01*
X104985496Y-48784913D02*
X105021567Y-48820984D01*
X105021567Y-48820984D02*
X105064759Y-48848123D01*
X105064759Y-48848123D02*
X105112907Y-48864971D01*
X105163598Y-48870683D02*
X105214288Y-48864971D01*
X105341699Y-48784913D02*
X105368838Y-48741721D01*
X105397109Y-48535107D02*
X105413957Y-48486959D01*
X108388590Y-48357998D02*
X109066513Y-49035921D01*
X105413957Y-48486959D02*
X105441096Y-48443767D01*
X105761228Y-48407696D02*
X105797299Y-48443767D01*
X105797299Y-48443767D02*
X105824438Y-48486959D01*
X105824438Y-48486959D02*
X105841286Y-48535107D01*
X105846998Y-48642883D02*
X105852709Y-48693573D01*
X105869557Y-48741721D02*
X105896696Y-48784913D01*
X105896696Y-48784913D02*
X105932767Y-48820984D01*
X106024107Y-48864971D02*
X106074798Y-48870683D01*
X106074798Y-48870683D02*
X106125488Y-48864971D01*
X106173636Y-48848123D02*
X106216828Y-48820984D01*
X106216828Y-48820984D02*
X106252899Y-48784913D01*
X106296886Y-48693573D02*
X106302598Y-48642883D01*
X106302598Y-48585798D02*
X106308309Y-48535107D01*
X106388367Y-48407696D02*
X106431559Y-48380557D01*
X106431559Y-48380557D02*
X106479707Y-48363709D01*
X106479707Y-48363709D02*
X106530398Y-48357998D01*
X106530398Y-48357998D02*
X108388590Y-48357998D01*
X109066513Y-49035921D02*
X109066513Y-49185921D01*
%TO.N,CAM3_DAT0+*%
X86455559Y-49141348D02*
X86499327Y-49106443D01*
X86383907Y-49290131D02*
X86396365Y-49235552D01*
X86383907Y-49346113D02*
X86383907Y-49290131D01*
X86513008Y-49561213D02*
X86478104Y-49517444D01*
X86124550Y-49870998D02*
X86168319Y-49905903D01*
X85897238Y-49776802D02*
X85953220Y-49776802D01*
X86396365Y-49400692D02*
X86383907Y-49346113D01*
X86273336Y-49942650D02*
X86329318Y-49942650D01*
X86420654Y-49451130D02*
X86396365Y-49400692D01*
X86765343Y-49106443D02*
X86809112Y-49141348D01*
X87244404Y-49069685D02*
X87256861Y-49015106D01*
X88838909Y-46757998D02*
X110088590Y-46757998D01*
X86455559Y-49494899D02*
X86420654Y-49451130D01*
X86604344Y-49069696D02*
X86660326Y-49069696D01*
X86714905Y-49082153D02*
X86765343Y-49106443D01*
X86549755Y-49666230D02*
X86537298Y-49611651D01*
X86499327Y-49106443D02*
X86549765Y-49082153D01*
X86478104Y-49517444D02*
X86455559Y-49494899D01*
X86549755Y-49722212D02*
X86549755Y-49666230D01*
X85748453Y-49848454D02*
X85792221Y-49813549D01*
X87162665Y-48434241D02*
X88838909Y-46757998D01*
X86537298Y-49776791D02*
X86549755Y-49722212D01*
X86537298Y-49611651D02*
X86513008Y-49561213D01*
X87185210Y-49163892D02*
X87220114Y-49120123D01*
X87091013Y-48639007D02*
X87091013Y-48583025D01*
X86434335Y-49905903D02*
X86478104Y-49870998D01*
X86396365Y-49235552D02*
X86420654Y-49185114D01*
X86383897Y-49930192D02*
X86434335Y-49905903D01*
X86980442Y-49235544D02*
X87036424Y-49235544D01*
X86420654Y-49185114D02*
X86455559Y-49141348D01*
X86329318Y-49942650D02*
X86383897Y-49930192D01*
X86478104Y-49870998D02*
X86513008Y-49827229D01*
X85450501Y-50146406D02*
X85748453Y-49848454D01*
X85760001Y-53767498D02*
X85760001Y-52267497D01*
X85450501Y-51957997D02*
X85450501Y-50146406D01*
X85792221Y-49813549D02*
X85842659Y-49789259D01*
X86168319Y-49905903D02*
X86218757Y-49930192D01*
X85760001Y-52267497D02*
X85450501Y-51957997D01*
X86513008Y-49827229D02*
X86537298Y-49776791D01*
X85842659Y-49789259D02*
X85897238Y-49776802D01*
X86102006Y-49848454D02*
X86124550Y-49870998D01*
X86809112Y-49141348D02*
X86831656Y-49163892D01*
X87256861Y-49015106D02*
X87256861Y-48959124D01*
X85953220Y-49776802D02*
X86007799Y-49789259D01*
X86218757Y-49930192D02*
X86273336Y-49942650D01*
X86007799Y-49789259D02*
X86058237Y-49813549D01*
X86875425Y-49198797D02*
X86925863Y-49223086D01*
X86058237Y-49813549D02*
X86102006Y-49848454D01*
X87103471Y-48528446D02*
X87127760Y-48478008D01*
X86549765Y-49082153D02*
X86604344Y-49069696D01*
X86831656Y-49163892D02*
X86875425Y-49198797D01*
X86660326Y-49069696D02*
X86714905Y-49082153D01*
X86925863Y-49223086D02*
X86980442Y-49235544D01*
X87091003Y-49223086D02*
X87141441Y-49198797D01*
X87036424Y-49235544D02*
X87091003Y-49223086D01*
X111159500Y-47828908D02*
X111159500Y-48760300D01*
X87141441Y-49198797D02*
X87185210Y-49163892D01*
X87185210Y-48810338D02*
X87162665Y-48787793D01*
X87220114Y-49120123D02*
X87244404Y-49069685D01*
X87256861Y-48959124D02*
X87244404Y-48904545D01*
X87244404Y-48904545D02*
X87220114Y-48854107D01*
X87220114Y-48854107D02*
X87185210Y-48810338D01*
X111159500Y-48760300D02*
X111019800Y-48900000D01*
X87162665Y-48787793D02*
X87127760Y-48744024D01*
X87127760Y-48744024D02*
X87103471Y-48693586D01*
X87103471Y-48693586D02*
X87091013Y-48639007D01*
X87091013Y-48583025D02*
X87103471Y-48528446D01*
X87127760Y-48478008D02*
X87162665Y-48434241D01*
X110088590Y-46757998D02*
X111159500Y-47828908D01*
%TO.N,CAM3_CLK-*%
X102088463Y-48560111D02*
X102088702Y-48557998D01*
X103559829Y-48563921D02*
X103560961Y-48562119D01*
X99222573Y-47525030D02*
X99280833Y-47466770D01*
X98578407Y-47422936D02*
X98648170Y-47466770D01*
X97313502Y-48557998D02*
X97313740Y-48560111D01*
X98500639Y-47395723D02*
X98578407Y-47422936D01*
X97313502Y-48344933D02*
X97313502Y-48557998D01*
X98418766Y-47386498D02*
X98500639Y-47395723D01*
X103211680Y-48566557D02*
X103213688Y-48567259D01*
X101738480Y-48566557D02*
X101740488Y-48567259D01*
X102083323Y-48566557D02*
X102085125Y-48565425D01*
X102838366Y-47386498D02*
X102920239Y-47395723D01*
X103598339Y-48185292D02*
X103642173Y-48115529D01*
X101740488Y-48567259D02*
X101742602Y-48567498D01*
X97877396Y-47422936D02*
X97955164Y-47395723D01*
X103571126Y-48263060D02*
X103598339Y-48185292D01*
X102227233Y-47466770D02*
X102296996Y-47422936D01*
X102087761Y-48562119D02*
X102088463Y-48560111D01*
X101447039Y-47395723D02*
X101524807Y-47422936D01*
X96945566Y-47976998D02*
X97027439Y-47986222D01*
X103560961Y-48562119D02*
X103561663Y-48560111D01*
X100121370Y-47466770D02*
X100179630Y-47525030D01*
X100983437Y-47386498D02*
X101365166Y-47386498D01*
X97668161Y-48562119D02*
X97668863Y-48560111D01*
X97807633Y-47466770D02*
X97877396Y-47422936D01*
X100615263Y-48560111D02*
X100615502Y-48557998D01*
X97705539Y-47594793D02*
X97749373Y-47525030D01*
X100614561Y-48562119D02*
X100615263Y-48560111D01*
X103208374Y-48563921D02*
X103209878Y-48565425D01*
X97105207Y-48013435D02*
X97174970Y-48057269D01*
X98790278Y-48565425D02*
X98792080Y-48566557D01*
X100260140Y-48560111D02*
X100260842Y-48562119D01*
X97233230Y-48115529D02*
X97277064Y-48185292D01*
X102081315Y-48567259D02*
X102083323Y-48566557D01*
X102088702Y-48557998D02*
X102088702Y-47754434D01*
X99132802Y-48567498D02*
X99134915Y-48567259D01*
X109335921Y-48766513D02*
X109533487Y-48766513D01*
X103847964Y-47986222D02*
X103929837Y-47976998D01*
X97678326Y-47672561D02*
X97705539Y-47594793D01*
X100613429Y-48563921D02*
X100614561Y-48562119D01*
X103207242Y-48562119D02*
X103208374Y-48563921D01*
X99280833Y-47466770D02*
X99350596Y-47422936D01*
X99142302Y-48557998D02*
X99142302Y-47754434D01*
X99138725Y-48565425D02*
X99140229Y-48563921D01*
X102086629Y-48563921D02*
X102087761Y-48562119D01*
X101652830Y-47525030D02*
X101696664Y-47594793D01*
X102296996Y-47422936D02*
X102374764Y-47395723D01*
X103206302Y-47754434D02*
X103206302Y-48557998D01*
X103556523Y-48566557D02*
X103558325Y-48565425D01*
X101524807Y-47422936D02*
X101594570Y-47466770D01*
X97661715Y-48567259D02*
X97663723Y-48566557D01*
X103552402Y-48567498D02*
X103554515Y-48567259D01*
X99134915Y-48567259D02*
X99136923Y-48566557D01*
X100259902Y-47754434D02*
X100259902Y-48557998D01*
X102097926Y-47672561D02*
X102125139Y-47594793D01*
X102088702Y-47754434D02*
X102097926Y-47672561D01*
X101736678Y-48565425D02*
X101738480Y-48566557D01*
X101742602Y-48567498D02*
X102079202Y-48567498D01*
X98788774Y-48563921D02*
X98790278Y-48565425D01*
X103561902Y-48557998D02*
X103561902Y-48344933D01*
X100615502Y-48557998D02*
X100615502Y-47754434D01*
X98750264Y-47594793D02*
X98777477Y-47672561D01*
X97955164Y-47395723D02*
X98037037Y-47386498D01*
X100624726Y-47672561D02*
X100651939Y-47594793D01*
X100179630Y-47525030D02*
X100223464Y-47594793D01*
X97323002Y-48567498D02*
X97659602Y-48567498D01*
X103213688Y-48567259D02*
X103215802Y-48567498D01*
X102079202Y-48567498D02*
X102081315Y-48567259D01*
X97317078Y-48565425D02*
X97318880Y-48566557D01*
X91069501Y-50688590D02*
X93781093Y-47976998D01*
X97315574Y-48563921D02*
X97317078Y-48565425D01*
X98786702Y-47754434D02*
X98786702Y-48557998D01*
X100608115Y-48567259D02*
X100610123Y-48566557D01*
X102085125Y-48565425D02*
X102086629Y-48563921D01*
X99140229Y-48563921D02*
X99141361Y-48562119D01*
X103561902Y-48344933D02*
X103571126Y-48263060D01*
X103209878Y-48565425D02*
X103211680Y-48566557D01*
X90760001Y-53767498D02*
X90760001Y-52267497D01*
X90760001Y-52267497D02*
X91069501Y-51957997D01*
X91069501Y-51957997D02*
X91069501Y-50688590D01*
X93781093Y-47976998D02*
X96945566Y-47976998D01*
X103558325Y-48565425D02*
X103559829Y-48563921D01*
X97027439Y-47986222D02*
X97105207Y-48013435D01*
X97174970Y-48057269D02*
X97233230Y-48115529D01*
X98796202Y-48567498D02*
X99132802Y-48567498D01*
X97277064Y-48185292D02*
X97304277Y-48263060D01*
X97304277Y-48263060D02*
X97313502Y-48344933D01*
X97313740Y-48560111D02*
X97314442Y-48562119D01*
X97314442Y-48562119D02*
X97315574Y-48563921D01*
X97318880Y-48566557D02*
X97320888Y-48567259D01*
X97320888Y-48567259D02*
X97323002Y-48567498D01*
X102456637Y-47386498D02*
X102838366Y-47386498D01*
X97659602Y-48567498D02*
X97661715Y-48567259D01*
X103215802Y-48567498D02*
X103552402Y-48567498D01*
X97663723Y-48566557D02*
X97665525Y-48565425D01*
X100695773Y-47525030D02*
X100754033Y-47466770D01*
X97665525Y-48565425D02*
X97667029Y-48563921D01*
X97667029Y-48563921D02*
X97668161Y-48562119D01*
X97668863Y-48560111D02*
X97669102Y-48557998D01*
X97669102Y-48557998D02*
X97669102Y-47754434D01*
X97669102Y-47754434D02*
X97678326Y-47672561D01*
X99510237Y-47386498D02*
X99891966Y-47386498D01*
X97749373Y-47525030D02*
X97807633Y-47466770D01*
X98037037Y-47386498D02*
X98418766Y-47386498D01*
X98648170Y-47466770D02*
X98706430Y-47525030D01*
X98706430Y-47525030D02*
X98750264Y-47594793D01*
X98777477Y-47672561D02*
X98786702Y-47754434D01*
X98786702Y-48557998D02*
X98786940Y-48560111D01*
X98786940Y-48560111D02*
X98787642Y-48562119D01*
X98787642Y-48562119D02*
X98788774Y-48563921D01*
X98792080Y-48566557D02*
X98794088Y-48567259D01*
X98794088Y-48567259D02*
X98796202Y-48567498D01*
X99136923Y-48566557D02*
X99138725Y-48565425D01*
X99141361Y-48562119D02*
X99142063Y-48560111D01*
X99142063Y-48560111D02*
X99142302Y-48557998D01*
X99142302Y-47754434D02*
X99151526Y-47672561D01*
X99151526Y-47672561D02*
X99178739Y-47594793D01*
X99178739Y-47594793D02*
X99222573Y-47525030D01*
X99350596Y-47422936D02*
X99428364Y-47395723D01*
X99428364Y-47395723D02*
X99510237Y-47386498D01*
X99891966Y-47386498D02*
X99973839Y-47395723D01*
X99973839Y-47395723D02*
X100051607Y-47422936D01*
X100051607Y-47422936D02*
X100121370Y-47466770D01*
X100223464Y-47594793D02*
X100250677Y-47672561D01*
X100250677Y-47672561D02*
X100259902Y-47754434D01*
X100259902Y-48557998D02*
X100260140Y-48560111D01*
X100260842Y-48562119D02*
X100261974Y-48563921D01*
X100261974Y-48563921D02*
X100263478Y-48565425D01*
X100263478Y-48565425D02*
X100265280Y-48566557D01*
X100265280Y-48566557D02*
X100267288Y-48567259D01*
X100267288Y-48567259D02*
X100269402Y-48567498D01*
X100269402Y-48567498D02*
X100606002Y-48567498D01*
X100606002Y-48567498D02*
X100608115Y-48567259D01*
X100610123Y-48566557D02*
X100611925Y-48565425D01*
X100611925Y-48565425D02*
X100613429Y-48563921D01*
X100615502Y-47754434D02*
X100624726Y-47672561D01*
X100651939Y-47594793D02*
X100695773Y-47525030D01*
X100754033Y-47466770D02*
X100823796Y-47422936D01*
X100823796Y-47422936D02*
X100901564Y-47395723D01*
X100901564Y-47395723D02*
X100983437Y-47386498D01*
X101365166Y-47386498D02*
X101447039Y-47395723D01*
X101594570Y-47466770D02*
X101652830Y-47525030D01*
X101696664Y-47594793D02*
X101723877Y-47672561D01*
X102374764Y-47395723D02*
X102456637Y-47386498D01*
X101723877Y-47672561D02*
X101733102Y-47754434D01*
X101733102Y-47754434D02*
X101733102Y-48557998D01*
X101733102Y-48557998D02*
X101733340Y-48560111D01*
X101733340Y-48560111D02*
X101734042Y-48562119D01*
X101734042Y-48562119D02*
X101735174Y-48563921D01*
X101735174Y-48563921D02*
X101736678Y-48565425D01*
X102125139Y-47594793D02*
X102168973Y-47525030D01*
X102168973Y-47525030D02*
X102227233Y-47466770D01*
X102920239Y-47395723D02*
X102998007Y-47422936D01*
X103642173Y-48115529D02*
X103700433Y-48057269D01*
X102998007Y-47422936D02*
X103067770Y-47466770D01*
X103700433Y-48057269D02*
X103770196Y-48013435D01*
X103067770Y-47466770D02*
X103126030Y-47525030D01*
X103126030Y-47525030D02*
X103169864Y-47594793D01*
X103169864Y-47594793D02*
X103197077Y-47672561D01*
X103197077Y-47672561D02*
X103206302Y-47754434D01*
X103206302Y-48557998D02*
X103206540Y-48560111D01*
X103206540Y-48560111D02*
X103207242Y-48562119D01*
X103554515Y-48567259D02*
X103556523Y-48566557D01*
X103561663Y-48560111D02*
X103561902Y-48557998D01*
X103770196Y-48013435D02*
X103847964Y-47986222D01*
X103929837Y-47976998D02*
X108546406Y-47976998D01*
X108546406Y-47976998D02*
X109335921Y-48766513D01*
%TO.N,CAM4_DAT1-*%
X89451703Y-68992604D02*
X89490520Y-68983745D01*
X90376169Y-69353192D02*
X90482394Y-69302036D01*
X90165985Y-67984016D02*
X90031281Y-67849312D01*
X89415832Y-69009879D02*
X89451703Y-68992604D01*
X89460001Y-71667498D02*
X89460001Y-70167497D01*
%TO.N,CAM4_DAT1+*%
X91721092Y-66159500D02*
X95660300Y-66159500D01*
X90255421Y-67031742D02*
X90686840Y-67463159D01*
%TO.N,CAM4_DAT1-*%
X90963863Y-68260328D02*
X91070088Y-68311483D01*
%TO.N,CAM4_DAT1+*%
X91175883Y-66704707D02*
X91721092Y-66159500D01*
%TO.N,CAM4_DAT1-*%
X91524104Y-68260328D02*
X91616282Y-68186818D01*
%TO.N,CAM4_DAT1+*%
X91102373Y-66796886D02*
X91175883Y-66704707D01*
X91024982Y-67018056D02*
X91051217Y-66903111D01*
%TO.N,CAM4_DAT1-*%
X90620236Y-68438263D02*
X90597405Y-68415431D01*
X91735456Y-67488734D02*
X91661945Y-67396555D01*
%TO.N,CAM4_DAT1+*%
X91024982Y-67135957D02*
X91024982Y-67018056D01*
%TO.N,CAM4_DAT1-*%
X89460001Y-70167497D02*
X89150501Y-69857997D01*
%TO.N,CAM4_DAT1+*%
X90370095Y-68751839D02*
X90352820Y-68715968D01*
X91051217Y-67250902D02*
X91024982Y-67135957D01*
X91302707Y-67936677D02*
X91338579Y-67919402D01*
X91102373Y-67357127D02*
X91051217Y-67250902D01*
X91175883Y-67449306D02*
X91102373Y-67357127D01*
X91394530Y-67674259D02*
X91369707Y-67643130D01*
%TO.N,CAM4_DAT1-*%
X89922153Y-69302036D02*
X90028378Y-69353192D01*
%TO.N,CAM4_DAT1+*%
X91411805Y-67710130D02*
X91394530Y-67674259D01*
X91411805Y-67827578D02*
X91420665Y-67788761D01*
X91263890Y-67945536D02*
X91302707Y-67936677D01*
X91185260Y-67936677D02*
X91224076Y-67945536D01*
%TO.N,CAM4_DAT1-*%
X91417163Y-67096914D02*
X91417163Y-67057100D01*
%TO.N,CAM4_DAT1+*%
X91149388Y-67919402D02*
X91185260Y-67936677D01*
X90140411Y-66935399D02*
X90232590Y-67008910D01*
X90034186Y-66884244D02*
X90140411Y-66935399D01*
X91420665Y-67748947D02*
X91411805Y-67710130D01*
X89801339Y-66858010D02*
X89919241Y-66858009D01*
X91118260Y-67894578D02*
X91149388Y-67919402D01*
X89580169Y-66935400D02*
X89686394Y-66884245D01*
X90107678Y-68961111D02*
X90143549Y-68978386D01*
%TO.N,CAM4_DAT1-*%
X89150501Y-69857997D02*
X89150501Y-69268907D01*
%TO.N,CAM4_DAT1+*%
X89317663Y-67600766D02*
X89291428Y-67485821D01*
X90260997Y-68978386D02*
X90296868Y-68961111D01*
%TO.N,CAM4_DAT1-*%
X89801566Y-67259051D02*
X89840384Y-67250190D01*
X89490520Y-68983745D02*
X89530334Y-68983745D01*
%TO.N,CAM4_DAT1+*%
X89230306Y-68668954D02*
X89336531Y-68617798D01*
X90327997Y-68936287D02*
X90352820Y-68905158D01*
%TO.N,CAM4_DAT1-*%
X90165985Y-67984011D02*
X90165985Y-67984016D01*
%TO.N,CAM4_DAT1+*%
X89882726Y-68742464D02*
X90076549Y-68936287D01*
%TO.N,CAM4_DAT1-*%
X90771137Y-68869513D02*
X90771137Y-68751612D01*
%TO.N,CAM4_DAT1+*%
X90378955Y-68790656D02*
X90370095Y-68751839D01*
%TO.N,CAM4_DAT1-*%
X91616282Y-68186818D02*
X91661945Y-68141154D01*
%TO.N,CAM4_DAT1+*%
X91369707Y-67643130D02*
X91175883Y-67449306D01*
X89569377Y-68591563D02*
X89684322Y-68617798D01*
%TO.N,CAM4_DAT1-*%
X90693747Y-69090683D02*
X90744902Y-68984458D01*
X91735456Y-68048975D02*
X91786611Y-67942750D01*
%TO.N,CAM4_DAT1+*%
X90222180Y-68987246D02*
X90260997Y-68978386D01*
X90686840Y-67463159D02*
X91118260Y-67894578D01*
X89368817Y-67146751D02*
X89442327Y-67054573D01*
X95660300Y-66159500D02*
X95800000Y-66019800D01*
%TO.N,CAM4_DAT1-*%
X90744902Y-68636667D02*
X90693747Y-68530442D01*
%TO.N,CAM4_DAT1+*%
X90143549Y-68978386D02*
X90182366Y-68987246D01*
X89790548Y-68668954D02*
X89882726Y-68742464D01*
X89686394Y-66884245D02*
X89801339Y-66858010D01*
X89336531Y-68617798D02*
X89451476Y-68591563D01*
X90296868Y-68961111D02*
X90327997Y-68936287D01*
X91369707Y-67894578D02*
X91394530Y-67863449D01*
X88460001Y-70167497D02*
X88769501Y-69857997D01*
%TO.N,CAM4_DAT1-*%
X90482394Y-69302036D02*
X90574573Y-69228526D01*
X91661945Y-68141154D02*
X91735456Y-68048975D01*
X89150501Y-69268907D02*
X89384703Y-69034703D01*
%TO.N,CAM4_DAT1+*%
X90327997Y-68684839D02*
X89442327Y-67799171D01*
%TO.N,CAM4_DAT1-*%
X90620236Y-69182862D02*
X90693747Y-69090683D01*
%TO.N,CAM4_DAT1+*%
X89684322Y-68617798D02*
X89790548Y-68668954D01*
X91051217Y-66903111D02*
X91102373Y-66796886D01*
X91394530Y-67863449D02*
X91411805Y-67827578D01*
X88769501Y-69857997D02*
X88769501Y-69111091D01*
X90352820Y-68905158D02*
X90370095Y-68869287D01*
X89138128Y-68742464D02*
X89230306Y-68668954D01*
X89451476Y-68591563D02*
X89569377Y-68591563D01*
%TO.N,CAM4_DAT1-*%
X89692468Y-67368148D02*
X89709742Y-67332277D01*
X89384703Y-69034703D02*
X89415832Y-69009879D01*
%TO.N,CAM4_DAT1+*%
X91420665Y-67788761D02*
X91420665Y-67748947D01*
X90370095Y-68869287D02*
X90378955Y-68830470D01*
%TO.N,CAM4_DAT1-*%
X90028378Y-69353192D02*
X90143323Y-69379427D01*
%TO.N,CAM4_DAT1+*%
X90232590Y-67008910D02*
X90255421Y-67031742D01*
X88769501Y-69111091D02*
X89138128Y-68742464D01*
X91224076Y-67945536D02*
X91263890Y-67945536D01*
X89317662Y-67252976D02*
X89368817Y-67146751D01*
X90378955Y-68830470D02*
X90378955Y-68790656D01*
%TO.N,CAM4_DAT1-*%
X91661945Y-67396555D02*
X91639114Y-67373723D01*
%TO.N,CAM4_DAT1+*%
X89291427Y-67367921D02*
X89317662Y-67252976D01*
X91338579Y-67919402D02*
X91369707Y-67894578D01*
%TO.N,CAM4_DAT1-*%
X91786611Y-67594959D02*
X91735456Y-67488734D01*
X91426023Y-67018283D02*
X91443298Y-66982412D01*
%TO.N,CAM4_DAT1+*%
X89919241Y-66858009D02*
X90034186Y-66884244D01*
%TO.N,CAM4_DAT1-*%
X91878908Y-66540500D02*
X95660300Y-66540500D01*
%TO.N,CAM4_DAT1+*%
X90352820Y-68715968D02*
X90327997Y-68684839D01*
X90076549Y-68936287D02*
X90107678Y-68961111D01*
X89442327Y-67799171D02*
X89368818Y-67706991D01*
X88460001Y-71667498D02*
X88460001Y-70167497D01*
%TO.N,CAM4_DAT1-*%
X89734567Y-67552595D02*
X89709743Y-67521467D01*
%TO.N,CAM4_DAT1+*%
X89368818Y-67706991D02*
X89317663Y-67600766D01*
%TO.N,CAM4_DAT1-*%
X89840384Y-67250190D02*
X89880198Y-67250190D01*
%TO.N,CAM4_DAT1+*%
X90182366Y-68987246D02*
X90222180Y-68987246D01*
X89291428Y-67485821D02*
X89291427Y-67367921D01*
X89442327Y-67054573D02*
X89487990Y-67008911D01*
%TO.N,CAM4_DAT1-*%
X89683609Y-67446779D02*
X89683609Y-67406965D01*
%TO.N,CAM4_DAT1+*%
X89487990Y-67008911D02*
X89580169Y-66935400D01*
%TO.N,CAM4_DAT1-*%
X89709742Y-67332277D02*
X89734566Y-67301149D01*
X89530334Y-68983745D02*
X89569151Y-68992604D01*
X89569151Y-68992604D02*
X89605022Y-69009879D01*
X89605022Y-69009879D02*
X89636151Y-69034703D01*
X91812846Y-67709904D02*
X91786611Y-67594959D01*
X91417163Y-67057100D02*
X91426023Y-67018283D01*
X89636151Y-69034703D02*
X89829974Y-69228526D01*
X89829974Y-69228526D02*
X89922153Y-69302036D01*
X90143323Y-69379427D02*
X90261224Y-69379427D01*
X90261224Y-69379427D02*
X90376169Y-69353192D01*
X90574573Y-69228526D02*
X90620236Y-69182862D01*
X90744902Y-68984458D02*
X90771137Y-68869513D01*
X90871684Y-68186818D02*
X90963863Y-68260328D01*
X90771137Y-68751612D02*
X90744902Y-68636667D01*
X91443298Y-67171602D02*
X91426023Y-67135731D01*
X90693747Y-68530442D02*
X90620236Y-68438263D01*
X90597405Y-68415431D02*
X90165985Y-67984011D01*
X91786611Y-67942750D02*
X91812846Y-67827805D01*
X90031281Y-67849312D02*
X89734567Y-67552595D01*
X89709743Y-67521467D02*
X89692467Y-67485596D01*
X89692467Y-67485596D02*
X89683609Y-67446779D01*
X89683609Y-67406965D02*
X89692468Y-67368148D01*
X89734566Y-67301149D02*
X89765695Y-67276326D01*
X89765695Y-67276326D02*
X89801566Y-67259051D01*
X89880198Y-67250190D02*
X89919014Y-67259051D01*
X89919014Y-67259051D02*
X89954885Y-67276326D01*
X91639114Y-67373723D02*
X91468122Y-67202731D01*
X89954885Y-67276326D02*
X89986014Y-67301149D01*
X89986014Y-67301149D02*
X90871684Y-68186818D01*
X91070088Y-68311483D02*
X91185033Y-68337718D01*
X91185033Y-68337718D02*
X91302934Y-68337718D01*
X91302934Y-68337718D02*
X91417879Y-68311483D01*
X91417879Y-68311483D02*
X91524104Y-68260328D01*
X91812846Y-67827805D02*
X91812846Y-67709904D01*
X91468122Y-67202731D02*
X91443298Y-67171602D01*
X91426023Y-67135731D02*
X91417163Y-67096914D01*
X91443298Y-66982412D02*
X91468122Y-66951283D01*
X91468122Y-66951283D02*
X91878908Y-66540500D01*
X95660300Y-66540500D02*
X95800000Y-66680200D01*
%TO.N,CAM0_CLK+*%
X118588590Y-68557998D02*
X116714079Y-66683487D01*
X118950501Y-68557998D02*
X118588590Y-68557998D01*
X119960001Y-68867498D02*
X119260001Y-68867498D01*
%TO.N,CAM0_CLK-*%
X118746406Y-68176998D02*
X116983487Y-66414079D01*
%TO.N,CAM0_CLK+*%
X119260001Y-68867498D02*
X118950501Y-68557998D01*
X116714079Y-66683487D02*
X116516513Y-66683487D01*
%TO.N,CAM0_CLK-*%
X119960001Y-67867498D02*
X119260001Y-67867498D01*
X119260001Y-67867498D02*
X118950501Y-68176998D01*
X118950501Y-68176998D02*
X118746406Y-68176998D01*
X116983487Y-66414079D02*
X116983487Y-66216513D01*
%TO.N,CAM0_DAT1-*%
X114106905Y-63828633D02*
X114141810Y-63872402D01*
X114106905Y-63562617D02*
X114082615Y-63613055D01*
X115446406Y-65176998D02*
X118150500Y-65176998D01*
X113744488Y-63200200D02*
X113788256Y-63165295D01*
X114082614Y-63778193D02*
X114106905Y-63828633D01*
X112790500Y-62339700D02*
X112790500Y-62521092D01*
X114141808Y-63518847D02*
X114106905Y-63562617D01*
X114199258Y-63452533D02*
X114164355Y-63496303D01*
X114164354Y-63142749D02*
X114199258Y-63186517D01*
X114223548Y-63402095D02*
X114199258Y-63452533D01*
X114236005Y-63291534D02*
X114236005Y-63347516D01*
X114223548Y-63236955D02*
X114236005Y-63291534D01*
X114164355Y-63496303D02*
X114141808Y-63518847D01*
X118460000Y-64867498D02*
X119960001Y-64867498D01*
X114199258Y-63186517D02*
X114223548Y-63236955D01*
X114120586Y-63107845D02*
X114164354Y-63142749D01*
X114070148Y-63083556D02*
X114120586Y-63107845D01*
X118150500Y-65176998D02*
X118460000Y-64867498D01*
X113810802Y-63142750D02*
X113854570Y-63107845D01*
X114015569Y-63071098D02*
X114070148Y-63083556D01*
X113478472Y-63200200D02*
X113528910Y-63224490D01*
X113694050Y-63224490D02*
X113744488Y-63200200D01*
X114141810Y-63872402D02*
X115446406Y-65176998D01*
X114082615Y-63613055D02*
X114070157Y-63667632D01*
X112790500Y-62521092D02*
X113434704Y-63165296D01*
X113959587Y-63071099D02*
X114015569Y-63071098D01*
X112930200Y-62200000D02*
X112790500Y-62339700D01*
X114070157Y-63667632D02*
X114070158Y-63723616D01*
X113528910Y-63224490D02*
X113583489Y-63236947D01*
X114070158Y-63723616D02*
X114082614Y-63778193D01*
X113854570Y-63107845D02*
X113905008Y-63083555D01*
X113583489Y-63236947D02*
X113639471Y-63236947D01*
X113639471Y-63236947D02*
X113694050Y-63224490D01*
X114236005Y-63347516D02*
X114223548Y-63402095D01*
X113905008Y-63083555D02*
X113959587Y-63071099D01*
X113788256Y-63165295D02*
X113810802Y-63142750D01*
X113434704Y-63165296D02*
X113478472Y-63200200D01*
%TO.N,CAM0_DAT0-*%
X116506444Y-64191892D02*
X116468864Y-64205042D01*
X116540156Y-64170709D02*
X116506444Y-64191892D01*
X116589492Y-64108844D02*
X116568309Y-64142556D01*
X116784900Y-63740067D02*
X116745335Y-63744524D01*
X116602642Y-64071264D02*
X116589492Y-64108844D01*
X116611557Y-63878302D02*
X116607100Y-63917867D01*
X119960001Y-61867498D02*
X119260001Y-61867498D01*
X116607100Y-64031700D02*
X116602642Y-64071264D01*
X116624707Y-63840722D02*
X116611557Y-63878302D01*
X116745335Y-63744524D02*
X116707755Y-63757674D01*
X116707755Y-63757674D02*
X116674043Y-63778857D01*
X117140500Y-64209500D02*
X117100935Y-64205042D01*
X116862044Y-63757674D02*
X116824464Y-63744524D01*
X116895756Y-63778857D02*
X116862044Y-63757674D01*
X116607100Y-63917867D02*
X116607100Y-64031700D01*
X116945092Y-63840722D02*
X116923909Y-63807010D01*
X116028908Y-64209500D02*
X115790500Y-63971092D01*
X116958242Y-63878302D02*
X116945092Y-63840722D01*
X118209500Y-63671092D02*
X117671092Y-64209500D01*
X116674043Y-63778857D02*
X116645890Y-63807010D01*
X116967157Y-64071264D02*
X116962700Y-64031700D01*
X118209500Y-62671092D02*
X118209500Y-63671092D01*
X116980307Y-64108844D02*
X116967157Y-64071264D01*
X118703594Y-62176998D02*
X118209500Y-62671092D01*
X116824464Y-63744524D02*
X116784900Y-63740067D01*
X118950501Y-62176998D02*
X118703594Y-62176998D01*
X117063355Y-64191892D02*
X117029643Y-64170709D01*
X117671092Y-64209500D02*
X117140500Y-64209500D01*
X117001490Y-64142556D02*
X116980307Y-64108844D01*
X117029643Y-64170709D02*
X117001490Y-64142556D01*
X116962700Y-64031700D02*
X116962700Y-63917867D01*
X115790500Y-63971092D02*
X115790500Y-62989700D01*
X119260001Y-61867498D02*
X118950501Y-62176998D01*
X116568309Y-64142556D02*
X116540156Y-64170709D01*
X116645890Y-63807010D02*
X116624707Y-63840722D01*
X117100935Y-64205042D02*
X117063355Y-64191892D01*
X116923909Y-63807010D02*
X116895756Y-63778857D01*
X116962700Y-63917867D02*
X116958242Y-63878302D01*
X116468864Y-64205042D02*
X116429300Y-64209500D01*
X116429300Y-64209500D02*
X116028908Y-64209500D01*
X115790500Y-62989700D02*
X115930200Y-62850000D01*
%TO.N,CAM0_DAT0+*%
X115409500Y-64128908D02*
X115409500Y-62989700D01*
X115871092Y-64590500D02*
X115409500Y-64128908D01*
X117828908Y-64590500D02*
X115871092Y-64590500D01*
X118590500Y-63828908D02*
X117828908Y-64590500D01*
X118590500Y-62828908D02*
X118590500Y-63828908D01*
X118861410Y-62557998D02*
X118590500Y-62828908D01*
X119260001Y-62867498D02*
X118950501Y-62557998D01*
X119960001Y-62867498D02*
X119260001Y-62867498D01*
X118950501Y-62557998D02*
X118861410Y-62557998D01*
X115409500Y-62989700D02*
X115269800Y-62850000D01*
%TO.N,CAM0_DAT1+*%
X118460000Y-65867498D02*
X119960001Y-65867498D01*
X118150500Y-65557998D02*
X118460000Y-65867498D01*
X112409500Y-62678908D02*
X115288590Y-65557998D01*
X115288590Y-65557998D02*
X118150500Y-65557998D01*
X112409500Y-62339700D02*
X112409500Y-62678908D01*
X112269800Y-62200000D02*
X112409500Y-62339700D01*
D37*
%TO.N,GND*%
X107860001Y-53767498D02*
X107860001Y-55289999D01*
X107860001Y-55289999D02*
X107850000Y-55300000D01*
X110860001Y-53767498D02*
X110860001Y-55339999D01*
X110860001Y-55339999D02*
X110850000Y-55350000D01*
D36*
X113860001Y-53767498D02*
X113860001Y-51789999D01*
X113860001Y-51789999D02*
X114700000Y-50950000D01*
D38*
%TO.N,CAM1_DAT1-*%
X108860001Y-53767498D02*
X108860001Y-54467498D01*
%TO.N,CAM1_DAT1+*%
X109860001Y-53767498D02*
X109860001Y-54467498D01*
X109550501Y-55568907D02*
X108940500Y-56178908D01*
%TO.N,CAM1_DAT1-*%
X109169501Y-54776998D02*
X109169501Y-55411091D01*
%TO.N,CAM1_DAT1+*%
X109860001Y-54467498D02*
X109550501Y-54776998D01*
%TO.N,CAM1_DAT1-*%
X109169501Y-55411091D02*
X108559500Y-56021092D01*
X108559500Y-56021092D02*
X108559500Y-57493755D01*
%TO.N,CAM1_DAT1+*%
X109550501Y-54776998D02*
X109550501Y-55568907D01*
X108940500Y-56178908D02*
X108940500Y-57335939D01*
X108940500Y-57335939D02*
X109191675Y-57587114D01*
X109191675Y-57587114D02*
X109389241Y-57587114D01*
%TO.N,CAM1_DAT1-*%
X108860001Y-54467498D02*
X109169501Y-54776998D01*
X108559500Y-57493755D02*
X108922267Y-57856522D01*
X108922267Y-57856522D02*
X108922267Y-58054088D01*
%TO.N,CAM1_CLK-*%
X111359500Y-57828908D02*
X112021092Y-58490500D01*
%TO.N,CAM1_CLK+*%
X112560300Y-58109500D02*
X112700000Y-57969800D01*
X111740500Y-57671092D02*
X112178908Y-58109500D01*
X112178908Y-58109500D02*
X112560300Y-58109500D01*
%TO.N,CAM1_CLK-*%
X112021092Y-58490500D02*
X112560300Y-58490500D01*
X112560300Y-58490500D02*
X112700000Y-58630200D01*
%TO.N,CAM1_CLK+*%
X111740500Y-56828908D02*
X111740500Y-57671092D01*
%TO.N,CAM1_CLK-*%
X111359500Y-56671092D02*
X111359500Y-57828908D01*
%TO.N,CAM1_CLK+*%
X112550501Y-56018907D02*
X111740500Y-56828908D01*
%TO.N,CAM1_CLK-*%
X112169501Y-55861091D02*
X111359500Y-56671092D01*
%TO.N,CAM1_CLK+*%
X112860001Y-55267499D02*
X112550501Y-55576999D01*
%TO.N,CAM1_CLK-*%
X111860001Y-53767498D02*
X111860001Y-55267499D01*
%TO.N,CAM1_CLK+*%
X112860001Y-53767498D02*
X112860001Y-55267499D01*
X112550501Y-55576999D02*
X112550501Y-56018907D01*
%TO.N,CAM1_CLK-*%
X111860001Y-55267499D02*
X112169501Y-55576999D01*
X112169501Y-55576999D02*
X112169501Y-55861091D01*
%TO.N,CAM1_DAT0-*%
X114276865Y-50053727D02*
X115483927Y-50053727D01*
X112971092Y-51359500D02*
X114276865Y-50053727D01*
X106169501Y-52757998D02*
X106169501Y-52311091D01*
X107121092Y-51359500D02*
X112971092Y-51359500D01*
X105860001Y-53067498D02*
X106169501Y-52757998D01*
X105860001Y-53767498D02*
X105860001Y-53067498D01*
X115989701Y-50559501D02*
X116180200Y-50750000D01*
X106169501Y-52311091D02*
X107121092Y-51359500D01*
X115483927Y-50053727D02*
X115710299Y-50280099D01*
X115710299Y-50280099D02*
X115745353Y-50280099D01*
X115745353Y-50280099D02*
X115989701Y-50524447D01*
X115989701Y-50524447D02*
X115989701Y-50559501D01*
D39*
%TO.N,GND*%
X99560001Y-73767498D02*
X99417498Y-73767498D01*
X99417498Y-73767498D02*
X98650000Y-73000000D01*
D38*
%TO.N,CAM3_DAT1+*%
X91760300Y-48390500D02*
X91900000Y-48530200D01*
X88760001Y-53767498D02*
X88760001Y-52267497D01*
X88760001Y-52267497D02*
X88450501Y-51957997D01*
X88450501Y-51957997D02*
X88450501Y-50246406D01*
X88450501Y-50246406D02*
X90306407Y-48390500D01*
X90306407Y-48390500D02*
X91760300Y-48390500D01*
%TO.N,CAM3_DAT1-*%
X88069501Y-50088590D02*
X90148591Y-48009500D01*
X88069501Y-51957997D02*
X88069501Y-50088590D01*
X87760001Y-52267497D02*
X88069501Y-51957997D01*
X87760001Y-53767498D02*
X87760001Y-52267497D01*
X90148591Y-48009500D02*
X91760300Y-48009500D01*
X91760300Y-48009500D02*
X91900000Y-47869800D01*
%TO.N,MCU_USB1_D_P*%
X89221092Y-61190500D02*
X95621092Y-61190500D01*
X87659500Y-59628908D02*
X89221092Y-61190500D01*
X87659500Y-58989700D02*
X87659500Y-59628908D01*
X87519800Y-58850000D02*
X87659500Y-58989700D01*
X95621092Y-61190500D02*
X96959500Y-62528908D01*
X96959500Y-62528908D02*
X96959500Y-86810300D01*
X96959500Y-86810300D02*
X96819800Y-86950000D01*
%TO.N,MCU_USB1_D_N*%
X88180200Y-58850000D02*
X88040500Y-58989700D01*
X95778908Y-60809500D02*
X97340500Y-62371092D01*
X88040500Y-58989700D02*
X88040500Y-59471092D01*
X88040500Y-59471092D02*
X89378908Y-60809500D01*
X89378908Y-60809500D02*
X95778908Y-60809500D01*
X97340500Y-62371092D02*
X97340500Y-86810300D01*
X97340500Y-86810300D02*
X97480200Y-86950000D01*
%TO.N,CAM5_CLK+*%
X88328908Y-63709500D02*
X95260300Y-63709500D01*
X95260300Y-63709500D02*
X95400000Y-63569800D01*
%TO.N,CAM5_CLK-*%
X88171092Y-64090500D02*
X95260300Y-64090500D01*
X95260300Y-64090500D02*
X95400000Y-64230200D01*
X79360001Y-59567498D02*
X79669501Y-59257998D01*
X80038590Y-59257998D02*
X81371092Y-60590500D01*
X84671092Y-60590500D02*
X88171092Y-64090500D01*
%TO.N,CAM5_CLK+*%
X78660001Y-58567498D02*
X79360001Y-58567498D01*
X85885170Y-60617721D02*
X85909994Y-60648850D01*
X85494150Y-60732393D02*
X85530021Y-60715118D01*
X79360001Y-58567498D02*
X79669501Y-58876998D01*
X85909994Y-60648850D02*
X85927269Y-60684721D01*
X85812597Y-61193189D02*
X88328908Y-63709500D01*
X85885171Y-60869169D02*
X85812596Y-60941741D01*
X85812596Y-60941741D02*
X85787772Y-60972869D01*
X85787772Y-60972869D02*
X85770498Y-61008742D01*
X85787773Y-61162061D02*
X85812597Y-61193189D01*
X85770498Y-61008742D02*
X85761638Y-61047557D01*
%TO.N,CAM5_CLK-*%
X79669501Y-59257998D02*
X80038590Y-59257998D01*
%TO.N,CAM5_CLK+*%
X85761639Y-61087373D02*
X85770497Y-61126188D01*
X85770497Y-61126188D02*
X85787773Y-61162061D01*
%TO.N,CAM5_CLK-*%
X78660001Y-59567498D02*
X79360001Y-59567498D01*
%TO.N,CAM5_CLK+*%
X85927269Y-60802169D02*
X85909994Y-60838040D01*
X85927269Y-60684721D02*
X85936128Y-60723537D01*
X85936128Y-60763351D02*
X85927269Y-60802169D01*
X85415520Y-60741254D02*
X85455334Y-60741254D01*
X85909994Y-60838040D02*
X85885171Y-60869169D01*
X85818171Y-60575623D02*
X85854042Y-60592897D01*
X85761638Y-61047557D02*
X85761639Y-61087373D01*
X85854042Y-60592897D02*
X85885170Y-60617721D01*
X85739540Y-60566764D02*
X85779354Y-60566763D01*
X85779354Y-60566763D02*
X85818171Y-60575623D01*
X80196406Y-58876998D02*
X81528908Y-60209500D01*
X85700723Y-60575622D02*
X85739540Y-60566764D01*
X85664852Y-60592898D02*
X85700723Y-60575622D01*
X85633724Y-60617722D02*
X85664852Y-60592898D01*
X85561150Y-60690295D02*
X85633724Y-60617722D01*
X85530021Y-60715118D02*
X85561150Y-60690295D01*
X85455334Y-60741254D02*
X85494150Y-60732393D01*
X81528908Y-60209500D02*
X84828908Y-60209500D01*
X85936128Y-60723537D02*
X85936128Y-60763351D01*
X79669501Y-58876998D02*
X80196406Y-58876998D01*
X85376702Y-60732393D02*
X85415520Y-60741254D01*
X85340831Y-60715118D02*
X85376702Y-60732393D01*
X85309704Y-60690296D02*
X85340831Y-60715118D01*
%TO.N,CAM5_CLK-*%
X81371092Y-60590500D02*
X84671092Y-60590500D01*
%TO.N,CAM5_CLK+*%
X84828908Y-60209500D02*
X85309704Y-60690296D01*
%TO.N,CAM5_DAT1+*%
X80469502Y-61876998D02*
X80160002Y-61567498D01*
X81633437Y-61872540D02*
X81595857Y-61859390D01*
X81072658Y-61838207D02*
X81038946Y-61859390D01*
X81512809Y-61776342D02*
X81499659Y-61738762D01*
X81121994Y-61776342D02*
X81100811Y-61810054D01*
X81139602Y-61596565D02*
X81139602Y-61699198D01*
X81495202Y-61699198D02*
X81495202Y-61596565D01*
X81206545Y-61457555D02*
X81178392Y-61485708D01*
X81240257Y-61436372D02*
X81206545Y-61457555D01*
X81394546Y-61436372D02*
X81356966Y-61423222D01*
X81456411Y-61485708D02*
X81428258Y-61457555D01*
X81428258Y-61457555D02*
X81394546Y-61436372D01*
X81356966Y-61423222D02*
X81317402Y-61418765D01*
X81317402Y-61418765D02*
X81277837Y-61423222D01*
X82613320Y-61876998D02*
X81673002Y-61876998D01*
X81100811Y-61810054D02*
X81072658Y-61838207D01*
X81139602Y-61699198D02*
X81135144Y-61738762D01*
X81673002Y-61876998D02*
X81633437Y-61872540D01*
X81178392Y-61485708D02*
X81157209Y-61519420D01*
X83345822Y-62609500D02*
X82613320Y-61876998D01*
X80961802Y-61876998D02*
X80469502Y-61876998D01*
X81038946Y-61859390D02*
X81001366Y-61872540D01*
X83700000Y-62469800D02*
X83560300Y-62609500D01*
X81135144Y-61738762D02*
X81121994Y-61776342D01*
X81595857Y-61859390D02*
X81562145Y-61838207D01*
X81562145Y-61838207D02*
X81533992Y-61810054D01*
X81144059Y-61557000D02*
X81139602Y-61596565D01*
X81533992Y-61810054D02*
X81512809Y-61776342D01*
X83560300Y-62609500D02*
X83345822Y-62609500D01*
X81490744Y-61557000D02*
X81477594Y-61519420D01*
X81001366Y-61872540D02*
X80961802Y-61876998D01*
X81277837Y-61423222D02*
X81240257Y-61436372D01*
X81499659Y-61738762D02*
X81495202Y-61699198D01*
X81157209Y-61519420D02*
X81144059Y-61557000D01*
X81495202Y-61596565D02*
X81490744Y-61557000D01*
X81477594Y-61519420D02*
X81456411Y-61485708D01*
X80160002Y-61567498D02*
X78660001Y-61567498D01*
%TO.N,CAM5_DAT1-*%
X82455504Y-62257998D02*
X83188006Y-62990500D01*
X83188006Y-62990500D02*
X83560300Y-62990500D01*
X80469502Y-62257998D02*
X82455504Y-62257998D01*
X78660001Y-62567498D02*
X80160002Y-62567498D01*
X80160002Y-62567498D02*
X80469502Y-62257998D01*
X83560300Y-62990500D02*
X83700000Y-63130200D01*
D36*
%TO.N,/USB/CONN_CC2*%
X88100000Y-41200000D02*
X89050000Y-41200000D01*
X87200000Y-40300000D02*
X88100000Y-41200000D01*
X89050000Y-41200000D02*
X93150000Y-37100000D01*
X93150000Y-37100000D02*
X98900000Y-37100000D01*
X98900000Y-37100000D02*
X100300000Y-35700000D01*
%TO.N,CAM2_TRIGGER*%
X99700000Y-78850000D02*
X99700000Y-85000000D01*
X103560001Y-71667498D02*
X103560001Y-74989999D01*
X103560001Y-74989999D02*
X99700000Y-78850000D01*
%TO.N,CAM2_SDA_1V8*%
X101560001Y-71667498D02*
X101560001Y-73889999D01*
X101560001Y-73889999D02*
X101550000Y-73900000D01*
%TO.N,CAM2_SCL_1V8*%
X102560001Y-71667498D02*
X102560001Y-74039999D01*
X102560001Y-74039999D02*
X101750000Y-74850000D01*
%TO.N,CAM2_ENABLE*%
X100300000Y-79050000D02*
X104560001Y-74789999D01*
X100300000Y-80200000D02*
X100300000Y-79050000D01*
X104560001Y-74789999D02*
X104560001Y-71667498D01*
%TO.N,/MCU/IMU_MISO*%
X105150000Y-78500000D02*
X105150000Y-80000000D01*
X104100000Y-77450000D02*
X105150000Y-78500000D01*
%TO.N,CAM1_TRIGGER*%
X121550000Y-55750000D02*
X121550000Y-51300000D01*
X124800000Y-47680000D02*
X121550000Y-50930000D01*
X121550000Y-50930000D02*
X121550000Y-51300000D01*
D37*
%TO.N,+3V3*%
X79460001Y-71460001D02*
X78250000Y-70250000D01*
X79460001Y-71667498D02*
X79460001Y-71460001D01*
X78250000Y-70250000D02*
X77900000Y-70250000D01*
D36*
%TO.N,FRAME_TRIGGER*%
X62577271Y-62027271D02*
X80050000Y-79500000D01*
X62213637Y-62027271D02*
X62577271Y-62027271D01*
X80050000Y-79500000D02*
X80300000Y-79500000D01*
D37*
%TO.N,+1V8*%
X59050000Y-91200000D02*
X68550000Y-91200000D01*
D36*
%TO.N,/MCU/SWDIO/MCU_GPIO6/FC6*%
X40080000Y-98130000D02*
X36150000Y-94200000D01*
X41350000Y-98130000D02*
X40080000Y-98130000D01*
X36150000Y-94200000D02*
X36150000Y-92120000D01*
X36150000Y-92120000D02*
X34900000Y-90870000D01*
%TO.N,/MCU/SWDCLK/MCU_GPIO5/FC6*%
X42620000Y-97920000D02*
X38900000Y-94200000D01*
X42620000Y-98130000D02*
X42620000Y-97920000D01*
X38900000Y-94200000D02*
X38900000Y-92330000D01*
X38900000Y-92330000D02*
X37440000Y-90870000D01*
%TO.N,/MCU/MCU_GPIO4/FC6*%
X50100000Y-94200000D02*
X49550000Y-94200000D01*
X49550000Y-94200000D02*
X49500000Y-94150000D01*
X50300000Y-94200000D02*
X50100000Y-94200000D01*
X76450000Y-94200000D02*
X50300000Y-94200000D01*
%TO.N,/Interfaces/FAN_PWM_5V*%
X45400000Y-95310000D02*
X44390000Y-95310000D01*
X44390000Y-95310000D02*
X41400000Y-92320000D01*
%TO.N,/Interfaces/FAN_TACH_5V*%
X45400000Y-94040000D02*
X41400000Y-90040000D01*
X41400000Y-90040000D02*
X41400000Y-89780000D01*
X45400000Y-94040000D02*
X49040000Y-90400000D01*
X49040000Y-90400000D02*
X50900000Y-90400000D01*
%TO.N,/Interfaces/FAN_PWM_5V*%
X45400000Y-95310000D02*
X49390000Y-91320000D01*
X49390000Y-91320000D02*
X51080000Y-91320000D01*
%TO.N,/MCU/MCU_GPIO1*%
X47450000Y-88150000D02*
X46250000Y-86950000D01*
X43200000Y-86950000D02*
X42200000Y-85950000D01*
X42200000Y-85950000D02*
X37600000Y-85950000D01*
X47450000Y-88800000D02*
X47450000Y-88150000D01*
X46250000Y-86950000D02*
X43200000Y-86950000D01*
X37600000Y-85950000D02*
X37440000Y-85790000D01*
%TO.N,/MCU/MCU_GPIO0*%
X46325000Y-84375000D02*
X43725000Y-84375000D01*
X43725000Y-84375000D02*
X42600000Y-83250000D01*
X42600000Y-83250000D02*
X37440000Y-83250000D01*
X46325000Y-84375000D02*
X48100000Y-86150000D01*
X48100000Y-86150000D02*
X48100000Y-89750000D01*
%TO.N,/Interfaces/FAN_PWM_5V*%
X55650000Y-88800000D02*
X53600000Y-88800000D01*
X53600000Y-88800000D02*
X51080000Y-91320000D01*
%TO.N,/Interfaces/FAN_TACH_5V*%
X57200000Y-88400000D02*
X59400000Y-88400000D01*
X50900000Y-90400000D02*
X53350000Y-87950000D01*
X59400000Y-88400000D02*
X59900000Y-87900000D01*
X53350000Y-87950000D02*
X56750000Y-87950000D01*
X56750000Y-87950000D02*
X57200000Y-88400000D01*
%TO.N,/Interfaces/FAN_PWM*%
X57700000Y-86200000D02*
X57700000Y-87750000D01*
X57700000Y-87750000D02*
X57600000Y-87850000D01*
X53600000Y-76700000D02*
X53600000Y-82100000D01*
X53600000Y-76700000D02*
X53600000Y-73700000D01*
X53600000Y-73700000D02*
X56650000Y-70650000D01*
X53600000Y-82100000D02*
X57700000Y-86200000D01*
%TO.N,/Power/nFORCE_RECOVERY*%
X60600000Y-66000000D02*
X61350000Y-66750000D01*
X60600000Y-65800000D02*
X60600000Y-66000000D01*
%TO.N,NX_MCU_BOOT*%
X61950000Y-63650000D02*
X78300000Y-80000000D01*
%TO.N,NX_MCU_GPIO*%
X78450000Y-79100000D02*
X78700000Y-79100000D01*
X61900000Y-62550000D02*
X78450000Y-79100000D01*
%TO.N,/Power/nFORCE_RECOVERY*%
X60875000Y-62125000D02*
X60600000Y-62400000D01*
X60950000Y-62050000D02*
X60875000Y-62125000D01*
X61350000Y-62050000D02*
X60950000Y-62050000D01*
X61400000Y-62000000D02*
X61350000Y-62050000D01*
D37*
%TO.N,GND*%
X120732502Y-66867498D02*
X121700000Y-65900000D01*
X119960001Y-66867498D02*
X120732502Y-66867498D01*
X119960001Y-69867498D02*
X121432502Y-69867498D01*
X121432502Y-69867498D02*
X122850000Y-68450000D01*
D36*
%TO.N,CAM0_ENABLE*%
X119960001Y-70867498D02*
X123582502Y-70867498D01*
X123582502Y-70867498D02*
X123850000Y-70600000D01*
%TO.N,CAM0_TRIGGER*%
X119960001Y-71867498D02*
X122482502Y-71867498D01*
X122482502Y-71867498D02*
X122500000Y-71850000D01*
%TO.N,CAM0_SCL_1V8*%
X119960001Y-72867498D02*
X121432502Y-72867498D01*
X121432502Y-72867498D02*
X121750000Y-72550000D01*
%TO.N,CAM0_SDA_1V8*%
X119960001Y-73867498D02*
X121282502Y-73867498D01*
X121282502Y-73867498D02*
X121750000Y-73400000D01*
%TO.N,/Power/POWER_EN*%
X49750000Y-74500000D02*
X54800000Y-69450000D01*
X49750000Y-76250000D02*
X49750000Y-74500000D01*
X54800000Y-69450000D02*
X54800000Y-56600000D01*
%TO.N,CAM0_TRIGGER*%
X108500000Y-78100000D02*
X107050000Y-79550000D01*
X115500000Y-78100000D02*
X108500000Y-78100000D01*
X117213749Y-76386251D02*
X115500000Y-78100000D01*
X119960001Y-71867498D02*
X118160001Y-71867498D01*
X117213749Y-72813749D02*
X117213749Y-76386251D01*
X118160001Y-71867498D02*
X117213749Y-72813749D01*
X107050000Y-79550000D02*
X107050000Y-84950000D01*
%TO.N,CAM0_ENABLE*%
X108500000Y-77350000D02*
X106350000Y-79500000D01*
X116538750Y-76111250D02*
X115300000Y-77350000D01*
X116538750Y-72488750D02*
X116538750Y-76111250D01*
X119960001Y-70867498D02*
X118160001Y-70867498D01*
X115300000Y-77350000D02*
X108500000Y-77350000D01*
X118160001Y-70867498D02*
X116538750Y-72488750D01*
X106350000Y-79500000D02*
X106350000Y-84650000D01*
%TO.N,/MCU/IMU_CS*%
X112282601Y-81082601D02*
X112282601Y-85767399D01*
X112000000Y-80800000D02*
X112282601Y-81082601D01*
X112282601Y-85767399D02*
X107550000Y-90500000D01*
X107550000Y-90500000D02*
X91700000Y-90500000D01*
%TO.N,/MCU/MCU_GPIO0*%
X91150000Y-94850000D02*
X54400000Y-94850000D01*
X94300000Y-91700000D02*
X91150000Y-94850000D01*
X94350000Y-91700000D02*
X94300000Y-91700000D01*
%TO.N,/MCU/MCU_GPIO2*%
X95598693Y-91400217D02*
X95598693Y-91901307D01*
%TO.N,/MCU/MCU_GPIO4/FC6*%
X76475000Y-94175000D02*
X76450000Y-94200000D01*
D38*
%TO.N,GBE_MDI0_N*%
X57626001Y-51323999D02*
X57626001Y-52364090D01*
X58288155Y-50453708D02*
X58345036Y-50489449D01*
X57655711Y-51193833D02*
X57633523Y-51257242D01*
X57626001Y-52364090D02*
X57678522Y-52405974D01*
X58157989Y-50423999D02*
X58224746Y-50431520D01*
X57738955Y-51089449D02*
X57691452Y-51136952D01*
X57795836Y-51053708D02*
X57738955Y-51089449D01*
X57691452Y-51136952D02*
X57655711Y-51193833D01*
X57859245Y-51031520D02*
X57795836Y-51053708D01*
X58392539Y-50536952D02*
X58428280Y-50593833D01*
X58388546Y-52966894D02*
X58388547Y-53034074D01*
X58450468Y-50790755D02*
X58428280Y-50854164D01*
X57926001Y-50423999D02*
X58157989Y-50423999D01*
X58428280Y-50854164D02*
X58392539Y-50911045D01*
X58457989Y-50723999D02*
X58450468Y-50790755D01*
X58450468Y-50657242D02*
X58457989Y-50723999D01*
X58709601Y-52511264D02*
X58680453Y-52571789D01*
X58638568Y-52624312D02*
X58474528Y-52788353D01*
X57739049Y-52435122D02*
X57804542Y-52450070D01*
X58392539Y-50911045D02*
X58345036Y-50958548D01*
X57633523Y-51257242D02*
X57626001Y-51323999D01*
X57691452Y-50311045D02*
X57738955Y-50358548D01*
X58266827Y-52158164D02*
X58327353Y-52129016D01*
X57655711Y-50254164D02*
X57691452Y-50311045D01*
X58428280Y-50593833D02*
X58450468Y-50657242D01*
X57633523Y-50190755D02*
X57655711Y-50254164D01*
X58515001Y-48757498D02*
X57626001Y-49646498D01*
X58403494Y-52901400D02*
X58388546Y-52966894D01*
X58432643Y-53160094D02*
X58474529Y-53212618D01*
X58224746Y-51016477D02*
X58157989Y-51023999D01*
X58345036Y-50489449D02*
X58392539Y-50536952D01*
X57626001Y-50123999D02*
X57633523Y-50190755D01*
X58388547Y-53034074D02*
X58403494Y-53099568D01*
X58345036Y-50958548D02*
X58288155Y-50994289D01*
X57626001Y-49646498D02*
X57626001Y-50123999D01*
X57738955Y-50358548D02*
X57795836Y-50394289D01*
X57795836Y-50394289D02*
X57859245Y-50416477D01*
X57678522Y-52405974D02*
X57739049Y-52435122D01*
X58157989Y-51023999D02*
X57926001Y-51023999D01*
X57926001Y-51023999D02*
X57859245Y-51031520D01*
X58680454Y-52252571D02*
X58709600Y-52313096D01*
X57859245Y-50416477D02*
X57926001Y-50423999D01*
X58638568Y-52200048D02*
X58680454Y-52252571D01*
X58224746Y-50431520D02*
X58288155Y-50453708D01*
X58525521Y-52129016D02*
X58586045Y-52158163D01*
X59645922Y-54234011D02*
X59693488Y-54234011D01*
X58288155Y-50994289D02*
X58224746Y-51016477D01*
X57804542Y-52450070D02*
X57871722Y-52450071D01*
X57871722Y-52450071D02*
X57937215Y-52435121D01*
X57937215Y-52435121D02*
X57997742Y-52405975D01*
X58327353Y-52129016D02*
X58392847Y-52114068D01*
X58392847Y-52114068D02*
X58460025Y-52114067D01*
X57997742Y-52405975D02*
X58050265Y-52364090D01*
X58050265Y-52364090D02*
X58214304Y-52200048D01*
X58214304Y-52200048D02*
X58266827Y-52158164D01*
X58474529Y-53212618D02*
X59495922Y-54234011D01*
X58460025Y-52114067D02*
X58525521Y-52129016D01*
X58586045Y-52158163D02*
X58638568Y-52200048D01*
X58709600Y-52313096D02*
X58724550Y-52378591D01*
X58724550Y-52378591D02*
X58724549Y-52445769D01*
X58724549Y-52445769D02*
X58709601Y-52511264D01*
X58680453Y-52571789D02*
X58638568Y-52624312D01*
X58474528Y-52788353D02*
X58432642Y-52840874D01*
X58432642Y-52840874D02*
X58403494Y-52901400D01*
X58403494Y-53099568D02*
X58432643Y-53160094D01*
X59495922Y-54234011D02*
X59645922Y-54234011D01*
%TO.N,GBE_MDI3_N*%
X67786001Y-52836001D02*
X67793523Y-52902757D01*
X68452683Y-52506291D02*
X68389274Y-52528479D01*
X67955836Y-53106291D02*
X68019245Y-53128479D01*
X67793523Y-52769244D02*
X67786001Y-52836001D01*
X67898955Y-52601451D02*
X67851452Y-52648954D01*
X67955836Y-52565710D02*
X67898955Y-52601451D01*
X67786001Y-51636001D02*
X67793523Y-51702757D01*
X68322517Y-51936001D02*
X68389274Y-51943522D01*
X68086001Y-52536001D02*
X68019245Y-52543522D01*
X67898955Y-51870550D02*
X67955836Y-51906291D01*
X67955836Y-51906291D02*
X68019245Y-51928479D01*
X68389274Y-52528479D02*
X68322517Y-52536001D01*
X68509564Y-52001451D02*
X68557067Y-52048954D01*
X67793523Y-52902757D02*
X67815711Y-52966166D01*
X68019245Y-51928479D02*
X68086001Y-51936001D01*
X68019245Y-53128479D02*
X68086001Y-53136001D01*
X67851452Y-52648954D02*
X67815711Y-52705835D01*
X67898955Y-53070550D02*
X67955836Y-53106291D01*
X68509564Y-52470550D02*
X68452683Y-52506291D01*
X68557067Y-52423047D02*
X68509564Y-52470550D01*
X67815711Y-52705835D02*
X67793523Y-52769244D01*
X68592808Y-52366166D02*
X68557067Y-52423047D01*
X68622517Y-52236001D02*
X68614996Y-52302757D01*
X67786001Y-49646498D02*
X67786001Y-51636001D01*
X68614996Y-52169244D02*
X68622517Y-52236001D01*
X68592808Y-53305835D02*
X68614996Y-53369244D01*
X67815711Y-51766166D02*
X67851452Y-51823047D01*
X67955836Y-53765710D02*
X67898955Y-53801451D01*
X67793523Y-51702757D02*
X67815711Y-51766166D01*
X68675001Y-48757498D02*
X67786001Y-49646498D01*
X68019245Y-52543522D02*
X67955836Y-52565710D01*
X68614996Y-52302757D02*
X68592808Y-52366166D01*
X67851452Y-53023047D02*
X67898955Y-53070550D01*
X68389274Y-51943522D02*
X68452683Y-51965710D01*
X68322517Y-52536001D02*
X68086001Y-52536001D01*
X67815711Y-52966166D02*
X67851452Y-53023047D01*
X68086001Y-53136001D02*
X68322517Y-53136001D01*
X68086001Y-51936001D02*
X68322517Y-51936001D01*
X67851452Y-51823047D02*
X67898955Y-51870550D01*
X68557067Y-53248954D02*
X68592808Y-53305835D01*
X68557067Y-52048954D02*
X68592808Y-52105835D01*
X64850618Y-58457998D02*
X64430200Y-58878416D01*
X68592808Y-52105835D02*
X68614996Y-52169244D01*
X68389274Y-53728479D02*
X68322517Y-53736001D01*
X68452683Y-51965710D02*
X68509564Y-52001451D01*
X68322517Y-53136001D02*
X68389274Y-53143522D01*
X68389274Y-53143522D02*
X68452683Y-53165710D01*
X68452683Y-53165710D02*
X68509564Y-53201451D01*
X68509564Y-53201451D02*
X68557067Y-53248954D01*
X68614996Y-53369244D02*
X68622517Y-53436001D01*
X68622517Y-53436001D02*
X68614996Y-53502757D01*
X68614996Y-53502757D02*
X68592808Y-53566166D01*
X68592808Y-53566166D02*
X68557067Y-53623047D01*
X68557067Y-53623047D02*
X68509564Y-53670550D01*
X68509564Y-53670550D02*
X68452683Y-53706291D01*
X68452683Y-53706291D02*
X68389274Y-53728479D01*
X68322517Y-53736001D02*
X68086001Y-53736001D01*
X67786001Y-56810906D02*
X66138909Y-58457998D01*
X68086001Y-53736001D02*
X68019245Y-53743522D01*
X68019245Y-53743522D02*
X67955836Y-53765710D01*
X67898955Y-53801451D02*
X67851452Y-53848954D01*
X67851452Y-53848954D02*
X67815711Y-53905835D01*
X67815711Y-53905835D02*
X67793523Y-53969244D01*
X67793523Y-53969244D02*
X67786001Y-54036001D01*
X67786001Y-54036001D02*
X67786001Y-56810906D01*
X66138909Y-58457998D02*
X64850618Y-58457998D01*
X64430200Y-58878416D02*
X64430200Y-59000000D01*
%TO.N,GBE_MDI1_N*%
X61282004Y-53709456D02*
X61342531Y-53738604D01*
X61229483Y-53667572D02*
X61282004Y-53709456D01*
X61187597Y-53295830D02*
X61158448Y-53356354D01*
X61187596Y-53615048D02*
X61229483Y-53667572D01*
X60380955Y-52819044D02*
X60433476Y-52860928D01*
X61158448Y-53554522D02*
X61187596Y-53615048D01*
X61158448Y-53356354D02*
X61143499Y-53421849D01*
X61143500Y-53489029D02*
X61158448Y-53554522D01*
X60948369Y-52675891D02*
X61000892Y-52634006D01*
X61143499Y-53421849D02*
X61143500Y-53489029D01*
X61229482Y-53243307D02*
X61187597Y-53295830D01*
X61372633Y-53100155D02*
X61229482Y-53243307D01*
X61443666Y-52987107D02*
X61414518Y-53047632D01*
X61458614Y-52921612D02*
X61443666Y-52987107D01*
X60752696Y-52860929D02*
X60805219Y-52819044D01*
X61909946Y-53453387D02*
X61975441Y-53438438D01*
X61414519Y-52728414D02*
X61443665Y-52788939D01*
X62292194Y-53835635D02*
X62263046Y-53896160D01*
X61414518Y-53047632D02*
X61372633Y-53100155D01*
X61372633Y-52675891D02*
X61414519Y-52728414D01*
X60166001Y-49646498D02*
X60166001Y-52604090D01*
X61320112Y-52634007D02*
X61372633Y-52675891D01*
X60433476Y-52860928D02*
X60494003Y-52890076D01*
X61458615Y-52854434D02*
X61458614Y-52921612D01*
X61055001Y-48757498D02*
X60166001Y-49646498D01*
X62168640Y-53482535D02*
X62221161Y-53524419D01*
X60692169Y-52890075D02*
X60752696Y-52860929D01*
X60166001Y-52604090D02*
X60380955Y-52819044D01*
X60494003Y-52890076D02*
X60559496Y-52905024D01*
X62006976Y-54204882D02*
X61992027Y-54270377D01*
X61259586Y-52604859D02*
X61320112Y-52634007D01*
X61443665Y-52788939D02*
X61458615Y-52854434D01*
X60626676Y-52905025D02*
X60692169Y-52890075D01*
X60559496Y-52905024D02*
X60626676Y-52905025D01*
X61342531Y-53738604D02*
X61408024Y-53753552D01*
X61126913Y-52589910D02*
X61194091Y-52589909D01*
X62221161Y-53948683D02*
X62078010Y-54091835D01*
X62795922Y-55234011D02*
X62945922Y-55234011D01*
X61000892Y-52634006D02*
X61061418Y-52604859D01*
X61992027Y-54270377D02*
X61992028Y-54337557D01*
X61194091Y-52589909D02*
X61259586Y-52604859D01*
X60805219Y-52819044D02*
X60948369Y-52675891D01*
X61061418Y-52604859D02*
X61126913Y-52589910D01*
X61408024Y-53753552D02*
X61475204Y-53753553D01*
X61475204Y-53753553D02*
X61540697Y-53738603D01*
X61540697Y-53738603D02*
X61601224Y-53709457D01*
X61601224Y-53709457D02*
X61653747Y-53667572D01*
X61653747Y-53667572D02*
X61796897Y-53524419D01*
X61796897Y-53524419D02*
X61849420Y-53482534D01*
X61849420Y-53482534D02*
X61909946Y-53453387D01*
X61975441Y-53438438D02*
X62042619Y-53438437D01*
X62042619Y-53438437D02*
X62108114Y-53453387D01*
X62108114Y-53453387D02*
X62168640Y-53482535D01*
X62221161Y-53524419D02*
X62263047Y-53576942D01*
X62263047Y-53576942D02*
X62292193Y-53637467D01*
X62292193Y-53637467D02*
X62307143Y-53702962D01*
X62307143Y-53702962D02*
X62307142Y-53770140D01*
X62307142Y-53770140D02*
X62292194Y-53835635D01*
X62263046Y-53896160D02*
X62221161Y-53948683D01*
X62078010Y-54091835D02*
X62036125Y-54144358D01*
X62945922Y-55234011D02*
X62993488Y-55234011D01*
X62036125Y-54144358D02*
X62006976Y-54204882D01*
X61992028Y-54337557D02*
X62006976Y-54403050D01*
X62006976Y-54403050D02*
X62036124Y-54463576D01*
X62036124Y-54463576D02*
X62078011Y-54516100D01*
X62078011Y-54516100D02*
X62795922Y-55234011D01*
%TO.N,/USB/CONN_TX2+*%
X76031093Y-35657998D02*
X73738909Y-35657998D01*
X72890500Y-37010300D02*
X73030200Y-37150000D01*
%TO.N,/USB/CONN_TX2-*%
X72509500Y-36348591D02*
X72509500Y-37010300D01*
%TO.N,/USB/CONN_TX2+*%
X73738909Y-35657998D02*
X72890500Y-36506407D01*
%TO.N,/USB/CONN_TX2-*%
X76188909Y-35276998D02*
X73581093Y-35276998D01*
%TO.N,/USB/CONN_TX2+*%
X76760001Y-37777498D02*
X76969501Y-37567998D01*
X76969501Y-36596406D02*
X76031093Y-35657998D01*
X76969501Y-37567998D02*
X76969501Y-36596406D01*
%TO.N,/USB/CONN_TX2-*%
X77350501Y-37567998D02*
X77350501Y-36438590D01*
%TO.N,/USB/CONN_TX2+*%
X72890500Y-36506407D02*
X72890500Y-37010300D01*
%TO.N,/USB/CONN_TX2-*%
X77560001Y-37777498D02*
X77350501Y-37567998D01*
X72509500Y-37010300D02*
X72369800Y-37150000D01*
X77350501Y-36438590D02*
X76188909Y-35276998D01*
X73581093Y-35276998D02*
X72509500Y-36348591D01*
D36*
%TO.N,CAM1_ENABLE*%
X122700000Y-55900000D02*
X122700000Y-52600000D01*
X124800000Y-50220000D02*
X122700000Y-52320000D01*
X122700000Y-52320000D02*
X122700000Y-52600000D01*
D37*
%TO.N,VBUS*%
X103000000Y-32489434D02*
X101500000Y-33989434D01*
X101500000Y-33989434D02*
X101500000Y-35900000D01*
X101500000Y-35900000D02*
X99350000Y-38050000D01*
X103000000Y-30000000D02*
X103000000Y-32489434D01*
X99350000Y-38050000D02*
X98360566Y-38050000D01*
X98360566Y-38050000D02*
X97455283Y-38955283D01*
D36*
%TO.N,/USB/CONN_CC1*%
X92250000Y-39550000D02*
X87600000Y-44200000D01*
X97300000Y-38000000D02*
X93800000Y-38000000D01*
X93800000Y-38000000D02*
X92250000Y-39550000D01*
X87600000Y-44200000D02*
X85100000Y-44200000D01*
X85100000Y-44200000D02*
X82050000Y-41150000D01*
D37*
%TO.N,/Power/BATT*%
X56000000Y-64600000D02*
X57550000Y-66150000D01*
X55700000Y-57089434D02*
X56000000Y-57389434D01*
X55700000Y-56700000D02*
X55700000Y-57089434D01*
X56000000Y-57389434D02*
X56000000Y-64600000D01*
D36*
%TO.N,nSYS_RESET*%
X60300000Y-69900000D02*
X55400000Y-65000000D01*
X60900000Y-69900000D02*
X60300000Y-69900000D01*
X55400000Y-65000000D02*
X55400000Y-57600000D01*
%TO.N,/Power/POWER_EN*%
X54800000Y-56600000D02*
X54800000Y-56500000D01*
X55300000Y-55800000D02*
X54800000Y-56300000D01*
X54800000Y-56300000D02*
X54800000Y-56600000D01*
D37*
%TO.N,Net-(R32-Pad1)*%
X57200000Y-62300000D02*
X57200000Y-62200000D01*
X57200000Y-62200000D02*
X57200000Y-55200000D01*
X57200000Y-62200000D02*
X57200000Y-62800000D01*
X60300000Y-40150000D02*
X60300000Y-38300000D01*
X54800000Y-45650000D02*
X60300000Y-40150000D01*
X57200000Y-55200000D02*
X54800000Y-52800000D01*
X54800000Y-52800000D02*
X54800000Y-45650000D01*
X60300000Y-38300000D02*
X59327498Y-37327498D01*
X59327498Y-37327498D02*
X56235001Y-37327498D01*
D36*
%TO.N,/MCU/MCU_GPIO4/FC6*%
X81337402Y-89312598D02*
X76475000Y-94175000D01*
X84650000Y-89312598D02*
X81337402Y-89312598D01*
%TO.N,MCU_nPWEN*%
X88584897Y-90884897D02*
X80815103Y-90884897D01*
%TO.N,/MCU/IMU_MISO*%
X105150000Y-80000000D02*
X105150000Y-81450000D01*
X105150000Y-81450000D02*
X105400000Y-81700000D01*
D37*
%TO.N,GND*%
X78660001Y-60567498D02*
X77355201Y-60567498D01*
X77150000Y-60362297D02*
X77150000Y-59050000D01*
X77355201Y-60567498D02*
X77150000Y-60362297D01*
D36*
%TO.N,FRAME_TRIGGER*%
X80300000Y-79500000D02*
X80200000Y-79500000D01*
D38*
%TO.N,GBE_MDI3_P*%
X63769800Y-59000000D02*
X63960299Y-58809501D01*
X65981093Y-58076998D02*
X67405001Y-56653090D01*
X63960299Y-58809501D02*
X63960299Y-58774447D01*
X63960299Y-58774447D02*
X64204647Y-58530099D01*
X64204647Y-58530099D02*
X64239701Y-58530099D01*
X64239701Y-58530099D02*
X64692802Y-58076998D01*
X64692802Y-58076998D02*
X65981093Y-58076998D01*
X67405001Y-56653090D02*
X67405001Y-46217498D01*
%TO.N,/USB/USBSS_TX_P*%
X73430200Y-56600000D02*
X73290500Y-56460300D01*
X76995301Y-47032998D02*
X77135001Y-47172698D01*
X73290500Y-49056407D02*
X75313909Y-47032998D01*
X73290500Y-56460300D02*
X73290500Y-49056407D01*
X75313909Y-47032998D02*
X76995301Y-47032998D01*
%TO.N,/USB/USBSS_TX_N*%
X72769800Y-56600000D02*
X72909500Y-56460300D01*
X72909500Y-56460300D02*
X72909500Y-48898591D01*
X72909500Y-48898591D02*
X75156093Y-46651998D01*
X75156093Y-46651998D02*
X76995301Y-46651998D01*
X76995301Y-46651998D02*
X77135001Y-46512298D01*
%TO.N,CAM2_DAT1+*%
X107909500Y-66378908D02*
X109869501Y-68338909D01*
%TO.N,CAM2_DAT1-*%
X108430200Y-62300000D02*
X108290500Y-62439700D01*
X110250501Y-69857997D02*
X110560001Y-70167497D01*
%TO.N,CAM2_DAT1+*%
X107909500Y-62439700D02*
X107909500Y-66378908D01*
X107769800Y-62300000D02*
X107909500Y-62439700D01*
X109869501Y-68338909D02*
X109869501Y-69857997D01*
%TO.N,CAM2_DAT1-*%
X108290500Y-62439700D02*
X108290500Y-66221092D01*
%TO.N,CAM2_DAT1+*%
X109869501Y-69857997D02*
X109560001Y-70167497D01*
%TO.N,CAM2_DAT1-*%
X110560001Y-70167497D02*
X110560001Y-71667498D01*
%TO.N,CAM2_DAT1+*%
X109560001Y-70167497D02*
X109560001Y-71667498D01*
%TO.N,CAM2_DAT1-*%
X108290500Y-66221092D02*
X110250501Y-68181093D01*
X110250501Y-68181093D02*
X110250501Y-69857997D01*
%TO.N,CAM2_DAT0+*%
X110909500Y-66355560D02*
X110909500Y-66878908D01*
X110769800Y-66215860D02*
X110909500Y-66355560D01*
X110909500Y-66878908D02*
X112869501Y-68838909D01*
X112869501Y-68838909D02*
X112869501Y-69857997D01*
%TO.N,CAM2_DAT0-*%
X113250501Y-69857997D02*
X113560001Y-70167497D01*
%TO.N,CAM2_DAT0+*%
X112869501Y-69857997D02*
X112560001Y-70167497D01*
X112560001Y-70167497D02*
X112560001Y-71667498D01*
%TO.N,CAM2_DAT0-*%
X111430200Y-66215860D02*
X111290500Y-66355560D01*
X111290500Y-66355560D02*
X111290500Y-66721092D01*
X111290500Y-66721092D02*
X113250501Y-68681093D01*
X113250501Y-68681093D02*
X113250501Y-69857997D01*
X113560001Y-70167497D02*
X113560001Y-71667498D01*
D36*
%TO.N,+1V8*%
X124640000Y-80800000D02*
X123290000Y-82150000D01*
X117150000Y-82150000D02*
X116200000Y-81200000D01*
X123290000Y-82150000D02*
X117150000Y-82150000D01*
%TO.N,/MCU/ISP_USART_RXD*%
X114200000Y-80000000D02*
X117540000Y-83340000D01*
X114200000Y-78800000D02*
X114200000Y-80000000D01*
X117540000Y-83340000D02*
X122100000Y-83340000D01*
%TO.N,/MCU/ISP_USART_TXD*%
X115850000Y-78750000D02*
X115850000Y-79850000D01*
X115850000Y-79850000D02*
X116800000Y-80800000D01*
X116800000Y-80800000D02*
X122100000Y-80800000D01*
%TO.N,CAM1_ENABLE*%
X117760001Y-59467498D02*
X119132502Y-59467498D01*
X119132502Y-59467498D02*
X122700000Y-55900000D01*
%TO.N,CAM1_TRIGGER*%
X118532502Y-58767498D02*
X121550000Y-55750000D01*
X117860001Y-58767498D02*
X118532502Y-58767498D01*
%TO.N,MCU_nPWEN*%
X89300000Y-91600000D02*
X88584897Y-90884897D01*
%TO.N,/MCU/IMU_MOSI*%
X108350000Y-80000000D02*
X108350000Y-80592499D01*
X108350000Y-80592499D02*
X107900001Y-81042498D01*
%TO.N,IMU_INT1*%
X107950000Y-83347398D02*
X107950000Y-85800000D01*
X107950000Y-85800000D02*
X108100000Y-85950000D01*
%TO.N,Net-(R14-Pad2)*%
X92300000Y-92200000D02*
X83100000Y-92200000D01*
D37*
%TO.N,+3V3*%
X119960001Y-74867498D02*
X121432502Y-74867498D01*
X121432502Y-74867498D02*
X121800000Y-74500000D01*
%TO.N,GND*%
X122060001Y-59867498D02*
X122060001Y-60739999D01*
X122060001Y-60739999D02*
X121900000Y-60900000D01*
X119960001Y-60867498D02*
X121867498Y-60867498D01*
X121867498Y-60867498D02*
X121900000Y-60900000D01*
X122060001Y-75867498D02*
X121532502Y-75867498D01*
X121532502Y-75867498D02*
X120500000Y-76900000D01*
D38*
%TO.N,/USB/USB0_D_N*%
X79560001Y-38477498D02*
X79560001Y-38839999D01*
X79560001Y-38839999D02*
X78891921Y-39508079D01*
X78891921Y-39508079D02*
X78891921Y-40743539D01*
%TO.N,/USB/CONN_CC1*%
X79900000Y-41000000D02*
X81900000Y-41000000D01*
X81900000Y-41000000D02*
X82050000Y-41150000D01*
%TO.N,/USB/USB0_D_P*%
X79131151Y-42268849D02*
X78989679Y-42127376D01*
X84590100Y-47727797D02*
X79131151Y-42268849D01*
X78900000Y-41400000D02*
X78900000Y-42037698D01*
X78900000Y-42037698D02*
X79131151Y-42268849D01*
%TO.N,/USB/USB0_D_N*%
X79370679Y-41969560D02*
X79370679Y-41175225D01*
X78938993Y-40743539D02*
X78891921Y-40743539D01*
X79370679Y-41175225D02*
X78938993Y-40743539D01*
%TO.N,CAM4_DAT0-*%
X92150501Y-70118907D02*
X92150501Y-70657998D01*
%TO.N,CAM4_DAT0+*%
X91460001Y-70967498D02*
X91460001Y-71667498D01*
X91769501Y-70657998D02*
X91460001Y-70967498D01*
%TO.N,CAM4_DAT0-*%
X92150501Y-70657998D02*
X92460001Y-70967498D01*
X92728908Y-69540500D02*
X92150501Y-70118907D01*
%TO.N,CAM4_DAT0+*%
X91769501Y-69961091D02*
X91769501Y-70657998D01*
X92571092Y-69159500D02*
X91769501Y-69961091D01*
%TO.N,CAM4_DAT0-*%
X92460001Y-70967498D02*
X92460001Y-71667498D01*
%TO.N,CAM4_DAT0+*%
X93010300Y-69159500D02*
X92571092Y-69159500D01*
X93150000Y-69019800D02*
X93010300Y-69159500D01*
%TO.N,CAM4_DAT0-*%
X93150000Y-69680200D02*
X93010300Y-69540500D01*
X93010300Y-69540500D02*
X92728908Y-69540500D01*
D36*
%TO.N,USB_SDA*%
X104300000Y-30500000D02*
X105000000Y-29800000D01*
X105000000Y-29800000D02*
X107300000Y-29800000D01*
%TO.N,USB_SCL*%
X102900000Y-34700000D02*
X105000000Y-32600000D01*
X105000000Y-32600000D02*
X105000000Y-30600000D01*
%TO.N,USB_SDA*%
X103000000Y-33900000D02*
X104300000Y-32600000D01*
X104300000Y-32600000D02*
X104300000Y-30500000D01*
%TO.N,/Power/nFORCE_RECOVERY*%
X60600000Y-62400000D02*
X60600000Y-65800000D01*
D37*
%TO.N,Net-(R33-Pad1)*%
X57900000Y-61800000D02*
X57900000Y-62100000D01*
X57900000Y-64500000D02*
X57900000Y-61800000D01*
D36*
%TO.N,CAM5_SCL_1V8*%
X80900000Y-78900000D02*
X80900000Y-82400000D01*
D38*
%TO.N,/USB/CONN_RX1+*%
X85314792Y-39625333D02*
X85279051Y-39568452D01*
X85336980Y-40888742D02*
X85314792Y-40825333D01*
X84676997Y-39342545D02*
X84641256Y-39285664D01*
X85344501Y-38555499D02*
X85344501Y-36521406D01*
X85336980Y-39688742D02*
X85314792Y-39625333D01*
X85344501Y-39755499D02*
X85336980Y-39688742D01*
X84844790Y-40647977D02*
X84781381Y-40625789D01*
X85279051Y-39942545D02*
X85314792Y-39885664D01*
X84641256Y-40225333D02*
X84676997Y-40168452D01*
X85111258Y-40047977D02*
X85174667Y-40025789D01*
X85044501Y-40055499D02*
X85111258Y-40047977D01*
X84844790Y-40063020D02*
X84911546Y-40055499D01*
X84724500Y-40120949D02*
X84781381Y-40085208D01*
X85279051Y-40768452D02*
X85231548Y-40720949D01*
X84619068Y-39088742D02*
X84641256Y-39025333D01*
X85314792Y-39885664D02*
X85336980Y-39822255D01*
X84676997Y-40168452D02*
X84724500Y-40120949D01*
X84619068Y-40288742D02*
X84641256Y-40225333D01*
X85314792Y-38685664D02*
X85336980Y-38622255D01*
X85174667Y-40025789D02*
X85231548Y-39990048D01*
X84619068Y-40422255D02*
X84611546Y-40355499D01*
X84844790Y-39447977D02*
X84781381Y-39425789D01*
X85336980Y-39822255D02*
X85344501Y-39755499D01*
X85174667Y-40685208D02*
X85111258Y-40663020D01*
X84911546Y-40055499D02*
X85044501Y-40055499D01*
X84724500Y-38920949D02*
X84781381Y-38885208D01*
X84676997Y-40542545D02*
X84641256Y-40485664D01*
X82238909Y-35457998D02*
X81350501Y-36346406D01*
X85204801Y-42992498D02*
X85344501Y-42852798D01*
X85344501Y-40955499D02*
X85336980Y-40888742D01*
X84781381Y-40085208D02*
X84844790Y-40063020D01*
X84281093Y-35457998D02*
X82238909Y-35457998D01*
X84611546Y-40355499D02*
X84619068Y-40288742D01*
X85044501Y-40655499D02*
X84911546Y-40655499D01*
X85344501Y-42852798D02*
X85344501Y-40955499D01*
X85336980Y-38622255D02*
X85344501Y-38555499D01*
X84641256Y-40485664D02*
X84619068Y-40422255D01*
X85231548Y-39990048D02*
X85279051Y-39942545D01*
X85231548Y-40720949D02*
X85174667Y-40685208D01*
X85111258Y-40663020D02*
X85044501Y-40655499D01*
X84911546Y-38855499D02*
X85044501Y-38855499D01*
X85344501Y-36521406D02*
X84281093Y-35457998D01*
X84724500Y-40590048D02*
X84676997Y-40542545D01*
X85314792Y-40825333D02*
X85279051Y-40768452D01*
X84911546Y-40655499D02*
X84844790Y-40647977D01*
X81527276Y-37744773D02*
X81560001Y-37777498D01*
X85279051Y-39568452D02*
X85231548Y-39520949D01*
X84781381Y-40625789D02*
X84724500Y-40590048D01*
X85231548Y-39520949D02*
X85174667Y-39485208D01*
X85174667Y-39485208D02*
X85111258Y-39463020D01*
X85111258Y-38847977D02*
X85174667Y-38825789D01*
X85111258Y-39463020D02*
X85044501Y-39455499D01*
X85044501Y-39455499D02*
X84911546Y-39455499D01*
X85231548Y-38790048D02*
X85279051Y-38742545D01*
X84911546Y-39455499D02*
X84844790Y-39447977D01*
X84781381Y-39425789D02*
X84724500Y-39390048D01*
X84724500Y-39390048D02*
X84676997Y-39342545D01*
X84641256Y-39285664D02*
X84619068Y-39222255D01*
X84619068Y-39222255D02*
X84611546Y-39155499D01*
X84611546Y-39155499D02*
X84619068Y-39088742D01*
X84641256Y-39025333D02*
X84676997Y-38968452D01*
X84676997Y-38968452D02*
X84724500Y-38920949D01*
X84781381Y-38885208D02*
X84844790Y-38863020D01*
X84844790Y-38863020D02*
X84911546Y-38855499D01*
X85044501Y-38855499D02*
X85111258Y-38847977D01*
X85174667Y-38825789D02*
X85231548Y-38790048D01*
X85279051Y-38742545D02*
X85314792Y-38685664D01*
X81350501Y-36346406D02*
X81350501Y-37567998D01*
X81350501Y-37567998D02*
X81527276Y-37744773D01*
D36*
%TO.N,Net-(R14-Pad2)*%
X92800000Y-91700000D02*
X92300000Y-92200000D01*
X93500000Y-91700000D02*
X92800000Y-91700000D01*
%TO.N,Net-(C1-Pad1)*%
X87000000Y-30000000D02*
X93500000Y-30000000D01*
X86600000Y-30400000D02*
X87000000Y-30000000D01*
X93500000Y-30000000D02*
X93600000Y-29900000D01*
D37*
%TO.N,GND*%
X84460001Y-71667498D02*
X84460001Y-69839999D01*
X84460001Y-69839999D02*
X84500000Y-69800000D01*
D36*
%TO.N,/MCU/IMU_CLK*%
X108700000Y-84050000D02*
X108700000Y-81350000D01*
X108700000Y-81350000D02*
X109600000Y-80450000D01*
D38*
%TO.N,/USB/USB2_D_P*%
X63478908Y-60209500D02*
X66521092Y-60209500D01*
X61678908Y-58409500D02*
X63478908Y-60209500D01*
%TO.N,/USB/USB2_D_N*%
X61521092Y-58790500D02*
X63321092Y-60590500D01*
X63321092Y-60590500D02*
X66678908Y-60590500D01*
%TO.N,/USB/USB2_D_P*%
X61489700Y-58409500D02*
X61678908Y-58409500D01*
X61350000Y-58269800D02*
X61489700Y-58409500D01*
%TO.N,/USB/USB2_D_N*%
X61489700Y-58790500D02*
X61521092Y-58790500D01*
X61350000Y-58930200D02*
X61489700Y-58790500D01*
%TO.N,CAM4_CLK+*%
X85769501Y-69811091D02*
X86366513Y-69214079D01*
X86366513Y-69214079D02*
X86366513Y-69016513D01*
%TO.N,CAM4_CLK-*%
X86150501Y-70657998D02*
X86150501Y-69968907D01*
%TO.N,CAM4_CLK+*%
X85769501Y-70657998D02*
X85769501Y-69811091D01*
%TO.N,CAM4_CLK-*%
X86460001Y-71667498D02*
X86460001Y-70967498D01*
%TO.N,CAM4_CLK+*%
X85460001Y-70967498D02*
X85769501Y-70657998D01*
X85460001Y-71667498D02*
X85460001Y-70967498D01*
%TO.N,CAM4_CLK-*%
X86150501Y-69968907D02*
X86635921Y-69483487D01*
X86460001Y-70967498D02*
X86150501Y-70657998D01*
X86635921Y-69483487D02*
X86833487Y-69483487D01*
D36*
%TO.N,CAM3_ENABLE*%
X84400000Y-55950000D02*
X81477499Y-55950000D01*
X81477499Y-55950000D02*
X81360001Y-56067498D01*
%TO.N,CAM3_SDA_1V8*%
X94600000Y-57700000D02*
X83200000Y-57700000D01*
X96760001Y-55539999D02*
X94600000Y-57700000D01*
X96760001Y-55067498D02*
X96760001Y-55539999D01*
%TO.N,CAM3_SCL_1V8*%
X95760001Y-54939999D02*
X95760001Y-55067498D01*
X95760001Y-53767498D02*
X95760001Y-54939999D01*
X95760001Y-54939999D02*
X95760001Y-55439999D01*
X95760001Y-55439999D02*
X94100000Y-57100000D01*
X94100000Y-57100000D02*
X82300000Y-57100000D01*
%TO.N,CAM3_TRIGGER*%
X94760001Y-55089999D02*
X93300000Y-56550000D01*
X94760001Y-55067498D02*
X94760001Y-55089999D01*
X93300000Y-56550000D02*
X81800000Y-56550000D01*
%TO.N,CAM3_ENABLE*%
X93760001Y-55139999D02*
X93017399Y-55882601D01*
X93760001Y-53767498D02*
X93760001Y-55139999D01*
X93017399Y-55882601D02*
X84400000Y-55950000D01*
%TO.N,/USB/HUB_nPWR*%
X46900000Y-53400000D02*
X46900000Y-53800000D01*
D38*
%TO.N,CAM3_DAT0-*%
X84760001Y-53767498D02*
X84760001Y-52267497D01*
X85069501Y-49988590D02*
X88681093Y-46376998D01*
X110246406Y-46376998D02*
X111540500Y-47671092D01*
X111540500Y-48760300D02*
X111680200Y-48900000D01*
X88681093Y-46376998D02*
X110246406Y-46376998D01*
X84760001Y-52267497D02*
X85069501Y-51957997D01*
X85069501Y-51957997D02*
X85069501Y-49988590D01*
X111540500Y-47671092D02*
X111540500Y-48760300D01*
%TO.N,/USB/USB2_D_P*%
X70866513Y-55864079D02*
X66521092Y-60209500D01*
X70866513Y-55666513D02*
X70866513Y-55864079D01*
%TO.N,/USB/USB2_D_N*%
X71135921Y-56133487D02*
X66678908Y-60590500D01*
X71333487Y-56133487D02*
X71135921Y-56133487D01*
D37*
%TO.N,GND*%
X82760001Y-51667498D02*
X83032502Y-51667498D01*
X83032502Y-51667498D02*
X83700000Y-51000000D01*
X83760001Y-53767498D02*
X83760001Y-51060001D01*
X83760001Y-51060001D02*
X83700000Y-51000000D01*
%TO.N,+3V3*%
X97760001Y-53767498D02*
X97760001Y-55360001D01*
X97760001Y-55360001D02*
X98000000Y-55600000D01*
X78660001Y-52567498D02*
X79200000Y-52027499D01*
X79200000Y-52027499D02*
X79200000Y-50700000D01*
%TO.N,GND*%
X76560001Y-51567498D02*
X76560001Y-50839999D01*
X76560001Y-50839999D02*
X76600000Y-50800000D01*
D36*
X86760001Y-53767498D02*
X86760001Y-55239999D01*
X86760001Y-55239999D02*
X86700000Y-55300000D01*
X92760001Y-53767498D02*
X92760001Y-54939999D01*
X92760001Y-54939999D02*
X92300000Y-55400000D01*
X89760001Y-53767498D02*
X89760001Y-55339999D01*
X89760001Y-55339999D02*
X89700000Y-55400000D01*
D37*
X98760001Y-51667498D02*
X98760001Y-53960001D01*
X98760001Y-53960001D02*
X99200000Y-54400000D01*
X103860001Y-51667498D02*
X103860001Y-54639999D01*
X103860001Y-54639999D02*
X103800000Y-54700000D01*
X104732502Y-53767498D02*
X103800000Y-54700000D01*
X104860001Y-53767498D02*
X104732502Y-53767498D01*
D36*
%TO.N,CAM5_ENABLE*%
X77232502Y-56567498D02*
X76600000Y-57200000D01*
X76600000Y-62307497D02*
X76760001Y-62467498D01*
X78660001Y-56567498D02*
X77232502Y-56567498D01*
X76600000Y-57200000D02*
X76600000Y-62307497D01*
%TO.N,CAM5_TRIGGER*%
X77432502Y-55567498D02*
X76160001Y-56839999D01*
X78660001Y-55567498D02*
X77432502Y-55567498D01*
X76160001Y-56839999D02*
X76160001Y-63667498D01*
%TO.N,CAM5_SCL_1V8*%
X77632502Y-54567498D02*
X75000000Y-57200000D01*
X78660001Y-54567498D02*
X77632502Y-54567498D01*
X75000000Y-57200000D02*
X75000000Y-63807497D01*
X75000000Y-63807497D02*
X75160001Y-63967498D01*
%TO.N,CAM5_SDA_1V8*%
X77832502Y-53567498D02*
X74460001Y-56939999D01*
X78660001Y-53567498D02*
X77832502Y-53567498D01*
X74460001Y-56939999D02*
X74460001Y-63467498D01*
D37*
%TO.N,GND*%
X78660001Y-57567498D02*
X77232502Y-57567498D01*
X77232502Y-57567498D02*
X77200000Y-57600000D01*
X78660001Y-63567498D02*
X81367498Y-63567498D01*
X81367498Y-63567498D02*
X81400000Y-63600000D01*
X76560001Y-67567498D02*
X77660001Y-67567498D01*
X77660001Y-67567498D02*
X78660001Y-66567498D01*
X78660001Y-66567498D02*
X81167498Y-66567498D01*
X81167498Y-66567498D02*
X81200000Y-66600000D01*
X78460001Y-73767498D02*
X78460001Y-73160001D01*
X78460001Y-73160001D02*
X77500000Y-72200000D01*
X87460001Y-71667498D02*
X87460001Y-73460001D01*
X87460001Y-73460001D02*
X87500000Y-73500000D01*
X90460001Y-71667498D02*
X90460001Y-73239999D01*
X90460001Y-73239999D02*
X90400000Y-73300000D01*
X94460001Y-73767498D02*
X94460001Y-70960001D01*
X94460001Y-70960001D02*
X94400000Y-70900000D01*
X93460001Y-71667498D02*
X93632502Y-71667498D01*
X93632502Y-71667498D02*
X94400000Y-70900000D01*
%TO.N,+3V3*%
X100560001Y-71667498D02*
X100560001Y-71660001D01*
X100560001Y-71660001D02*
X99700000Y-70800000D01*
%TO.N,GND*%
X105560001Y-71667498D02*
X105560001Y-73539999D01*
X105560001Y-73539999D02*
X105500000Y-73600000D01*
X108560001Y-71667498D02*
X108560001Y-73560001D01*
X108560001Y-73560001D02*
X108600000Y-73600000D01*
X111560001Y-71667498D02*
X111560001Y-73539999D01*
X111560001Y-73539999D02*
X111500000Y-73600000D01*
X115560001Y-73767498D02*
X115560001Y-70839999D01*
X115560001Y-70839999D02*
X115600000Y-70800000D01*
X114560001Y-71667498D02*
X114732502Y-71667498D01*
X114732502Y-71667498D02*
X115600000Y-70800000D01*
X119960001Y-63867498D02*
X121432502Y-63867498D01*
X121432502Y-63867498D02*
X121500000Y-63800000D01*
%TO.N,+3V3*%
X118860001Y-53767498D02*
X118860001Y-54960001D01*
X118860001Y-54960001D02*
X119300000Y-55400000D01*
%TO.N,GND*%
X119860001Y-51667498D02*
X119860001Y-49139999D01*
X119860001Y-49139999D02*
X120200000Y-48800000D01*
D36*
%TO.N,CAM1_SDA_1V8*%
X117860001Y-52367498D02*
X118260001Y-51967498D01*
X117860001Y-53767498D02*
X117860001Y-52367498D01*
%TO.N,CAM1_SCL_1V8*%
X116860001Y-53767498D02*
X116860001Y-51867498D01*
X116860001Y-51867498D02*
X117460001Y-51267498D01*
%TO.N,CAM1_TRIGGER*%
X115860001Y-53767498D02*
X115860001Y-58067498D01*
X116560001Y-58767498D02*
X117860001Y-58767498D01*
X115860001Y-58067498D02*
X116560001Y-58767498D01*
%TO.N,CAM1_ENABLE*%
X114860001Y-53767498D02*
X114860001Y-58167498D01*
X116160001Y-59467498D02*
X117760001Y-59467498D01*
X114860001Y-58167498D02*
X116160001Y-59467498D01*
D38*
%TO.N,CAM5_DAT0+*%
X83220301Y-64876998D02*
X83360001Y-64737298D01*
%TO.N,CAM5_DAT0-*%
X80369502Y-65257998D02*
X83220301Y-65257998D01*
%TO.N,CAM5_DAT0+*%
X80369502Y-64876998D02*
X83220301Y-64876998D01*
%TO.N,CAM5_DAT0-*%
X83220301Y-65257998D02*
X83360001Y-65397698D01*
D36*
%TO.N,CAM3_SDA_1V8*%
X96760001Y-53767498D02*
X96760001Y-55067498D01*
%TO.N,CAM3_TRIGGER*%
X94760001Y-53767498D02*
X94760001Y-55067498D01*
D38*
%TO.N,CAM5_DAT0+*%
X78560001Y-64567498D02*
X80060002Y-64567498D01*
X80060002Y-64567498D02*
X80369502Y-64876998D01*
%TO.N,CAM5_DAT0-*%
X78560001Y-65567498D02*
X80060002Y-65567498D01*
X80060002Y-65567498D02*
X80369502Y-65257998D01*
%TO.N,/USB/CONN_RX1-*%
X82081093Y-35076998D02*
X80969501Y-36188590D01*
X80969501Y-36188590D02*
X80969501Y-37567998D01*
X80969501Y-37567998D02*
X80760001Y-37777498D01*
X84438909Y-35076998D02*
X82081093Y-35076998D01*
X85725501Y-36363590D02*
X84438909Y-35076998D01*
X85865201Y-42992498D02*
X85725501Y-42852798D01*
X85725501Y-42852798D02*
X85725501Y-36363590D01*
%TO.N,CAM2_CLK+*%
X106869501Y-69857997D02*
X106869501Y-69207198D01*
X106560001Y-71667498D02*
X106560001Y-70167497D01*
X106560001Y-70167497D02*
X106869501Y-69857997D01*
X106869501Y-69207198D02*
X106729801Y-69067498D01*
%TO.N,CAM2_CLK-*%
X107560001Y-71667498D02*
X107560001Y-70167497D01*
X107560001Y-70167497D02*
X107250501Y-69857997D01*
X107250501Y-69857997D02*
X107250501Y-69207198D01*
X107250501Y-69207198D02*
X107390201Y-69067498D01*
%TO.N,/USB/USB0_D_P*%
X84590100Y-47762851D02*
X84590100Y-47727797D01*
X84834448Y-48007199D02*
X84590100Y-47762851D01*
X85060001Y-48197698D02*
X84869502Y-48007199D01*
X84869502Y-48007199D02*
X84834448Y-48007199D01*
%TO.N,/USB/USB0_D_N*%
X85060001Y-47537298D02*
X84938417Y-47537298D01*
X84938417Y-47537298D02*
X79370679Y-41969560D01*
%TO.N,GBE_MDI0_P*%
X57245001Y-46217498D02*
X57245001Y-52521906D01*
X59226514Y-54503419D02*
X59226514Y-54700985D01*
X57245001Y-52521906D02*
X59226514Y-54503419D01*
%TO.N,GBE_MDI1_P*%
X59785001Y-52761906D02*
X62526514Y-55503419D01*
X59785001Y-46217498D02*
X59785001Y-52761906D01*
X62526514Y-55503419D02*
X62526514Y-55700985D01*
%TD*%
%TO.N,/Power/VAUX*%
G36*
X117474000Y-44174000D02*
G01*
X101726000Y-44174000D01*
X101726000Y-42426000D01*
X109425063Y-42426000D01*
X109471373Y-42406818D01*
X109596632Y-42281558D01*
X109605574Y-42279120D01*
X109816218Y-42187966D01*
X109831517Y-42178572D01*
X110008111Y-42031962D01*
X110020159Y-42018651D01*
X110148506Y-41828368D01*
X110156334Y-41812212D01*
X110198687Y-41679503D01*
X110652190Y-41226000D01*
X117474000Y-41226000D01*
X117474000Y-44174000D01*
G37*
D39*
X117474000Y-44174000D02*
X101726000Y-44174000D01*
X101726000Y-42426000D01*
X109425063Y-42426000D01*
X109471373Y-42406818D01*
X109596632Y-42281558D01*
X109605574Y-42279120D01*
X109816218Y-42187966D01*
X109831517Y-42178572D01*
X110008111Y-42031962D01*
X110020159Y-42018651D01*
X110148506Y-41828368D01*
X110156334Y-41812212D01*
X110198687Y-41679503D01*
X110652190Y-41226000D01*
X117474000Y-41226000D01*
X117474000Y-44174000D01*
%TD*%
M02*
