%TF.GenerationSoftware,KiCad,Pcbnew,5.99.0-unknown-ad69e44~101~ubuntu18.04.1*%
%TF.CreationDate,2020-06-22T16:53:12+08:00*%
%TF.ProjectId,ovc4,6f766334-2e6b-4696-9361-645f70636258,rev?*%
%TF.SameCoordinates,Original*%
%TF.FileFunction,Paste,Bot*%
%TF.FilePolarity,Positive*%
%FSLAX46Y46*%
G04 Gerber Fmt 4.6, Leading zero omitted, Abs format (unit mm)*
G04 Created by KiCad (PCBNEW 5.99.0-unknown-ad69e44~101~ubuntu18.04.1) date 2020-06-22 16:53:12*
%MOMM*%
%LPD*%
G01*
G04 APERTURE LIST*
%ADD10R,0.600000X2.000000*%
%ADD11R,0.600000X4.200000*%
%ADD12R,4.200000X0.600000*%
%ADD13R,2.000000X0.600000*%
G04 APERTURE END LIST*
D10*
%TO.C,CAM1*%
X118860001Y-53767498D03*
X117860001Y-53767498D03*
X116860001Y-53767498D03*
X115860001Y-53767498D03*
X114860001Y-53767498D03*
X113860001Y-53767498D03*
X112860001Y-53767498D03*
X111860001Y-53767498D03*
X110860001Y-53767498D03*
X109860001Y-53767498D03*
X108860001Y-53767498D03*
X107860001Y-53767498D03*
X106860001Y-53767498D03*
X105860001Y-53767498D03*
D11*
X119860001Y-51667498D03*
D10*
X104860001Y-53767498D03*
D11*
X103860001Y-51667498D03*
%TD*%
%TO.C,CAM4*%
X94460001Y-73767498D03*
D10*
X93460001Y-71667498D03*
D11*
X78460001Y-73767498D03*
D10*
X92460001Y-71667498D03*
X91460001Y-71667498D03*
X90460001Y-71667498D03*
X89460001Y-71667498D03*
X88460001Y-71667498D03*
X87460001Y-71667498D03*
X86460001Y-71667498D03*
X85460001Y-71667498D03*
X84460001Y-71667498D03*
X83460001Y-71667498D03*
X82460001Y-71667498D03*
X81460001Y-71667498D03*
X80460001Y-71667498D03*
X79460001Y-71667498D03*
%TD*%
D12*
%TO.C,CAM5*%
X76560001Y-67567498D03*
D13*
X78660001Y-66567498D03*
D12*
X76560001Y-51567498D03*
D13*
X78660001Y-65567498D03*
X78660001Y-64567498D03*
X78660001Y-63567498D03*
X78660001Y-62567498D03*
X78660001Y-61567498D03*
X78660001Y-60567498D03*
X78660001Y-59567498D03*
X78660001Y-58567498D03*
X78660001Y-57567498D03*
X78660001Y-56567498D03*
X78660001Y-55567498D03*
X78660001Y-54567498D03*
X78660001Y-53567498D03*
X78660001Y-52567498D03*
%TD*%
D11*
%TO.C,CAM3*%
X82760001Y-51667498D03*
D10*
X83760001Y-53767498D03*
D11*
X98760001Y-51667498D03*
D10*
X84760001Y-53767498D03*
X85760001Y-53767498D03*
X86760001Y-53767498D03*
X87760001Y-53767498D03*
X88760001Y-53767498D03*
X89760001Y-53767498D03*
X90760001Y-53767498D03*
X91760001Y-53767498D03*
X92760001Y-53767498D03*
X93760001Y-53767498D03*
X94760001Y-53767498D03*
X95760001Y-53767498D03*
X96760001Y-53767498D03*
X97760001Y-53767498D03*
%TD*%
D11*
%TO.C,CAM2*%
X115560001Y-73767498D03*
D10*
X114560001Y-71667498D03*
D11*
X99560001Y-73767498D03*
D10*
X113560001Y-71667498D03*
X112560001Y-71667498D03*
X111560001Y-71667498D03*
X110560001Y-71667498D03*
X109560001Y-71667498D03*
X108560001Y-71667498D03*
X107560001Y-71667498D03*
X106560001Y-71667498D03*
X105560001Y-71667498D03*
X104560001Y-71667498D03*
X103560001Y-71667498D03*
X102560001Y-71667498D03*
X101560001Y-71667498D03*
X100560001Y-71667498D03*
%TD*%
D12*
%TO.C,CAM0*%
X122060001Y-59867498D03*
D13*
X119960001Y-60867498D03*
D12*
X122060001Y-75867498D03*
D13*
X119960001Y-61867498D03*
X119960001Y-62867498D03*
X119960001Y-63867498D03*
X119960001Y-64867498D03*
X119960001Y-65867498D03*
X119960001Y-66867498D03*
X119960001Y-67867498D03*
X119960001Y-68867498D03*
X119960001Y-69867498D03*
X119960001Y-70867498D03*
X119960001Y-71867498D03*
X119960001Y-72867498D03*
X119960001Y-73867498D03*
X119960001Y-74867498D03*
%TD*%
M02*
