M48
; DRILL file {KiCad 5.1.0-unknown-9e240db~94~ubuntu18.04.1} date Wed Apr  3 10:40:27 2019
; FORMAT={-:-/ absolute / metric / decimal}
; #@! TF.CreationDate,2019-04-03T10:40:27+08:00
; #@! TF.GenerationSoftware,Kicad,Pcbnew,5.1.0-unknown-9e240db~94~ubuntu18.04.1
FMAT,2
METRIC
T1C0.152
T2C0.203
T3C0.300
T4C0.381
T5C0.400
T6C0.650
T7C0.800
T8C1.000
T9C1.100
T10C1.200
T11C1.450
T12C1.700
T13C2.000
T14C3.150
T15C3.200
T16C3.500
%
G90
G05
T1
X85.74Y-85.801
X85.95Y-83.7
X85.999Y-85.049
X86.015Y-83.015
X86.55Y-85.0
X86.555Y-86.956
X86.57Y-83.02
X86.58Y-83.68
X86.6Y-86.3
X87.128Y-83.047
X87.7Y-85.025
X87.72Y-83.03
X87.725Y-86.325
X88.275Y-86.325
X88.3Y-83.0
X88.85Y-83.025
X89.4Y-87.0
X89.425Y-84.325
X89.975Y-83.0
X89.99Y-84.35
X90.0Y-86.3
X90.023Y-86.998
X90.575Y-87.05
X90.61Y-84.35
X92.2Y-87.025
X174.2Y-79.5
X174.91Y-80.31
X174.91Y-81.69
X174.99Y-79.67
X175.0Y-77.68
X175.01Y-77.02
X175.57Y-78.34
X175.58Y-79.65
X176.14Y-77.02
X176.14Y-79.66
X176.14Y-80.32
X176.71Y-77.02
X176.71Y-78.34
X176.71Y-79.0
X176.72Y-80.32
X177.0Y-76.1
X177.29Y-77.02
X177.86Y-77.02
X178.42Y-79.0
X178.42Y-80.98
X178.7Y-81.8
X178.99Y-77.02
X179.0Y-78.34
X179.0Y-80.32
X179.7Y-81.7
X179.8Y-78.3
X205.2Y-84.1
X205.3Y-85.6
X205.8Y-86.3
X206.0Y-83.02
X206.004Y-85.65
X206.1Y-87.8
X206.57Y-84.34
X206.575Y-86.975
X206.575Y-85.66
X206.58Y-83.02
X207.15Y-86.31
X207.7Y-82.2
X207.7Y-83.05
X207.7Y-86.3
X207.72Y-84.34
X207.72Y-85.01
X208.3Y-83.05
X208.85Y-83.02
X209.1Y-87.9
X209.3Y-82.0
X209.425Y-85.0
X209.43Y-86.33
X209.8Y-87.9
X209.999Y-85.699
X210.0Y-83.02
X210.0Y-84.3
X210.5Y-87.9
X211.0Y-82.8
X211.0Y-83.7
T2
X81.7Y-103.0
X81.7Y-104.0
X81.7Y-105.0
X81.7Y-106.0
X81.7Y-107.0
X82.5Y-110.3
X82.5Y-111.3
X82.5Y-112.3
X82.5Y-113.3
X82.7Y-103.0
X83.5Y-83.0
X84.1Y-111.9
X85.0Y-97.0
X86.8Y-97.2
X87.0Y-110.3
X87.0Y-111.3
X87.0Y-112.3
X87.0Y-113.3
X87.27Y-89.7
X87.93Y-89.7
X88.3Y-110.1
X89.2Y-97.2
X89.5Y-104.4
X89.767Y-90.333
X90.1Y-108.1
X90.233Y-89.867
X90.75Y-112.2
X90.75Y-113.2
X91.0Y-89.0
X91.0Y-97.0
X91.85Y-112.2
X91.85Y-113.2
X92.0Y-95.5
X92.0Y-98.5
X92.2Y-88.5
X92.6Y-83.35
X92.95Y-112.2
X92.95Y-113.2
X93.0Y-88.0
X93.25Y-95.0
X94.0Y-87.0
X94.05Y-112.2
X94.05Y-113.2
X95.15Y-112.2
X95.15Y-113.2
X96.8Y-100.5
X96.8Y-101.7
X97.0Y-84.0
X97.0Y-85.5
X97.0Y-87.0
X97.0Y-88.5
X97.0Y-90.0
X97.75Y-95.0
X98.2Y-100.5
X98.2Y-101.7
X99.6Y-100.5
X99.6Y-101.7
X101.3Y-98.8
X101.3Y-103.4
X101.6Y-99.8
X101.6Y-102.4
X102.3Y-99.8
X102.3Y-101.1
X102.3Y-102.4
X102.4Y-98.8
X102.4Y-103.4
X103.2Y-111.0
X103.3Y-109.7
X103.5Y-116.0
X103.7Y-111.6
X104.2Y-111.1
X104.5Y-95.5
X104.5Y-96.5
X104.5Y-97.5
X104.5Y-117.0
X105.3Y-110.9
X105.5Y-95.5
X105.5Y-96.5
X105.5Y-113.5
X105.5Y-114.5
X105.5Y-118.8
X106.0Y-97.5
X106.0Y-107.8
X106.2Y-117.0
X106.5Y-96.5
X106.5Y-113.5
X106.5Y-114.5
X106.6Y-110.7
X106.7Y-100.5
X107.1Y-99.5
X107.5Y-84.5
X107.5Y-85.5
X107.5Y-97.5
X107.6Y-110.7
X107.8Y-116.5
X108.0Y-108.2
X108.5Y-85.5
X108.5Y-117.0
X109.0Y-108.2
X109.05Y-114.75
X109.5Y-85.5
X109.7Y-105.5
X109.9Y-101.7
X110.0Y-114.5
X110.5Y-85.5
X110.767Y-113.733
X111.0Y-94.5
X111.0Y-104.5
X111.233Y-113.267
X111.5Y-85.5
X112.5Y-85.5
X112.5Y-94.5
X114.0Y-94.5
X115.416Y-102.041
X115.883Y-101.574
X116.0Y-108.3
X116.67Y-108.22
X116.7Y-101.4
X117.0Y-85.5
X117.33Y-108.22
X117.4Y-101.4
X118.267Y-85.733
X118.733Y-85.267
X118.9Y-101.57
X118.9Y-102.23
X119.0Y-103.1
X119.5Y-90.17
X119.5Y-90.83
X122.5Y-91.67
X122.5Y-92.33
X122.767Y-113.267
X123.233Y-113.733
X124.0Y-81.9
X124.0Y-86.67
X124.0Y-87.33
X124.0Y-93.17
X124.0Y-93.83
X124.5Y-83.17
X124.5Y-83.83
X124.5Y-106.5
X124.5Y-107.5
X124.8Y-112.37
X124.8Y-113.03
X125.0Y-106.0
X125.0Y-107.0
X127.7Y-84.9
X127.7Y-86.1
X128.1Y-96.67
X128.1Y-97.33
X128.1Y-98.17
X128.1Y-98.83
X128.2Y-84.3
X128.2Y-85.5
X128.2Y-86.7
X128.4Y-94.17
X128.4Y-94.83
X131.2Y-97.7
X131.3Y-87.9
X131.6Y-88.6
X131.9Y-91.67
X131.9Y-92.33
X132.5Y-118.0
X134.0Y-91.5
X134.25Y-90.25
X135.0Y-92.5
X135.25Y-90.75
X136.0Y-89.5
X136.1Y-93.67
X136.1Y-94.33
X136.5Y-92.7
X137.0Y-115.8
X138.9Y-115.8
X139.6Y-116.3
X141.0Y-80.0
X141.6Y-116.3
X141.67Y-77.5
X142.33Y-77.5
X142.4Y-116.3
X142.8Y-80.1
X144.2Y-80.1
X144.67Y-76.5
X145.33Y-76.5
X145.7Y-80.1
X146.17Y-77.5
X146.17Y-112.0
X146.178Y-116.446
X146.83Y-77.5
X146.83Y-112.0
X146.838Y-116.446
X147.3Y-80.1
X148.0Y-94.25
X148.0Y-95.0
X148.3Y-80.1
X148.5Y-91.17
X148.5Y-91.83
X148.6Y-96.1
X148.8Y-95.1
X149.2Y-96.6
X150.0Y-96.6
X151.75Y-95.695
X151.75Y-96.305
X152.0Y-99.5
X153.0Y-80.5
X153.3Y-98.7
X154.0Y-80.5
X154.0Y-90.67
X154.0Y-91.33
X155.25Y-99.5
X155.5Y-86.3
X155.5Y-104.67
X155.5Y-105.33
X156.0Y-101.25
X156.5Y-83.67
X156.5Y-84.33
X156.5Y-103.17
X156.5Y-103.83
X156.5Y-106.17
X156.5Y-106.83
X156.75Y-102.4
X159.4Y-94.2
X159.5Y-88.75
X159.554Y-101.67
X159.554Y-102.33
X159.6Y-85.8
X159.6Y-86.7
X160.0Y-89.3
X160.0Y-91.5
X160.0Y-92.17
X160.0Y-92.83
X160.25Y-88.0
X160.3Y-85.3
X160.3Y-86.2
X160.6Y-94.2
X163.3Y-86.0
X163.5Y-104.0
X163.567Y-89.367
X164.033Y-89.833
X165.0Y-93.17
X165.0Y-93.83
X165.2Y-103.7
X165.2Y-104.7
X165.4Y-83.0
X166.1Y-84.3
X166.9Y-84.3
X167.2Y-90.2
X167.5Y-105.0
X167.6Y-90.8
X167.7Y-85.9
X167.7Y-85.1
X168.2Y-91.9
X168.75Y-98.75
X168.767Y-86.767
X169.0Y-101.0
X169.233Y-87.233
X169.7Y-106.0
X171.5Y-91.3
X172.4Y-81.3
X173.2Y-79.5
X173.3Y-75.5
X173.5Y-101.0
X174.3Y-75.5
X174.5Y-82.67
X174.5Y-83.33
X175.0Y-92.5
X175.3Y-75.4
X175.4Y-90.4
X177.17Y-83.0
X177.5Y-90.5
X177.5Y-98.75
X177.83Y-83.0
X178.5Y-88.823
X179.5Y-84.5
X179.5Y-88.823
X180.5Y-83.5
X180.5Y-88.823
X180.8Y-79.4
X181.5Y-83.5
X182.0Y-78.0
X182.5Y-81.5
X186.2Y-73.0
X187.4Y-74.0
X187.4Y-74.8
X187.4Y-75.6
X188.7Y-71.0
X190.1Y-74.3
X190.2Y-88.4
X190.2Y-90.4
X190.9Y-85.2
X191.0Y-91.9
X191.2Y-71.0
X193.1Y-77.9
X193.5Y-75.5
X193.7Y-71.0
X194.215Y-86.485
X194.215Y-85.515
X196.1Y-97.9
X196.5Y-92.5
X197.05Y-95.95
X197.3Y-85.9
X197.315Y-75.185
X197.5Y-92.0
X198.3Y-85.9
X198.5Y-88.0
X198.5Y-89.0
X198.5Y-90.0
X198.5Y-92.0
X199.0Y-76.0
X200.8Y-96.0
X200.8Y-97.0
X200.985Y-98.185
X203.0Y-88.5
X203.5Y-86.1
X204.0Y-74.0
X204.3Y-87.5
X206.267Y-89.267
X206.733Y-89.733
X208.17Y-89.5
X208.8Y-80.5
X208.83Y-89.5
X210.2Y-80.6
X212.0Y-81.7
X212.02Y-86.98
X212.6Y-83.2
T3
X84.3Y-106.95
X85.4Y-106.95
X86.6Y-106.95
X86.6Y-107.85
X87.9Y-106.95
X87.9Y-107.85
T4
X80.5Y-94.0
X81.0Y-102.0
X82.0Y-94.0
X82.5Y-102.0
X83.5Y-100.5
X83.9Y-95.5
X84.0Y-102.0
X86.3Y-115.0
X86.3Y-118.0
X87.8Y-115.0
X87.8Y-118.0
X88.5Y-103.0
X89.3Y-115.0
X89.3Y-118.0
X90.8Y-103.0
X91.4Y-107.0
X91.7Y-115.0
X91.7Y-118.0
X92.0Y-100.1
X92.0Y-101.3
X92.0Y-102.5
X93.2Y-115.0
X93.2Y-118.0
X94.7Y-118.0
X94.8Y-115.0
X94.9Y-94.5
X95.2Y-107.2
X100.7Y-94.4
X101.2Y-81.6
X102.7Y-81.6
X104.5Y-84.5
X107.1Y-81.6
X108.4Y-81.6
X110.5Y-81.5
X111.0Y-103.6
X112.0Y-81.5
X112.0Y-102.6
X112.5Y-101.5
X113.0Y-81.5
X113.0Y-100.5
X114.0Y-84.5
X114.7Y-83.5
X117.0Y-82.0
X124.5Y-85.25
X124.5Y-97.5
X124.6Y-102.9
X128.0Y-87.75
X128.0Y-90.25
X128.0Y-93.0
X128.0Y-99.954
X131.5Y-95.0
X131.5Y-105.5
X131.5Y-106.5
X136.0Y-88.5
X138.0Y-85.75
X138.0Y-116.0
X138.5Y-80.5
X138.75Y-86.75
X139.0Y-92.25
X139.0Y-93.25
X139.0Y-94.75
X139.0Y-96.25
X139.0Y-97.5
X139.5Y-88.25
X140.0Y-112.0
X140.5Y-116.0
X143.0Y-112.5
X144.25Y-116.0
X144.5Y-112.5
X145.3Y-116.0
X145.5Y-87.75
X145.5Y-89.25
X145.5Y-90.75
X145.5Y-92.25
X145.5Y-93.75
X145.5Y-94.75
X145.5Y-99.75
X146.25Y-101.25
X147.7Y-116.0
X148.0Y-102.5
X148.5Y-99.5
X150.25Y-112.5
X150.25Y-116.25
X151.5Y-101.5
X151.5Y-103.0
X152.0Y-80.2
X153.0Y-77.0
X154.0Y-77.5
X154.5Y-79.0
X154.5Y-109.5
X156.5Y-108.5
X159.644Y-104.644
X159.75Y-105.75
X160.0Y-95.0
X160.0Y-99.0
X160.0Y-100.7
X160.4Y-106.5
X163.1Y-108.0
X163.5Y-111.0
X164.0Y-105.0
X164.5Y-71.0
X164.5Y-112.0
X165.0Y-118.0
X167.5Y-71.0
X168.0Y-107.0
X169.75Y-90.25
X170.0Y-101.5
X172.5Y-91.5
X172.5Y-101.5
X173.5Y-91.5
X177.5Y-101.5
X178.5Y-117.0
X185.3Y-87.9
X185.45Y-90.45
X188.0Y-91.9
X188.5Y-86.9
X192.5Y-105.5
X200.5Y-112.0
X201.0Y-104.5
X203.0Y-113.5
X203.5Y-115.5
X207.0Y-106.5
X208.0Y-113.5
X208.5Y-115.5
T5
X114.2Y-110.79
X114.6Y-111.49
X115.0Y-110.79
X115.4Y-111.49
X115.8Y-110.79
X116.2Y-111.49
X116.6Y-110.79
X117.4Y-110.79
X117.8Y-111.49
X118.2Y-110.79
X118.6Y-111.49
X119.0Y-110.79
X119.4Y-111.49
X119.8Y-110.79
T6
X152.5Y-71.73
X152.5Y-73.0
X153.77Y-71.73
X153.77Y-73.0
X155.04Y-71.73
X155.04Y-73.0
X156.31Y-71.73
X156.31Y-73.0
X133.5Y-106.0
X133.5Y-107.27
X134.77Y-106.0
X134.77Y-107.27
X136.04Y-106.0
X136.04Y-107.27
X137.31Y-106.0
X137.31Y-107.27
X138.58Y-106.0
X138.58Y-107.27
X139.85Y-106.0
X139.85Y-107.27
X141.12Y-106.0
X141.12Y-107.27
X142.39Y-106.0
X142.39Y-107.27
X143.66Y-106.0
X143.66Y-107.27
X144.93Y-106.0
X144.93Y-107.27
X146.2Y-106.0
X146.2Y-107.27
X147.47Y-106.0
X147.47Y-107.27
X148.74Y-106.0
X148.74Y-107.27
X150.01Y-106.0
X150.01Y-107.27
X151.28Y-106.0
X151.28Y-107.27
T7
X196.5Y-71.5
X198.5Y-71.5
X200.5Y-71.5
X202.5Y-71.5
X204.5Y-71.5
T8
X116.5Y-73.96
X116.5Y-76.5
X119.04Y-73.96
X119.04Y-76.5
X121.58Y-73.96
X121.58Y-76.5
X183.275Y-112.54
X183.275Y-114.57
X184.285Y-101.11
X185.555Y-103.65
X186.825Y-101.11
X188.095Y-103.65
X189.365Y-101.11
X190.635Y-103.65
X191.905Y-101.11
X193.175Y-103.65
X194.445Y-101.11
X195.715Y-103.65
X196.725Y-112.54
X196.725Y-114.57
X129.15Y-80.025
X129.15Y-109.975
X134.025Y-114.85
X153.975Y-114.85
X161.15Y-80.025
X161.15Y-109.975
T9
X112.73Y-111.94
X112.73Y-116.67
X121.27Y-111.94
X121.27Y-116.67
T10
X98.0Y-109.5
X100.5Y-109.5
T11
X127.15Y-81.5
X127.15Y-108.5
X135.5Y-116.85
X152.5Y-116.85
X159.15Y-81.5
X159.15Y-108.5
T12
X182.125Y-106.95
X197.875Y-106.95
X98.0Y-116.68
X100.5Y-116.68
T13
X208.0Y-75.0
X208.0Y-95.0
X88.0Y-75.0
X88.0Y-95.0
X167.0Y-79.0
X187.0Y-79.0
T14
X82.0Y-73.0
X82.0Y-117.0
X214.0Y-73.0
X214.0Y-117.0
T15
X184.285Y-110.0
X195.715Y-110.0
T16
X127.0Y-73.0
X127.0Y-117.0
X161.0Y-73.0
X161.0Y-117.0
T0
M30
