M48
; DRILL file {KiCad 5.1.0-unknown-c1c4a09~94~ubuntu18.04.1} date Mon Apr  1 00:29:06 2019
; FORMAT={-:-/ absolute / inch / decimal}
; #@! TF.CreationDate,2019-04-01T00:29:06+08:00
; #@! TF.GenerationSoftware,Kicad,Pcbnew,5.1.0-unknown-c1c4a09~94~ubuntu18.04.1
FMAT,2
INCH
T1C0.0060
T2C0.0080
T3C0.0118
T4C0.0150
T5C0.0157
T6C0.0256
T7C0.0315
T8C0.0394
T9C0.0433
T10C0.0472
T11C0.0571
T12C0.0669
T13C0.0787
T14C0.1240
T15C0.1260
T16C0.1378
%
G90
G05
T1
X3.3756Y-3.378
X3.3839Y-3.2953
X3.3858Y-3.3484
X3.3864Y-3.2683
X3.4075Y-3.3465
X3.4077Y-3.4234
X3.4083Y-3.2685
X3.4087Y-3.2945
X3.4094Y-3.3976
X3.4302Y-3.2696
X3.4528Y-3.3474
X3.4535Y-3.2689
X3.4537Y-3.3986
X3.4754Y-3.3986
X3.4764Y-3.2677
X3.498Y-3.2687
X3.5197Y-3.4252
X3.5207Y-3.3199
X3.5423Y-3.2677
X3.5429Y-3.3209
X3.5433Y-3.3976
X3.5442Y-3.4251
X3.5659Y-3.4272
X3.5673Y-3.3209
X3.6299Y-3.4262
X6.8583Y-3.1299
X6.8862Y-3.1618
X6.8862Y-3.2161
X6.8894Y-3.1366
X6.8898Y-3.0583
X6.8902Y-3.0323
X6.9122Y-3.0843
X6.9126Y-3.1358
X6.9346Y-3.0323
X6.9346Y-3.1362
X6.9346Y-3.1622
X6.9571Y-3.0323
X6.9571Y-3.0843
X6.9571Y-3.1102
X6.9575Y-3.1622
X6.9685Y-2.9961
X6.9799Y-3.0323
X7.0024Y-3.0323
X7.0244Y-3.1102
X7.0244Y-3.1882
X7.0354Y-3.2205
X7.0469Y-3.0323
X7.0472Y-3.0843
X7.0472Y-3.1622
X7.0748Y-3.2165
X7.0787Y-3.0827
X8.0787Y-3.311
X8.0827Y-3.3701
X8.1024Y-3.3976
X8.1102Y-3.2685
X8.1104Y-3.3721
X8.1142Y-3.4567
X8.1327Y-3.3205
X8.1329Y-3.4242
X8.1329Y-3.3724
X8.1331Y-3.2685
X8.1555Y-3.398
X8.1772Y-3.2362
X8.1772Y-3.2697
X8.1772Y-3.3976
X8.178Y-3.3205
X8.178Y-3.3469
X8.2008Y-3.2697
X8.2224Y-3.2685
X8.2323Y-3.4606
X8.2402Y-3.2283
X8.2451Y-3.3465
X8.2453Y-3.3988
X8.2598Y-3.4606
X8.2677Y-3.374
X8.2677Y-3.2685
X8.2677Y-3.3189
X8.2874Y-3.4606
X8.3071Y-3.2598
X8.3071Y-3.2953
T2
X3.2165Y-4.0551
X3.2165Y-4.0945
X3.2165Y-4.1339
X3.2165Y-4.1732
X3.2165Y-4.2126
X3.248Y-4.3425
X3.248Y-4.3819
X3.248Y-4.4213
X3.248Y-4.4606
X3.2559Y-4.0551
X3.2874Y-3.2677
X3.311Y-4.4055
X3.3465Y-3.8189
X3.4173Y-3.8268
X3.4252Y-4.3425
X3.4252Y-4.3819
X3.4252Y-4.4213
X3.4252Y-4.4606
X3.4358Y-3.5315
X3.4618Y-3.5315
X3.4764Y-4.3346
X3.5118Y-3.8268
X3.5236Y-4.1102
X3.5341Y-3.5564
X3.5472Y-4.2559
X3.5525Y-3.5381
X3.5728Y-4.4173
X3.5728Y-4.4567
X3.5827Y-3.5039
X3.5827Y-3.8189
X3.6161Y-4.4173
X3.6161Y-4.4567
X3.622Y-3.7598
X3.622Y-3.878
X3.6299Y-3.4843
X3.6457Y-3.2815
X3.6594Y-4.4173
X3.6594Y-4.4567
X3.6614Y-3.4646
X3.6713Y-3.7402
X3.7008Y-3.4252
X3.7028Y-4.4173
X3.7028Y-4.4567
X3.7461Y-4.4173
X3.7461Y-4.4567
X3.811Y-3.9567
X3.811Y-4.0039
X3.8189Y-3.3071
X3.8189Y-3.3661
X3.8189Y-3.4252
X3.8189Y-3.4843
X3.8189Y-3.5433
X3.8484Y-3.7402
X3.8661Y-3.9567
X3.8661Y-4.0039
X3.9213Y-3.9567
X3.9213Y-4.0039
X3.9882Y-3.8898
X3.9882Y-4.0709
X4.0Y-3.9291
X4.0Y-4.0315
X4.0276Y-3.9291
X4.0276Y-3.9803
X4.0276Y-4.0315
X4.0315Y-3.8898
X4.0315Y-4.0709
X4.063Y-4.3701
X4.0669Y-4.3189
X4.0748Y-4.5669
X4.0827Y-4.3937
X4.1024Y-4.374
X4.1142Y-3.7598
X4.1142Y-3.7992
X4.1142Y-3.8386
X4.1142Y-4.6063
X4.1457Y-4.3661
X4.1535Y-3.7598
X4.1535Y-3.7992
X4.1535Y-4.4685
X4.1535Y-4.5079
X4.1535Y-4.6772
X4.1732Y-3.8386
X4.1732Y-4.2441
X4.1811Y-4.6063
X4.1929Y-3.7992
X4.1929Y-4.4685
X4.1929Y-4.5079
X4.1969Y-4.3583
X4.2008Y-3.9567
X4.2165Y-3.9173
X4.2323Y-3.3268
X4.2323Y-3.3661
X4.2323Y-3.8386
X4.2362Y-4.3583
X4.2441Y-4.5866
X4.252Y-4.2598
X4.2717Y-3.3661
X4.2717Y-4.6063
X4.2913Y-4.2598
X4.2933Y-4.5177
X4.311Y-3.3661
X4.3189Y-4.1535
X4.3268Y-4.0039
X4.3307Y-4.5079
X4.3504Y-3.3661
X4.3609Y-4.4777
X4.3701Y-3.7205
X4.3701Y-4.1142
X4.3793Y-4.4593
X4.3898Y-3.3661
X4.4291Y-3.3661
X4.4291Y-3.7205
X4.4882Y-3.7205
X4.5439Y-4.0174
X4.5623Y-3.999
X4.5669Y-4.2638
X4.5933Y-4.2606
X4.5945Y-3.9921
X4.6063Y-3.3661
X4.6193Y-4.2606
X4.622Y-3.9921
X4.6562Y-3.3753
X4.6745Y-3.3569
X4.6811Y-3.9988
X4.6811Y-4.0248
X4.685Y-4.0591
X4.7047Y-3.55
X4.7047Y-3.576
X4.8228Y-3.609
X4.8228Y-3.635
X4.8333Y-4.4593
X4.8517Y-4.4777
X4.8819Y-3.2244
X4.8819Y-3.4122
X4.8819Y-3.4382
X4.8819Y-3.6681
X4.8819Y-3.6941
X4.9016Y-3.2744
X4.9016Y-3.3004
X4.9016Y-4.1929
X4.9016Y-4.2323
X4.9134Y-4.424
X4.9134Y-4.45
X4.9213Y-4.1732
X4.9213Y-4.2126
X5.0276Y-3.3425
X5.0276Y-3.3898
X5.0433Y-3.8059
X5.0433Y-3.8319
X5.0433Y-3.865
X5.0433Y-3.891
X5.0472Y-3.3189
X5.0472Y-3.3661
X5.0472Y-3.4134
X5.0551Y-3.7075
X5.0551Y-3.7335
X5.1654Y-3.8465
X5.1693Y-3.4606
X5.1811Y-3.4882
X5.1929Y-3.609
X5.1929Y-3.635
X5.2756Y-3.6024
X5.2854Y-3.5531
X5.315Y-3.6417
X5.3248Y-3.5728
X5.3543Y-3.5236
X5.3583Y-3.6878
X5.3583Y-3.7138
X5.374Y-3.6496
X5.4921Y-4.5787
X5.5512Y-3.1496
X5.5748Y-4.5787
X5.5776Y-3.0512
X5.6036Y-3.0512
X5.6063Y-4.5787
X5.622Y-3.1535
X5.6772Y-3.1535
X5.6957Y-3.0118
X5.7217Y-3.0118
X5.7362Y-3.1535
X5.7547Y-3.0512
X5.7547Y-4.4094
X5.755Y-4.5845
X5.7807Y-3.0512
X5.7807Y-4.4094
X5.781Y-4.5845
X5.7992Y-3.1535
X5.8268Y-3.7106
X5.8268Y-3.7402
X5.8386Y-3.1535
X5.8465Y-3.5894
X5.8465Y-3.6154
X5.8504Y-3.7835
X5.8583Y-3.7441
X5.874Y-3.8031
X5.9055Y-3.8031
X5.9744Y-3.7675
X5.9744Y-3.7915
X5.9843Y-3.9173
X6.0236Y-3.1693
X6.0354Y-3.8858
X6.063Y-3.1693
X6.063Y-3.5697
X6.063Y-3.5957
X6.1122Y-3.9173
X6.122Y-3.3976
X6.122Y-4.1209
X6.122Y-4.1469
X6.1417Y-3.9862
X6.1614Y-3.2941
X6.1614Y-3.3201
X6.1614Y-4.0618
X6.1614Y-4.0878
X6.1614Y-4.1799
X6.1614Y-4.2059
X6.1713Y-4.0315
X6.2756Y-3.7087
X6.2795Y-3.4941
X6.2817Y-4.0027
X6.2817Y-4.0287
X6.2835Y-3.378
X6.2835Y-3.4134
X6.2992Y-3.5157
X6.2992Y-3.6024
X6.2992Y-3.6287
X6.2992Y-3.6547
X6.3091Y-3.4646
X6.311Y-3.3583
X6.311Y-3.3937
X6.3228Y-3.7087
X6.4291Y-3.3858
X6.437Y-4.0945
X6.4396Y-3.5184
X6.458Y-3.5368
X6.4961Y-3.6681
X6.4961Y-3.6941
X6.5039Y-4.0827
X6.5039Y-4.122
X6.5118Y-3.2677
X6.5394Y-3.3189
X6.5709Y-3.3189
X6.5827Y-3.5512
X6.5945Y-4.1339
X6.5984Y-3.5748
X6.6024Y-3.3819
X6.6024Y-3.3504
X6.622Y-3.6181
X6.6437Y-3.8878
X6.6444Y-3.416
X6.6535Y-3.9764
X6.6627Y-3.4344
X6.6811Y-4.1732
X6.752Y-3.5945
X6.7874Y-3.2008
X6.8189Y-3.1299
X6.8228Y-2.9724
X6.8307Y-3.9764
X6.8622Y-2.9724
X6.8701Y-3.2547
X6.8701Y-3.2807
X6.8898Y-3.6417
X6.9016Y-2.9685
X6.9055Y-3.5591
X6.9752Y-3.2677
X6.9882Y-3.563
X6.9882Y-3.8878
X7.0012Y-3.2677
X7.0276Y-3.497
X7.0669Y-3.3268
X7.0669Y-3.497
X7.1063Y-3.2874
X7.1063Y-3.497
X7.1181Y-3.126
X7.1457Y-3.2874
X7.1654Y-3.0709
X7.185Y-3.2087
X7.3307Y-2.874
X7.378Y-2.9134
X7.378Y-2.9449
X7.378Y-2.9764
X7.4291Y-2.7953
X7.4843Y-2.9252
X7.4882Y-3.4803
X7.4882Y-3.5591
X7.5157Y-3.3543
X7.5197Y-3.6181
X7.5276Y-2.7953
X7.6024Y-3.0669
X7.6181Y-2.9724
X7.626Y-2.7953
X7.6463Y-3.4049
X7.6463Y-3.3667
X7.7205Y-3.8543
X7.7362Y-3.6417
X7.7579Y-3.7776
X7.7677Y-3.3819
X7.7683Y-2.96
X7.7756Y-3.622
X7.8071Y-3.3819
X7.815Y-3.4646
X7.815Y-3.5039
X7.815Y-3.5433
X7.815Y-3.622
X7.8346Y-2.9921
X7.9055Y-3.7795
X7.9055Y-3.8189
X7.9128Y-3.8656
X7.9921Y-3.4843
X8.0118Y-3.3898
X8.0315Y-2.9134
X8.0433Y-3.4449
X8.1207Y-3.5144
X8.1391Y-3.5328
X8.1957Y-3.5236
X8.2205Y-3.1693
X8.2217Y-3.5236
X8.2756Y-3.1732
X8.3465Y-3.2165
X8.3472Y-3.4244
X8.3701Y-3.2756
T3
X3.3189Y-4.2106
X3.3622Y-4.2106
X3.4094Y-4.2106
X3.4094Y-4.2461
X3.4606Y-4.2106
X3.4606Y-4.2461
T4
X3.1693Y-3.7008
X3.189Y-4.0157
X3.2283Y-3.7008
X3.248Y-4.0157
X3.2874Y-3.9567
X3.3031Y-3.7598
X3.3071Y-4.0157
X3.3976Y-4.5276
X3.3976Y-4.6457
X3.4567Y-4.5276
X3.4567Y-4.6457
X3.4843Y-4.0551
X3.5157Y-4.5276
X3.5157Y-4.6457
X3.5748Y-4.0551
X3.5984Y-4.2126
X3.6102Y-4.5276
X3.6102Y-4.6457
X3.622Y-3.9409
X3.622Y-3.9882
X3.622Y-4.0354
X3.6693Y-4.5276
X3.6693Y-4.6457
X3.7283Y-4.6457
X3.7323Y-4.5276
X3.7362Y-3.7205
X3.748Y-4.2205
X3.9646Y-3.7165
X3.9843Y-3.2126
X4.0433Y-3.2126
X4.1142Y-3.3268
X4.2165Y-3.2126
X4.2677Y-3.2126
X4.3504Y-3.2087
X4.3701Y-4.0787
X4.4094Y-3.2087
X4.4094Y-4.0394
X4.4291Y-3.9961
X4.4488Y-3.2087
X4.4882Y-3.3268
X4.5157Y-3.2874
X4.6063Y-3.2283
X4.9016Y-3.3563
X4.9016Y-3.8386
X4.9055Y-4.0512
X5.0394Y-3.4547
X5.0394Y-3.5531
X5.0394Y-3.6614
X5.0394Y-3.9352
X5.1772Y-3.7402
X5.1772Y-4.1535
X5.1772Y-4.1929
X5.3543Y-3.4843
X5.4232Y-4.5669
X5.4331Y-3.376
X5.4528Y-3.1693
X5.4626Y-3.4154
X5.4724Y-3.6319
X5.4724Y-3.6713
X5.4724Y-3.7303
X5.4724Y-3.7894
X5.4724Y-3.8386
X5.4921Y-3.4744
X5.5118Y-4.4094
X5.5315Y-4.5669
X5.6299Y-4.4291
X5.6791Y-4.5669
X5.689Y-4.4291
X5.7205Y-4.5669
X5.7283Y-3.4547
X5.7283Y-3.5138
X5.7283Y-3.5728
X5.7283Y-3.6319
X5.7283Y-3.6909
X5.7283Y-3.7303
X5.7283Y-3.9272
X5.7579Y-3.9862
X5.815Y-4.5669
X5.8268Y-4.0354
X5.8465Y-3.9173
X5.9154Y-4.4291
X5.9154Y-4.5768
X5.9646Y-3.9961
X5.9646Y-4.0551
X5.9843Y-3.1575
X6.0236Y-3.0315
X6.063Y-3.0512
X6.0827Y-3.1102
X6.0827Y-4.311
X6.1614Y-4.2717
X6.2852Y-4.1199
X6.2894Y-4.1634
X6.2992Y-3.7402
X6.2992Y-3.8976
X6.2992Y-3.9646
X6.315Y-4.1929
X6.4213Y-4.252
X6.437Y-4.3701
X6.4567Y-4.1339
X6.4764Y-2.7953
X6.4764Y-4.4094
X6.4961Y-4.6457
X6.5945Y-2.7953
X6.6142Y-4.2126
X6.6831Y-3.5531
X6.6929Y-3.9961
X6.7913Y-3.6024
X6.7913Y-3.9961
X6.8307Y-3.6024
X6.9882Y-3.9961
X7.0276Y-4.6063
X7.2953Y-3.4606
X7.3012Y-3.561
X7.4016Y-3.6181
X7.4213Y-3.4213
X7.5787Y-4.1535
X7.8937Y-4.4094
X7.9134Y-4.1142
X7.9921Y-4.4685
X8.0118Y-4.5472
X8.1496Y-4.1929
X8.189Y-4.4685
X8.2087Y-4.5472
T5
X4.4961Y-4.3618
X4.5118Y-4.3894
X4.5276Y-4.3618
X4.5433Y-4.3894
X4.5591Y-4.3618
X4.5748Y-4.3894
X4.5906Y-4.3618
X4.622Y-4.3618
X4.6378Y-4.3894
X4.6535Y-4.3618
X4.6693Y-4.3894
X4.685Y-4.3618
X4.7008Y-4.3894
X4.7165Y-4.3618
T6
X5.2559Y-4.1732
X5.2559Y-4.2232
X5.3059Y-4.1732
X5.3059Y-4.2232
X5.3559Y-4.1732
X5.3559Y-4.2232
X5.4059Y-4.1732
X5.4059Y-4.2232
X5.4559Y-4.1732
X5.4559Y-4.2232
X5.5059Y-4.1732
X5.5059Y-4.2232
X5.5559Y-4.1732
X5.5559Y-4.2232
X5.6059Y-4.1732
X5.6059Y-4.2232
X5.6559Y-4.1732
X5.6559Y-4.2232
X5.7059Y-4.1732
X5.7059Y-4.2232
X5.7559Y-4.1732
X5.7559Y-4.2232
X5.8059Y-4.1732
X5.8059Y-4.2232
X5.8559Y-4.1732
X5.8559Y-4.2232
X5.9059Y-4.1732
X5.9059Y-4.2232
X5.9559Y-4.1732
X5.9559Y-4.2232
X6.0039Y-2.824
X6.0039Y-2.874
X6.0539Y-2.824
X6.0539Y-2.874
X6.1039Y-2.824
X6.1039Y-2.874
X6.1539Y-2.824
X6.1539Y-2.874
T7
X7.7362Y-2.815
X7.815Y-2.815
X7.8937Y-2.815
X7.9724Y-2.815
X8.0512Y-2.815
T8
X4.5866Y-2.9118
X4.5866Y-3.0118
X4.6866Y-2.9118
X4.6866Y-3.0118
X4.7866Y-2.9118
X4.7866Y-3.0118
X7.2156Y-4.4307
X7.2156Y-4.5106
X7.2553Y-3.9807
X7.3053Y-4.0807
X7.3553Y-3.9807
X7.4053Y-4.0807
X7.4553Y-3.9807
X7.5053Y-4.0807
X7.5553Y-3.9807
X7.6053Y-4.0807
X7.6553Y-3.9807
X7.7053Y-4.0807
X7.7451Y-4.4307
X7.7451Y-4.5106
X5.0846Y-3.1506
X5.0846Y-4.3297
X5.2766Y-4.5217
X6.062Y-4.5217
X6.3445Y-3.1506
X6.3445Y-4.3297
T9
X4.4382Y-4.4071
X4.4382Y-4.5933
X4.7744Y-4.4071
X4.7744Y-4.5933
T10
X3.8583Y-4.311
X3.9567Y-4.311
T11
X5.0059Y-3.2087
X5.0059Y-4.2717
X5.3346Y-4.6004
X6.0039Y-4.6004
X6.2657Y-3.2087
X6.2657Y-4.2717
T12
X7.1703Y-4.2106
X7.7904Y-4.2106
X3.8583Y-4.5937
X3.9567Y-4.5937
T13
X6.5748Y-3.1102
X7.3622Y-3.1102
X8.189Y-2.9528
X8.189Y-3.7402
X3.4646Y-2.9528
X3.4646Y-3.7402
T14
X3.2283Y-2.874
X3.2283Y-4.6063
X8.4252Y-2.874
X8.4252Y-4.6063
T15
X7.2553Y-4.3307
X7.7053Y-4.3307
T16
X5.0Y-2.874
X5.0Y-4.6063
X6.3386Y-2.874
X6.3386Y-4.6063
T0
M30
