%TF.GenerationSoftware,KiCad,Pcbnew,5.99.0-unknown-42c6af4bd8~125~ubuntu20.04.1*%
%TF.CreationDate,2021-03-29T15:44:49+08:00*%
%TF.ProjectId,ovc5,6f766335-2e6b-4696-9361-645f70636258,rev?*%
%TF.SameCoordinates,Original*%
%TF.FileFunction,Paste,Bot*%
%TF.FilePolarity,Positive*%
%FSLAX46Y46*%
G04 Gerber Fmt 4.6, Leading zero omitted, Abs format (unit mm)*
G04 Created by KiCad (PCBNEW 5.99.0-unknown-42c6af4bd8~125~ubuntu20.04.1) date 2021-03-29 15:44:49*
%MOMM*%
%LPD*%
G01*
G04 APERTURE LIST*
G04 Aperture macros list*
%AMRoundRect*
0 Rectangle with rounded corners*
0 $1 Rounding radius*
0 $2 $3 $4 $5 $6 $7 $8 $9 X,Y pos of 4 corners*
0 Add a 4 corners polygon primitive as box body*
4,1,4,$2,$3,$4,$5,$6,$7,$8,$9,$2,$3,0*
0 Add four circle primitives for the rounded corners*
1,1,$1+$1,$2,$3*
1,1,$1+$1,$4,$5*
1,1,$1+$1,$6,$7*
1,1,$1+$1,$8,$9*
0 Add four rect primitives between the rounded corners*
20,1,$1+$1,$2,$3,$4,$5,0*
20,1,$1+$1,$4,$5,$6,$7,0*
20,1,$1+$1,$6,$7,$8,$9,0*
20,1,$1+$1,$8,$9,$2,$3,0*%
G04 Aperture macros list end*
%ADD10RoundRect,0.135000X0.135000X0.185000X-0.135000X0.185000X-0.135000X-0.185000X0.135000X-0.185000X0*%
%ADD11RoundRect,0.140000X-0.140000X-0.170000X0.140000X-0.170000X0.140000X0.170000X-0.140000X0.170000X0*%
%ADD12RoundRect,0.140000X-0.170000X0.140000X-0.170000X-0.140000X0.170000X-0.140000X0.170000X0.140000X0*%
%ADD13RoundRect,0.140000X0.140000X0.170000X-0.140000X0.170000X-0.140000X-0.170000X0.140000X-0.170000X0*%
%ADD14RoundRect,0.140000X0.170000X-0.140000X0.170000X0.140000X-0.170000X0.140000X-0.170000X-0.140000X0*%
%ADD15R,0.300000X0.300000*%
%ADD16RoundRect,0.135000X-0.135000X-0.185000X0.135000X-0.185000X0.135000X0.185000X-0.135000X0.185000X0*%
%ADD17RoundRect,0.135000X-0.185000X0.135000X-0.185000X-0.135000X0.185000X-0.135000X0.185000X0.135000X0*%
G04 APERTURE END LIST*
D10*
%TO.C,R60*%
X67290000Y-63850000D03*
X68310000Y-63850000D03*
%TD*%
D11*
%TO.C,C33*%
X64090950Y-53401550D03*
X65050950Y-53401550D03*
%TD*%
D12*
%TO.C,C31*%
X56675000Y-62590000D03*
X56675000Y-63550000D03*
%TD*%
D13*
%TO.C,C55*%
X63850950Y-50551550D03*
X62890950Y-50551550D03*
%TD*%
%TO.C,C14*%
X56200950Y-57951550D03*
X55240950Y-57951550D03*
%TD*%
%TO.C,C60*%
X60850950Y-49876550D03*
X59890950Y-49876550D03*
%TD*%
D14*
%TO.C,C24*%
X62720950Y-59006550D03*
X62720950Y-58046550D03*
%TD*%
D10*
%TO.C,R5*%
X68310000Y-62900000D03*
X67290000Y-62900000D03*
%TD*%
D15*
%TO.C,D5*%
X42425000Y-42100000D03*
X42425000Y-41400000D03*
X43275000Y-41750000D03*
%TD*%
D13*
%TO.C,C56*%
X63850950Y-51501550D03*
X62890950Y-51501550D03*
%TD*%
D11*
%TO.C,C17*%
X69440950Y-56401550D03*
X70400950Y-56401550D03*
%TD*%
D12*
%TO.C,C29*%
X58575000Y-62590000D03*
X58575000Y-63550000D03*
%TD*%
D14*
%TO.C,C41*%
X58050000Y-52480000D03*
X58050000Y-51520000D03*
%TD*%
%TO.C,C50*%
X57220950Y-55906550D03*
X57220950Y-54946550D03*
%TD*%
D13*
%TO.C,C66*%
X55530000Y-52900000D03*
X54570000Y-52900000D03*
%TD*%
D11*
%TO.C,C19*%
X69420000Y-60125000D03*
X70380000Y-60125000D03*
%TD*%
D12*
%TO.C,C25*%
X63475000Y-63271550D03*
X63475000Y-64231550D03*
%TD*%
D11*
%TO.C,C22*%
X69440950Y-55451550D03*
X70400950Y-55451550D03*
%TD*%
D12*
%TO.C,C61*%
X65970950Y-57221550D03*
X65970950Y-58181550D03*
%TD*%
D11*
%TO.C,C81*%
X53045000Y-38325000D03*
X54005000Y-38325000D03*
%TD*%
%TO.C,C53*%
X67365950Y-59351550D03*
X68325950Y-59351550D03*
%TD*%
D12*
%TO.C,C32*%
X57625000Y-62590000D03*
X57625000Y-63550000D03*
%TD*%
D14*
%TO.C,C36*%
X62895950Y-53356550D03*
X62895950Y-52396550D03*
%TD*%
D10*
%TO.C,R6*%
X66810000Y-48900000D03*
X65790000Y-48900000D03*
%TD*%
D12*
%TO.C,C38*%
X61420950Y-63271550D03*
X61420950Y-64231550D03*
%TD*%
D10*
%TO.C,R7*%
X70210000Y-65500000D03*
X69190000Y-65500000D03*
%TD*%
D11*
%TO.C,C11*%
X69210000Y-64568000D03*
X70170000Y-64568000D03*
%TD*%
D13*
%TO.C,C62*%
X65050950Y-54351550D03*
X64090950Y-54351550D03*
%TD*%
%TO.C,C57*%
X59730000Y-56551550D03*
X58770000Y-56551550D03*
%TD*%
D10*
%TO.C,R13*%
X55560000Y-53890000D03*
X54540000Y-53890000D03*
%TD*%
D12*
%TO.C,C37*%
X60470950Y-63271550D03*
X60470950Y-64231550D03*
%TD*%
D13*
%TO.C,C49*%
X63125950Y-54251550D03*
X62165950Y-54251550D03*
%TD*%
D11*
%TO.C,C20*%
X69340950Y-58701550D03*
X70300950Y-58701550D03*
%TD*%
%TO.C,C52*%
X67140950Y-56001550D03*
X68100950Y-56001550D03*
%TD*%
D14*
%TO.C,C42*%
X66020950Y-52331550D03*
X66020950Y-51371550D03*
%TD*%
D16*
%TO.C,R14*%
X54520000Y-51940000D03*
X55540000Y-51940000D03*
%TD*%
D13*
%TO.C,C35*%
X61000950Y-51201550D03*
X60040950Y-51201550D03*
%TD*%
D12*
%TO.C,C30*%
X59525000Y-62590000D03*
X59525000Y-63550000D03*
%TD*%
D14*
%TO.C,C43*%
X64520950Y-59181550D03*
X64520950Y-58221550D03*
%TD*%
D11*
%TO.C,C9*%
X67340000Y-61910000D03*
X68300000Y-61910000D03*
%TD*%
D13*
%TO.C,C21*%
X56200950Y-58901550D03*
X55240950Y-58901550D03*
%TD*%
%TO.C,C59*%
X59425950Y-55151550D03*
X58465950Y-55151550D03*
%TD*%
%TO.C,C15*%
X56200950Y-57001550D03*
X55240950Y-57001550D03*
%TD*%
D12*
%TO.C,C26*%
X62525000Y-63271550D03*
X62525000Y-64231550D03*
%TD*%
D11*
%TO.C,C44*%
X67490950Y-58051550D03*
X68450950Y-58051550D03*
%TD*%
D13*
%TO.C,C51*%
X63120950Y-55176550D03*
X62160950Y-55176550D03*
%TD*%
D16*
%TO.C,R10*%
X65010950Y-60476550D03*
X66030950Y-60476550D03*
%TD*%
D13*
%TO.C,C82*%
X42330000Y-38250000D03*
X41370000Y-38250000D03*
%TD*%
D11*
%TO.C,C10*%
X65820000Y-49900000D03*
X66780000Y-49900000D03*
%TD*%
D13*
%TO.C,C80*%
X42330000Y-39200000D03*
X41370000Y-39200000D03*
%TD*%
D14*
%TO.C,C48*%
X59970950Y-59031550D03*
X59970950Y-58071550D03*
%TD*%
D13*
%TO.C,C13*%
X56200950Y-60801550D03*
X55240950Y-60801550D03*
%TD*%
D12*
%TO.C,C89*%
X81620000Y-68290000D03*
X81620000Y-69250000D03*
%TD*%
D17*
%TO.C,R44*%
X57070000Y-51490000D03*
X57070000Y-52510000D03*
%TD*%
D11*
%TO.C,C18*%
X69420000Y-61075000D03*
X70380000Y-61075000D03*
%TD*%
D12*
%TO.C,C88*%
X80620000Y-68290000D03*
X80620000Y-69250000D03*
%TD*%
D11*
%TO.C,C16*%
X69440950Y-57351550D03*
X70400950Y-57351550D03*
%TD*%
D13*
%TO.C,C12*%
X56200950Y-59851550D03*
X55240950Y-59851550D03*
%TD*%
%TO.C,C54*%
X58280950Y-60301550D03*
X57320950Y-60301550D03*
%TD*%
D11*
%TO.C,C79*%
X53045000Y-39275000D03*
X54005000Y-39275000D03*
%TD*%
D13*
%TO.C,C58*%
X60850950Y-48926550D03*
X59890950Y-48926550D03*
%TD*%
M02*
