G04 #@! TF.GenerationSoftware,KiCad,Pcbnew,6.0.0-unknown-772dff7~100~ubuntu18.04.1*
G04 #@! TF.CreationDate,2019-07-09T14:46:37+08:00*
G04 #@! TF.ProjectId,backpack,6261636b-7061-4636-9b2e-6b696361645f,rev?*
G04 #@! TF.SameCoordinates,Original*
G04 #@! TF.FileFunction,Legend,Bot*
G04 #@! TF.FilePolarity,Positive*
%FSLAX46Y46*%
G04 Gerber Fmt 4.6, Leading zero omitted, Abs format (unit mm)*
G04 Created by KiCad (PCBNEW 6.0.0-unknown-772dff7~100~ubuntu18.04.1) date 2019-07-09 14:46:37*
%MOMM*%
%LPD*%
G04 APERTURE LIST*
%ADD10C,0.150000*%
%ADD11C,0.120000*%
G04 APERTURE END LIST*
D10*
X163214095Y-103686976D02*
X163214095Y-104144119D01*
X163214095Y-103915547D02*
X164014095Y-103915547D01*
X163899809Y-103991738D01*
X163823619Y-104067928D01*
X163785523Y-104144119D01*
X164014095Y-103458404D02*
X163214095Y-103191738D01*
X164014095Y-102925071D01*
X163671238Y-102544119D02*
X163709333Y-102620309D01*
X163747428Y-102658404D01*
X163823619Y-102696500D01*
X163861714Y-102696500D01*
X163937904Y-102658404D01*
X163976000Y-102620309D01*
X164014095Y-102544119D01*
X164014095Y-102391738D01*
X163976000Y-102315547D01*
X163937904Y-102277452D01*
X163861714Y-102239357D01*
X163823619Y-102239357D01*
X163747428Y-102277452D01*
X163709333Y-102315547D01*
X163671238Y-102391738D01*
X163671238Y-102544119D01*
X163633142Y-102620309D01*
X163595047Y-102658404D01*
X163518857Y-102696500D01*
X163366476Y-102696500D01*
X163290285Y-102658404D01*
X163252190Y-102620309D01*
X163214095Y-102544119D01*
X163214095Y-102391738D01*
X163252190Y-102315547D01*
X163290285Y-102277452D01*
X163366476Y-102239357D01*
X163518857Y-102239357D01*
X163595047Y-102277452D01*
X163633142Y-102315547D01*
X163671238Y-102391738D01*
X162706000Y-103940976D02*
X162744095Y-104017166D01*
X162744095Y-104131452D01*
X162706000Y-104245738D01*
X162629809Y-104321928D01*
X162553619Y-104360023D01*
X162401238Y-104398119D01*
X162286952Y-104398119D01*
X162134571Y-104360023D01*
X162058380Y-104321928D01*
X161982190Y-104245738D01*
X161944095Y-104131452D01*
X161944095Y-104055261D01*
X161982190Y-103940976D01*
X162020285Y-103902880D01*
X162286952Y-103902880D01*
X162286952Y-104055261D01*
X161944095Y-103560023D02*
X162744095Y-103560023D01*
X162744095Y-103255261D01*
X162706000Y-103179071D01*
X162667904Y-103140976D01*
X162591714Y-103102880D01*
X162477428Y-103102880D01*
X162401238Y-103140976D01*
X162363142Y-103179071D01*
X162325047Y-103255261D01*
X162325047Y-103560023D01*
X161944095Y-102760023D02*
X162744095Y-102760023D01*
X162744095Y-102226690D02*
X162744095Y-102074309D01*
X162706000Y-101998119D01*
X162629809Y-101921928D01*
X162477428Y-101883833D01*
X162210761Y-101883833D01*
X162058380Y-101921928D01*
X161982190Y-101998119D01*
X161944095Y-102074309D01*
X161944095Y-102226690D01*
X161982190Y-102302880D01*
X162058380Y-102379071D01*
X162210761Y-102417166D01*
X162477428Y-102417166D01*
X162629809Y-102379071D01*
X162706000Y-102302880D01*
X162744095Y-102226690D01*
X161436000Y-103940976D02*
X161474095Y-104017166D01*
X161474095Y-104131452D01*
X161436000Y-104245738D01*
X161359809Y-104321928D01*
X161283619Y-104360023D01*
X161131238Y-104398119D01*
X161016952Y-104398119D01*
X160864571Y-104360023D01*
X160788380Y-104321928D01*
X160712190Y-104245738D01*
X160674095Y-104131452D01*
X160674095Y-104055261D01*
X160712190Y-103940976D01*
X160750285Y-103902880D01*
X161016952Y-103902880D01*
X161016952Y-104055261D01*
X160674095Y-103560023D02*
X161474095Y-103560023D01*
X161474095Y-103255261D01*
X161436000Y-103179071D01*
X161397904Y-103140976D01*
X161321714Y-103102880D01*
X161207428Y-103102880D01*
X161131238Y-103140976D01*
X161093142Y-103179071D01*
X161055047Y-103255261D01*
X161055047Y-103560023D01*
X160674095Y-102760023D02*
X161474095Y-102760023D01*
X161474095Y-102226690D02*
X161474095Y-102074309D01*
X161436000Y-101998119D01*
X161359809Y-101921928D01*
X161207428Y-101883833D01*
X160940761Y-101883833D01*
X160788380Y-101921928D01*
X160712190Y-101998119D01*
X160674095Y-102074309D01*
X160674095Y-102226690D01*
X160712190Y-102302880D01*
X160788380Y-102379071D01*
X160940761Y-102417166D01*
X161207428Y-102417166D01*
X161359809Y-102379071D01*
X161436000Y-102302880D01*
X161474095Y-102226690D01*
X160166000Y-103940976D02*
X160204095Y-104017166D01*
X160204095Y-104131452D01*
X160166000Y-104245738D01*
X160089809Y-104321928D01*
X160013619Y-104360023D01*
X159861238Y-104398119D01*
X159746952Y-104398119D01*
X159594571Y-104360023D01*
X159518380Y-104321928D01*
X159442190Y-104245738D01*
X159404095Y-104131452D01*
X159404095Y-104055261D01*
X159442190Y-103940976D01*
X159480285Y-103902880D01*
X159746952Y-103902880D01*
X159746952Y-104055261D01*
X159404095Y-103560023D02*
X160204095Y-103560023D01*
X160204095Y-103255261D01*
X160166000Y-103179071D01*
X160127904Y-103140976D01*
X160051714Y-103102880D01*
X159937428Y-103102880D01*
X159861238Y-103140976D01*
X159823142Y-103179071D01*
X159785047Y-103255261D01*
X159785047Y-103560023D01*
X159404095Y-102760023D02*
X160204095Y-102760023D01*
X160204095Y-102226690D02*
X160204095Y-102074309D01*
X160166000Y-101998119D01*
X160089809Y-101921928D01*
X159937428Y-101883833D01*
X159670761Y-101883833D01*
X159518380Y-101921928D01*
X159442190Y-101998119D01*
X159404095Y-102074309D01*
X159404095Y-102226690D01*
X159442190Y-102302880D01*
X159518380Y-102379071D01*
X159670761Y-102417166D01*
X159937428Y-102417166D01*
X160089809Y-102379071D01*
X160166000Y-102302880D01*
X160204095Y-102226690D01*
X158896000Y-103940976D02*
X158934095Y-104017166D01*
X158934095Y-104131452D01*
X158896000Y-104245738D01*
X158819809Y-104321928D01*
X158743619Y-104360023D01*
X158591238Y-104398119D01*
X158476952Y-104398119D01*
X158324571Y-104360023D01*
X158248380Y-104321928D01*
X158172190Y-104245738D01*
X158134095Y-104131452D01*
X158134095Y-104055261D01*
X158172190Y-103940976D01*
X158210285Y-103902880D01*
X158476952Y-103902880D01*
X158476952Y-104055261D01*
X158134095Y-103560023D02*
X158934095Y-103560023D01*
X158934095Y-103255261D01*
X158896000Y-103179071D01*
X158857904Y-103140976D01*
X158781714Y-103102880D01*
X158667428Y-103102880D01*
X158591238Y-103140976D01*
X158553142Y-103179071D01*
X158515047Y-103255261D01*
X158515047Y-103560023D01*
X158134095Y-102760023D02*
X158934095Y-102760023D01*
X158934095Y-102226690D02*
X158934095Y-102074309D01*
X158896000Y-101998119D01*
X158819809Y-101921928D01*
X158667428Y-101883833D01*
X158400761Y-101883833D01*
X158248380Y-101921928D01*
X158172190Y-101998119D01*
X158134095Y-102074309D01*
X158134095Y-102226690D01*
X158172190Y-102302880D01*
X158248380Y-102379071D01*
X158400761Y-102417166D01*
X158667428Y-102417166D01*
X158819809Y-102379071D01*
X158896000Y-102302880D01*
X158934095Y-102226690D01*
X157626000Y-103940976D02*
X157664095Y-104017166D01*
X157664095Y-104131452D01*
X157626000Y-104245738D01*
X157549809Y-104321928D01*
X157473619Y-104360023D01*
X157321238Y-104398119D01*
X157206952Y-104398119D01*
X157054571Y-104360023D01*
X156978380Y-104321928D01*
X156902190Y-104245738D01*
X156864095Y-104131452D01*
X156864095Y-104055261D01*
X156902190Y-103940976D01*
X156940285Y-103902880D01*
X157206952Y-103902880D01*
X157206952Y-104055261D01*
X156864095Y-103560023D02*
X157664095Y-103560023D01*
X157664095Y-103255261D01*
X157626000Y-103179071D01*
X157587904Y-103140976D01*
X157511714Y-103102880D01*
X157397428Y-103102880D01*
X157321238Y-103140976D01*
X157283142Y-103179071D01*
X157245047Y-103255261D01*
X157245047Y-103560023D01*
X156864095Y-102760023D02*
X157664095Y-102760023D01*
X157664095Y-102226690D02*
X157664095Y-102074309D01*
X157626000Y-101998119D01*
X157549809Y-101921928D01*
X157397428Y-101883833D01*
X157130761Y-101883833D01*
X156978380Y-101921928D01*
X156902190Y-101998119D01*
X156864095Y-102074309D01*
X156864095Y-102226690D01*
X156902190Y-102302880D01*
X156978380Y-102379071D01*
X157130761Y-102417166D01*
X157397428Y-102417166D01*
X157549809Y-102379071D01*
X157626000Y-102302880D01*
X157664095Y-102226690D01*
X156356000Y-103940976D02*
X156394095Y-104017166D01*
X156394095Y-104131452D01*
X156356000Y-104245738D01*
X156279809Y-104321928D01*
X156203619Y-104360023D01*
X156051238Y-104398119D01*
X155936952Y-104398119D01*
X155784571Y-104360023D01*
X155708380Y-104321928D01*
X155632190Y-104245738D01*
X155594095Y-104131452D01*
X155594095Y-104055261D01*
X155632190Y-103940976D01*
X155670285Y-103902880D01*
X155936952Y-103902880D01*
X155936952Y-104055261D01*
X155594095Y-103560023D02*
X156394095Y-103560023D01*
X156394095Y-103255261D01*
X156356000Y-103179071D01*
X156317904Y-103140976D01*
X156241714Y-103102880D01*
X156127428Y-103102880D01*
X156051238Y-103140976D01*
X156013142Y-103179071D01*
X155975047Y-103255261D01*
X155975047Y-103560023D01*
X155594095Y-102760023D02*
X156394095Y-102760023D01*
X156394095Y-102226690D02*
X156394095Y-102074309D01*
X156356000Y-101998119D01*
X156279809Y-101921928D01*
X156127428Y-101883833D01*
X155860761Y-101883833D01*
X155708380Y-101921928D01*
X155632190Y-101998119D01*
X155594095Y-102074309D01*
X155594095Y-102226690D01*
X155632190Y-102302880D01*
X155708380Y-102379071D01*
X155860761Y-102417166D01*
X156127428Y-102417166D01*
X156279809Y-102379071D01*
X156356000Y-102302880D01*
X156394095Y-102226690D01*
X155086000Y-103940976D02*
X155124095Y-104017166D01*
X155124095Y-104131452D01*
X155086000Y-104245738D01*
X155009809Y-104321928D01*
X154933619Y-104360023D01*
X154781238Y-104398119D01*
X154666952Y-104398119D01*
X154514571Y-104360023D01*
X154438380Y-104321928D01*
X154362190Y-104245738D01*
X154324095Y-104131452D01*
X154324095Y-104055261D01*
X154362190Y-103940976D01*
X154400285Y-103902880D01*
X154666952Y-103902880D01*
X154666952Y-104055261D01*
X154324095Y-103560023D02*
X155124095Y-103560023D01*
X155124095Y-103255261D01*
X155086000Y-103179071D01*
X155047904Y-103140976D01*
X154971714Y-103102880D01*
X154857428Y-103102880D01*
X154781238Y-103140976D01*
X154743142Y-103179071D01*
X154705047Y-103255261D01*
X154705047Y-103560023D01*
X154324095Y-102760023D02*
X155124095Y-102760023D01*
X155124095Y-102226690D02*
X155124095Y-102074309D01*
X155086000Y-101998119D01*
X155009809Y-101921928D01*
X154857428Y-101883833D01*
X154590761Y-101883833D01*
X154438380Y-101921928D01*
X154362190Y-101998119D01*
X154324095Y-102074309D01*
X154324095Y-102226690D01*
X154362190Y-102302880D01*
X154438380Y-102379071D01*
X154590761Y-102417166D01*
X154857428Y-102417166D01*
X155009809Y-102379071D01*
X155086000Y-102302880D01*
X155124095Y-102226690D01*
X153816000Y-103940976D02*
X153854095Y-104017166D01*
X153854095Y-104131452D01*
X153816000Y-104245738D01*
X153739809Y-104321928D01*
X153663619Y-104360023D01*
X153511238Y-104398119D01*
X153396952Y-104398119D01*
X153244571Y-104360023D01*
X153168380Y-104321928D01*
X153092190Y-104245738D01*
X153054095Y-104131452D01*
X153054095Y-104055261D01*
X153092190Y-103940976D01*
X153130285Y-103902880D01*
X153396952Y-103902880D01*
X153396952Y-104055261D01*
X153054095Y-103560023D02*
X153854095Y-103560023D01*
X153854095Y-103255261D01*
X153816000Y-103179071D01*
X153777904Y-103140976D01*
X153701714Y-103102880D01*
X153587428Y-103102880D01*
X153511238Y-103140976D01*
X153473142Y-103179071D01*
X153435047Y-103255261D01*
X153435047Y-103560023D01*
X153054095Y-102760023D02*
X153854095Y-102760023D01*
X153854095Y-102226690D02*
X153854095Y-102074309D01*
X153816000Y-101998119D01*
X153739809Y-101921928D01*
X153587428Y-101883833D01*
X153320761Y-101883833D01*
X153168380Y-101921928D01*
X153092190Y-101998119D01*
X153054095Y-102074309D01*
X153054095Y-102226690D01*
X153092190Y-102302880D01*
X153168380Y-102379071D01*
X153320761Y-102417166D01*
X153587428Y-102417166D01*
X153739809Y-102379071D01*
X153816000Y-102302880D01*
X153854095Y-102226690D01*
X152546000Y-103940976D02*
X152584095Y-104017166D01*
X152584095Y-104131452D01*
X152546000Y-104245738D01*
X152469809Y-104321928D01*
X152393619Y-104360023D01*
X152241238Y-104398119D01*
X152126952Y-104398119D01*
X151974571Y-104360023D01*
X151898380Y-104321928D01*
X151822190Y-104245738D01*
X151784095Y-104131452D01*
X151784095Y-104055261D01*
X151822190Y-103940976D01*
X151860285Y-103902880D01*
X152126952Y-103902880D01*
X152126952Y-104055261D01*
X151784095Y-103560023D02*
X152584095Y-103560023D01*
X152584095Y-103255261D01*
X152546000Y-103179071D01*
X152507904Y-103140976D01*
X152431714Y-103102880D01*
X152317428Y-103102880D01*
X152241238Y-103140976D01*
X152203142Y-103179071D01*
X152165047Y-103255261D01*
X152165047Y-103560023D01*
X151784095Y-102760023D02*
X152584095Y-102760023D01*
X152584095Y-102226690D02*
X152584095Y-102074309D01*
X152546000Y-101998119D01*
X152469809Y-101921928D01*
X152317428Y-101883833D01*
X152050761Y-101883833D01*
X151898380Y-101921928D01*
X151822190Y-101998119D01*
X151784095Y-102074309D01*
X151784095Y-102226690D01*
X151822190Y-102302880D01*
X151898380Y-102379071D01*
X152050761Y-102417166D01*
X152317428Y-102417166D01*
X152469809Y-102379071D01*
X152546000Y-102302880D01*
X152584095Y-102226690D01*
X151276000Y-103940976D02*
X151314095Y-104017166D01*
X151314095Y-104131452D01*
X151276000Y-104245738D01*
X151199809Y-104321928D01*
X151123619Y-104360023D01*
X150971238Y-104398119D01*
X150856952Y-104398119D01*
X150704571Y-104360023D01*
X150628380Y-104321928D01*
X150552190Y-104245738D01*
X150514095Y-104131452D01*
X150514095Y-104055261D01*
X150552190Y-103940976D01*
X150590285Y-103902880D01*
X150856952Y-103902880D01*
X150856952Y-104055261D01*
X150514095Y-103560023D02*
X151314095Y-103560023D01*
X151314095Y-103255261D01*
X151276000Y-103179071D01*
X151237904Y-103140976D01*
X151161714Y-103102880D01*
X151047428Y-103102880D01*
X150971238Y-103140976D01*
X150933142Y-103179071D01*
X150895047Y-103255261D01*
X150895047Y-103560023D01*
X150514095Y-102760023D02*
X151314095Y-102760023D01*
X151314095Y-102226690D02*
X151314095Y-102074309D01*
X151276000Y-101998119D01*
X151199809Y-101921928D01*
X151047428Y-101883833D01*
X150780761Y-101883833D01*
X150628380Y-101921928D01*
X150552190Y-101998119D01*
X150514095Y-102074309D01*
X150514095Y-102226690D01*
X150552190Y-102302880D01*
X150628380Y-102379071D01*
X150780761Y-102417166D01*
X151047428Y-102417166D01*
X151199809Y-102379071D01*
X151276000Y-102302880D01*
X151314095Y-102226690D01*
X150006000Y-103940976D02*
X150044095Y-104017166D01*
X150044095Y-104131452D01*
X150006000Y-104245738D01*
X149929809Y-104321928D01*
X149853619Y-104360023D01*
X149701238Y-104398119D01*
X149586952Y-104398119D01*
X149434571Y-104360023D01*
X149358380Y-104321928D01*
X149282190Y-104245738D01*
X149244095Y-104131452D01*
X149244095Y-104055261D01*
X149282190Y-103940976D01*
X149320285Y-103902880D01*
X149586952Y-103902880D01*
X149586952Y-104055261D01*
X149244095Y-103560023D02*
X150044095Y-103560023D01*
X150044095Y-103255261D01*
X150006000Y-103179071D01*
X149967904Y-103140976D01*
X149891714Y-103102880D01*
X149777428Y-103102880D01*
X149701238Y-103140976D01*
X149663142Y-103179071D01*
X149625047Y-103255261D01*
X149625047Y-103560023D01*
X149244095Y-102760023D02*
X150044095Y-102760023D01*
X150044095Y-102226690D02*
X150044095Y-102074309D01*
X150006000Y-101998119D01*
X149929809Y-101921928D01*
X149777428Y-101883833D01*
X149510761Y-101883833D01*
X149358380Y-101921928D01*
X149282190Y-101998119D01*
X149244095Y-102074309D01*
X149244095Y-102226690D01*
X149282190Y-102302880D01*
X149358380Y-102379071D01*
X149510761Y-102417166D01*
X149777428Y-102417166D01*
X149929809Y-102379071D01*
X150006000Y-102302880D01*
X150044095Y-102226690D01*
X148736000Y-103940976D02*
X148774095Y-104017166D01*
X148774095Y-104131452D01*
X148736000Y-104245738D01*
X148659809Y-104321928D01*
X148583619Y-104360023D01*
X148431238Y-104398119D01*
X148316952Y-104398119D01*
X148164571Y-104360023D01*
X148088380Y-104321928D01*
X148012190Y-104245738D01*
X147974095Y-104131452D01*
X147974095Y-104055261D01*
X148012190Y-103940976D01*
X148050285Y-103902880D01*
X148316952Y-103902880D01*
X148316952Y-104055261D01*
X147974095Y-103560023D02*
X148774095Y-103560023D01*
X148774095Y-103255261D01*
X148736000Y-103179071D01*
X148697904Y-103140976D01*
X148621714Y-103102880D01*
X148507428Y-103102880D01*
X148431238Y-103140976D01*
X148393142Y-103179071D01*
X148355047Y-103255261D01*
X148355047Y-103560023D01*
X147974095Y-102760023D02*
X148774095Y-102760023D01*
X148774095Y-102226690D02*
X148774095Y-102074309D01*
X148736000Y-101998119D01*
X148659809Y-101921928D01*
X148507428Y-101883833D01*
X148240761Y-101883833D01*
X148088380Y-101921928D01*
X148012190Y-101998119D01*
X147974095Y-102074309D01*
X147974095Y-102226690D01*
X148012190Y-102302880D01*
X148088380Y-102379071D01*
X148240761Y-102417166D01*
X148507428Y-102417166D01*
X148659809Y-102379071D01*
X148736000Y-102302880D01*
X148774095Y-102226690D01*
X146704095Y-103902880D02*
X147085047Y-104169547D01*
X146704095Y-104360023D02*
X147504095Y-104360023D01*
X147504095Y-104055261D01*
X147466000Y-103979071D01*
X147427904Y-103940976D01*
X147351714Y-103902880D01*
X147237428Y-103902880D01*
X147161238Y-103940976D01*
X147123142Y-103979071D01*
X147085047Y-104055261D01*
X147085047Y-104360023D01*
X147504095Y-103407642D02*
X147504095Y-103255261D01*
X147466000Y-103179071D01*
X147389809Y-103102880D01*
X147237428Y-103064785D01*
X146970761Y-103064785D01*
X146818380Y-103102880D01*
X146742190Y-103179071D01*
X146704095Y-103255261D01*
X146704095Y-103407642D01*
X146742190Y-103483833D01*
X146818380Y-103560023D01*
X146970761Y-103598119D01*
X147237428Y-103598119D01*
X147389809Y-103560023D01*
X147466000Y-103483833D01*
X147504095Y-103407642D01*
X147504095Y-102569547D02*
X147504095Y-102417166D01*
X147466000Y-102340976D01*
X147389809Y-102264785D01*
X147237428Y-102226690D01*
X146970761Y-102226690D01*
X146818380Y-102264785D01*
X146742190Y-102340976D01*
X146704095Y-102417166D01*
X146704095Y-102569547D01*
X146742190Y-102645738D01*
X146818380Y-102721928D01*
X146970761Y-102760023D01*
X147237428Y-102760023D01*
X147389809Y-102721928D01*
X147466000Y-102645738D01*
X147504095Y-102569547D01*
X147504095Y-101998119D02*
X147504095Y-101540976D01*
X146704095Y-101769547D02*
X147504095Y-101769547D01*
X146627904Y-101464785D02*
X146627904Y-100855261D01*
X146704095Y-100207642D02*
X147085047Y-100474309D01*
X146704095Y-100664785D02*
X147504095Y-100664785D01*
X147504095Y-100360023D01*
X147466000Y-100283833D01*
X147427904Y-100245738D01*
X147351714Y-100207642D01*
X147237428Y-100207642D01*
X147161238Y-100245738D01*
X147123142Y-100283833D01*
X147085047Y-100360023D01*
X147085047Y-100664785D01*
X147504095Y-99940976D02*
X146704095Y-99407642D01*
X147504095Y-99407642D02*
X146704095Y-99940976D01*
X145434095Y-103902880D02*
X145815047Y-104169547D01*
X145434095Y-104360023D02*
X146234095Y-104360023D01*
X146234095Y-104055261D01*
X146196000Y-103979071D01*
X146157904Y-103940976D01*
X146081714Y-103902880D01*
X145967428Y-103902880D01*
X145891238Y-103940976D01*
X145853142Y-103979071D01*
X145815047Y-104055261D01*
X145815047Y-104360023D01*
X146234095Y-103407642D02*
X146234095Y-103255261D01*
X146196000Y-103179071D01*
X146119809Y-103102880D01*
X145967428Y-103064785D01*
X145700761Y-103064785D01*
X145548380Y-103102880D01*
X145472190Y-103179071D01*
X145434095Y-103255261D01*
X145434095Y-103407642D01*
X145472190Y-103483833D01*
X145548380Y-103560023D01*
X145700761Y-103598119D01*
X145967428Y-103598119D01*
X146119809Y-103560023D01*
X146196000Y-103483833D01*
X146234095Y-103407642D01*
X146234095Y-102569547D02*
X146234095Y-102417166D01*
X146196000Y-102340976D01*
X146119809Y-102264785D01*
X145967428Y-102226690D01*
X145700761Y-102226690D01*
X145548380Y-102264785D01*
X145472190Y-102340976D01*
X145434095Y-102417166D01*
X145434095Y-102569547D01*
X145472190Y-102645738D01*
X145548380Y-102721928D01*
X145700761Y-102760023D01*
X145967428Y-102760023D01*
X146119809Y-102721928D01*
X146196000Y-102645738D01*
X146234095Y-102569547D01*
X146234095Y-101998119D02*
X146234095Y-101540976D01*
X145434095Y-101769547D02*
X146234095Y-101769547D01*
X145357904Y-101464785D02*
X145357904Y-100855261D01*
X146234095Y-100779071D02*
X146234095Y-100321928D01*
X145434095Y-100550500D02*
X146234095Y-100550500D01*
X146234095Y-100131452D02*
X145434095Y-99598119D01*
X146234095Y-99598119D02*
X145434095Y-100131452D01*
X145396000Y-109165023D02*
X145357904Y-109088833D01*
X145357904Y-108974547D01*
X145396000Y-108860261D01*
X145472190Y-108784071D01*
X145548380Y-108745976D01*
X145700761Y-108707880D01*
X145815047Y-108707880D01*
X145967428Y-108745976D01*
X146043619Y-108784071D01*
X146119809Y-108860261D01*
X146157904Y-108974547D01*
X146157904Y-109050738D01*
X146119809Y-109165023D01*
X146081714Y-109203119D01*
X145815047Y-109203119D01*
X145815047Y-109050738D01*
X146157904Y-109545976D02*
X145357904Y-109545976D01*
X146157904Y-110003119D01*
X145357904Y-110003119D01*
X146157904Y-110384071D02*
X145357904Y-110384071D01*
X145357904Y-110574547D01*
X145396000Y-110688833D01*
X145472190Y-110765023D01*
X145548380Y-110803119D01*
X145700761Y-110841214D01*
X145815047Y-110841214D01*
X145967428Y-110803119D01*
X146043619Y-110765023D01*
X146119809Y-110688833D01*
X146157904Y-110574547D01*
X146157904Y-110384071D01*
X146666000Y-109165023D02*
X146627904Y-109088833D01*
X146627904Y-108974547D01*
X146666000Y-108860261D01*
X146742190Y-108784071D01*
X146818380Y-108745976D01*
X146970761Y-108707880D01*
X147085047Y-108707880D01*
X147237428Y-108745976D01*
X147313619Y-108784071D01*
X147389809Y-108860261D01*
X147427904Y-108974547D01*
X147427904Y-109050738D01*
X147389809Y-109165023D01*
X147351714Y-109203119D01*
X147085047Y-109203119D01*
X147085047Y-109050738D01*
X147427904Y-109545976D02*
X146627904Y-109545976D01*
X146627904Y-109850738D01*
X146666000Y-109926928D01*
X146704095Y-109965023D01*
X146780285Y-110003119D01*
X146894571Y-110003119D01*
X146970761Y-109965023D01*
X147008857Y-109926928D01*
X147046952Y-109850738D01*
X147046952Y-109545976D01*
X147427904Y-110345976D02*
X146627904Y-110345976D01*
X146627904Y-110879309D02*
X146627904Y-111031690D01*
X146666000Y-111107880D01*
X146742190Y-111184071D01*
X146894571Y-111222166D01*
X147161238Y-111222166D01*
X147313619Y-111184071D01*
X147389809Y-111107880D01*
X147427904Y-111031690D01*
X147427904Y-110879309D01*
X147389809Y-110803119D01*
X147313619Y-110726928D01*
X147161238Y-110688833D01*
X146894571Y-110688833D01*
X146742190Y-110726928D01*
X146666000Y-110803119D01*
X146627904Y-110879309D01*
X147936000Y-109165023D02*
X147897904Y-109088833D01*
X147897904Y-108974547D01*
X147936000Y-108860261D01*
X148012190Y-108784071D01*
X148088380Y-108745976D01*
X148240761Y-108707880D01*
X148355047Y-108707880D01*
X148507428Y-108745976D01*
X148583619Y-108784071D01*
X148659809Y-108860261D01*
X148697904Y-108974547D01*
X148697904Y-109050738D01*
X148659809Y-109165023D01*
X148621714Y-109203119D01*
X148355047Y-109203119D01*
X148355047Y-109050738D01*
X148697904Y-109545976D02*
X147897904Y-109545976D01*
X147897904Y-109850738D01*
X147936000Y-109926928D01*
X147974095Y-109965023D01*
X148050285Y-110003119D01*
X148164571Y-110003119D01*
X148240761Y-109965023D01*
X148278857Y-109926928D01*
X148316952Y-109850738D01*
X148316952Y-109545976D01*
X148697904Y-110345976D02*
X147897904Y-110345976D01*
X147897904Y-110879309D02*
X147897904Y-111031690D01*
X147936000Y-111107880D01*
X148012190Y-111184071D01*
X148164571Y-111222166D01*
X148431238Y-111222166D01*
X148583619Y-111184071D01*
X148659809Y-111107880D01*
X148697904Y-111031690D01*
X148697904Y-110879309D01*
X148659809Y-110803119D01*
X148583619Y-110726928D01*
X148431238Y-110688833D01*
X148164571Y-110688833D01*
X148012190Y-110726928D01*
X147936000Y-110803119D01*
X147897904Y-110879309D01*
X149206000Y-109165023D02*
X149167904Y-109088833D01*
X149167904Y-108974547D01*
X149206000Y-108860261D01*
X149282190Y-108784071D01*
X149358380Y-108745976D01*
X149510761Y-108707880D01*
X149625047Y-108707880D01*
X149777428Y-108745976D01*
X149853619Y-108784071D01*
X149929809Y-108860261D01*
X149967904Y-108974547D01*
X149967904Y-109050738D01*
X149929809Y-109165023D01*
X149891714Y-109203119D01*
X149625047Y-109203119D01*
X149625047Y-109050738D01*
X149967904Y-109545976D02*
X149167904Y-109545976D01*
X149167904Y-109850738D01*
X149206000Y-109926928D01*
X149244095Y-109965023D01*
X149320285Y-110003119D01*
X149434571Y-110003119D01*
X149510761Y-109965023D01*
X149548857Y-109926928D01*
X149586952Y-109850738D01*
X149586952Y-109545976D01*
X149967904Y-110345976D02*
X149167904Y-110345976D01*
X149167904Y-110879309D02*
X149167904Y-111031690D01*
X149206000Y-111107880D01*
X149282190Y-111184071D01*
X149434571Y-111222166D01*
X149701238Y-111222166D01*
X149853619Y-111184071D01*
X149929809Y-111107880D01*
X149967904Y-111031690D01*
X149967904Y-110879309D01*
X149929809Y-110803119D01*
X149853619Y-110726928D01*
X149701238Y-110688833D01*
X149434571Y-110688833D01*
X149282190Y-110726928D01*
X149206000Y-110803119D01*
X149167904Y-110879309D01*
X150476000Y-109165023D02*
X150437904Y-109088833D01*
X150437904Y-108974547D01*
X150476000Y-108860261D01*
X150552190Y-108784071D01*
X150628380Y-108745976D01*
X150780761Y-108707880D01*
X150895047Y-108707880D01*
X151047428Y-108745976D01*
X151123619Y-108784071D01*
X151199809Y-108860261D01*
X151237904Y-108974547D01*
X151237904Y-109050738D01*
X151199809Y-109165023D01*
X151161714Y-109203119D01*
X150895047Y-109203119D01*
X150895047Y-109050738D01*
X151237904Y-109545976D02*
X150437904Y-109545976D01*
X150437904Y-109850738D01*
X150476000Y-109926928D01*
X150514095Y-109965023D01*
X150590285Y-110003119D01*
X150704571Y-110003119D01*
X150780761Y-109965023D01*
X150818857Y-109926928D01*
X150856952Y-109850738D01*
X150856952Y-109545976D01*
X151237904Y-110345976D02*
X150437904Y-110345976D01*
X150437904Y-110879309D02*
X150437904Y-111031690D01*
X150476000Y-111107880D01*
X150552190Y-111184071D01*
X150704571Y-111222166D01*
X150971238Y-111222166D01*
X151123619Y-111184071D01*
X151199809Y-111107880D01*
X151237904Y-111031690D01*
X151237904Y-110879309D01*
X151199809Y-110803119D01*
X151123619Y-110726928D01*
X150971238Y-110688833D01*
X150704571Y-110688833D01*
X150552190Y-110726928D01*
X150476000Y-110803119D01*
X150437904Y-110879309D01*
X151746000Y-109165023D02*
X151707904Y-109088833D01*
X151707904Y-108974547D01*
X151746000Y-108860261D01*
X151822190Y-108784071D01*
X151898380Y-108745976D01*
X152050761Y-108707880D01*
X152165047Y-108707880D01*
X152317428Y-108745976D01*
X152393619Y-108784071D01*
X152469809Y-108860261D01*
X152507904Y-108974547D01*
X152507904Y-109050738D01*
X152469809Y-109165023D01*
X152431714Y-109203119D01*
X152165047Y-109203119D01*
X152165047Y-109050738D01*
X152507904Y-109545976D02*
X151707904Y-109545976D01*
X151707904Y-109850738D01*
X151746000Y-109926928D01*
X151784095Y-109965023D01*
X151860285Y-110003119D01*
X151974571Y-110003119D01*
X152050761Y-109965023D01*
X152088857Y-109926928D01*
X152126952Y-109850738D01*
X152126952Y-109545976D01*
X152507904Y-110345976D02*
X151707904Y-110345976D01*
X151707904Y-110879309D02*
X151707904Y-111031690D01*
X151746000Y-111107880D01*
X151822190Y-111184071D01*
X151974571Y-111222166D01*
X152241238Y-111222166D01*
X152393619Y-111184071D01*
X152469809Y-111107880D01*
X152507904Y-111031690D01*
X152507904Y-110879309D01*
X152469809Y-110803119D01*
X152393619Y-110726928D01*
X152241238Y-110688833D01*
X151974571Y-110688833D01*
X151822190Y-110726928D01*
X151746000Y-110803119D01*
X151707904Y-110879309D01*
X153016000Y-109165023D02*
X152977904Y-109088833D01*
X152977904Y-108974547D01*
X153016000Y-108860261D01*
X153092190Y-108784071D01*
X153168380Y-108745976D01*
X153320761Y-108707880D01*
X153435047Y-108707880D01*
X153587428Y-108745976D01*
X153663619Y-108784071D01*
X153739809Y-108860261D01*
X153777904Y-108974547D01*
X153777904Y-109050738D01*
X153739809Y-109165023D01*
X153701714Y-109203119D01*
X153435047Y-109203119D01*
X153435047Y-109050738D01*
X153777904Y-109545976D02*
X152977904Y-109545976D01*
X152977904Y-109850738D01*
X153016000Y-109926928D01*
X153054095Y-109965023D01*
X153130285Y-110003119D01*
X153244571Y-110003119D01*
X153320761Y-109965023D01*
X153358857Y-109926928D01*
X153396952Y-109850738D01*
X153396952Y-109545976D01*
X153777904Y-110345976D02*
X152977904Y-110345976D01*
X152977904Y-110879309D02*
X152977904Y-111031690D01*
X153016000Y-111107880D01*
X153092190Y-111184071D01*
X153244571Y-111222166D01*
X153511238Y-111222166D01*
X153663619Y-111184071D01*
X153739809Y-111107880D01*
X153777904Y-111031690D01*
X153777904Y-110879309D01*
X153739809Y-110803119D01*
X153663619Y-110726928D01*
X153511238Y-110688833D01*
X153244571Y-110688833D01*
X153092190Y-110726928D01*
X153016000Y-110803119D01*
X152977904Y-110879309D01*
X154286000Y-109165023D02*
X154247904Y-109088833D01*
X154247904Y-108974547D01*
X154286000Y-108860261D01*
X154362190Y-108784071D01*
X154438380Y-108745976D01*
X154590761Y-108707880D01*
X154705047Y-108707880D01*
X154857428Y-108745976D01*
X154933619Y-108784071D01*
X155009809Y-108860261D01*
X155047904Y-108974547D01*
X155047904Y-109050738D01*
X155009809Y-109165023D01*
X154971714Y-109203119D01*
X154705047Y-109203119D01*
X154705047Y-109050738D01*
X155047904Y-109545976D02*
X154247904Y-109545976D01*
X155047904Y-110003119D01*
X154247904Y-110003119D01*
X155047904Y-110384071D02*
X154247904Y-110384071D01*
X154247904Y-110574547D01*
X154286000Y-110688833D01*
X154362190Y-110765023D01*
X154438380Y-110803119D01*
X154590761Y-110841214D01*
X154705047Y-110841214D01*
X154857428Y-110803119D01*
X154933619Y-110765023D01*
X155009809Y-110688833D01*
X155047904Y-110574547D01*
X155047904Y-110384071D01*
X156317904Y-109165023D02*
X156317904Y-108707880D01*
X156317904Y-108936452D02*
X155517904Y-108936452D01*
X155632190Y-108860261D01*
X155708380Y-108784071D01*
X155746476Y-108707880D01*
X155517904Y-109393595D02*
X156317904Y-109660261D01*
X155517904Y-109926928D01*
X155594095Y-110155500D02*
X155556000Y-110193595D01*
X155517904Y-110269785D01*
X155517904Y-110460261D01*
X155556000Y-110536452D01*
X155594095Y-110574547D01*
X155670285Y-110612642D01*
X155746476Y-110612642D01*
X155860761Y-110574547D01*
X156317904Y-110117404D01*
X156317904Y-110612642D01*
X157587904Y-109165023D02*
X157587904Y-108707880D01*
X157587904Y-108936452D02*
X156787904Y-108936452D01*
X156902190Y-108860261D01*
X156978380Y-108784071D01*
X157016476Y-108707880D01*
X156787904Y-109393595D02*
X157587904Y-109660261D01*
X156787904Y-109926928D01*
X156864095Y-110155500D02*
X156826000Y-110193595D01*
X156787904Y-110269785D01*
X156787904Y-110460261D01*
X156826000Y-110536452D01*
X156864095Y-110574547D01*
X156940285Y-110612642D01*
X157016476Y-110612642D01*
X157130761Y-110574547D01*
X157587904Y-110117404D01*
X157587904Y-110612642D01*
X158100000Y-109165023D02*
X158061904Y-109088833D01*
X158061904Y-108974547D01*
X158100000Y-108860261D01*
X158176190Y-108784071D01*
X158252380Y-108745976D01*
X158404761Y-108707880D01*
X158519047Y-108707880D01*
X158671428Y-108745976D01*
X158747619Y-108784071D01*
X158823809Y-108860261D01*
X158861904Y-108974547D01*
X158861904Y-109050738D01*
X158823809Y-109165023D01*
X158785714Y-109203119D01*
X158519047Y-109203119D01*
X158519047Y-109050738D01*
X158861904Y-109545976D02*
X158061904Y-109545976D01*
X158861904Y-110003119D01*
X158061904Y-110003119D01*
X158861904Y-110384071D02*
X158061904Y-110384071D01*
X158061904Y-110574547D01*
X158100000Y-110688833D01*
X158176190Y-110765023D01*
X158252380Y-110803119D01*
X158404761Y-110841214D01*
X158519047Y-110841214D01*
X158671428Y-110803119D01*
X158747619Y-110765023D01*
X158823809Y-110688833D01*
X158861904Y-110574547D01*
X158861904Y-110384071D01*
X159327904Y-108669785D02*
X159327904Y-109165023D01*
X159632666Y-108898357D01*
X159632666Y-109012642D01*
X159670761Y-109088833D01*
X159708857Y-109126928D01*
X159785047Y-109165023D01*
X159975523Y-109165023D01*
X160051714Y-109126928D01*
X160089809Y-109088833D01*
X160127904Y-109012642D01*
X160127904Y-108784071D01*
X160089809Y-108707880D01*
X160051714Y-108669785D01*
X159327904Y-109393595D02*
X160127904Y-109660261D01*
X159327904Y-109926928D01*
X159327904Y-110117404D02*
X159327904Y-110612642D01*
X159632666Y-110345976D01*
X159632666Y-110460261D01*
X159670761Y-110536452D01*
X159708857Y-110574547D01*
X159785047Y-110612642D01*
X159975523Y-110612642D01*
X160051714Y-110574547D01*
X160089809Y-110536452D01*
X160127904Y-110460261D01*
X160127904Y-110231690D01*
X160089809Y-110155500D01*
X160051714Y-110117404D01*
X160597904Y-108669785D02*
X160597904Y-109165023D01*
X160902666Y-108898357D01*
X160902666Y-109012642D01*
X160940761Y-109088833D01*
X160978857Y-109126928D01*
X161055047Y-109165023D01*
X161245523Y-109165023D01*
X161321714Y-109126928D01*
X161359809Y-109088833D01*
X161397904Y-109012642D01*
X161397904Y-108784071D01*
X161359809Y-108707880D01*
X161321714Y-108669785D01*
X160597904Y-109393595D02*
X161397904Y-109660261D01*
X160597904Y-109926928D01*
X160597904Y-110117404D02*
X160597904Y-110612642D01*
X160902666Y-110345976D01*
X160902666Y-110460261D01*
X160940761Y-110536452D01*
X160978857Y-110574547D01*
X161055047Y-110612642D01*
X161245523Y-110612642D01*
X161321714Y-110574547D01*
X161359809Y-110536452D01*
X161397904Y-110460261D01*
X161397904Y-110231690D01*
X161359809Y-110155500D01*
X161321714Y-110117404D01*
X165861904Y-109207023D02*
X165861904Y-108749880D01*
X165861904Y-108978452D02*
X165061904Y-108978452D01*
X165176190Y-108902261D01*
X165252380Y-108826071D01*
X165290476Y-108749880D01*
X165061904Y-109435595D02*
X165861904Y-109702261D01*
X165061904Y-109968928D01*
X165404761Y-110349880D02*
X165366666Y-110273690D01*
X165328571Y-110235595D01*
X165252380Y-110197500D01*
X165214285Y-110197500D01*
X165138095Y-110235595D01*
X165100000Y-110273690D01*
X165061904Y-110349880D01*
X165061904Y-110502261D01*
X165100000Y-110578452D01*
X165138095Y-110616547D01*
X165214285Y-110654642D01*
X165252380Y-110654642D01*
X165328571Y-110616547D01*
X165366666Y-110578452D01*
X165404761Y-110502261D01*
X165404761Y-110349880D01*
X165442857Y-110273690D01*
X165480952Y-110235595D01*
X165557142Y-110197500D01*
X165709523Y-110197500D01*
X165785714Y-110235595D01*
X165823809Y-110273690D01*
X165861904Y-110349880D01*
X165861904Y-110502261D01*
X165823809Y-110578452D01*
X165785714Y-110616547D01*
X165709523Y-110654642D01*
X165557142Y-110654642D01*
X165480952Y-110616547D01*
X165442857Y-110578452D01*
X165404761Y-110502261D01*
X161906000Y-109165023D02*
X161867904Y-109088833D01*
X161867904Y-108974547D01*
X161906000Y-108860261D01*
X161982190Y-108784071D01*
X162058380Y-108745976D01*
X162210761Y-108707880D01*
X162325047Y-108707880D01*
X162477428Y-108745976D01*
X162553619Y-108784071D01*
X162629809Y-108860261D01*
X162667904Y-108974547D01*
X162667904Y-109050738D01*
X162629809Y-109165023D01*
X162591714Y-109203119D01*
X162325047Y-109203119D01*
X162325047Y-109050738D01*
X162667904Y-109545976D02*
X161867904Y-109545976D01*
X162667904Y-110003119D01*
X161867904Y-110003119D01*
X162667904Y-110384071D02*
X161867904Y-110384071D01*
X161867904Y-110574547D01*
X161906000Y-110688833D01*
X161982190Y-110765023D01*
X162058380Y-110803119D01*
X162210761Y-110841214D01*
X162325047Y-110841214D01*
X162477428Y-110803119D01*
X162553619Y-110765023D01*
X162629809Y-110688833D01*
X162667904Y-110574547D01*
X162667904Y-110384071D01*
X161680952Y-98257142D02*
X161728571Y-98304761D01*
X161871428Y-98352380D01*
X161966666Y-98352380D01*
X162109523Y-98304761D01*
X162204761Y-98209523D01*
X162252380Y-98114285D01*
X162300000Y-97923809D01*
X162300000Y-97780952D01*
X162252380Y-97590476D01*
X162204761Y-97495238D01*
X162109523Y-97400000D01*
X161966666Y-97352380D01*
X161871428Y-97352380D01*
X161728571Y-97400000D01*
X161680952Y-97447619D01*
X161300000Y-98066666D02*
X160823809Y-98066666D01*
X161395238Y-98352380D02*
X161061904Y-97352380D01*
X160728571Y-98352380D01*
X160395238Y-98352380D02*
X160395238Y-97352380D01*
X160061904Y-98066666D01*
X159728571Y-97352380D01*
X159728571Y-98352380D01*
X159252380Y-97828571D02*
X158919047Y-97828571D01*
X158776190Y-98352380D02*
X159252380Y-98352380D01*
X159252380Y-97352380D01*
X158776190Y-97352380D01*
X157776190Y-98352380D02*
X158109523Y-97876190D01*
X158347619Y-98352380D02*
X158347619Y-97352380D01*
X157966666Y-97352380D01*
X157871428Y-97400000D01*
X157823809Y-97447619D01*
X157776190Y-97542857D01*
X157776190Y-97685714D01*
X157823809Y-97780952D01*
X157871428Y-97828571D01*
X157966666Y-97876190D01*
X158347619Y-97876190D01*
X157395238Y-98066666D02*
X156919047Y-98066666D01*
X157490476Y-98352380D02*
X157157142Y-97352380D01*
X156823809Y-98352380D01*
X155157142Y-98257142D02*
X155204761Y-98304761D01*
X155347619Y-98352380D01*
X155442857Y-98352380D01*
X155585714Y-98304761D01*
X155680952Y-98209523D01*
X155728571Y-98114285D01*
X155776190Y-97923809D01*
X155776190Y-97780952D01*
X155728571Y-97590476D01*
X155680952Y-97495238D01*
X155585714Y-97400000D01*
X155442857Y-97352380D01*
X155347619Y-97352380D01*
X155204761Y-97400000D01*
X155157142Y-97447619D01*
X154538095Y-97352380D02*
X154347619Y-97352380D01*
X154252380Y-97400000D01*
X154157142Y-97495238D01*
X154109523Y-97685714D01*
X154109523Y-98019047D01*
X154157142Y-98209523D01*
X154252380Y-98304761D01*
X154347619Y-98352380D01*
X154538095Y-98352380D01*
X154633333Y-98304761D01*
X154728571Y-98209523D01*
X154776190Y-98019047D01*
X154776190Y-97685714D01*
X154728571Y-97495238D01*
X154633333Y-97400000D01*
X154538095Y-97352380D01*
X153680952Y-98352380D02*
X153680952Y-97352380D01*
X153109523Y-98352380D01*
X153109523Y-97352380D01*
X152633333Y-98352380D02*
X152633333Y-97352380D01*
X152061904Y-98352380D01*
X152061904Y-97352380D01*
X151585714Y-97828571D02*
X151252380Y-97828571D01*
X151109523Y-98352380D02*
X151585714Y-98352380D01*
X151585714Y-97352380D01*
X151109523Y-97352380D01*
X150109523Y-98257142D02*
X150157142Y-98304761D01*
X150300000Y-98352380D01*
X150395238Y-98352380D01*
X150538095Y-98304761D01*
X150633333Y-98209523D01*
X150680952Y-98114285D01*
X150728571Y-97923809D01*
X150728571Y-97780952D01*
X150680952Y-97590476D01*
X150633333Y-97495238D01*
X150538095Y-97400000D01*
X150395238Y-97352380D01*
X150300000Y-97352380D01*
X150157142Y-97400000D01*
X150109523Y-97447619D01*
X149823809Y-97352380D02*
X149252380Y-97352380D01*
X149538095Y-98352380D02*
X149538095Y-97352380D01*
X148728571Y-97352380D02*
X148538095Y-97352380D01*
X148442857Y-97400000D01*
X148347619Y-97495238D01*
X148300000Y-97685714D01*
X148300000Y-98019047D01*
X148347619Y-98209523D01*
X148442857Y-98304761D01*
X148538095Y-98352380D01*
X148728571Y-98352380D01*
X148823809Y-98304761D01*
X148919047Y-98209523D01*
X148966666Y-98019047D01*
X148966666Y-97685714D01*
X148919047Y-97495238D01*
X148823809Y-97400000D01*
X148728571Y-97352380D01*
X147300000Y-98352380D02*
X147633333Y-97876190D01*
X147871428Y-98352380D02*
X147871428Y-97352380D01*
X147490476Y-97352380D01*
X147395238Y-97400000D01*
X147347619Y-97447619D01*
X147300000Y-97542857D01*
X147300000Y-97685714D01*
X147347619Y-97780952D01*
X147395238Y-97828571D01*
X147490476Y-97876190D01*
X147871428Y-97876190D01*
D11*
X164260000Y-108400000D02*
X164260000Y-107270000D01*
X163500000Y-108400000D02*
X164260000Y-108400000D01*
X164195000Y-105692470D02*
X164195000Y-104870000D01*
X164195000Y-106510000D02*
X164195000Y-106307530D01*
X164063471Y-106510000D02*
X164195000Y-106510000D01*
X162793471Y-106510000D02*
X162936529Y-106510000D01*
X162740000Y-106706529D02*
X162740000Y-106563471D01*
X162740000Y-108400000D02*
X162740000Y-107833471D01*
X164195000Y-104870000D02*
X145025000Y-104870000D01*
X162740000Y-108400000D02*
X145025000Y-108400000D01*
X145025000Y-106962470D02*
X145025000Y-106307530D01*
X145025000Y-105692470D02*
X145025000Y-104870000D01*
X145025000Y-108400000D02*
X145025000Y-107577530D01*
D10*
X165528333Y-106087380D02*
X165528333Y-106801666D01*
X165575952Y-106944523D01*
X165671190Y-107039761D01*
X165814047Y-107087380D01*
X165909285Y-107087380D01*
X165099761Y-106182619D02*
X165052142Y-106135000D01*
X164956904Y-106087380D01*
X164718809Y-106087380D01*
X164623571Y-106135000D01*
X164575952Y-106182619D01*
X164528333Y-106277857D01*
X164528333Y-106373095D01*
X164575952Y-106515952D01*
X165147380Y-107087380D01*
X164528333Y-107087380D01*
M02*
