M48
; DRILL file {KiCad 6.0.0-unknown-772dff7~100~ubuntu18.04.1} date Tue Jul  9 14:46:22 2019
; FORMAT={-:-/ absolute / metric / decimal}
; #@! TF.CreationDate,2019-07-09T14:46:22+08:00
; #@! TF.GenerationSoftware,Kicad,Pcbnew,6.0.0-unknown-772dff7~100~ubuntu18.04.1
FMAT,2
METRIC
T1C0.400
T2C0.650
T3C0.800
T4C1.000
T5C1.200
T6C1.400
T7C1.700
T8C3.200
%
G90
G05
T1
X105.712Y-109.712
X106.2Y-106.7
X108.3Y-106.1
X108.7Y-108.6
X110.0Y-108.6
X111.5Y-106.7
X111.5Y-108.6
X112.8Y-112.9
X113.25Y-93.25
X113.5Y-104.7
X113.5Y-106.0
X113.7Y-108.2
X114.5Y-89.0
X114.5Y-90.5
X114.5Y-92.0
X114.5Y-99.0
X115.7Y-109.7
X116.0Y-97.5
X117.5Y-110.0
X118.8Y-104.2
X118.8Y-108.2
X124.0Y-118.5
X128.5Y-118.5
X131.0Y-81.5
X131.3Y-109.2
X131.5Y-83.5
X131.5Y-85.0
X131.5Y-87.0
X131.5Y-88.5
X132.5Y-86.0
X134.0Y-111.0
X134.1Y-102.0
X135.5Y-81.5
X135.5Y-84.0
X135.5Y-89.0
X135.5Y-91.5
X135.5Y-104.0
X135.5Y-109.1
X137.0Y-109.5
X137.0Y-111.5
X138.0Y-107.5
X138.5Y-100.5
X140.0Y-102.0
X141.2Y-103.3
X141.5Y-110.0
X142.5Y-101.5
X145.0Y-101.5
X147.5Y-101.5
X150.5Y-76.5
X151.0Y-110.0
X152.5Y-101.5
X153.0Y-76.5
X154.0Y-109.0
X154.0Y-113.0
X155.0Y-101.5
X155.5Y-76.5
X156.3Y-111.0
X158.0Y-76.5
X159.0Y-111.0
X159.5Y-100.5
X160.25Y-110.5
X161.5Y-111.0
X162.5Y-81.5
X162.5Y-86.5
X167.5Y-107.0
X168.5Y-100.5
X169.0Y-107.0
X169.1Y-98.6
X171.6Y-100.2
X172.9Y-97.8
X173.0Y-107.0
X175.7Y-99.5
X183.5Y-93.5
X184.5Y-104.5
X186.0Y-104.5
X191.5Y-100.5
X192.0Y-88.0
X192.0Y-95.0
X193.0Y-100.5
X194.5Y-93.0
X195.0Y-91.0
X201.5Y-77.0
X201.5Y-90.0
X203.0Y-90.0
X204.0Y-72.5
X204.0Y-77.0
X205.0Y-94.5
X205.5Y-73.5
X205.5Y-77.0
X205.5Y-98.5
X206.5Y-86.0
X208.0Y-74.5
X208.0Y-91.0
X208.0Y-101.0
X208.5Y-86.0
X209.0Y-81.0
X209.2Y-93.2
X210.0Y-86.0
X210.0Y-103.0
X210.5Y-81.0
X210.8Y-93.2
X211.5Y-88.1
X212.0Y-76.5
X212.3Y-98.5
X212.5Y-104.5
X212.6Y-96.5
T2
X145.72Y-106.0
X145.72Y-107.27
X146.99Y-106.0
X146.99Y-107.27
X148.26Y-106.0
X148.26Y-107.27
X149.53Y-106.0
X149.53Y-107.27
X150.8Y-106.0
X150.8Y-107.27
X152.07Y-106.0
X152.07Y-107.27
X153.34Y-106.0
X153.34Y-107.27
X154.61Y-106.0
X154.61Y-107.27
X155.88Y-106.0
X155.88Y-107.27
X157.15Y-106.0
X157.15Y-107.27
X158.42Y-106.0
X158.42Y-107.27
X159.69Y-106.0
X159.69Y-107.27
X160.96Y-106.0
X160.96Y-107.27
X162.23Y-106.0
X162.23Y-107.27
X163.5Y-106.0
X163.5Y-107.27
T3
X109.0Y-115.4
X114.0Y-115.4
T4
X164.0Y-111.0
X164.0Y-113.54
X103.5Y-102.5
X103.5Y-105.04
X103.5Y-107.58
X164.0Y-116.08
X125.0Y-100.0
X127.54Y-100.0
X118.0Y-72.0
X125.0Y-102.54
X125.0Y-105.08
X125.0Y-107.62
X125.0Y-110.16
X115.46Y-72.0
X144.42Y-72.0
X146.96Y-72.0
X149.5Y-72.0
X112.92Y-72.0
X127.54Y-102.54
X127.54Y-105.08
X127.54Y-107.62
X127.54Y-110.16
T5
X183.5Y-109.5
X186.0Y-109.5
X188.5Y-109.5
X191.0Y-109.5
X193.5Y-109.5
X204.0Y-109.5
X206.5Y-109.5
X209.0Y-109.5
X107.625Y-118.15
X115.375Y-118.15
T6
X107.775Y-114.35
X115.225Y-114.35
T7
X183.5Y-116.68
X193.5Y-116.68
X204.0Y-116.68
X209.0Y-116.68
T8
X136.0Y-117.0
X170.0Y-73.0
X170.0Y-117.0
X136.0Y-73.0
X215.0Y-117.0
X215.0Y-73.0
X83.0Y-117.0
X83.0Y-73.0
T0
M30
