G04 #@! TF.GenerationSoftware,KiCad,Pcbnew,6.0.0-unknown-772dff7~100~ubuntu18.04.1*
G04 #@! TF.CreationDate,2019-07-09T14:46:37+08:00*
G04 #@! TF.ProjectId,backpack,6261636b-7061-4636-9b2e-6b696361645f,rev?*
G04 #@! TF.SameCoordinates,Original*
G04 #@! TF.FileFunction,Legend,Top*
G04 #@! TF.FilePolarity,Positive*
%FSLAX46Y46*%
G04 Gerber Fmt 4.6, Leading zero omitted, Abs format (unit mm)*
G04 Created by KiCad (PCBNEW 6.0.0-unknown-772dff7~100~ubuntu18.04.1) date 2019-07-09 14:46:37*
%MOMM*%
%LPD*%
G04 APERTURE LIST*
%ADD10C,0.120000*%
%ADD11C,0.150000*%
%ADD12C,0.300000*%
G04 APERTURE END LIST*
D10*
X138700000Y-109700000D02*
G75*
G03X138700000Y-109700000I-300000J0D01*
G01*
D11*
X120859404Y-109700000D02*
X120764166Y-109652380D01*
X120621309Y-109652380D01*
X120478452Y-109700000D01*
X120383214Y-109795238D01*
X120335595Y-109890476D01*
X120287976Y-110080952D01*
X120287976Y-110223809D01*
X120335595Y-110414285D01*
X120383214Y-110509523D01*
X120478452Y-110604761D01*
X120621309Y-110652380D01*
X120716547Y-110652380D01*
X120859404Y-110604761D01*
X120907023Y-110557142D01*
X120907023Y-110223809D01*
X120716547Y-110223809D01*
X121335595Y-110652380D02*
X121335595Y-109652380D01*
X121907023Y-110652380D01*
X121907023Y-109652380D01*
X122383214Y-110652380D02*
X122383214Y-109652380D01*
X122621309Y-109652380D01*
X122764166Y-109700000D01*
X122859404Y-109795238D01*
X122907023Y-109890476D01*
X122954642Y-110080952D01*
X122954642Y-110223809D01*
X122907023Y-110414285D01*
X122859404Y-110509523D01*
X122764166Y-110604761D01*
X122621309Y-110652380D01*
X122383214Y-110652380D01*
D10*
X210200000Y-81600000D02*
G75*
G03X210200000Y-81600000I-300000J0D01*
G01*
X211400000Y-100000000D02*
G75*
G03X211400000Y-100000000I-300000J0D01*
G01*
X193600000Y-95200000D02*
G75*
G03X193600000Y-95200000I-300000J0D01*
G01*
X165900000Y-98900000D02*
G75*
G03X165900000Y-98900000I-300000J0D01*
G01*
X153400000Y-108500000D02*
G75*
G03X153400000Y-108500000I-200000J0D01*
G01*
X108800000Y-103200000D02*
G75*
G03X108800000Y-103200000I-300000J0D01*
G01*
X141700000Y-110600000D02*
G75*
G03X141700000Y-110600000I-300000J0D01*
G01*
D11*
X156952380Y-95833333D02*
X156952380Y-95166666D01*
X157952380Y-95833333D01*
X157952380Y-95166666D01*
X152952380Y-95833333D02*
X153952380Y-95166666D01*
X152952380Y-95166666D02*
X153952380Y-95833333D01*
X157476190Y-92000000D02*
X157952380Y-92000000D01*
X156952380Y-92333333D02*
X157476190Y-92000000D01*
X156952380Y-91666666D01*
D10*
X156300000Y-94200000D02*
X155700000Y-94800000D01*
X155700000Y-94200000D02*
X156300000Y-94800000D01*
X153000000Y-94500000D02*
X153500000Y-95000000D01*
X153000000Y-94500000D02*
X153500000Y-94000000D01*
X155500000Y-94500000D02*
X153000000Y-94500000D01*
X156000000Y-91500000D02*
X156500000Y-92000000D01*
X156000000Y-91500000D02*
X155500000Y-92000000D01*
X156000000Y-94000000D02*
X156000000Y-91500000D01*
X156500000Y-94500000D02*
G75*
G03X156500000Y-94500000I-500000J0D01*
G01*
X146500000Y-89000000D02*
X150500000Y-86500000D01*
X150500000Y-91500000D02*
X146500000Y-89000000D01*
X150500000Y-86500000D02*
X150500000Y-91500000D01*
X126707107Y-93000000D02*
G75*
G03X126707107Y-93000000I-707107J0D01*
G01*
D11*
X131285714Y-94952380D02*
X130714285Y-94952380D01*
X131000000Y-94952380D02*
X131000000Y-93952380D01*
X130904761Y-94095238D01*
X130809523Y-94190476D01*
X130714285Y-94238095D01*
D12*
X83837857Y-79128571D02*
X84123571Y-79128571D01*
X84266428Y-79200000D01*
X84409285Y-79342857D01*
X84480714Y-79628571D01*
X84480714Y-80128571D01*
X84409285Y-80414285D01*
X84266428Y-80557142D01*
X84123571Y-80628571D01*
X83837857Y-80628571D01*
X83695000Y-80557142D01*
X83552142Y-80414285D01*
X83480714Y-80128571D01*
X83480714Y-79628571D01*
X83552142Y-79342857D01*
X83695000Y-79200000D01*
X83837857Y-79128571D01*
X85123571Y-80628571D02*
X85123571Y-79128571D01*
X85695000Y-79128571D01*
X85837857Y-79200000D01*
X85909285Y-79271428D01*
X85980714Y-79414285D01*
X85980714Y-79628571D01*
X85909285Y-79771428D01*
X85837857Y-79842857D01*
X85695000Y-79914285D01*
X85123571Y-79914285D01*
X86623571Y-79842857D02*
X87123571Y-79842857D01*
X87337857Y-80628571D02*
X86623571Y-80628571D01*
X86623571Y-79128571D01*
X87337857Y-79128571D01*
X87980714Y-80628571D02*
X87980714Y-79128571D01*
X88837857Y-80628571D01*
X88837857Y-79128571D01*
X90480714Y-79128571D02*
X90980714Y-80628571D01*
X91480714Y-79128571D01*
X91980714Y-80628571D02*
X91980714Y-79128571D01*
X92623571Y-80557142D02*
X92837857Y-80628571D01*
X93195000Y-80628571D01*
X93337857Y-80557142D01*
X93409285Y-80485714D01*
X93480714Y-80342857D01*
X93480714Y-80200000D01*
X93409285Y-80057142D01*
X93337857Y-79985714D01*
X93195000Y-79914285D01*
X92909285Y-79842857D01*
X92766428Y-79771428D01*
X92695000Y-79700000D01*
X92623571Y-79557142D01*
X92623571Y-79414285D01*
X92695000Y-79271428D01*
X92766428Y-79200000D01*
X92909285Y-79128571D01*
X93266428Y-79128571D01*
X93480714Y-79200000D01*
X94123571Y-80628571D02*
X94123571Y-79128571D01*
X95123571Y-79128571D02*
X95409285Y-79128571D01*
X95552142Y-79200000D01*
X95695000Y-79342857D01*
X95766428Y-79628571D01*
X95766428Y-80128571D01*
X95695000Y-80414285D01*
X95552142Y-80557142D01*
X95409285Y-80628571D01*
X95123571Y-80628571D01*
X94980714Y-80557142D01*
X94837857Y-80414285D01*
X94766428Y-80128571D01*
X94766428Y-79628571D01*
X94837857Y-79342857D01*
X94980714Y-79200000D01*
X95123571Y-79128571D01*
X96409285Y-80628571D02*
X96409285Y-79128571D01*
X97266428Y-80628571D01*
X97266428Y-79128571D01*
X99980714Y-80485714D02*
X99909285Y-80557142D01*
X99695000Y-80628571D01*
X99552142Y-80628571D01*
X99337857Y-80557142D01*
X99195000Y-80414285D01*
X99123571Y-80271428D01*
X99052142Y-79985714D01*
X99052142Y-79771428D01*
X99123571Y-79485714D01*
X99195000Y-79342857D01*
X99337857Y-79200000D01*
X99552142Y-79128571D01*
X99695000Y-79128571D01*
X99909285Y-79200000D01*
X99980714Y-79271428D01*
X100909285Y-79128571D02*
X101195000Y-79128571D01*
X101337857Y-79200000D01*
X101480714Y-79342857D01*
X101552142Y-79628571D01*
X101552142Y-80128571D01*
X101480714Y-80414285D01*
X101337857Y-80557142D01*
X101195000Y-80628571D01*
X100909285Y-80628571D01*
X100766428Y-80557142D01*
X100623571Y-80414285D01*
X100552142Y-80128571D01*
X100552142Y-79628571D01*
X100623571Y-79342857D01*
X100766428Y-79200000D01*
X100909285Y-79128571D01*
X102195000Y-80628571D02*
X102195000Y-79128571D01*
X102695000Y-80200000D01*
X103195000Y-79128571D01*
X103195000Y-80628571D01*
X103909285Y-80628571D02*
X103909285Y-79128571D01*
X104480714Y-79128571D01*
X104623571Y-79200000D01*
X104695000Y-79271428D01*
X104766428Y-79414285D01*
X104766428Y-79628571D01*
X104695000Y-79771428D01*
X104623571Y-79842857D01*
X104480714Y-79914285D01*
X103909285Y-79914285D01*
X105409285Y-79128571D02*
X105409285Y-80342857D01*
X105480714Y-80485714D01*
X105552142Y-80557142D01*
X105695000Y-80628571D01*
X105980714Y-80628571D01*
X106123571Y-80557142D01*
X106195000Y-80485714D01*
X106266428Y-80342857D01*
X106266428Y-79128571D01*
X106766428Y-79128571D02*
X107623571Y-79128571D01*
X107195000Y-80628571D02*
X107195000Y-79128571D01*
X108123571Y-79842857D02*
X108623571Y-79842857D01*
X108837857Y-80628571D02*
X108123571Y-80628571D01*
X108123571Y-79128571D01*
X108837857Y-79128571D01*
X110337857Y-80628571D02*
X109837857Y-79914285D01*
X109480714Y-80628571D02*
X109480714Y-79128571D01*
X110052142Y-79128571D01*
X110195000Y-79200000D01*
X110266428Y-79271428D01*
X110337857Y-79414285D01*
X110337857Y-79628571D01*
X110266428Y-79771428D01*
X110195000Y-79842857D01*
X110052142Y-79914285D01*
X109480714Y-79914285D01*
X83552142Y-83178571D02*
X83552142Y-81678571D01*
X84266428Y-83178571D02*
X84266428Y-81678571D01*
X84766428Y-82750000D01*
X85266428Y-81678571D01*
X85266428Y-83178571D01*
X85980714Y-81678571D02*
X85980714Y-82892857D01*
X86052142Y-83035714D01*
X86123571Y-83107142D01*
X86266428Y-83178571D01*
X86552142Y-83178571D01*
X86695000Y-83107142D01*
X86766428Y-83035714D01*
X86837857Y-82892857D01*
X86837857Y-81678571D01*
X89195000Y-82392857D02*
X89409285Y-82464285D01*
X89480714Y-82535714D01*
X89552142Y-82678571D01*
X89552142Y-82892857D01*
X89480714Y-83035714D01*
X89409285Y-83107142D01*
X89266428Y-83178571D01*
X88695000Y-83178571D01*
X88695000Y-81678571D01*
X89195000Y-81678571D01*
X89337857Y-81750000D01*
X89409285Y-81821428D01*
X89480714Y-81964285D01*
X89480714Y-82107142D01*
X89409285Y-82250000D01*
X89337857Y-82321428D01*
X89195000Y-82392857D01*
X88695000Y-82392857D01*
X90123571Y-82750000D02*
X90837857Y-82750000D01*
X89980714Y-83178571D02*
X90480714Y-81678571D01*
X90980714Y-83178571D01*
X92337857Y-83035714D02*
X92266428Y-83107142D01*
X92052142Y-83178571D01*
X91909285Y-83178571D01*
X91695000Y-83107142D01*
X91552142Y-82964285D01*
X91480714Y-82821428D01*
X91409285Y-82535714D01*
X91409285Y-82321428D01*
X91480714Y-82035714D01*
X91552142Y-81892857D01*
X91695000Y-81750000D01*
X91909285Y-81678571D01*
X92052142Y-81678571D01*
X92266428Y-81750000D01*
X92337857Y-81821428D01*
X92980714Y-83178571D02*
X92980714Y-81678571D01*
X93837857Y-83178571D02*
X93195000Y-82321428D01*
X93837857Y-81678571D02*
X92980714Y-82535714D01*
X94480714Y-83178571D02*
X94480714Y-81678571D01*
X95052142Y-81678571D01*
X95195000Y-81750000D01*
X95266428Y-81821428D01*
X95337857Y-81964285D01*
X95337857Y-82178571D01*
X95266428Y-82321428D01*
X95195000Y-82392857D01*
X95052142Y-82464285D01*
X94480714Y-82464285D01*
X95909285Y-82750000D02*
X96623571Y-82750000D01*
X95766428Y-83178571D02*
X96266428Y-81678571D01*
X96766428Y-83178571D01*
X98123571Y-83035714D02*
X98052142Y-83107142D01*
X97837857Y-83178571D01*
X97695000Y-83178571D01*
X97480714Y-83107142D01*
X97337857Y-82964285D01*
X97266428Y-82821428D01*
X97195000Y-82535714D01*
X97195000Y-82321428D01*
X97266428Y-82035714D01*
X97337857Y-81892857D01*
X97480714Y-81750000D01*
X97695000Y-81678571D01*
X97837857Y-81678571D01*
X98052142Y-81750000D01*
X98123571Y-81821428D01*
X98766428Y-83178571D02*
X98766428Y-81678571D01*
X99623571Y-83178571D02*
X98980714Y-82321428D01*
X99623571Y-81678571D02*
X98766428Y-82535714D01*
X102266428Y-83178571D02*
X101766428Y-82464285D01*
X101409285Y-83178571D02*
X101409285Y-81678571D01*
X101980714Y-81678571D01*
X102123571Y-81750000D01*
X102195000Y-81821428D01*
X102266428Y-81964285D01*
X102266428Y-82178571D01*
X102195000Y-82321428D01*
X102123571Y-82392857D01*
X101980714Y-82464285D01*
X101409285Y-82464285D01*
X102909285Y-82392857D02*
X103409285Y-82392857D01*
X103623571Y-83178571D02*
X102909285Y-83178571D01*
X102909285Y-81678571D01*
X103623571Y-81678571D01*
X104052142Y-81678571D02*
X104552142Y-83178571D01*
X105052142Y-81678571D01*
X107480714Y-83178571D02*
X106623571Y-83178571D01*
X107052142Y-83178571D02*
X107052142Y-81678571D01*
X106909285Y-81892857D01*
X106766428Y-82035714D01*
X106623571Y-82107142D01*
X108052142Y-82750000D02*
X108766428Y-82750000D01*
X107909285Y-83178571D02*
X108409285Y-81678571D01*
X108909285Y-83178571D01*
X83980714Y-84228571D02*
X83980714Y-85300000D01*
X83909285Y-85514285D01*
X83766428Y-85657142D01*
X83552142Y-85728571D01*
X83409285Y-85728571D01*
X84695000Y-84228571D02*
X84695000Y-85442857D01*
X84766428Y-85585714D01*
X84837857Y-85657142D01*
X84980714Y-85728571D01*
X85266428Y-85728571D01*
X85409285Y-85657142D01*
X85480714Y-85585714D01*
X85552142Y-85442857D01*
X85552142Y-84228571D01*
X86980714Y-85728571D02*
X86266428Y-85728571D01*
X86266428Y-84228571D01*
X87766428Y-85014285D02*
X87766428Y-85728571D01*
X87266428Y-84228571D02*
X87766428Y-85014285D01*
X88266428Y-84228571D01*
X89837857Y-84371428D02*
X89909285Y-84300000D01*
X90052142Y-84228571D01*
X90409285Y-84228571D01*
X90552142Y-84300000D01*
X90623571Y-84371428D01*
X90695000Y-84514285D01*
X90695000Y-84657142D01*
X90623571Y-84871428D01*
X89766428Y-85728571D01*
X90695000Y-85728571D01*
X91623571Y-84228571D02*
X91766428Y-84228571D01*
X91909285Y-84300000D01*
X91980714Y-84371428D01*
X92052142Y-84514285D01*
X92123571Y-84800000D01*
X92123571Y-85157142D01*
X92052142Y-85442857D01*
X91980714Y-85585714D01*
X91909285Y-85657142D01*
X91766428Y-85728571D01*
X91623571Y-85728571D01*
X91480714Y-85657142D01*
X91409285Y-85585714D01*
X91337857Y-85442857D01*
X91266428Y-85157142D01*
X91266428Y-84800000D01*
X91337857Y-84514285D01*
X91409285Y-84371428D01*
X91480714Y-84300000D01*
X91623571Y-84228571D01*
X93552142Y-85728571D02*
X92695000Y-85728571D01*
X93123571Y-85728571D02*
X93123571Y-84228571D01*
X92980714Y-84442857D01*
X92837857Y-84585714D01*
X92695000Y-84657142D01*
X94266428Y-85728571D02*
X94552142Y-85728571D01*
X94695000Y-85657142D01*
X94766428Y-85585714D01*
X94909285Y-85371428D01*
X94980714Y-85085714D01*
X94980714Y-84514285D01*
X94909285Y-84371428D01*
X94837857Y-84300000D01*
X94695000Y-84228571D01*
X94409285Y-84228571D01*
X94266428Y-84300000D01*
X94195000Y-84371428D01*
X94123571Y-84514285D01*
X94123571Y-84871428D01*
X94195000Y-85014285D01*
X94266428Y-85085714D01*
X94409285Y-85157142D01*
X94695000Y-85157142D01*
X94837857Y-85085714D01*
X94909285Y-85014285D01*
X94980714Y-84871428D01*
D10*
X119000000Y-118500000D02*
X120000000Y-118000000D01*
X120000000Y-119000000D02*
X119000000Y-118500000D01*
X119000000Y-119000000D02*
X119000000Y-118500000D01*
X119000000Y-118000000D02*
X119000000Y-119000000D01*
X120000000Y-118000000D02*
X120000000Y-119000000D01*
X130000000Y-119000000D02*
X129000000Y-118500000D01*
X130000000Y-118000000D02*
X130000000Y-119000000D01*
X129000000Y-118500000D02*
X130000000Y-118000000D01*
X129000000Y-119000000D02*
X129000000Y-118500000D01*
X129000000Y-118000000D02*
X129000000Y-119000000D01*
D11*
X121880952Y-78785714D02*
X121880952Y-79452380D01*
X121452380Y-78785714D02*
X121452380Y-79309523D01*
X121500000Y-79404761D01*
X121595238Y-79452380D01*
X121738095Y-79452380D01*
X121833333Y-79404761D01*
X121880952Y-79357142D01*
X122357142Y-79452380D02*
X122357142Y-78452380D01*
X122833333Y-79452380D02*
X122833333Y-78452380D01*
X123166666Y-79166666D01*
X123500000Y-78452380D01*
X123500000Y-79452380D01*
X123976190Y-78452380D02*
X123976190Y-79261904D01*
X124023809Y-79357142D01*
X124071428Y-79404761D01*
X124166666Y-79452380D01*
X124357142Y-79452380D01*
X124452380Y-79404761D01*
X124500000Y-79357142D01*
X124547619Y-79261904D01*
X124547619Y-78452380D01*
X158452380Y-74714285D02*
X158452380Y-75285714D01*
X158452380Y-75000000D02*
X157452380Y-75000000D01*
X157595238Y-75095238D01*
X157690476Y-75190476D01*
X157738095Y-75285714D01*
X151952380Y-93071428D02*
X152952380Y-92738095D01*
X151952380Y-92404761D01*
X152428571Y-92071428D02*
X152428571Y-91738095D01*
X152952380Y-91595238D02*
X152952380Y-92071428D01*
X151952380Y-92071428D01*
X151952380Y-91595238D01*
X152857142Y-90595238D02*
X152904761Y-90642857D01*
X152952380Y-90785714D01*
X152952380Y-90880952D01*
X152904761Y-91023809D01*
X152809523Y-91119047D01*
X152714285Y-91166666D01*
X152523809Y-91214285D01*
X152380952Y-91214285D01*
X152190476Y-91166666D01*
X152095238Y-91119047D01*
X152000000Y-91023809D01*
X151952380Y-90880952D01*
X151952380Y-90785714D01*
X152000000Y-90642857D01*
X152047619Y-90595238D01*
X151952380Y-90309523D02*
X151952380Y-89738095D01*
X152952380Y-90023809D02*
X151952380Y-90023809D01*
X151952380Y-89214285D02*
X151952380Y-89023809D01*
X152000000Y-88928571D01*
X152095238Y-88833333D01*
X152285714Y-88785714D01*
X152619047Y-88785714D01*
X152809523Y-88833333D01*
X152904761Y-88928571D01*
X152952380Y-89023809D01*
X152952380Y-89214285D01*
X152904761Y-89309523D01*
X152809523Y-89404761D01*
X152619047Y-89452380D01*
X152285714Y-89452380D01*
X152095238Y-89404761D01*
X152000000Y-89309523D01*
X151952380Y-89214285D01*
X152952380Y-87785714D02*
X152476190Y-88119047D01*
X152952380Y-88357142D02*
X151952380Y-88357142D01*
X151952380Y-87976190D01*
X152000000Y-87880952D01*
X152047619Y-87833333D01*
X152142857Y-87785714D01*
X152285714Y-87785714D01*
X152380952Y-87833333D01*
X152428571Y-87880952D01*
X152476190Y-87976190D01*
X152476190Y-88357142D01*
X152952380Y-87357142D02*
X151952380Y-87357142D01*
X152952380Y-86785714D01*
X151952380Y-86785714D01*
X152666666Y-86357142D02*
X152666666Y-85880952D01*
X152952380Y-86452380D02*
X151952380Y-86119047D01*
X152952380Y-85785714D01*
X151952380Y-85595238D02*
X152952380Y-85261904D01*
X151952380Y-84928571D01*
X102380952Y-98627380D02*
X102047619Y-98151190D01*
X101809523Y-98627380D02*
X101809523Y-97627380D01*
X102190476Y-97627380D01*
X102285714Y-97675000D01*
X102333333Y-97722619D01*
X102380952Y-97817857D01*
X102380952Y-97960714D01*
X102333333Y-98055952D01*
X102285714Y-98103571D01*
X102190476Y-98151190D01*
X101809523Y-98151190D01*
X103000000Y-97627380D02*
X103190476Y-97627380D01*
X103285714Y-97675000D01*
X103380952Y-97770238D01*
X103428571Y-97960714D01*
X103428571Y-98294047D01*
X103380952Y-98484523D01*
X103285714Y-98579761D01*
X103190476Y-98627380D01*
X103000000Y-98627380D01*
X102904761Y-98579761D01*
X102809523Y-98484523D01*
X102761904Y-98294047D01*
X102761904Y-97960714D01*
X102809523Y-97770238D01*
X102904761Y-97675000D01*
X103000000Y-97627380D01*
X104047619Y-97627380D02*
X104238095Y-97627380D01*
X104333333Y-97675000D01*
X104428571Y-97770238D01*
X104476190Y-97960714D01*
X104476190Y-98294047D01*
X104428571Y-98484523D01*
X104333333Y-98579761D01*
X104238095Y-98627380D01*
X104047619Y-98627380D01*
X103952380Y-98579761D01*
X103857142Y-98484523D01*
X103809523Y-98294047D01*
X103809523Y-97960714D01*
X103857142Y-97770238D01*
X103952380Y-97675000D01*
X104047619Y-97627380D01*
X104761904Y-97627380D02*
X105333333Y-97627380D01*
X105047619Y-98627380D02*
X105047619Y-97627380D01*
X100904761Y-100182142D02*
X100857142Y-100229761D01*
X100714285Y-100277380D01*
X100619047Y-100277380D01*
X100476190Y-100229761D01*
X100380952Y-100134523D01*
X100333333Y-100039285D01*
X100285714Y-99848809D01*
X100285714Y-99705952D01*
X100333333Y-99515476D01*
X100380952Y-99420238D01*
X100476190Y-99325000D01*
X100619047Y-99277380D01*
X100714285Y-99277380D01*
X100857142Y-99325000D01*
X100904761Y-99372619D01*
X101523809Y-99277380D02*
X101714285Y-99277380D01*
X101809523Y-99325000D01*
X101904761Y-99420238D01*
X101952380Y-99610714D01*
X101952380Y-99944047D01*
X101904761Y-100134523D01*
X101809523Y-100229761D01*
X101714285Y-100277380D01*
X101523809Y-100277380D01*
X101428571Y-100229761D01*
X101333333Y-100134523D01*
X101285714Y-99944047D01*
X101285714Y-99610714D01*
X101333333Y-99420238D01*
X101428571Y-99325000D01*
X101523809Y-99277380D01*
X102380952Y-100277380D02*
X102380952Y-99277380D01*
X102952380Y-100277380D01*
X102952380Y-99277380D01*
X103380952Y-100229761D02*
X103523809Y-100277380D01*
X103761904Y-100277380D01*
X103857142Y-100229761D01*
X103904761Y-100182142D01*
X103952380Y-100086904D01*
X103952380Y-99991666D01*
X103904761Y-99896428D01*
X103857142Y-99848809D01*
X103761904Y-99801190D01*
X103571428Y-99753571D01*
X103476190Y-99705952D01*
X103428571Y-99658333D01*
X103380952Y-99563095D01*
X103380952Y-99467857D01*
X103428571Y-99372619D01*
X103476190Y-99325000D01*
X103571428Y-99277380D01*
X103809523Y-99277380D01*
X103952380Y-99325000D01*
X104571428Y-99277380D02*
X104761904Y-99277380D01*
X104857142Y-99325000D01*
X104952380Y-99420238D01*
X105000000Y-99610714D01*
X105000000Y-99944047D01*
X104952380Y-100134523D01*
X104857142Y-100229761D01*
X104761904Y-100277380D01*
X104571428Y-100277380D01*
X104476190Y-100229761D01*
X104380952Y-100134523D01*
X104333333Y-99944047D01*
X104333333Y-99610714D01*
X104380952Y-99420238D01*
X104476190Y-99325000D01*
X104571428Y-99277380D01*
X105904761Y-100277380D02*
X105428571Y-100277380D01*
X105428571Y-99277380D01*
X106238095Y-99753571D02*
X106571428Y-99753571D01*
X106714285Y-100277380D02*
X106238095Y-100277380D01*
X106238095Y-99277380D01*
X106714285Y-99277380D01*
X99833333Y-107952380D02*
X99500000Y-107476190D01*
X99261904Y-107952380D02*
X99261904Y-106952380D01*
X99642857Y-106952380D01*
X99738095Y-107000000D01*
X99785714Y-107047619D01*
X99833333Y-107142857D01*
X99833333Y-107285714D01*
X99785714Y-107380952D01*
X99738095Y-107428571D01*
X99642857Y-107476190D01*
X99261904Y-107476190D01*
X100166666Y-106952380D02*
X100833333Y-107952380D01*
X100833333Y-106952380D02*
X100166666Y-107952380D01*
X99238095Y-104452380D02*
X99809523Y-104452380D01*
X99523809Y-105452380D02*
X99523809Y-104452380D01*
X100047619Y-104452380D02*
X100714285Y-105452380D01*
X100714285Y-104452380D02*
X100047619Y-105452380D01*
X98738095Y-102000000D02*
X98642857Y-101952380D01*
X98500000Y-101952380D01*
X98357142Y-102000000D01*
X98261904Y-102095238D01*
X98214285Y-102190476D01*
X98166666Y-102380952D01*
X98166666Y-102523809D01*
X98214285Y-102714285D01*
X98261904Y-102809523D01*
X98357142Y-102904761D01*
X98500000Y-102952380D01*
X98595238Y-102952380D01*
X98738095Y-102904761D01*
X98785714Y-102857142D01*
X98785714Y-102523809D01*
X98595238Y-102523809D01*
X99214285Y-102952380D02*
X99214285Y-101952380D01*
X99785714Y-102952380D01*
X99785714Y-101952380D01*
X100261904Y-102952380D02*
X100261904Y-101952380D01*
X100500000Y-101952380D01*
X100642857Y-102000000D01*
X100738095Y-102095238D01*
X100785714Y-102190476D01*
X100833333Y-102380952D01*
X100833333Y-102523809D01*
X100785714Y-102714285D01*
X100738095Y-102809523D01*
X100642857Y-102904761D01*
X100500000Y-102952380D01*
X100261904Y-102952380D01*
X115952380Y-75166666D02*
X115476190Y-75500000D01*
X115952380Y-75738095D02*
X114952380Y-75738095D01*
X114952380Y-75357142D01*
X115000000Y-75261904D01*
X115047619Y-75214285D01*
X115142857Y-75166666D01*
X115285714Y-75166666D01*
X115380952Y-75214285D01*
X115428571Y-75261904D01*
X115476190Y-75357142D01*
X115476190Y-75738095D01*
X114952380Y-74833333D02*
X115952380Y-74166666D01*
X114952380Y-74166666D02*
X115952380Y-74833333D01*
X112500000Y-76261904D02*
X112452380Y-76357142D01*
X112452380Y-76500000D01*
X112500000Y-76642857D01*
X112595238Y-76738095D01*
X112690476Y-76785714D01*
X112880952Y-76833333D01*
X113023809Y-76833333D01*
X113214285Y-76785714D01*
X113309523Y-76738095D01*
X113404761Y-76642857D01*
X113452380Y-76500000D01*
X113452380Y-76404761D01*
X113404761Y-76261904D01*
X113357142Y-76214285D01*
X113023809Y-76214285D01*
X113023809Y-76404761D01*
X113452380Y-75785714D02*
X112452380Y-75785714D01*
X113452380Y-75214285D01*
X112452380Y-75214285D01*
X113452380Y-74738095D02*
X112452380Y-74738095D01*
X112452380Y-74500000D01*
X112500000Y-74357142D01*
X112595238Y-74261904D01*
X112690476Y-74214285D01*
X112880952Y-74166666D01*
X113023809Y-74166666D01*
X113214285Y-74214285D01*
X113309523Y-74261904D01*
X113404761Y-74357142D01*
X113452380Y-74500000D01*
X113452380Y-74738095D01*
X117452380Y-75761904D02*
X117452380Y-75190476D01*
X118452380Y-75476190D02*
X117452380Y-75476190D01*
X117452380Y-74952380D02*
X118452380Y-74285714D01*
X117452380Y-74285714D02*
X118452380Y-74952380D01*
X148952380Y-75761904D02*
X148952380Y-75190476D01*
X149952380Y-75476190D02*
X148952380Y-75476190D01*
X148952380Y-74952380D02*
X149952380Y-74285714D01*
X148952380Y-74285714D02*
X149952380Y-74952380D01*
X147452380Y-75166666D02*
X146976190Y-75500000D01*
X147452380Y-75738095D02*
X146452380Y-75738095D01*
X146452380Y-75357142D01*
X146500000Y-75261904D01*
X146547619Y-75214285D01*
X146642857Y-75166666D01*
X146785714Y-75166666D01*
X146880952Y-75214285D01*
X146928571Y-75261904D01*
X146976190Y-75357142D01*
X146976190Y-75738095D01*
X146452380Y-74833333D02*
X147452380Y-74166666D01*
X146452380Y-74166666D02*
X147452380Y-74833333D01*
X144000000Y-76261904D02*
X143952380Y-76357142D01*
X143952380Y-76500000D01*
X144000000Y-76642857D01*
X144095238Y-76738095D01*
X144190476Y-76785714D01*
X144380952Y-76833333D01*
X144523809Y-76833333D01*
X144714285Y-76785714D01*
X144809523Y-76738095D01*
X144904761Y-76642857D01*
X144952380Y-76500000D01*
X144952380Y-76404761D01*
X144904761Y-76261904D01*
X144857142Y-76214285D01*
X144523809Y-76214285D01*
X144523809Y-76404761D01*
X144952380Y-75785714D02*
X143952380Y-75785714D01*
X144952380Y-75214285D01*
X143952380Y-75214285D01*
X144952380Y-74738095D02*
X143952380Y-74738095D01*
X143952380Y-74500000D01*
X144000000Y-74357142D01*
X144095238Y-74261904D01*
X144190476Y-74214285D01*
X144380952Y-74166666D01*
X144523809Y-74166666D01*
X144714285Y-74214285D01*
X144809523Y-74261904D01*
X144904761Y-74357142D01*
X144952380Y-74500000D01*
X144952380Y-74738095D01*
X166119047Y-111404761D02*
X166261904Y-111452380D01*
X166500000Y-111452380D01*
X166595238Y-111404761D01*
X166642857Y-111357142D01*
X166690476Y-111261904D01*
X166690476Y-111166666D01*
X166642857Y-111071428D01*
X166595238Y-111023809D01*
X166500000Y-110976190D01*
X166309523Y-110928571D01*
X166214285Y-110880952D01*
X166166666Y-110833333D01*
X166119047Y-110738095D01*
X166119047Y-110642857D01*
X166166666Y-110547619D01*
X166214285Y-110500000D01*
X166309523Y-110452380D01*
X166547619Y-110452380D01*
X166690476Y-110500000D01*
X167309523Y-110976190D02*
X167309523Y-111452380D01*
X166976190Y-110452380D02*
X167309523Y-110976190D01*
X167642857Y-110452380D01*
X167976190Y-111452380D02*
X167976190Y-110452380D01*
X168547619Y-111452380D01*
X168547619Y-110452380D01*
X169595238Y-111357142D02*
X169547619Y-111404761D01*
X169404761Y-111452380D01*
X169309523Y-111452380D01*
X169166666Y-111404761D01*
X169071428Y-111309523D01*
X169023809Y-111214285D01*
X168976190Y-111023809D01*
X168976190Y-110880952D01*
X169023809Y-110690476D01*
X169071428Y-110595238D01*
X169166666Y-110500000D01*
X169309523Y-110452380D01*
X169404761Y-110452380D01*
X169547619Y-110500000D01*
X169595238Y-110547619D01*
X169785714Y-111547619D02*
X170547619Y-111547619D01*
X170785714Y-111452380D02*
X170785714Y-110452380D01*
X171261904Y-111452380D02*
X171261904Y-110452380D01*
X171833333Y-111452380D01*
X171833333Y-110452380D01*
X166833333Y-113857142D02*
X166785714Y-113904761D01*
X166642857Y-113952380D01*
X166547619Y-113952380D01*
X166404761Y-113904761D01*
X166309523Y-113809523D01*
X166261904Y-113714285D01*
X166214285Y-113523809D01*
X166214285Y-113380952D01*
X166261904Y-113190476D01*
X166309523Y-113095238D01*
X166404761Y-113000000D01*
X166547619Y-112952380D01*
X166642857Y-112952380D01*
X166785714Y-113000000D01*
X166833333Y-113047619D01*
X167214285Y-113904761D02*
X167357142Y-113952380D01*
X167595238Y-113952380D01*
X167690476Y-113904761D01*
X167738095Y-113857142D01*
X167785714Y-113761904D01*
X167785714Y-113666666D01*
X167738095Y-113571428D01*
X167690476Y-113523809D01*
X167595238Y-113476190D01*
X167404761Y-113428571D01*
X167309523Y-113380952D01*
X167261904Y-113333333D01*
X167214285Y-113238095D01*
X167214285Y-113142857D01*
X167261904Y-113047619D01*
X167309523Y-113000000D01*
X167404761Y-112952380D01*
X167642857Y-112952380D01*
X167785714Y-113000000D01*
X159738095Y-115500000D02*
X159642857Y-115452380D01*
X159500000Y-115452380D01*
X159357142Y-115500000D01*
X159261904Y-115595238D01*
X159214285Y-115690476D01*
X159166666Y-115880952D01*
X159166666Y-116023809D01*
X159214285Y-116214285D01*
X159261904Y-116309523D01*
X159357142Y-116404761D01*
X159500000Y-116452380D01*
X159595238Y-116452380D01*
X159738095Y-116404761D01*
X159785714Y-116357142D01*
X159785714Y-116023809D01*
X159595238Y-116023809D01*
X160214285Y-116452380D02*
X160214285Y-115452380D01*
X160785714Y-116452380D01*
X160785714Y-115452380D01*
X161261904Y-116452380D02*
X161261904Y-115452380D01*
X161500000Y-115452380D01*
X161642857Y-115500000D01*
X161738095Y-115595238D01*
X161785714Y-115690476D01*
X161833333Y-115880952D01*
X161833333Y-116023809D01*
X161785714Y-116214285D01*
X161738095Y-116309523D01*
X161642857Y-116404761D01*
X161500000Y-116452380D01*
X161261904Y-116452380D01*
X207952380Y-107261904D02*
X207952380Y-106690476D01*
X208952380Y-106976190D02*
X207952380Y-106976190D01*
X207952380Y-106452380D02*
X208952380Y-105785714D01*
X207952380Y-105785714D02*
X208952380Y-106452380D01*
X206952380Y-106666666D02*
X206476190Y-107000000D01*
X206952380Y-107238095D02*
X205952380Y-107238095D01*
X205952380Y-106857142D01*
X206000000Y-106761904D01*
X206047619Y-106714285D01*
X206142857Y-106666666D01*
X206285714Y-106666666D01*
X206380952Y-106714285D01*
X206428571Y-106761904D01*
X206476190Y-106857142D01*
X206476190Y-107238095D01*
X205952380Y-106333333D02*
X206952380Y-105666666D01*
X205952380Y-105666666D02*
X206952380Y-106333333D01*
X203500000Y-106761904D02*
X203452380Y-106857142D01*
X203452380Y-107000000D01*
X203500000Y-107142857D01*
X203595238Y-107238095D01*
X203690476Y-107285714D01*
X203880952Y-107333333D01*
X204023809Y-107333333D01*
X204214285Y-107285714D01*
X204309523Y-107238095D01*
X204404761Y-107142857D01*
X204452380Y-107000000D01*
X204452380Y-106904761D01*
X204404761Y-106761904D01*
X204357142Y-106714285D01*
X204023809Y-106714285D01*
X204023809Y-106904761D01*
X204452380Y-106285714D02*
X203452380Y-106285714D01*
X204452380Y-105714285D01*
X203452380Y-105714285D01*
X204452380Y-105238095D02*
X203452380Y-105238095D01*
X203452380Y-105000000D01*
X203500000Y-104857142D01*
X203595238Y-104761904D01*
X203690476Y-104714285D01*
X203880952Y-104666666D01*
X204023809Y-104666666D01*
X204214285Y-104714285D01*
X204309523Y-104761904D01*
X204404761Y-104857142D01*
X204452380Y-105000000D01*
X204452380Y-105238095D01*
X195952380Y-110928571D02*
X195952380Y-110738095D01*
X196000000Y-110642857D01*
X196095238Y-110547619D01*
X196285714Y-110500000D01*
X196619047Y-110500000D01*
X196809523Y-110547619D01*
X196904761Y-110642857D01*
X196952380Y-110738095D01*
X196952380Y-110928571D01*
X196904761Y-111023809D01*
X196809523Y-111119047D01*
X196619047Y-111166666D01*
X196285714Y-111166666D01*
X196095238Y-111119047D01*
X196000000Y-111023809D01*
X195952380Y-110928571D01*
X195952380Y-110071428D02*
X196761904Y-110071428D01*
X196857142Y-110023809D01*
X196904761Y-109976190D01*
X196952380Y-109880952D01*
X196952380Y-109690476D01*
X196904761Y-109595238D01*
X196857142Y-109547619D01*
X196761904Y-109500000D01*
X195952380Y-109500000D01*
X195952380Y-109166666D02*
X195952380Y-108595238D01*
X196952380Y-108880952D02*
X195952380Y-108880952D01*
X196666666Y-108309523D02*
X196666666Y-107833333D01*
X196952380Y-108404761D02*
X195952380Y-108071428D01*
X196952380Y-107738095D01*
X190452380Y-107500000D02*
X190452380Y-107309523D01*
X190500000Y-107214285D01*
X190595238Y-107119047D01*
X190785714Y-107071428D01*
X191119047Y-107071428D01*
X191309523Y-107119047D01*
X191404761Y-107214285D01*
X191452380Y-107309523D01*
X191452380Y-107500000D01*
X191404761Y-107595238D01*
X191309523Y-107690476D01*
X191119047Y-107738095D01*
X190785714Y-107738095D01*
X190595238Y-107690476D01*
X190500000Y-107595238D01*
X190452380Y-107500000D01*
X190452380Y-106642857D02*
X191261904Y-106642857D01*
X191357142Y-106595238D01*
X191404761Y-106547619D01*
X191452380Y-106452380D01*
X191452380Y-106261904D01*
X191404761Y-106166666D01*
X191357142Y-106119047D01*
X191261904Y-106071428D01*
X190452380Y-106071428D01*
X190452380Y-105738095D02*
X190452380Y-105166666D01*
X191452380Y-105452380D02*
X190452380Y-105452380D01*
X190928571Y-104500000D02*
X190976190Y-104357142D01*
X191023809Y-104309523D01*
X191119047Y-104261904D01*
X191261904Y-104261904D01*
X191357142Y-104309523D01*
X191404761Y-104357142D01*
X191452380Y-104452380D01*
X191452380Y-104833333D01*
X190452380Y-104833333D01*
X190452380Y-104500000D01*
X190500000Y-104404761D01*
X190547619Y-104357142D01*
X190642857Y-104309523D01*
X190738095Y-104309523D01*
X190833333Y-104357142D01*
X190880952Y-104404761D01*
X190928571Y-104500000D01*
X190928571Y-104833333D01*
X189523809Y-106047619D02*
X189523809Y-107047619D01*
X189047619Y-106047619D02*
X189047619Y-107047619D01*
X188476190Y-106047619D01*
X188476190Y-107047619D01*
X187428571Y-106142857D02*
X187476190Y-106095238D01*
X187619047Y-106047619D01*
X187714285Y-106047619D01*
X187857142Y-106095238D01*
X187952380Y-106190476D01*
X188000000Y-106285714D01*
X188047619Y-106476190D01*
X188047619Y-106619047D01*
X188000000Y-106809523D01*
X187952380Y-106904761D01*
X187857142Y-107000000D01*
X187714285Y-107047619D01*
X187619047Y-107047619D01*
X187476190Y-107000000D01*
X187428571Y-106952380D01*
D10*
X186361904Y-107819047D02*
X185561904Y-107819047D01*
X186361904Y-107438095D02*
X185561904Y-107438095D01*
X186361904Y-106980952D01*
X185561904Y-106980952D01*
X186361904Y-106600000D02*
X185561904Y-106600000D01*
X185561904Y-106409523D01*
X185600000Y-106295238D01*
X185676190Y-106219047D01*
X185752380Y-106180952D01*
X185904761Y-106142857D01*
X186019047Y-106142857D01*
X186171428Y-106180952D01*
X186247619Y-106219047D01*
X186323809Y-106295238D01*
X186361904Y-106409523D01*
X186361904Y-106600000D01*
X183600000Y-107609523D02*
X183561904Y-107685714D01*
X183561904Y-107800000D01*
X183600000Y-107914285D01*
X183676190Y-107990476D01*
X183752380Y-108028571D01*
X183904761Y-108066666D01*
X184019047Y-108066666D01*
X184171428Y-108028571D01*
X184247619Y-107990476D01*
X184323809Y-107914285D01*
X184361904Y-107800000D01*
X184361904Y-107723809D01*
X184323809Y-107609523D01*
X184285714Y-107571428D01*
X184019047Y-107571428D01*
X184019047Y-107723809D01*
X184361904Y-107228571D02*
X183561904Y-107228571D01*
X184361904Y-106771428D01*
X183561904Y-106771428D01*
X184361904Y-106390476D02*
X183561904Y-106390476D01*
X183561904Y-106200000D01*
X183600000Y-106085714D01*
X183676190Y-106009523D01*
X183752380Y-105971428D01*
X183904761Y-105933333D01*
X184019047Y-105933333D01*
X184171428Y-105971428D01*
X184247619Y-106009523D01*
X184323809Y-106085714D01*
X184361904Y-106200000D01*
X184361904Y-106390476D01*
D11*
X129907023Y-110652380D02*
X129573690Y-110176190D01*
X129335595Y-110652380D02*
X129335595Y-109652380D01*
X129716547Y-109652380D01*
X129811785Y-109700000D01*
X129859404Y-109747619D01*
X129907023Y-109842857D01*
X129907023Y-109985714D01*
X129859404Y-110080952D01*
X129811785Y-110128571D01*
X129716547Y-110176190D01*
X129335595Y-110176190D01*
X130287976Y-110604761D02*
X130430833Y-110652380D01*
X130668928Y-110652380D01*
X130764166Y-110604761D01*
X130811785Y-110557142D01*
X130859404Y-110461904D01*
X130859404Y-110366666D01*
X130811785Y-110271428D01*
X130764166Y-110223809D01*
X130668928Y-110176190D01*
X130478452Y-110128571D01*
X130383214Y-110080952D01*
X130335595Y-110033333D01*
X130287976Y-109938095D01*
X130287976Y-109842857D01*
X130335595Y-109747619D01*
X130383214Y-109700000D01*
X130478452Y-109652380D01*
X130716547Y-109652380D01*
X130859404Y-109700000D01*
X131145119Y-109652380D02*
X131716547Y-109652380D01*
X131430833Y-110652380D02*
X131430833Y-109652380D01*
X129387976Y-108004761D02*
X129530833Y-108052380D01*
X129768928Y-108052380D01*
X129864166Y-108004761D01*
X129911785Y-107957142D01*
X129959404Y-107861904D01*
X129959404Y-107766666D01*
X129911785Y-107671428D01*
X129864166Y-107623809D01*
X129768928Y-107576190D01*
X129578452Y-107528571D01*
X129483214Y-107480952D01*
X129435595Y-107433333D01*
X129387976Y-107338095D01*
X129387976Y-107242857D01*
X129435595Y-107147619D01*
X129483214Y-107100000D01*
X129578452Y-107052380D01*
X129816547Y-107052380D01*
X129959404Y-107100000D01*
X130959404Y-107957142D02*
X130911785Y-108004761D01*
X130768928Y-108052380D01*
X130673690Y-108052380D01*
X130530833Y-108004761D01*
X130435595Y-107909523D01*
X130387976Y-107814285D01*
X130340357Y-107623809D01*
X130340357Y-107480952D01*
X130387976Y-107290476D01*
X130435595Y-107195238D01*
X130530833Y-107100000D01*
X130673690Y-107052380D01*
X130768928Y-107052380D01*
X130911785Y-107100000D01*
X130959404Y-107147619D01*
X131387976Y-108052380D02*
X131387976Y-107052380D01*
X131959404Y-108052380D02*
X131530833Y-107480952D01*
X131959404Y-107052380D02*
X131387976Y-107623809D01*
X129392738Y-104552380D02*
X129964166Y-104552380D01*
X129678452Y-105552380D02*
X129678452Y-104552380D01*
X130202261Y-104552380D02*
X130868928Y-105552380D01*
X130868928Y-104552380D02*
X130202261Y-105552380D01*
X129535595Y-102952380D02*
X129535595Y-101952380D01*
X129868928Y-102666666D01*
X130202261Y-101952380D01*
X130202261Y-102952380D01*
X130678452Y-102952380D02*
X130678452Y-101952380D01*
X131107023Y-102904761D02*
X131249880Y-102952380D01*
X131487976Y-102952380D01*
X131583214Y-102904761D01*
X131630833Y-102857142D01*
X131678452Y-102761904D01*
X131678452Y-102666666D01*
X131630833Y-102571428D01*
X131583214Y-102523809D01*
X131487976Y-102476190D01*
X131297500Y-102428571D01*
X131202261Y-102380952D01*
X131154642Y-102333333D01*
X131107023Y-102238095D01*
X131107023Y-102142857D01*
X131154642Y-102047619D01*
X131202261Y-102000000D01*
X131297500Y-101952380D01*
X131535595Y-101952380D01*
X131678452Y-102000000D01*
X132297500Y-101952380D02*
X132487976Y-101952380D01*
X132583214Y-102000000D01*
X132678452Y-102095238D01*
X132726071Y-102285714D01*
X132726071Y-102619047D01*
X132678452Y-102809523D01*
X132583214Y-102904761D01*
X132487976Y-102952380D01*
X132297500Y-102952380D01*
X132202261Y-102904761D01*
X132107023Y-102809523D01*
X132059404Y-102619047D01*
X132059404Y-102285714D01*
X132107023Y-102095238D01*
X132202261Y-102000000D01*
X132297500Y-101952380D01*
X129487976Y-100404761D02*
X129630833Y-100452380D01*
X129868928Y-100452380D01*
X129964166Y-100404761D01*
X130011785Y-100357142D01*
X130059404Y-100261904D01*
X130059404Y-100166666D01*
X130011785Y-100071428D01*
X129964166Y-100023809D01*
X129868928Y-99976190D01*
X129678452Y-99928571D01*
X129583214Y-99880952D01*
X129535595Y-99833333D01*
X129487976Y-99738095D01*
X129487976Y-99642857D01*
X129535595Y-99547619D01*
X129583214Y-99500000D01*
X129678452Y-99452380D01*
X129916547Y-99452380D01*
X130059404Y-99500000D01*
X130678452Y-99976190D02*
X130678452Y-100452380D01*
X130345119Y-99452380D02*
X130678452Y-99976190D01*
X131011785Y-99452380D01*
X131345119Y-100452380D02*
X131345119Y-99452380D01*
X131916547Y-100452380D01*
X131916547Y-99452380D01*
X132964166Y-100357142D02*
X132916547Y-100404761D01*
X132773690Y-100452380D01*
X132678452Y-100452380D01*
X132535595Y-100404761D01*
X132440357Y-100309523D01*
X132392738Y-100214285D01*
X132345119Y-100023809D01*
X132345119Y-99880952D01*
X132392738Y-99690476D01*
X132440357Y-99595238D01*
X132535595Y-99500000D01*
X132678452Y-99452380D01*
X132773690Y-99452380D01*
X132916547Y-99500000D01*
X132964166Y-99547619D01*
X133154642Y-100547619D02*
X133916547Y-100547619D01*
X134345119Y-99452380D02*
X134535595Y-99452380D01*
X134630833Y-99500000D01*
X134726071Y-99595238D01*
X134773690Y-99785714D01*
X134773690Y-100119047D01*
X134726071Y-100309523D01*
X134630833Y-100404761D01*
X134535595Y-100452380D01*
X134345119Y-100452380D01*
X134249880Y-100404761D01*
X134154642Y-100309523D01*
X134107023Y-100119047D01*
X134107023Y-99785714D01*
X134154642Y-99595238D01*
X134249880Y-99500000D01*
X134345119Y-99452380D01*
X135202261Y-99452380D02*
X135202261Y-100261904D01*
X135249880Y-100357142D01*
X135297500Y-100404761D01*
X135392738Y-100452380D01*
X135583214Y-100452380D01*
X135678452Y-100404761D01*
X135726071Y-100357142D01*
X135773690Y-100261904D01*
X135773690Y-99452380D01*
X136107023Y-99452380D02*
X136678452Y-99452380D01*
X136392738Y-100452380D02*
X136392738Y-99452380D01*
X120540357Y-99552380D02*
X121159404Y-99552380D01*
X120826071Y-99933333D01*
X120968928Y-99933333D01*
X121064166Y-99980952D01*
X121111785Y-100028571D01*
X121159404Y-100123809D01*
X121159404Y-100361904D01*
X121111785Y-100457142D01*
X121064166Y-100504761D01*
X120968928Y-100552380D01*
X120683214Y-100552380D01*
X120587976Y-100504761D01*
X120540357Y-100457142D01*
X121445119Y-99552380D02*
X121778452Y-100552380D01*
X122111785Y-99552380D01*
X122349880Y-99552380D02*
X122968928Y-99552380D01*
X122635595Y-99933333D01*
X122778452Y-99933333D01*
X122873690Y-99980952D01*
X122921309Y-100028571D01*
X122968928Y-100123809D01*
X122968928Y-100361904D01*
X122921309Y-100457142D01*
X122873690Y-100504761D01*
X122778452Y-100552380D01*
X122492738Y-100552380D01*
X122397500Y-100504761D01*
X122349880Y-100457142D01*
X121935595Y-103052380D02*
X121935595Y-102052380D01*
X122411785Y-103052380D02*
X122411785Y-102052380D01*
X122983214Y-103052380D01*
X122983214Y-102052380D01*
X121238095Y-112952380D02*
X121809523Y-112952380D01*
X121523809Y-113952380D02*
X121523809Y-112952380D01*
X122047619Y-112952380D02*
X122714285Y-113952380D01*
X122714285Y-112952380D02*
X122047619Y-113952380D01*
X125833333Y-113952380D02*
X125500000Y-113476190D01*
X125261904Y-113952380D02*
X125261904Y-112952380D01*
X125642857Y-112952380D01*
X125738095Y-113000000D01*
X125785714Y-113047619D01*
X125833333Y-113142857D01*
X125833333Y-113285714D01*
X125785714Y-113380952D01*
X125738095Y-113428571D01*
X125642857Y-113476190D01*
X125261904Y-113476190D01*
X126166666Y-112952380D02*
X126833333Y-113952380D01*
X126833333Y-112952380D02*
X126166666Y-113952380D01*
X122007023Y-105552380D02*
X121673690Y-105076190D01*
X121435595Y-105552380D02*
X121435595Y-104552380D01*
X121816547Y-104552380D01*
X121911785Y-104600000D01*
X121959404Y-104647619D01*
X122007023Y-104742857D01*
X122007023Y-104885714D01*
X121959404Y-104980952D01*
X121911785Y-105028571D01*
X121816547Y-105076190D01*
X121435595Y-105076190D01*
X122340357Y-104552380D02*
X123007023Y-105552380D01*
X123007023Y-104552380D02*
X122340357Y-105552380D01*
X120135595Y-108152380D02*
X120135595Y-107152380D01*
X120468928Y-107866666D01*
X120802261Y-107152380D01*
X120802261Y-108152380D01*
X121468928Y-107152380D02*
X121659404Y-107152380D01*
X121754642Y-107200000D01*
X121849880Y-107295238D01*
X121897500Y-107485714D01*
X121897500Y-107819047D01*
X121849880Y-108009523D01*
X121754642Y-108104761D01*
X121659404Y-108152380D01*
X121468928Y-108152380D01*
X121373690Y-108104761D01*
X121278452Y-108009523D01*
X121230833Y-107819047D01*
X121230833Y-107485714D01*
X121278452Y-107295238D01*
X121373690Y-107200000D01*
X121468928Y-107152380D01*
X122278452Y-108104761D02*
X122421309Y-108152380D01*
X122659404Y-108152380D01*
X122754642Y-108104761D01*
X122802261Y-108057142D01*
X122849880Y-107961904D01*
X122849880Y-107866666D01*
X122802261Y-107771428D01*
X122754642Y-107723809D01*
X122659404Y-107676190D01*
X122468928Y-107628571D01*
X122373690Y-107580952D01*
X122326071Y-107533333D01*
X122278452Y-107438095D01*
X122278452Y-107342857D01*
X122326071Y-107247619D01*
X122373690Y-107200000D01*
X122468928Y-107152380D01*
X122707023Y-107152380D01*
X122849880Y-107200000D01*
X123278452Y-108152380D02*
X123278452Y-107152380D01*
D10*
X186662779Y-106010000D02*
X186337221Y-106010000D01*
X186662779Y-104990000D02*
X186337221Y-104990000D01*
X183010000Y-105337221D02*
X183010000Y-105662779D01*
X181990000Y-105337221D02*
X181990000Y-105662779D01*
X122010000Y-116162779D02*
X122010000Y-115837221D01*
X120990000Y-116162779D02*
X120990000Y-115837221D01*
X126510000Y-116162779D02*
X126510000Y-115837221D01*
X125490000Y-116162779D02*
X125490000Y-115837221D01*
X120515000Y-119235000D02*
X122800000Y-119235000D01*
X120515000Y-117765000D02*
X120515000Y-119235000D01*
X122800000Y-117765000D02*
X120515000Y-117765000D01*
X125015000Y-119235000D02*
X127300000Y-119235000D01*
X125015000Y-117765000D02*
X125015000Y-119235000D01*
X127300000Y-117765000D02*
X125015000Y-117765000D01*
X162670000Y-117410000D02*
X165330000Y-117410000D01*
X162670000Y-112270000D02*
X162670000Y-117410000D01*
X165330000Y-112270000D02*
X165330000Y-117410000D01*
X162670000Y-112270000D02*
X165330000Y-112270000D01*
X162670000Y-111000000D02*
X162670000Y-109670000D01*
X162670000Y-109670000D02*
X164000000Y-109670000D01*
X123670000Y-111490000D02*
X128870000Y-111490000D01*
X123670000Y-101270000D02*
X123670000Y-111490000D01*
X128870000Y-98670000D02*
X128870000Y-111490000D01*
X123670000Y-101270000D02*
X126270000Y-101270000D01*
X126270000Y-101270000D02*
X126270000Y-98670000D01*
X126270000Y-98670000D02*
X128870000Y-98670000D01*
X123670000Y-100000000D02*
X123670000Y-98670000D01*
X123670000Y-98670000D02*
X125000000Y-98670000D01*
D11*
X161000000Y-80000000D02*
X161000000Y-78000000D01*
X161000000Y-78000000D02*
X159000000Y-78000000D01*
X139000000Y-78000000D02*
X137000000Y-78000000D01*
X137000000Y-78000000D02*
X137000000Y-80000000D01*
X137000000Y-98000000D02*
X137000000Y-100000000D01*
X137000000Y-100000000D02*
X139000000Y-100000000D01*
X159000000Y-100000000D02*
X161000000Y-100000000D01*
X161000000Y-100000000D02*
X161000000Y-98000000D01*
X130100000Y-95200000D02*
X115900000Y-95200000D01*
X115900000Y-95200000D02*
X115900000Y-80500000D01*
X115900000Y-80500000D02*
X130100000Y-80500000D01*
X130100000Y-80500000D02*
X130100000Y-95200000D01*
X130100000Y-95200000D02*
X131100000Y-96200000D01*
D10*
X111590000Y-70670000D02*
X111590000Y-73330000D01*
X116730000Y-70670000D02*
X111590000Y-70670000D01*
X116730000Y-73330000D02*
X111590000Y-73330000D01*
X116730000Y-70670000D02*
X116730000Y-73330000D01*
X118000000Y-70670000D02*
X119330000Y-70670000D01*
X119330000Y-70670000D02*
X119330000Y-72000000D01*
X113990000Y-97162779D02*
X113990000Y-96837221D01*
X115010000Y-97162779D02*
X115010000Y-96837221D01*
X113990000Y-94162779D02*
X113990000Y-93837221D01*
X115010000Y-94162779D02*
X115010000Y-93837221D01*
X143090000Y-70670000D02*
X143090000Y-73330000D01*
X148230000Y-70670000D02*
X143090000Y-70670000D01*
X148230000Y-73330000D02*
X143090000Y-73330000D01*
X148230000Y-70670000D02*
X148230000Y-73330000D01*
X149500000Y-70670000D02*
X150830000Y-70670000D01*
X150830000Y-70670000D02*
X150830000Y-72000000D01*
D11*
X107350000Y-115550000D02*
X107350000Y-116950000D01*
X107350000Y-119350000D02*
X107350000Y-119500000D01*
X107350000Y-119500000D02*
X107650000Y-119500000D01*
X107650000Y-119500000D02*
X107650000Y-119950000D01*
X115350000Y-119950000D02*
X115350000Y-119500000D01*
X115350000Y-119500000D02*
X115650000Y-119500000D01*
X115650000Y-119500000D02*
X115650000Y-119350000D01*
X115650000Y-116950000D02*
X115650000Y-115550000D01*
X110425000Y-113375000D02*
X109700000Y-113375000D01*
X109700000Y-113375000D02*
X109700000Y-113800000D01*
X109700000Y-113800000D02*
X108975000Y-113800000D01*
X113300000Y-113800000D02*
X114025000Y-113800000D01*
D10*
X112010000Y-110337221D02*
X112010000Y-110662779D01*
X110990000Y-110337221D02*
X110990000Y-110662779D01*
X113510000Y-110337221D02*
X113510000Y-110662779D01*
X112490000Y-110337221D02*
X112490000Y-110662779D01*
D11*
X110500000Y-108175000D02*
X114500000Y-108175000D01*
X109225000Y-102775000D02*
X114500000Y-102775000D01*
D10*
X102170000Y-108910000D02*
X104830000Y-108910000D01*
X102170000Y-103770000D02*
X102170000Y-108910000D01*
X104830000Y-103770000D02*
X104830000Y-108910000D01*
X102170000Y-103770000D02*
X104830000Y-103770000D01*
X102170000Y-102500000D02*
X102170000Y-101170000D01*
X102170000Y-101170000D02*
X103500000Y-101170000D01*
X109010000Y-110337221D02*
X109010000Y-110662779D01*
X107990000Y-110337221D02*
X107990000Y-110662779D01*
X117837221Y-106490000D02*
X118162779Y-106490000D01*
X117837221Y-107510000D02*
X118162779Y-107510000D01*
X117837221Y-104990000D02*
X118162779Y-104990000D01*
X117837221Y-106010000D02*
X118162779Y-106010000D01*
X107162779Y-108510000D02*
X106837221Y-108510000D01*
X107162779Y-107490000D02*
X106837221Y-107490000D01*
X109490000Y-110662779D02*
X109490000Y-110337221D01*
X110510000Y-110662779D02*
X110510000Y-110337221D01*
X106490000Y-110662779D02*
X106490000Y-110337221D01*
X107510000Y-110662779D02*
X107510000Y-110337221D01*
X113990000Y-110662779D02*
X113990000Y-110337221D01*
X115010000Y-110662779D02*
X115010000Y-110337221D01*
X153580000Y-112100000D02*
X153580000Y-109100000D01*
X151380000Y-112100000D02*
X151380000Y-109900000D01*
X155337221Y-112510000D02*
X155662779Y-112510000D01*
X155337221Y-111490000D02*
X155662779Y-111490000D01*
X155337221Y-110510000D02*
X155662779Y-110510000D01*
X155337221Y-109490000D02*
X155662779Y-109490000D01*
D11*
X134675000Y-110525000D02*
X134675000Y-110500000D01*
X134675000Y-102475000D02*
X134675000Y-102500000D01*
X139325000Y-102475000D02*
X139325000Y-102500000D01*
X140400000Y-110575000D02*
X134675000Y-110575000D01*
X139325000Y-102475000D02*
X134675000Y-102475000D01*
X172325000Y-98475000D02*
X172325000Y-98500000D01*
X172325000Y-106525000D02*
X172325000Y-106500000D01*
X167675000Y-106525000D02*
X167675000Y-106500000D01*
X166600000Y-98425000D02*
X172325000Y-98425000D01*
X167675000Y-106525000D02*
X172325000Y-106525000D01*
D10*
X131990000Y-110162779D02*
X131990000Y-109837221D01*
X133010000Y-110162779D02*
X133010000Y-109837221D01*
X175010000Y-98837221D02*
X175010000Y-99162779D01*
X173990000Y-98837221D02*
X173990000Y-99162779D01*
X139162779Y-112010000D02*
X138837221Y-112010000D01*
X139162779Y-110990000D02*
X138837221Y-110990000D01*
X167837221Y-96990000D02*
X168162779Y-96990000D01*
X167837221Y-98010000D02*
X168162779Y-98010000D01*
D11*
X206275000Y-99300000D02*
X206275000Y-103700000D01*
X211800000Y-97725000D02*
X211800000Y-103700000D01*
D10*
X210830000Y-111310000D02*
X202170000Y-111310000D01*
X202170000Y-111310000D02*
X202170000Y-119990000D01*
X202170000Y-119990000D02*
X210830000Y-119990000D01*
X210830000Y-119990000D02*
X210830000Y-111310000D01*
X208850000Y-111310000D02*
X209150000Y-111310000D01*
X209150000Y-111310000D02*
X209150000Y-110860000D01*
X209150000Y-110860000D02*
X208850000Y-110860000D01*
X208850000Y-110860000D02*
X208850000Y-111310000D01*
X206350000Y-111310000D02*
X206650000Y-111310000D01*
X206650000Y-111310000D02*
X206650000Y-110860000D01*
X206650000Y-110860000D02*
X206350000Y-110860000D01*
X206350000Y-110860000D02*
X206350000Y-111310000D01*
X203850000Y-111310000D02*
X204150000Y-111310000D01*
X204150000Y-111310000D02*
X204150000Y-110860000D01*
X204150000Y-110860000D02*
X203850000Y-110860000D01*
X203850000Y-110860000D02*
X203850000Y-111310000D01*
X210110000Y-109500000D02*
X210534264Y-109800000D01*
X210534264Y-109800000D02*
X210534264Y-109200000D01*
X210534264Y-109200000D02*
X210110000Y-109500000D01*
X206510000Y-95337221D02*
X206510000Y-95662779D01*
X205490000Y-95337221D02*
X205490000Y-95662779D01*
X210762779Y-97010000D02*
X210437221Y-97010000D01*
X210762779Y-95990000D02*
X210437221Y-95990000D01*
X211162779Y-107010000D02*
X210837221Y-107010000D01*
X211162779Y-105990000D02*
X210837221Y-105990000D01*
X208010000Y-95337221D02*
X208010000Y-95662779D01*
X206990000Y-95337221D02*
X206990000Y-95662779D01*
X210162779Y-95510000D02*
X209837221Y-95510000D01*
X210162779Y-94490000D02*
X209837221Y-94490000D01*
X200740000Y-83500000D02*
X200740000Y-87360000D01*
X200740000Y-87360000D02*
X200995000Y-87360000D01*
X200740000Y-83500000D02*
X200740000Y-79640000D01*
X200740000Y-79640000D02*
X200995000Y-79640000D01*
X211260000Y-83500000D02*
X211260000Y-87360000D01*
X211260000Y-87360000D02*
X211005000Y-87360000D01*
X211260000Y-83500000D02*
X211260000Y-79640000D01*
X211260000Y-79640000D02*
X211005000Y-79640000D01*
X211005000Y-79640000D02*
X211005000Y-77825000D01*
X210162779Y-92510000D02*
X209837221Y-92510000D01*
X210162779Y-91490000D02*
X209837221Y-91490000D01*
X210162779Y-91010000D02*
X209837221Y-91010000D01*
X210162779Y-89990000D02*
X209837221Y-89990000D01*
X210162779Y-77010000D02*
X209837221Y-77010000D01*
X210162779Y-75990000D02*
X209837221Y-75990000D01*
X210162779Y-75510000D02*
X209837221Y-75510000D01*
X210162779Y-74490000D02*
X209837221Y-74490000D01*
X183740000Y-98000000D02*
X183740000Y-101860000D01*
X183740000Y-101860000D02*
X183995000Y-101860000D01*
X183740000Y-98000000D02*
X183740000Y-94140000D01*
X183740000Y-94140000D02*
X183995000Y-94140000D01*
X194260000Y-98000000D02*
X194260000Y-101860000D01*
X194260000Y-101860000D02*
X194005000Y-101860000D01*
X194260000Y-98000000D02*
X194260000Y-94140000D01*
X194260000Y-94140000D02*
X194005000Y-94140000D01*
X194005000Y-94140000D02*
X194005000Y-92325000D01*
X195330000Y-111310000D02*
X181670000Y-111310000D01*
X181670000Y-111310000D02*
X181670000Y-119990000D01*
X181670000Y-119990000D02*
X195330000Y-119990000D01*
X195330000Y-119990000D02*
X195330000Y-111310000D01*
X193350000Y-111310000D02*
X193650000Y-111310000D01*
X193650000Y-111310000D02*
X193650000Y-110860000D01*
X193650000Y-110860000D02*
X193350000Y-110860000D01*
X193350000Y-110860000D02*
X193350000Y-111310000D01*
X190850000Y-111310000D02*
X191150000Y-111310000D01*
X191150000Y-111310000D02*
X191150000Y-110860000D01*
X191150000Y-110860000D02*
X190850000Y-110860000D01*
X190850000Y-110860000D02*
X190850000Y-111310000D01*
X188350000Y-111310000D02*
X188650000Y-111310000D01*
X188650000Y-111310000D02*
X188650000Y-110860000D01*
X188650000Y-110860000D02*
X188350000Y-110860000D01*
X188350000Y-110860000D02*
X188350000Y-111310000D01*
X185850000Y-111310000D02*
X186150000Y-111310000D01*
X186150000Y-111310000D02*
X186150000Y-110860000D01*
X186150000Y-110860000D02*
X185850000Y-110860000D01*
X185850000Y-110860000D02*
X185850000Y-111310000D01*
X183350000Y-111310000D02*
X183650000Y-111310000D01*
X183650000Y-111310000D02*
X183650000Y-110860000D01*
X183650000Y-110860000D02*
X183350000Y-110860000D01*
X183350000Y-110860000D02*
X183350000Y-111310000D01*
X194610000Y-109500000D02*
X195034264Y-109800000D01*
X195034264Y-109800000D02*
X195034264Y-109200000D01*
X195034264Y-109200000D02*
X194610000Y-109500000D01*
X193162779Y-107010000D02*
X192837221Y-107010000D01*
X193162779Y-105990000D02*
X192837221Y-105990000D01*
X193162779Y-105510000D02*
X192837221Y-105510000D01*
X193162779Y-104490000D02*
X192837221Y-104490000D01*
X193162779Y-91510000D02*
X192837221Y-91510000D01*
X193162779Y-90490000D02*
X192837221Y-90490000D01*
X193162779Y-90010000D02*
X192837221Y-90010000D01*
X193162779Y-88990000D02*
X192837221Y-88990000D01*
D11*
X184166666Y-105361904D02*
X183900000Y-104980952D01*
X183709523Y-105361904D02*
X183709523Y-104561904D01*
X184014285Y-104561904D01*
X184090476Y-104600000D01*
X184128571Y-104638095D01*
X184166666Y-104714285D01*
X184166666Y-104828571D01*
X184128571Y-104904761D01*
X184090476Y-104942857D01*
X184014285Y-104980952D01*
X183709523Y-104980952D01*
X184852380Y-104561904D02*
X184700000Y-104561904D01*
X184623809Y-104600000D01*
X184585714Y-104638095D01*
X184509523Y-104752380D01*
X184471428Y-104904761D01*
X184471428Y-105209523D01*
X184509523Y-105285714D01*
X184547619Y-105323809D01*
X184623809Y-105361904D01*
X184776190Y-105361904D01*
X184852380Y-105323809D01*
X184890476Y-105285714D01*
X184928571Y-105209523D01*
X184928571Y-105019047D01*
X184890476Y-104942857D01*
X184852380Y-104904761D01*
X184776190Y-104866666D01*
X184623809Y-104866666D01*
X184547619Y-104904761D01*
X184509523Y-104942857D01*
X184471428Y-105019047D01*
X182952380Y-103166666D02*
X182476190Y-103500000D01*
X182952380Y-103738095D02*
X181952380Y-103738095D01*
X181952380Y-103357142D01*
X182000000Y-103261904D01*
X182047619Y-103214285D01*
X182142857Y-103166666D01*
X182285714Y-103166666D01*
X182380952Y-103214285D01*
X182428571Y-103261904D01*
X182476190Y-103357142D01*
X182476190Y-103738095D01*
X181952380Y-102261904D02*
X181952380Y-102738095D01*
X182428571Y-102785714D01*
X182380952Y-102738095D01*
X182333333Y-102642857D01*
X182333333Y-102404761D01*
X182380952Y-102309523D01*
X182428571Y-102261904D01*
X182523809Y-102214285D01*
X182761904Y-102214285D01*
X182857142Y-102261904D01*
X182904761Y-102309523D01*
X182952380Y-102404761D01*
X182952380Y-102642857D01*
X182904761Y-102738095D01*
X182857142Y-102785714D01*
X120452380Y-116166666D02*
X119976190Y-116500000D01*
X120452380Y-116738095D02*
X119452380Y-116738095D01*
X119452380Y-116357142D01*
X119500000Y-116261904D01*
X119547619Y-116214285D01*
X119642857Y-116166666D01*
X119785714Y-116166666D01*
X119880952Y-116214285D01*
X119928571Y-116261904D01*
X119976190Y-116357142D01*
X119976190Y-116738095D01*
X119785714Y-115309523D02*
X120452380Y-115309523D01*
X119404761Y-115547619D02*
X120119047Y-115785714D01*
X120119047Y-115166666D01*
X127952380Y-116166666D02*
X127476190Y-116500000D01*
X127952380Y-116738095D02*
X126952380Y-116738095D01*
X126952380Y-116357142D01*
X127000000Y-116261904D01*
X127047619Y-116214285D01*
X127142857Y-116166666D01*
X127285714Y-116166666D01*
X127380952Y-116214285D01*
X127428571Y-116261904D01*
X127476190Y-116357142D01*
X127476190Y-116738095D01*
X126952380Y-115833333D02*
X126952380Y-115214285D01*
X127333333Y-115547619D01*
X127333333Y-115404761D01*
X127380952Y-115309523D01*
X127428571Y-115261904D01*
X127523809Y-115214285D01*
X127761904Y-115214285D01*
X127857142Y-115261904D01*
X127904761Y-115309523D01*
X127952380Y-115404761D01*
X127952380Y-115690476D01*
X127904761Y-115785714D01*
X127857142Y-115833333D01*
X116961904Y-118952380D02*
X116961904Y-117952380D01*
X117200000Y-117952380D01*
X117342857Y-118000000D01*
X117438095Y-118095238D01*
X117485714Y-118190476D01*
X117533333Y-118380952D01*
X117533333Y-118523809D01*
X117485714Y-118714285D01*
X117438095Y-118809523D01*
X117342857Y-118904761D01*
X117200000Y-118952380D01*
X116961904Y-118952380D01*
X117914285Y-118047619D02*
X117961904Y-118000000D01*
X118057142Y-117952380D01*
X118295238Y-117952380D01*
X118390476Y-118000000D01*
X118438095Y-118047619D01*
X118485714Y-118142857D01*
X118485714Y-118238095D01*
X118438095Y-118380952D01*
X117866666Y-118952380D01*
X118485714Y-118952380D01*
X130761904Y-118952380D02*
X130761904Y-117952380D01*
X131000000Y-117952380D01*
X131142857Y-118000000D01*
X131238095Y-118095238D01*
X131285714Y-118190476D01*
X131333333Y-118380952D01*
X131333333Y-118523809D01*
X131285714Y-118714285D01*
X131238095Y-118809523D01*
X131142857Y-118904761D01*
X131000000Y-118952380D01*
X130761904Y-118952380D01*
X132285714Y-118952380D02*
X131714285Y-118952380D01*
X132000000Y-118952380D02*
X132000000Y-117952380D01*
X131904761Y-118095238D01*
X131809523Y-118190476D01*
X131714285Y-118238095D01*
X163666666Y-117952380D02*
X163666666Y-118666666D01*
X163619047Y-118809523D01*
X163523809Y-118904761D01*
X163380952Y-118952380D01*
X163285714Y-118952380D01*
X164190476Y-118952380D02*
X164380952Y-118952380D01*
X164476190Y-118904761D01*
X164523809Y-118857142D01*
X164619047Y-118714285D01*
X164666666Y-118523809D01*
X164666666Y-118142857D01*
X164619047Y-118047619D01*
X164571428Y-118000000D01*
X164476190Y-117952380D01*
X164285714Y-117952380D01*
X164190476Y-118000000D01*
X164142857Y-118047619D01*
X164095238Y-118142857D01*
X164095238Y-118380952D01*
X164142857Y-118476190D01*
X164190476Y-118523809D01*
X164285714Y-118571428D01*
X164476190Y-118571428D01*
X164571428Y-118523809D01*
X164619047Y-118476190D01*
X164666666Y-118380952D01*
X125936666Y-96952380D02*
X125936666Y-97666666D01*
X125889047Y-97809523D01*
X125793809Y-97904761D01*
X125650952Y-97952380D01*
X125555714Y-97952380D01*
X126555714Y-97380952D02*
X126460476Y-97333333D01*
X126412857Y-97285714D01*
X126365238Y-97190476D01*
X126365238Y-97142857D01*
X126412857Y-97047619D01*
X126460476Y-97000000D01*
X126555714Y-96952380D01*
X126746190Y-96952380D01*
X126841428Y-97000000D01*
X126889047Y-97047619D01*
X126936666Y-97142857D01*
X126936666Y-97190476D01*
X126889047Y-97285714D01*
X126841428Y-97333333D01*
X126746190Y-97380952D01*
X126555714Y-97380952D01*
X126460476Y-97428571D01*
X126412857Y-97476190D01*
X126365238Y-97571428D01*
X126365238Y-97761904D01*
X126412857Y-97857142D01*
X126460476Y-97904761D01*
X126555714Y-97952380D01*
X126746190Y-97952380D01*
X126841428Y-97904761D01*
X126889047Y-97857142D01*
X126936666Y-97761904D01*
X126936666Y-97571428D01*
X126889047Y-97476190D01*
X126841428Y-97428571D01*
X126746190Y-97380952D01*
X162238095Y-77952380D02*
X162238095Y-78761904D01*
X162285714Y-78857142D01*
X162333333Y-78904761D01*
X162428571Y-78952380D01*
X162619047Y-78952380D01*
X162714285Y-78904761D01*
X162761904Y-78857142D01*
X162809523Y-78761904D01*
X162809523Y-77952380D01*
X163809523Y-78952380D02*
X163238095Y-78952380D01*
X163523809Y-78952380D02*
X163523809Y-77952380D01*
X163428571Y-78095238D01*
X163333333Y-78190476D01*
X163238095Y-78238095D01*
X130738095Y-90952380D02*
X130738095Y-91761904D01*
X130785714Y-91857142D01*
X130833333Y-91904761D01*
X130928571Y-91952380D01*
X131119047Y-91952380D01*
X131214285Y-91904761D01*
X131261904Y-91857142D01*
X131309523Y-91761904D01*
X131309523Y-90952380D01*
X131833333Y-91952380D02*
X132023809Y-91952380D01*
X132119047Y-91904761D01*
X132166666Y-91857142D01*
X132261904Y-91714285D01*
X132309523Y-91523809D01*
X132309523Y-91142857D01*
X132261904Y-91047619D01*
X132214285Y-91000000D01*
X132119047Y-90952380D01*
X131928571Y-90952380D01*
X131833333Y-91000000D01*
X131785714Y-91047619D01*
X131738095Y-91142857D01*
X131738095Y-91380952D01*
X131785714Y-91476190D01*
X131833333Y-91523809D01*
X131928571Y-91571428D01*
X132119047Y-91571428D01*
X132214285Y-91523809D01*
X132261904Y-91476190D01*
X132309523Y-91380952D01*
X109666666Y-71952380D02*
X109666666Y-72666666D01*
X109619047Y-72809523D01*
X109523809Y-72904761D01*
X109380952Y-72952380D01*
X109285714Y-72952380D01*
X110047619Y-71952380D02*
X110714285Y-71952380D01*
X110285714Y-72952380D01*
X112928571Y-97833333D02*
X112928571Y-98166666D01*
X113452380Y-98166666D02*
X112452380Y-98166666D01*
X112452380Y-97690476D01*
X112928571Y-96976190D02*
X112976190Y-96833333D01*
X113023809Y-96785714D01*
X113119047Y-96738095D01*
X113261904Y-96738095D01*
X113357142Y-96785714D01*
X113404761Y-96833333D01*
X113452380Y-96928571D01*
X113452380Y-97309523D01*
X112452380Y-97309523D01*
X112452380Y-96976190D01*
X112500000Y-96880952D01*
X112547619Y-96833333D01*
X112642857Y-96785714D01*
X112738095Y-96785714D01*
X112833333Y-96833333D01*
X112880952Y-96880952D01*
X112928571Y-96976190D01*
X112928571Y-97309523D01*
X112547619Y-96357142D02*
X112500000Y-96309523D01*
X112452380Y-96214285D01*
X112452380Y-95976190D01*
X112500000Y-95880952D01*
X112547619Y-95833333D01*
X112642857Y-95785714D01*
X112738095Y-95785714D01*
X112880952Y-95833333D01*
X113452380Y-96404761D01*
X113452380Y-95785714D01*
X113357142Y-94642857D02*
X113404761Y-94690476D01*
X113452380Y-94833333D01*
X113452380Y-94928571D01*
X113404761Y-95071428D01*
X113309523Y-95166666D01*
X113214285Y-95214285D01*
X113023809Y-95261904D01*
X112880952Y-95261904D01*
X112690476Y-95214285D01*
X112595238Y-95166666D01*
X112500000Y-95071428D01*
X112452380Y-94928571D01*
X112452380Y-94833333D01*
X112500000Y-94690476D01*
X112547619Y-94642857D01*
X112547619Y-94261904D02*
X112500000Y-94214285D01*
X112452380Y-94119047D01*
X112452380Y-93880952D01*
X112500000Y-93785714D01*
X112547619Y-93738095D01*
X112642857Y-93690476D01*
X112738095Y-93690476D01*
X112880952Y-93738095D01*
X113452380Y-94309523D01*
X113452380Y-93690476D01*
X112452380Y-92833333D02*
X112452380Y-93023809D01*
X112500000Y-93119047D01*
X112547619Y-93166666D01*
X112690476Y-93261904D01*
X112880952Y-93309523D01*
X113261904Y-93309523D01*
X113357142Y-93261904D01*
X113404761Y-93214285D01*
X113452380Y-93119047D01*
X113452380Y-92928571D01*
X113404761Y-92833333D01*
X113357142Y-92785714D01*
X113261904Y-92738095D01*
X113023809Y-92738095D01*
X112928571Y-92785714D01*
X112880952Y-92833333D01*
X112833333Y-92928571D01*
X112833333Y-93119047D01*
X112880952Y-93214285D01*
X112928571Y-93261904D01*
X113023809Y-93309523D01*
X152166666Y-71452380D02*
X152166666Y-72166666D01*
X152119047Y-72309523D01*
X152023809Y-72404761D01*
X151880952Y-72452380D01*
X151785714Y-72452380D01*
X153071428Y-71452380D02*
X152880952Y-71452380D01*
X152785714Y-71500000D01*
X152738095Y-71547619D01*
X152642857Y-71690476D01*
X152595238Y-71880952D01*
X152595238Y-72261904D01*
X152642857Y-72357142D01*
X152690476Y-72404761D01*
X152785714Y-72452380D01*
X152976190Y-72452380D01*
X153071428Y-72404761D01*
X153119047Y-72357142D01*
X153166666Y-72261904D01*
X153166666Y-72023809D01*
X153119047Y-71928571D01*
X153071428Y-71880952D01*
X152976190Y-71833333D01*
X152785714Y-71833333D01*
X152690476Y-71880952D01*
X152642857Y-71928571D01*
X152595238Y-72023809D01*
X104166666Y-113652380D02*
X104166666Y-114366666D01*
X104119047Y-114509523D01*
X104023809Y-114604761D01*
X103880952Y-114652380D01*
X103785714Y-114652380D01*
X105119047Y-113652380D02*
X104642857Y-113652380D01*
X104595238Y-114128571D01*
X104642857Y-114080952D01*
X104738095Y-114033333D01*
X104976190Y-114033333D01*
X105071428Y-114080952D01*
X105119047Y-114128571D01*
X105166666Y-114223809D01*
X105166666Y-114461904D01*
X105119047Y-114557142D01*
X105071428Y-114604761D01*
X104976190Y-114652380D01*
X104738095Y-114652380D01*
X104642857Y-114604761D01*
X104595238Y-114557142D01*
X102452380Y-111166666D02*
X101976190Y-111500000D01*
X102452380Y-111738095D02*
X101452380Y-111738095D01*
X101452380Y-111357142D01*
X101500000Y-111261904D01*
X101547619Y-111214285D01*
X101642857Y-111166666D01*
X101785714Y-111166666D01*
X101880952Y-111214285D01*
X101928571Y-111261904D01*
X101976190Y-111357142D01*
X101976190Y-111738095D01*
X101547619Y-110785714D02*
X101500000Y-110738095D01*
X101452380Y-110642857D01*
X101452380Y-110404761D01*
X101500000Y-110309523D01*
X101547619Y-110261904D01*
X101642857Y-110214285D01*
X101738095Y-110214285D01*
X101880952Y-110261904D01*
X102452380Y-110833333D01*
X102452380Y-110214285D01*
X103952380Y-111166666D02*
X103476190Y-111500000D01*
X103952380Y-111738095D02*
X102952380Y-111738095D01*
X102952380Y-111357142D01*
X103000000Y-111261904D01*
X103047619Y-111214285D01*
X103142857Y-111166666D01*
X103285714Y-111166666D01*
X103380952Y-111214285D01*
X103428571Y-111261904D01*
X103476190Y-111357142D01*
X103476190Y-111738095D01*
X103952380Y-110214285D02*
X103952380Y-110785714D01*
X103952380Y-110500000D02*
X102952380Y-110500000D01*
X103095238Y-110595238D01*
X103190476Y-110690476D01*
X103238095Y-110785714D01*
X111738095Y-101452380D02*
X111738095Y-102261904D01*
X111785714Y-102357142D01*
X111833333Y-102404761D01*
X111928571Y-102452380D01*
X112119047Y-102452380D01*
X112214285Y-102404761D01*
X112261904Y-102357142D01*
X112309523Y-102261904D01*
X112309523Y-101452380D01*
X112928571Y-101880952D02*
X112833333Y-101833333D01*
X112785714Y-101785714D01*
X112738095Y-101690476D01*
X112738095Y-101642857D01*
X112785714Y-101547619D01*
X112833333Y-101500000D01*
X112928571Y-101452380D01*
X113119047Y-101452380D01*
X113214285Y-101500000D01*
X113261904Y-101547619D01*
X113309523Y-101642857D01*
X113309523Y-101690476D01*
X113261904Y-101785714D01*
X113214285Y-101833333D01*
X113119047Y-101880952D01*
X112928571Y-101880952D01*
X112833333Y-101928571D01*
X112785714Y-101976190D01*
X112738095Y-102071428D01*
X112738095Y-102261904D01*
X112785714Y-102357142D01*
X112833333Y-102404761D01*
X112928571Y-102452380D01*
X113119047Y-102452380D01*
X113214285Y-102404761D01*
X113261904Y-102357142D01*
X113309523Y-102261904D01*
X113309523Y-102071428D01*
X113261904Y-101976190D01*
X113214285Y-101928571D01*
X113119047Y-101880952D01*
X106166666Y-101952380D02*
X106166666Y-102666666D01*
X106119047Y-102809523D01*
X106023809Y-102904761D01*
X105880952Y-102952380D01*
X105785714Y-102952380D01*
X106547619Y-101952380D02*
X107166666Y-101952380D01*
X106833333Y-102333333D01*
X106976190Y-102333333D01*
X107071428Y-102380952D01*
X107119047Y-102428571D01*
X107166666Y-102523809D01*
X107166666Y-102761904D01*
X107119047Y-102857142D01*
X107071428Y-102904761D01*
X106976190Y-102952380D01*
X106690476Y-102952380D01*
X106595238Y-102904761D01*
X106547619Y-102857142D01*
X98928571Y-111333333D02*
X98928571Y-111666666D01*
X99452380Y-111666666D02*
X98452380Y-111666666D01*
X98452380Y-111190476D01*
X98928571Y-110476190D02*
X98976190Y-110333333D01*
X99023809Y-110285714D01*
X99119047Y-110238095D01*
X99261904Y-110238095D01*
X99357142Y-110285714D01*
X99404761Y-110333333D01*
X99452380Y-110428571D01*
X99452380Y-110809523D01*
X98452380Y-110809523D01*
X98452380Y-110476190D01*
X98500000Y-110380952D01*
X98547619Y-110333333D01*
X98642857Y-110285714D01*
X98738095Y-110285714D01*
X98833333Y-110333333D01*
X98880952Y-110380952D01*
X98928571Y-110476190D01*
X98928571Y-110809523D01*
X99452380Y-109285714D02*
X99452380Y-109857142D01*
X99452380Y-109571428D02*
X98452380Y-109571428D01*
X98595238Y-109666666D01*
X98690476Y-109761904D01*
X98738095Y-109857142D01*
X117357142Y-108857142D02*
X117309523Y-108904761D01*
X117166666Y-108952380D01*
X117071428Y-108952380D01*
X116928571Y-108904761D01*
X116833333Y-108809523D01*
X116785714Y-108714285D01*
X116738095Y-108523809D01*
X116738095Y-108380952D01*
X116785714Y-108190476D01*
X116833333Y-108095238D01*
X116928571Y-108000000D01*
X117071428Y-107952380D01*
X117166666Y-107952380D01*
X117309523Y-108000000D01*
X117357142Y-108047619D01*
X117738095Y-108047619D02*
X117785714Y-108000000D01*
X117880952Y-107952380D01*
X118119047Y-107952380D01*
X118214285Y-108000000D01*
X118261904Y-108047619D01*
X118309523Y-108142857D01*
X118309523Y-108238095D01*
X118261904Y-108380952D01*
X117690476Y-108952380D01*
X118309523Y-108952380D01*
X119214285Y-107952380D02*
X118738095Y-107952380D01*
X118690476Y-108428571D01*
X118738095Y-108380952D01*
X118833333Y-108333333D01*
X119071428Y-108333333D01*
X119166666Y-108380952D01*
X119214285Y-108428571D01*
X119261904Y-108523809D01*
X119261904Y-108761904D01*
X119214285Y-108857142D01*
X119166666Y-108904761D01*
X119071428Y-108952380D01*
X118833333Y-108952380D01*
X118738095Y-108904761D01*
X118690476Y-108857142D01*
X117357142Y-104357142D02*
X117309523Y-104404761D01*
X117166666Y-104452380D01*
X117071428Y-104452380D01*
X116928571Y-104404761D01*
X116833333Y-104309523D01*
X116785714Y-104214285D01*
X116738095Y-104023809D01*
X116738095Y-103880952D01*
X116785714Y-103690476D01*
X116833333Y-103595238D01*
X116928571Y-103500000D01*
X117071428Y-103452380D01*
X117166666Y-103452380D01*
X117309523Y-103500000D01*
X117357142Y-103547619D01*
X117738095Y-103547619D02*
X117785714Y-103500000D01*
X117880952Y-103452380D01*
X118119047Y-103452380D01*
X118214285Y-103500000D01*
X118261904Y-103547619D01*
X118309523Y-103642857D01*
X118309523Y-103738095D01*
X118261904Y-103880952D01*
X117690476Y-104452380D01*
X118309523Y-104452380D01*
X119166666Y-103785714D02*
X119166666Y-104452380D01*
X118928571Y-103404761D02*
X118690476Y-104119047D01*
X119309523Y-104119047D01*
X106357142Y-106857142D02*
X106309523Y-106904761D01*
X106166666Y-106952380D01*
X106071428Y-106952380D01*
X105928571Y-106904761D01*
X105833333Y-106809523D01*
X105785714Y-106714285D01*
X105738095Y-106523809D01*
X105738095Y-106380952D01*
X105785714Y-106190476D01*
X105833333Y-106095238D01*
X105928571Y-106000000D01*
X106071428Y-105952380D01*
X106166666Y-105952380D01*
X106309523Y-106000000D01*
X106357142Y-106047619D01*
X106738095Y-106047619D02*
X106785714Y-106000000D01*
X106880952Y-105952380D01*
X107119047Y-105952380D01*
X107214285Y-106000000D01*
X107261904Y-106047619D01*
X107309523Y-106142857D01*
X107309523Y-106238095D01*
X107261904Y-106380952D01*
X106690476Y-106952380D01*
X107309523Y-106952380D01*
X107642857Y-105952380D02*
X108261904Y-105952380D01*
X107928571Y-106333333D01*
X108071428Y-106333333D01*
X108166666Y-106380952D01*
X108214285Y-106428571D01*
X108261904Y-106523809D01*
X108261904Y-106761904D01*
X108214285Y-106857142D01*
X108166666Y-106904761D01*
X108071428Y-106952380D01*
X107785714Y-106952380D01*
X107690476Y-106904761D01*
X107642857Y-106857142D01*
X100857142Y-111142857D02*
X100904761Y-111190476D01*
X100952380Y-111333333D01*
X100952380Y-111428571D01*
X100904761Y-111571428D01*
X100809523Y-111666666D01*
X100714285Y-111714285D01*
X100523809Y-111761904D01*
X100380952Y-111761904D01*
X100190476Y-111714285D01*
X100095238Y-111666666D01*
X100000000Y-111571428D01*
X99952380Y-111428571D01*
X99952380Y-111333333D01*
X100000000Y-111190476D01*
X100047619Y-111142857D01*
X100047619Y-110761904D02*
X100000000Y-110714285D01*
X99952380Y-110619047D01*
X99952380Y-110380952D01*
X100000000Y-110285714D01*
X100047619Y-110238095D01*
X100142857Y-110190476D01*
X100238095Y-110190476D01*
X100380952Y-110238095D01*
X100952380Y-110809523D01*
X100952380Y-110190476D01*
X100047619Y-109809523D02*
X100000000Y-109761904D01*
X99952380Y-109666666D01*
X99952380Y-109428571D01*
X100000000Y-109333333D01*
X100047619Y-109285714D01*
X100142857Y-109238095D01*
X100238095Y-109238095D01*
X100380952Y-109285714D01*
X100952380Y-109857142D01*
X100952380Y-109238095D01*
X97857142Y-111142857D02*
X97904761Y-111190476D01*
X97952380Y-111333333D01*
X97952380Y-111428571D01*
X97904761Y-111571428D01*
X97809523Y-111666666D01*
X97714285Y-111714285D01*
X97523809Y-111761904D01*
X97380952Y-111761904D01*
X97190476Y-111714285D01*
X97095238Y-111666666D01*
X97000000Y-111571428D01*
X96952380Y-111428571D01*
X96952380Y-111333333D01*
X97000000Y-111190476D01*
X97047619Y-111142857D01*
X97047619Y-110761904D02*
X97000000Y-110714285D01*
X96952380Y-110619047D01*
X96952380Y-110380952D01*
X97000000Y-110285714D01*
X97047619Y-110238095D01*
X97142857Y-110190476D01*
X97238095Y-110190476D01*
X97380952Y-110238095D01*
X97952380Y-110809523D01*
X97952380Y-110190476D01*
X97952380Y-109238095D02*
X97952380Y-109809523D01*
X97952380Y-109523809D02*
X96952380Y-109523809D01*
X97095238Y-109619047D01*
X97190476Y-109714285D01*
X97238095Y-109809523D01*
X105357142Y-111142857D02*
X105404761Y-111190476D01*
X105452380Y-111333333D01*
X105452380Y-111428571D01*
X105404761Y-111571428D01*
X105309523Y-111666666D01*
X105214285Y-111714285D01*
X105023809Y-111761904D01*
X104880952Y-111761904D01*
X104690476Y-111714285D01*
X104595238Y-111666666D01*
X104500000Y-111571428D01*
X104452380Y-111428571D01*
X104452380Y-111333333D01*
X104500000Y-111190476D01*
X104547619Y-111142857D01*
X104547619Y-110761904D02*
X104500000Y-110714285D01*
X104452380Y-110619047D01*
X104452380Y-110380952D01*
X104500000Y-110285714D01*
X104547619Y-110238095D01*
X104642857Y-110190476D01*
X104738095Y-110190476D01*
X104880952Y-110238095D01*
X105452380Y-110809523D01*
X105452380Y-110190476D01*
X104452380Y-109571428D02*
X104452380Y-109476190D01*
X104500000Y-109380952D01*
X104547619Y-109333333D01*
X104642857Y-109285714D01*
X104833333Y-109238095D01*
X105071428Y-109238095D01*
X105261904Y-109285714D01*
X105357142Y-109333333D01*
X105404761Y-109380952D01*
X105452380Y-109476190D01*
X105452380Y-109571428D01*
X105404761Y-109666666D01*
X105357142Y-109714285D01*
X105261904Y-109761904D01*
X105071428Y-109809523D01*
X104833333Y-109809523D01*
X104642857Y-109761904D01*
X104547619Y-109714285D01*
X104500000Y-109666666D01*
X104452380Y-109571428D01*
X151738095Y-113732380D02*
X151738095Y-114541904D01*
X151785714Y-114637142D01*
X151833333Y-114684761D01*
X151928571Y-114732380D01*
X152119047Y-114732380D01*
X152214285Y-114684761D01*
X152261904Y-114637142D01*
X152309523Y-114541904D01*
X152309523Y-113732380D01*
X152690476Y-113732380D02*
X153357142Y-113732380D01*
X152928571Y-114732380D01*
X157857142Y-112357142D02*
X157809523Y-112404761D01*
X157666666Y-112452380D01*
X157571428Y-112452380D01*
X157428571Y-112404761D01*
X157333333Y-112309523D01*
X157285714Y-112214285D01*
X157238095Y-112023809D01*
X157238095Y-111880952D01*
X157285714Y-111690476D01*
X157333333Y-111595238D01*
X157428571Y-111500000D01*
X157571428Y-111452380D01*
X157666666Y-111452380D01*
X157809523Y-111500000D01*
X157857142Y-111547619D01*
X158809523Y-112452380D02*
X158238095Y-112452380D01*
X158523809Y-112452380D02*
X158523809Y-111452380D01*
X158428571Y-111595238D01*
X158333333Y-111690476D01*
X158238095Y-111738095D01*
X159285714Y-112452380D02*
X159476190Y-112452380D01*
X159571428Y-112404761D01*
X159619047Y-112357142D01*
X159714285Y-112214285D01*
X159761904Y-112023809D01*
X159761904Y-111642857D01*
X159714285Y-111547619D01*
X159666666Y-111500000D01*
X159571428Y-111452380D01*
X159380952Y-111452380D01*
X159285714Y-111500000D01*
X159238095Y-111547619D01*
X159190476Y-111642857D01*
X159190476Y-111880952D01*
X159238095Y-111976190D01*
X159285714Y-112023809D01*
X159380952Y-112071428D01*
X159571428Y-112071428D01*
X159666666Y-112023809D01*
X159714285Y-111976190D01*
X159761904Y-111880952D01*
X157857142Y-110357142D02*
X157809523Y-110404761D01*
X157666666Y-110452380D01*
X157571428Y-110452380D01*
X157428571Y-110404761D01*
X157333333Y-110309523D01*
X157285714Y-110214285D01*
X157238095Y-110023809D01*
X157238095Y-109880952D01*
X157285714Y-109690476D01*
X157333333Y-109595238D01*
X157428571Y-109500000D01*
X157571428Y-109452380D01*
X157666666Y-109452380D01*
X157809523Y-109500000D01*
X157857142Y-109547619D01*
X158809523Y-110452380D02*
X158238095Y-110452380D01*
X158523809Y-110452380D02*
X158523809Y-109452380D01*
X158428571Y-109595238D01*
X158333333Y-109690476D01*
X158238095Y-109738095D01*
X159380952Y-109880952D02*
X159285714Y-109833333D01*
X159238095Y-109785714D01*
X159190476Y-109690476D01*
X159190476Y-109642857D01*
X159238095Y-109547619D01*
X159285714Y-109500000D01*
X159380952Y-109452380D01*
X159571428Y-109452380D01*
X159666666Y-109500000D01*
X159714285Y-109547619D01*
X159761904Y-109642857D01*
X159761904Y-109690476D01*
X159714285Y-109785714D01*
X159666666Y-109833333D01*
X159571428Y-109880952D01*
X159380952Y-109880952D01*
X159285714Y-109928571D01*
X159238095Y-109976190D01*
X159190476Y-110071428D01*
X159190476Y-110261904D01*
X159238095Y-110357142D01*
X159285714Y-110404761D01*
X159380952Y-110452380D01*
X159571428Y-110452380D01*
X159666666Y-110404761D01*
X159714285Y-110357142D01*
X159761904Y-110261904D01*
X159761904Y-110071428D01*
X159714285Y-109976190D01*
X159666666Y-109928571D01*
X159571428Y-109880952D01*
X141238095Y-107952380D02*
X141238095Y-108761904D01*
X141285714Y-108857142D01*
X141333333Y-108904761D01*
X141428571Y-108952380D01*
X141619047Y-108952380D01*
X141714285Y-108904761D01*
X141761904Y-108857142D01*
X141809523Y-108761904D01*
X141809523Y-107952380D01*
X142714285Y-107952380D02*
X142523809Y-107952380D01*
X142428571Y-108000000D01*
X142380952Y-108047619D01*
X142285714Y-108190476D01*
X142238095Y-108380952D01*
X142238095Y-108761904D01*
X142285714Y-108857142D01*
X142333333Y-108904761D01*
X142428571Y-108952380D01*
X142619047Y-108952380D01*
X142714285Y-108904761D01*
X142761904Y-108857142D01*
X142809523Y-108761904D01*
X142809523Y-108523809D01*
X142761904Y-108428571D01*
X142714285Y-108380952D01*
X142619047Y-108333333D01*
X142428571Y-108333333D01*
X142333333Y-108380952D01*
X142285714Y-108428571D01*
X142238095Y-108523809D01*
X164438095Y-100252380D02*
X164438095Y-101061904D01*
X164485714Y-101157142D01*
X164533333Y-101204761D01*
X164628571Y-101252380D01*
X164819047Y-101252380D01*
X164914285Y-101204761D01*
X164961904Y-101157142D01*
X165009523Y-101061904D01*
X165009523Y-100252380D01*
X165961904Y-100252380D02*
X165485714Y-100252380D01*
X165438095Y-100728571D01*
X165485714Y-100680952D01*
X165580952Y-100633333D01*
X165819047Y-100633333D01*
X165914285Y-100680952D01*
X165961904Y-100728571D01*
X166009523Y-100823809D01*
X166009523Y-101061904D01*
X165961904Y-101157142D01*
X165914285Y-101204761D01*
X165819047Y-101252380D01*
X165580952Y-101252380D01*
X165485714Y-101204761D01*
X165438095Y-101157142D01*
X132857142Y-114142857D02*
X132904761Y-114190476D01*
X132952380Y-114333333D01*
X132952380Y-114428571D01*
X132904761Y-114571428D01*
X132809523Y-114666666D01*
X132714285Y-114714285D01*
X132523809Y-114761904D01*
X132380952Y-114761904D01*
X132190476Y-114714285D01*
X132095238Y-114666666D01*
X132000000Y-114571428D01*
X131952380Y-114428571D01*
X131952380Y-114333333D01*
X132000000Y-114190476D01*
X132047619Y-114142857D01*
X132952380Y-113190476D02*
X132952380Y-113761904D01*
X132952380Y-113476190D02*
X131952380Y-113476190D01*
X132095238Y-113571428D01*
X132190476Y-113666666D01*
X132238095Y-113761904D01*
X131952380Y-112857142D02*
X131952380Y-112190476D01*
X132952380Y-112619047D01*
X176357142Y-99642857D02*
X176404761Y-99690476D01*
X176452380Y-99833333D01*
X176452380Y-99928571D01*
X176404761Y-100071428D01*
X176309523Y-100166666D01*
X176214285Y-100214285D01*
X176023809Y-100261904D01*
X175880952Y-100261904D01*
X175690476Y-100214285D01*
X175595238Y-100166666D01*
X175500000Y-100071428D01*
X175452380Y-99928571D01*
X175452380Y-99833333D01*
X175500000Y-99690476D01*
X175547619Y-99642857D01*
X176452380Y-98690476D02*
X176452380Y-99261904D01*
X176452380Y-98976190D02*
X175452380Y-98976190D01*
X175595238Y-99071428D01*
X175690476Y-99166666D01*
X175738095Y-99261904D01*
X175452380Y-97833333D02*
X175452380Y-98023809D01*
X175500000Y-98119047D01*
X175547619Y-98166666D01*
X175690476Y-98261904D01*
X175880952Y-98309523D01*
X176261904Y-98309523D01*
X176357142Y-98261904D01*
X176404761Y-98214285D01*
X176452380Y-98119047D01*
X176452380Y-97928571D01*
X176404761Y-97833333D01*
X176357142Y-97785714D01*
X176261904Y-97738095D01*
X176023809Y-97738095D01*
X175928571Y-97785714D01*
X175880952Y-97833333D01*
X175833333Y-97928571D01*
X175833333Y-98119047D01*
X175880952Y-98214285D01*
X175928571Y-98261904D01*
X176023809Y-98309523D01*
X138357142Y-113287142D02*
X138309523Y-113334761D01*
X138166666Y-113382380D01*
X138071428Y-113382380D01*
X137928571Y-113334761D01*
X137833333Y-113239523D01*
X137785714Y-113144285D01*
X137738095Y-112953809D01*
X137738095Y-112810952D01*
X137785714Y-112620476D01*
X137833333Y-112525238D01*
X137928571Y-112430000D01*
X138071428Y-112382380D01*
X138166666Y-112382380D01*
X138309523Y-112430000D01*
X138357142Y-112477619D01*
X139309523Y-113382380D02*
X138738095Y-113382380D01*
X139023809Y-113382380D02*
X139023809Y-112382380D01*
X138928571Y-112525238D01*
X138833333Y-112620476D01*
X138738095Y-112668095D01*
X140214285Y-112382380D02*
X139738095Y-112382380D01*
X139690476Y-112858571D01*
X139738095Y-112810952D01*
X139833333Y-112763333D01*
X140071428Y-112763333D01*
X140166666Y-112810952D01*
X140214285Y-112858571D01*
X140261904Y-112953809D01*
X140261904Y-113191904D01*
X140214285Y-113287142D01*
X140166666Y-113334761D01*
X140071428Y-113382380D01*
X139833333Y-113382380D01*
X139738095Y-113334761D01*
X139690476Y-113287142D01*
X167357142Y-96357142D02*
X167309523Y-96404761D01*
X167166666Y-96452380D01*
X167071428Y-96452380D01*
X166928571Y-96404761D01*
X166833333Y-96309523D01*
X166785714Y-96214285D01*
X166738095Y-96023809D01*
X166738095Y-95880952D01*
X166785714Y-95690476D01*
X166833333Y-95595238D01*
X166928571Y-95500000D01*
X167071428Y-95452380D01*
X167166666Y-95452380D01*
X167309523Y-95500000D01*
X167357142Y-95547619D01*
X168309523Y-96452380D02*
X167738095Y-96452380D01*
X168023809Y-96452380D02*
X168023809Y-95452380D01*
X167928571Y-95595238D01*
X167833333Y-95690476D01*
X167738095Y-95738095D01*
X169166666Y-95785714D02*
X169166666Y-96452380D01*
X168928571Y-95404761D02*
X168690476Y-96119047D01*
X169309523Y-96119047D01*
X212238095Y-98452380D02*
X212238095Y-99261904D01*
X212285714Y-99357142D01*
X212333333Y-99404761D01*
X212428571Y-99452380D01*
X212619047Y-99452380D01*
X212714285Y-99404761D01*
X212761904Y-99357142D01*
X212809523Y-99261904D01*
X212809523Y-98452380D01*
X213714285Y-98785714D02*
X213714285Y-99452380D01*
X213476190Y-98404761D02*
X213238095Y-99119047D01*
X213857142Y-99119047D01*
X211866666Y-112052380D02*
X211866666Y-112766666D01*
X211819047Y-112909523D01*
X211723809Y-113004761D01*
X211580952Y-113052380D01*
X211485714Y-113052380D01*
X212771428Y-112385714D02*
X212771428Y-113052380D01*
X212533333Y-112004761D02*
X212295238Y-112719047D01*
X212914285Y-112719047D01*
X206357142Y-93142857D02*
X206404761Y-93190476D01*
X206452380Y-93333333D01*
X206452380Y-93428571D01*
X206404761Y-93571428D01*
X206309523Y-93666666D01*
X206214285Y-93714285D01*
X206023809Y-93761904D01*
X205880952Y-93761904D01*
X205690476Y-93714285D01*
X205595238Y-93666666D01*
X205500000Y-93571428D01*
X205452380Y-93428571D01*
X205452380Y-93333333D01*
X205500000Y-93190476D01*
X205547619Y-93142857D01*
X206452380Y-92190476D02*
X206452380Y-92761904D01*
X206452380Y-92476190D02*
X205452380Y-92476190D01*
X205595238Y-92571428D01*
X205690476Y-92666666D01*
X205738095Y-92761904D01*
X205452380Y-91857142D02*
X205452380Y-91238095D01*
X205833333Y-91571428D01*
X205833333Y-91428571D01*
X205880952Y-91333333D01*
X205928571Y-91285714D01*
X206023809Y-91238095D01*
X206261904Y-91238095D01*
X206357142Y-91285714D01*
X206404761Y-91333333D01*
X206452380Y-91428571D01*
X206452380Y-91714285D01*
X206404761Y-91809523D01*
X206357142Y-91857142D01*
X212857142Y-96857142D02*
X212809523Y-96904761D01*
X212666666Y-96952380D01*
X212571428Y-96952380D01*
X212428571Y-96904761D01*
X212333333Y-96809523D01*
X212285714Y-96714285D01*
X212238095Y-96523809D01*
X212238095Y-96380952D01*
X212285714Y-96190476D01*
X212333333Y-96095238D01*
X212428571Y-96000000D01*
X212571428Y-95952380D01*
X212666666Y-95952380D01*
X212809523Y-96000000D01*
X212857142Y-96047619D01*
X213809523Y-96952380D02*
X213238095Y-96952380D01*
X213523809Y-96952380D02*
X213523809Y-95952380D01*
X213428571Y-96095238D01*
X213333333Y-96190476D01*
X213238095Y-96238095D01*
X214190476Y-96047619D02*
X214238095Y-96000000D01*
X214333333Y-95952380D01*
X214571428Y-95952380D01*
X214666666Y-96000000D01*
X214714285Y-96047619D01*
X214761904Y-96142857D01*
X214761904Y-96238095D01*
X214714285Y-96380952D01*
X214142857Y-96952380D01*
X214761904Y-96952380D01*
X213357142Y-106857142D02*
X213309523Y-106904761D01*
X213166666Y-106952380D01*
X213071428Y-106952380D01*
X212928571Y-106904761D01*
X212833333Y-106809523D01*
X212785714Y-106714285D01*
X212738095Y-106523809D01*
X212738095Y-106380952D01*
X212785714Y-106190476D01*
X212833333Y-106095238D01*
X212928571Y-106000000D01*
X213071428Y-105952380D01*
X213166666Y-105952380D01*
X213309523Y-106000000D01*
X213357142Y-106047619D01*
X214309523Y-106952380D02*
X213738095Y-106952380D01*
X214023809Y-106952380D02*
X214023809Y-105952380D01*
X213928571Y-106095238D01*
X213833333Y-106190476D01*
X213738095Y-106238095D01*
X215261904Y-106952380D02*
X214690476Y-106952380D01*
X214976190Y-106952380D02*
X214976190Y-105952380D01*
X214880952Y-106095238D01*
X214785714Y-106190476D01*
X214690476Y-106238095D01*
X207857142Y-93142857D02*
X207904761Y-93190476D01*
X207952380Y-93333333D01*
X207952380Y-93428571D01*
X207904761Y-93571428D01*
X207809523Y-93666666D01*
X207714285Y-93714285D01*
X207523809Y-93761904D01*
X207380952Y-93761904D01*
X207190476Y-93714285D01*
X207095238Y-93666666D01*
X207000000Y-93571428D01*
X206952380Y-93428571D01*
X206952380Y-93333333D01*
X207000000Y-93190476D01*
X207047619Y-93142857D01*
X207952380Y-92190476D02*
X207952380Y-92761904D01*
X207952380Y-92476190D02*
X206952380Y-92476190D01*
X207095238Y-92571428D01*
X207190476Y-92666666D01*
X207238095Y-92761904D01*
X206952380Y-91571428D02*
X206952380Y-91476190D01*
X207000000Y-91380952D01*
X207047619Y-91333333D01*
X207142857Y-91285714D01*
X207333333Y-91238095D01*
X207571428Y-91238095D01*
X207761904Y-91285714D01*
X207857142Y-91333333D01*
X207904761Y-91380952D01*
X207952380Y-91476190D01*
X207952380Y-91571428D01*
X207904761Y-91666666D01*
X207857142Y-91714285D01*
X207761904Y-91761904D01*
X207571428Y-91809523D01*
X207333333Y-91809523D01*
X207142857Y-91761904D01*
X207047619Y-91714285D01*
X207000000Y-91666666D01*
X206952380Y-91571428D01*
X213033333Y-95357142D02*
X212985714Y-95404761D01*
X212842857Y-95452380D01*
X212747619Y-95452380D01*
X212604761Y-95404761D01*
X212509523Y-95309523D01*
X212461904Y-95214285D01*
X212414285Y-95023809D01*
X212414285Y-94880952D01*
X212461904Y-94690476D01*
X212509523Y-94595238D01*
X212604761Y-94500000D01*
X212747619Y-94452380D01*
X212842857Y-94452380D01*
X212985714Y-94500000D01*
X213033333Y-94547619D01*
X213509523Y-95452380D02*
X213700000Y-95452380D01*
X213795238Y-95404761D01*
X213842857Y-95357142D01*
X213938095Y-95214285D01*
X213985714Y-95023809D01*
X213985714Y-94642857D01*
X213938095Y-94547619D01*
X213890476Y-94500000D01*
X213795238Y-94452380D01*
X213604761Y-94452380D01*
X213509523Y-94500000D01*
X213461904Y-94547619D01*
X213414285Y-94642857D01*
X213414285Y-94880952D01*
X213461904Y-94976190D01*
X213509523Y-95023809D01*
X213604761Y-95071428D01*
X213795238Y-95071428D01*
X213890476Y-95023809D01*
X213938095Y-94976190D01*
X213985714Y-94880952D01*
X211738095Y-79452380D02*
X211738095Y-80261904D01*
X211785714Y-80357142D01*
X211833333Y-80404761D01*
X211928571Y-80452380D01*
X212119047Y-80452380D01*
X212214285Y-80404761D01*
X212261904Y-80357142D01*
X212309523Y-80261904D01*
X212309523Y-79452380D01*
X212690476Y-79452380D02*
X213309523Y-79452380D01*
X212976190Y-79833333D01*
X213119047Y-79833333D01*
X213214285Y-79880952D01*
X213261904Y-79928571D01*
X213309523Y-80023809D01*
X213309523Y-80261904D01*
X213261904Y-80357142D01*
X213214285Y-80404761D01*
X213119047Y-80452380D01*
X212833333Y-80452380D01*
X212738095Y-80404761D01*
X212690476Y-80357142D01*
X212333333Y-92357142D02*
X212285714Y-92404761D01*
X212142857Y-92452380D01*
X212047619Y-92452380D01*
X211904761Y-92404761D01*
X211809523Y-92309523D01*
X211761904Y-92214285D01*
X211714285Y-92023809D01*
X211714285Y-91880952D01*
X211761904Y-91690476D01*
X211809523Y-91595238D01*
X211904761Y-91500000D01*
X212047619Y-91452380D01*
X212142857Y-91452380D01*
X212285714Y-91500000D01*
X212333333Y-91547619D01*
X212904761Y-91880952D02*
X212809523Y-91833333D01*
X212761904Y-91785714D01*
X212714285Y-91690476D01*
X212714285Y-91642857D01*
X212761904Y-91547619D01*
X212809523Y-91500000D01*
X212904761Y-91452380D01*
X213095238Y-91452380D01*
X213190476Y-91500000D01*
X213238095Y-91547619D01*
X213285714Y-91642857D01*
X213285714Y-91690476D01*
X213238095Y-91785714D01*
X213190476Y-91833333D01*
X213095238Y-91880952D01*
X212904761Y-91880952D01*
X212809523Y-91928571D01*
X212761904Y-91976190D01*
X212714285Y-92071428D01*
X212714285Y-92261904D01*
X212761904Y-92357142D01*
X212809523Y-92404761D01*
X212904761Y-92452380D01*
X213095238Y-92452380D01*
X213190476Y-92404761D01*
X213238095Y-92357142D01*
X213285714Y-92261904D01*
X213285714Y-92071428D01*
X213238095Y-91976190D01*
X213190476Y-91928571D01*
X213095238Y-91880952D01*
X212333333Y-90857142D02*
X212285714Y-90904761D01*
X212142857Y-90952380D01*
X212047619Y-90952380D01*
X211904761Y-90904761D01*
X211809523Y-90809523D01*
X211761904Y-90714285D01*
X211714285Y-90523809D01*
X211714285Y-90380952D01*
X211761904Y-90190476D01*
X211809523Y-90095238D01*
X211904761Y-90000000D01*
X212047619Y-89952380D01*
X212142857Y-89952380D01*
X212285714Y-90000000D01*
X212333333Y-90047619D01*
X212666666Y-89952380D02*
X213333333Y-89952380D01*
X212904761Y-90952380D01*
X207333333Y-76857142D02*
X207285714Y-76904761D01*
X207142857Y-76952380D01*
X207047619Y-76952380D01*
X206904761Y-76904761D01*
X206809523Y-76809523D01*
X206761904Y-76714285D01*
X206714285Y-76523809D01*
X206714285Y-76380952D01*
X206761904Y-76190476D01*
X206809523Y-76095238D01*
X206904761Y-76000000D01*
X207047619Y-75952380D01*
X207142857Y-75952380D01*
X207285714Y-76000000D01*
X207333333Y-76047619D01*
X208190476Y-75952380D02*
X208000000Y-75952380D01*
X207904761Y-76000000D01*
X207857142Y-76047619D01*
X207761904Y-76190476D01*
X207714285Y-76380952D01*
X207714285Y-76761904D01*
X207761904Y-76857142D01*
X207809523Y-76904761D01*
X207904761Y-76952380D01*
X208095238Y-76952380D01*
X208190476Y-76904761D01*
X208238095Y-76857142D01*
X208285714Y-76761904D01*
X208285714Y-76523809D01*
X208238095Y-76428571D01*
X208190476Y-76380952D01*
X208095238Y-76333333D01*
X207904761Y-76333333D01*
X207809523Y-76380952D01*
X207761904Y-76428571D01*
X207714285Y-76523809D01*
X207333333Y-75357142D02*
X207285714Y-75404761D01*
X207142857Y-75452380D01*
X207047619Y-75452380D01*
X206904761Y-75404761D01*
X206809523Y-75309523D01*
X206761904Y-75214285D01*
X206714285Y-75023809D01*
X206714285Y-74880952D01*
X206761904Y-74690476D01*
X206809523Y-74595238D01*
X206904761Y-74500000D01*
X207047619Y-74452380D01*
X207142857Y-74452380D01*
X207285714Y-74500000D01*
X207333333Y-74547619D01*
X208238095Y-74452380D02*
X207761904Y-74452380D01*
X207714285Y-74928571D01*
X207761904Y-74880952D01*
X207857142Y-74833333D01*
X208095238Y-74833333D01*
X208190476Y-74880952D01*
X208238095Y-74928571D01*
X208285714Y-75023809D01*
X208285714Y-75261904D01*
X208238095Y-75357142D01*
X208190476Y-75404761D01*
X208095238Y-75452380D01*
X207857142Y-75452380D01*
X207761904Y-75404761D01*
X207714285Y-75357142D01*
X194738095Y-93952380D02*
X194738095Y-94761904D01*
X194785714Y-94857142D01*
X194833333Y-94904761D01*
X194928571Y-94952380D01*
X195119047Y-94952380D01*
X195214285Y-94904761D01*
X195261904Y-94857142D01*
X195309523Y-94761904D01*
X195309523Y-93952380D01*
X195738095Y-94047619D02*
X195785714Y-94000000D01*
X195880952Y-93952380D01*
X196119047Y-93952380D01*
X196214285Y-94000000D01*
X196261904Y-94047619D01*
X196309523Y-94142857D01*
X196309523Y-94238095D01*
X196261904Y-94380952D01*
X195690476Y-94952380D01*
X196309523Y-94952380D01*
X196466666Y-112052380D02*
X196466666Y-112766666D01*
X196419047Y-112909523D01*
X196323809Y-113004761D01*
X196180952Y-113052380D01*
X196085714Y-113052380D01*
X197466666Y-113052380D02*
X196895238Y-113052380D01*
X197180952Y-113052380D02*
X197180952Y-112052380D01*
X197085714Y-112195238D01*
X196990476Y-112290476D01*
X196895238Y-112338095D01*
X195333333Y-106857142D02*
X195285714Y-106904761D01*
X195142857Y-106952380D01*
X195047619Y-106952380D01*
X194904761Y-106904761D01*
X194809523Y-106809523D01*
X194761904Y-106714285D01*
X194714285Y-106523809D01*
X194714285Y-106380952D01*
X194761904Y-106190476D01*
X194809523Y-106095238D01*
X194904761Y-106000000D01*
X195047619Y-105952380D01*
X195142857Y-105952380D01*
X195285714Y-106000000D01*
X195333333Y-106047619D01*
X196190476Y-106285714D02*
X196190476Y-106952380D01*
X195952380Y-105904761D02*
X195714285Y-106619047D01*
X196333333Y-106619047D01*
X195333333Y-105357142D02*
X195285714Y-105404761D01*
X195142857Y-105452380D01*
X195047619Y-105452380D01*
X194904761Y-105404761D01*
X194809523Y-105309523D01*
X194761904Y-105214285D01*
X194714285Y-105023809D01*
X194714285Y-104880952D01*
X194761904Y-104690476D01*
X194809523Y-104595238D01*
X194904761Y-104500000D01*
X195047619Y-104452380D01*
X195142857Y-104452380D01*
X195285714Y-104500000D01*
X195333333Y-104547619D01*
X195666666Y-104452380D02*
X196285714Y-104452380D01*
X195952380Y-104833333D01*
X196095238Y-104833333D01*
X196190476Y-104880952D01*
X196238095Y-104928571D01*
X196285714Y-105023809D01*
X196285714Y-105261904D01*
X196238095Y-105357142D01*
X196190476Y-105404761D01*
X196095238Y-105452380D01*
X195809523Y-105452380D01*
X195714285Y-105404761D01*
X195666666Y-105357142D01*
X190333333Y-91357142D02*
X190285714Y-91404761D01*
X190142857Y-91452380D01*
X190047619Y-91452380D01*
X189904761Y-91404761D01*
X189809523Y-91309523D01*
X189761904Y-91214285D01*
X189714285Y-91023809D01*
X189714285Y-90880952D01*
X189761904Y-90690476D01*
X189809523Y-90595238D01*
X189904761Y-90500000D01*
X190047619Y-90452380D01*
X190142857Y-90452380D01*
X190285714Y-90500000D01*
X190333333Y-90547619D01*
X190714285Y-90547619D02*
X190761904Y-90500000D01*
X190857142Y-90452380D01*
X191095238Y-90452380D01*
X191190476Y-90500000D01*
X191238095Y-90547619D01*
X191285714Y-90642857D01*
X191285714Y-90738095D01*
X191238095Y-90880952D01*
X190666666Y-91452380D01*
X191285714Y-91452380D01*
X190333333Y-89857142D02*
X190285714Y-89904761D01*
X190142857Y-89952380D01*
X190047619Y-89952380D01*
X189904761Y-89904761D01*
X189809523Y-89809523D01*
X189761904Y-89714285D01*
X189714285Y-89523809D01*
X189714285Y-89380952D01*
X189761904Y-89190476D01*
X189809523Y-89095238D01*
X189904761Y-89000000D01*
X190047619Y-88952380D01*
X190142857Y-88952380D01*
X190285714Y-89000000D01*
X190333333Y-89047619D01*
X191285714Y-89952380D02*
X190714285Y-89952380D01*
X191000000Y-89952380D02*
X191000000Y-88952380D01*
X190904761Y-89095238D01*
X190809523Y-89190476D01*
X190714285Y-89238095D01*
M02*
