G04 #@! TF.GenerationSoftware,KiCad,Pcbnew,5.99.0-unknown-3cd1208~100~ubuntu18.04.1*
G04 #@! TF.CreationDate,2019-09-26T13:34:42+08:00*
G04 #@! TF.ProjectId,external_camera,65787465-726e-4616-9c5f-63616d657261,rev?*
G04 #@! TF.SameCoordinates,Original*
G04 #@! TF.FileFunction,Soldermask,Bot*
G04 #@! TF.FilePolarity,Negative*
%FSLAX46Y46*%
G04 Gerber Fmt 4.6, Leading zero omitted, Abs format (unit mm)*
G04 Created by KiCad (PCBNEW 5.99.0-unknown-3cd1208~100~ubuntu18.04.1) date 2019-09-26 13:34:42*
%MOMM*%
%LPD*%
G04 APERTURE LIST*
%ADD10C,0.100000*%
G04 APERTURE END LIST*
D10*
G36*
X45062163Y-98699001D02*
G01*
X45113823Y-98699001D01*
X45173518Y-98709527D01*
X45228934Y-98714765D01*
X45280515Y-98728393D01*
X45338010Y-98738531D01*
X45388660Y-98756966D01*
X45435774Y-98769414D01*
X45490780Y-98794135D01*
X45551926Y-98816390D01*
X45592766Y-98839969D01*
X45630911Y-98857112D01*
X45686971Y-98894358D01*
X45749073Y-98930213D01*
X45780019Y-98956179D01*
X45809100Y-98975501D01*
X45863480Y-99026211D01*
X45923460Y-99076540D01*
X45945074Y-99102299D01*
X45965564Y-99121406D01*
X46015316Y-99186010D01*
X46069787Y-99250927D01*
X46083202Y-99274163D01*
X46096093Y-99290902D01*
X46138128Y-99369298D01*
X46183610Y-99448074D01*
X46190462Y-99466899D01*
X46197190Y-99479447D01*
X46228443Y-99571252D01*
X46261469Y-99661990D01*
X46263764Y-99675007D01*
X46266133Y-99681965D01*
X46283667Y-99787884D01*
X46300999Y-99886177D01*
X46300999Y-100113823D01*
X46294489Y-100150743D01*
X46293972Y-100171903D01*
X46276550Y-100252481D01*
X46261469Y-100338010D01*
X46253066Y-100361098D01*
X46249086Y-100379504D01*
X46215393Y-100464603D01*
X46183610Y-100551926D01*
X46174729Y-100567308D01*
X46170332Y-100578414D01*
X46118836Y-100664118D01*
X46069787Y-100749073D01*
X46062752Y-100757457D01*
X46060148Y-100761791D01*
X45986706Y-100848086D01*
X45923460Y-100923460D01*
X45854806Y-100981067D01*
X45758089Y-101062799D01*
X45755713Y-101064215D01*
X45749073Y-101069787D01*
X45663103Y-101119422D01*
X45574325Y-101172344D01*
X45565341Y-101175865D01*
X45551926Y-101183610D01*
X45462837Y-101216036D01*
X45375137Y-101250405D01*
X45358962Y-101253843D01*
X45338010Y-101261469D01*
X45250446Y-101276909D01*
X45165879Y-101294884D01*
X45142476Y-101295947D01*
X45113823Y-101300999D01*
X45031221Y-101300999D01*
X44952166Y-101304589D01*
X44922059Y-101300999D01*
X44886177Y-101300999D01*
X44811223Y-101287783D01*
X44739733Y-101279258D01*
X44704000Y-101268876D01*
X44661990Y-101261469D01*
X44596662Y-101237691D01*
X44534288Y-101219570D01*
X44494505Y-101200509D01*
X44448074Y-101183610D01*
X44393655Y-101152191D01*
X44341358Y-101127135D01*
X44299543Y-101097856D01*
X44250927Y-101069787D01*
X44207915Y-101033696D01*
X44166108Y-101004422D01*
X44124689Y-100963862D01*
X44076540Y-100923460D01*
X44044776Y-100885604D01*
X44013260Y-100854742D01*
X43974897Y-100802325D01*
X43930213Y-100749073D01*
X43908886Y-100712133D01*
X43886907Y-100682103D01*
X43854446Y-100617840D01*
X43816390Y-100551926D01*
X43804117Y-100518206D01*
X43790450Y-100491150D01*
X43766789Y-100415648D01*
X43738531Y-100338010D01*
X43733478Y-100309355D01*
X43726474Y-100287004D01*
X43714444Y-100201406D01*
X43699001Y-100113823D01*
X43699001Y-100091521D01*
X43696700Y-100075148D01*
X43699001Y-99980998D01*
X43699001Y-99886177D01*
X43701691Y-99870920D01*
X43701927Y-99861275D01*
X43721288Y-99759779D01*
X43738531Y-99661990D01*
X43741497Y-99653842D01*
X43742014Y-99651130D01*
X43785709Y-99532369D01*
X43816390Y-99448074D01*
X43865544Y-99362937D01*
X43921557Y-99264337D01*
X43924740Y-99260406D01*
X43930213Y-99250927D01*
X43993280Y-99175766D01*
X44056192Y-99098076D01*
X44065122Y-99090148D01*
X44076540Y-99076540D01*
X44147724Y-99016810D01*
X44216173Y-98956038D01*
X44232111Y-98946001D01*
X44250927Y-98930213D01*
X44326133Y-98886793D01*
X44397201Y-98842039D01*
X44420914Y-98832071D01*
X44448074Y-98816390D01*
X44523682Y-98788871D01*
X44594423Y-98759134D01*
X44626151Y-98751575D01*
X44661990Y-98738531D01*
X44734784Y-98725696D01*
X44802531Y-98709556D01*
X44841947Y-98706800D01*
X44886177Y-98699001D01*
X44953484Y-98699001D01*
X45015953Y-98694633D01*
X45062163Y-98699001D01*
X45062163Y-98699001D01*
G37*
G36*
X165062163Y-98699001D02*
G01*
X165113823Y-98699001D01*
X165173518Y-98709527D01*
X165228934Y-98714765D01*
X165280515Y-98728393D01*
X165338010Y-98738531D01*
X165388660Y-98756966D01*
X165435774Y-98769414D01*
X165490780Y-98794135D01*
X165551926Y-98816390D01*
X165592766Y-98839969D01*
X165630911Y-98857112D01*
X165686971Y-98894358D01*
X165749073Y-98930213D01*
X165780019Y-98956179D01*
X165809100Y-98975501D01*
X165863480Y-99026211D01*
X165923460Y-99076540D01*
X165945074Y-99102299D01*
X165965564Y-99121406D01*
X166015316Y-99186010D01*
X166069787Y-99250927D01*
X166083202Y-99274163D01*
X166096093Y-99290902D01*
X166138128Y-99369298D01*
X166183610Y-99448074D01*
X166190462Y-99466899D01*
X166197190Y-99479447D01*
X166228443Y-99571252D01*
X166261469Y-99661990D01*
X166263764Y-99675007D01*
X166266133Y-99681965D01*
X166283667Y-99787884D01*
X166300999Y-99886177D01*
X166300999Y-100113823D01*
X166294489Y-100150743D01*
X166293972Y-100171903D01*
X166276550Y-100252481D01*
X166261469Y-100338010D01*
X166253066Y-100361098D01*
X166249086Y-100379504D01*
X166215393Y-100464603D01*
X166183610Y-100551926D01*
X166174729Y-100567308D01*
X166170332Y-100578414D01*
X166118836Y-100664118D01*
X166069787Y-100749073D01*
X166062752Y-100757457D01*
X166060148Y-100761791D01*
X165986706Y-100848086D01*
X165923460Y-100923460D01*
X165854806Y-100981067D01*
X165758089Y-101062799D01*
X165755713Y-101064215D01*
X165749073Y-101069787D01*
X165663103Y-101119422D01*
X165574325Y-101172344D01*
X165565341Y-101175865D01*
X165551926Y-101183610D01*
X165462837Y-101216036D01*
X165375137Y-101250405D01*
X165358962Y-101253843D01*
X165338010Y-101261469D01*
X165250446Y-101276909D01*
X165165879Y-101294884D01*
X165142476Y-101295947D01*
X165113823Y-101300999D01*
X165031221Y-101300999D01*
X164952166Y-101304589D01*
X164922059Y-101300999D01*
X164886177Y-101300999D01*
X164811223Y-101287783D01*
X164739733Y-101279258D01*
X164704000Y-101268876D01*
X164661990Y-101261469D01*
X164596662Y-101237691D01*
X164534288Y-101219570D01*
X164494505Y-101200509D01*
X164448074Y-101183610D01*
X164393655Y-101152191D01*
X164341358Y-101127135D01*
X164299543Y-101097856D01*
X164250927Y-101069787D01*
X164207915Y-101033696D01*
X164166108Y-101004422D01*
X164124689Y-100963862D01*
X164076540Y-100923460D01*
X164044776Y-100885604D01*
X164013260Y-100854742D01*
X163974897Y-100802325D01*
X163930213Y-100749073D01*
X163908886Y-100712133D01*
X163886907Y-100682103D01*
X163854446Y-100617840D01*
X163816390Y-100551926D01*
X163804117Y-100518206D01*
X163790450Y-100491150D01*
X163766789Y-100415648D01*
X163738531Y-100338010D01*
X163733478Y-100309355D01*
X163726474Y-100287004D01*
X163714444Y-100201406D01*
X163699001Y-100113823D01*
X163699001Y-100091521D01*
X163696700Y-100075148D01*
X163699001Y-99980998D01*
X163699001Y-99886177D01*
X163701691Y-99870920D01*
X163701927Y-99861275D01*
X163721288Y-99759779D01*
X163738531Y-99661990D01*
X163741497Y-99653842D01*
X163742014Y-99651130D01*
X163785709Y-99532369D01*
X163816390Y-99448074D01*
X163865544Y-99362937D01*
X163921557Y-99264337D01*
X163924740Y-99260406D01*
X163930213Y-99250927D01*
X163993280Y-99175766D01*
X164056192Y-99098076D01*
X164065122Y-99090148D01*
X164076540Y-99076540D01*
X164147724Y-99016810D01*
X164216173Y-98956038D01*
X164232111Y-98946001D01*
X164250927Y-98930213D01*
X164326133Y-98886793D01*
X164397201Y-98842039D01*
X164420914Y-98832071D01*
X164448074Y-98816390D01*
X164523682Y-98788871D01*
X164594423Y-98759134D01*
X164626151Y-98751575D01*
X164661990Y-98738531D01*
X164734784Y-98725696D01*
X164802531Y-98709556D01*
X164841947Y-98706800D01*
X164886177Y-98699001D01*
X164953484Y-98699001D01*
X165015953Y-98694633D01*
X165062163Y-98699001D01*
X165062163Y-98699001D01*
G37*
G36*
X98369899Y-97501959D02*
G01*
X98386769Y-97513231D01*
X98398041Y-97530101D01*
X98404448Y-97562312D01*
X98404448Y-99537688D01*
X98401999Y-99550000D01*
X98398041Y-99569899D01*
X98386769Y-99586769D01*
X98369899Y-99598041D01*
X98350000Y-99601999D01*
X98337688Y-99604448D01*
X97062312Y-99604448D01*
X97030101Y-99598041D01*
X97013231Y-99586769D01*
X97001959Y-99569899D01*
X96995552Y-99537688D01*
X96995552Y-97562312D01*
X97001959Y-97530101D01*
X97013231Y-97513231D01*
X97030101Y-97501959D01*
X97062312Y-97495552D01*
X98337688Y-97495552D01*
X98369899Y-97501959D01*
X98369899Y-97501959D01*
G37*
G36*
X95519899Y-83551959D02*
G01*
X95536769Y-83563231D01*
X95548041Y-83580101D01*
X95554448Y-83612312D01*
X95554448Y-83887688D01*
X95548041Y-83919900D01*
X95540921Y-83930555D01*
X95519875Y-83997770D01*
X95540921Y-84069445D01*
X95548041Y-84080100D01*
X95554448Y-84112312D01*
X95554448Y-84387688D01*
X95548041Y-84419900D01*
X95540921Y-84430555D01*
X95519875Y-84497770D01*
X95540921Y-84569445D01*
X95548041Y-84580100D01*
X95554448Y-84612312D01*
X95554448Y-84887688D01*
X95548041Y-84919900D01*
X95540921Y-84930555D01*
X95519875Y-84997770D01*
X95540921Y-85069445D01*
X95548041Y-85080100D01*
X95554448Y-85112312D01*
X95554448Y-85387688D01*
X95548041Y-85419900D01*
X95540921Y-85430555D01*
X95519875Y-85497770D01*
X95540921Y-85569445D01*
X95548041Y-85580100D01*
X95554448Y-85612312D01*
X95554448Y-85887688D01*
X95548041Y-85919900D01*
X95540921Y-85930555D01*
X95519875Y-85997770D01*
X95540921Y-86069445D01*
X95548041Y-86080100D01*
X95554448Y-86112312D01*
X95554448Y-86387688D01*
X95548041Y-86419900D01*
X95540921Y-86430555D01*
X95519875Y-86497770D01*
X95540921Y-86569445D01*
X95548041Y-86580100D01*
X95554448Y-86612312D01*
X95554448Y-86887688D01*
X95548041Y-86919900D01*
X95540921Y-86930555D01*
X95519875Y-86997770D01*
X95540921Y-87069445D01*
X95548041Y-87080100D01*
X95554448Y-87112312D01*
X95554448Y-87387688D01*
X95548041Y-87419900D01*
X95540921Y-87430555D01*
X95519875Y-87497770D01*
X95540921Y-87569445D01*
X95548041Y-87580100D01*
X95554448Y-87612312D01*
X95554448Y-87887688D01*
X95548041Y-87919900D01*
X95540921Y-87930555D01*
X95519875Y-87997770D01*
X95540921Y-88069445D01*
X95548041Y-88080100D01*
X95554448Y-88112312D01*
X95554448Y-88387688D01*
X95548041Y-88419900D01*
X95540921Y-88430555D01*
X95519875Y-88497770D01*
X95540921Y-88569445D01*
X95548041Y-88580100D01*
X95554448Y-88612312D01*
X95554448Y-88887688D01*
X95548041Y-88919900D01*
X95540921Y-88930555D01*
X95519875Y-88997770D01*
X95540921Y-89069445D01*
X95548041Y-89080100D01*
X95554448Y-89112312D01*
X95554448Y-89387688D01*
X95548041Y-89419900D01*
X95540921Y-89430555D01*
X95519875Y-89497770D01*
X95540921Y-89569445D01*
X95548041Y-89580100D01*
X95554448Y-89612312D01*
X95554448Y-89887688D01*
X95548041Y-89919900D01*
X95540921Y-89930555D01*
X95519875Y-89997770D01*
X95540921Y-90069445D01*
X95548041Y-90080100D01*
X95554448Y-90112312D01*
X95554448Y-90387688D01*
X95548041Y-90419900D01*
X95540921Y-90430555D01*
X95519875Y-90497770D01*
X95540921Y-90569445D01*
X95548041Y-90580100D01*
X95554448Y-90612312D01*
X95554448Y-90887688D01*
X95548041Y-90919900D01*
X95540921Y-90930555D01*
X95519875Y-90997770D01*
X95540921Y-91069445D01*
X95548041Y-91080100D01*
X95554448Y-91112312D01*
X95554448Y-91387688D01*
X95548041Y-91419900D01*
X95540921Y-91430555D01*
X95519875Y-91497770D01*
X95540921Y-91569445D01*
X95548041Y-91580100D01*
X95554448Y-91612312D01*
X95554448Y-91887688D01*
X95548041Y-91919900D01*
X95540921Y-91930555D01*
X95519875Y-91997770D01*
X95540921Y-92069445D01*
X95548041Y-92080100D01*
X95554448Y-92112312D01*
X95554448Y-92387688D01*
X95548041Y-92419900D01*
X95540921Y-92430555D01*
X95519875Y-92497770D01*
X95540921Y-92569445D01*
X95548041Y-92580100D01*
X95554448Y-92612312D01*
X95554448Y-92887688D01*
X95548041Y-92919900D01*
X95540921Y-92930555D01*
X95519875Y-92997770D01*
X95540921Y-93069445D01*
X95548041Y-93080100D01*
X95554448Y-93112312D01*
X95554448Y-93387688D01*
X95548041Y-93419900D01*
X95540921Y-93430555D01*
X95519875Y-93497770D01*
X95540921Y-93569445D01*
X95548041Y-93580100D01*
X95554448Y-93612312D01*
X95554448Y-93887688D01*
X95548041Y-93919900D01*
X95540921Y-93930555D01*
X95519875Y-93997770D01*
X95540921Y-94069445D01*
X95548041Y-94080100D01*
X95554448Y-94112312D01*
X95554448Y-94387688D01*
X95548041Y-94419900D01*
X95540921Y-94430555D01*
X95519875Y-94497770D01*
X95540921Y-94569445D01*
X95548041Y-94580100D01*
X95554448Y-94612312D01*
X95554448Y-94887688D01*
X95548041Y-94919900D01*
X95540921Y-94930555D01*
X95519875Y-94997770D01*
X95540921Y-95069445D01*
X95548041Y-95080100D01*
X95554448Y-95112312D01*
X95554448Y-95387688D01*
X95548041Y-95419900D01*
X95540921Y-95430555D01*
X95519875Y-95497770D01*
X95540921Y-95569445D01*
X95548041Y-95580100D01*
X95554448Y-95612312D01*
X95554448Y-95887688D01*
X95548041Y-95919900D01*
X95540921Y-95930555D01*
X95519875Y-95997770D01*
X95540921Y-96069445D01*
X95548041Y-96080100D01*
X95554448Y-96112312D01*
X95554448Y-96387688D01*
X95551999Y-96400000D01*
X95548041Y-96419899D01*
X95536769Y-96436769D01*
X95519899Y-96448041D01*
X95500000Y-96451999D01*
X95487688Y-96454448D01*
X94512312Y-96454448D01*
X94480101Y-96448041D01*
X94463231Y-96436769D01*
X94451959Y-96419899D01*
X94445552Y-96387688D01*
X94445552Y-96112312D01*
X94451959Y-96080100D01*
X94459079Y-96069445D01*
X94480125Y-96002230D01*
X94459079Y-95930555D01*
X94451959Y-95919900D01*
X94445552Y-95887688D01*
X94445552Y-95612312D01*
X94451959Y-95580100D01*
X94459079Y-95569445D01*
X94480125Y-95502230D01*
X94459079Y-95430555D01*
X94451959Y-95419900D01*
X94445552Y-95387688D01*
X94445552Y-95112312D01*
X94451959Y-95080100D01*
X94459079Y-95069445D01*
X94480125Y-95002230D01*
X94459079Y-94930555D01*
X94451959Y-94919900D01*
X94445552Y-94887688D01*
X94445552Y-94612312D01*
X94451959Y-94580100D01*
X94459079Y-94569445D01*
X94480125Y-94502230D01*
X94459079Y-94430555D01*
X94451959Y-94419900D01*
X94445552Y-94387688D01*
X94445552Y-94112312D01*
X94451959Y-94080100D01*
X94459079Y-94069445D01*
X94480125Y-94002230D01*
X94459079Y-93930555D01*
X94451959Y-93919900D01*
X94445552Y-93887688D01*
X94445552Y-93612312D01*
X94451959Y-93580100D01*
X94459079Y-93569445D01*
X94480125Y-93502230D01*
X94459079Y-93430555D01*
X94451959Y-93419900D01*
X94445552Y-93387688D01*
X94445552Y-93112312D01*
X94451959Y-93080100D01*
X94459079Y-93069445D01*
X94480125Y-93002230D01*
X94459079Y-92930555D01*
X94451959Y-92919900D01*
X94445552Y-92887688D01*
X94445552Y-92612312D01*
X94451959Y-92580100D01*
X94459079Y-92569445D01*
X94480125Y-92502230D01*
X94459079Y-92430555D01*
X94451959Y-92419900D01*
X94445552Y-92387688D01*
X94445552Y-92112312D01*
X94451959Y-92080100D01*
X94459079Y-92069445D01*
X94480125Y-92002230D01*
X94459079Y-91930555D01*
X94451959Y-91919900D01*
X94445552Y-91887688D01*
X94445552Y-91612312D01*
X94451959Y-91580100D01*
X94459079Y-91569445D01*
X94480125Y-91502230D01*
X94459079Y-91430555D01*
X94451959Y-91419900D01*
X94445552Y-91387688D01*
X94445552Y-91112312D01*
X94451959Y-91080100D01*
X94459079Y-91069445D01*
X94480125Y-91002230D01*
X94459079Y-90930555D01*
X94451959Y-90919900D01*
X94445552Y-90887688D01*
X94445552Y-90612312D01*
X94451959Y-90580100D01*
X94459079Y-90569445D01*
X94480125Y-90502230D01*
X94459079Y-90430555D01*
X94451959Y-90419900D01*
X94445552Y-90387688D01*
X94445552Y-90112312D01*
X94451959Y-90080100D01*
X94459079Y-90069445D01*
X94480125Y-90002230D01*
X94459079Y-89930555D01*
X94451959Y-89919900D01*
X94445552Y-89887688D01*
X94445552Y-89612312D01*
X94451959Y-89580100D01*
X94459079Y-89569445D01*
X94480125Y-89502230D01*
X94459079Y-89430555D01*
X94451959Y-89419900D01*
X94445552Y-89387688D01*
X94445552Y-89112312D01*
X94451959Y-89080100D01*
X94459079Y-89069445D01*
X94480125Y-89002230D01*
X94459079Y-88930555D01*
X94451959Y-88919900D01*
X94445552Y-88887688D01*
X94445552Y-88612312D01*
X94451959Y-88580100D01*
X94459079Y-88569445D01*
X94480125Y-88502230D01*
X94459079Y-88430555D01*
X94451959Y-88419900D01*
X94445552Y-88387688D01*
X94445552Y-88112312D01*
X94451959Y-88080100D01*
X94459079Y-88069445D01*
X94480125Y-88002230D01*
X94459079Y-87930555D01*
X94451959Y-87919900D01*
X94445552Y-87887688D01*
X94445552Y-87612312D01*
X94451959Y-87580100D01*
X94459079Y-87569445D01*
X94480125Y-87502230D01*
X94459079Y-87430555D01*
X94451959Y-87419900D01*
X94445552Y-87387688D01*
X94445552Y-87112312D01*
X94451959Y-87080100D01*
X94459079Y-87069445D01*
X94480125Y-87002230D01*
X94459079Y-86930555D01*
X94451959Y-86919900D01*
X94445552Y-86887688D01*
X94445552Y-86612312D01*
X94451959Y-86580100D01*
X94459079Y-86569445D01*
X94480125Y-86502230D01*
X94459079Y-86430555D01*
X94451959Y-86419900D01*
X94445552Y-86387688D01*
X94445552Y-86112312D01*
X94451959Y-86080100D01*
X94459079Y-86069445D01*
X94480125Y-86002230D01*
X94459079Y-85930555D01*
X94451959Y-85919900D01*
X94445552Y-85887688D01*
X94445552Y-85612312D01*
X94451959Y-85580100D01*
X94459079Y-85569445D01*
X94480125Y-85502230D01*
X94459079Y-85430555D01*
X94451959Y-85419900D01*
X94445552Y-85387688D01*
X94445552Y-85112312D01*
X94451959Y-85080100D01*
X94459079Y-85069445D01*
X94480125Y-85002230D01*
X94459079Y-84930555D01*
X94451959Y-84919900D01*
X94445552Y-84887688D01*
X94445552Y-84612312D01*
X94451959Y-84580100D01*
X94459079Y-84569445D01*
X94480125Y-84502230D01*
X94459079Y-84430555D01*
X94451959Y-84419900D01*
X94445552Y-84387688D01*
X94445552Y-84112312D01*
X94451959Y-84080100D01*
X94459079Y-84069445D01*
X94480125Y-84002230D01*
X94459079Y-83930555D01*
X94451959Y-83919900D01*
X94445552Y-83887688D01*
X94445552Y-83612312D01*
X94451959Y-83580101D01*
X94463231Y-83563231D01*
X94480101Y-83551959D01*
X94512312Y-83545552D01*
X95487688Y-83545552D01*
X95519899Y-83551959D01*
X95519899Y-83551959D01*
G37*
G36*
X167929022Y-92328001D02*
G01*
X167929610Y-92328001D01*
X167934203Y-92328915D01*
X167999163Y-92340369D01*
X168003040Y-92342607D01*
X168007061Y-92343407D01*
X168023815Y-92354602D01*
X168059786Y-92375369D01*
X168066026Y-92382805D01*
X168072721Y-92387279D01*
X168084222Y-92404492D01*
X168101137Y-92424651D01*
X168103444Y-92433259D01*
X168116593Y-92452939D01*
X168131999Y-92530390D01*
X168131999Y-92539828D01*
X168133715Y-92546232D01*
X168133715Y-92859290D01*
X168131999Y-92869022D01*
X168131999Y-92869610D01*
X168131085Y-92874203D01*
X168119631Y-92939163D01*
X168117393Y-92943040D01*
X168116593Y-92947061D01*
X168105398Y-92963815D01*
X168084631Y-92999786D01*
X168077194Y-93006026D01*
X168072721Y-93012721D01*
X168055511Y-93024220D01*
X168035350Y-93041137D01*
X168026740Y-93043444D01*
X168007061Y-93056593D01*
X167929610Y-93071999D01*
X167920172Y-93071999D01*
X167913768Y-93073715D01*
X167650710Y-93073715D01*
X167640978Y-93071999D01*
X167640390Y-93071999D01*
X167635797Y-93071085D01*
X167570837Y-93059631D01*
X167566960Y-93057393D01*
X167562939Y-93056593D01*
X167546185Y-93045398D01*
X167510214Y-93024631D01*
X167503974Y-93017194D01*
X167497279Y-93012721D01*
X167485780Y-92995511D01*
X167468863Y-92975350D01*
X167466556Y-92966740D01*
X167453407Y-92947061D01*
X167438001Y-92869610D01*
X167438001Y-92860172D01*
X167436285Y-92853768D01*
X167436285Y-92540710D01*
X167438001Y-92530978D01*
X167438001Y-92530390D01*
X167438915Y-92525797D01*
X167450369Y-92460837D01*
X167452607Y-92456960D01*
X167453407Y-92452939D01*
X167464602Y-92436185D01*
X167485369Y-92400214D01*
X167492805Y-92393974D01*
X167497279Y-92387279D01*
X167514492Y-92375778D01*
X167534651Y-92358863D01*
X167543259Y-92356556D01*
X167562939Y-92343407D01*
X167640390Y-92328001D01*
X167649828Y-92328001D01*
X167656232Y-92326285D01*
X167919290Y-92326285D01*
X167929022Y-92328001D01*
X167929022Y-92328001D01*
G37*
G36*
X166959022Y-92328001D02*
G01*
X166959610Y-92328001D01*
X166964203Y-92328915D01*
X167029163Y-92340369D01*
X167033040Y-92342607D01*
X167037061Y-92343407D01*
X167053815Y-92354602D01*
X167089786Y-92375369D01*
X167096026Y-92382805D01*
X167102721Y-92387279D01*
X167114222Y-92404492D01*
X167131137Y-92424651D01*
X167133444Y-92433259D01*
X167146593Y-92452939D01*
X167161999Y-92530390D01*
X167161999Y-92539828D01*
X167163715Y-92546232D01*
X167163715Y-92859290D01*
X167161999Y-92869022D01*
X167161999Y-92869610D01*
X167161085Y-92874203D01*
X167149631Y-92939163D01*
X167147393Y-92943040D01*
X167146593Y-92947061D01*
X167135398Y-92963815D01*
X167114631Y-92999786D01*
X167107194Y-93006026D01*
X167102721Y-93012721D01*
X167085511Y-93024220D01*
X167065350Y-93041137D01*
X167056740Y-93043444D01*
X167037061Y-93056593D01*
X166959610Y-93071999D01*
X166950172Y-93071999D01*
X166943768Y-93073715D01*
X166680710Y-93073715D01*
X166670978Y-93071999D01*
X166670390Y-93071999D01*
X166665797Y-93071085D01*
X166600837Y-93059631D01*
X166596960Y-93057393D01*
X166592939Y-93056593D01*
X166576185Y-93045398D01*
X166540214Y-93024631D01*
X166533974Y-93017194D01*
X166527279Y-93012721D01*
X166515780Y-92995511D01*
X166498863Y-92975350D01*
X166496556Y-92966740D01*
X166483407Y-92947061D01*
X166468001Y-92869610D01*
X166468001Y-92860172D01*
X166466285Y-92853768D01*
X166466285Y-92540710D01*
X166468001Y-92530978D01*
X166468001Y-92530390D01*
X166468915Y-92525797D01*
X166480369Y-92460837D01*
X166482607Y-92456960D01*
X166483407Y-92452939D01*
X166494602Y-92436185D01*
X166515369Y-92400214D01*
X166522805Y-92393974D01*
X166527279Y-92387279D01*
X166544492Y-92375778D01*
X166564651Y-92358863D01*
X166573259Y-92356556D01*
X166592939Y-92343407D01*
X166670390Y-92328001D01*
X166679828Y-92328001D01*
X166686232Y-92326285D01*
X166949290Y-92326285D01*
X166959022Y-92328001D01*
X166959022Y-92328001D01*
G37*
G36*
X47829022Y-92328001D02*
G01*
X47829610Y-92328001D01*
X47834203Y-92328915D01*
X47899163Y-92340369D01*
X47903040Y-92342607D01*
X47907061Y-92343407D01*
X47923815Y-92354602D01*
X47959786Y-92375369D01*
X47966026Y-92382805D01*
X47972721Y-92387279D01*
X47984222Y-92404492D01*
X48001137Y-92424651D01*
X48003444Y-92433259D01*
X48016593Y-92452939D01*
X48031999Y-92530390D01*
X48031999Y-92539828D01*
X48033715Y-92546232D01*
X48033715Y-92859290D01*
X48031999Y-92869022D01*
X48031999Y-92869610D01*
X48031085Y-92874203D01*
X48019631Y-92939163D01*
X48017393Y-92943040D01*
X48016593Y-92947061D01*
X48005398Y-92963815D01*
X47984631Y-92999786D01*
X47977194Y-93006026D01*
X47972721Y-93012721D01*
X47955511Y-93024220D01*
X47935350Y-93041137D01*
X47926740Y-93043444D01*
X47907061Y-93056593D01*
X47829610Y-93071999D01*
X47820172Y-93071999D01*
X47813768Y-93073715D01*
X47550710Y-93073715D01*
X47540978Y-93071999D01*
X47540390Y-93071999D01*
X47535797Y-93071085D01*
X47470837Y-93059631D01*
X47466960Y-93057393D01*
X47462939Y-93056593D01*
X47446185Y-93045398D01*
X47410214Y-93024631D01*
X47403974Y-93017194D01*
X47397279Y-93012721D01*
X47385780Y-92995511D01*
X47368863Y-92975350D01*
X47366556Y-92966740D01*
X47353407Y-92947061D01*
X47338001Y-92869610D01*
X47338001Y-92860172D01*
X47336285Y-92853768D01*
X47336285Y-92540710D01*
X47338001Y-92530978D01*
X47338001Y-92530390D01*
X47338915Y-92525797D01*
X47350369Y-92460837D01*
X47352607Y-92456960D01*
X47353407Y-92452939D01*
X47364602Y-92436185D01*
X47385369Y-92400214D01*
X47392805Y-92393974D01*
X47397279Y-92387279D01*
X47414492Y-92375778D01*
X47434651Y-92358863D01*
X47443259Y-92356556D01*
X47462939Y-92343407D01*
X47540390Y-92328001D01*
X47549828Y-92328001D01*
X47556232Y-92326285D01*
X47819290Y-92326285D01*
X47829022Y-92328001D01*
X47829022Y-92328001D01*
G37*
G36*
X46859022Y-92328001D02*
G01*
X46859610Y-92328001D01*
X46864203Y-92328915D01*
X46929163Y-92340369D01*
X46933040Y-92342607D01*
X46937061Y-92343407D01*
X46953815Y-92354602D01*
X46989786Y-92375369D01*
X46996026Y-92382805D01*
X47002721Y-92387279D01*
X47014222Y-92404492D01*
X47031137Y-92424651D01*
X47033444Y-92433259D01*
X47046593Y-92452939D01*
X47061999Y-92530390D01*
X47061999Y-92539828D01*
X47063715Y-92546232D01*
X47063715Y-92859290D01*
X47061999Y-92869022D01*
X47061999Y-92869610D01*
X47061085Y-92874203D01*
X47049631Y-92939163D01*
X47047393Y-92943040D01*
X47046593Y-92947061D01*
X47035398Y-92963815D01*
X47014631Y-92999786D01*
X47007194Y-93006026D01*
X47002721Y-93012721D01*
X46985511Y-93024220D01*
X46965350Y-93041137D01*
X46956740Y-93043444D01*
X46937061Y-93056593D01*
X46859610Y-93071999D01*
X46850172Y-93071999D01*
X46843768Y-93073715D01*
X46580710Y-93073715D01*
X46570978Y-93071999D01*
X46570390Y-93071999D01*
X46565797Y-93071085D01*
X46500837Y-93059631D01*
X46496960Y-93057393D01*
X46492939Y-93056593D01*
X46476185Y-93045398D01*
X46440214Y-93024631D01*
X46433974Y-93017194D01*
X46427279Y-93012721D01*
X46415780Y-92995511D01*
X46398863Y-92975350D01*
X46396556Y-92966740D01*
X46383407Y-92947061D01*
X46368001Y-92869610D01*
X46368001Y-92860172D01*
X46366285Y-92853768D01*
X46366285Y-92540710D01*
X46368001Y-92530978D01*
X46368001Y-92530390D01*
X46368915Y-92525797D01*
X46380369Y-92460837D01*
X46382607Y-92456960D01*
X46383407Y-92452939D01*
X46394602Y-92436185D01*
X46415369Y-92400214D01*
X46422805Y-92393974D01*
X46427279Y-92387279D01*
X46444492Y-92375778D01*
X46464651Y-92358863D01*
X46473259Y-92356556D01*
X46492939Y-92343407D01*
X46570390Y-92328001D01*
X46579828Y-92328001D01*
X46586232Y-92326285D01*
X46849290Y-92326285D01*
X46859022Y-92328001D01*
X46859022Y-92328001D01*
G37*
G36*
X42969022Y-92238001D02*
G01*
X42969610Y-92238001D01*
X42974203Y-92238915D01*
X43039163Y-92250369D01*
X43043040Y-92252607D01*
X43047061Y-92253407D01*
X43063815Y-92264602D01*
X43099786Y-92285369D01*
X43106026Y-92292805D01*
X43112721Y-92297279D01*
X43124222Y-92314492D01*
X43141137Y-92334651D01*
X43143444Y-92343259D01*
X43156593Y-92362939D01*
X43171999Y-92440390D01*
X43171999Y-92449828D01*
X43173715Y-92456232D01*
X43173715Y-92719290D01*
X43171999Y-92729022D01*
X43171999Y-92729610D01*
X43171085Y-92734203D01*
X43159631Y-92799163D01*
X43157393Y-92803040D01*
X43156593Y-92807061D01*
X43145398Y-92823815D01*
X43124631Y-92859786D01*
X43117194Y-92866026D01*
X43112721Y-92872721D01*
X43095511Y-92884220D01*
X43075350Y-92901137D01*
X43066740Y-92903444D01*
X43047061Y-92916593D01*
X42969610Y-92931999D01*
X42960172Y-92931999D01*
X42953768Y-92933715D01*
X42640710Y-92933715D01*
X42630978Y-92931999D01*
X42630390Y-92931999D01*
X42625797Y-92931085D01*
X42560837Y-92919631D01*
X42556960Y-92917393D01*
X42552939Y-92916593D01*
X42536185Y-92905398D01*
X42500214Y-92884631D01*
X42493974Y-92877194D01*
X42487279Y-92872721D01*
X42475780Y-92855511D01*
X42458863Y-92835350D01*
X42456556Y-92826740D01*
X42443407Y-92807061D01*
X42428001Y-92729610D01*
X42428001Y-92720172D01*
X42426285Y-92713768D01*
X42426285Y-92450710D01*
X42428001Y-92440978D01*
X42428001Y-92440390D01*
X42428915Y-92435797D01*
X42440369Y-92370837D01*
X42442607Y-92366960D01*
X42443407Y-92362939D01*
X42454602Y-92346185D01*
X42475369Y-92310214D01*
X42482805Y-92303974D01*
X42487279Y-92297279D01*
X42504492Y-92285778D01*
X42524651Y-92268863D01*
X42533259Y-92266556D01*
X42552939Y-92253407D01*
X42630390Y-92238001D01*
X42639828Y-92238001D01*
X42646232Y-92236285D01*
X42959290Y-92236285D01*
X42969022Y-92238001D01*
X42969022Y-92238001D01*
G37*
G36*
X132049902Y-90599283D02*
G01*
X132094637Y-90599595D01*
X132138460Y-90608590D01*
X132188360Y-90613835D01*
X132230132Y-90627408D01*
X132267723Y-90635124D01*
X132314851Y-90654935D01*
X132368488Y-90672363D01*
X132401099Y-90691191D01*
X132430614Y-90703598D01*
X132478301Y-90735763D01*
X132532511Y-90767061D01*
X132555826Y-90788054D01*
X132577101Y-90802404D01*
X132622183Y-90847802D01*
X132673261Y-90893793D01*
X132688003Y-90914083D01*
X132701608Y-90927784D01*
X132740643Y-90986537D01*
X132784586Y-91047019D01*
X132792221Y-91064168D01*
X132799388Y-91074955D01*
X132828865Y-91146472D01*
X132861621Y-91220042D01*
X132864211Y-91232225D01*
X132866724Y-91238323D01*
X132883292Y-91321997D01*
X132900999Y-91405301D01*
X132900999Y-91594699D01*
X132898115Y-91608269D01*
X132898030Y-91614331D01*
X132879342Y-91696585D01*
X132861621Y-91779958D01*
X132859129Y-91785555D01*
X132859078Y-91785780D01*
X132787210Y-91947197D01*
X132787078Y-91947385D01*
X132784586Y-91952981D01*
X132734480Y-92021946D01*
X132685357Y-92091582D01*
X132680585Y-92096126D01*
X132673261Y-92106207D01*
X132613396Y-92160110D01*
X132557396Y-92213438D01*
X132546464Y-92220376D01*
X132532511Y-92232939D01*
X132467764Y-92270321D01*
X132408211Y-92308114D01*
X132390209Y-92315097D01*
X132368488Y-92327637D01*
X132303115Y-92348878D01*
X132243468Y-92372014D01*
X132218200Y-92376469D01*
X132188360Y-92386165D01*
X132126095Y-92392709D01*
X132069460Y-92402695D01*
X132037459Y-92402025D01*
X132000000Y-92405962D01*
X131943902Y-92400066D01*
X131892799Y-92398996D01*
X131855323Y-92390756D01*
X131811640Y-92386165D01*
X131763917Y-92370659D01*
X131720225Y-92361052D01*
X131679230Y-92343142D01*
X131631512Y-92327637D01*
X131593473Y-92305675D01*
X131558310Y-92290313D01*
X131516337Y-92261141D01*
X131467489Y-92232939D01*
X131439504Y-92207741D01*
X131413215Y-92189470D01*
X131373257Y-92148092D01*
X131326739Y-92106207D01*
X131308296Y-92080823D01*
X131290473Y-92062366D01*
X131255821Y-92008597D01*
X131215414Y-91952981D01*
X131205212Y-91930066D01*
X131194754Y-91913839D01*
X131168789Y-91848261D01*
X131138379Y-91779958D01*
X131134476Y-91761596D01*
X131129707Y-91749551D01*
X131115740Y-91673448D01*
X131099001Y-91594699D01*
X131099001Y-91582246D01*
X131097811Y-91575762D01*
X131099001Y-91490535D01*
X131099001Y-91405301D01*
X131100275Y-91399308D01*
X131100278Y-91399077D01*
X131137015Y-91226246D01*
X131137105Y-91226036D01*
X131138379Y-91220042D01*
X131173042Y-91142188D01*
X131206622Y-91063839D01*
X131210348Y-91058397D01*
X131215414Y-91047019D01*
X131262746Y-90981872D01*
X131306452Y-90918041D01*
X131315706Y-90908979D01*
X131326739Y-90893793D01*
X131382297Y-90843769D01*
X131432693Y-90794417D01*
X131448848Y-90783846D01*
X131467489Y-90767061D01*
X131527026Y-90732687D01*
X131580551Y-90697662D01*
X131604340Y-90688050D01*
X131631512Y-90672363D01*
X131691045Y-90653019D01*
X131744376Y-90631472D01*
X131775820Y-90625474D01*
X131811640Y-90613835D01*
X131867744Y-90607938D01*
X131917945Y-90598362D01*
X131956312Y-90598630D01*
X132000000Y-90594038D01*
X132049902Y-90599283D01*
X132049902Y-90599283D01*
G37*
G36*
X137268360Y-90613835D02*
G01*
X137349397Y-90640166D01*
X137436663Y-90667848D01*
X137439655Y-90669493D01*
X137448488Y-90672363D01*
X137520466Y-90713919D01*
X137591499Y-90752970D01*
X137598986Y-90759253D01*
X137612511Y-90767061D01*
X137670259Y-90819057D01*
X137726857Y-90866549D01*
X137736962Y-90879118D01*
X137753261Y-90893793D01*
X137795454Y-90951867D01*
X137837579Y-91004260D01*
X137847994Y-91024182D01*
X137864586Y-91047019D01*
X137891297Y-91107012D01*
X137919439Y-91160843D01*
X137927582Y-91188510D01*
X137941621Y-91220042D01*
X137953992Y-91278241D01*
X137969328Y-91330349D01*
X137972518Y-91365401D01*
X137980999Y-91405301D01*
X137980999Y-91458592D01*
X137985343Y-91506324D01*
X137980999Y-91547653D01*
X137980999Y-91594699D01*
X137971217Y-91640721D01*
X137966873Y-91682047D01*
X137952702Y-91727827D01*
X137941621Y-91779958D01*
X137925028Y-91817226D01*
X137914622Y-91850843D01*
X137888789Y-91898620D01*
X137864586Y-91952981D01*
X137844298Y-91980905D01*
X137830580Y-92006276D01*
X137791859Y-92053082D01*
X137753261Y-92106207D01*
X137732284Y-92125095D01*
X137717952Y-92142419D01*
X137665845Y-92184917D01*
X137612511Y-92232939D01*
X137593524Y-92243901D01*
X137581025Y-92254095D01*
X137515780Y-92288786D01*
X137448488Y-92327637D01*
X137433636Y-92332463D01*
X137425003Y-92337053D01*
X137347430Y-92360473D01*
X137268360Y-92386165D01*
X137259114Y-92387137D01*
X137255851Y-92388122D01*
X137164710Y-92397059D01*
X137127211Y-92401000D01*
X137032789Y-92401000D01*
X136891640Y-92386165D01*
X136810603Y-92359834D01*
X136723337Y-92332152D01*
X136720345Y-92330507D01*
X136711512Y-92327637D01*
X136639534Y-92286081D01*
X136568501Y-92247030D01*
X136561014Y-92240747D01*
X136547489Y-92232939D01*
X136489741Y-92180943D01*
X136433143Y-92133451D01*
X136423038Y-92120882D01*
X136406739Y-92106207D01*
X136364546Y-92048133D01*
X136322421Y-91995740D01*
X136312006Y-91975818D01*
X136295414Y-91952981D01*
X136268703Y-91892988D01*
X136240561Y-91839157D01*
X136232418Y-91811490D01*
X136218379Y-91779958D01*
X136206008Y-91721759D01*
X136190672Y-91669651D01*
X136187482Y-91634599D01*
X136179001Y-91594699D01*
X136179001Y-91541408D01*
X136174657Y-91493676D01*
X136179001Y-91452347D01*
X136179001Y-91405301D01*
X136188783Y-91359279D01*
X136193127Y-91317953D01*
X136207298Y-91272173D01*
X136218379Y-91220042D01*
X136234972Y-91182774D01*
X136245378Y-91149157D01*
X136271211Y-91101380D01*
X136295414Y-91047019D01*
X136315702Y-91019095D01*
X136329420Y-90993724D01*
X136368141Y-90946918D01*
X136406739Y-90893793D01*
X136427716Y-90874905D01*
X136442048Y-90857581D01*
X136494155Y-90815083D01*
X136547489Y-90767061D01*
X136566476Y-90756099D01*
X136578975Y-90745905D01*
X136644220Y-90711214D01*
X136711512Y-90672363D01*
X136726364Y-90667537D01*
X136734997Y-90662947D01*
X136812570Y-90639527D01*
X136891640Y-90613835D01*
X136900886Y-90612863D01*
X136904149Y-90611878D01*
X136995290Y-90602941D01*
X137032789Y-90599000D01*
X137127211Y-90599000D01*
X137268360Y-90613835D01*
X137268360Y-90613835D01*
G37*
G36*
X134728360Y-90613835D02*
G01*
X134809397Y-90640166D01*
X134896663Y-90667848D01*
X134899655Y-90669493D01*
X134908488Y-90672363D01*
X134980466Y-90713919D01*
X135051499Y-90752970D01*
X135058986Y-90759253D01*
X135072511Y-90767061D01*
X135130259Y-90819057D01*
X135186857Y-90866549D01*
X135196962Y-90879118D01*
X135213261Y-90893793D01*
X135255454Y-90951867D01*
X135297579Y-91004260D01*
X135307994Y-91024182D01*
X135324586Y-91047019D01*
X135351297Y-91107012D01*
X135379439Y-91160843D01*
X135387582Y-91188510D01*
X135401621Y-91220042D01*
X135413992Y-91278241D01*
X135429328Y-91330349D01*
X135432518Y-91365401D01*
X135440999Y-91405301D01*
X135440999Y-91458592D01*
X135445343Y-91506324D01*
X135440999Y-91547653D01*
X135440999Y-91594699D01*
X135431217Y-91640721D01*
X135426873Y-91682047D01*
X135412702Y-91727827D01*
X135401621Y-91779958D01*
X135385028Y-91817226D01*
X135374622Y-91850843D01*
X135348789Y-91898620D01*
X135324586Y-91952981D01*
X135304298Y-91980905D01*
X135290580Y-92006276D01*
X135251859Y-92053082D01*
X135213261Y-92106207D01*
X135192284Y-92125095D01*
X135177952Y-92142419D01*
X135125845Y-92184917D01*
X135072511Y-92232939D01*
X135053524Y-92243901D01*
X135041025Y-92254095D01*
X134975780Y-92288786D01*
X134908488Y-92327637D01*
X134893636Y-92332463D01*
X134885003Y-92337053D01*
X134807430Y-92360473D01*
X134728360Y-92386165D01*
X134719114Y-92387137D01*
X134715851Y-92388122D01*
X134624710Y-92397059D01*
X134587211Y-92401000D01*
X134492789Y-92401000D01*
X134351640Y-92386165D01*
X134270603Y-92359834D01*
X134183337Y-92332152D01*
X134180345Y-92330507D01*
X134171512Y-92327637D01*
X134099534Y-92286081D01*
X134028501Y-92247030D01*
X134021014Y-92240747D01*
X134007489Y-92232939D01*
X133949741Y-92180943D01*
X133893143Y-92133451D01*
X133883038Y-92120882D01*
X133866739Y-92106207D01*
X133824546Y-92048133D01*
X133782421Y-91995740D01*
X133772006Y-91975818D01*
X133755414Y-91952981D01*
X133728703Y-91892988D01*
X133700561Y-91839157D01*
X133692418Y-91811490D01*
X133678379Y-91779958D01*
X133666008Y-91721759D01*
X133650672Y-91669651D01*
X133647482Y-91634599D01*
X133639001Y-91594699D01*
X133639001Y-91541408D01*
X133634657Y-91493676D01*
X133639001Y-91452347D01*
X133639001Y-91405301D01*
X133648783Y-91359279D01*
X133653127Y-91317953D01*
X133667298Y-91272173D01*
X133678379Y-91220042D01*
X133694972Y-91182774D01*
X133705378Y-91149157D01*
X133731211Y-91101380D01*
X133755414Y-91047019D01*
X133775702Y-91019095D01*
X133789420Y-90993724D01*
X133828141Y-90946918D01*
X133866739Y-90893793D01*
X133887716Y-90874905D01*
X133902048Y-90857581D01*
X133954155Y-90815083D01*
X134007489Y-90767061D01*
X134026476Y-90756099D01*
X134038975Y-90745905D01*
X134104220Y-90711214D01*
X134171512Y-90672363D01*
X134186364Y-90667537D01*
X134194997Y-90662947D01*
X134272570Y-90639527D01*
X134351640Y-90613835D01*
X134360886Y-90612863D01*
X134364149Y-90611878D01*
X134455290Y-90602941D01*
X134492789Y-90599000D01*
X134587211Y-90599000D01*
X134728360Y-90613835D01*
X134728360Y-90613835D01*
G37*
G36*
X45879022Y-91628001D02*
G01*
X45879610Y-91628001D01*
X45884203Y-91628915D01*
X45949163Y-91640369D01*
X45953040Y-91642607D01*
X45957061Y-91643407D01*
X45973815Y-91654602D01*
X46009786Y-91675369D01*
X46016026Y-91682805D01*
X46022721Y-91687279D01*
X46034222Y-91704492D01*
X46051137Y-91724651D01*
X46053444Y-91733259D01*
X46066593Y-91752939D01*
X46081999Y-91830390D01*
X46081999Y-91839828D01*
X46083715Y-91846232D01*
X46083715Y-92159290D01*
X46081999Y-92169022D01*
X46081999Y-92169610D01*
X46081085Y-92174203D01*
X46069631Y-92239163D01*
X46067393Y-92243040D01*
X46066593Y-92247061D01*
X46055398Y-92263815D01*
X46034631Y-92299786D01*
X46027194Y-92306026D01*
X46022721Y-92312721D01*
X46005511Y-92324220D01*
X45985350Y-92341137D01*
X45976740Y-92343444D01*
X45957061Y-92356593D01*
X45879610Y-92371999D01*
X45870172Y-92371999D01*
X45863768Y-92373715D01*
X45600710Y-92373715D01*
X45590978Y-92371999D01*
X45590390Y-92371999D01*
X45585797Y-92371085D01*
X45520837Y-92359631D01*
X45516960Y-92357393D01*
X45512939Y-92356593D01*
X45496185Y-92345398D01*
X45460214Y-92324631D01*
X45453974Y-92317194D01*
X45447279Y-92312721D01*
X45435780Y-92295511D01*
X45418863Y-92275350D01*
X45416556Y-92266740D01*
X45403407Y-92247061D01*
X45388001Y-92169610D01*
X45388001Y-92160172D01*
X45386285Y-92153768D01*
X45386285Y-91840710D01*
X45388001Y-91830978D01*
X45388001Y-91830390D01*
X45388915Y-91825797D01*
X45400369Y-91760837D01*
X45402607Y-91756960D01*
X45403407Y-91752939D01*
X45414602Y-91736185D01*
X45435369Y-91700214D01*
X45442805Y-91693974D01*
X45447279Y-91687279D01*
X45464492Y-91675778D01*
X45484651Y-91658863D01*
X45493259Y-91656556D01*
X45512939Y-91643407D01*
X45590390Y-91628001D01*
X45599828Y-91628001D01*
X45606232Y-91626285D01*
X45869290Y-91626285D01*
X45879022Y-91628001D01*
X45879022Y-91628001D01*
G37*
G36*
X44909022Y-91628001D02*
G01*
X44909610Y-91628001D01*
X44914203Y-91628915D01*
X44979163Y-91640369D01*
X44983040Y-91642607D01*
X44987061Y-91643407D01*
X45003815Y-91654602D01*
X45039786Y-91675369D01*
X45046026Y-91682805D01*
X45052721Y-91687279D01*
X45064222Y-91704492D01*
X45081137Y-91724651D01*
X45083444Y-91733259D01*
X45096593Y-91752939D01*
X45111999Y-91830390D01*
X45111999Y-91839828D01*
X45113715Y-91846232D01*
X45113715Y-92159290D01*
X45111999Y-92169022D01*
X45111999Y-92169610D01*
X45111085Y-92174203D01*
X45099631Y-92239163D01*
X45097393Y-92243040D01*
X45096593Y-92247061D01*
X45085398Y-92263815D01*
X45064631Y-92299786D01*
X45057194Y-92306026D01*
X45052721Y-92312721D01*
X45035511Y-92324220D01*
X45015350Y-92341137D01*
X45006740Y-92343444D01*
X44987061Y-92356593D01*
X44909610Y-92371999D01*
X44900172Y-92371999D01*
X44893768Y-92373715D01*
X44630710Y-92373715D01*
X44620978Y-92371999D01*
X44620390Y-92371999D01*
X44615797Y-92371085D01*
X44550837Y-92359631D01*
X44546960Y-92357393D01*
X44542939Y-92356593D01*
X44526185Y-92345398D01*
X44490214Y-92324631D01*
X44483974Y-92317194D01*
X44477279Y-92312721D01*
X44465780Y-92295511D01*
X44448863Y-92275350D01*
X44446556Y-92266740D01*
X44433407Y-92247061D01*
X44418001Y-92169610D01*
X44418001Y-92160172D01*
X44416285Y-92153768D01*
X44416285Y-91840710D01*
X44418001Y-91830978D01*
X44418001Y-91830390D01*
X44418915Y-91825797D01*
X44430369Y-91760837D01*
X44432607Y-91756960D01*
X44433407Y-91752939D01*
X44444602Y-91736185D01*
X44465369Y-91700214D01*
X44472805Y-91693974D01*
X44477279Y-91687279D01*
X44494492Y-91675778D01*
X44514651Y-91658863D01*
X44523259Y-91656556D01*
X44542939Y-91643407D01*
X44620390Y-91628001D01*
X44629828Y-91628001D01*
X44636232Y-91626285D01*
X44899290Y-91626285D01*
X44909022Y-91628001D01*
X44909022Y-91628001D01*
G37*
G36*
X163069022Y-91638001D02*
G01*
X163069610Y-91638001D01*
X163074203Y-91638915D01*
X163139163Y-91650369D01*
X163143040Y-91652607D01*
X163147061Y-91653407D01*
X163163815Y-91664602D01*
X163199786Y-91685369D01*
X163206026Y-91692805D01*
X163212721Y-91697279D01*
X163224222Y-91714492D01*
X163241137Y-91734651D01*
X163243444Y-91743259D01*
X163256593Y-91762939D01*
X163271999Y-91840390D01*
X163271999Y-91849828D01*
X163273715Y-91856232D01*
X163273715Y-92119290D01*
X163271999Y-92129022D01*
X163271999Y-92129610D01*
X163271085Y-92134203D01*
X163259631Y-92199163D01*
X163257393Y-92203040D01*
X163256593Y-92207061D01*
X163245398Y-92223815D01*
X163224631Y-92259786D01*
X163217194Y-92266026D01*
X163212721Y-92272721D01*
X163195511Y-92284220D01*
X163175350Y-92301137D01*
X163166740Y-92303444D01*
X163147061Y-92316593D01*
X163069610Y-92331999D01*
X163060172Y-92331999D01*
X163053768Y-92333715D01*
X162740710Y-92333715D01*
X162730978Y-92331999D01*
X162730390Y-92331999D01*
X162725797Y-92331085D01*
X162660837Y-92319631D01*
X162656960Y-92317393D01*
X162652939Y-92316593D01*
X162636185Y-92305398D01*
X162600214Y-92284631D01*
X162593974Y-92277194D01*
X162587279Y-92272721D01*
X162575780Y-92255511D01*
X162558863Y-92235350D01*
X162556556Y-92226740D01*
X162543407Y-92207061D01*
X162528001Y-92129610D01*
X162528001Y-92120172D01*
X162526285Y-92113768D01*
X162526285Y-91850710D01*
X162528001Y-91840978D01*
X162528001Y-91840390D01*
X162528915Y-91835797D01*
X162540369Y-91770837D01*
X162542607Y-91766960D01*
X162543407Y-91762939D01*
X162554602Y-91746185D01*
X162575369Y-91710214D01*
X162582805Y-91703974D01*
X162587279Y-91697279D01*
X162604492Y-91685778D01*
X162624651Y-91668863D01*
X162633259Y-91666556D01*
X162652939Y-91653407D01*
X162730390Y-91638001D01*
X162739828Y-91638001D01*
X162746232Y-91636285D01*
X163059290Y-91636285D01*
X163069022Y-91638001D01*
X163069022Y-91638001D01*
G37*
G36*
X42909022Y-90278001D02*
G01*
X42909610Y-90278001D01*
X42914203Y-90278915D01*
X42979163Y-90290369D01*
X42983040Y-90292607D01*
X42987061Y-90293407D01*
X43003815Y-90304602D01*
X43039786Y-90325369D01*
X43046026Y-90332805D01*
X43052721Y-90337279D01*
X43064222Y-90354492D01*
X43081137Y-90374651D01*
X43083444Y-90383259D01*
X43096593Y-90402939D01*
X43111999Y-90480390D01*
X43111999Y-90489828D01*
X43113715Y-90496232D01*
X43113715Y-90809290D01*
X43111999Y-90819022D01*
X43111999Y-90819610D01*
X43111085Y-90824203D01*
X43099631Y-90889163D01*
X43097393Y-90893040D01*
X43096593Y-90897061D01*
X43085398Y-90913815D01*
X43064631Y-90949786D01*
X43057194Y-90956026D01*
X43052721Y-90962721D01*
X43035511Y-90974220D01*
X43015350Y-90991137D01*
X43006740Y-90993444D01*
X42987061Y-91006593D01*
X42909610Y-91021999D01*
X42903211Y-91021999D01*
X42845454Y-91057204D01*
X42814679Y-91120557D01*
X42823040Y-91190492D01*
X42867884Y-91244804D01*
X42937947Y-91266285D01*
X42959290Y-91266285D01*
X42969022Y-91268001D01*
X42969610Y-91268001D01*
X42974203Y-91268915D01*
X43039163Y-91280369D01*
X43043040Y-91282607D01*
X43047061Y-91283407D01*
X43063815Y-91294602D01*
X43099786Y-91315369D01*
X43106026Y-91322805D01*
X43112721Y-91327279D01*
X43124222Y-91344492D01*
X43141137Y-91364651D01*
X43143444Y-91373259D01*
X43156593Y-91392939D01*
X43171999Y-91470390D01*
X43171999Y-91479828D01*
X43173715Y-91486232D01*
X43173715Y-91749290D01*
X43171999Y-91759022D01*
X43171999Y-91759610D01*
X43171085Y-91764203D01*
X43159631Y-91829163D01*
X43157393Y-91833040D01*
X43156593Y-91837061D01*
X43145398Y-91853815D01*
X43124631Y-91889786D01*
X43117194Y-91896026D01*
X43112721Y-91902721D01*
X43095511Y-91914220D01*
X43075350Y-91931137D01*
X43066740Y-91933444D01*
X43047061Y-91946593D01*
X42969610Y-91961999D01*
X42960172Y-91961999D01*
X42953768Y-91963715D01*
X42640710Y-91963715D01*
X42630978Y-91961999D01*
X42630390Y-91961999D01*
X42625797Y-91961085D01*
X42560837Y-91949631D01*
X42556960Y-91947393D01*
X42552939Y-91946593D01*
X42536185Y-91935398D01*
X42500214Y-91914631D01*
X42493974Y-91907194D01*
X42487279Y-91902721D01*
X42475780Y-91885511D01*
X42458863Y-91865350D01*
X42456556Y-91856740D01*
X42443407Y-91837061D01*
X42428001Y-91759610D01*
X42428001Y-91750172D01*
X42426285Y-91743768D01*
X42426285Y-91480710D01*
X42428001Y-91470978D01*
X42428001Y-91470390D01*
X42428915Y-91465797D01*
X42440369Y-91400837D01*
X42442607Y-91396960D01*
X42443407Y-91392939D01*
X42454602Y-91376185D01*
X42475369Y-91340214D01*
X42482805Y-91333974D01*
X42487279Y-91327279D01*
X42504492Y-91315778D01*
X42524651Y-91298863D01*
X42533259Y-91296556D01*
X42552939Y-91283407D01*
X42630390Y-91268001D01*
X42639827Y-91268001D01*
X42641439Y-91267569D01*
X42701580Y-91230911D01*
X42732355Y-91167557D01*
X42723994Y-91097623D01*
X42679150Y-91043311D01*
X42630792Y-91023729D01*
X42620981Y-91021999D01*
X42620390Y-91021999D01*
X42615780Y-91021082D01*
X42550837Y-91009631D01*
X42546960Y-91007393D01*
X42542939Y-91006593D01*
X42526185Y-90995398D01*
X42490214Y-90974631D01*
X42483974Y-90967194D01*
X42477279Y-90962721D01*
X42465780Y-90945511D01*
X42448863Y-90925350D01*
X42446556Y-90916740D01*
X42433407Y-90897061D01*
X42418001Y-90819610D01*
X42418001Y-90810172D01*
X42416285Y-90803768D01*
X42416285Y-90490710D01*
X42418001Y-90480978D01*
X42418001Y-90480390D01*
X42418915Y-90475797D01*
X42430369Y-90410837D01*
X42432607Y-90406960D01*
X42433407Y-90402939D01*
X42444602Y-90386185D01*
X42465369Y-90350214D01*
X42472805Y-90343974D01*
X42477279Y-90337279D01*
X42494492Y-90325778D01*
X42514651Y-90308863D01*
X42523259Y-90306556D01*
X42542939Y-90293407D01*
X42620390Y-90278001D01*
X42629828Y-90278001D01*
X42636232Y-90276285D01*
X42899290Y-90276285D01*
X42909022Y-90278001D01*
X42909022Y-90278001D01*
G37*
G36*
X165569022Y-91088001D02*
G01*
X165569610Y-91088001D01*
X165574203Y-91088915D01*
X165639163Y-91100369D01*
X165643040Y-91102607D01*
X165647061Y-91103407D01*
X165663815Y-91114602D01*
X165699786Y-91135369D01*
X165706026Y-91142805D01*
X165712721Y-91147279D01*
X165724222Y-91164492D01*
X165741137Y-91184651D01*
X165743444Y-91193259D01*
X165756593Y-91212939D01*
X165771999Y-91290390D01*
X165771999Y-91299828D01*
X165773715Y-91306232D01*
X165773715Y-91569290D01*
X165771999Y-91579022D01*
X165771999Y-91579610D01*
X165771085Y-91584203D01*
X165759631Y-91649163D01*
X165757393Y-91653040D01*
X165756593Y-91657061D01*
X165745398Y-91673815D01*
X165724631Y-91709786D01*
X165717194Y-91716026D01*
X165712721Y-91722721D01*
X165695511Y-91734220D01*
X165675350Y-91751137D01*
X165666740Y-91753444D01*
X165647061Y-91766593D01*
X165569610Y-91781999D01*
X165560172Y-91781999D01*
X165553768Y-91783715D01*
X165240710Y-91783715D01*
X165230978Y-91781999D01*
X165230390Y-91781999D01*
X165225797Y-91781085D01*
X165160837Y-91769631D01*
X165156960Y-91767393D01*
X165152939Y-91766593D01*
X165136185Y-91755398D01*
X165100214Y-91734631D01*
X165093974Y-91727194D01*
X165087279Y-91722721D01*
X165075780Y-91705511D01*
X165058863Y-91685350D01*
X165056556Y-91676740D01*
X165043407Y-91657061D01*
X165028001Y-91579610D01*
X165028001Y-91570172D01*
X165026285Y-91563768D01*
X165026285Y-91300710D01*
X165028001Y-91290978D01*
X165028001Y-91290390D01*
X165028915Y-91285797D01*
X165040369Y-91220837D01*
X165042607Y-91216960D01*
X165043407Y-91212939D01*
X165054602Y-91196185D01*
X165075369Y-91160214D01*
X165082805Y-91153974D01*
X165087279Y-91147279D01*
X165104492Y-91135778D01*
X165124651Y-91118863D01*
X165133259Y-91116556D01*
X165152939Y-91103407D01*
X165230390Y-91088001D01*
X165239828Y-91088001D01*
X165246232Y-91086285D01*
X165559290Y-91086285D01*
X165569022Y-91088001D01*
X165569022Y-91088001D01*
G37*
G36*
X48029022Y-90978001D02*
G01*
X48029610Y-90978001D01*
X48034203Y-90978915D01*
X48099163Y-90990369D01*
X48103040Y-90992607D01*
X48107061Y-90993407D01*
X48123815Y-91004602D01*
X48159786Y-91025369D01*
X48166026Y-91032805D01*
X48172721Y-91037279D01*
X48184222Y-91054492D01*
X48201137Y-91074651D01*
X48203444Y-91083259D01*
X48216593Y-91102939D01*
X48231999Y-91180390D01*
X48231999Y-91189828D01*
X48233715Y-91196232D01*
X48233715Y-91509290D01*
X48231999Y-91519022D01*
X48231999Y-91519610D01*
X48231085Y-91524203D01*
X48219631Y-91589163D01*
X48217393Y-91593040D01*
X48216593Y-91597061D01*
X48205398Y-91613815D01*
X48184631Y-91649786D01*
X48177194Y-91656026D01*
X48172721Y-91662721D01*
X48155511Y-91674220D01*
X48135350Y-91691137D01*
X48126740Y-91693444D01*
X48107061Y-91706593D01*
X48029610Y-91721999D01*
X48020172Y-91721999D01*
X48013768Y-91723715D01*
X47750710Y-91723715D01*
X47740978Y-91721999D01*
X47740390Y-91721999D01*
X47735797Y-91721085D01*
X47670837Y-91709631D01*
X47666960Y-91707393D01*
X47662939Y-91706593D01*
X47646185Y-91695398D01*
X47610214Y-91674631D01*
X47603974Y-91667194D01*
X47597279Y-91662721D01*
X47585780Y-91645511D01*
X47568863Y-91625350D01*
X47566556Y-91616740D01*
X47553407Y-91597061D01*
X47538001Y-91519610D01*
X47538001Y-91510172D01*
X47536285Y-91503768D01*
X47536285Y-91190710D01*
X47538001Y-91180978D01*
X47538001Y-91180390D01*
X47538915Y-91175797D01*
X47550369Y-91110837D01*
X47552607Y-91106960D01*
X47553407Y-91102939D01*
X47564602Y-91086185D01*
X47585369Y-91050214D01*
X47592805Y-91043974D01*
X47597279Y-91037279D01*
X47614492Y-91025778D01*
X47634651Y-91008863D01*
X47643259Y-91006556D01*
X47662939Y-90993407D01*
X47740390Y-90978001D01*
X47749828Y-90978001D01*
X47756232Y-90976285D01*
X48019290Y-90976285D01*
X48029022Y-90978001D01*
X48029022Y-90978001D01*
G37*
G36*
X47059022Y-90978001D02*
G01*
X47059610Y-90978001D01*
X47064203Y-90978915D01*
X47129163Y-90990369D01*
X47133040Y-90992607D01*
X47137061Y-90993407D01*
X47153815Y-91004602D01*
X47189786Y-91025369D01*
X47196026Y-91032805D01*
X47202721Y-91037279D01*
X47214222Y-91054492D01*
X47231137Y-91074651D01*
X47233444Y-91083259D01*
X47246593Y-91102939D01*
X47261999Y-91180390D01*
X47261999Y-91189828D01*
X47263715Y-91196232D01*
X47263715Y-91509290D01*
X47261999Y-91519022D01*
X47261999Y-91519610D01*
X47261085Y-91524203D01*
X47249631Y-91589163D01*
X47247393Y-91593040D01*
X47246593Y-91597061D01*
X47235398Y-91613815D01*
X47214631Y-91649786D01*
X47207194Y-91656026D01*
X47202721Y-91662721D01*
X47185511Y-91674220D01*
X47165350Y-91691137D01*
X47156740Y-91693444D01*
X47137061Y-91706593D01*
X47059610Y-91721999D01*
X47050172Y-91721999D01*
X47043768Y-91723715D01*
X46780710Y-91723715D01*
X46770978Y-91721999D01*
X46770390Y-91721999D01*
X46765797Y-91721085D01*
X46700837Y-91709631D01*
X46696960Y-91707393D01*
X46692939Y-91706593D01*
X46676185Y-91695398D01*
X46640214Y-91674631D01*
X46633974Y-91667194D01*
X46627279Y-91662721D01*
X46615780Y-91645511D01*
X46598863Y-91625350D01*
X46596556Y-91616740D01*
X46583407Y-91597061D01*
X46568001Y-91519610D01*
X46568001Y-91510172D01*
X46566285Y-91503768D01*
X46566285Y-91190710D01*
X46568001Y-91180978D01*
X46568001Y-91180390D01*
X46568915Y-91175797D01*
X46580369Y-91110837D01*
X46582607Y-91106960D01*
X46583407Y-91102939D01*
X46594602Y-91086185D01*
X46615369Y-91050214D01*
X46622805Y-91043974D01*
X46627279Y-91037279D01*
X46644492Y-91025778D01*
X46664651Y-91008863D01*
X46673259Y-91006556D01*
X46692939Y-90993407D01*
X46770390Y-90978001D01*
X46779828Y-90978001D01*
X46786232Y-90976285D01*
X47049290Y-90976285D01*
X47059022Y-90978001D01*
X47059022Y-90978001D01*
G37*
G36*
X163069022Y-90668001D02*
G01*
X163069610Y-90668001D01*
X163074203Y-90668915D01*
X163139163Y-90680369D01*
X163143040Y-90682607D01*
X163147061Y-90683407D01*
X163163815Y-90694602D01*
X163199786Y-90715369D01*
X163206026Y-90722805D01*
X163212721Y-90727279D01*
X163224222Y-90744492D01*
X163241137Y-90764651D01*
X163243444Y-90773259D01*
X163256593Y-90792939D01*
X163271999Y-90870390D01*
X163271999Y-90879828D01*
X163273715Y-90886232D01*
X163273715Y-91149290D01*
X163271999Y-91159022D01*
X163271999Y-91159610D01*
X163271085Y-91164203D01*
X163259631Y-91229163D01*
X163257393Y-91233040D01*
X163256593Y-91237061D01*
X163245398Y-91253815D01*
X163224631Y-91289786D01*
X163217194Y-91296026D01*
X163212721Y-91302721D01*
X163195511Y-91314220D01*
X163175350Y-91331137D01*
X163166740Y-91333444D01*
X163147061Y-91346593D01*
X163069610Y-91361999D01*
X163060172Y-91361999D01*
X163053768Y-91363715D01*
X162740710Y-91363715D01*
X162730978Y-91361999D01*
X162730390Y-91361999D01*
X162725797Y-91361085D01*
X162660837Y-91349631D01*
X162656960Y-91347393D01*
X162652939Y-91346593D01*
X162636185Y-91335398D01*
X162600214Y-91314631D01*
X162593974Y-91307194D01*
X162587279Y-91302721D01*
X162575780Y-91285511D01*
X162558863Y-91265350D01*
X162556556Y-91256740D01*
X162543407Y-91237061D01*
X162528001Y-91159610D01*
X162528001Y-91150172D01*
X162526285Y-91143768D01*
X162526285Y-90880710D01*
X162528001Y-90870978D01*
X162528001Y-90870390D01*
X162528915Y-90865797D01*
X162540369Y-90800837D01*
X162542607Y-90796960D01*
X162543407Y-90792939D01*
X162554602Y-90776185D01*
X162575369Y-90740214D01*
X162582805Y-90733974D01*
X162587279Y-90727279D01*
X162604492Y-90715778D01*
X162624651Y-90698863D01*
X162633259Y-90696556D01*
X162652939Y-90683407D01*
X162730390Y-90668001D01*
X162739828Y-90668001D01*
X162746232Y-90666285D01*
X163059290Y-90666285D01*
X163069022Y-90668001D01*
X163069022Y-90668001D01*
G37*
G36*
X167159022Y-89473001D02*
G01*
X167159610Y-89473001D01*
X167164203Y-89473915D01*
X167229163Y-89485369D01*
X167233040Y-89487607D01*
X167237061Y-89488407D01*
X167253815Y-89499602D01*
X167289786Y-89520369D01*
X167296026Y-89527805D01*
X167302721Y-89532279D01*
X167314222Y-89549492D01*
X167331137Y-89569651D01*
X167333444Y-89578259D01*
X167346593Y-89597939D01*
X167361999Y-89675390D01*
X167361999Y-89684828D01*
X167363715Y-89691232D01*
X167363715Y-90004290D01*
X167361999Y-90014022D01*
X167361999Y-90014610D01*
X167361085Y-90019203D01*
X167349631Y-90084163D01*
X167347393Y-90088040D01*
X167346593Y-90092061D01*
X167335398Y-90108815D01*
X167314631Y-90144786D01*
X167307194Y-90151026D01*
X167302721Y-90157721D01*
X167285514Y-90169218D01*
X167265350Y-90186138D01*
X167256738Y-90188445D01*
X167237061Y-90201593D01*
X167215858Y-90205811D01*
X167174487Y-90231027D01*
X167143712Y-90294380D01*
X167152073Y-90364314D01*
X167196916Y-90418626D01*
X167210259Y-90424030D01*
X167210075Y-90424348D01*
X167233041Y-90437607D01*
X167237061Y-90438407D01*
X167253812Y-90449599D01*
X167289786Y-90470369D01*
X167296026Y-90477805D01*
X167302721Y-90482279D01*
X167314222Y-90499492D01*
X167331137Y-90519651D01*
X167333444Y-90528259D01*
X167346593Y-90547939D01*
X167361999Y-90625390D01*
X167361999Y-90634828D01*
X167363715Y-90641232D01*
X167363715Y-90954290D01*
X167361999Y-90964022D01*
X167361999Y-90964610D01*
X167361085Y-90969203D01*
X167349631Y-91034163D01*
X167347393Y-91038040D01*
X167346593Y-91042061D01*
X167335398Y-91058815D01*
X167314631Y-91094786D01*
X167307194Y-91101026D01*
X167302721Y-91107721D01*
X167285511Y-91119220D01*
X167265350Y-91136137D01*
X167256740Y-91138444D01*
X167237061Y-91151593D01*
X167159610Y-91166999D01*
X167150172Y-91166999D01*
X167143768Y-91168715D01*
X166880710Y-91168715D01*
X166870978Y-91166999D01*
X166870390Y-91166999D01*
X166865797Y-91166085D01*
X166800837Y-91154631D01*
X166796960Y-91152393D01*
X166792939Y-91151593D01*
X166776185Y-91140398D01*
X166740214Y-91119631D01*
X166733974Y-91112194D01*
X166727279Y-91107721D01*
X166715780Y-91090511D01*
X166698863Y-91070350D01*
X166696556Y-91061740D01*
X166683407Y-91042061D01*
X166668001Y-90964610D01*
X166668001Y-90955172D01*
X166666285Y-90948768D01*
X166666285Y-90635710D01*
X166668001Y-90625978D01*
X166668001Y-90625390D01*
X166668915Y-90620797D01*
X166680369Y-90555837D01*
X166682607Y-90551960D01*
X166683407Y-90547939D01*
X166694602Y-90531185D01*
X166715369Y-90495214D01*
X166722805Y-90488974D01*
X166727279Y-90482279D01*
X166744492Y-90470778D01*
X166764651Y-90453863D01*
X166773259Y-90451556D01*
X166792939Y-90438407D01*
X166814144Y-90434189D01*
X166855514Y-90408973D01*
X166886289Y-90345620D01*
X166877928Y-90275686D01*
X166833085Y-90221374D01*
X166819741Y-90215970D01*
X166819925Y-90215652D01*
X166796959Y-90202393D01*
X166792939Y-90201593D01*
X166776188Y-90190401D01*
X166740214Y-90169631D01*
X166733974Y-90162194D01*
X166727279Y-90157721D01*
X166715780Y-90140511D01*
X166698863Y-90120350D01*
X166696556Y-90111740D01*
X166683407Y-90092061D01*
X166668001Y-90014610D01*
X166668001Y-90005172D01*
X166666285Y-89998768D01*
X166666285Y-89685710D01*
X166668001Y-89675978D01*
X166668001Y-89675390D01*
X166668915Y-89670797D01*
X166680369Y-89605837D01*
X166682607Y-89601960D01*
X166683407Y-89597939D01*
X166694602Y-89581185D01*
X166715369Y-89545214D01*
X166722805Y-89538974D01*
X166727279Y-89532279D01*
X166744492Y-89520778D01*
X166764651Y-89503863D01*
X166773259Y-89501556D01*
X166792939Y-89488407D01*
X166870390Y-89473001D01*
X166879828Y-89473001D01*
X166886232Y-89471285D01*
X167149290Y-89471285D01*
X167159022Y-89473001D01*
X167159022Y-89473001D01*
G37*
G36*
X168129022Y-89473001D02*
G01*
X168129610Y-89473001D01*
X168134203Y-89473915D01*
X168199163Y-89485369D01*
X168203040Y-89487607D01*
X168207061Y-89488407D01*
X168223815Y-89499602D01*
X168259786Y-89520369D01*
X168266026Y-89527805D01*
X168272721Y-89532279D01*
X168284222Y-89549492D01*
X168301137Y-89569651D01*
X168303444Y-89578259D01*
X168316593Y-89597939D01*
X168331999Y-89675390D01*
X168331999Y-89684828D01*
X168333715Y-89691232D01*
X168333715Y-90004290D01*
X168331999Y-90014022D01*
X168331999Y-90014610D01*
X168331085Y-90019203D01*
X168319631Y-90084163D01*
X168317393Y-90088040D01*
X168316593Y-90092061D01*
X168305398Y-90108815D01*
X168284631Y-90144786D01*
X168277194Y-90151026D01*
X168272721Y-90157721D01*
X168255514Y-90169218D01*
X168235350Y-90186138D01*
X168226738Y-90188445D01*
X168207061Y-90201593D01*
X168185858Y-90205811D01*
X168144487Y-90231027D01*
X168113712Y-90294380D01*
X168122073Y-90364314D01*
X168166916Y-90418626D01*
X168180259Y-90424030D01*
X168180075Y-90424348D01*
X168203041Y-90437607D01*
X168207061Y-90438407D01*
X168223812Y-90449599D01*
X168259786Y-90470369D01*
X168266026Y-90477805D01*
X168272721Y-90482279D01*
X168284222Y-90499492D01*
X168301137Y-90519651D01*
X168303444Y-90528259D01*
X168316593Y-90547939D01*
X168331999Y-90625390D01*
X168331999Y-90634828D01*
X168333715Y-90641232D01*
X168333715Y-90954290D01*
X168331999Y-90964022D01*
X168331999Y-90964610D01*
X168331085Y-90969203D01*
X168319631Y-91034163D01*
X168317393Y-91038040D01*
X168316593Y-91042061D01*
X168305398Y-91058815D01*
X168284631Y-91094786D01*
X168277194Y-91101026D01*
X168272721Y-91107721D01*
X168255511Y-91119220D01*
X168235350Y-91136137D01*
X168226740Y-91138444D01*
X168207061Y-91151593D01*
X168129610Y-91166999D01*
X168120172Y-91166999D01*
X168113768Y-91168715D01*
X167850710Y-91168715D01*
X167840978Y-91166999D01*
X167840390Y-91166999D01*
X167835797Y-91166085D01*
X167770837Y-91154631D01*
X167766960Y-91152393D01*
X167762939Y-91151593D01*
X167746185Y-91140398D01*
X167710214Y-91119631D01*
X167703974Y-91112194D01*
X167697279Y-91107721D01*
X167685780Y-91090511D01*
X167668863Y-91070350D01*
X167666556Y-91061740D01*
X167653407Y-91042061D01*
X167638001Y-90964610D01*
X167638001Y-90955172D01*
X167636285Y-90948768D01*
X167636285Y-90635710D01*
X167638001Y-90625978D01*
X167638001Y-90625390D01*
X167638915Y-90620797D01*
X167650369Y-90555837D01*
X167652607Y-90551960D01*
X167653407Y-90547939D01*
X167664602Y-90531185D01*
X167685369Y-90495214D01*
X167692805Y-90488974D01*
X167697279Y-90482279D01*
X167714492Y-90470778D01*
X167734651Y-90453863D01*
X167743259Y-90451556D01*
X167762939Y-90438407D01*
X167784144Y-90434189D01*
X167825514Y-90408973D01*
X167856289Y-90345620D01*
X167847928Y-90275686D01*
X167803085Y-90221374D01*
X167789741Y-90215970D01*
X167789925Y-90215652D01*
X167766959Y-90202393D01*
X167762939Y-90201593D01*
X167746188Y-90190401D01*
X167710214Y-90169631D01*
X167703974Y-90162194D01*
X167697279Y-90157721D01*
X167685780Y-90140511D01*
X167668863Y-90120350D01*
X167666556Y-90111740D01*
X167653407Y-90092061D01*
X167638001Y-90014610D01*
X167638001Y-90005172D01*
X167636285Y-89998768D01*
X167636285Y-89685710D01*
X167638001Y-89675978D01*
X167638001Y-89675390D01*
X167638915Y-89670797D01*
X167650369Y-89605837D01*
X167652607Y-89601960D01*
X167653407Y-89597939D01*
X167664602Y-89581185D01*
X167685369Y-89545214D01*
X167692805Y-89538974D01*
X167697279Y-89532279D01*
X167714492Y-89520778D01*
X167734651Y-89503863D01*
X167743259Y-89501556D01*
X167762939Y-89488407D01*
X167840390Y-89473001D01*
X167849828Y-89473001D01*
X167856232Y-89471285D01*
X168119290Y-89471285D01*
X168129022Y-89473001D01*
X168129022Y-89473001D01*
G37*
G36*
X43879022Y-90278001D02*
G01*
X43879610Y-90278001D01*
X43884203Y-90278915D01*
X43949163Y-90290369D01*
X43953040Y-90292607D01*
X43957061Y-90293407D01*
X43973815Y-90304602D01*
X44009786Y-90325369D01*
X44016026Y-90332805D01*
X44022721Y-90337279D01*
X44034222Y-90354492D01*
X44051137Y-90374651D01*
X44053444Y-90383259D01*
X44066593Y-90402939D01*
X44081999Y-90480390D01*
X44081999Y-90489828D01*
X44083715Y-90496232D01*
X44083715Y-90809290D01*
X44081999Y-90819022D01*
X44081999Y-90819610D01*
X44081085Y-90824203D01*
X44069631Y-90889163D01*
X44067393Y-90893040D01*
X44066593Y-90897061D01*
X44055398Y-90913815D01*
X44034631Y-90949786D01*
X44027194Y-90956026D01*
X44022721Y-90962721D01*
X44005511Y-90974220D01*
X43985350Y-90991137D01*
X43976740Y-90993444D01*
X43957061Y-91006593D01*
X43879610Y-91021999D01*
X43870172Y-91021999D01*
X43863768Y-91023715D01*
X43600710Y-91023715D01*
X43590978Y-91021999D01*
X43590390Y-91021999D01*
X43585797Y-91021085D01*
X43520837Y-91009631D01*
X43516960Y-91007393D01*
X43512939Y-91006593D01*
X43496185Y-90995398D01*
X43460214Y-90974631D01*
X43453974Y-90967194D01*
X43447279Y-90962721D01*
X43435780Y-90945511D01*
X43418863Y-90925350D01*
X43416556Y-90916740D01*
X43403407Y-90897061D01*
X43388001Y-90819610D01*
X43388001Y-90810172D01*
X43386285Y-90803768D01*
X43386285Y-90490710D01*
X43388001Y-90480978D01*
X43388001Y-90480390D01*
X43388915Y-90475797D01*
X43400369Y-90410837D01*
X43402607Y-90406960D01*
X43403407Y-90402939D01*
X43414602Y-90386185D01*
X43435369Y-90350214D01*
X43442805Y-90343974D01*
X43447279Y-90337279D01*
X43464492Y-90325778D01*
X43484651Y-90308863D01*
X43493259Y-90306556D01*
X43512939Y-90293407D01*
X43590390Y-90278001D01*
X43599828Y-90278001D01*
X43606232Y-90276285D01*
X43869290Y-90276285D01*
X43879022Y-90278001D01*
X43879022Y-90278001D01*
G37*
G36*
X126270158Y-89685691D02*
G01*
X126306063Y-89683778D01*
X126341448Y-89690177D01*
X126382836Y-89692781D01*
X126416709Y-89703787D01*
X126446266Y-89709132D01*
X126484653Y-89725863D01*
X126529655Y-89740485D01*
X126554772Y-89756425D01*
X126576874Y-89766058D01*
X126615135Y-89794732D01*
X126659997Y-89823203D01*
X126676328Y-89840593D01*
X126690886Y-89851504D01*
X126725357Y-89892804D01*
X126765674Y-89935737D01*
X126774325Y-89951473D01*
X126782184Y-89960889D01*
X126808946Y-90014449D01*
X126840044Y-90071016D01*
X126843039Y-90082680D01*
X126845867Y-90088340D01*
X126861077Y-90152931D01*
X126878436Y-90220541D01*
X126878436Y-90374915D01*
X126861765Y-90439845D01*
X126842124Y-90517180D01*
X126841699Y-90517995D01*
X126840044Y-90524440D01*
X126806620Y-90585239D01*
X126776226Y-90643501D01*
X126771734Y-90648696D01*
X126765674Y-90659719D01*
X126721830Y-90706408D01*
X126683034Y-90751274D01*
X126672656Y-90758773D01*
X126659997Y-90772253D01*
X126610708Y-90803533D01*
X126567548Y-90834718D01*
X126550251Y-90841900D01*
X126529655Y-90854971D01*
X126479626Y-90871226D01*
X126435967Y-90889355D01*
X126411635Y-90893318D01*
X126382836Y-90902675D01*
X126336141Y-90905613D01*
X126295340Y-90912258D01*
X126264846Y-90910099D01*
X126228766Y-90912369D01*
X126188543Y-90904696D01*
X126153222Y-90902195D01*
X126118396Y-90891315D01*
X126077126Y-90883442D01*
X126045379Y-90868503D01*
X126017222Y-90859706D01*
X125980727Y-90838080D01*
X125937444Y-90817712D01*
X125914941Y-90799096D01*
X125894657Y-90787076D01*
X125859841Y-90753514D01*
X125818496Y-90719310D01*
X125804787Y-90700442D01*
X125792077Y-90688189D01*
X125762680Y-90642486D01*
X125727757Y-90594419D01*
X125721345Y-90578223D01*
X125715003Y-90568364D01*
X125694885Y-90511394D01*
X125670928Y-90450885D01*
X125669486Y-90439467D01*
X125667561Y-90434017D01*
X125660387Y-90367447D01*
X125651580Y-90297728D01*
X125657652Y-90249661D01*
X125670030Y-90150989D01*
X125670162Y-90150635D01*
X125670928Y-90144571D01*
X125696620Y-90079680D01*
X125719808Y-90017495D01*
X125723325Y-90012232D01*
X125727757Y-90001037D01*
X125765698Y-89948816D01*
X125798966Y-89899027D01*
X125807944Y-89890670D01*
X125818496Y-89876146D01*
X125863872Y-89838608D01*
X125903251Y-89801951D01*
X125919062Y-89792951D01*
X125937444Y-89777744D01*
X125985518Y-89755122D01*
X126027072Y-89731468D01*
X126050209Y-89724680D01*
X126077126Y-89712014D01*
X126123612Y-89703146D01*
X126163788Y-89691360D01*
X126193775Y-89689762D01*
X126228766Y-89683087D01*
X126270158Y-89685691D01*
X126270158Y-89685691D01*
G37*
G36*
X124035286Y-89685691D02*
G01*
X124071191Y-89683778D01*
X124106576Y-89690177D01*
X124147964Y-89692781D01*
X124181837Y-89703787D01*
X124211394Y-89709132D01*
X124249781Y-89725863D01*
X124294783Y-89740485D01*
X124319900Y-89756425D01*
X124342002Y-89766058D01*
X124380263Y-89794732D01*
X124425125Y-89823203D01*
X124441456Y-89840593D01*
X124456014Y-89851504D01*
X124490485Y-89892804D01*
X124530802Y-89935737D01*
X124539453Y-89951473D01*
X124547312Y-89960889D01*
X124574074Y-90014449D01*
X124605172Y-90071016D01*
X124608167Y-90082680D01*
X124610995Y-90088340D01*
X124626205Y-90152931D01*
X124643564Y-90220541D01*
X124643564Y-90374915D01*
X124626893Y-90439845D01*
X124607252Y-90517180D01*
X124606827Y-90517995D01*
X124605172Y-90524440D01*
X124571748Y-90585239D01*
X124541354Y-90643501D01*
X124536862Y-90648696D01*
X124530802Y-90659719D01*
X124486958Y-90706408D01*
X124448162Y-90751274D01*
X124437784Y-90758773D01*
X124425125Y-90772253D01*
X124375836Y-90803533D01*
X124332676Y-90834718D01*
X124315379Y-90841900D01*
X124294783Y-90854971D01*
X124244754Y-90871226D01*
X124201095Y-90889355D01*
X124176763Y-90893318D01*
X124147964Y-90902675D01*
X124101269Y-90905613D01*
X124060468Y-90912258D01*
X124029974Y-90910099D01*
X123993894Y-90912369D01*
X123953671Y-90904696D01*
X123918350Y-90902195D01*
X123883524Y-90891315D01*
X123842254Y-90883442D01*
X123810507Y-90868503D01*
X123782350Y-90859706D01*
X123745855Y-90838080D01*
X123702572Y-90817712D01*
X123680069Y-90799096D01*
X123659785Y-90787076D01*
X123624969Y-90753514D01*
X123583624Y-90719310D01*
X123569915Y-90700442D01*
X123557205Y-90688189D01*
X123527808Y-90642486D01*
X123492885Y-90594419D01*
X123486473Y-90578223D01*
X123480131Y-90568364D01*
X123460013Y-90511394D01*
X123436056Y-90450885D01*
X123434614Y-90439467D01*
X123432689Y-90434017D01*
X123425515Y-90367447D01*
X123416708Y-90297728D01*
X123422780Y-90249661D01*
X123435158Y-90150989D01*
X123435290Y-90150635D01*
X123436056Y-90144571D01*
X123461748Y-90079680D01*
X123484936Y-90017495D01*
X123488453Y-90012232D01*
X123492885Y-90001037D01*
X123530826Y-89948816D01*
X123564094Y-89899027D01*
X123573072Y-89890670D01*
X123583624Y-89876146D01*
X123629000Y-89838608D01*
X123668379Y-89801951D01*
X123684190Y-89792951D01*
X123702572Y-89777744D01*
X123750646Y-89755122D01*
X123792200Y-89731468D01*
X123815337Y-89724680D01*
X123842254Y-89712014D01*
X123888740Y-89703146D01*
X123928916Y-89691360D01*
X123958903Y-89689762D01*
X123993894Y-89683087D01*
X124035286Y-89685691D01*
X124035286Y-89685691D01*
G37*
G36*
X165569022Y-90118001D02*
G01*
X165569610Y-90118001D01*
X165574203Y-90118915D01*
X165639163Y-90130369D01*
X165643040Y-90132607D01*
X165647061Y-90133407D01*
X165663815Y-90144602D01*
X165699786Y-90165369D01*
X165706026Y-90172805D01*
X165712721Y-90177279D01*
X165724222Y-90194492D01*
X165741137Y-90214651D01*
X165743444Y-90223259D01*
X165756593Y-90242939D01*
X165771999Y-90320390D01*
X165771999Y-90329828D01*
X165773715Y-90336232D01*
X165773715Y-90599290D01*
X165771999Y-90609022D01*
X165771999Y-90609610D01*
X165771085Y-90614203D01*
X165759631Y-90679163D01*
X165757393Y-90683040D01*
X165756593Y-90687061D01*
X165745398Y-90703815D01*
X165724631Y-90739786D01*
X165717194Y-90746026D01*
X165712721Y-90752721D01*
X165695511Y-90764220D01*
X165675350Y-90781137D01*
X165666740Y-90783444D01*
X165647061Y-90796593D01*
X165569610Y-90811999D01*
X165560172Y-90811999D01*
X165553768Y-90813715D01*
X165240710Y-90813715D01*
X165230978Y-90811999D01*
X165230390Y-90811999D01*
X165225797Y-90811085D01*
X165160837Y-90799631D01*
X165156960Y-90797393D01*
X165152939Y-90796593D01*
X165136185Y-90785398D01*
X165100214Y-90764631D01*
X165093974Y-90757194D01*
X165087279Y-90752721D01*
X165075780Y-90735511D01*
X165058863Y-90715350D01*
X165056556Y-90706740D01*
X165043407Y-90687061D01*
X165028001Y-90609610D01*
X165028001Y-90600172D01*
X165026285Y-90593768D01*
X165026285Y-90330710D01*
X165028001Y-90320978D01*
X165028001Y-90320390D01*
X165028915Y-90315797D01*
X165040369Y-90250837D01*
X165042607Y-90246960D01*
X165043407Y-90242939D01*
X165054602Y-90226185D01*
X165075369Y-90190214D01*
X165082805Y-90183974D01*
X165087279Y-90177279D01*
X165104492Y-90165778D01*
X165124651Y-90148863D01*
X165133259Y-90146556D01*
X165152939Y-90133407D01*
X165230390Y-90118001D01*
X165239828Y-90118001D01*
X165246232Y-90116285D01*
X165559290Y-90116285D01*
X165569022Y-90118001D01*
X165569022Y-90118001D01*
G37*
G36*
X160269022Y-89953001D02*
G01*
X160269610Y-89953001D01*
X160274203Y-89953915D01*
X160339163Y-89965369D01*
X160343040Y-89967607D01*
X160347061Y-89968407D01*
X160363815Y-89979602D01*
X160399786Y-90000369D01*
X160406026Y-90007805D01*
X160412721Y-90012279D01*
X160424222Y-90029492D01*
X160441137Y-90049651D01*
X160443444Y-90058259D01*
X160456593Y-90077939D01*
X160471999Y-90155390D01*
X160471999Y-90164828D01*
X160473715Y-90171232D01*
X160473715Y-90434290D01*
X160471999Y-90444022D01*
X160471999Y-90444610D01*
X160471085Y-90449203D01*
X160459631Y-90514163D01*
X160457393Y-90518040D01*
X160456593Y-90522061D01*
X160445398Y-90538815D01*
X160424631Y-90574786D01*
X160417194Y-90581026D01*
X160412721Y-90587721D01*
X160395511Y-90599220D01*
X160375350Y-90616137D01*
X160366740Y-90618444D01*
X160347061Y-90631593D01*
X160269610Y-90646999D01*
X160260172Y-90646999D01*
X160253768Y-90648715D01*
X159940710Y-90648715D01*
X159930978Y-90646999D01*
X159930390Y-90646999D01*
X159925797Y-90646085D01*
X159860837Y-90634631D01*
X159856960Y-90632393D01*
X159852939Y-90631593D01*
X159836185Y-90620398D01*
X159800214Y-90599631D01*
X159793974Y-90592194D01*
X159787279Y-90587721D01*
X159775780Y-90570511D01*
X159758863Y-90550350D01*
X159756556Y-90541740D01*
X159743407Y-90522061D01*
X159728001Y-90444610D01*
X159728001Y-90435172D01*
X159726285Y-90428768D01*
X159726285Y-90165710D01*
X159728001Y-90155978D01*
X159728001Y-90155390D01*
X159728915Y-90150797D01*
X159740369Y-90085837D01*
X159742607Y-90081960D01*
X159743407Y-90077939D01*
X159754602Y-90061185D01*
X159775369Y-90025214D01*
X159782805Y-90018974D01*
X159787279Y-90012279D01*
X159804492Y-90000778D01*
X159824651Y-89983863D01*
X159833259Y-89981556D01*
X159852939Y-89968407D01*
X159930390Y-89953001D01*
X159939828Y-89953001D01*
X159946232Y-89951285D01*
X160259290Y-89951285D01*
X160269022Y-89953001D01*
X160269022Y-89953001D01*
G37*
G36*
X161269022Y-89953001D02*
G01*
X161269610Y-89953001D01*
X161274203Y-89953915D01*
X161339163Y-89965369D01*
X161343040Y-89967607D01*
X161347061Y-89968407D01*
X161363815Y-89979602D01*
X161399786Y-90000369D01*
X161406026Y-90007805D01*
X161412721Y-90012279D01*
X161424222Y-90029492D01*
X161441137Y-90049651D01*
X161443444Y-90058259D01*
X161456593Y-90077939D01*
X161471999Y-90155390D01*
X161471999Y-90164828D01*
X161473715Y-90171232D01*
X161473715Y-90434290D01*
X161471999Y-90444022D01*
X161471999Y-90444610D01*
X161471085Y-90449203D01*
X161459631Y-90514163D01*
X161457393Y-90518040D01*
X161456593Y-90522061D01*
X161445398Y-90538815D01*
X161424631Y-90574786D01*
X161417194Y-90581026D01*
X161412721Y-90587721D01*
X161395511Y-90599220D01*
X161375350Y-90616137D01*
X161366740Y-90618444D01*
X161347061Y-90631593D01*
X161269610Y-90646999D01*
X161260172Y-90646999D01*
X161253768Y-90648715D01*
X160940710Y-90648715D01*
X160930978Y-90646999D01*
X160930390Y-90646999D01*
X160925797Y-90646085D01*
X160860837Y-90634631D01*
X160856960Y-90632393D01*
X160852939Y-90631593D01*
X160836185Y-90620398D01*
X160800214Y-90599631D01*
X160793974Y-90592194D01*
X160787279Y-90587721D01*
X160775780Y-90570511D01*
X160758863Y-90550350D01*
X160756556Y-90541740D01*
X160743407Y-90522061D01*
X160728001Y-90444610D01*
X160728001Y-90435172D01*
X160726285Y-90428768D01*
X160726285Y-90165710D01*
X160728001Y-90155978D01*
X160728001Y-90155390D01*
X160728915Y-90150797D01*
X160740369Y-90085837D01*
X160742607Y-90081960D01*
X160743407Y-90077939D01*
X160754602Y-90061185D01*
X160775369Y-90025214D01*
X160782805Y-90018974D01*
X160787279Y-90012279D01*
X160804492Y-90000778D01*
X160824651Y-89983863D01*
X160833259Y-89981556D01*
X160852939Y-89968407D01*
X160930390Y-89953001D01*
X160939828Y-89953001D01*
X160946232Y-89951285D01*
X161259290Y-89951285D01*
X161269022Y-89953001D01*
X161269022Y-89953001D01*
G37*
G36*
X45319022Y-89788001D02*
G01*
X45319610Y-89788001D01*
X45324203Y-89788915D01*
X45389163Y-89800369D01*
X45393040Y-89802607D01*
X45397061Y-89803407D01*
X45413815Y-89814602D01*
X45449786Y-89835369D01*
X45456026Y-89842805D01*
X45462721Y-89847279D01*
X45474222Y-89864492D01*
X45491137Y-89884651D01*
X45493444Y-89893259D01*
X45506593Y-89912939D01*
X45521999Y-89990390D01*
X45521999Y-89999828D01*
X45523715Y-90006232D01*
X45523715Y-90269290D01*
X45521999Y-90279022D01*
X45521999Y-90279610D01*
X45521085Y-90284203D01*
X45509631Y-90349163D01*
X45507393Y-90353040D01*
X45506593Y-90357061D01*
X45495398Y-90373815D01*
X45474631Y-90409786D01*
X45467194Y-90416026D01*
X45462721Y-90422721D01*
X45445511Y-90434220D01*
X45425350Y-90451137D01*
X45416740Y-90453444D01*
X45397061Y-90466593D01*
X45319610Y-90481999D01*
X45310172Y-90481999D01*
X45303768Y-90483715D01*
X44990710Y-90483715D01*
X44980978Y-90481999D01*
X44980390Y-90481999D01*
X44975797Y-90481085D01*
X44910837Y-90469631D01*
X44906960Y-90467393D01*
X44902939Y-90466593D01*
X44886185Y-90455398D01*
X44850214Y-90434631D01*
X44843974Y-90427194D01*
X44837279Y-90422721D01*
X44825780Y-90405511D01*
X44808863Y-90385350D01*
X44806556Y-90376740D01*
X44793407Y-90357061D01*
X44778001Y-90279610D01*
X44778001Y-90270172D01*
X44776285Y-90263768D01*
X44776285Y-90000710D01*
X44778001Y-89990978D01*
X44778001Y-89990390D01*
X44778915Y-89985797D01*
X44790369Y-89920837D01*
X44792607Y-89916960D01*
X44793407Y-89912939D01*
X44804602Y-89896185D01*
X44825369Y-89860214D01*
X44832805Y-89853974D01*
X44837279Y-89847279D01*
X44854492Y-89835778D01*
X44874651Y-89818863D01*
X44883259Y-89816556D01*
X44902939Y-89803407D01*
X44980390Y-89788001D01*
X44989828Y-89788001D01*
X44996232Y-89786285D01*
X45309290Y-89786285D01*
X45319022Y-89788001D01*
X45319022Y-89788001D01*
G37*
G36*
X47729022Y-89628001D02*
G01*
X47729610Y-89628001D01*
X47734203Y-89628915D01*
X47799163Y-89640369D01*
X47803040Y-89642607D01*
X47807061Y-89643407D01*
X47823815Y-89654602D01*
X47859786Y-89675369D01*
X47866026Y-89682805D01*
X47872721Y-89687279D01*
X47884222Y-89704492D01*
X47901137Y-89724651D01*
X47903444Y-89733259D01*
X47916593Y-89752939D01*
X47931999Y-89830390D01*
X47931999Y-89839828D01*
X47933715Y-89846232D01*
X47933715Y-90159290D01*
X47931999Y-90169022D01*
X47931999Y-90169610D01*
X47931085Y-90174203D01*
X47919631Y-90239163D01*
X47917393Y-90243040D01*
X47916593Y-90247061D01*
X47905398Y-90263815D01*
X47884631Y-90299786D01*
X47877194Y-90306026D01*
X47872721Y-90312721D01*
X47855511Y-90324220D01*
X47835350Y-90341137D01*
X47826740Y-90343444D01*
X47807061Y-90356593D01*
X47729610Y-90371999D01*
X47720172Y-90371999D01*
X47713768Y-90373715D01*
X47450710Y-90373715D01*
X47440978Y-90371999D01*
X47440390Y-90371999D01*
X47435797Y-90371085D01*
X47370837Y-90359631D01*
X47366960Y-90357393D01*
X47362939Y-90356593D01*
X47346185Y-90345398D01*
X47310214Y-90324631D01*
X47303974Y-90317194D01*
X47297279Y-90312721D01*
X47285780Y-90295511D01*
X47268863Y-90275350D01*
X47266556Y-90266740D01*
X47253407Y-90247061D01*
X47238001Y-90169610D01*
X47238001Y-90160172D01*
X47236285Y-90153768D01*
X47236285Y-89840710D01*
X47238001Y-89830978D01*
X47238001Y-89830390D01*
X47238915Y-89825797D01*
X47250369Y-89760837D01*
X47252607Y-89756960D01*
X47253407Y-89752939D01*
X47264602Y-89736185D01*
X47285369Y-89700214D01*
X47292805Y-89693974D01*
X47297279Y-89687279D01*
X47314492Y-89675778D01*
X47334651Y-89658863D01*
X47343259Y-89656556D01*
X47362939Y-89643407D01*
X47440390Y-89628001D01*
X47449828Y-89628001D01*
X47456232Y-89626285D01*
X47719290Y-89626285D01*
X47729022Y-89628001D01*
X47729022Y-89628001D01*
G37*
G36*
X46759022Y-89628001D02*
G01*
X46759610Y-89628001D01*
X46764203Y-89628915D01*
X46829163Y-89640369D01*
X46833040Y-89642607D01*
X46837061Y-89643407D01*
X46853815Y-89654602D01*
X46889786Y-89675369D01*
X46896026Y-89682805D01*
X46902721Y-89687279D01*
X46914222Y-89704492D01*
X46931137Y-89724651D01*
X46933444Y-89733259D01*
X46946593Y-89752939D01*
X46961999Y-89830390D01*
X46961999Y-89839828D01*
X46963715Y-89846232D01*
X46963715Y-90159290D01*
X46961999Y-90169022D01*
X46961999Y-90169610D01*
X46961085Y-90174203D01*
X46949631Y-90239163D01*
X46947393Y-90243040D01*
X46946593Y-90247061D01*
X46935398Y-90263815D01*
X46914631Y-90299786D01*
X46907194Y-90306026D01*
X46902721Y-90312721D01*
X46885511Y-90324220D01*
X46865350Y-90341137D01*
X46856740Y-90343444D01*
X46837061Y-90356593D01*
X46759610Y-90371999D01*
X46750172Y-90371999D01*
X46743768Y-90373715D01*
X46480710Y-90373715D01*
X46470978Y-90371999D01*
X46470390Y-90371999D01*
X46465797Y-90371085D01*
X46400837Y-90359631D01*
X46396960Y-90357393D01*
X46392939Y-90356593D01*
X46376185Y-90345398D01*
X46340214Y-90324631D01*
X46333974Y-90317194D01*
X46327279Y-90312721D01*
X46315780Y-90295511D01*
X46298863Y-90275350D01*
X46296556Y-90266740D01*
X46283407Y-90247061D01*
X46268001Y-90169610D01*
X46268001Y-90160172D01*
X46266285Y-90153768D01*
X46266285Y-89840710D01*
X46268001Y-89830978D01*
X46268001Y-89830390D01*
X46268915Y-89825797D01*
X46280369Y-89760837D01*
X46282607Y-89756960D01*
X46283407Y-89752939D01*
X46294602Y-89736185D01*
X46315369Y-89700214D01*
X46322805Y-89693974D01*
X46327279Y-89687279D01*
X46344492Y-89675778D01*
X46364651Y-89658863D01*
X46373259Y-89656556D01*
X46392939Y-89643407D01*
X46470390Y-89628001D01*
X46479828Y-89628001D01*
X46486232Y-89626285D01*
X46749290Y-89626285D01*
X46759022Y-89628001D01*
X46759022Y-89628001D01*
G37*
G36*
X162809022Y-89628001D02*
G01*
X162809610Y-89628001D01*
X162814203Y-89628915D01*
X162879163Y-89640369D01*
X162883040Y-89642607D01*
X162887061Y-89643407D01*
X162903815Y-89654602D01*
X162939786Y-89675369D01*
X162946026Y-89682805D01*
X162952721Y-89687279D01*
X162964222Y-89704492D01*
X162981137Y-89724651D01*
X162983444Y-89733259D01*
X162996593Y-89752939D01*
X163011999Y-89830390D01*
X163011999Y-89839828D01*
X163013715Y-89846232D01*
X163013715Y-90159290D01*
X163011999Y-90169022D01*
X163011999Y-90169610D01*
X163011085Y-90174203D01*
X162999631Y-90239163D01*
X162997393Y-90243040D01*
X162996593Y-90247061D01*
X162985398Y-90263815D01*
X162964631Y-90299786D01*
X162957194Y-90306026D01*
X162952721Y-90312721D01*
X162935511Y-90324220D01*
X162915350Y-90341137D01*
X162906740Y-90343444D01*
X162887061Y-90356593D01*
X162809610Y-90371999D01*
X162800172Y-90371999D01*
X162793768Y-90373715D01*
X162530710Y-90373715D01*
X162520978Y-90371999D01*
X162520390Y-90371999D01*
X162515797Y-90371085D01*
X162450837Y-90359631D01*
X162446960Y-90357393D01*
X162442939Y-90356593D01*
X162426185Y-90345398D01*
X162390214Y-90324631D01*
X162383974Y-90317194D01*
X162377279Y-90312721D01*
X162365780Y-90295511D01*
X162348863Y-90275350D01*
X162346556Y-90266740D01*
X162333407Y-90247061D01*
X162318001Y-90169610D01*
X162318001Y-90160172D01*
X162316285Y-90153768D01*
X162316285Y-89840710D01*
X162318001Y-89830978D01*
X162318001Y-89830390D01*
X162318915Y-89825797D01*
X162330369Y-89760837D01*
X162332607Y-89756960D01*
X162333407Y-89752939D01*
X162344602Y-89736185D01*
X162365369Y-89700214D01*
X162372805Y-89693974D01*
X162377279Y-89687279D01*
X162394492Y-89675778D01*
X162414651Y-89658863D01*
X162423259Y-89656556D01*
X162442939Y-89643407D01*
X162520390Y-89628001D01*
X162529828Y-89628001D01*
X162536232Y-89626285D01*
X162799290Y-89626285D01*
X162809022Y-89628001D01*
X162809022Y-89628001D01*
G37*
G36*
X163779022Y-89628001D02*
G01*
X163779610Y-89628001D01*
X163784203Y-89628915D01*
X163849163Y-89640369D01*
X163853040Y-89642607D01*
X163857061Y-89643407D01*
X163873815Y-89654602D01*
X163909786Y-89675369D01*
X163916026Y-89682805D01*
X163922721Y-89687279D01*
X163934222Y-89704492D01*
X163951137Y-89724651D01*
X163953444Y-89733259D01*
X163966593Y-89752939D01*
X163981999Y-89830390D01*
X163981999Y-89839828D01*
X163983715Y-89846232D01*
X163983715Y-90159290D01*
X163981999Y-90169022D01*
X163981999Y-90169610D01*
X163981085Y-90174203D01*
X163969631Y-90239163D01*
X163967393Y-90243040D01*
X163966593Y-90247061D01*
X163955398Y-90263815D01*
X163934631Y-90299786D01*
X163927194Y-90306026D01*
X163922721Y-90312721D01*
X163905511Y-90324220D01*
X163885350Y-90341137D01*
X163876740Y-90343444D01*
X163857061Y-90356593D01*
X163779610Y-90371999D01*
X163770172Y-90371999D01*
X163763768Y-90373715D01*
X163500710Y-90373715D01*
X163490978Y-90371999D01*
X163490390Y-90371999D01*
X163485797Y-90371085D01*
X163420837Y-90359631D01*
X163416960Y-90357393D01*
X163412939Y-90356593D01*
X163396185Y-90345398D01*
X163360214Y-90324631D01*
X163353974Y-90317194D01*
X163347279Y-90312721D01*
X163335780Y-90295511D01*
X163318863Y-90275350D01*
X163316556Y-90266740D01*
X163303407Y-90247061D01*
X163288001Y-90169610D01*
X163288001Y-90160172D01*
X163286285Y-90153768D01*
X163286285Y-89840710D01*
X163288001Y-89830978D01*
X163288001Y-89830390D01*
X163288915Y-89825797D01*
X163300369Y-89760837D01*
X163302607Y-89756960D01*
X163303407Y-89752939D01*
X163314602Y-89736185D01*
X163335369Y-89700214D01*
X163342805Y-89693974D01*
X163347279Y-89687279D01*
X163364492Y-89675778D01*
X163384651Y-89658863D01*
X163393259Y-89656556D01*
X163412939Y-89643407D01*
X163490390Y-89628001D01*
X163499828Y-89628001D01*
X163506232Y-89626285D01*
X163769290Y-89626285D01*
X163779022Y-89628001D01*
X163779022Y-89628001D01*
G37*
G36*
X41869022Y-89653001D02*
G01*
X41869610Y-89653001D01*
X41874203Y-89653915D01*
X41939163Y-89665369D01*
X41943040Y-89667607D01*
X41947061Y-89668407D01*
X41963815Y-89679602D01*
X41999786Y-89700369D01*
X42006026Y-89707805D01*
X42012721Y-89712279D01*
X42024222Y-89729492D01*
X42041137Y-89749651D01*
X42043444Y-89758259D01*
X42056593Y-89777939D01*
X42071999Y-89855390D01*
X42071999Y-89864828D01*
X42073715Y-89871232D01*
X42073715Y-90134290D01*
X42071999Y-90144022D01*
X42071999Y-90144610D01*
X42071085Y-90149203D01*
X42059631Y-90214163D01*
X42057393Y-90218040D01*
X42056593Y-90222061D01*
X42045398Y-90238815D01*
X42024631Y-90274786D01*
X42017194Y-90281026D01*
X42012721Y-90287721D01*
X41995511Y-90299220D01*
X41975350Y-90316137D01*
X41966740Y-90318444D01*
X41947061Y-90331593D01*
X41869610Y-90346999D01*
X41860172Y-90346999D01*
X41853768Y-90348715D01*
X41540710Y-90348715D01*
X41530978Y-90346999D01*
X41530390Y-90346999D01*
X41525797Y-90346085D01*
X41460837Y-90334631D01*
X41456960Y-90332393D01*
X41452939Y-90331593D01*
X41436185Y-90320398D01*
X41400214Y-90299631D01*
X41393974Y-90292194D01*
X41387279Y-90287721D01*
X41375782Y-90270514D01*
X41358862Y-90250350D01*
X41356555Y-90241738D01*
X41343407Y-90222061D01*
X41339189Y-90200858D01*
X41313973Y-90159487D01*
X41250620Y-90128712D01*
X41180686Y-90137073D01*
X41126374Y-90181916D01*
X41120970Y-90195260D01*
X41120652Y-90195077D01*
X41107393Y-90218043D01*
X41106593Y-90222063D01*
X41095401Y-90238814D01*
X41074631Y-90274788D01*
X41067194Y-90281028D01*
X41062721Y-90287723D01*
X41045511Y-90299222D01*
X41025350Y-90316139D01*
X41016740Y-90318446D01*
X40997061Y-90331595D01*
X40919610Y-90347001D01*
X40910172Y-90347001D01*
X40903768Y-90348717D01*
X40590710Y-90348717D01*
X40580978Y-90347001D01*
X40580390Y-90347001D01*
X40575797Y-90346087D01*
X40510837Y-90334633D01*
X40506960Y-90332395D01*
X40502939Y-90331595D01*
X40486185Y-90320400D01*
X40450214Y-90299633D01*
X40443974Y-90292196D01*
X40437279Y-90287723D01*
X40425780Y-90270513D01*
X40408863Y-90250352D01*
X40406556Y-90241742D01*
X40393407Y-90222063D01*
X40378001Y-90144612D01*
X40378001Y-90135174D01*
X40376285Y-90128770D01*
X40376285Y-89865712D01*
X40378001Y-89855980D01*
X40378001Y-89855392D01*
X40378915Y-89850799D01*
X40390369Y-89785839D01*
X40392607Y-89781962D01*
X40393407Y-89777941D01*
X40404602Y-89761187D01*
X40425369Y-89725216D01*
X40432805Y-89718976D01*
X40437279Y-89712281D01*
X40454492Y-89700780D01*
X40474651Y-89683865D01*
X40483259Y-89681558D01*
X40502939Y-89668409D01*
X40580390Y-89653003D01*
X40589828Y-89653003D01*
X40596232Y-89651287D01*
X40909290Y-89651287D01*
X40919022Y-89653003D01*
X40919610Y-89653003D01*
X40924203Y-89653917D01*
X40989163Y-89665371D01*
X40993040Y-89667609D01*
X40997061Y-89668409D01*
X41013815Y-89679604D01*
X41049786Y-89700371D01*
X41056026Y-89707808D01*
X41062721Y-89712281D01*
X41074220Y-89729491D01*
X41091137Y-89749652D01*
X41093444Y-89758262D01*
X41106593Y-89777941D01*
X41110811Y-89799145D01*
X41136027Y-89840515D01*
X41199380Y-89871290D01*
X41269315Y-89862929D01*
X41323627Y-89818085D01*
X41329031Y-89804742D01*
X41329348Y-89804925D01*
X41342607Y-89781959D01*
X41343407Y-89777939D01*
X41354599Y-89761188D01*
X41375369Y-89725214D01*
X41382805Y-89718974D01*
X41387279Y-89712279D01*
X41404492Y-89700778D01*
X41424651Y-89683863D01*
X41433259Y-89681556D01*
X41452939Y-89668407D01*
X41530390Y-89653001D01*
X41539828Y-89653001D01*
X41546232Y-89651285D01*
X41859290Y-89651285D01*
X41869022Y-89653001D01*
X41869022Y-89653001D01*
G37*
G36*
X164959022Y-89028001D02*
G01*
X164959610Y-89028001D01*
X164964203Y-89028915D01*
X165029163Y-89040369D01*
X165033040Y-89042607D01*
X165037061Y-89043407D01*
X165053815Y-89054602D01*
X165089786Y-89075369D01*
X165096026Y-89082805D01*
X165102721Y-89087279D01*
X165114222Y-89104492D01*
X165131137Y-89124651D01*
X165133444Y-89133259D01*
X165146593Y-89152939D01*
X165161999Y-89230390D01*
X165161999Y-89239828D01*
X165163715Y-89246232D01*
X165163715Y-89559290D01*
X165161999Y-89569022D01*
X165161999Y-89569610D01*
X165161085Y-89574203D01*
X165149631Y-89639163D01*
X165147393Y-89643040D01*
X165146593Y-89647061D01*
X165135398Y-89663815D01*
X165114631Y-89699786D01*
X165107194Y-89706026D01*
X165102721Y-89712721D01*
X165085511Y-89724220D01*
X165065350Y-89741137D01*
X165056740Y-89743444D01*
X165037061Y-89756593D01*
X164959610Y-89771999D01*
X164950172Y-89771999D01*
X164943768Y-89773715D01*
X164680710Y-89773715D01*
X164670978Y-89771999D01*
X164670390Y-89771999D01*
X164665797Y-89771085D01*
X164600837Y-89759631D01*
X164596960Y-89757393D01*
X164592939Y-89756593D01*
X164576185Y-89745398D01*
X164540214Y-89724631D01*
X164533974Y-89717194D01*
X164527279Y-89712721D01*
X164515780Y-89695511D01*
X164498863Y-89675350D01*
X164496556Y-89666740D01*
X164483407Y-89647061D01*
X164468001Y-89569610D01*
X164468001Y-89560172D01*
X164466285Y-89553768D01*
X164466285Y-89240710D01*
X164468001Y-89230978D01*
X164468001Y-89230390D01*
X164468915Y-89225797D01*
X164480369Y-89160837D01*
X164482607Y-89156960D01*
X164483407Y-89152939D01*
X164494602Y-89136185D01*
X164515369Y-89100214D01*
X164522805Y-89093974D01*
X164527279Y-89087279D01*
X164544492Y-89075778D01*
X164564651Y-89058863D01*
X164573259Y-89056556D01*
X164592939Y-89043407D01*
X164670390Y-89028001D01*
X164679828Y-89028001D01*
X164686232Y-89026285D01*
X164949290Y-89026285D01*
X164959022Y-89028001D01*
X164959022Y-89028001D01*
G37*
G36*
X165929022Y-89028001D02*
G01*
X165929610Y-89028001D01*
X165934203Y-89028915D01*
X165999163Y-89040369D01*
X166003040Y-89042607D01*
X166007061Y-89043407D01*
X166023815Y-89054602D01*
X166059786Y-89075369D01*
X166066026Y-89082805D01*
X166072721Y-89087279D01*
X166084222Y-89104492D01*
X166101137Y-89124651D01*
X166103444Y-89133259D01*
X166116593Y-89152939D01*
X166131999Y-89230390D01*
X166131999Y-89239828D01*
X166133715Y-89246232D01*
X166133715Y-89559290D01*
X166131999Y-89569022D01*
X166131999Y-89569610D01*
X166131085Y-89574203D01*
X166119631Y-89639163D01*
X166117393Y-89643040D01*
X166116593Y-89647061D01*
X166105398Y-89663815D01*
X166084631Y-89699786D01*
X166077194Y-89706026D01*
X166072721Y-89712721D01*
X166055511Y-89724220D01*
X166035350Y-89741137D01*
X166026740Y-89743444D01*
X166007061Y-89756593D01*
X165929610Y-89771999D01*
X165920172Y-89771999D01*
X165913768Y-89773715D01*
X165650710Y-89773715D01*
X165640978Y-89771999D01*
X165640390Y-89771999D01*
X165635797Y-89771085D01*
X165570837Y-89759631D01*
X165566960Y-89757393D01*
X165562939Y-89756593D01*
X165546185Y-89745398D01*
X165510214Y-89724631D01*
X165503974Y-89717194D01*
X165497279Y-89712721D01*
X165485780Y-89695511D01*
X165468863Y-89675350D01*
X165466556Y-89666740D01*
X165453407Y-89647061D01*
X165438001Y-89569610D01*
X165438001Y-89560172D01*
X165436285Y-89553768D01*
X165436285Y-89240710D01*
X165438001Y-89230978D01*
X165438001Y-89230390D01*
X165438915Y-89225797D01*
X165450369Y-89160837D01*
X165452607Y-89156960D01*
X165453407Y-89152939D01*
X165464602Y-89136185D01*
X165485369Y-89100214D01*
X165492805Y-89093974D01*
X165497279Y-89087279D01*
X165514492Y-89075778D01*
X165534651Y-89058863D01*
X165543259Y-89056556D01*
X165562939Y-89043407D01*
X165640390Y-89028001D01*
X165649828Y-89028001D01*
X165656232Y-89026285D01*
X165919290Y-89026285D01*
X165929022Y-89028001D01*
X165929022Y-89028001D01*
G37*
G36*
X161269022Y-88983001D02*
G01*
X161269610Y-88983001D01*
X161274203Y-88983915D01*
X161339163Y-88995369D01*
X161343040Y-88997607D01*
X161347061Y-88998407D01*
X161363815Y-89009602D01*
X161399786Y-89030369D01*
X161406026Y-89037805D01*
X161412721Y-89042279D01*
X161424222Y-89059492D01*
X161441137Y-89079651D01*
X161443444Y-89088259D01*
X161456593Y-89107939D01*
X161471999Y-89185390D01*
X161471999Y-89194828D01*
X161473715Y-89201232D01*
X161473715Y-89464290D01*
X161471999Y-89474022D01*
X161471999Y-89474610D01*
X161471085Y-89479203D01*
X161459631Y-89544163D01*
X161457393Y-89548040D01*
X161456593Y-89552061D01*
X161445398Y-89568815D01*
X161424631Y-89604786D01*
X161417194Y-89611026D01*
X161412721Y-89617721D01*
X161395511Y-89629220D01*
X161375350Y-89646137D01*
X161366740Y-89648444D01*
X161347061Y-89661593D01*
X161269610Y-89676999D01*
X161260172Y-89676999D01*
X161253768Y-89678715D01*
X160940710Y-89678715D01*
X160930978Y-89676999D01*
X160930390Y-89676999D01*
X160925797Y-89676085D01*
X160860837Y-89664631D01*
X160856960Y-89662393D01*
X160852939Y-89661593D01*
X160836185Y-89650398D01*
X160800214Y-89629631D01*
X160793974Y-89622194D01*
X160787279Y-89617721D01*
X160775780Y-89600511D01*
X160758863Y-89580350D01*
X160756556Y-89571740D01*
X160743407Y-89552061D01*
X160728001Y-89474610D01*
X160728001Y-89465172D01*
X160726285Y-89458768D01*
X160726285Y-89195710D01*
X160728001Y-89185978D01*
X160728001Y-89185390D01*
X160728915Y-89180797D01*
X160740369Y-89115837D01*
X160742607Y-89111960D01*
X160743407Y-89107939D01*
X160754602Y-89091185D01*
X160775369Y-89055214D01*
X160782805Y-89048974D01*
X160787279Y-89042279D01*
X160804492Y-89030778D01*
X160824651Y-89013863D01*
X160833259Y-89011556D01*
X160852939Y-88998407D01*
X160930390Y-88983001D01*
X160939828Y-88983001D01*
X160946232Y-88981285D01*
X161259290Y-88981285D01*
X161269022Y-88983001D01*
X161269022Y-88983001D01*
G37*
G36*
X160269022Y-88983001D02*
G01*
X160269610Y-88983001D01*
X160274203Y-88983915D01*
X160339163Y-88995369D01*
X160343040Y-88997607D01*
X160347061Y-88998407D01*
X160363815Y-89009602D01*
X160399786Y-89030369D01*
X160406026Y-89037805D01*
X160412721Y-89042279D01*
X160424222Y-89059492D01*
X160441137Y-89079651D01*
X160443444Y-89088259D01*
X160456593Y-89107939D01*
X160471999Y-89185390D01*
X160471999Y-89194828D01*
X160473715Y-89201232D01*
X160473715Y-89464290D01*
X160471999Y-89474022D01*
X160471999Y-89474610D01*
X160471085Y-89479203D01*
X160459631Y-89544163D01*
X160457393Y-89548040D01*
X160456593Y-89552061D01*
X160445398Y-89568815D01*
X160424631Y-89604786D01*
X160417194Y-89611026D01*
X160412721Y-89617721D01*
X160395511Y-89629220D01*
X160375350Y-89646137D01*
X160366740Y-89648444D01*
X160347061Y-89661593D01*
X160269610Y-89676999D01*
X160260172Y-89676999D01*
X160253768Y-89678715D01*
X159940710Y-89678715D01*
X159930978Y-89676999D01*
X159930390Y-89676999D01*
X159925797Y-89676085D01*
X159860837Y-89664631D01*
X159856960Y-89662393D01*
X159852939Y-89661593D01*
X159836185Y-89650398D01*
X159800214Y-89629631D01*
X159793974Y-89622194D01*
X159787279Y-89617721D01*
X159775780Y-89600511D01*
X159758863Y-89580350D01*
X159756556Y-89571740D01*
X159743407Y-89552061D01*
X159728001Y-89474610D01*
X159728001Y-89465172D01*
X159726285Y-89458768D01*
X159726285Y-89195710D01*
X159728001Y-89185978D01*
X159728001Y-89185390D01*
X159728915Y-89180797D01*
X159740369Y-89115837D01*
X159742607Y-89111960D01*
X159743407Y-89107939D01*
X159754602Y-89091185D01*
X159775369Y-89055214D01*
X159782805Y-89048974D01*
X159787279Y-89042279D01*
X159804492Y-89030778D01*
X159824651Y-89013863D01*
X159833259Y-89011556D01*
X159852939Y-88998407D01*
X159930390Y-88983001D01*
X159939828Y-88983001D01*
X159946232Y-88981285D01*
X160259290Y-88981285D01*
X160269022Y-88983001D01*
X160269022Y-88983001D01*
G37*
G36*
X45319022Y-88818001D02*
G01*
X45319610Y-88818001D01*
X45324203Y-88818915D01*
X45389163Y-88830369D01*
X45393040Y-88832607D01*
X45397061Y-88833407D01*
X45413815Y-88844602D01*
X45449786Y-88865369D01*
X45456026Y-88872805D01*
X45462721Y-88877279D01*
X45474222Y-88894492D01*
X45491137Y-88914651D01*
X45493444Y-88923259D01*
X45506593Y-88942939D01*
X45521999Y-89020390D01*
X45521999Y-89029828D01*
X45523715Y-89036232D01*
X45523715Y-89299290D01*
X45521999Y-89309022D01*
X45521999Y-89309610D01*
X45521085Y-89314203D01*
X45509631Y-89379163D01*
X45507393Y-89383040D01*
X45506593Y-89387061D01*
X45495398Y-89403815D01*
X45474631Y-89439786D01*
X45467194Y-89446026D01*
X45462721Y-89452721D01*
X45445511Y-89464220D01*
X45425350Y-89481137D01*
X45416740Y-89483444D01*
X45397061Y-89496593D01*
X45319610Y-89511999D01*
X45310172Y-89511999D01*
X45303768Y-89513715D01*
X44990710Y-89513715D01*
X44980978Y-89511999D01*
X44980390Y-89511999D01*
X44975797Y-89511085D01*
X44910837Y-89499631D01*
X44906960Y-89497393D01*
X44902939Y-89496593D01*
X44886185Y-89485398D01*
X44850214Y-89464631D01*
X44843974Y-89457194D01*
X44837279Y-89452721D01*
X44825780Y-89435511D01*
X44808863Y-89415350D01*
X44806556Y-89406740D01*
X44793407Y-89387061D01*
X44778001Y-89309610D01*
X44778001Y-89300172D01*
X44776285Y-89293768D01*
X44776285Y-89030710D01*
X44778001Y-89020978D01*
X44778001Y-89020390D01*
X44778915Y-89015797D01*
X44790369Y-88950837D01*
X44792607Y-88946960D01*
X44793407Y-88942939D01*
X44804602Y-88926185D01*
X44825369Y-88890214D01*
X44832805Y-88883974D01*
X44837279Y-88877279D01*
X44854492Y-88865778D01*
X44874651Y-88848863D01*
X44883259Y-88846556D01*
X44902939Y-88833407D01*
X44980390Y-88818001D01*
X44989828Y-88818001D01*
X44996232Y-88816285D01*
X45309290Y-88816285D01*
X45319022Y-88818001D01*
X45319022Y-88818001D01*
G37*
G36*
X41869022Y-88683001D02*
G01*
X41869610Y-88683001D01*
X41874203Y-88683915D01*
X41939163Y-88695369D01*
X41943040Y-88697607D01*
X41947061Y-88698407D01*
X41963815Y-88709602D01*
X41999786Y-88730369D01*
X42006026Y-88737805D01*
X42012721Y-88742279D01*
X42024222Y-88759492D01*
X42041137Y-88779651D01*
X42043444Y-88788259D01*
X42056593Y-88807939D01*
X42071999Y-88885390D01*
X42071999Y-88894828D01*
X42073715Y-88901232D01*
X42073715Y-89164290D01*
X42071999Y-89174022D01*
X42071999Y-89174610D01*
X42071085Y-89179203D01*
X42059631Y-89244163D01*
X42057393Y-89248040D01*
X42056593Y-89252061D01*
X42045398Y-89268815D01*
X42024631Y-89304786D01*
X42017194Y-89311026D01*
X42012721Y-89317721D01*
X41995511Y-89329220D01*
X41975350Y-89346137D01*
X41966740Y-89348444D01*
X41947061Y-89361593D01*
X41869610Y-89376999D01*
X41860172Y-89376999D01*
X41853768Y-89378715D01*
X41540710Y-89378715D01*
X41530978Y-89376999D01*
X41530390Y-89376999D01*
X41525797Y-89376085D01*
X41460837Y-89364631D01*
X41456960Y-89362393D01*
X41452939Y-89361593D01*
X41436185Y-89350398D01*
X41400214Y-89329631D01*
X41393974Y-89322194D01*
X41387279Y-89317721D01*
X41375782Y-89300514D01*
X41358862Y-89280350D01*
X41356555Y-89271738D01*
X41343407Y-89252061D01*
X41339189Y-89230858D01*
X41313973Y-89189487D01*
X41250620Y-89158712D01*
X41180686Y-89167073D01*
X41126374Y-89211916D01*
X41120970Y-89225260D01*
X41120652Y-89225077D01*
X41107393Y-89248043D01*
X41106593Y-89252063D01*
X41095401Y-89268814D01*
X41074631Y-89304788D01*
X41067194Y-89311028D01*
X41062721Y-89317723D01*
X41045511Y-89329222D01*
X41025350Y-89346139D01*
X41016740Y-89348446D01*
X40997061Y-89361595D01*
X40919610Y-89377001D01*
X40910172Y-89377001D01*
X40903768Y-89378717D01*
X40590710Y-89378717D01*
X40580978Y-89377001D01*
X40580390Y-89377001D01*
X40575797Y-89376087D01*
X40510837Y-89364633D01*
X40506960Y-89362395D01*
X40502939Y-89361595D01*
X40486185Y-89350400D01*
X40450214Y-89329633D01*
X40443974Y-89322196D01*
X40437279Y-89317723D01*
X40425780Y-89300513D01*
X40408863Y-89280352D01*
X40406556Y-89271742D01*
X40393407Y-89252063D01*
X40378001Y-89174612D01*
X40378001Y-89165174D01*
X40376285Y-89158770D01*
X40376285Y-88895712D01*
X40378001Y-88885980D01*
X40378001Y-88885392D01*
X40378915Y-88880799D01*
X40390369Y-88815839D01*
X40392607Y-88811962D01*
X40393407Y-88807941D01*
X40404602Y-88791187D01*
X40425369Y-88755216D01*
X40432805Y-88748976D01*
X40437279Y-88742281D01*
X40454492Y-88730780D01*
X40474651Y-88713865D01*
X40483259Y-88711558D01*
X40502939Y-88698409D01*
X40580390Y-88683003D01*
X40589828Y-88683003D01*
X40596232Y-88681287D01*
X40909290Y-88681287D01*
X40919022Y-88683003D01*
X40919610Y-88683003D01*
X40924203Y-88683917D01*
X40989163Y-88695371D01*
X40993040Y-88697609D01*
X40997061Y-88698409D01*
X41013815Y-88709604D01*
X41049786Y-88730371D01*
X41056026Y-88737808D01*
X41062721Y-88742281D01*
X41074220Y-88759491D01*
X41091137Y-88779652D01*
X41093444Y-88788262D01*
X41106593Y-88807941D01*
X41110811Y-88829145D01*
X41136027Y-88870515D01*
X41199380Y-88901290D01*
X41269315Y-88892929D01*
X41323627Y-88848085D01*
X41329031Y-88834742D01*
X41329348Y-88834925D01*
X41342607Y-88811959D01*
X41343407Y-88807939D01*
X41354599Y-88791188D01*
X41375369Y-88755214D01*
X41382805Y-88748974D01*
X41387279Y-88742279D01*
X41404492Y-88730778D01*
X41424651Y-88713863D01*
X41433259Y-88711556D01*
X41452939Y-88698407D01*
X41530390Y-88683001D01*
X41539828Y-88683001D01*
X41546232Y-88681285D01*
X41859290Y-88681285D01*
X41869022Y-88683001D01*
X41869022Y-88683001D01*
G37*
G36*
X47869022Y-88238001D02*
G01*
X47869610Y-88238001D01*
X47874203Y-88238915D01*
X47939163Y-88250369D01*
X47943040Y-88252607D01*
X47947061Y-88253407D01*
X47963815Y-88264602D01*
X47999786Y-88285369D01*
X48006026Y-88292805D01*
X48012721Y-88297279D01*
X48024222Y-88314492D01*
X48041137Y-88334651D01*
X48043444Y-88343259D01*
X48056593Y-88362939D01*
X48071999Y-88440390D01*
X48071999Y-88449828D01*
X48073715Y-88456232D01*
X48073715Y-88719290D01*
X48071999Y-88729022D01*
X48071999Y-88729610D01*
X48071085Y-88734203D01*
X48059631Y-88799163D01*
X48057393Y-88803040D01*
X48056593Y-88807061D01*
X48045398Y-88823815D01*
X48024631Y-88859786D01*
X48017194Y-88866026D01*
X48012721Y-88872721D01*
X47995511Y-88884220D01*
X47975350Y-88901137D01*
X47966740Y-88903444D01*
X47947061Y-88916593D01*
X47869610Y-88931999D01*
X47860172Y-88931999D01*
X47853768Y-88933715D01*
X47540710Y-88933715D01*
X47530978Y-88931999D01*
X47530390Y-88931999D01*
X47525797Y-88931085D01*
X47460837Y-88919631D01*
X47456960Y-88917393D01*
X47452939Y-88916593D01*
X47436185Y-88905398D01*
X47400214Y-88884631D01*
X47393974Y-88877194D01*
X47387279Y-88872721D01*
X47375780Y-88855511D01*
X47358863Y-88835350D01*
X47356556Y-88826740D01*
X47343407Y-88807061D01*
X47328001Y-88729610D01*
X47328001Y-88720172D01*
X47326285Y-88713768D01*
X47326285Y-88450710D01*
X47328001Y-88440978D01*
X47328001Y-88440390D01*
X47328915Y-88435797D01*
X47340369Y-88370837D01*
X47342607Y-88366960D01*
X47343407Y-88362939D01*
X47354602Y-88346185D01*
X47375369Y-88310214D01*
X47382805Y-88303974D01*
X47387279Y-88297279D01*
X47404492Y-88285778D01*
X47424651Y-88268863D01*
X47433259Y-88266556D01*
X47452939Y-88253407D01*
X47530390Y-88238001D01*
X47539828Y-88238001D01*
X47546232Y-88236285D01*
X47859290Y-88236285D01*
X47869022Y-88238001D01*
X47869022Y-88238001D01*
G37*
G36*
X47869022Y-87268001D02*
G01*
X47869610Y-87268001D01*
X47874203Y-87268915D01*
X47939163Y-87280369D01*
X47943040Y-87282607D01*
X47947061Y-87283407D01*
X47963815Y-87294602D01*
X47999786Y-87315369D01*
X48006026Y-87322805D01*
X48012721Y-87327279D01*
X48024222Y-87344492D01*
X48041137Y-87364651D01*
X48043444Y-87373259D01*
X48056593Y-87392939D01*
X48071999Y-87470390D01*
X48071999Y-87479828D01*
X48073715Y-87486232D01*
X48073715Y-87749290D01*
X48071999Y-87759022D01*
X48071999Y-87759610D01*
X48071085Y-87764203D01*
X48059631Y-87829163D01*
X48057393Y-87833040D01*
X48056593Y-87837061D01*
X48045398Y-87853815D01*
X48024631Y-87889786D01*
X48017194Y-87896026D01*
X48012721Y-87902721D01*
X47995511Y-87914220D01*
X47975350Y-87931137D01*
X47966740Y-87933444D01*
X47947061Y-87946593D01*
X47869610Y-87961999D01*
X47860172Y-87961999D01*
X47853768Y-87963715D01*
X47540710Y-87963715D01*
X47530978Y-87961999D01*
X47530390Y-87961999D01*
X47525797Y-87961085D01*
X47460837Y-87949631D01*
X47456960Y-87947393D01*
X47452939Y-87946593D01*
X47436185Y-87935398D01*
X47400214Y-87914631D01*
X47393974Y-87907194D01*
X47387279Y-87902721D01*
X47375780Y-87885511D01*
X47358863Y-87865350D01*
X47356556Y-87856740D01*
X47343407Y-87837061D01*
X47328001Y-87759610D01*
X47328001Y-87750172D01*
X47326285Y-87743768D01*
X47326285Y-87480710D01*
X47328001Y-87470978D01*
X47328001Y-87470390D01*
X47328915Y-87465797D01*
X47340369Y-87400837D01*
X47342607Y-87396960D01*
X47343407Y-87392939D01*
X47354602Y-87376185D01*
X47375369Y-87340214D01*
X47382805Y-87333974D01*
X47387279Y-87327279D01*
X47404492Y-87315778D01*
X47424651Y-87298863D01*
X47433259Y-87296556D01*
X47452939Y-87283407D01*
X47530390Y-87268001D01*
X47539828Y-87268001D01*
X47546232Y-87266285D01*
X47859290Y-87266285D01*
X47869022Y-87268001D01*
X47869022Y-87268001D01*
G37*
G36*
X44029022Y-86028001D02*
G01*
X44029610Y-86028001D01*
X44034203Y-86028915D01*
X44099163Y-86040369D01*
X44103040Y-86042607D01*
X44107061Y-86043407D01*
X44123815Y-86054602D01*
X44159786Y-86075369D01*
X44166026Y-86082805D01*
X44172721Y-86087279D01*
X44184222Y-86104492D01*
X44201137Y-86124651D01*
X44203444Y-86133259D01*
X44216593Y-86152939D01*
X44231999Y-86230390D01*
X44231999Y-86239828D01*
X44233715Y-86246232D01*
X44233715Y-86559290D01*
X44231999Y-86569022D01*
X44231999Y-86569610D01*
X44231085Y-86574203D01*
X44219631Y-86639163D01*
X44217393Y-86643040D01*
X44216593Y-86647061D01*
X44205398Y-86663815D01*
X44184631Y-86699786D01*
X44177194Y-86706026D01*
X44172721Y-86712721D01*
X44155511Y-86724220D01*
X44135350Y-86741137D01*
X44126740Y-86743444D01*
X44107061Y-86756593D01*
X44067132Y-86764535D01*
X44021977Y-86792059D01*
X43991203Y-86855413D01*
X43999565Y-86925347D01*
X44044409Y-86979659D01*
X44092767Y-86999241D01*
X44099163Y-87000369D01*
X44103040Y-87002607D01*
X44107061Y-87003407D01*
X44123815Y-87014602D01*
X44159786Y-87035369D01*
X44166026Y-87042805D01*
X44172721Y-87047279D01*
X44184222Y-87064492D01*
X44201137Y-87084651D01*
X44203444Y-87093259D01*
X44216593Y-87112939D01*
X44231999Y-87190390D01*
X44231999Y-87199828D01*
X44233715Y-87206232D01*
X44233715Y-87519290D01*
X44231999Y-87529022D01*
X44231999Y-87529610D01*
X44231085Y-87534203D01*
X44219631Y-87599163D01*
X44217393Y-87603040D01*
X44216593Y-87607061D01*
X44205398Y-87623815D01*
X44184631Y-87659786D01*
X44177194Y-87666026D01*
X44172721Y-87672721D01*
X44155511Y-87684220D01*
X44135350Y-87701137D01*
X44126740Y-87703444D01*
X44107061Y-87716593D01*
X44029610Y-87731999D01*
X44020172Y-87731999D01*
X44013768Y-87733715D01*
X43750710Y-87733715D01*
X43740978Y-87731999D01*
X43740390Y-87731999D01*
X43735797Y-87731085D01*
X43670837Y-87719631D01*
X43666960Y-87717393D01*
X43662939Y-87716593D01*
X43646185Y-87705398D01*
X43610214Y-87684631D01*
X43603974Y-87677194D01*
X43597279Y-87672721D01*
X43585780Y-87655511D01*
X43568863Y-87635350D01*
X43566556Y-87626740D01*
X43553407Y-87607061D01*
X43538001Y-87529610D01*
X43538001Y-87520172D01*
X43536285Y-87513768D01*
X43536285Y-87200710D01*
X43538001Y-87190978D01*
X43538001Y-87190390D01*
X43538915Y-87185797D01*
X43550369Y-87120837D01*
X43552607Y-87116960D01*
X43553407Y-87112939D01*
X43564602Y-87096185D01*
X43585369Y-87060214D01*
X43592806Y-87053974D01*
X43597279Y-87047279D01*
X43614489Y-87035780D01*
X43634650Y-87018863D01*
X43643260Y-87016556D01*
X43662939Y-87003407D01*
X43702867Y-86995465D01*
X43748023Y-86967940D01*
X43778797Y-86904587D01*
X43770435Y-86834652D01*
X43725591Y-86780341D01*
X43677233Y-86760759D01*
X43670837Y-86759631D01*
X43666960Y-86757393D01*
X43662939Y-86756593D01*
X43646185Y-86745398D01*
X43610214Y-86724631D01*
X43603974Y-86717194D01*
X43597279Y-86712721D01*
X43585780Y-86695511D01*
X43568863Y-86675350D01*
X43566556Y-86666740D01*
X43553407Y-86647061D01*
X43538001Y-86569610D01*
X43538001Y-86560172D01*
X43536285Y-86553768D01*
X43536285Y-86240710D01*
X43538001Y-86230978D01*
X43538001Y-86230390D01*
X43538915Y-86225797D01*
X43550369Y-86160837D01*
X43552607Y-86156960D01*
X43553407Y-86152939D01*
X43564602Y-86136185D01*
X43585369Y-86100214D01*
X43592805Y-86093974D01*
X43597279Y-86087279D01*
X43614492Y-86075778D01*
X43634651Y-86058863D01*
X43643259Y-86056556D01*
X43662939Y-86043407D01*
X43740390Y-86028001D01*
X43749828Y-86028001D01*
X43756232Y-86026285D01*
X44019290Y-86026285D01*
X44029022Y-86028001D01*
X44029022Y-86028001D01*
G37*
G36*
X43059022Y-86028001D02*
G01*
X43059610Y-86028001D01*
X43064203Y-86028915D01*
X43129163Y-86040369D01*
X43133040Y-86042607D01*
X43137061Y-86043407D01*
X43153815Y-86054602D01*
X43189786Y-86075369D01*
X43196026Y-86082805D01*
X43202721Y-86087279D01*
X43214222Y-86104492D01*
X43231137Y-86124651D01*
X43233444Y-86133259D01*
X43246593Y-86152939D01*
X43261999Y-86230390D01*
X43261999Y-86239828D01*
X43263715Y-86246232D01*
X43263715Y-86559290D01*
X43261999Y-86569022D01*
X43261999Y-86569610D01*
X43261085Y-86574203D01*
X43249631Y-86639163D01*
X43247393Y-86643040D01*
X43246593Y-86647061D01*
X43235398Y-86663815D01*
X43214631Y-86699786D01*
X43207194Y-86706026D01*
X43202721Y-86712721D01*
X43185511Y-86724220D01*
X43165350Y-86741137D01*
X43156740Y-86743444D01*
X43137061Y-86756593D01*
X43097132Y-86764535D01*
X43051977Y-86792059D01*
X43021203Y-86855413D01*
X43029565Y-86925347D01*
X43074409Y-86979659D01*
X43122767Y-86999241D01*
X43129163Y-87000369D01*
X43133040Y-87002607D01*
X43137061Y-87003407D01*
X43153815Y-87014602D01*
X43189786Y-87035369D01*
X43196026Y-87042805D01*
X43202721Y-87047279D01*
X43214222Y-87064492D01*
X43231137Y-87084651D01*
X43233444Y-87093259D01*
X43246593Y-87112939D01*
X43261999Y-87190390D01*
X43261999Y-87199828D01*
X43263715Y-87206232D01*
X43263715Y-87519290D01*
X43261999Y-87529022D01*
X43261999Y-87529610D01*
X43261085Y-87534203D01*
X43249631Y-87599163D01*
X43247393Y-87603040D01*
X43246593Y-87607061D01*
X43235398Y-87623815D01*
X43214631Y-87659786D01*
X43207194Y-87666026D01*
X43202721Y-87672721D01*
X43185511Y-87684220D01*
X43165350Y-87701137D01*
X43156740Y-87703444D01*
X43137061Y-87716593D01*
X43059610Y-87731999D01*
X43050172Y-87731999D01*
X43043768Y-87733715D01*
X42780710Y-87733715D01*
X42770978Y-87731999D01*
X42770390Y-87731999D01*
X42765797Y-87731085D01*
X42700837Y-87719631D01*
X42696960Y-87717393D01*
X42692939Y-87716593D01*
X42676185Y-87705398D01*
X42640214Y-87684631D01*
X42633974Y-87677194D01*
X42627279Y-87672721D01*
X42615780Y-87655511D01*
X42598863Y-87635350D01*
X42596556Y-87626740D01*
X42583407Y-87607061D01*
X42568001Y-87529610D01*
X42568001Y-87520172D01*
X42566285Y-87513768D01*
X42566285Y-87200710D01*
X42568001Y-87190978D01*
X42568001Y-87190390D01*
X42568915Y-87185797D01*
X42580369Y-87120837D01*
X42582607Y-87116960D01*
X42583407Y-87112939D01*
X42594602Y-87096185D01*
X42615369Y-87060214D01*
X42622806Y-87053974D01*
X42627279Y-87047279D01*
X42644489Y-87035780D01*
X42664650Y-87018863D01*
X42673260Y-87016556D01*
X42692939Y-87003407D01*
X42732867Y-86995465D01*
X42778023Y-86967940D01*
X42808797Y-86904587D01*
X42800435Y-86834652D01*
X42755591Y-86780341D01*
X42707233Y-86760759D01*
X42700837Y-86759631D01*
X42696960Y-86757393D01*
X42692939Y-86756593D01*
X42676185Y-86745398D01*
X42640214Y-86724631D01*
X42633974Y-86717194D01*
X42627279Y-86712721D01*
X42615780Y-86695511D01*
X42598863Y-86675350D01*
X42596556Y-86666740D01*
X42583407Y-86647061D01*
X42568001Y-86569610D01*
X42568001Y-86560172D01*
X42566285Y-86553768D01*
X42566285Y-86240710D01*
X42568001Y-86230978D01*
X42568001Y-86230390D01*
X42568915Y-86225797D01*
X42580369Y-86160837D01*
X42582607Y-86156960D01*
X42583407Y-86152939D01*
X42594602Y-86136185D01*
X42615369Y-86100214D01*
X42622805Y-86093974D01*
X42627279Y-86087279D01*
X42644492Y-86075778D01*
X42664651Y-86058863D01*
X42673259Y-86056556D01*
X42692939Y-86043407D01*
X42770390Y-86028001D01*
X42779828Y-86028001D01*
X42786232Y-86026285D01*
X43049290Y-86026285D01*
X43059022Y-86028001D01*
X43059022Y-86028001D01*
G37*
G36*
X45979022Y-86028001D02*
G01*
X45979610Y-86028001D01*
X45984203Y-86028915D01*
X46049163Y-86040369D01*
X46053040Y-86042607D01*
X46057061Y-86043407D01*
X46073815Y-86054602D01*
X46109786Y-86075369D01*
X46116026Y-86082805D01*
X46122721Y-86087279D01*
X46134222Y-86104492D01*
X46151137Y-86124651D01*
X46153444Y-86133259D01*
X46166593Y-86152939D01*
X46181999Y-86230390D01*
X46181999Y-86239828D01*
X46183715Y-86246232D01*
X46183715Y-86559290D01*
X46181999Y-86569022D01*
X46181999Y-86569610D01*
X46181085Y-86574203D01*
X46169631Y-86639163D01*
X46167393Y-86643040D01*
X46166593Y-86647061D01*
X46155398Y-86663815D01*
X46134631Y-86699786D01*
X46127194Y-86706026D01*
X46122721Y-86712721D01*
X46105514Y-86724218D01*
X46085350Y-86741138D01*
X46076738Y-86743445D01*
X46057061Y-86756593D01*
X46035858Y-86760811D01*
X45994487Y-86786027D01*
X45963712Y-86849380D01*
X45972073Y-86919314D01*
X46016916Y-86973626D01*
X46030259Y-86979030D01*
X46030075Y-86979348D01*
X46053041Y-86992607D01*
X46057061Y-86993407D01*
X46073812Y-87004599D01*
X46109786Y-87025369D01*
X46116026Y-87032805D01*
X46122721Y-87037279D01*
X46134222Y-87054492D01*
X46151137Y-87074651D01*
X46153444Y-87083259D01*
X46166593Y-87102939D01*
X46181999Y-87180390D01*
X46181999Y-87189828D01*
X46183715Y-87196232D01*
X46183715Y-87509290D01*
X46181999Y-87519022D01*
X46181999Y-87519610D01*
X46181085Y-87524203D01*
X46169631Y-87589163D01*
X46167393Y-87593040D01*
X46166593Y-87597061D01*
X46155398Y-87613815D01*
X46134631Y-87649786D01*
X46127194Y-87656026D01*
X46122721Y-87662721D01*
X46105511Y-87674220D01*
X46085350Y-87691137D01*
X46076740Y-87693444D01*
X46057061Y-87706593D01*
X45979610Y-87721999D01*
X45970172Y-87721999D01*
X45963768Y-87723715D01*
X45700710Y-87723715D01*
X45690978Y-87721999D01*
X45690390Y-87721999D01*
X45685797Y-87721085D01*
X45620837Y-87709631D01*
X45616960Y-87707393D01*
X45612939Y-87706593D01*
X45596185Y-87695398D01*
X45560214Y-87674631D01*
X45553974Y-87667194D01*
X45547279Y-87662721D01*
X45535780Y-87645511D01*
X45518863Y-87625350D01*
X45516556Y-87616740D01*
X45503407Y-87597061D01*
X45488001Y-87519610D01*
X45488001Y-87510172D01*
X45486285Y-87503768D01*
X45486285Y-87190710D01*
X45488001Y-87180978D01*
X45488001Y-87180390D01*
X45488915Y-87175797D01*
X45500369Y-87110837D01*
X45502607Y-87106960D01*
X45503407Y-87102939D01*
X45514602Y-87086185D01*
X45535369Y-87050214D01*
X45542805Y-87043974D01*
X45547279Y-87037279D01*
X45564492Y-87025778D01*
X45584651Y-87008863D01*
X45593259Y-87006556D01*
X45612939Y-86993407D01*
X45634144Y-86989189D01*
X45675514Y-86963973D01*
X45706289Y-86900620D01*
X45697928Y-86830686D01*
X45653085Y-86776374D01*
X45639741Y-86770970D01*
X45639925Y-86770652D01*
X45616959Y-86757393D01*
X45612939Y-86756593D01*
X45596188Y-86745401D01*
X45560214Y-86724631D01*
X45553974Y-86717194D01*
X45547279Y-86712721D01*
X45535780Y-86695511D01*
X45518863Y-86675350D01*
X45516556Y-86666740D01*
X45503407Y-86647061D01*
X45488001Y-86569610D01*
X45488001Y-86560172D01*
X45486285Y-86553768D01*
X45486285Y-86240710D01*
X45488001Y-86230978D01*
X45488001Y-86230390D01*
X45488915Y-86225797D01*
X45500369Y-86160837D01*
X45502607Y-86156960D01*
X45503407Y-86152939D01*
X45514602Y-86136185D01*
X45535369Y-86100214D01*
X45542805Y-86093974D01*
X45547279Y-86087279D01*
X45564492Y-86075778D01*
X45584651Y-86058863D01*
X45593259Y-86056556D01*
X45612939Y-86043407D01*
X45690390Y-86028001D01*
X45699828Y-86028001D01*
X45706232Y-86026285D01*
X45969290Y-86026285D01*
X45979022Y-86028001D01*
X45979022Y-86028001D01*
G37*
G36*
X45009022Y-86028001D02*
G01*
X45009610Y-86028001D01*
X45014203Y-86028915D01*
X45079163Y-86040369D01*
X45083040Y-86042607D01*
X45087061Y-86043407D01*
X45103815Y-86054602D01*
X45139786Y-86075369D01*
X45146026Y-86082805D01*
X45152721Y-86087279D01*
X45164222Y-86104492D01*
X45181137Y-86124651D01*
X45183444Y-86133259D01*
X45196593Y-86152939D01*
X45211999Y-86230390D01*
X45211999Y-86239828D01*
X45213715Y-86246232D01*
X45213715Y-86559290D01*
X45211999Y-86569022D01*
X45211999Y-86569610D01*
X45211085Y-86574203D01*
X45199631Y-86639163D01*
X45197393Y-86643040D01*
X45196593Y-86647061D01*
X45185398Y-86663815D01*
X45164631Y-86699786D01*
X45157194Y-86706026D01*
X45152721Y-86712721D01*
X45135514Y-86724218D01*
X45115350Y-86741138D01*
X45106738Y-86743445D01*
X45087061Y-86756593D01*
X45065858Y-86760811D01*
X45024487Y-86786027D01*
X44993712Y-86849380D01*
X45002073Y-86919314D01*
X45046916Y-86973626D01*
X45060259Y-86979030D01*
X45060075Y-86979348D01*
X45083041Y-86992607D01*
X45087061Y-86993407D01*
X45103812Y-87004599D01*
X45139786Y-87025369D01*
X45146026Y-87032805D01*
X45152721Y-87037279D01*
X45164222Y-87054492D01*
X45181137Y-87074651D01*
X45183444Y-87083259D01*
X45196593Y-87102939D01*
X45211999Y-87180390D01*
X45211999Y-87189828D01*
X45213715Y-87196232D01*
X45213715Y-87509290D01*
X45211999Y-87519022D01*
X45211999Y-87519610D01*
X45211085Y-87524203D01*
X45199631Y-87589163D01*
X45197393Y-87593040D01*
X45196593Y-87597061D01*
X45185398Y-87613815D01*
X45164631Y-87649786D01*
X45157194Y-87656026D01*
X45152721Y-87662721D01*
X45135511Y-87674220D01*
X45115350Y-87691137D01*
X45106740Y-87693444D01*
X45087061Y-87706593D01*
X45009610Y-87721999D01*
X45000172Y-87721999D01*
X44993768Y-87723715D01*
X44730710Y-87723715D01*
X44720978Y-87721999D01*
X44720390Y-87721999D01*
X44715797Y-87721085D01*
X44650837Y-87709631D01*
X44646960Y-87707393D01*
X44642939Y-87706593D01*
X44626185Y-87695398D01*
X44590214Y-87674631D01*
X44583974Y-87667194D01*
X44577279Y-87662721D01*
X44565780Y-87645511D01*
X44548863Y-87625350D01*
X44546556Y-87616740D01*
X44533407Y-87597061D01*
X44518001Y-87519610D01*
X44518001Y-87510172D01*
X44516285Y-87503768D01*
X44516285Y-87190710D01*
X44518001Y-87180978D01*
X44518001Y-87180390D01*
X44518915Y-87175797D01*
X44530369Y-87110837D01*
X44532607Y-87106960D01*
X44533407Y-87102939D01*
X44544602Y-87086185D01*
X44565369Y-87050214D01*
X44572805Y-87043974D01*
X44577279Y-87037279D01*
X44594492Y-87025778D01*
X44614651Y-87008863D01*
X44623259Y-87006556D01*
X44642939Y-86993407D01*
X44664144Y-86989189D01*
X44705514Y-86963973D01*
X44736289Y-86900620D01*
X44727928Y-86830686D01*
X44683085Y-86776374D01*
X44669741Y-86770970D01*
X44669925Y-86770652D01*
X44646959Y-86757393D01*
X44642939Y-86756593D01*
X44626188Y-86745401D01*
X44590214Y-86724631D01*
X44583974Y-86717194D01*
X44577279Y-86712721D01*
X44565780Y-86695511D01*
X44548863Y-86675350D01*
X44546556Y-86666740D01*
X44533407Y-86647061D01*
X44518001Y-86569610D01*
X44518001Y-86560172D01*
X44516285Y-86553768D01*
X44516285Y-86240710D01*
X44518001Y-86230978D01*
X44518001Y-86230390D01*
X44518915Y-86225797D01*
X44530369Y-86160837D01*
X44532607Y-86156960D01*
X44533407Y-86152939D01*
X44544602Y-86136185D01*
X44565369Y-86100214D01*
X44572805Y-86093974D01*
X44577279Y-86087279D01*
X44594492Y-86075778D01*
X44614651Y-86058863D01*
X44623259Y-86056556D01*
X44642939Y-86043407D01*
X44720390Y-86028001D01*
X44729828Y-86028001D01*
X44736232Y-86026285D01*
X44999290Y-86026285D01*
X45009022Y-86028001D01*
X45009022Y-86028001D01*
G37*
G36*
X167829022Y-86928001D02*
G01*
X167829610Y-86928001D01*
X167834203Y-86928915D01*
X167899163Y-86940369D01*
X167903040Y-86942607D01*
X167907061Y-86943407D01*
X167923815Y-86954602D01*
X167959786Y-86975369D01*
X167966026Y-86982805D01*
X167972721Y-86987279D01*
X167984222Y-87004492D01*
X168001137Y-87024651D01*
X168003444Y-87033259D01*
X168016593Y-87052939D01*
X168031999Y-87130390D01*
X168031999Y-87139828D01*
X168033715Y-87146232D01*
X168033715Y-87459290D01*
X168031999Y-87469022D01*
X168031999Y-87469610D01*
X168031085Y-87474203D01*
X168019631Y-87539163D01*
X168017393Y-87543040D01*
X168016593Y-87547061D01*
X168005398Y-87563815D01*
X167984631Y-87599786D01*
X167977194Y-87606026D01*
X167972721Y-87612721D01*
X167955511Y-87624220D01*
X167935350Y-87641137D01*
X167926740Y-87643444D01*
X167907061Y-87656593D01*
X167829610Y-87671999D01*
X167820172Y-87671999D01*
X167813768Y-87673715D01*
X167550710Y-87673715D01*
X167540978Y-87671999D01*
X167540390Y-87671999D01*
X167535797Y-87671085D01*
X167470837Y-87659631D01*
X167466960Y-87657393D01*
X167462939Y-87656593D01*
X167446185Y-87645398D01*
X167410214Y-87624631D01*
X167403974Y-87617194D01*
X167397279Y-87612721D01*
X167385780Y-87595511D01*
X167368863Y-87575350D01*
X167366556Y-87566740D01*
X167353407Y-87547061D01*
X167338001Y-87469610D01*
X167338001Y-87460172D01*
X167336285Y-87453768D01*
X167336285Y-87140710D01*
X167338001Y-87130978D01*
X167338001Y-87130390D01*
X167338915Y-87125797D01*
X167350369Y-87060837D01*
X167352607Y-87056960D01*
X167353407Y-87052939D01*
X167364602Y-87036185D01*
X167385369Y-87000214D01*
X167392805Y-86993974D01*
X167397279Y-86987279D01*
X167414492Y-86975778D01*
X167434651Y-86958863D01*
X167443259Y-86956556D01*
X167462939Y-86943407D01*
X167540390Y-86928001D01*
X167549828Y-86928001D01*
X167556232Y-86926285D01*
X167819290Y-86926285D01*
X167829022Y-86928001D01*
X167829022Y-86928001D01*
G37*
G36*
X164029022Y-86928001D02*
G01*
X164029610Y-86928001D01*
X164034203Y-86928915D01*
X164099163Y-86940369D01*
X164103040Y-86942607D01*
X164107061Y-86943407D01*
X164123815Y-86954602D01*
X164159786Y-86975369D01*
X164166026Y-86982805D01*
X164172721Y-86987279D01*
X164184222Y-87004492D01*
X164201137Y-87024651D01*
X164203444Y-87033259D01*
X164216593Y-87052939D01*
X164231984Y-87130317D01*
X164264121Y-87183040D01*
X164327474Y-87213815D01*
X164397409Y-87205454D01*
X164451721Y-87160610D01*
X164471303Y-87112252D01*
X164480369Y-87060837D01*
X164482607Y-87056960D01*
X164483407Y-87052939D01*
X164494602Y-87036185D01*
X164515369Y-87000214D01*
X164522805Y-86993974D01*
X164527279Y-86987279D01*
X164544492Y-86975778D01*
X164564651Y-86958863D01*
X164573259Y-86956556D01*
X164592939Y-86943407D01*
X164670390Y-86928001D01*
X164679828Y-86928001D01*
X164686232Y-86926285D01*
X164949290Y-86926285D01*
X164959022Y-86928001D01*
X164959610Y-86928001D01*
X164964203Y-86928915D01*
X165029163Y-86940369D01*
X165033040Y-86942607D01*
X165037061Y-86943407D01*
X165053815Y-86954602D01*
X165089786Y-86975369D01*
X165096026Y-86982805D01*
X165102721Y-86987279D01*
X165114222Y-87004492D01*
X165131137Y-87024651D01*
X165133444Y-87033259D01*
X165146593Y-87052939D01*
X165161999Y-87130390D01*
X165161999Y-87139828D01*
X165163715Y-87146232D01*
X165163715Y-87459290D01*
X165161999Y-87469022D01*
X165161999Y-87469610D01*
X165161085Y-87474203D01*
X165149631Y-87539163D01*
X165147393Y-87543040D01*
X165146593Y-87547061D01*
X165135398Y-87563815D01*
X165114631Y-87599786D01*
X165107194Y-87606026D01*
X165102721Y-87612721D01*
X165085511Y-87624220D01*
X165065350Y-87641137D01*
X165056740Y-87643444D01*
X165037061Y-87656593D01*
X164959610Y-87671999D01*
X164950172Y-87671999D01*
X164943768Y-87673715D01*
X164680710Y-87673715D01*
X164670978Y-87671999D01*
X164670390Y-87671999D01*
X164665797Y-87671085D01*
X164600837Y-87659631D01*
X164596960Y-87657393D01*
X164592939Y-87656593D01*
X164576185Y-87645398D01*
X164540214Y-87624631D01*
X164533974Y-87617194D01*
X164527279Y-87612721D01*
X164515780Y-87595511D01*
X164498863Y-87575350D01*
X164496556Y-87566740D01*
X164483407Y-87547061D01*
X164468016Y-87469683D01*
X164435879Y-87416960D01*
X164372526Y-87386185D01*
X164302591Y-87394546D01*
X164248279Y-87439390D01*
X164228697Y-87487748D01*
X164219631Y-87539163D01*
X164217393Y-87543040D01*
X164216593Y-87547061D01*
X164205398Y-87563815D01*
X164184631Y-87599786D01*
X164177194Y-87606026D01*
X164172721Y-87612721D01*
X164155511Y-87624220D01*
X164135350Y-87641137D01*
X164126740Y-87643444D01*
X164107061Y-87656593D01*
X164029610Y-87671999D01*
X164020172Y-87671999D01*
X164013768Y-87673715D01*
X163750710Y-87673715D01*
X163740978Y-87671999D01*
X163740390Y-87671999D01*
X163735797Y-87671085D01*
X163670837Y-87659631D01*
X163666960Y-87657393D01*
X163662939Y-87656593D01*
X163646185Y-87645398D01*
X163610214Y-87624631D01*
X163603974Y-87617194D01*
X163597279Y-87612721D01*
X163585780Y-87595511D01*
X163568863Y-87575350D01*
X163566556Y-87566740D01*
X163553407Y-87547061D01*
X163538001Y-87469610D01*
X163538001Y-87460172D01*
X163536285Y-87453768D01*
X163536285Y-87140710D01*
X163538001Y-87130978D01*
X163538001Y-87130390D01*
X163538915Y-87125797D01*
X163550369Y-87060837D01*
X163552607Y-87056960D01*
X163553407Y-87052939D01*
X163564602Y-87036185D01*
X163585369Y-87000214D01*
X163592805Y-86993974D01*
X163597279Y-86987279D01*
X163614492Y-86975778D01*
X163634651Y-86958863D01*
X163643259Y-86956556D01*
X163662939Y-86943407D01*
X163740390Y-86928001D01*
X163749828Y-86928001D01*
X163756232Y-86926285D01*
X164019290Y-86926285D01*
X164029022Y-86928001D01*
X164029022Y-86928001D01*
G37*
G36*
X163059022Y-86928001D02*
G01*
X163059610Y-86928001D01*
X163064203Y-86928915D01*
X163129163Y-86940369D01*
X163133040Y-86942607D01*
X163137061Y-86943407D01*
X163153815Y-86954602D01*
X163189786Y-86975369D01*
X163196026Y-86982805D01*
X163202721Y-86987279D01*
X163214222Y-87004492D01*
X163231137Y-87024651D01*
X163233444Y-87033259D01*
X163246593Y-87052939D01*
X163261999Y-87130390D01*
X163261999Y-87139828D01*
X163263715Y-87146232D01*
X163263715Y-87459290D01*
X163261999Y-87469022D01*
X163261999Y-87469610D01*
X163261085Y-87474203D01*
X163249631Y-87539163D01*
X163247393Y-87543040D01*
X163246593Y-87547061D01*
X163235398Y-87563815D01*
X163214631Y-87599786D01*
X163207194Y-87606026D01*
X163202721Y-87612721D01*
X163185511Y-87624220D01*
X163165350Y-87641137D01*
X163156740Y-87643444D01*
X163137061Y-87656593D01*
X163059610Y-87671999D01*
X163050172Y-87671999D01*
X163043768Y-87673715D01*
X162780710Y-87673715D01*
X162770978Y-87671999D01*
X162770390Y-87671999D01*
X162765797Y-87671085D01*
X162700837Y-87659631D01*
X162696960Y-87657393D01*
X162692939Y-87656593D01*
X162676185Y-87645398D01*
X162640214Y-87624631D01*
X162633974Y-87617194D01*
X162627279Y-87612721D01*
X162615780Y-87595511D01*
X162598863Y-87575350D01*
X162596556Y-87566740D01*
X162583407Y-87547061D01*
X162568001Y-87469610D01*
X162568001Y-87460172D01*
X162566285Y-87453768D01*
X162566285Y-87140710D01*
X162568001Y-87130978D01*
X162568001Y-87130390D01*
X162568915Y-87125797D01*
X162580369Y-87060837D01*
X162582607Y-87056960D01*
X162583407Y-87052939D01*
X162594602Y-87036185D01*
X162615369Y-87000214D01*
X162622805Y-86993974D01*
X162627279Y-86987279D01*
X162644492Y-86975778D01*
X162664651Y-86958863D01*
X162673259Y-86956556D01*
X162692939Y-86943407D01*
X162770390Y-86928001D01*
X162779828Y-86928001D01*
X162786232Y-86926285D01*
X163049290Y-86926285D01*
X163059022Y-86928001D01*
X163059022Y-86928001D01*
G37*
G36*
X165929022Y-86928001D02*
G01*
X165929610Y-86928001D01*
X165934203Y-86928915D01*
X165999163Y-86940369D01*
X166003040Y-86942607D01*
X166007061Y-86943407D01*
X166023815Y-86954602D01*
X166059786Y-86975369D01*
X166066026Y-86982805D01*
X166072721Y-86987279D01*
X166084222Y-87004492D01*
X166101137Y-87024651D01*
X166103444Y-87033259D01*
X166116593Y-87052939D01*
X166131984Y-87130317D01*
X166164121Y-87183040D01*
X166227474Y-87213815D01*
X166297409Y-87205454D01*
X166351721Y-87160610D01*
X166371303Y-87112252D01*
X166380369Y-87060837D01*
X166382607Y-87056960D01*
X166383407Y-87052939D01*
X166394602Y-87036185D01*
X166415369Y-87000214D01*
X166422805Y-86993974D01*
X166427279Y-86987279D01*
X166444492Y-86975778D01*
X166464651Y-86958863D01*
X166473259Y-86956556D01*
X166492939Y-86943407D01*
X166570390Y-86928001D01*
X166579828Y-86928001D01*
X166586232Y-86926285D01*
X166849290Y-86926285D01*
X166859022Y-86928001D01*
X166859610Y-86928001D01*
X166864203Y-86928915D01*
X166929163Y-86940369D01*
X166933040Y-86942607D01*
X166937061Y-86943407D01*
X166953815Y-86954602D01*
X166989786Y-86975369D01*
X166996026Y-86982805D01*
X167002721Y-86987279D01*
X167014222Y-87004492D01*
X167031137Y-87024651D01*
X167033444Y-87033259D01*
X167046593Y-87052939D01*
X167061999Y-87130390D01*
X167061999Y-87139828D01*
X167063715Y-87146232D01*
X167063715Y-87459290D01*
X167061999Y-87469022D01*
X167061999Y-87469610D01*
X167061085Y-87474203D01*
X167049631Y-87539163D01*
X167047393Y-87543040D01*
X167046593Y-87547061D01*
X167035398Y-87563815D01*
X167014631Y-87599786D01*
X167007194Y-87606026D01*
X167002721Y-87612721D01*
X166985511Y-87624220D01*
X166965350Y-87641137D01*
X166956740Y-87643444D01*
X166937061Y-87656593D01*
X166859610Y-87671999D01*
X166850172Y-87671999D01*
X166843768Y-87673715D01*
X166580710Y-87673715D01*
X166570978Y-87671999D01*
X166570390Y-87671999D01*
X166565797Y-87671085D01*
X166500837Y-87659631D01*
X166496960Y-87657393D01*
X166492939Y-87656593D01*
X166476185Y-87645398D01*
X166440214Y-87624631D01*
X166433974Y-87617194D01*
X166427279Y-87612721D01*
X166415780Y-87595511D01*
X166398863Y-87575350D01*
X166396556Y-87566740D01*
X166383407Y-87547061D01*
X166368016Y-87469683D01*
X166335879Y-87416960D01*
X166272526Y-87386185D01*
X166202591Y-87394546D01*
X166148279Y-87439390D01*
X166128697Y-87487748D01*
X166119631Y-87539163D01*
X166117393Y-87543040D01*
X166116593Y-87547061D01*
X166105398Y-87563815D01*
X166084631Y-87599786D01*
X166077194Y-87606026D01*
X166072721Y-87612721D01*
X166055511Y-87624220D01*
X166035350Y-87641137D01*
X166026740Y-87643444D01*
X166007061Y-87656593D01*
X165929610Y-87671999D01*
X165920172Y-87671999D01*
X165913768Y-87673715D01*
X165650710Y-87673715D01*
X165640978Y-87671999D01*
X165640390Y-87671999D01*
X165635797Y-87671085D01*
X165570837Y-87659631D01*
X165566960Y-87657393D01*
X165562939Y-87656593D01*
X165546185Y-87645398D01*
X165510214Y-87624631D01*
X165503974Y-87617194D01*
X165497279Y-87612721D01*
X165485780Y-87595511D01*
X165468863Y-87575350D01*
X165466556Y-87566740D01*
X165453407Y-87547061D01*
X165438001Y-87469610D01*
X165438001Y-87460172D01*
X165436285Y-87453768D01*
X165436285Y-87140710D01*
X165438001Y-87130978D01*
X165438001Y-87130390D01*
X165438915Y-87125797D01*
X165450369Y-87060837D01*
X165452607Y-87056960D01*
X165453407Y-87052939D01*
X165464602Y-87036185D01*
X165485369Y-87000214D01*
X165492805Y-86993974D01*
X165497279Y-86987279D01*
X165514492Y-86975778D01*
X165534651Y-86958863D01*
X165543259Y-86956556D01*
X165562939Y-86943407D01*
X165640390Y-86928001D01*
X165649828Y-86928001D01*
X165656232Y-86926285D01*
X165919290Y-86926285D01*
X165929022Y-86928001D01*
X165929022Y-86928001D01*
G37*
G36*
X163059022Y-85928001D02*
G01*
X163059610Y-85928001D01*
X163064203Y-85928915D01*
X163129163Y-85940369D01*
X163133040Y-85942607D01*
X163137061Y-85943407D01*
X163153815Y-85954602D01*
X163189786Y-85975369D01*
X163196026Y-85982805D01*
X163202721Y-85987279D01*
X163214222Y-86004492D01*
X163231137Y-86024651D01*
X163233444Y-86033259D01*
X163246593Y-86052939D01*
X163261999Y-86130390D01*
X163261999Y-86139828D01*
X163263715Y-86146232D01*
X163263715Y-86459290D01*
X163261999Y-86469022D01*
X163261999Y-86469610D01*
X163261085Y-86474203D01*
X163249631Y-86539163D01*
X163247393Y-86543040D01*
X163246593Y-86547061D01*
X163235398Y-86563815D01*
X163214631Y-86599786D01*
X163207194Y-86606026D01*
X163202721Y-86612721D01*
X163185511Y-86624220D01*
X163165350Y-86641137D01*
X163156740Y-86643444D01*
X163137061Y-86656593D01*
X163059610Y-86671999D01*
X163050172Y-86671999D01*
X163043768Y-86673715D01*
X162780710Y-86673715D01*
X162770978Y-86671999D01*
X162770390Y-86671999D01*
X162765797Y-86671085D01*
X162700837Y-86659631D01*
X162696960Y-86657393D01*
X162692939Y-86656593D01*
X162676185Y-86645398D01*
X162640214Y-86624631D01*
X162633974Y-86617194D01*
X162627279Y-86612721D01*
X162615780Y-86595511D01*
X162598863Y-86575350D01*
X162596556Y-86566740D01*
X162583407Y-86547061D01*
X162568001Y-86469610D01*
X162568001Y-86460172D01*
X162566285Y-86453768D01*
X162566285Y-86140710D01*
X162568001Y-86130978D01*
X162568001Y-86130390D01*
X162568915Y-86125797D01*
X162580369Y-86060837D01*
X162582607Y-86056960D01*
X162583407Y-86052939D01*
X162594602Y-86036185D01*
X162615369Y-86000214D01*
X162622805Y-85993974D01*
X162627279Y-85987279D01*
X162644492Y-85975778D01*
X162664651Y-85958863D01*
X162673259Y-85956556D01*
X162692939Y-85943407D01*
X162770390Y-85928001D01*
X162779828Y-85928001D01*
X162786232Y-85926285D01*
X163049290Y-85926285D01*
X163059022Y-85928001D01*
X163059022Y-85928001D01*
G37*
G36*
X164029022Y-85928001D02*
G01*
X164029610Y-85928001D01*
X164034203Y-85928915D01*
X164099163Y-85940369D01*
X164103040Y-85942607D01*
X164107061Y-85943407D01*
X164123815Y-85954602D01*
X164159786Y-85975369D01*
X164166026Y-85982805D01*
X164172721Y-85987279D01*
X164184222Y-86004492D01*
X164201137Y-86024651D01*
X164203444Y-86033259D01*
X164216593Y-86052939D01*
X164231984Y-86130317D01*
X164264121Y-86183040D01*
X164327474Y-86213815D01*
X164397409Y-86205454D01*
X164451721Y-86160610D01*
X164471303Y-86112252D01*
X164480369Y-86060837D01*
X164482607Y-86056960D01*
X164483407Y-86052939D01*
X164494602Y-86036185D01*
X164515369Y-86000214D01*
X164522805Y-85993974D01*
X164527279Y-85987279D01*
X164544492Y-85975778D01*
X164564651Y-85958863D01*
X164573259Y-85956556D01*
X164592939Y-85943407D01*
X164670390Y-85928001D01*
X164679828Y-85928001D01*
X164686232Y-85926285D01*
X164949290Y-85926285D01*
X164959022Y-85928001D01*
X164959610Y-85928001D01*
X164964203Y-85928915D01*
X165029163Y-85940369D01*
X165033040Y-85942607D01*
X165037061Y-85943407D01*
X165053815Y-85954602D01*
X165089786Y-85975369D01*
X165096026Y-85982805D01*
X165102721Y-85987279D01*
X165114222Y-86004492D01*
X165131137Y-86024651D01*
X165133444Y-86033259D01*
X165146593Y-86052939D01*
X165161999Y-86130390D01*
X165161999Y-86139828D01*
X165163715Y-86146232D01*
X165163715Y-86459290D01*
X165161999Y-86469022D01*
X165161999Y-86469610D01*
X165161085Y-86474203D01*
X165149631Y-86539163D01*
X165147393Y-86543040D01*
X165146593Y-86547061D01*
X165135398Y-86563815D01*
X165114631Y-86599786D01*
X165107194Y-86606026D01*
X165102721Y-86612721D01*
X165085511Y-86624220D01*
X165065350Y-86641137D01*
X165056740Y-86643444D01*
X165037061Y-86656593D01*
X164959610Y-86671999D01*
X164950172Y-86671999D01*
X164943768Y-86673715D01*
X164680710Y-86673715D01*
X164670978Y-86671999D01*
X164670390Y-86671999D01*
X164665797Y-86671085D01*
X164600837Y-86659631D01*
X164596960Y-86657393D01*
X164592939Y-86656593D01*
X164576185Y-86645398D01*
X164540214Y-86624631D01*
X164533974Y-86617194D01*
X164527279Y-86612721D01*
X164515780Y-86595511D01*
X164498863Y-86575350D01*
X164496556Y-86566740D01*
X164483407Y-86547061D01*
X164468016Y-86469683D01*
X164435879Y-86416960D01*
X164372526Y-86386185D01*
X164302591Y-86394546D01*
X164248279Y-86439390D01*
X164228697Y-86487748D01*
X164219631Y-86539163D01*
X164217393Y-86543040D01*
X164216593Y-86547061D01*
X164205398Y-86563815D01*
X164184631Y-86599786D01*
X164177194Y-86606026D01*
X164172721Y-86612721D01*
X164155511Y-86624220D01*
X164135350Y-86641137D01*
X164126740Y-86643444D01*
X164107061Y-86656593D01*
X164029610Y-86671999D01*
X164020172Y-86671999D01*
X164013768Y-86673715D01*
X163750710Y-86673715D01*
X163740978Y-86671999D01*
X163740390Y-86671999D01*
X163735797Y-86671085D01*
X163670837Y-86659631D01*
X163666960Y-86657393D01*
X163662939Y-86656593D01*
X163646185Y-86645398D01*
X163610214Y-86624631D01*
X163603974Y-86617194D01*
X163597279Y-86612721D01*
X163585780Y-86595511D01*
X163568863Y-86575350D01*
X163566556Y-86566740D01*
X163553407Y-86547061D01*
X163538001Y-86469610D01*
X163538001Y-86460172D01*
X163536285Y-86453768D01*
X163536285Y-86140710D01*
X163538001Y-86130978D01*
X163538001Y-86130390D01*
X163538915Y-86125797D01*
X163550369Y-86060837D01*
X163552607Y-86056960D01*
X163553407Y-86052939D01*
X163564602Y-86036185D01*
X163585369Y-86000214D01*
X163592805Y-85993974D01*
X163597279Y-85987279D01*
X163614492Y-85975778D01*
X163634651Y-85958863D01*
X163643259Y-85956556D01*
X163662939Y-85943407D01*
X163740390Y-85928001D01*
X163749828Y-85928001D01*
X163756232Y-85926285D01*
X164019290Y-85926285D01*
X164029022Y-85928001D01*
X164029022Y-85928001D01*
G37*
G36*
X165929022Y-85928001D02*
G01*
X165929610Y-85928001D01*
X165934203Y-85928915D01*
X165999163Y-85940369D01*
X166003040Y-85942607D01*
X166007061Y-85943407D01*
X166023815Y-85954602D01*
X166059786Y-85975369D01*
X166066026Y-85982805D01*
X166072721Y-85987279D01*
X166084222Y-86004492D01*
X166101137Y-86024651D01*
X166103444Y-86033259D01*
X166116593Y-86052939D01*
X166131999Y-86130390D01*
X166131999Y-86139828D01*
X166133715Y-86146232D01*
X166133715Y-86459290D01*
X166131999Y-86469022D01*
X166131999Y-86469610D01*
X166131085Y-86474203D01*
X166119631Y-86539163D01*
X166117393Y-86543040D01*
X166116593Y-86547061D01*
X166105398Y-86563815D01*
X166084631Y-86599786D01*
X166077194Y-86606026D01*
X166072721Y-86612721D01*
X166055511Y-86624220D01*
X166035350Y-86641137D01*
X166026740Y-86643444D01*
X166007061Y-86656593D01*
X165929610Y-86671999D01*
X165920172Y-86671999D01*
X165913768Y-86673715D01*
X165650710Y-86673715D01*
X165640978Y-86671999D01*
X165640390Y-86671999D01*
X165635797Y-86671085D01*
X165570837Y-86659631D01*
X165566960Y-86657393D01*
X165562939Y-86656593D01*
X165546185Y-86645398D01*
X165510214Y-86624631D01*
X165503974Y-86617194D01*
X165497279Y-86612721D01*
X165485780Y-86595511D01*
X165468863Y-86575350D01*
X165466556Y-86566740D01*
X165453407Y-86547061D01*
X165438001Y-86469610D01*
X165438001Y-86460172D01*
X165436285Y-86453768D01*
X165436285Y-86140710D01*
X165438001Y-86130978D01*
X165438001Y-86130390D01*
X165438915Y-86125797D01*
X165450369Y-86060837D01*
X165452607Y-86056960D01*
X165453407Y-86052939D01*
X165464602Y-86036185D01*
X165485369Y-86000214D01*
X165492805Y-85993974D01*
X165497279Y-85987279D01*
X165514492Y-85975778D01*
X165534651Y-85958863D01*
X165543259Y-85956556D01*
X165562939Y-85943407D01*
X165640390Y-85928001D01*
X165649828Y-85928001D01*
X165656232Y-85926285D01*
X165919290Y-85926285D01*
X165929022Y-85928001D01*
X165929022Y-85928001D01*
G37*
G36*
X132129902Y-84189283D02*
G01*
X132174637Y-84189595D01*
X132218460Y-84198590D01*
X132268360Y-84203835D01*
X132310132Y-84217408D01*
X132347723Y-84225124D01*
X132394851Y-84244935D01*
X132448488Y-84262363D01*
X132481099Y-84281191D01*
X132510614Y-84293598D01*
X132558301Y-84325763D01*
X132612511Y-84357061D01*
X132635826Y-84378054D01*
X132657101Y-84392404D01*
X132702183Y-84437802D01*
X132753261Y-84483793D01*
X132768003Y-84504083D01*
X132781608Y-84517784D01*
X132820643Y-84576537D01*
X132864586Y-84637019D01*
X132872221Y-84654168D01*
X132879388Y-84664955D01*
X132908865Y-84736472D01*
X132941621Y-84810042D01*
X132944211Y-84822225D01*
X132946724Y-84828323D01*
X132963292Y-84911997D01*
X132980999Y-84995301D01*
X132980999Y-85184699D01*
X132978115Y-85198269D01*
X132978030Y-85204331D01*
X132959342Y-85286585D01*
X132941621Y-85369958D01*
X132939129Y-85375555D01*
X132939078Y-85375780D01*
X132867210Y-85537197D01*
X132867078Y-85537385D01*
X132864586Y-85542981D01*
X132814480Y-85611946D01*
X132765357Y-85681582D01*
X132760585Y-85686126D01*
X132753261Y-85696207D01*
X132693396Y-85750110D01*
X132637396Y-85803438D01*
X132626464Y-85810376D01*
X132612511Y-85822939D01*
X132547764Y-85860321D01*
X132488211Y-85898114D01*
X132470209Y-85905097D01*
X132448488Y-85917637D01*
X132383115Y-85938878D01*
X132323468Y-85962014D01*
X132298200Y-85966469D01*
X132268360Y-85976165D01*
X132206095Y-85982709D01*
X132149460Y-85992695D01*
X132117459Y-85992025D01*
X132080000Y-85995962D01*
X132023902Y-85990066D01*
X131972799Y-85988996D01*
X131935323Y-85980756D01*
X131891640Y-85976165D01*
X131843917Y-85960659D01*
X131800225Y-85951052D01*
X131759230Y-85933142D01*
X131711512Y-85917637D01*
X131673473Y-85895675D01*
X131638310Y-85880313D01*
X131596337Y-85851141D01*
X131547489Y-85822939D01*
X131519504Y-85797741D01*
X131493215Y-85779470D01*
X131453257Y-85738092D01*
X131406739Y-85696207D01*
X131388296Y-85670823D01*
X131370473Y-85652366D01*
X131335821Y-85598597D01*
X131295414Y-85542981D01*
X131285212Y-85520066D01*
X131274754Y-85503839D01*
X131248789Y-85438261D01*
X131218379Y-85369958D01*
X131214476Y-85351596D01*
X131209707Y-85339551D01*
X131195740Y-85263448D01*
X131179001Y-85184699D01*
X131179001Y-85172246D01*
X131177811Y-85165762D01*
X131179001Y-85080535D01*
X131179001Y-84995301D01*
X131180275Y-84989308D01*
X131180278Y-84989077D01*
X131217015Y-84816246D01*
X131217105Y-84816036D01*
X131218379Y-84810042D01*
X131253042Y-84732188D01*
X131286622Y-84653839D01*
X131290348Y-84648397D01*
X131295414Y-84637019D01*
X131342746Y-84571872D01*
X131386452Y-84508041D01*
X131395706Y-84498979D01*
X131406739Y-84483793D01*
X131462297Y-84433769D01*
X131512693Y-84384417D01*
X131528848Y-84373846D01*
X131547489Y-84357061D01*
X131607026Y-84322687D01*
X131660551Y-84287662D01*
X131684340Y-84278050D01*
X131711512Y-84262363D01*
X131771045Y-84243019D01*
X131824376Y-84221472D01*
X131855820Y-84215474D01*
X131891640Y-84203835D01*
X131947744Y-84197938D01*
X131997945Y-84188362D01*
X132036312Y-84188630D01*
X132080000Y-84184038D01*
X132129902Y-84189283D01*
X132129902Y-84189283D01*
G37*
G36*
X71481899Y-84191959D02*
G01*
X71498769Y-84203231D01*
X71510041Y-84220101D01*
X71516448Y-84252312D01*
X71516448Y-85927688D01*
X71513999Y-85940000D01*
X71510041Y-85959899D01*
X71498769Y-85976769D01*
X71481899Y-85988041D01*
X71462000Y-85991999D01*
X71449688Y-85994448D01*
X69774312Y-85994448D01*
X69742101Y-85988041D01*
X69725231Y-85976769D01*
X69713959Y-85959899D01*
X69707552Y-85927688D01*
X69707552Y-84252312D01*
X69713959Y-84220101D01*
X69725231Y-84203231D01*
X69742101Y-84191959D01*
X69774312Y-84185552D01*
X71449688Y-84185552D01*
X71481899Y-84191959D01*
X71481899Y-84191959D01*
G37*
G36*
X80960360Y-84203835D02*
G01*
X81041397Y-84230166D01*
X81128663Y-84257848D01*
X81131655Y-84259493D01*
X81140488Y-84262363D01*
X81212466Y-84303919D01*
X81283499Y-84342970D01*
X81290986Y-84349253D01*
X81304511Y-84357061D01*
X81362259Y-84409057D01*
X81418857Y-84456549D01*
X81428962Y-84469118D01*
X81445261Y-84483793D01*
X81487454Y-84541867D01*
X81529579Y-84594260D01*
X81539994Y-84614182D01*
X81556586Y-84637019D01*
X81583297Y-84697012D01*
X81611439Y-84750843D01*
X81619582Y-84778510D01*
X81633621Y-84810042D01*
X81645992Y-84868241D01*
X81661328Y-84920349D01*
X81664518Y-84955401D01*
X81672999Y-84995301D01*
X81672999Y-85048592D01*
X81677343Y-85096324D01*
X81672999Y-85137653D01*
X81672999Y-85184699D01*
X81663217Y-85230721D01*
X81658873Y-85272047D01*
X81644702Y-85317827D01*
X81633621Y-85369958D01*
X81617028Y-85407226D01*
X81606622Y-85440843D01*
X81580789Y-85488620D01*
X81556586Y-85542981D01*
X81536298Y-85570905D01*
X81522580Y-85596276D01*
X81483859Y-85643082D01*
X81445261Y-85696207D01*
X81424284Y-85715095D01*
X81409952Y-85732419D01*
X81357845Y-85774917D01*
X81304511Y-85822939D01*
X81285524Y-85833901D01*
X81273025Y-85844095D01*
X81207780Y-85878786D01*
X81140488Y-85917637D01*
X81125636Y-85922463D01*
X81117003Y-85927053D01*
X81039430Y-85950473D01*
X80960360Y-85976165D01*
X80951114Y-85977137D01*
X80947851Y-85978122D01*
X80856710Y-85987059D01*
X80819211Y-85991000D01*
X80724789Y-85991000D01*
X80583640Y-85976165D01*
X80502603Y-85949834D01*
X80415337Y-85922152D01*
X80412345Y-85920507D01*
X80403512Y-85917637D01*
X80331534Y-85876081D01*
X80260501Y-85837030D01*
X80253014Y-85830747D01*
X80239489Y-85822939D01*
X80181741Y-85770943D01*
X80125143Y-85723451D01*
X80115038Y-85710882D01*
X80098739Y-85696207D01*
X80056546Y-85638133D01*
X80014421Y-85585740D01*
X80004006Y-85565818D01*
X79987414Y-85542981D01*
X79960703Y-85482988D01*
X79932561Y-85429157D01*
X79924418Y-85401490D01*
X79910379Y-85369958D01*
X79898008Y-85311759D01*
X79882672Y-85259651D01*
X79879482Y-85224599D01*
X79871001Y-85184699D01*
X79871001Y-85131408D01*
X79866657Y-85083676D01*
X79871001Y-85042347D01*
X79871001Y-84995301D01*
X79880783Y-84949279D01*
X79885127Y-84907953D01*
X79899298Y-84862173D01*
X79910379Y-84810042D01*
X79926972Y-84772774D01*
X79937378Y-84739157D01*
X79963211Y-84691380D01*
X79987414Y-84637019D01*
X80007702Y-84609095D01*
X80021420Y-84583724D01*
X80060141Y-84536918D01*
X80098739Y-84483793D01*
X80119716Y-84464905D01*
X80134048Y-84447581D01*
X80186155Y-84405083D01*
X80239489Y-84357061D01*
X80258476Y-84346099D01*
X80270975Y-84335905D01*
X80336220Y-84301214D01*
X80403512Y-84262363D01*
X80418364Y-84257537D01*
X80426997Y-84252947D01*
X80504570Y-84229527D01*
X80583640Y-84203835D01*
X80592886Y-84202863D01*
X80596149Y-84201878D01*
X80687290Y-84192941D01*
X80724789Y-84189000D01*
X80819211Y-84189000D01*
X80960360Y-84203835D01*
X80960360Y-84203835D01*
G37*
G36*
X137348360Y-84203835D02*
G01*
X137429397Y-84230166D01*
X137516663Y-84257848D01*
X137519655Y-84259493D01*
X137528488Y-84262363D01*
X137600466Y-84303919D01*
X137671499Y-84342970D01*
X137678986Y-84349253D01*
X137692511Y-84357061D01*
X137750259Y-84409057D01*
X137806857Y-84456549D01*
X137816962Y-84469118D01*
X137833261Y-84483793D01*
X137875454Y-84541867D01*
X137917579Y-84594260D01*
X137927994Y-84614182D01*
X137944586Y-84637019D01*
X137971297Y-84697012D01*
X137999439Y-84750843D01*
X138007582Y-84778510D01*
X138021621Y-84810042D01*
X138033992Y-84868241D01*
X138049328Y-84920349D01*
X138052518Y-84955401D01*
X138060999Y-84995301D01*
X138060999Y-85048592D01*
X138065343Y-85096324D01*
X138060999Y-85137653D01*
X138060999Y-85184699D01*
X138051217Y-85230721D01*
X138046873Y-85272047D01*
X138032702Y-85317827D01*
X138021621Y-85369958D01*
X138005028Y-85407226D01*
X137994622Y-85440843D01*
X137968789Y-85488620D01*
X137944586Y-85542981D01*
X137924298Y-85570905D01*
X137910580Y-85596276D01*
X137871859Y-85643082D01*
X137833261Y-85696207D01*
X137812284Y-85715095D01*
X137797952Y-85732419D01*
X137745845Y-85774917D01*
X137692511Y-85822939D01*
X137673524Y-85833901D01*
X137661025Y-85844095D01*
X137595780Y-85878786D01*
X137528488Y-85917637D01*
X137513636Y-85922463D01*
X137505003Y-85927053D01*
X137427430Y-85950473D01*
X137348360Y-85976165D01*
X137339114Y-85977137D01*
X137335851Y-85978122D01*
X137244710Y-85987059D01*
X137207211Y-85991000D01*
X137112789Y-85991000D01*
X136971640Y-85976165D01*
X136890603Y-85949834D01*
X136803337Y-85922152D01*
X136800345Y-85920507D01*
X136791512Y-85917637D01*
X136719534Y-85876081D01*
X136648501Y-85837030D01*
X136641014Y-85830747D01*
X136627489Y-85822939D01*
X136569741Y-85770943D01*
X136513143Y-85723451D01*
X136503038Y-85710882D01*
X136486739Y-85696207D01*
X136444546Y-85638133D01*
X136402421Y-85585740D01*
X136392006Y-85565818D01*
X136375414Y-85542981D01*
X136348703Y-85482988D01*
X136320561Y-85429157D01*
X136312418Y-85401490D01*
X136298379Y-85369958D01*
X136286008Y-85311759D01*
X136270672Y-85259651D01*
X136267482Y-85224599D01*
X136259001Y-85184699D01*
X136259001Y-85131408D01*
X136254657Y-85083676D01*
X136259001Y-85042347D01*
X136259001Y-84995301D01*
X136268783Y-84949279D01*
X136273127Y-84907953D01*
X136287298Y-84862173D01*
X136298379Y-84810042D01*
X136314972Y-84772774D01*
X136325378Y-84739157D01*
X136351211Y-84691380D01*
X136375414Y-84637019D01*
X136395702Y-84609095D01*
X136409420Y-84583724D01*
X136448141Y-84536918D01*
X136486739Y-84483793D01*
X136507716Y-84464905D01*
X136522048Y-84447581D01*
X136574155Y-84405083D01*
X136627489Y-84357061D01*
X136646476Y-84346099D01*
X136658975Y-84335905D01*
X136724220Y-84301214D01*
X136791512Y-84262363D01*
X136806364Y-84257537D01*
X136814997Y-84252947D01*
X136892570Y-84229527D01*
X136971640Y-84203835D01*
X136980886Y-84202863D01*
X136984149Y-84201878D01*
X137075290Y-84192941D01*
X137112789Y-84189000D01*
X137207211Y-84189000D01*
X137348360Y-84203835D01*
X137348360Y-84203835D01*
G37*
G36*
X83500360Y-84203835D02*
G01*
X83581397Y-84230166D01*
X83668663Y-84257848D01*
X83671655Y-84259493D01*
X83680488Y-84262363D01*
X83752466Y-84303919D01*
X83823499Y-84342970D01*
X83830986Y-84349253D01*
X83844511Y-84357061D01*
X83902259Y-84409057D01*
X83958857Y-84456549D01*
X83968962Y-84469118D01*
X83985261Y-84483793D01*
X84027454Y-84541867D01*
X84069579Y-84594260D01*
X84079994Y-84614182D01*
X84096586Y-84637019D01*
X84123297Y-84697012D01*
X84151439Y-84750843D01*
X84159582Y-84778510D01*
X84173621Y-84810042D01*
X84185992Y-84868241D01*
X84201328Y-84920349D01*
X84204518Y-84955401D01*
X84212999Y-84995301D01*
X84212999Y-85048592D01*
X84217343Y-85096324D01*
X84212999Y-85137653D01*
X84212999Y-85184699D01*
X84203217Y-85230721D01*
X84198873Y-85272047D01*
X84184702Y-85317827D01*
X84173621Y-85369958D01*
X84157028Y-85407226D01*
X84146622Y-85440843D01*
X84120789Y-85488620D01*
X84096586Y-85542981D01*
X84076298Y-85570905D01*
X84062580Y-85596276D01*
X84023859Y-85643082D01*
X83985261Y-85696207D01*
X83964284Y-85715095D01*
X83949952Y-85732419D01*
X83897845Y-85774917D01*
X83844511Y-85822939D01*
X83825524Y-85833901D01*
X83813025Y-85844095D01*
X83747780Y-85878786D01*
X83680488Y-85917637D01*
X83665636Y-85922463D01*
X83657003Y-85927053D01*
X83579430Y-85950473D01*
X83500360Y-85976165D01*
X83491114Y-85977137D01*
X83487851Y-85978122D01*
X83396710Y-85987059D01*
X83359211Y-85991000D01*
X83264789Y-85991000D01*
X83123640Y-85976165D01*
X83042603Y-85949834D01*
X82955337Y-85922152D01*
X82952345Y-85920507D01*
X82943512Y-85917637D01*
X82871534Y-85876081D01*
X82800501Y-85837030D01*
X82793014Y-85830747D01*
X82779489Y-85822939D01*
X82721741Y-85770943D01*
X82665143Y-85723451D01*
X82655038Y-85710882D01*
X82638739Y-85696207D01*
X82596546Y-85638133D01*
X82554421Y-85585740D01*
X82544006Y-85565818D01*
X82527414Y-85542981D01*
X82500703Y-85482988D01*
X82472561Y-85429157D01*
X82464418Y-85401490D01*
X82450379Y-85369958D01*
X82438008Y-85311759D01*
X82422672Y-85259651D01*
X82419482Y-85224599D01*
X82411001Y-85184699D01*
X82411001Y-85131408D01*
X82406657Y-85083676D01*
X82411001Y-85042347D01*
X82411001Y-84995301D01*
X82420783Y-84949279D01*
X82425127Y-84907953D01*
X82439298Y-84862173D01*
X82450379Y-84810042D01*
X82466972Y-84772774D01*
X82477378Y-84739157D01*
X82503211Y-84691380D01*
X82527414Y-84637019D01*
X82547702Y-84609095D01*
X82561420Y-84583724D01*
X82600141Y-84536918D01*
X82638739Y-84483793D01*
X82659716Y-84464905D01*
X82674048Y-84447581D01*
X82726155Y-84405083D01*
X82779489Y-84357061D01*
X82798476Y-84346099D01*
X82810975Y-84335905D01*
X82876220Y-84301214D01*
X82943512Y-84262363D01*
X82958364Y-84257537D01*
X82966997Y-84252947D01*
X83044570Y-84229527D01*
X83123640Y-84203835D01*
X83132886Y-84202863D01*
X83136149Y-84201878D01*
X83227290Y-84192941D01*
X83264789Y-84189000D01*
X83359211Y-84189000D01*
X83500360Y-84203835D01*
X83500360Y-84203835D01*
G37*
G36*
X73340360Y-84203835D02*
G01*
X73421397Y-84230166D01*
X73508663Y-84257848D01*
X73511655Y-84259493D01*
X73520488Y-84262363D01*
X73592466Y-84303919D01*
X73663499Y-84342970D01*
X73670986Y-84349253D01*
X73684511Y-84357061D01*
X73742259Y-84409057D01*
X73798857Y-84456549D01*
X73808962Y-84469118D01*
X73825261Y-84483793D01*
X73867454Y-84541867D01*
X73909579Y-84594260D01*
X73919994Y-84614182D01*
X73936586Y-84637019D01*
X73963297Y-84697012D01*
X73991439Y-84750843D01*
X73999582Y-84778510D01*
X74013621Y-84810042D01*
X74025992Y-84868241D01*
X74041328Y-84920349D01*
X74044518Y-84955401D01*
X74052999Y-84995301D01*
X74052999Y-85048592D01*
X74057343Y-85096324D01*
X74052999Y-85137653D01*
X74052999Y-85184699D01*
X74043217Y-85230721D01*
X74038873Y-85272047D01*
X74024702Y-85317827D01*
X74013621Y-85369958D01*
X73997028Y-85407226D01*
X73986622Y-85440843D01*
X73960789Y-85488620D01*
X73936586Y-85542981D01*
X73916298Y-85570905D01*
X73902580Y-85596276D01*
X73863859Y-85643082D01*
X73825261Y-85696207D01*
X73804284Y-85715095D01*
X73789952Y-85732419D01*
X73737845Y-85774917D01*
X73684511Y-85822939D01*
X73665524Y-85833901D01*
X73653025Y-85844095D01*
X73587780Y-85878786D01*
X73520488Y-85917637D01*
X73505636Y-85922463D01*
X73497003Y-85927053D01*
X73419430Y-85950473D01*
X73340360Y-85976165D01*
X73331114Y-85977137D01*
X73327851Y-85978122D01*
X73236710Y-85987059D01*
X73199211Y-85991000D01*
X73104789Y-85991000D01*
X72963640Y-85976165D01*
X72882603Y-85949834D01*
X72795337Y-85922152D01*
X72792345Y-85920507D01*
X72783512Y-85917637D01*
X72711534Y-85876081D01*
X72640501Y-85837030D01*
X72633014Y-85830747D01*
X72619489Y-85822939D01*
X72561741Y-85770943D01*
X72505143Y-85723451D01*
X72495038Y-85710882D01*
X72478739Y-85696207D01*
X72436546Y-85638133D01*
X72394421Y-85585740D01*
X72384006Y-85565818D01*
X72367414Y-85542981D01*
X72340703Y-85482988D01*
X72312561Y-85429157D01*
X72304418Y-85401490D01*
X72290379Y-85369958D01*
X72278008Y-85311759D01*
X72262672Y-85259651D01*
X72259482Y-85224599D01*
X72251001Y-85184699D01*
X72251001Y-85131408D01*
X72246657Y-85083676D01*
X72251001Y-85042347D01*
X72251001Y-84995301D01*
X72260783Y-84949279D01*
X72265127Y-84907953D01*
X72279298Y-84862173D01*
X72290379Y-84810042D01*
X72306972Y-84772774D01*
X72317378Y-84739157D01*
X72343211Y-84691380D01*
X72367414Y-84637019D01*
X72387702Y-84609095D01*
X72401420Y-84583724D01*
X72440141Y-84536918D01*
X72478739Y-84483793D01*
X72499716Y-84464905D01*
X72514048Y-84447581D01*
X72566155Y-84405083D01*
X72619489Y-84357061D01*
X72638476Y-84346099D01*
X72650975Y-84335905D01*
X72716220Y-84301214D01*
X72783512Y-84262363D01*
X72798364Y-84257537D01*
X72806997Y-84252947D01*
X72884570Y-84229527D01*
X72963640Y-84203835D01*
X72972886Y-84202863D01*
X72976149Y-84201878D01*
X73067290Y-84192941D01*
X73104789Y-84189000D01*
X73199211Y-84189000D01*
X73340360Y-84203835D01*
X73340360Y-84203835D01*
G37*
G36*
X75880360Y-84203835D02*
G01*
X75961397Y-84230166D01*
X76048663Y-84257848D01*
X76051655Y-84259493D01*
X76060488Y-84262363D01*
X76132466Y-84303919D01*
X76203499Y-84342970D01*
X76210986Y-84349253D01*
X76224511Y-84357061D01*
X76282259Y-84409057D01*
X76338857Y-84456549D01*
X76348962Y-84469118D01*
X76365261Y-84483793D01*
X76407454Y-84541867D01*
X76449579Y-84594260D01*
X76459994Y-84614182D01*
X76476586Y-84637019D01*
X76503297Y-84697012D01*
X76531439Y-84750843D01*
X76539582Y-84778510D01*
X76553621Y-84810042D01*
X76565992Y-84868241D01*
X76581328Y-84920349D01*
X76584518Y-84955401D01*
X76592999Y-84995301D01*
X76592999Y-85048592D01*
X76597343Y-85096324D01*
X76592999Y-85137653D01*
X76592999Y-85184699D01*
X76583217Y-85230721D01*
X76578873Y-85272047D01*
X76564702Y-85317827D01*
X76553621Y-85369958D01*
X76537028Y-85407226D01*
X76526622Y-85440843D01*
X76500789Y-85488620D01*
X76476586Y-85542981D01*
X76456298Y-85570905D01*
X76442580Y-85596276D01*
X76403859Y-85643082D01*
X76365261Y-85696207D01*
X76344284Y-85715095D01*
X76329952Y-85732419D01*
X76277845Y-85774917D01*
X76224511Y-85822939D01*
X76205524Y-85833901D01*
X76193025Y-85844095D01*
X76127780Y-85878786D01*
X76060488Y-85917637D01*
X76045636Y-85922463D01*
X76037003Y-85927053D01*
X75959430Y-85950473D01*
X75880360Y-85976165D01*
X75871114Y-85977137D01*
X75867851Y-85978122D01*
X75776710Y-85987059D01*
X75739211Y-85991000D01*
X75644789Y-85991000D01*
X75503640Y-85976165D01*
X75422603Y-85949834D01*
X75335337Y-85922152D01*
X75332345Y-85920507D01*
X75323512Y-85917637D01*
X75251534Y-85876081D01*
X75180501Y-85837030D01*
X75173014Y-85830747D01*
X75159489Y-85822939D01*
X75101741Y-85770943D01*
X75045143Y-85723451D01*
X75035038Y-85710882D01*
X75018739Y-85696207D01*
X74976546Y-85638133D01*
X74934421Y-85585740D01*
X74924006Y-85565818D01*
X74907414Y-85542981D01*
X74880703Y-85482988D01*
X74852561Y-85429157D01*
X74844418Y-85401490D01*
X74830379Y-85369958D01*
X74818008Y-85311759D01*
X74802672Y-85259651D01*
X74799482Y-85224599D01*
X74791001Y-85184699D01*
X74791001Y-85131408D01*
X74786657Y-85083676D01*
X74791001Y-85042347D01*
X74791001Y-84995301D01*
X74800783Y-84949279D01*
X74805127Y-84907953D01*
X74819298Y-84862173D01*
X74830379Y-84810042D01*
X74846972Y-84772774D01*
X74857378Y-84739157D01*
X74883211Y-84691380D01*
X74907414Y-84637019D01*
X74927702Y-84609095D01*
X74941420Y-84583724D01*
X74980141Y-84536918D01*
X75018739Y-84483793D01*
X75039716Y-84464905D01*
X75054048Y-84447581D01*
X75106155Y-84405083D01*
X75159489Y-84357061D01*
X75178476Y-84346099D01*
X75190975Y-84335905D01*
X75256220Y-84301214D01*
X75323512Y-84262363D01*
X75338364Y-84257537D01*
X75346997Y-84252947D01*
X75424570Y-84229527D01*
X75503640Y-84203835D01*
X75512886Y-84202863D01*
X75516149Y-84201878D01*
X75607290Y-84192941D01*
X75644789Y-84189000D01*
X75739211Y-84189000D01*
X75880360Y-84203835D01*
X75880360Y-84203835D01*
G37*
G36*
X78420360Y-84203835D02*
G01*
X78501397Y-84230166D01*
X78588663Y-84257848D01*
X78591655Y-84259493D01*
X78600488Y-84262363D01*
X78672466Y-84303919D01*
X78743499Y-84342970D01*
X78750986Y-84349253D01*
X78764511Y-84357061D01*
X78822259Y-84409057D01*
X78878857Y-84456549D01*
X78888962Y-84469118D01*
X78905261Y-84483793D01*
X78947454Y-84541867D01*
X78989579Y-84594260D01*
X78999994Y-84614182D01*
X79016586Y-84637019D01*
X79043297Y-84697012D01*
X79071439Y-84750843D01*
X79079582Y-84778510D01*
X79093621Y-84810042D01*
X79105992Y-84868241D01*
X79121328Y-84920349D01*
X79124518Y-84955401D01*
X79132999Y-84995301D01*
X79132999Y-85048592D01*
X79137343Y-85096324D01*
X79132999Y-85137653D01*
X79132999Y-85184699D01*
X79123217Y-85230721D01*
X79118873Y-85272047D01*
X79104702Y-85317827D01*
X79093621Y-85369958D01*
X79077028Y-85407226D01*
X79066622Y-85440843D01*
X79040789Y-85488620D01*
X79016586Y-85542981D01*
X78996298Y-85570905D01*
X78982580Y-85596276D01*
X78943859Y-85643082D01*
X78905261Y-85696207D01*
X78884284Y-85715095D01*
X78869952Y-85732419D01*
X78817845Y-85774917D01*
X78764511Y-85822939D01*
X78745524Y-85833901D01*
X78733025Y-85844095D01*
X78667780Y-85878786D01*
X78600488Y-85917637D01*
X78585636Y-85922463D01*
X78577003Y-85927053D01*
X78499430Y-85950473D01*
X78420360Y-85976165D01*
X78411114Y-85977137D01*
X78407851Y-85978122D01*
X78316710Y-85987059D01*
X78279211Y-85991000D01*
X78184789Y-85991000D01*
X78043640Y-85976165D01*
X77962603Y-85949834D01*
X77875337Y-85922152D01*
X77872345Y-85920507D01*
X77863512Y-85917637D01*
X77791534Y-85876081D01*
X77720501Y-85837030D01*
X77713014Y-85830747D01*
X77699489Y-85822939D01*
X77641741Y-85770943D01*
X77585143Y-85723451D01*
X77575038Y-85710882D01*
X77558739Y-85696207D01*
X77516546Y-85638133D01*
X77474421Y-85585740D01*
X77464006Y-85565818D01*
X77447414Y-85542981D01*
X77420703Y-85482988D01*
X77392561Y-85429157D01*
X77384418Y-85401490D01*
X77370379Y-85369958D01*
X77358008Y-85311759D01*
X77342672Y-85259651D01*
X77339482Y-85224599D01*
X77331001Y-85184699D01*
X77331001Y-85131408D01*
X77326657Y-85083676D01*
X77331001Y-85042347D01*
X77331001Y-84995301D01*
X77340783Y-84949279D01*
X77345127Y-84907953D01*
X77359298Y-84862173D01*
X77370379Y-84810042D01*
X77386972Y-84772774D01*
X77397378Y-84739157D01*
X77423211Y-84691380D01*
X77447414Y-84637019D01*
X77467702Y-84609095D01*
X77481420Y-84583724D01*
X77520141Y-84536918D01*
X77558739Y-84483793D01*
X77579716Y-84464905D01*
X77594048Y-84447581D01*
X77646155Y-84405083D01*
X77699489Y-84357061D01*
X77718476Y-84346099D01*
X77730975Y-84335905D01*
X77796220Y-84301214D01*
X77863512Y-84262363D01*
X77878364Y-84257537D01*
X77886997Y-84252947D01*
X77964570Y-84229527D01*
X78043640Y-84203835D01*
X78052886Y-84202863D01*
X78056149Y-84201878D01*
X78147290Y-84192941D01*
X78184789Y-84189000D01*
X78279211Y-84189000D01*
X78420360Y-84203835D01*
X78420360Y-84203835D01*
G37*
G36*
X134808360Y-84203835D02*
G01*
X134889397Y-84230166D01*
X134976663Y-84257848D01*
X134979655Y-84259493D01*
X134988488Y-84262363D01*
X135060466Y-84303919D01*
X135131499Y-84342970D01*
X135138986Y-84349253D01*
X135152511Y-84357061D01*
X135210259Y-84409057D01*
X135266857Y-84456549D01*
X135276962Y-84469118D01*
X135293261Y-84483793D01*
X135335454Y-84541867D01*
X135377579Y-84594260D01*
X135387994Y-84614182D01*
X135404586Y-84637019D01*
X135431297Y-84697012D01*
X135459439Y-84750843D01*
X135467582Y-84778510D01*
X135481621Y-84810042D01*
X135493992Y-84868241D01*
X135509328Y-84920349D01*
X135512518Y-84955401D01*
X135520999Y-84995301D01*
X135520999Y-85048592D01*
X135525343Y-85096324D01*
X135520999Y-85137653D01*
X135520999Y-85184699D01*
X135511217Y-85230721D01*
X135506873Y-85272047D01*
X135492702Y-85317827D01*
X135481621Y-85369958D01*
X135465028Y-85407226D01*
X135454622Y-85440843D01*
X135428789Y-85488620D01*
X135404586Y-85542981D01*
X135384298Y-85570905D01*
X135370580Y-85596276D01*
X135331859Y-85643082D01*
X135293261Y-85696207D01*
X135272284Y-85715095D01*
X135257952Y-85732419D01*
X135205845Y-85774917D01*
X135152511Y-85822939D01*
X135133524Y-85833901D01*
X135121025Y-85844095D01*
X135055780Y-85878786D01*
X134988488Y-85917637D01*
X134973636Y-85922463D01*
X134965003Y-85927053D01*
X134887430Y-85950473D01*
X134808360Y-85976165D01*
X134799114Y-85977137D01*
X134795851Y-85978122D01*
X134704710Y-85987059D01*
X134667211Y-85991000D01*
X134572789Y-85991000D01*
X134431640Y-85976165D01*
X134350603Y-85949834D01*
X134263337Y-85922152D01*
X134260345Y-85920507D01*
X134251512Y-85917637D01*
X134179534Y-85876081D01*
X134108501Y-85837030D01*
X134101014Y-85830747D01*
X134087489Y-85822939D01*
X134029741Y-85770943D01*
X133973143Y-85723451D01*
X133963038Y-85710882D01*
X133946739Y-85696207D01*
X133904546Y-85638133D01*
X133862421Y-85585740D01*
X133852006Y-85565818D01*
X133835414Y-85542981D01*
X133808703Y-85482988D01*
X133780561Y-85429157D01*
X133772418Y-85401490D01*
X133758379Y-85369958D01*
X133746008Y-85311759D01*
X133730672Y-85259651D01*
X133727482Y-85224599D01*
X133719001Y-85184699D01*
X133719001Y-85131408D01*
X133714657Y-85083676D01*
X133719001Y-85042347D01*
X133719001Y-84995301D01*
X133728783Y-84949279D01*
X133733127Y-84907953D01*
X133747298Y-84862173D01*
X133758379Y-84810042D01*
X133774972Y-84772774D01*
X133785378Y-84739157D01*
X133811211Y-84691380D01*
X133835414Y-84637019D01*
X133855702Y-84609095D01*
X133869420Y-84583724D01*
X133908141Y-84536918D01*
X133946739Y-84483793D01*
X133967716Y-84464905D01*
X133982048Y-84447581D01*
X134034155Y-84405083D01*
X134087489Y-84357061D01*
X134106476Y-84346099D01*
X134118975Y-84335905D01*
X134184220Y-84301214D01*
X134251512Y-84262363D01*
X134266364Y-84257537D01*
X134274997Y-84252947D01*
X134352570Y-84229527D01*
X134431640Y-84203835D01*
X134440886Y-84202863D01*
X134444149Y-84201878D01*
X134535290Y-84192941D01*
X134572789Y-84189000D01*
X134667211Y-84189000D01*
X134808360Y-84203835D01*
X134808360Y-84203835D01*
G37*
G36*
X86040360Y-84203835D02*
G01*
X86121397Y-84230166D01*
X86208663Y-84257848D01*
X86211655Y-84259493D01*
X86220488Y-84262363D01*
X86292466Y-84303919D01*
X86363499Y-84342970D01*
X86370986Y-84349253D01*
X86384511Y-84357061D01*
X86442259Y-84409057D01*
X86498857Y-84456549D01*
X86508962Y-84469118D01*
X86525261Y-84483793D01*
X86567454Y-84541867D01*
X86609579Y-84594260D01*
X86619994Y-84614182D01*
X86636586Y-84637019D01*
X86663297Y-84697012D01*
X86691439Y-84750843D01*
X86699582Y-84778510D01*
X86713621Y-84810042D01*
X86725992Y-84868241D01*
X86741328Y-84920349D01*
X86744518Y-84955401D01*
X86752999Y-84995301D01*
X86752999Y-85048592D01*
X86757343Y-85096324D01*
X86752999Y-85137653D01*
X86752999Y-85184699D01*
X86743217Y-85230721D01*
X86738873Y-85272047D01*
X86724702Y-85317827D01*
X86713621Y-85369958D01*
X86697028Y-85407226D01*
X86686622Y-85440843D01*
X86660789Y-85488620D01*
X86636586Y-85542981D01*
X86616298Y-85570905D01*
X86602580Y-85596276D01*
X86563859Y-85643082D01*
X86525261Y-85696207D01*
X86504284Y-85715095D01*
X86489952Y-85732419D01*
X86437845Y-85774917D01*
X86384511Y-85822939D01*
X86365524Y-85833901D01*
X86353025Y-85844095D01*
X86287780Y-85878786D01*
X86220488Y-85917637D01*
X86205636Y-85922463D01*
X86197003Y-85927053D01*
X86119430Y-85950473D01*
X86040360Y-85976165D01*
X86031114Y-85977137D01*
X86027851Y-85978122D01*
X85936710Y-85987059D01*
X85899211Y-85991000D01*
X85804789Y-85991000D01*
X85663640Y-85976165D01*
X85582603Y-85949834D01*
X85495337Y-85922152D01*
X85492345Y-85920507D01*
X85483512Y-85917637D01*
X85411534Y-85876081D01*
X85340501Y-85837030D01*
X85333014Y-85830747D01*
X85319489Y-85822939D01*
X85261741Y-85770943D01*
X85205143Y-85723451D01*
X85195038Y-85710882D01*
X85178739Y-85696207D01*
X85136546Y-85638133D01*
X85094421Y-85585740D01*
X85084006Y-85565818D01*
X85067414Y-85542981D01*
X85040703Y-85482988D01*
X85012561Y-85429157D01*
X85004418Y-85401490D01*
X84990379Y-85369958D01*
X84978008Y-85311759D01*
X84962672Y-85259651D01*
X84959482Y-85224599D01*
X84951001Y-85184699D01*
X84951001Y-85131408D01*
X84946657Y-85083676D01*
X84951001Y-85042347D01*
X84951001Y-84995301D01*
X84960783Y-84949279D01*
X84965127Y-84907953D01*
X84979298Y-84862173D01*
X84990379Y-84810042D01*
X85006972Y-84772774D01*
X85017378Y-84739157D01*
X85043211Y-84691380D01*
X85067414Y-84637019D01*
X85087702Y-84609095D01*
X85101420Y-84583724D01*
X85140141Y-84536918D01*
X85178739Y-84483793D01*
X85199716Y-84464905D01*
X85214048Y-84447581D01*
X85266155Y-84405083D01*
X85319489Y-84357061D01*
X85338476Y-84346099D01*
X85350975Y-84335905D01*
X85416220Y-84301214D01*
X85483512Y-84262363D01*
X85498364Y-84257537D01*
X85506997Y-84252947D01*
X85584570Y-84229527D01*
X85663640Y-84203835D01*
X85672886Y-84202863D01*
X85676149Y-84201878D01*
X85767290Y-84192941D01*
X85804789Y-84189000D01*
X85899211Y-84189000D01*
X86040360Y-84203835D01*
X86040360Y-84203835D01*
G37*
G36*
X126270158Y-84290235D02*
G01*
X126306063Y-84288322D01*
X126341448Y-84294721D01*
X126382836Y-84297325D01*
X126416709Y-84308331D01*
X126446266Y-84313676D01*
X126484653Y-84330407D01*
X126529655Y-84345029D01*
X126554772Y-84360969D01*
X126576874Y-84370602D01*
X126615135Y-84399276D01*
X126659997Y-84427747D01*
X126676328Y-84445137D01*
X126690886Y-84456048D01*
X126725357Y-84497348D01*
X126765674Y-84540281D01*
X126774325Y-84556017D01*
X126782184Y-84565433D01*
X126808946Y-84618993D01*
X126840044Y-84675560D01*
X126843039Y-84687224D01*
X126845867Y-84692884D01*
X126861077Y-84757475D01*
X126878436Y-84825085D01*
X126878436Y-84979459D01*
X126861765Y-85044389D01*
X126842124Y-85121724D01*
X126841699Y-85122539D01*
X126840044Y-85128984D01*
X126806620Y-85189783D01*
X126776226Y-85248045D01*
X126771734Y-85253240D01*
X126765674Y-85264263D01*
X126721830Y-85310952D01*
X126683034Y-85355818D01*
X126672656Y-85363317D01*
X126659997Y-85376797D01*
X126610708Y-85408077D01*
X126567548Y-85439262D01*
X126550251Y-85446444D01*
X126529655Y-85459515D01*
X126479626Y-85475770D01*
X126435967Y-85493899D01*
X126411635Y-85497862D01*
X126382836Y-85507219D01*
X126336141Y-85510157D01*
X126295340Y-85516802D01*
X126264846Y-85514643D01*
X126228766Y-85516913D01*
X126188543Y-85509240D01*
X126153222Y-85506739D01*
X126118396Y-85495859D01*
X126077126Y-85487986D01*
X126045379Y-85473047D01*
X126017222Y-85464250D01*
X125980727Y-85442624D01*
X125937444Y-85422256D01*
X125914941Y-85403640D01*
X125894657Y-85391620D01*
X125859841Y-85358058D01*
X125818496Y-85323854D01*
X125804787Y-85304986D01*
X125792077Y-85292733D01*
X125762680Y-85247030D01*
X125727757Y-85198963D01*
X125721345Y-85182767D01*
X125715003Y-85172908D01*
X125694885Y-85115938D01*
X125670928Y-85055429D01*
X125669486Y-85044011D01*
X125667561Y-85038561D01*
X125660387Y-84971991D01*
X125651580Y-84902272D01*
X125657652Y-84854205D01*
X125670030Y-84755533D01*
X125670162Y-84755179D01*
X125670928Y-84749115D01*
X125696620Y-84684224D01*
X125719808Y-84622039D01*
X125723325Y-84616776D01*
X125727757Y-84605581D01*
X125765698Y-84553360D01*
X125798966Y-84503571D01*
X125807944Y-84495214D01*
X125818496Y-84480690D01*
X125863872Y-84443152D01*
X125903251Y-84406495D01*
X125919062Y-84397495D01*
X125937444Y-84382288D01*
X125985518Y-84359666D01*
X126027072Y-84336012D01*
X126050209Y-84329224D01*
X126077126Y-84316558D01*
X126123612Y-84307690D01*
X126163788Y-84295904D01*
X126193775Y-84294306D01*
X126228766Y-84287631D01*
X126270158Y-84290235D01*
X126270158Y-84290235D01*
G37*
G36*
X124035286Y-84290235D02*
G01*
X124071191Y-84288322D01*
X124106576Y-84294721D01*
X124147964Y-84297325D01*
X124181837Y-84308331D01*
X124211394Y-84313676D01*
X124249781Y-84330407D01*
X124294783Y-84345029D01*
X124319900Y-84360969D01*
X124342002Y-84370602D01*
X124380263Y-84399276D01*
X124425125Y-84427747D01*
X124441456Y-84445137D01*
X124456014Y-84456048D01*
X124490485Y-84497348D01*
X124530802Y-84540281D01*
X124539453Y-84556017D01*
X124547312Y-84565433D01*
X124574074Y-84618993D01*
X124605172Y-84675560D01*
X124608167Y-84687224D01*
X124610995Y-84692884D01*
X124626205Y-84757475D01*
X124643564Y-84825085D01*
X124643564Y-84979459D01*
X124626893Y-85044389D01*
X124607252Y-85121724D01*
X124606827Y-85122539D01*
X124605172Y-85128984D01*
X124571748Y-85189783D01*
X124541354Y-85248045D01*
X124536862Y-85253240D01*
X124530802Y-85264263D01*
X124486958Y-85310952D01*
X124448162Y-85355818D01*
X124437784Y-85363317D01*
X124425125Y-85376797D01*
X124375836Y-85408077D01*
X124332676Y-85439262D01*
X124315379Y-85446444D01*
X124294783Y-85459515D01*
X124244754Y-85475770D01*
X124201095Y-85493899D01*
X124176763Y-85497862D01*
X124147964Y-85507219D01*
X124101269Y-85510157D01*
X124060468Y-85516802D01*
X124029974Y-85514643D01*
X123993894Y-85516913D01*
X123953671Y-85509240D01*
X123918350Y-85506739D01*
X123883524Y-85495859D01*
X123842254Y-85487986D01*
X123810507Y-85473047D01*
X123782350Y-85464250D01*
X123745855Y-85442624D01*
X123702572Y-85422256D01*
X123680069Y-85403640D01*
X123659785Y-85391620D01*
X123624969Y-85358058D01*
X123583624Y-85323854D01*
X123569915Y-85304986D01*
X123557205Y-85292733D01*
X123527808Y-85247030D01*
X123492885Y-85198963D01*
X123486473Y-85182767D01*
X123480131Y-85172908D01*
X123460013Y-85115938D01*
X123436056Y-85055429D01*
X123434614Y-85044011D01*
X123432689Y-85038561D01*
X123425515Y-84971991D01*
X123416708Y-84902272D01*
X123422780Y-84854205D01*
X123435158Y-84755533D01*
X123435290Y-84755179D01*
X123436056Y-84749115D01*
X123461748Y-84684224D01*
X123484936Y-84622039D01*
X123488453Y-84616776D01*
X123492885Y-84605581D01*
X123530826Y-84553360D01*
X123564094Y-84503571D01*
X123573072Y-84495214D01*
X123583624Y-84480690D01*
X123629000Y-84443152D01*
X123668379Y-84406495D01*
X123684190Y-84397495D01*
X123702572Y-84382288D01*
X123750646Y-84359666D01*
X123792200Y-84336012D01*
X123815337Y-84329224D01*
X123842254Y-84316558D01*
X123888740Y-84307690D01*
X123928916Y-84295904D01*
X123958903Y-84294306D01*
X123993894Y-84287631D01*
X124035286Y-84290235D01*
X124035286Y-84290235D01*
G37*
G36*
X124759022Y-83323001D02*
G01*
X124759610Y-83323001D01*
X124764203Y-83323915D01*
X124829163Y-83335369D01*
X124833040Y-83337607D01*
X124837061Y-83338407D01*
X124853815Y-83349602D01*
X124889786Y-83370369D01*
X124896026Y-83377805D01*
X124902721Y-83382279D01*
X124914222Y-83399492D01*
X124931137Y-83419651D01*
X124933444Y-83428259D01*
X124946593Y-83447939D01*
X124961999Y-83525390D01*
X124961999Y-83534828D01*
X124963715Y-83541232D01*
X124963715Y-83854290D01*
X124961999Y-83864022D01*
X124961999Y-83864610D01*
X124961085Y-83869203D01*
X124949631Y-83934163D01*
X124947393Y-83938040D01*
X124946593Y-83942061D01*
X124935398Y-83958815D01*
X124914631Y-83994786D01*
X124907194Y-84001026D01*
X124902721Y-84007721D01*
X124885511Y-84019220D01*
X124865350Y-84036137D01*
X124856740Y-84038444D01*
X124837061Y-84051593D01*
X124759610Y-84066999D01*
X124750172Y-84066999D01*
X124743768Y-84068715D01*
X124480710Y-84068715D01*
X124470978Y-84066999D01*
X124470390Y-84066999D01*
X124465797Y-84066085D01*
X124400837Y-84054631D01*
X124396960Y-84052393D01*
X124392939Y-84051593D01*
X124376185Y-84040398D01*
X124340214Y-84019631D01*
X124333974Y-84012194D01*
X124327279Y-84007721D01*
X124315780Y-83990511D01*
X124298863Y-83970350D01*
X124296556Y-83961740D01*
X124283407Y-83942061D01*
X124268001Y-83864610D01*
X124268001Y-83855172D01*
X124266285Y-83848768D01*
X124266285Y-83535710D01*
X124268001Y-83525978D01*
X124268001Y-83525390D01*
X124268915Y-83520797D01*
X124280369Y-83455837D01*
X124282607Y-83451960D01*
X124283407Y-83447939D01*
X124294602Y-83431185D01*
X124315369Y-83395214D01*
X124322805Y-83388974D01*
X124327279Y-83382279D01*
X124344492Y-83370778D01*
X124364651Y-83353863D01*
X124373259Y-83351556D01*
X124392939Y-83338407D01*
X124470390Y-83323001D01*
X124479828Y-83323001D01*
X124486232Y-83321285D01*
X124749290Y-83321285D01*
X124759022Y-83323001D01*
X124759022Y-83323001D01*
G37*
G36*
X125729022Y-83323001D02*
G01*
X125729610Y-83323001D01*
X125734203Y-83323915D01*
X125799163Y-83335369D01*
X125803040Y-83337607D01*
X125807061Y-83338407D01*
X125823815Y-83349602D01*
X125859786Y-83370369D01*
X125866026Y-83377805D01*
X125872721Y-83382279D01*
X125884222Y-83399492D01*
X125901137Y-83419651D01*
X125903444Y-83428259D01*
X125916593Y-83447939D01*
X125931999Y-83525390D01*
X125931999Y-83534828D01*
X125933715Y-83541232D01*
X125933715Y-83854290D01*
X125931999Y-83864022D01*
X125931999Y-83864610D01*
X125931085Y-83869203D01*
X125919631Y-83934163D01*
X125917393Y-83938040D01*
X125916593Y-83942061D01*
X125905398Y-83958815D01*
X125884631Y-83994786D01*
X125877194Y-84001026D01*
X125872721Y-84007721D01*
X125855511Y-84019220D01*
X125835350Y-84036137D01*
X125826740Y-84038444D01*
X125807061Y-84051593D01*
X125729610Y-84066999D01*
X125720172Y-84066999D01*
X125713768Y-84068715D01*
X125450710Y-84068715D01*
X125440978Y-84066999D01*
X125440390Y-84066999D01*
X125435797Y-84066085D01*
X125370837Y-84054631D01*
X125366960Y-84052393D01*
X125362939Y-84051593D01*
X125346185Y-84040398D01*
X125310214Y-84019631D01*
X125303974Y-84012194D01*
X125297279Y-84007721D01*
X125285780Y-83990511D01*
X125268863Y-83970350D01*
X125266556Y-83961740D01*
X125253407Y-83942061D01*
X125238001Y-83864610D01*
X125238001Y-83855172D01*
X125236285Y-83848768D01*
X125236285Y-83535710D01*
X125238001Y-83525978D01*
X125238001Y-83525390D01*
X125238915Y-83520797D01*
X125250369Y-83455837D01*
X125252607Y-83451960D01*
X125253407Y-83447939D01*
X125264602Y-83431185D01*
X125285369Y-83395214D01*
X125292805Y-83388974D01*
X125297279Y-83382279D01*
X125314492Y-83370778D01*
X125334651Y-83353863D01*
X125343259Y-83351556D01*
X125362939Y-83338407D01*
X125440390Y-83323001D01*
X125449828Y-83323001D01*
X125456232Y-83321285D01*
X125719290Y-83321285D01*
X125729022Y-83323001D01*
X125729022Y-83323001D01*
G37*
G36*
X125729022Y-82323001D02*
G01*
X125729610Y-82323001D01*
X125734203Y-82323915D01*
X125799163Y-82335369D01*
X125803040Y-82337607D01*
X125807061Y-82338407D01*
X125823815Y-82349602D01*
X125859786Y-82370369D01*
X125866026Y-82377805D01*
X125872721Y-82382279D01*
X125884222Y-82399492D01*
X125901137Y-82419651D01*
X125903444Y-82428259D01*
X125916593Y-82447939D01*
X125931999Y-82525390D01*
X125931999Y-82534828D01*
X125933715Y-82541232D01*
X125933715Y-82854290D01*
X125931999Y-82864022D01*
X125931999Y-82864610D01*
X125931085Y-82869203D01*
X125919631Y-82934163D01*
X125917393Y-82938040D01*
X125916593Y-82942061D01*
X125905398Y-82958815D01*
X125884631Y-82994786D01*
X125877194Y-83001026D01*
X125872721Y-83007721D01*
X125855511Y-83019220D01*
X125835350Y-83036137D01*
X125826740Y-83038444D01*
X125807061Y-83051593D01*
X125729610Y-83066999D01*
X125720172Y-83066999D01*
X125713768Y-83068715D01*
X125450710Y-83068715D01*
X125440978Y-83066999D01*
X125440390Y-83066999D01*
X125435797Y-83066085D01*
X125370837Y-83054631D01*
X125366960Y-83052393D01*
X125362939Y-83051593D01*
X125346185Y-83040398D01*
X125310214Y-83019631D01*
X125303974Y-83012194D01*
X125297279Y-83007721D01*
X125285780Y-82990511D01*
X125268863Y-82970350D01*
X125266556Y-82961740D01*
X125253407Y-82942061D01*
X125238001Y-82864610D01*
X125238001Y-82855172D01*
X125236285Y-82848768D01*
X125236285Y-82535710D01*
X125238001Y-82525978D01*
X125238001Y-82525390D01*
X125238915Y-82520797D01*
X125250369Y-82455837D01*
X125252607Y-82451960D01*
X125253407Y-82447939D01*
X125264602Y-82431185D01*
X125285369Y-82395214D01*
X125292805Y-82388974D01*
X125297279Y-82382279D01*
X125314492Y-82370778D01*
X125334651Y-82353863D01*
X125343259Y-82351556D01*
X125362939Y-82338407D01*
X125440390Y-82323001D01*
X125449828Y-82323001D01*
X125456232Y-82321285D01*
X125719290Y-82321285D01*
X125729022Y-82323001D01*
X125729022Y-82323001D01*
G37*
G36*
X124759022Y-82323001D02*
G01*
X124759610Y-82323001D01*
X124764203Y-82323915D01*
X124829163Y-82335369D01*
X124833040Y-82337607D01*
X124837061Y-82338407D01*
X124853815Y-82349602D01*
X124889786Y-82370369D01*
X124896026Y-82377805D01*
X124902721Y-82382279D01*
X124914222Y-82399492D01*
X124931137Y-82419651D01*
X124933444Y-82428259D01*
X124946593Y-82447939D01*
X124961999Y-82525390D01*
X124961999Y-82534828D01*
X124963715Y-82541232D01*
X124963715Y-82854290D01*
X124961999Y-82864022D01*
X124961999Y-82864610D01*
X124961085Y-82869203D01*
X124949631Y-82934163D01*
X124947393Y-82938040D01*
X124946593Y-82942061D01*
X124935398Y-82958815D01*
X124914631Y-82994786D01*
X124907194Y-83001026D01*
X124902721Y-83007721D01*
X124885511Y-83019220D01*
X124865350Y-83036137D01*
X124856740Y-83038444D01*
X124837061Y-83051593D01*
X124759610Y-83066999D01*
X124750172Y-83066999D01*
X124743768Y-83068715D01*
X124480710Y-83068715D01*
X124470978Y-83066999D01*
X124470390Y-83066999D01*
X124465797Y-83066085D01*
X124400837Y-83054631D01*
X124396960Y-83052393D01*
X124392939Y-83051593D01*
X124376185Y-83040398D01*
X124340214Y-83019631D01*
X124333974Y-83012194D01*
X124327279Y-83007721D01*
X124315780Y-82990511D01*
X124298863Y-82970350D01*
X124296556Y-82961740D01*
X124283407Y-82942061D01*
X124268001Y-82864610D01*
X124268001Y-82855172D01*
X124266285Y-82848768D01*
X124266285Y-82535710D01*
X124268001Y-82525978D01*
X124268001Y-82525390D01*
X124268915Y-82520797D01*
X124280369Y-82455837D01*
X124282607Y-82451960D01*
X124283407Y-82447939D01*
X124294602Y-82431185D01*
X124315369Y-82395214D01*
X124322805Y-82388974D01*
X124327279Y-82382279D01*
X124344492Y-82370778D01*
X124364651Y-82353863D01*
X124373259Y-82351556D01*
X124392939Y-82338407D01*
X124470390Y-82323001D01*
X124479828Y-82323001D01*
X124486232Y-82321285D01*
X124749290Y-82321285D01*
X124759022Y-82323001D01*
X124759022Y-82323001D01*
G37*
G36*
X98369899Y-80401959D02*
G01*
X98386769Y-80413231D01*
X98398041Y-80430101D01*
X98404448Y-80462312D01*
X98404448Y-82437688D01*
X98401999Y-82450000D01*
X98398041Y-82469899D01*
X98386769Y-82486769D01*
X98369899Y-82498041D01*
X98350000Y-82501999D01*
X98337688Y-82504448D01*
X97062312Y-82504448D01*
X97030101Y-82498041D01*
X97013231Y-82486769D01*
X97001959Y-82469899D01*
X96995552Y-82437688D01*
X96995552Y-80462312D01*
X97001959Y-80430101D01*
X97013231Y-80413231D01*
X97030101Y-80401959D01*
X97062312Y-80395552D01*
X98337688Y-80395552D01*
X98369899Y-80401959D01*
X98369899Y-80401959D01*
G37*
G36*
X45062163Y-78699001D02*
G01*
X45113823Y-78699001D01*
X45173518Y-78709527D01*
X45228934Y-78714765D01*
X45280515Y-78728393D01*
X45338010Y-78738531D01*
X45388660Y-78756966D01*
X45435774Y-78769414D01*
X45490780Y-78794135D01*
X45551926Y-78816390D01*
X45592766Y-78839969D01*
X45630911Y-78857112D01*
X45686971Y-78894358D01*
X45749073Y-78930213D01*
X45780019Y-78956179D01*
X45809100Y-78975501D01*
X45863480Y-79026211D01*
X45923460Y-79076540D01*
X45945074Y-79102299D01*
X45965564Y-79121406D01*
X46015316Y-79186010D01*
X46069787Y-79250927D01*
X46083202Y-79274163D01*
X46096093Y-79290902D01*
X46138128Y-79369298D01*
X46183610Y-79448074D01*
X46190462Y-79466899D01*
X46197190Y-79479447D01*
X46228443Y-79571252D01*
X46261469Y-79661990D01*
X46263764Y-79675007D01*
X46266133Y-79681965D01*
X46283667Y-79787884D01*
X46300999Y-79886177D01*
X46300999Y-80113823D01*
X46294489Y-80150743D01*
X46293972Y-80171903D01*
X46276550Y-80252481D01*
X46261469Y-80338010D01*
X46253066Y-80361098D01*
X46249086Y-80379504D01*
X46215393Y-80464603D01*
X46183610Y-80551926D01*
X46174729Y-80567308D01*
X46170332Y-80578414D01*
X46118836Y-80664118D01*
X46069787Y-80749073D01*
X46062752Y-80757457D01*
X46060148Y-80761791D01*
X45986706Y-80848086D01*
X45923460Y-80923460D01*
X45854806Y-80981067D01*
X45758089Y-81062799D01*
X45755713Y-81064215D01*
X45749073Y-81069787D01*
X45663103Y-81119422D01*
X45574325Y-81172344D01*
X45565341Y-81175865D01*
X45551926Y-81183610D01*
X45462837Y-81216036D01*
X45375137Y-81250405D01*
X45358962Y-81253843D01*
X45338010Y-81261469D01*
X45250446Y-81276909D01*
X45165879Y-81294884D01*
X45142476Y-81295947D01*
X45113823Y-81300999D01*
X45031221Y-81300999D01*
X44952166Y-81304589D01*
X44922059Y-81300999D01*
X44886177Y-81300999D01*
X44811223Y-81287783D01*
X44739733Y-81279258D01*
X44704000Y-81268876D01*
X44661990Y-81261469D01*
X44596662Y-81237691D01*
X44534288Y-81219570D01*
X44494505Y-81200509D01*
X44448074Y-81183610D01*
X44393655Y-81152191D01*
X44341358Y-81127135D01*
X44299543Y-81097856D01*
X44250927Y-81069787D01*
X44207915Y-81033696D01*
X44166108Y-81004422D01*
X44124689Y-80963862D01*
X44076540Y-80923460D01*
X44044776Y-80885604D01*
X44013260Y-80854742D01*
X43974897Y-80802325D01*
X43930213Y-80749073D01*
X43908886Y-80712133D01*
X43886907Y-80682103D01*
X43854446Y-80617840D01*
X43816390Y-80551926D01*
X43804117Y-80518206D01*
X43790450Y-80491150D01*
X43766789Y-80415648D01*
X43738531Y-80338010D01*
X43733478Y-80309355D01*
X43726474Y-80287004D01*
X43714444Y-80201406D01*
X43699001Y-80113823D01*
X43699001Y-80091521D01*
X43696700Y-80075148D01*
X43699001Y-79980998D01*
X43699001Y-79886177D01*
X43701691Y-79870920D01*
X43701927Y-79861275D01*
X43721288Y-79759779D01*
X43738531Y-79661990D01*
X43741497Y-79653842D01*
X43742014Y-79651130D01*
X43785709Y-79532369D01*
X43816390Y-79448074D01*
X43865544Y-79362937D01*
X43921557Y-79264337D01*
X43924740Y-79260406D01*
X43930213Y-79250927D01*
X43993280Y-79175766D01*
X44056192Y-79098076D01*
X44065122Y-79090148D01*
X44076540Y-79076540D01*
X44147724Y-79016810D01*
X44216173Y-78956038D01*
X44232111Y-78946001D01*
X44250927Y-78930213D01*
X44326133Y-78886793D01*
X44397201Y-78842039D01*
X44420914Y-78832071D01*
X44448074Y-78816390D01*
X44523682Y-78788871D01*
X44594423Y-78759134D01*
X44626151Y-78751575D01*
X44661990Y-78738531D01*
X44734784Y-78725696D01*
X44802531Y-78709556D01*
X44841947Y-78706800D01*
X44886177Y-78699001D01*
X44953484Y-78699001D01*
X45015953Y-78694633D01*
X45062163Y-78699001D01*
X45062163Y-78699001D01*
G37*
G36*
X165062163Y-78699001D02*
G01*
X165113823Y-78699001D01*
X165173518Y-78709527D01*
X165228934Y-78714765D01*
X165280515Y-78728393D01*
X165338010Y-78738531D01*
X165388660Y-78756966D01*
X165435774Y-78769414D01*
X165490780Y-78794135D01*
X165551926Y-78816390D01*
X165592766Y-78839969D01*
X165630911Y-78857112D01*
X165686971Y-78894358D01*
X165749073Y-78930213D01*
X165780019Y-78956179D01*
X165809100Y-78975501D01*
X165863480Y-79026211D01*
X165923460Y-79076540D01*
X165945074Y-79102299D01*
X165965564Y-79121406D01*
X166015316Y-79186010D01*
X166069787Y-79250927D01*
X166083202Y-79274163D01*
X166096093Y-79290902D01*
X166138128Y-79369298D01*
X166183610Y-79448074D01*
X166190462Y-79466899D01*
X166197190Y-79479447D01*
X166228443Y-79571252D01*
X166261469Y-79661990D01*
X166263764Y-79675007D01*
X166266133Y-79681965D01*
X166283667Y-79787884D01*
X166300999Y-79886177D01*
X166300999Y-80113823D01*
X166294489Y-80150743D01*
X166293972Y-80171903D01*
X166276550Y-80252481D01*
X166261469Y-80338010D01*
X166253066Y-80361098D01*
X166249086Y-80379504D01*
X166215393Y-80464603D01*
X166183610Y-80551926D01*
X166174729Y-80567308D01*
X166170332Y-80578414D01*
X166118836Y-80664118D01*
X166069787Y-80749073D01*
X166062752Y-80757457D01*
X166060148Y-80761791D01*
X165986706Y-80848086D01*
X165923460Y-80923460D01*
X165854806Y-80981067D01*
X165758089Y-81062799D01*
X165755713Y-81064215D01*
X165749073Y-81069787D01*
X165663103Y-81119422D01*
X165574325Y-81172344D01*
X165565341Y-81175865D01*
X165551926Y-81183610D01*
X165462837Y-81216036D01*
X165375137Y-81250405D01*
X165358962Y-81253843D01*
X165338010Y-81261469D01*
X165250446Y-81276909D01*
X165165879Y-81294884D01*
X165142476Y-81295947D01*
X165113823Y-81300999D01*
X165031221Y-81300999D01*
X164952166Y-81304589D01*
X164922059Y-81300999D01*
X164886177Y-81300999D01*
X164811223Y-81287783D01*
X164739733Y-81279258D01*
X164704000Y-81268876D01*
X164661990Y-81261469D01*
X164596662Y-81237691D01*
X164534288Y-81219570D01*
X164494505Y-81200509D01*
X164448074Y-81183610D01*
X164393655Y-81152191D01*
X164341358Y-81127135D01*
X164299543Y-81097856D01*
X164250927Y-81069787D01*
X164207915Y-81033696D01*
X164166108Y-81004422D01*
X164124689Y-80963862D01*
X164076540Y-80923460D01*
X164044776Y-80885604D01*
X164013260Y-80854742D01*
X163974897Y-80802325D01*
X163930213Y-80749073D01*
X163908886Y-80712133D01*
X163886907Y-80682103D01*
X163854446Y-80617840D01*
X163816390Y-80551926D01*
X163804117Y-80518206D01*
X163790450Y-80491150D01*
X163766789Y-80415648D01*
X163738531Y-80338010D01*
X163733478Y-80309355D01*
X163726474Y-80287004D01*
X163714444Y-80201406D01*
X163699001Y-80113823D01*
X163699001Y-80091521D01*
X163696700Y-80075148D01*
X163699001Y-79980998D01*
X163699001Y-79886177D01*
X163701691Y-79870920D01*
X163701927Y-79861275D01*
X163721288Y-79759779D01*
X163738531Y-79661990D01*
X163741497Y-79653842D01*
X163742014Y-79651130D01*
X163785709Y-79532369D01*
X163816390Y-79448074D01*
X163865544Y-79362937D01*
X163921557Y-79264337D01*
X163924740Y-79260406D01*
X163930213Y-79250927D01*
X163993280Y-79175766D01*
X164056192Y-79098076D01*
X164065122Y-79090148D01*
X164076540Y-79076540D01*
X164147724Y-79016810D01*
X164216173Y-78956038D01*
X164232111Y-78946001D01*
X164250927Y-78930213D01*
X164326133Y-78886793D01*
X164397201Y-78842039D01*
X164420914Y-78832071D01*
X164448074Y-78816390D01*
X164523682Y-78788871D01*
X164594423Y-78759134D01*
X164626151Y-78751575D01*
X164661990Y-78738531D01*
X164734784Y-78725696D01*
X164802531Y-78709556D01*
X164841947Y-78706800D01*
X164886177Y-78699001D01*
X164953484Y-78699001D01*
X165015953Y-78694633D01*
X165062163Y-78699001D01*
X165062163Y-78699001D01*
G37*
M02*
