M48
; DRILL file {KiCad 5.99.0-unknown-3cd1208~100~ubuntu18.04.1} date Thu Sep 26 13:34:59 2019
; FORMAT={-:-/ absolute / metric / decimal}
; #@! TF.CreationDate,2019-09-26T13:34:59+08:00
; #@! TF.GenerationSoftware,Kicad,Pcbnew,5.99.0-unknown-3cd1208~100~ubuntu18.04.1
FMAT,2
METRIC
T1C0.152
T2C0.203
T3C0.381
T4C0.700
T5C1.000
T6C2.000
T7C3.150
%
G90
G05
T1
X42.35Y-88.7
X42.999Y-90.049
X43.0Y-88.0
X43.55Y-88.7
X43.55Y-92.0
X43.55Y-91.3
X43.6Y-90.0
X44.15Y-88.7
X44.15Y-90.0
X44.152Y-87.998
X44.7Y-88.0
X44.7Y-90.65
X44.701Y-91.299
X45.3Y-88.0
X45.806Y-89.342
X45.85Y-88.0
X45.85Y-91.3
X46.4Y-89.35
X46.4Y-92.0
X46.999Y-90.699
X47.0Y-88.0
X47.0Y-92.0
X47.6Y-92.0
X163.0Y-88.0
X163.55Y-89.35
X163.555Y-91.956
X163.6Y-90.65
X163.6Y-91.3
X164.15Y-88.65
X164.15Y-89.35
X164.15Y-90.65
X164.15Y-91.3
X164.152Y-87.998
X164.7Y-88.0
X164.7Y-90.65
X164.7Y-91.3
X165.299Y-88.0
X165.3Y-88.666
X165.85Y-88.0
X166.4Y-89.95
X166.4Y-91.32
X166.4Y-92.0
X166.41Y-90.689
X166.45Y-88.7
X167.0Y-88.0
X167.0Y-92.0
T2
X47.067Y-94.433
X47.533Y-93.967
X47.8Y-89.3
X48.85Y-87.9
X48.85Y-88.7
X48.85Y-90.0
X48.85Y-91.3
X49.133Y-94.067
X49.6Y-94.533
X163.6Y-93.7
X164.05Y-94.15
X164.5Y-94.8
X165.05Y-95.25
T3
X40.5Y-88.0
X41.7Y-88.0
X41.7Y-90.9
X42.2Y-94.5
X42.9Y-85.5
X43.5Y-93.1
X43.9Y-85.5
X44.9Y-85.5
X45.9Y-85.5
X55.1Y-84.6
X55.5Y-97.0
X55.925Y-90.175
X56.1Y-86.6
X60.0Y-83.5
X77.5Y-92.1
X80.4Y-92.3
X80.675Y-89.525
X82.4Y-89.5
X83.1Y-92.3
X84.513Y-92.188
X86.7Y-89.1
X87.3Y-87.8
X87.8Y-85.8
X88.5Y-89.2
X90.5Y-85.8
X91.4Y-87.9
X91.4Y-89.0
X92.1Y-90.5
X92.7Y-92.3
X93.6Y-88.0
X93.8Y-91.8
X93.85Y-89.5
X93.85Y-90.55
X93.9Y-84.2
X93.9Y-85.3
X96.1Y-83.8
X96.1Y-84.8
X96.3Y-93.4
X96.3Y-94.8
X96.3Y-96.2
X97.8Y-100.2
X98.9Y-81.4
X99.6Y-87.5
X100.3Y-89.8
X100.4Y-86.6
X101.2Y-84.0
X103.6Y-89.8
X105.0Y-84.0
X108.8Y-90.9
X109.0Y-83.9
X109.4Y-85.9
X109.5Y-90.0
X109.7Y-86.9
X109.7Y-88.0
X110.0Y-89.1
X113.2Y-90.0
X113.35Y-88.35
X116.0Y-91.5
X116.85Y-88.5
X117.5Y-91.4
X147.9Y-84.4
X154.7Y-83.4
X154.7Y-84.4
X159.1Y-90.7
X160.5Y-91.5
X160.9Y-88.0
X162.0Y-88.65
X162.0Y-90.6
X162.9Y-85.4
X163.9Y-85.4
X164.9Y-85.4
X165.9Y-85.4
X166.8Y-86.3
X168.1Y-88.9
X168.1Y-91.8
T4
X124.033Y-84.902
X124.033Y-90.298
X126.267Y-84.902
X126.267Y-90.298
T5
X70.612Y-85.09
X73.152Y-85.09
X75.692Y-85.09
X78.232Y-85.09
X80.772Y-85.09
X83.312Y-85.09
X85.852Y-85.09
X132.0Y-91.5
X134.54Y-91.5
X137.08Y-91.5
X132.08Y-85.09
X134.62Y-85.09
X137.16Y-85.09
T6
X45.0Y-80.0
X45.0Y-100.0
X165.0Y-80.0
X165.0Y-100.0
T7
X39.0Y-78.0
X39.0Y-102.0
X59.0Y-78.0
X59.0Y-102.0
X105.0Y-78.0
X105.0Y-102.0
X151.0Y-78.0
X151.0Y-102.0
X171.0Y-78.0
X171.0Y-102.0
T0
M30
