G04 #@! TF.GenerationSoftware,KiCad,Pcbnew,5.99.0-unknown-3cd1208~100~ubuntu18.04.1*
G04 #@! TF.CreationDate,2019-09-26T13:34:41+08:00*
G04 #@! TF.ProjectId,external_camera,65787465-726e-4616-9c5f-63616d657261,rev?*
G04 #@! TF.SameCoordinates,Original*
G04 #@! TF.FileFunction,Copper,L1,Top*
G04 #@! TF.FilePolarity,Positive*
%FSLAX46Y46*%
G04 Gerber Fmt 4.6, Leading zero omitted, Abs format (unit mm)*
G04 Created by KiCad (PCBNEW 5.99.0-unknown-3cd1208~100~ubuntu18.04.1) date 2019-09-26 13:34:41*
%MOMM*%
%LPD*%
G04 APERTURE LIST*
%ADD10O,1.700000X1.700000*%
%ADD11C,1.700000*%
%ADD12R,1.450000X0.450000*%
%ADD13C,0.100000*%
%ADD14C,0.590000*%
%ADD15C,1.120000*%
%ADD16C,1.000000*%
%ADD17R,1.700000X1.700000*%
%ADD18R,1.500000X0.450000*%
%ADD19R,1.060000X0.650000*%
%ADD20R,0.650000X0.400000*%
%ADD21C,0.250000*%
%ADD22C,2.500000*%
%ADD23C,0.711200*%
%ADD24C,0.355600*%
%ADD25C,0.457200*%
%ADD26C,4.000000*%
%ADD27C,0.203200*%
%ADD28C,0.304800*%
%ADD29C,0.101600*%
%ADD30C,0.152400*%
%ADD31C,0.177800*%
%ADD32C,0.508000*%
G04 APERTURE END LIST*
D10*
X137160000Y-85090000D03*
X134620000Y-85090000D03*
D11*
X132080000Y-85090000D03*
D12*
X118940000Y-89505000D03*
X118940000Y-90155000D03*
X118940000Y-90805000D03*
X118940000Y-91455000D03*
X114540000Y-91455000D03*
X114540000Y-90805000D03*
X114540000Y-90155000D03*
X114540000Y-89505000D03*
D13*
G36*
X112478946Y-89651228D02*
G01*
X112526798Y-89683202D01*
X112558772Y-89731054D01*
X112570000Y-89787500D01*
X112570000Y-90082500D01*
X112558772Y-90138946D01*
X112526798Y-90186798D01*
X112478946Y-90218772D01*
X112422500Y-90230000D01*
X112077500Y-90230000D01*
X112021054Y-90218772D01*
X111973202Y-90186798D01*
X111941228Y-90138946D01*
X111930000Y-90082500D01*
X111930000Y-89787500D01*
X111941228Y-89731054D01*
X111973202Y-89683202D01*
X112021054Y-89651228D01*
X112077500Y-89640000D01*
X112422500Y-89640000D01*
X112478946Y-89651228D01*
X112478946Y-89651228D01*
G37*
D14*
X112250000Y-89935000D03*
D13*
G36*
X112478946Y-88681228D02*
G01*
X112526798Y-88713202D01*
X112558772Y-88761054D01*
X112570000Y-88817500D01*
X112570000Y-89112500D01*
X112558772Y-89168946D01*
X112526798Y-89216798D01*
X112478946Y-89248772D01*
X112422500Y-89260000D01*
X112077500Y-89260000D01*
X112021054Y-89248772D01*
X111973202Y-89216798D01*
X111941228Y-89168946D01*
X111930000Y-89112500D01*
X111930000Y-88817500D01*
X111941228Y-88761054D01*
X111973202Y-88713202D01*
X112021054Y-88681228D01*
X112077500Y-88670000D01*
X112422500Y-88670000D01*
X112478946Y-88681228D01*
X112478946Y-88681228D01*
G37*
D14*
X112250000Y-88965000D03*
D13*
G36*
X112438946Y-90541228D02*
G01*
X112486798Y-90573202D01*
X112518772Y-90621054D01*
X112530000Y-90677500D01*
X112530000Y-91022500D01*
X112518772Y-91078946D01*
X112486798Y-91126798D01*
X112438946Y-91158772D01*
X112382500Y-91170000D01*
X112087500Y-91170000D01*
X112031054Y-91158772D01*
X111983202Y-91126798D01*
X111951228Y-91078946D01*
X111940000Y-91022500D01*
X111940000Y-90677500D01*
X111951228Y-90621054D01*
X111983202Y-90573202D01*
X112031054Y-90541228D01*
X112087500Y-90530000D01*
X112382500Y-90530000D01*
X112438946Y-90541228D01*
X112438946Y-90541228D01*
G37*
D14*
X112235000Y-90850000D03*
D13*
G36*
X111468946Y-90541228D02*
G01*
X111516798Y-90573202D01*
X111548772Y-90621054D01*
X111560000Y-90677500D01*
X111560000Y-91022500D01*
X111548772Y-91078946D01*
X111516798Y-91126798D01*
X111468946Y-91158772D01*
X111412500Y-91170000D01*
X111117500Y-91170000D01*
X111061054Y-91158772D01*
X111013202Y-91126798D01*
X110981228Y-91078946D01*
X110970000Y-91022500D01*
X110970000Y-90677500D01*
X110981228Y-90621054D01*
X111013202Y-90573202D01*
X111061054Y-90541228D01*
X111117500Y-90530000D01*
X111412500Y-90530000D01*
X111468946Y-90541228D01*
X111468946Y-90541228D01*
G37*
D14*
X111265000Y-90850000D03*
D13*
G36*
X118118946Y-87791228D02*
G01*
X118166798Y-87823202D01*
X118198772Y-87871054D01*
X118210000Y-87927500D01*
X118210000Y-88272500D01*
X118198772Y-88328946D01*
X118166798Y-88376798D01*
X118118946Y-88408772D01*
X118062500Y-88420000D01*
X117767500Y-88420000D01*
X117711054Y-88408772D01*
X117663202Y-88376798D01*
X117631228Y-88328946D01*
X117620000Y-88272500D01*
X117620000Y-87927500D01*
X117631228Y-87871054D01*
X117663202Y-87823202D01*
X117711054Y-87791228D01*
X117767500Y-87780000D01*
X118062500Y-87780000D01*
X118118946Y-87791228D01*
X118118946Y-87791228D01*
G37*
D14*
X117915000Y-88100000D03*
D13*
G36*
X119088946Y-87791228D02*
G01*
X119136798Y-87823202D01*
X119168772Y-87871054D01*
X119180000Y-87927500D01*
X119180000Y-88272500D01*
X119168772Y-88328946D01*
X119136798Y-88376798D01*
X119088946Y-88408772D01*
X119032500Y-88420000D01*
X118737500Y-88420000D01*
X118681054Y-88408772D01*
X118633202Y-88376798D01*
X118601228Y-88328946D01*
X118590000Y-88272500D01*
X118590000Y-87927500D01*
X118601228Y-87871054D01*
X118633202Y-87823202D01*
X118681054Y-87791228D01*
X118737500Y-87780000D01*
X119032500Y-87780000D01*
X119088946Y-87791228D01*
X119088946Y-87791228D01*
G37*
D14*
X118885000Y-88100000D03*
D13*
G36*
X115688946Y-87791228D02*
G01*
X115736798Y-87823202D01*
X115768772Y-87871054D01*
X115780000Y-87927500D01*
X115780000Y-88272500D01*
X115768772Y-88328946D01*
X115736798Y-88376798D01*
X115688946Y-88408772D01*
X115632500Y-88420000D01*
X115337500Y-88420000D01*
X115281054Y-88408772D01*
X115233202Y-88376798D01*
X115201228Y-88328946D01*
X115190000Y-88272500D01*
X115190000Y-87927500D01*
X115201228Y-87871054D01*
X115233202Y-87823202D01*
X115281054Y-87791228D01*
X115337500Y-87780000D01*
X115632500Y-87780000D01*
X115688946Y-87791228D01*
X115688946Y-87791228D01*
G37*
D14*
X115485000Y-88100000D03*
D13*
G36*
X114718946Y-87791228D02*
G01*
X114766798Y-87823202D01*
X114798772Y-87871054D01*
X114810000Y-87927500D01*
X114810000Y-88272500D01*
X114798772Y-88328946D01*
X114766798Y-88376798D01*
X114718946Y-88408772D01*
X114662500Y-88420000D01*
X114367500Y-88420000D01*
X114311054Y-88408772D01*
X114263202Y-88376798D01*
X114231228Y-88328946D01*
X114220000Y-88272500D01*
X114220000Y-87927500D01*
X114231228Y-87871054D01*
X114263202Y-87823202D01*
X114311054Y-87791228D01*
X114367500Y-87780000D01*
X114662500Y-87780000D01*
X114718946Y-87791228D01*
X114718946Y-87791228D01*
G37*
D14*
X114515000Y-88100000D03*
D15*
X126267436Y-84902272D03*
X124032564Y-84902272D03*
X126267436Y-90297728D03*
X124032564Y-90297728D03*
D13*
G36*
X92628946Y-85831228D02*
G01*
X92676798Y-85863202D01*
X92708772Y-85911054D01*
X92720000Y-85967500D01*
X92720000Y-86262500D01*
X92708772Y-86318946D01*
X92676798Y-86366798D01*
X92628946Y-86398772D01*
X92572500Y-86410000D01*
X92227500Y-86410000D01*
X92171054Y-86398772D01*
X92123202Y-86366798D01*
X92091228Y-86318946D01*
X92080000Y-86262500D01*
X92080000Y-85967500D01*
X92091228Y-85911054D01*
X92123202Y-85863202D01*
X92171054Y-85831228D01*
X92227500Y-85820000D01*
X92572500Y-85820000D01*
X92628946Y-85831228D01*
X92628946Y-85831228D01*
G37*
D14*
X92400000Y-86115000D03*
D13*
G36*
X92628946Y-86801228D02*
G01*
X92676798Y-86833202D01*
X92708772Y-86881054D01*
X92720000Y-86937500D01*
X92720000Y-87232500D01*
X92708772Y-87288946D01*
X92676798Y-87336798D01*
X92628946Y-87368772D01*
X92572500Y-87380000D01*
X92227500Y-87380000D01*
X92171054Y-87368772D01*
X92123202Y-87336798D01*
X92091228Y-87288946D01*
X92080000Y-87232500D01*
X92080000Y-86937500D01*
X92091228Y-86881054D01*
X92123202Y-86833202D01*
X92171054Y-86801228D01*
X92227500Y-86790000D01*
X92572500Y-86790000D01*
X92628946Y-86801228D01*
X92628946Y-86801228D01*
G37*
D14*
X92400000Y-87085000D03*
D16*
X103000000Y-92000000D03*
D10*
X85852000Y-85090000D03*
X83312000Y-85090000D03*
X80772000Y-85090000D03*
X78232000Y-85090000D03*
X75692000Y-85090000D03*
X73152000Y-85090000D03*
D17*
X70612000Y-85090000D03*
D13*
G36*
X91628946Y-85831228D02*
G01*
X91676798Y-85863202D01*
X91708772Y-85911054D01*
X91720000Y-85967500D01*
X91720000Y-86262500D01*
X91708772Y-86318946D01*
X91676798Y-86366798D01*
X91628946Y-86398772D01*
X91572500Y-86410000D01*
X91227500Y-86410000D01*
X91171054Y-86398772D01*
X91123202Y-86366798D01*
X91091228Y-86318946D01*
X91080000Y-86262500D01*
X91080000Y-85967500D01*
X91091228Y-85911054D01*
X91123202Y-85863202D01*
X91171054Y-85831228D01*
X91227500Y-85820000D01*
X91572500Y-85820000D01*
X91628946Y-85831228D01*
X91628946Y-85831228D01*
G37*
D14*
X91400000Y-86115000D03*
D13*
G36*
X91628946Y-86801228D02*
G01*
X91676798Y-86833202D01*
X91708772Y-86881054D01*
X91720000Y-86937500D01*
X91720000Y-87232500D01*
X91708772Y-87288946D01*
X91676798Y-87336798D01*
X91628946Y-87368772D01*
X91572500Y-87380000D01*
X91227500Y-87380000D01*
X91171054Y-87368772D01*
X91123202Y-87336798D01*
X91091228Y-87288946D01*
X91080000Y-87232500D01*
X91080000Y-86937500D01*
X91091228Y-86881054D01*
X91123202Y-86833202D01*
X91171054Y-86801228D01*
X91227500Y-86790000D01*
X91572500Y-86790000D01*
X91628946Y-86801228D01*
X91628946Y-86801228D01*
G37*
D14*
X91400000Y-87085000D03*
D13*
G36*
X89888946Y-85491228D02*
G01*
X89936798Y-85523202D01*
X89968772Y-85571054D01*
X89980000Y-85627500D01*
X89980000Y-85972500D01*
X89968772Y-86028946D01*
X89936798Y-86076798D01*
X89888946Y-86108772D01*
X89832500Y-86120000D01*
X89537500Y-86120000D01*
X89481054Y-86108772D01*
X89433202Y-86076798D01*
X89401228Y-86028946D01*
X89390000Y-85972500D01*
X89390000Y-85627500D01*
X89401228Y-85571054D01*
X89433202Y-85523202D01*
X89481054Y-85491228D01*
X89537500Y-85480000D01*
X89832500Y-85480000D01*
X89888946Y-85491228D01*
X89888946Y-85491228D01*
G37*
D14*
X89685000Y-85800000D03*
D13*
G36*
X88918946Y-85491228D02*
G01*
X88966798Y-85523202D01*
X88998772Y-85571054D01*
X89010000Y-85627500D01*
X89010000Y-85972500D01*
X88998772Y-86028946D01*
X88966798Y-86076798D01*
X88918946Y-86108772D01*
X88862500Y-86120000D01*
X88567500Y-86120000D01*
X88511054Y-86108772D01*
X88463202Y-86076798D01*
X88431228Y-86028946D01*
X88420000Y-85972500D01*
X88420000Y-85627500D01*
X88431228Y-85571054D01*
X88463202Y-85523202D01*
X88511054Y-85491228D01*
X88567500Y-85480000D01*
X88862500Y-85480000D01*
X88918946Y-85491228D01*
X88918946Y-85491228D01*
G37*
D14*
X88715000Y-85800000D03*
D18*
X108050000Y-85225000D03*
X108050000Y-85875000D03*
X108050000Y-86525000D03*
X108050000Y-87175000D03*
X108050000Y-87825000D03*
X108050000Y-88475000D03*
X108050000Y-89125000D03*
X108050000Y-89775000D03*
X102150000Y-89775000D03*
X102150000Y-89125000D03*
X102150000Y-88475000D03*
X102150000Y-87825000D03*
X102150000Y-87175000D03*
X102150000Y-86525000D03*
X102150000Y-85875000D03*
X102150000Y-85225000D03*
D19*
X152400000Y-83400000D03*
X152400000Y-85300000D03*
X150200000Y-85300000D03*
X150200000Y-84350000D03*
X150200000Y-83400000D03*
X56400000Y-85450000D03*
X56400000Y-83550000D03*
X58600000Y-83550000D03*
X58600000Y-84500000D03*
X58600000Y-85450000D03*
D20*
X90150000Y-87150000D03*
X90150000Y-88450000D03*
X88250000Y-87800000D03*
X88250000Y-88450000D03*
X88250000Y-87150000D03*
D12*
X79400000Y-91475000D03*
X79400000Y-90825000D03*
X79400000Y-90175000D03*
X79400000Y-89525000D03*
X83800000Y-89525000D03*
X83800000Y-90175000D03*
X83800000Y-90825000D03*
X83800000Y-91475000D03*
D13*
G36*
X85928946Y-90731228D02*
G01*
X85976798Y-90763202D01*
X86008772Y-90811054D01*
X86020000Y-90867500D01*
X86020000Y-91162500D01*
X86008772Y-91218946D01*
X85976798Y-91266798D01*
X85928946Y-91298772D01*
X85872500Y-91310000D01*
X85527500Y-91310000D01*
X85471054Y-91298772D01*
X85423202Y-91266798D01*
X85391228Y-91218946D01*
X85380000Y-91162500D01*
X85380000Y-90867500D01*
X85391228Y-90811054D01*
X85423202Y-90763202D01*
X85471054Y-90731228D01*
X85527500Y-90720000D01*
X85872500Y-90720000D01*
X85928946Y-90731228D01*
X85928946Y-90731228D01*
G37*
D14*
X85700000Y-91015000D03*
D13*
G36*
X85928946Y-91701228D02*
G01*
X85976798Y-91733202D01*
X86008772Y-91781054D01*
X86020000Y-91837500D01*
X86020000Y-92132500D01*
X86008772Y-92188946D01*
X85976798Y-92236798D01*
X85928946Y-92268772D01*
X85872500Y-92280000D01*
X85527500Y-92280000D01*
X85471054Y-92268772D01*
X85423202Y-92236798D01*
X85391228Y-92188946D01*
X85380000Y-92132500D01*
X85380000Y-91837500D01*
X85391228Y-91781054D01*
X85423202Y-91733202D01*
X85471054Y-91701228D01*
X85527500Y-91690000D01*
X85872500Y-91690000D01*
X85928946Y-91701228D01*
X85928946Y-91701228D01*
G37*
D14*
X85700000Y-91985000D03*
D13*
G36*
X85928946Y-89801228D02*
G01*
X85976798Y-89833202D01*
X86008772Y-89881054D01*
X86020000Y-89937500D01*
X86020000Y-90232500D01*
X86008772Y-90288946D01*
X85976798Y-90336798D01*
X85928946Y-90368772D01*
X85872500Y-90380000D01*
X85527500Y-90380000D01*
X85471054Y-90368772D01*
X85423202Y-90336798D01*
X85391228Y-90288946D01*
X85380000Y-90232500D01*
X85380000Y-89937500D01*
X85391228Y-89881054D01*
X85423202Y-89833202D01*
X85471054Y-89801228D01*
X85527500Y-89790000D01*
X85872500Y-89790000D01*
X85928946Y-89801228D01*
X85928946Y-89801228D01*
G37*
D14*
X85700000Y-90085000D03*
D13*
G36*
X85928946Y-88831228D02*
G01*
X85976798Y-88863202D01*
X86008772Y-88911054D01*
X86020000Y-88967500D01*
X86020000Y-89262500D01*
X86008772Y-89318946D01*
X85976798Y-89366798D01*
X85928946Y-89398772D01*
X85872500Y-89410000D01*
X85527500Y-89410000D01*
X85471054Y-89398772D01*
X85423202Y-89366798D01*
X85391228Y-89318946D01*
X85380000Y-89262500D01*
X85380000Y-88967500D01*
X85391228Y-88911054D01*
X85423202Y-88863202D01*
X85471054Y-88831228D01*
X85527500Y-88820000D01*
X85872500Y-88820000D01*
X85928946Y-88831228D01*
X85928946Y-88831228D01*
G37*
D14*
X85700000Y-89115000D03*
D10*
X137080000Y-91500000D03*
X134540000Y-91500000D03*
D11*
X132000000Y-91500000D03*
D13*
G36*
X153978946Y-84101228D02*
G01*
X154026798Y-84133202D01*
X154058772Y-84181054D01*
X154070000Y-84237500D01*
X154070000Y-84532500D01*
X154058772Y-84588946D01*
X154026798Y-84636798D01*
X153978946Y-84668772D01*
X153922500Y-84680000D01*
X153577500Y-84680000D01*
X153521054Y-84668772D01*
X153473202Y-84636798D01*
X153441228Y-84588946D01*
X153430000Y-84532500D01*
X153430000Y-84237500D01*
X153441228Y-84181054D01*
X153473202Y-84133202D01*
X153521054Y-84101228D01*
X153577500Y-84090000D01*
X153922500Y-84090000D01*
X153978946Y-84101228D01*
X153978946Y-84101228D01*
G37*
D14*
X153750000Y-84385000D03*
D13*
G36*
X153978946Y-83131228D02*
G01*
X154026798Y-83163202D01*
X154058772Y-83211054D01*
X154070000Y-83267500D01*
X154070000Y-83562500D01*
X154058772Y-83618946D01*
X154026798Y-83666798D01*
X153978946Y-83698772D01*
X153922500Y-83710000D01*
X153577500Y-83710000D01*
X153521054Y-83698772D01*
X153473202Y-83666798D01*
X153441228Y-83618946D01*
X153430000Y-83562500D01*
X153430000Y-83267500D01*
X153441228Y-83211054D01*
X153473202Y-83163202D01*
X153521054Y-83131228D01*
X153577500Y-83120000D01*
X153922500Y-83120000D01*
X153978946Y-83131228D01*
X153978946Y-83131228D01*
G37*
D14*
X153750000Y-83415000D03*
D13*
G36*
X149093946Y-84101228D02*
G01*
X149141798Y-84133202D01*
X149173772Y-84181054D01*
X149185000Y-84237500D01*
X149185000Y-84532500D01*
X149173772Y-84588946D01*
X149141798Y-84636798D01*
X149093946Y-84668772D01*
X149037500Y-84680000D01*
X148692500Y-84680000D01*
X148636054Y-84668772D01*
X148588202Y-84636798D01*
X148556228Y-84588946D01*
X148545000Y-84532500D01*
X148545000Y-84237500D01*
X148556228Y-84181054D01*
X148588202Y-84133202D01*
X148636054Y-84101228D01*
X148692500Y-84090000D01*
X149037500Y-84090000D01*
X149093946Y-84101228D01*
X149093946Y-84101228D01*
G37*
D14*
X148865000Y-84385000D03*
D13*
G36*
X149093946Y-83131228D02*
G01*
X149141798Y-83163202D01*
X149173772Y-83211054D01*
X149185000Y-83267500D01*
X149185000Y-83562500D01*
X149173772Y-83618946D01*
X149141798Y-83666798D01*
X149093946Y-83698772D01*
X149037500Y-83710000D01*
X148692500Y-83710000D01*
X148636054Y-83698772D01*
X148588202Y-83666798D01*
X148556228Y-83618946D01*
X148545000Y-83562500D01*
X148545000Y-83267500D01*
X148556228Y-83211054D01*
X148588202Y-83163202D01*
X148636054Y-83131228D01*
X148692500Y-83120000D01*
X149037500Y-83120000D01*
X149093946Y-83131228D01*
X149093946Y-83131228D01*
G37*
D14*
X148865000Y-83415000D03*
D13*
G36*
X107218946Y-83691228D02*
G01*
X107266798Y-83723202D01*
X107298772Y-83771054D01*
X107310000Y-83827500D01*
X107310000Y-84172500D01*
X107298772Y-84228946D01*
X107266798Y-84276798D01*
X107218946Y-84308772D01*
X107162500Y-84320000D01*
X106867500Y-84320000D01*
X106811054Y-84308772D01*
X106763202Y-84276798D01*
X106731228Y-84228946D01*
X106720000Y-84172500D01*
X106720000Y-83827500D01*
X106731228Y-83771054D01*
X106763202Y-83723202D01*
X106811054Y-83691228D01*
X106867500Y-83680000D01*
X107162500Y-83680000D01*
X107218946Y-83691228D01*
X107218946Y-83691228D01*
G37*
D14*
X107015000Y-84000000D03*
D13*
G36*
X108188946Y-83691228D02*
G01*
X108236798Y-83723202D01*
X108268772Y-83771054D01*
X108280000Y-83827500D01*
X108280000Y-84172500D01*
X108268772Y-84228946D01*
X108236798Y-84276798D01*
X108188946Y-84308772D01*
X108132500Y-84320000D01*
X107837500Y-84320000D01*
X107781054Y-84308772D01*
X107733202Y-84276798D01*
X107701228Y-84228946D01*
X107690000Y-84172500D01*
X107690000Y-83827500D01*
X107701228Y-83771054D01*
X107733202Y-83723202D01*
X107781054Y-83691228D01*
X107837500Y-83680000D01*
X108132500Y-83680000D01*
X108188946Y-83691228D01*
X108188946Y-83691228D01*
G37*
D14*
X107985000Y-84000000D03*
D13*
G36*
X103388946Y-83691228D02*
G01*
X103436798Y-83723202D01*
X103468772Y-83771054D01*
X103480000Y-83827500D01*
X103480000Y-84172500D01*
X103468772Y-84228946D01*
X103436798Y-84276798D01*
X103388946Y-84308772D01*
X103332500Y-84320000D01*
X103037500Y-84320000D01*
X102981054Y-84308772D01*
X102933202Y-84276798D01*
X102901228Y-84228946D01*
X102890000Y-84172500D01*
X102890000Y-83827500D01*
X102901228Y-83771054D01*
X102933202Y-83723202D01*
X102981054Y-83691228D01*
X103037500Y-83680000D01*
X103332500Y-83680000D01*
X103388946Y-83691228D01*
X103388946Y-83691228D01*
G37*
D14*
X103185000Y-84000000D03*
D13*
G36*
X102418946Y-83691228D02*
G01*
X102466798Y-83723202D01*
X102498772Y-83771054D01*
X102510000Y-83827500D01*
X102510000Y-84172500D01*
X102498772Y-84228946D01*
X102466798Y-84276798D01*
X102418946Y-84308772D01*
X102362500Y-84320000D01*
X102067500Y-84320000D01*
X102011054Y-84308772D01*
X101963202Y-84276798D01*
X101931228Y-84228946D01*
X101920000Y-84172500D01*
X101920000Y-83827500D01*
X101931228Y-83771054D01*
X101963202Y-83723202D01*
X102011054Y-83691228D01*
X102067500Y-83680000D01*
X102362500Y-83680000D01*
X102418946Y-83691228D01*
X102418946Y-83691228D01*
G37*
D14*
X102215000Y-84000000D03*
D13*
G36*
X55328946Y-86201228D02*
G01*
X55376798Y-86233202D01*
X55408772Y-86281054D01*
X55420000Y-86337500D01*
X55420000Y-86632500D01*
X55408772Y-86688946D01*
X55376798Y-86736798D01*
X55328946Y-86768772D01*
X55272500Y-86780000D01*
X54927500Y-86780000D01*
X54871054Y-86768772D01*
X54823202Y-86736798D01*
X54791228Y-86688946D01*
X54780000Y-86632500D01*
X54780000Y-86337500D01*
X54791228Y-86281054D01*
X54823202Y-86233202D01*
X54871054Y-86201228D01*
X54927500Y-86190000D01*
X55272500Y-86190000D01*
X55328946Y-86201228D01*
X55328946Y-86201228D01*
G37*
D14*
X55100000Y-86485000D03*
D13*
G36*
X55328946Y-85231228D02*
G01*
X55376798Y-85263202D01*
X55408772Y-85311054D01*
X55420000Y-85367500D01*
X55420000Y-85662500D01*
X55408772Y-85718946D01*
X55376798Y-85766798D01*
X55328946Y-85798772D01*
X55272500Y-85810000D01*
X54927500Y-85810000D01*
X54871054Y-85798772D01*
X54823202Y-85766798D01*
X54791228Y-85718946D01*
X54780000Y-85662500D01*
X54780000Y-85367500D01*
X54791228Y-85311054D01*
X54823202Y-85263202D01*
X54871054Y-85231228D01*
X54927500Y-85220000D01*
X55272500Y-85220000D01*
X55328946Y-85231228D01*
X55328946Y-85231228D01*
G37*
D14*
X55100000Y-85515000D03*
D13*
G36*
X60128946Y-84331228D02*
G01*
X60176798Y-84363202D01*
X60208772Y-84411054D01*
X60220000Y-84467500D01*
X60220000Y-84762500D01*
X60208772Y-84818946D01*
X60176798Y-84866798D01*
X60128946Y-84898772D01*
X60072500Y-84910000D01*
X59727500Y-84910000D01*
X59671054Y-84898772D01*
X59623202Y-84866798D01*
X59591228Y-84818946D01*
X59580000Y-84762500D01*
X59580000Y-84467500D01*
X59591228Y-84411054D01*
X59623202Y-84363202D01*
X59671054Y-84331228D01*
X59727500Y-84320000D01*
X60072500Y-84320000D01*
X60128946Y-84331228D01*
X60128946Y-84331228D01*
G37*
D14*
X59900000Y-84615000D03*
D13*
G36*
X60128946Y-85301228D02*
G01*
X60176798Y-85333202D01*
X60208772Y-85381054D01*
X60220000Y-85437500D01*
X60220000Y-85732500D01*
X60208772Y-85788946D01*
X60176798Y-85836798D01*
X60128946Y-85868772D01*
X60072500Y-85880000D01*
X59727500Y-85880000D01*
X59671054Y-85868772D01*
X59623202Y-85836798D01*
X59591228Y-85788946D01*
X59580000Y-85732500D01*
X59580000Y-85437500D01*
X59591228Y-85381054D01*
X59623202Y-85333202D01*
X59671054Y-85301228D01*
X59727500Y-85290000D01*
X60072500Y-85290000D01*
X60128946Y-85301228D01*
X60128946Y-85301228D01*
G37*
D14*
X59900000Y-85585000D03*
D13*
G36*
X78618946Y-92466228D02*
G01*
X78666798Y-92498202D01*
X78698772Y-92546054D01*
X78710000Y-92602500D01*
X78710000Y-92947500D01*
X78698772Y-93003946D01*
X78666798Y-93051798D01*
X78618946Y-93083772D01*
X78562500Y-93095000D01*
X78267500Y-93095000D01*
X78211054Y-93083772D01*
X78163202Y-93051798D01*
X78131228Y-93003946D01*
X78120000Y-92947500D01*
X78120000Y-92602500D01*
X78131228Y-92546054D01*
X78163202Y-92498202D01*
X78211054Y-92466228D01*
X78267500Y-92455000D01*
X78562500Y-92455000D01*
X78618946Y-92466228D01*
X78618946Y-92466228D01*
G37*
D14*
X78415000Y-92775000D03*
D13*
G36*
X79588946Y-92466228D02*
G01*
X79636798Y-92498202D01*
X79668772Y-92546054D01*
X79680000Y-92602500D01*
X79680000Y-92947500D01*
X79668772Y-93003946D01*
X79636798Y-93051798D01*
X79588946Y-93083772D01*
X79532500Y-93095000D01*
X79237500Y-93095000D01*
X79181054Y-93083772D01*
X79133202Y-93051798D01*
X79101228Y-93003946D01*
X79090000Y-92947500D01*
X79090000Y-92602500D01*
X79101228Y-92546054D01*
X79133202Y-92498202D01*
X79181054Y-92466228D01*
X79237500Y-92455000D01*
X79532500Y-92455000D01*
X79588946Y-92466228D01*
X79588946Y-92466228D01*
G37*
D14*
X79385000Y-92775000D03*
D13*
G36*
X84018946Y-92691228D02*
G01*
X84066798Y-92723202D01*
X84098772Y-92771054D01*
X84110000Y-92827500D01*
X84110000Y-93172500D01*
X84098772Y-93228946D01*
X84066798Y-93276798D01*
X84018946Y-93308772D01*
X83962500Y-93320000D01*
X83667500Y-93320000D01*
X83611054Y-93308772D01*
X83563202Y-93276798D01*
X83531228Y-93228946D01*
X83520000Y-93172500D01*
X83520000Y-92827500D01*
X83531228Y-92771054D01*
X83563202Y-92723202D01*
X83611054Y-92691228D01*
X83667500Y-92680000D01*
X83962500Y-92680000D01*
X84018946Y-92691228D01*
X84018946Y-92691228D01*
G37*
D14*
X83815000Y-93000000D03*
D13*
G36*
X84988946Y-92691228D02*
G01*
X85036798Y-92723202D01*
X85068772Y-92771054D01*
X85080000Y-92827500D01*
X85080000Y-93172500D01*
X85068772Y-93228946D01*
X85036798Y-93276798D01*
X84988946Y-93308772D01*
X84932500Y-93320000D01*
X84637500Y-93320000D01*
X84581054Y-93308772D01*
X84533202Y-93276798D01*
X84501228Y-93228946D01*
X84490000Y-93172500D01*
X84490000Y-92827500D01*
X84501228Y-92771054D01*
X84533202Y-92723202D01*
X84581054Y-92691228D01*
X84637500Y-92680000D01*
X84932500Y-92680000D01*
X84988946Y-92691228D01*
X84988946Y-92691228D01*
G37*
D14*
X84785000Y-93000000D03*
D21*
X162720000Y-87690000D03*
X162720000Y-88350000D03*
X162720000Y-89010000D03*
X162720000Y-89670000D03*
X162720000Y-90330000D03*
X163290000Y-87690000D03*
X163290000Y-88350000D03*
X163290000Y-89010000D03*
X163290000Y-89670000D03*
X163290000Y-90330000D03*
X163290000Y-90990000D03*
X163290000Y-91650000D03*
X163290000Y-92310000D03*
X163860000Y-87690000D03*
X163860000Y-88350000D03*
X163860000Y-89010000D03*
X163860000Y-89670000D03*
X163860000Y-90330000D03*
X163860000Y-90990000D03*
X163860000Y-91650000D03*
X163860000Y-92310000D03*
X164430000Y-87690000D03*
X164430000Y-88350000D03*
X164430000Y-89010000D03*
X164430000Y-89670000D03*
X164430000Y-90330000D03*
X164430000Y-90990000D03*
X164430000Y-91650000D03*
X164430000Y-92310000D03*
X165000000Y-87690000D03*
X165000000Y-88350000D03*
X165000000Y-89010000D03*
X165000000Y-89670000D03*
X165000000Y-90330000D03*
X165000000Y-90990000D03*
X165000000Y-91650000D03*
X165000000Y-92310000D03*
X165570000Y-87690000D03*
X165570000Y-88350000D03*
X165570000Y-89010000D03*
X165570000Y-89670000D03*
X165570000Y-90330000D03*
X165570000Y-90990000D03*
X165570000Y-91650000D03*
X165570000Y-92310000D03*
X166140000Y-87690000D03*
X166140000Y-88350000D03*
X166140000Y-89010000D03*
X166140000Y-89670000D03*
X166140000Y-90330000D03*
X166140000Y-90990000D03*
X166140000Y-91650000D03*
X166140000Y-92310000D03*
X166710000Y-87690000D03*
X166710000Y-88350000D03*
X166710000Y-89010000D03*
X166710000Y-89670000D03*
X166710000Y-90330000D03*
X166710000Y-90990000D03*
X166710000Y-91650000D03*
X166710000Y-92310000D03*
X167280000Y-87690000D03*
X167280000Y-88350000D03*
X167280000Y-89010000D03*
X167280000Y-89670000D03*
X167280000Y-90330000D03*
X167280000Y-90990000D03*
X167280000Y-91650000D03*
X167280000Y-92310000D03*
X42720000Y-87690000D03*
X42720000Y-88350000D03*
X42720000Y-89010000D03*
X42720000Y-89670000D03*
X42720000Y-90330000D03*
X43290000Y-87690000D03*
X43290000Y-88350000D03*
X43290000Y-89010000D03*
X43290000Y-89670000D03*
X43290000Y-90330000D03*
X43290000Y-90990000D03*
X43290000Y-91650000D03*
X43290000Y-92310000D03*
X43860000Y-87690000D03*
X43860000Y-88350000D03*
X43860000Y-89010000D03*
X43860000Y-89670000D03*
X43860000Y-90330000D03*
X43860000Y-90990000D03*
X43860000Y-91650000D03*
X43860000Y-92310000D03*
X44430000Y-87690000D03*
X44430000Y-88350000D03*
X44430000Y-89010000D03*
X44430000Y-89670000D03*
X44430000Y-90330000D03*
X44430000Y-90990000D03*
X44430000Y-91650000D03*
X44430000Y-92310000D03*
X45000000Y-87690000D03*
X45000000Y-88350000D03*
X45000000Y-89010000D03*
X45000000Y-89670000D03*
X45000000Y-90330000D03*
X45000000Y-90990000D03*
X45000000Y-91650000D03*
X45000000Y-92310000D03*
X45570000Y-87690000D03*
X45570000Y-88350000D03*
X45570000Y-89010000D03*
X45570000Y-89670000D03*
X45570000Y-90330000D03*
X45570000Y-90990000D03*
X45570000Y-91650000D03*
X45570000Y-92310000D03*
X46140000Y-87690000D03*
X46140000Y-88350000D03*
X46140000Y-89010000D03*
X46140000Y-89670000D03*
X46140000Y-90330000D03*
X46140000Y-90990000D03*
X46140000Y-91650000D03*
X46140000Y-92310000D03*
X46710000Y-87690000D03*
X46710000Y-88350000D03*
X46710000Y-89010000D03*
X46710000Y-89670000D03*
X46710000Y-90330000D03*
X46710000Y-90990000D03*
X46710000Y-91650000D03*
X46710000Y-92310000D03*
X47280000Y-87690000D03*
X47280000Y-88350000D03*
X47280000Y-89010000D03*
X47280000Y-89670000D03*
X47280000Y-90330000D03*
X47280000Y-90990000D03*
X47280000Y-91650000D03*
X47280000Y-92310000D03*
D22*
X165000000Y-100000000D03*
X165000000Y-80000000D03*
X45000000Y-100000000D03*
X45000000Y-80000000D03*
D23*
X55500000Y-97000000D03*
X116000000Y-91500000D03*
X117500000Y-91400000D03*
X108800000Y-90900000D03*
X113200000Y-90000000D03*
X97800000Y-100200000D03*
X82400000Y-89500000D03*
X80675000Y-89525000D03*
X92100000Y-90500000D03*
X93600000Y-88000000D03*
X55925000Y-90175000D03*
X86700000Y-89100000D03*
X88500000Y-89200000D03*
X83100000Y-92300000D03*
X84512500Y-92187500D03*
X77500000Y-92100000D03*
X80400000Y-92300000D03*
X113350000Y-88350000D03*
X116850000Y-88500000D03*
X162000000Y-88650000D03*
D24*
X42350000Y-88700000D03*
D23*
X43500000Y-93100000D03*
X93850000Y-89500000D03*
X93850000Y-90550000D03*
X100300000Y-89800000D03*
X96100000Y-83800000D03*
X60000000Y-83500000D03*
X41700000Y-88000000D03*
X40500000Y-88000000D03*
D25*
X165050000Y-95250000D03*
X164500000Y-94800000D03*
X164050000Y-94150000D03*
D23*
X160500000Y-91500000D03*
X166800000Y-86300000D03*
X168100000Y-91800000D03*
D24*
X167000000Y-92000000D03*
X166400000Y-91320001D03*
X166400000Y-92000000D03*
X163600000Y-90650000D03*
X164700000Y-90650000D03*
X164150000Y-91300000D03*
X164150000Y-90650000D03*
X165300000Y-88665785D03*
D23*
X168100000Y-88900000D03*
X165900000Y-85400000D03*
X164900000Y-85400000D03*
X162900000Y-85400000D03*
D24*
X163000000Y-88000000D03*
X167000000Y-88000000D03*
X165850000Y-88000000D03*
X165299469Y-88000000D03*
X164152442Y-87997558D03*
X164700000Y-88000000D03*
D23*
X163900000Y-85400000D03*
X160900000Y-88000000D03*
X159100000Y-90700000D03*
X162000000Y-90600000D03*
X56100000Y-86600000D03*
X154700000Y-83400000D03*
X154700000Y-84400000D03*
X147900000Y-84400000D03*
X109500000Y-90000000D03*
X109400000Y-85900000D03*
X109000000Y-83900000D03*
X105000000Y-84000000D03*
X101200000Y-84000000D03*
X98900000Y-81400000D03*
X96100000Y-84800000D03*
X93900000Y-84200000D03*
X93900000Y-85300000D03*
D25*
X163600000Y-93700000D03*
D23*
X96300000Y-96200000D03*
X96300000Y-94800000D03*
X93800000Y-91800000D03*
D24*
X46400000Y-89350000D03*
X45806023Y-89341620D03*
X43550000Y-88700000D03*
X42999072Y-90049104D03*
X44700000Y-90650000D03*
X46999104Y-90699072D03*
X45300000Y-88000000D03*
X43600000Y-90000000D03*
X44150000Y-90000000D03*
X43550000Y-92000000D03*
D26*
X39000000Y-78000000D03*
X39000000Y-102000000D03*
X171000000Y-102000000D03*
X171000000Y-78000000D03*
X59000000Y-78000000D03*
X59000000Y-102000000D03*
X151000000Y-102000000D03*
X151000000Y-78000000D03*
X105000000Y-102000000D03*
X105000000Y-78000000D03*
D24*
X164150000Y-88650000D03*
X166400000Y-89950000D03*
X166409957Y-90688895D03*
X166450000Y-88700000D03*
X164700000Y-91300000D03*
X163550000Y-89350000D03*
X163554855Y-91955602D03*
X163600000Y-91300000D03*
X164150000Y-89350000D03*
D25*
X47066513Y-94433487D03*
X47533487Y-93966513D03*
X49133026Y-94066513D03*
X49600000Y-94533487D03*
D23*
X42200000Y-94500000D03*
X41700000Y-90900000D03*
D24*
X44152442Y-87997558D03*
X43000000Y-88000000D03*
D23*
X44900000Y-85500000D03*
X45900000Y-85500000D03*
X43900000Y-85500000D03*
X42900000Y-85500000D03*
D24*
X44700000Y-88000000D03*
X45850000Y-88000000D03*
X44150000Y-88700000D03*
X47000000Y-88000000D03*
X45850000Y-91300000D03*
X44700889Y-91299111D03*
X43550373Y-91299627D03*
X47000000Y-92000000D03*
X46400000Y-92000000D03*
X47600000Y-92000000D03*
D25*
X47800000Y-89300000D03*
X48850000Y-91300000D03*
X48850000Y-90000000D03*
X48850000Y-88700000D03*
X48850000Y-87900000D03*
D23*
X55100000Y-84600000D03*
X87300000Y-87800000D03*
X90500000Y-85800000D03*
X87800000Y-85800000D03*
X96300000Y-93400000D03*
X92700000Y-92300000D03*
X100400000Y-86600000D03*
X99600000Y-87500000D03*
X103600000Y-89800000D03*
X109700000Y-86900000D03*
X109700000Y-88000000D03*
X110000000Y-89100000D03*
X91400000Y-87900000D03*
X91400000Y-89000000D03*
D27*
X55500000Y-97000000D02*
X61675000Y-90825000D01*
X61675000Y-90825000D02*
X79400000Y-90825000D01*
X131910000Y-85090000D02*
X128000000Y-89000000D01*
X132080000Y-85090000D02*
X131910000Y-85090000D01*
X128000000Y-89000000D02*
X125330292Y-89000000D01*
X125330292Y-89000000D02*
X124032564Y-90297728D01*
X80328200Y-90825000D02*
X81200000Y-91696800D01*
X79400000Y-90825000D02*
X80328200Y-90825000D01*
X81200000Y-91696800D02*
X81200000Y-93600000D01*
X81200000Y-93600000D02*
X83050000Y-95450000D01*
X83050000Y-95450000D02*
X130590000Y-95450000D01*
X130590000Y-95450000D02*
X134540000Y-91500000D01*
X80675000Y-90175000D02*
X81800000Y-91300000D01*
X79400000Y-90175000D02*
X80675000Y-90175000D01*
X81800000Y-91300000D02*
X81800000Y-93200000D01*
X81800000Y-93200000D02*
X82700000Y-94100000D01*
X82700000Y-94100000D02*
X129400000Y-94100000D01*
X129400000Y-94100000D02*
X132000000Y-91500000D01*
X134620000Y-85090000D02*
X129412272Y-90297728D01*
X129412272Y-90297728D02*
X126267436Y-90297728D01*
D28*
X114540000Y-91455000D02*
X115955000Y-91455000D01*
X115955000Y-91455000D02*
X116000000Y-91500000D01*
D27*
X118940000Y-91455000D02*
X117555000Y-91455000D01*
X117555000Y-91455000D02*
X117500000Y-91400000D01*
X112235000Y-91170000D02*
X111705000Y-91700000D01*
X109600000Y-91700000D02*
X108800000Y-90900000D01*
X112235000Y-90850000D02*
X112235000Y-91170000D01*
X111705000Y-91700000D02*
X109600000Y-91700000D01*
X112250000Y-89935000D02*
X113135000Y-89935000D01*
X113135000Y-89935000D02*
X113200000Y-90000000D01*
X113355000Y-90155000D02*
X113200000Y-90000000D01*
X114540000Y-90155000D02*
X113355000Y-90155000D01*
X112235000Y-90850000D02*
X114495000Y-90850000D01*
X114495000Y-90850000D02*
X114540000Y-90805000D01*
D29*
X43860000Y-91650000D02*
X43860000Y-91609254D01*
X43860000Y-91609254D02*
X43550373Y-91299627D01*
D28*
X82425000Y-89525000D02*
X82400000Y-89500000D01*
X83800000Y-89525000D02*
X82425000Y-89525000D01*
X79400000Y-89525000D02*
X80675000Y-89525000D01*
D27*
X83800000Y-90175000D02*
X85610000Y-90175000D01*
X85610000Y-90175000D02*
X85700000Y-90085000D01*
X83800000Y-90825000D02*
X85510000Y-90825000D01*
X85510000Y-90825000D02*
X85700000Y-91015000D01*
X85700000Y-91015000D02*
X91585000Y-91015000D01*
X91585000Y-91015000D02*
X92100000Y-90500000D01*
X93600000Y-88000000D02*
X91515000Y-90085000D01*
X91515000Y-90085000D02*
X85700000Y-90085000D01*
X79400000Y-90175000D02*
X55925000Y-90175000D01*
D28*
X86685000Y-89115000D02*
X86700000Y-89100000D01*
X85700000Y-89115000D02*
X86685000Y-89115000D01*
D27*
X88250000Y-88450000D02*
X88250000Y-88950000D01*
X88250000Y-88950000D02*
X88500000Y-89200000D01*
D28*
X85700000Y-91985000D02*
X84715000Y-91985000D01*
X84715000Y-91985000D02*
X84512500Y-92187500D01*
X83600000Y-92800000D02*
X83455599Y-92655599D01*
X83455599Y-92655599D02*
X83100000Y-92300000D01*
X83815000Y-92800000D02*
X83600000Y-92800000D01*
X84512500Y-92187500D02*
X83800000Y-91475000D01*
X78175000Y-92775000D02*
X77500000Y-92100000D01*
X78415000Y-92775000D02*
X78175000Y-92775000D01*
X79925000Y-92775000D02*
X80400000Y-92300000D01*
X79385000Y-92775000D02*
X79925000Y-92775000D01*
X79385000Y-92775000D02*
X79385000Y-91490000D01*
X79385000Y-91490000D02*
X79400000Y-91475000D01*
X84785000Y-92800000D02*
X84785000Y-92460000D01*
X84785000Y-92460000D02*
X84512500Y-92187500D01*
D27*
X57750000Y-83550000D02*
X57500000Y-83800000D01*
X58600000Y-83550000D02*
X57750000Y-83550000D01*
X57500000Y-83800000D02*
X57500000Y-85200000D01*
X57500000Y-85200000D02*
X57750000Y-85450000D01*
X57750000Y-85450000D02*
X58600000Y-85450000D01*
X112250000Y-88965000D02*
X112735000Y-88965000D01*
X112735000Y-88965000D02*
X113350000Y-88350000D01*
X111265000Y-90850000D02*
X111265000Y-89630000D01*
X111265000Y-89630000D02*
X111930000Y-88965000D01*
X111930000Y-88965000D02*
X112250000Y-88965000D01*
D28*
X113600000Y-88100000D02*
X113350000Y-88350000D01*
X114515000Y-88100000D02*
X113600000Y-88100000D01*
X115485000Y-88100000D02*
X116450000Y-88100000D01*
X116450000Y-88100000D02*
X116850000Y-88500000D01*
X117250000Y-88100000D02*
X116850000Y-88500000D01*
X117915000Y-88100000D02*
X117250000Y-88100000D01*
X118940000Y-89505000D02*
X118940000Y-88155000D01*
X118940000Y-88155000D02*
X118885000Y-88100000D01*
X114540000Y-89505000D02*
X114540000Y-88125000D01*
X114540000Y-88125000D02*
X114515000Y-88100000D01*
D27*
X121750000Y-91650000D02*
X124915164Y-91650000D01*
X124915164Y-91650000D02*
X126267436Y-90297728D01*
X120905000Y-90805000D02*
X121750000Y-91650000D01*
X118940000Y-90805000D02*
X120905000Y-90805000D01*
X118940000Y-90155000D02*
X123889836Y-90155000D01*
X123889836Y-90155000D02*
X124032564Y-90297728D01*
D30*
X162720000Y-89010000D02*
X162360000Y-89010000D01*
X162360000Y-89010000D02*
X162000000Y-88650000D01*
X42410000Y-88700000D02*
X42350000Y-88700000D01*
X42720000Y-89010000D02*
X42410000Y-88700000D01*
D27*
X100300000Y-89800000D02*
X100975000Y-89125000D01*
X100975000Y-89125000D02*
X102150000Y-89125000D01*
D31*
X44430000Y-94144408D02*
X46276092Y-95990500D01*
X44430000Y-93870000D02*
X44430000Y-94144408D01*
X49402434Y-94533487D02*
X49600000Y-94533487D01*
X46276092Y-95990500D02*
X47945421Y-95990500D01*
X47945421Y-95990500D02*
X49402434Y-94533487D01*
X44722599Y-93898191D02*
X46433908Y-95609500D01*
X44722599Y-93872599D02*
X44722599Y-93898191D01*
X46433908Y-95609500D02*
X47787605Y-95609500D01*
X47787605Y-95609500D02*
X49133026Y-94264079D01*
X49133026Y-94264079D02*
X49133026Y-94066513D01*
D29*
X43050000Y-90650000D02*
X43520000Y-90650000D01*
X42200000Y-91500000D02*
X43050000Y-90650000D01*
X43520000Y-90650000D02*
X43860000Y-90990000D01*
D27*
X42200000Y-94500000D02*
X42200000Y-91500000D01*
D28*
X60000000Y-83500000D02*
X59900000Y-83600000D01*
X59900000Y-83600000D02*
X59900000Y-84615000D01*
D27*
X41850000Y-89350000D02*
X42150000Y-89350000D01*
X40500000Y-88000000D02*
X41850000Y-89350000D01*
D30*
X160500000Y-91100000D02*
X161650000Y-89950000D01*
X160500000Y-91500000D02*
X160500000Y-91100000D01*
X161650000Y-89950000D02*
X162100000Y-89950000D01*
D27*
X159100000Y-91700000D02*
X163400000Y-96000000D01*
X165862599Y-95637401D02*
X165862599Y-93062599D01*
X159100000Y-90700000D02*
X159100000Y-91700000D01*
X163400000Y-96000000D02*
X165500000Y-96000000D01*
X165500000Y-96000000D02*
X165862599Y-95637401D01*
D29*
X164100000Y-94100000D02*
X164100000Y-93600000D01*
X164050000Y-94150000D02*
X164100000Y-94100000D01*
X164100000Y-93600000D02*
X164430000Y-93270000D01*
X164430000Y-93270000D02*
X164430000Y-92310000D01*
X164722599Y-94577401D02*
X164722599Y-91927401D01*
X164500000Y-94800000D02*
X164722599Y-94577401D01*
X164722599Y-91927401D02*
X165000000Y-91650000D01*
X165050000Y-95250000D02*
X165000000Y-95200000D01*
X165000000Y-95200000D02*
X165000000Y-92310000D01*
D27*
X160900000Y-86400000D02*
X162600000Y-84700000D01*
X160900000Y-88000000D02*
X160900000Y-86400000D01*
X166300000Y-84700000D02*
X167950000Y-86350000D01*
X162600000Y-84700000D02*
X166300000Y-84700000D01*
D29*
X166710000Y-88350000D02*
X167000000Y-88060000D01*
X167000000Y-88060000D02*
X167000000Y-88000000D01*
D30*
X167590000Y-92310000D02*
X167280000Y-92310000D01*
X168100000Y-91800000D02*
X167590000Y-92310000D01*
D29*
X167000000Y-92000000D02*
X166710000Y-92290000D01*
X166710000Y-92290000D02*
X166710000Y-92310000D01*
X166710000Y-91650000D02*
X166710000Y-91630001D01*
X166710000Y-91630001D02*
X166400000Y-91320001D01*
X166140000Y-92310000D02*
X166400000Y-92050000D01*
X166400000Y-92050000D02*
X166400000Y-92000000D01*
X166710000Y-91690000D02*
X166710000Y-91650000D01*
X166400000Y-92000000D02*
X166710000Y-91690000D01*
X163860000Y-90990000D02*
X164150000Y-91280000D01*
X164150000Y-91280000D02*
X164150000Y-91300000D01*
X164430000Y-90330000D02*
X164700000Y-90600000D01*
X164700000Y-90600000D02*
X164700000Y-90650000D01*
X164430000Y-90330000D02*
X164150000Y-90610000D01*
X164150000Y-90610000D02*
X164150000Y-90650000D01*
X163860000Y-90330000D02*
X164150000Y-90620000D01*
X164150000Y-90620000D02*
X164150000Y-90650000D01*
X163600000Y-90650000D02*
X163290000Y-90340000D01*
X163290000Y-90340000D02*
X163290000Y-90330000D01*
X164700000Y-90650000D02*
X165000000Y-90350000D01*
X165000000Y-90350000D02*
X165000000Y-90330000D01*
X165000000Y-88350000D02*
X165000000Y-88365785D01*
X165000000Y-88365785D02*
X165300000Y-88665785D01*
X165300000Y-88620000D02*
X165570000Y-88350000D01*
X165300000Y-88665785D02*
X165300000Y-88620000D01*
D30*
X167990000Y-89010000D02*
X167280000Y-89010000D01*
X168100000Y-88900000D02*
X167990000Y-89010000D01*
D29*
X163290000Y-88350000D02*
X163290000Y-88290000D01*
X163290000Y-88290000D02*
X163000000Y-88000000D01*
X163290000Y-87690000D02*
X163000000Y-87980000D01*
X163000000Y-87980000D02*
X163000000Y-88000000D01*
X162720000Y-87690000D02*
X163000000Y-87970000D01*
X163000000Y-87970000D02*
X163000000Y-88000000D01*
X167280000Y-87690000D02*
X167000000Y-87970000D01*
X167000000Y-87970000D02*
X167000000Y-88000000D01*
X166710000Y-87690000D02*
X167000000Y-87980000D01*
X167000000Y-87980000D02*
X167000000Y-88000000D01*
X166140000Y-88350000D02*
X166140000Y-88290000D01*
X166140000Y-88290000D02*
X165850000Y-88000000D01*
X165570000Y-87690000D02*
X165850000Y-87970000D01*
X165850000Y-87970000D02*
X165850000Y-88000000D01*
X166140000Y-87690000D02*
X166140000Y-87710000D01*
X166140000Y-87710000D02*
X165850000Y-88000000D01*
X165570000Y-87690000D02*
X165299469Y-87960531D01*
X165299469Y-87960531D02*
X165299469Y-88000000D01*
X165000000Y-87690000D02*
X165000000Y-87700531D01*
X165000000Y-87700531D02*
X165299469Y-88000000D01*
X164152442Y-87997558D02*
X164430000Y-87720000D01*
X164430000Y-87720000D02*
X164430000Y-87690000D01*
X164152442Y-87997558D02*
X163860000Y-87705116D01*
X163860000Y-87705116D02*
X163860000Y-87690000D01*
X165000000Y-88300000D02*
X165000000Y-88350000D01*
X164700000Y-88000000D02*
X165000000Y-88300000D01*
X164700000Y-88000000D02*
X164700000Y-88080000D01*
X164700000Y-88080000D02*
X164430000Y-88350000D01*
D30*
X162100000Y-90600000D02*
X162370000Y-90330000D01*
X162000000Y-90600000D02*
X162100000Y-90600000D01*
X162370000Y-90330000D02*
X162720000Y-90330000D01*
D28*
X58600000Y-84500000D02*
X59785000Y-84500000D01*
X59785000Y-84500000D02*
X59900000Y-84615000D01*
X154685000Y-83415000D02*
X154700000Y-83400000D01*
D32*
X153750000Y-83415000D02*
X154685000Y-83415000D01*
X152400000Y-83400000D02*
X153735000Y-83400000D01*
D28*
X153735000Y-83400000D02*
X153750000Y-83415000D01*
X154685000Y-84385000D02*
X154700000Y-84400000D01*
X153750000Y-84385000D02*
X154685000Y-84385000D01*
X147915000Y-84385000D02*
X147900000Y-84400000D01*
X148865000Y-84385000D02*
X147915000Y-84385000D01*
X150200000Y-84350000D02*
X148900000Y-84350000D01*
X148900000Y-84350000D02*
X148865000Y-84385000D01*
X109275000Y-89775000D02*
X109500000Y-90000000D01*
X108050000Y-89775000D02*
X109275000Y-89775000D01*
X109375000Y-85875000D02*
X109400000Y-85900000D01*
X108050000Y-85875000D02*
X109375000Y-85875000D01*
X108050000Y-86525000D02*
X108050000Y-85875000D01*
X108900000Y-84000000D02*
X109000000Y-83900000D01*
X107985000Y-84000000D02*
X108900000Y-84000000D01*
X108050000Y-85225000D02*
X108050000Y-84065000D01*
X108050000Y-84065000D02*
X107985000Y-84000000D01*
X107015000Y-84000000D02*
X105000000Y-84000000D01*
X103185000Y-84000000D02*
X105000000Y-84000000D01*
X102215000Y-84000000D02*
X101200000Y-84000000D01*
X102150000Y-85225000D02*
X102150000Y-84065000D01*
X102150000Y-84065000D02*
X102215000Y-84000000D01*
D27*
X102150000Y-85875000D02*
X102150000Y-85225000D01*
X102150000Y-86525000D02*
X102150000Y-85875000D01*
D28*
X90150000Y-87150000D02*
X91335000Y-87150000D01*
X91335000Y-87150000D02*
X91400000Y-87085000D01*
D29*
X164152599Y-91927401D02*
X164152599Y-93147401D01*
X164152599Y-93147401D02*
X163828599Y-93471401D01*
X163828599Y-93471401D02*
X163600000Y-93700000D01*
X164430000Y-91650000D02*
X164152599Y-91927401D01*
X43860000Y-89010000D02*
X43550000Y-88700000D01*
X46710000Y-89040000D02*
X46400000Y-89350000D01*
X46710000Y-89010000D02*
X46710000Y-89040000D01*
X46134403Y-89670000D02*
X45806023Y-89341620D01*
X46140000Y-89670000D02*
X46134403Y-89670000D01*
X43540000Y-89350000D02*
X42150000Y-89350000D01*
X43860000Y-89670000D02*
X43540000Y-89350000D01*
X43290000Y-89670000D02*
X43290000Y-89758176D01*
X43290000Y-89758176D02*
X42999072Y-90049104D01*
X43290000Y-88960000D02*
X43550000Y-88700000D01*
X43290000Y-89010000D02*
X43290000Y-88960000D01*
X42720000Y-90328176D02*
X42999072Y-90049104D01*
X42720000Y-90330000D02*
X42720000Y-90328176D01*
X45000000Y-90330000D02*
X45000000Y-90350000D01*
X45000000Y-90350000D02*
X44700000Y-90650000D01*
X44430000Y-90380000D02*
X44700000Y-90650000D01*
X44430000Y-90330000D02*
X44430000Y-90380000D01*
X46710000Y-90988176D02*
X46999104Y-90699072D01*
X46710000Y-90990000D02*
X46710000Y-90988176D01*
X45570000Y-88350000D02*
X45000000Y-88350000D01*
X45000000Y-87700000D02*
X45300000Y-88000000D01*
X45000000Y-87690000D02*
X45000000Y-87700000D01*
X43290000Y-90310000D02*
X43600000Y-90000000D01*
X43290000Y-90330000D02*
X43290000Y-90310000D01*
X43860000Y-90290000D02*
X44150000Y-90000000D01*
X43860000Y-90330000D02*
X43860000Y-90290000D01*
X43290000Y-92260000D02*
X43550000Y-92000000D01*
X43290000Y-92310000D02*
X43290000Y-92260000D01*
X45000000Y-92310000D02*
X45000000Y-92750000D01*
X45292599Y-91942599D02*
X45292599Y-92642599D01*
X45000000Y-91650000D02*
X45292599Y-91942599D01*
X44430000Y-93750000D02*
X44430000Y-93870000D01*
X44430000Y-92310000D02*
X44430000Y-93750000D01*
X44430000Y-91899446D02*
X44722599Y-92192045D01*
X44430000Y-91650000D02*
X44430000Y-91899446D01*
X44722599Y-92192045D02*
X44722599Y-93750000D01*
X163290000Y-87690000D02*
X163290000Y-87705115D01*
X163290000Y-88350000D02*
X163286987Y-88350000D01*
X166710000Y-88350000D02*
X166710000Y-88340000D01*
X166140000Y-87690000D02*
X166140000Y-87705115D01*
X166140000Y-88350000D02*
X166136987Y-88350000D01*
X163860000Y-88350000D02*
X163860000Y-88360000D01*
X163860000Y-88360000D02*
X164150000Y-88650000D01*
X163860000Y-88940000D02*
X164150000Y-88650000D01*
X163860000Y-89010000D02*
X163860000Y-88940000D01*
X166140000Y-89670000D02*
X166140000Y-89690000D01*
X166140000Y-89690000D02*
X166400000Y-89950000D01*
X166710000Y-90990000D02*
X166710000Y-90988938D01*
X166710000Y-90988938D02*
X166409957Y-90688895D01*
X166710000Y-91650000D02*
X166703752Y-91650000D01*
X164430000Y-90330000D02*
X164420000Y-90330000D01*
X166710000Y-89010000D02*
X166710000Y-88960000D01*
X166710000Y-88960000D02*
X166450000Y-88700000D01*
X164430000Y-90990000D02*
X164430000Y-91030000D01*
X164430000Y-91030000D02*
X164700000Y-91300000D01*
X165000000Y-91000000D02*
X164700000Y-91300000D01*
X165000000Y-90990000D02*
X165000000Y-91000000D01*
X163290000Y-89610000D02*
X163550000Y-89350000D01*
X163290000Y-89090000D02*
X163550000Y-89350000D01*
X163290000Y-89670000D02*
X163290000Y-89610000D01*
X163290000Y-89010000D02*
X163290000Y-89090000D01*
X163860000Y-91650457D02*
X163554855Y-91955602D01*
X163290000Y-92310000D02*
X163290000Y-92220457D01*
X163290000Y-92220457D02*
X163554855Y-91955602D01*
X163860000Y-91650000D02*
X163860000Y-91650457D01*
X163290000Y-91650000D02*
X163290000Y-91610000D01*
X163290000Y-90990000D02*
X163600000Y-91300000D01*
X163290000Y-91610000D02*
X163600000Y-91300000D01*
X163860000Y-90990000D02*
X163864265Y-90990000D01*
X163860000Y-89670000D02*
X163860000Y-89640000D01*
X163860000Y-89640000D02*
X164150000Y-89350000D01*
D30*
X167950000Y-87850000D02*
X167950000Y-86350000D01*
X167280000Y-88350000D02*
X167450000Y-88350000D01*
X167450000Y-88350000D02*
X167950000Y-87850000D01*
D29*
X165862599Y-91927401D02*
X165862599Y-93062599D01*
X166140000Y-91650000D02*
X165862599Y-91927401D01*
X164430000Y-89670000D02*
X164150000Y-89950000D01*
X164150000Y-89950000D02*
X162100000Y-89950000D01*
X44722599Y-93777401D02*
X44722599Y-93872599D01*
X44722599Y-93750000D02*
X44722599Y-93777401D01*
D31*
X47335921Y-93966513D02*
X47533487Y-93966513D01*
X45600000Y-93000000D02*
X46369408Y-93000000D01*
X45292599Y-92692599D02*
X45600000Y-93000000D01*
X45292599Y-92642599D02*
X45292599Y-92692599D01*
X46369408Y-93000000D02*
X47335921Y-93966513D01*
D29*
X44152442Y-88057558D02*
X43860000Y-88350000D01*
X43860000Y-87705116D02*
X43860000Y-87690000D01*
X44152442Y-87997558D02*
X44430000Y-87720000D01*
X44152442Y-87997558D02*
X43860000Y-87705116D01*
X44430000Y-87720000D02*
X44430000Y-87690000D01*
X44152442Y-87997558D02*
X44152442Y-88057558D01*
X43290000Y-88340000D02*
X43290000Y-88350000D01*
X43000000Y-88060000D02*
X43290000Y-88350000D01*
X43000000Y-88000000D02*
X43000000Y-88060000D01*
X43290000Y-87710000D02*
X43000000Y-88000000D01*
X43290000Y-87690000D02*
X43290000Y-87710000D01*
X42720000Y-87720000D02*
X43000000Y-88000000D01*
X42720000Y-87690000D02*
X42720000Y-87720000D01*
X44700000Y-88080000D02*
X44430000Y-88350000D01*
X44700000Y-88000000D02*
X44700000Y-88080000D01*
X44700000Y-88050000D02*
X44700000Y-88000000D01*
X45000000Y-88350000D02*
X44700000Y-88050000D01*
X46140000Y-87710000D02*
X46140000Y-87690000D01*
X45570000Y-87720000D02*
X45570000Y-87690000D01*
X45850000Y-88000000D02*
X46140000Y-87710000D01*
X46140000Y-88290000D02*
X46140000Y-88350000D01*
X45850000Y-88000000D02*
X45570000Y-87720000D01*
X45850000Y-88000000D02*
X46140000Y-88290000D01*
X44100000Y-88770000D02*
X43860000Y-89010000D01*
X44100000Y-88590000D02*
X43860000Y-88350000D01*
X47000000Y-88060000D02*
X46710000Y-88350000D01*
X47000000Y-88000000D02*
X47000000Y-88060000D01*
X47000000Y-87980000D02*
X46710000Y-87690000D01*
X47000000Y-88000000D02*
X47000000Y-87980000D01*
X47000000Y-87970000D02*
X47280000Y-87690000D01*
X47000000Y-88000000D02*
X47000000Y-87970000D01*
X44700889Y-91299111D02*
X45000000Y-91000000D01*
X44700889Y-91299111D02*
X44430000Y-91028222D01*
X44430000Y-91028222D02*
X44430000Y-90990000D01*
X45000000Y-91000000D02*
X45000000Y-90990000D01*
X43550373Y-91389627D02*
X43290000Y-91650000D01*
X43550373Y-91299627D02*
X43550373Y-91389627D01*
X43550373Y-91250373D02*
X43290000Y-90990000D01*
X43550373Y-91299627D02*
X43550373Y-91250373D01*
X47000000Y-92000000D02*
X46710000Y-92290000D01*
X46710000Y-92290000D02*
X46710000Y-92310000D01*
X46400000Y-92000000D02*
X46710000Y-91690000D01*
X46400000Y-92000000D02*
X46140000Y-92260000D01*
X46710000Y-91690000D02*
X46710000Y-91650000D01*
X46140000Y-92260000D02*
X46140000Y-92310000D01*
X47590000Y-92000000D02*
X47280000Y-92310000D01*
X47600000Y-92000000D02*
X47590000Y-92000000D01*
D30*
X47800000Y-89300000D02*
X47510000Y-89010000D01*
X47510000Y-89010000D02*
X47280000Y-89010000D01*
D29*
X44430000Y-90280000D02*
X44150000Y-90000000D01*
X44430000Y-90330000D02*
X44430000Y-90280000D01*
X46490000Y-91300000D02*
X46140000Y-91650000D01*
X48850000Y-91300000D02*
X46490000Y-91300000D01*
X44760000Y-90000000D02*
X44430000Y-89670000D01*
X48850000Y-90000000D02*
X44760000Y-90000000D01*
X44740000Y-88700000D02*
X44430000Y-89010000D01*
X48850000Y-88700000D02*
X44740000Y-88700000D01*
D30*
X48400000Y-88350000D02*
X47280000Y-88350000D01*
X48850000Y-87900000D02*
X48400000Y-88350000D01*
D28*
X55315000Y-86600000D02*
X56100000Y-86600000D01*
X55100000Y-86385000D02*
X55315000Y-86600000D01*
D32*
X55135000Y-85450000D02*
X56400000Y-85450000D01*
X55100000Y-84600000D02*
X55100000Y-85415000D01*
D28*
X55100000Y-85415000D02*
X55135000Y-85450000D01*
D27*
X87300000Y-87800000D02*
X88250000Y-87800000D01*
D28*
X90500000Y-85800000D02*
X90815000Y-86115000D01*
X90815000Y-86115000D02*
X91400000Y-86115000D01*
X89685000Y-85800000D02*
X90500000Y-85800000D01*
X88715000Y-85800000D02*
X87800000Y-85800000D01*
X87800000Y-86700000D02*
X88250000Y-87150000D01*
X87800000Y-85800000D02*
X87800000Y-86700000D01*
D27*
X100975000Y-87175000D02*
X102150000Y-87175000D01*
X100400000Y-86600000D02*
X100975000Y-87175000D01*
X99925000Y-87825000D02*
X102150000Y-87825000D01*
X99600000Y-87500000D02*
X99925000Y-87825000D01*
X103275000Y-88475000D02*
X102150000Y-88475000D01*
D28*
X103600000Y-89800000D02*
X102175000Y-89800000D01*
D27*
X103600000Y-89800000D02*
X103600000Y-88800000D01*
D28*
X102175000Y-89800000D02*
X102150000Y-89775000D01*
D27*
X103600000Y-88800000D02*
X103275000Y-88475000D01*
X109700000Y-86900000D02*
X109400000Y-87200000D01*
X109400000Y-87200000D02*
X108075000Y-87200000D01*
X109525000Y-87825000D02*
X108050000Y-87825000D01*
X109700000Y-88000000D02*
X109525000Y-87825000D01*
X93100000Y-92700000D02*
X92700000Y-92300000D01*
X94950000Y-92700000D02*
X93100000Y-92700000D01*
X95650000Y-92000000D02*
X94950000Y-92700000D01*
X103060900Y-92000000D02*
X95650000Y-92000000D01*
X108050000Y-89125000D02*
X105935900Y-89125000D01*
X105935900Y-89125000D02*
X103060900Y-92000000D01*
X109975000Y-89125000D02*
X108050000Y-89125000D01*
X110000000Y-89100000D02*
X109975000Y-89125000D01*
X150200000Y-85300000D02*
X150900000Y-85300000D01*
X150900000Y-85300000D02*
X151300000Y-84900000D01*
X151300000Y-84900000D02*
X151300000Y-83800000D01*
X150900000Y-83400000D02*
X150200000Y-83400000D01*
X151300000Y-83800000D02*
X150900000Y-83400000D01*
D31*
X45500000Y-93400000D02*
X45000000Y-92900000D01*
X46230592Y-93400000D02*
X45500000Y-93400000D01*
X45000000Y-92900000D02*
X45000000Y-92750000D01*
X47066513Y-94433487D02*
X47066513Y-94235921D01*
X47066513Y-94235921D02*
X46230592Y-93400000D01*
D27*
X91400000Y-87900000D02*
X91400000Y-87085000D01*
X90850000Y-88450000D02*
X90150000Y-88450000D01*
X91400000Y-89000000D02*
X90850000Y-88450000D01*
X91400000Y-87085000D02*
X92400000Y-87085000D01*
X91400000Y-86115000D02*
X92400000Y-86115000D01*
D13*
G36*
X98677462Y-82110120D02*
G01*
X98885718Y-82144037D01*
X99095112Y-82118141D01*
X99288832Y-82034512D01*
X99330476Y-82000000D01*
X151500000Y-82000000D01*
X151500000Y-82982175D01*
X151481536Y-83075000D01*
X151481536Y-83725000D01*
X151500000Y-83817825D01*
X151500000Y-84882175D01*
X151481536Y-84975000D01*
X151481536Y-85625000D01*
X151500000Y-85717825D01*
X151500000Y-88500000D01*
X132112497Y-88500000D01*
X132048061Y-88344436D01*
X134160417Y-86232081D01*
X134262766Y-86273224D01*
X134586306Y-86321000D01*
X134675745Y-86321000D01*
X134838872Y-86306442D01*
X135050825Y-86248458D01*
X135249165Y-86153855D01*
X135427609Y-86025629D01*
X135580532Y-85867825D01*
X135703094Y-85685432D01*
X135809108Y-85443926D01*
X135983962Y-85454008D01*
X136015648Y-85557002D01*
X136116432Y-85752268D01*
X136250204Y-85926603D01*
X136412733Y-86074493D01*
X136598878Y-86191262D01*
X136802764Y-86273224D01*
X137126306Y-86321000D01*
X137215745Y-86321000D01*
X137378872Y-86306442D01*
X137590825Y-86248458D01*
X137789165Y-86153855D01*
X137967609Y-86025629D01*
X138120532Y-85867825D01*
X138243094Y-85685432D01*
X138331416Y-85484230D01*
X138382716Y-85270552D01*
X138395365Y-85051175D01*
X138368966Y-84833029D01*
X138304353Y-84622999D01*
X138238725Y-84495846D01*
X147162024Y-84495846D01*
X147218588Y-84699120D01*
X147329929Y-84878344D01*
X147487099Y-85019119D01*
X147677462Y-85110120D01*
X147885718Y-85144037D01*
X148095112Y-85118141D01*
X148288830Y-85034513D01*
X148378385Y-84960295D01*
X148520561Y-85037235D01*
X148694543Y-85066268D01*
X149035464Y-85066268D01*
X149166992Y-85049873D01*
X149395346Y-84949707D01*
X149521340Y-85033893D01*
X149670001Y-85063464D01*
X150729999Y-85063464D01*
X150878661Y-85033893D01*
X151004686Y-84949686D01*
X151088893Y-84823661D01*
X151118464Y-84674999D01*
X151118464Y-84025001D01*
X151088893Y-83876339D01*
X151004686Y-83750314D01*
X150878661Y-83666107D01*
X150729999Y-83636536D01*
X149670001Y-83636536D01*
X149521341Y-83666107D01*
X149326647Y-83796195D01*
X149209438Y-83732764D01*
X149035457Y-83703732D01*
X148694536Y-83703732D01*
X148563009Y-83720127D01*
X148368830Y-83805301D01*
X148113848Y-83687213D01*
X147905194Y-83655844D01*
X147696127Y-83684297D01*
X147503447Y-83770285D01*
X147342647Y-83906895D01*
X147226651Y-84083146D01*
X147164786Y-84284869D01*
X147162024Y-84495846D01*
X138238725Y-84495846D01*
X138203568Y-84427732D01*
X138069796Y-84253397D01*
X137907267Y-84105507D01*
X137721122Y-83988738D01*
X137517236Y-83906776D01*
X137193694Y-83859000D01*
X137104255Y-83859000D01*
X136941128Y-83873558D01*
X136729175Y-83931542D01*
X136530835Y-84026145D01*
X136352391Y-84154371D01*
X136199468Y-84312175D01*
X136076906Y-84494568D01*
X135970892Y-84736074D01*
X135796038Y-84725992D01*
X135764352Y-84622998D01*
X135663568Y-84427732D01*
X135529796Y-84253397D01*
X135367267Y-84105507D01*
X135181122Y-83988738D01*
X134977236Y-83906776D01*
X134653694Y-83859000D01*
X134564255Y-83859000D01*
X134401128Y-83873558D01*
X134189175Y-83931542D01*
X133990835Y-84026145D01*
X133812391Y-84154371D01*
X133659468Y-84312175D01*
X133536906Y-84494568D01*
X133430281Y-84737467D01*
X133260535Y-84732577D01*
X133195572Y-84557897D01*
X133083714Y-84368758D01*
X132940133Y-84202415D01*
X132769359Y-84064127D01*
X132576796Y-83958264D01*
X132368530Y-83888174D01*
X132151151Y-83856074D01*
X131931515Y-83862977D01*
X131716574Y-83908664D01*
X131513118Y-83991693D01*
X131327585Y-84109435D01*
X131165835Y-84258171D01*
X131032977Y-84433205D01*
X130933218Y-84628995D01*
X130869704Y-84839360D01*
X130844449Y-85057648D01*
X130858246Y-85276952D01*
X130894194Y-85423308D01*
X127817503Y-88500000D01*
X118557963Y-88500000D01*
X118596268Y-88270462D01*
X118596268Y-87929536D01*
X118579873Y-87798008D01*
X118509021Y-87636482D01*
X118389559Y-87506711D01*
X118234438Y-87422764D01*
X118060457Y-87393732D01*
X117769536Y-87393732D01*
X117638008Y-87410127D01*
X117476481Y-87480980D01*
X117383472Y-87566600D01*
X117306938Y-87566600D01*
X117275473Y-87559826D01*
X117218237Y-87566600D01*
X117205692Y-87566600D01*
X117174825Y-87571738D01*
X117099123Y-87580698D01*
X117090561Y-87585762D01*
X117074835Y-87588380D01*
X116830137Y-87720412D01*
X116710518Y-87626114D01*
X116700880Y-87623639D01*
X116687909Y-87614370D01*
X116517776Y-87563490D01*
X116438612Y-87566600D01*
X116014690Y-87566600D01*
X115959562Y-87506714D01*
X115804437Y-87422764D01*
X115630457Y-87393732D01*
X115339536Y-87393732D01*
X115208008Y-87410127D01*
X114988782Y-87506290D01*
X114834438Y-87422764D01*
X114660457Y-87393732D01*
X114369536Y-87393732D01*
X114238008Y-87410127D01*
X114076481Y-87480980D01*
X113983472Y-87566600D01*
X113656939Y-87566600D01*
X113625473Y-87559826D01*
X113568237Y-87566600D01*
X113555692Y-87566600D01*
X113524825Y-87571738D01*
X113449123Y-87580698D01*
X113440561Y-87585762D01*
X113424835Y-87588380D01*
X113384344Y-87610228D01*
X113355192Y-87605844D01*
X113146127Y-87634297D01*
X112953447Y-87720285D01*
X112792647Y-87856895D01*
X112676651Y-88033146D01*
X112591070Y-88312202D01*
X112420457Y-88283732D01*
X112079536Y-88283732D01*
X111948008Y-88300127D01*
X111786481Y-88370980D01*
X111646327Y-88500000D01*
X110313428Y-88500000D01*
X110433753Y-88124103D01*
X110436751Y-87895145D01*
X110377708Y-87692580D01*
X110220222Y-87445848D01*
X110369428Y-87225057D01*
X110433753Y-87024103D01*
X110436751Y-86795145D01*
X110377707Y-86592577D01*
X110264186Y-86414726D01*
X110064556Y-86240273D01*
X110133753Y-86024103D01*
X110136751Y-85795145D01*
X110077707Y-85592577D01*
X109964186Y-85414726D01*
X109805307Y-85275883D01*
X109613846Y-85187213D01*
X109405194Y-85155844D01*
X109188464Y-85185340D01*
X109188464Y-85000001D01*
X109158893Y-84851340D01*
X109126842Y-84803371D01*
X123091564Y-84803371D01*
X123091564Y-85001173D01*
X123132691Y-85194660D01*
X123213146Y-85375365D01*
X123329414Y-85535394D01*
X123476410Y-85667750D01*
X123647717Y-85766653D01*
X123835839Y-85827778D01*
X124032564Y-85848455D01*
X124229289Y-85827778D01*
X124417411Y-85766653D01*
X124588718Y-85667750D01*
X124735714Y-85535394D01*
X124851982Y-85375365D01*
X124932437Y-85194660D01*
X124973564Y-85001173D01*
X124973564Y-84803371D01*
X124932437Y-84609884D01*
X124851982Y-84429179D01*
X124735714Y-84269150D01*
X124588718Y-84136794D01*
X124417411Y-84037891D01*
X124229289Y-83976766D01*
X124032564Y-83956089D01*
X123835839Y-83976766D01*
X123647717Y-84037891D01*
X123476410Y-84136794D01*
X123329414Y-84269150D01*
X123213146Y-84429179D01*
X123132691Y-84609884D01*
X123091564Y-84803371D01*
X109126842Y-84803371D01*
X109046069Y-84682483D01*
X109388829Y-84534514D01*
X109551289Y-84399876D01*
X109669428Y-84225057D01*
X109733753Y-84024103D01*
X109736751Y-83795145D01*
X109677707Y-83592577D01*
X109564186Y-83414726D01*
X109405307Y-83275883D01*
X109213846Y-83187213D01*
X109005194Y-83155844D01*
X108796127Y-83184297D01*
X108603449Y-83270284D01*
X108449360Y-83401192D01*
X108304438Y-83322764D01*
X108130457Y-83293732D01*
X107839536Y-83293732D01*
X107708008Y-83310127D01*
X107488782Y-83406290D01*
X107334438Y-83322764D01*
X107160457Y-83293732D01*
X106869536Y-83293732D01*
X106738008Y-83310127D01*
X106576481Y-83380980D01*
X106483472Y-83466600D01*
X105509114Y-83466600D01*
X105405306Y-83375883D01*
X105213846Y-83287213D01*
X105005194Y-83255844D01*
X104796127Y-83284297D01*
X104603447Y-83370285D01*
X104490078Y-83466600D01*
X103714690Y-83466600D01*
X103659562Y-83406714D01*
X103504437Y-83322764D01*
X103330457Y-83293732D01*
X103039536Y-83293732D01*
X102908008Y-83310127D01*
X102688782Y-83406290D01*
X102534438Y-83322764D01*
X102360457Y-83293732D01*
X102069536Y-83293732D01*
X101938008Y-83310127D01*
X101776482Y-83380980D01*
X101695958Y-83455107D01*
X101605306Y-83375883D01*
X101413846Y-83287213D01*
X101205194Y-83255844D01*
X100996127Y-83284297D01*
X100803447Y-83370285D01*
X100642647Y-83506895D01*
X100526651Y-83683146D01*
X100464786Y-83884869D01*
X100462024Y-84095846D01*
X100518588Y-84299120D01*
X100629929Y-84478344D01*
X100787099Y-84619119D01*
X101061232Y-84750167D01*
X101011536Y-85000001D01*
X101011536Y-85449999D01*
X101031428Y-85550000D01*
X101011536Y-85650001D01*
X101011536Y-85959825D01*
X100863737Y-86026946D01*
X100805306Y-85975883D01*
X100613846Y-85887213D01*
X100405194Y-85855844D01*
X100196127Y-85884297D01*
X100003447Y-85970285D01*
X99842647Y-86106895D01*
X99726651Y-86283146D01*
X99664786Y-86484869D01*
X99661339Y-86748204D01*
X99396127Y-86784297D01*
X99203447Y-86870285D01*
X99042647Y-87006895D01*
X98926651Y-87183146D01*
X98864786Y-87384869D01*
X98862024Y-87595846D01*
X98918588Y-87799120D01*
X99029929Y-87978344D01*
X99187099Y-88119119D01*
X99377462Y-88210120D01*
X99585716Y-88244037D01*
X99667597Y-88233909D01*
X99795944Y-88323777D01*
X99740382Y-88500000D01*
X94213430Y-88500000D01*
X94333753Y-88124105D01*
X94336751Y-87895145D01*
X94277707Y-87692577D01*
X94164186Y-87514726D01*
X94005307Y-87375883D01*
X93813846Y-87287213D01*
X93605194Y-87255844D01*
X93396127Y-87284297D01*
X93106268Y-87413653D01*
X93106268Y-86939536D01*
X93089873Y-86808008D01*
X92993710Y-86588782D01*
X93077236Y-86434438D01*
X93106268Y-86260457D01*
X93106268Y-85969536D01*
X93089873Y-85838008D01*
X93019021Y-85676482D01*
X92899559Y-85546711D01*
X92744438Y-85462764D01*
X92570457Y-85433732D01*
X92229536Y-85433732D01*
X92098008Y-85450127D01*
X91889828Y-85541445D01*
X91744438Y-85462764D01*
X91570457Y-85433732D01*
X91229541Y-85433732D01*
X91146733Y-85444052D01*
X91064186Y-85314726D01*
X90905307Y-85175883D01*
X90713846Y-85087213D01*
X90505194Y-85055844D01*
X90296127Y-85084297D01*
X90097309Y-85173023D01*
X90004438Y-85122764D01*
X89830457Y-85093732D01*
X89539536Y-85093732D01*
X89408008Y-85110127D01*
X89188782Y-85206290D01*
X89034438Y-85122764D01*
X88860457Y-85093732D01*
X88569536Y-85093732D01*
X88438008Y-85110127D01*
X88245579Y-85194534D01*
X88013846Y-85087213D01*
X87805194Y-85055844D01*
X87596127Y-85084297D01*
X87403447Y-85170285D01*
X87224830Y-85322032D01*
X87076022Y-85247921D01*
X87087365Y-85051175D01*
X87060966Y-84833029D01*
X86996353Y-84622999D01*
X86895568Y-84427732D01*
X86794369Y-84295846D01*
X93162024Y-84295846D01*
X93218588Y-84499120D01*
X93329929Y-84678344D01*
X93487099Y-84819119D01*
X93677462Y-84910120D01*
X93885718Y-84944037D01*
X94095112Y-84918141D01*
X94288830Y-84834513D01*
X94451289Y-84699876D01*
X94569428Y-84525057D01*
X94633753Y-84324103D01*
X94636751Y-84095145D01*
X94578660Y-83895846D01*
X95362024Y-83895846D01*
X95418588Y-84099120D01*
X95545229Y-84302972D01*
X95426651Y-84483146D01*
X95364786Y-84684869D01*
X95362024Y-84895846D01*
X95418588Y-85099120D01*
X95529929Y-85278344D01*
X95687099Y-85419119D01*
X95877462Y-85510120D01*
X96085718Y-85544037D01*
X96295112Y-85518141D01*
X96488830Y-85434513D01*
X96651289Y-85299876D01*
X96769428Y-85125057D01*
X96833753Y-84924103D01*
X96836751Y-84695145D01*
X96777707Y-84492577D01*
X96653047Y-84297275D01*
X96769428Y-84125057D01*
X96833753Y-83924103D01*
X96836751Y-83695145D01*
X96777707Y-83492577D01*
X96664186Y-83314726D01*
X96505307Y-83175883D01*
X96313846Y-83087213D01*
X96105194Y-83055844D01*
X95896127Y-83084297D01*
X95703447Y-83170285D01*
X95542647Y-83306895D01*
X95426651Y-83483146D01*
X95364786Y-83684869D01*
X95362024Y-83895846D01*
X94578660Y-83895846D01*
X94577707Y-83892577D01*
X94464186Y-83714726D01*
X94305307Y-83575883D01*
X94113846Y-83487213D01*
X93905194Y-83455844D01*
X93696127Y-83484297D01*
X93503447Y-83570285D01*
X93342647Y-83706895D01*
X93226651Y-83883146D01*
X93164786Y-84084869D01*
X93162024Y-84295846D01*
X86794369Y-84295846D01*
X86761796Y-84253397D01*
X86599267Y-84105507D01*
X86413122Y-83988738D01*
X86209236Y-83906776D01*
X85885694Y-83859000D01*
X85796255Y-83859000D01*
X85633128Y-83873558D01*
X85421175Y-83931542D01*
X85222835Y-84026145D01*
X85044391Y-84154371D01*
X84891468Y-84312175D01*
X84768906Y-84494568D01*
X84662892Y-84736074D01*
X84488038Y-84725992D01*
X84456352Y-84622998D01*
X84355568Y-84427732D01*
X84221796Y-84253397D01*
X84059267Y-84105507D01*
X83873122Y-83988738D01*
X83669236Y-83906776D01*
X83345694Y-83859000D01*
X83256255Y-83859000D01*
X83093128Y-83873558D01*
X82881175Y-83931542D01*
X82682835Y-84026145D01*
X82504391Y-84154371D01*
X82351468Y-84312175D01*
X82228906Y-84494568D01*
X82122892Y-84736074D01*
X81948038Y-84725992D01*
X81916352Y-84622998D01*
X81815568Y-84427732D01*
X81681796Y-84253397D01*
X81519267Y-84105507D01*
X81333122Y-83988738D01*
X81129236Y-83906776D01*
X80805694Y-83859000D01*
X80716255Y-83859000D01*
X80553128Y-83873558D01*
X80341175Y-83931542D01*
X80142835Y-84026145D01*
X79964391Y-84154371D01*
X79811468Y-84312175D01*
X79688906Y-84494568D01*
X79582892Y-84736074D01*
X79408038Y-84725992D01*
X79376352Y-84622998D01*
X79275568Y-84427732D01*
X79141796Y-84253397D01*
X78979267Y-84105507D01*
X78793122Y-83988738D01*
X78589236Y-83906776D01*
X78265694Y-83859000D01*
X78176255Y-83859000D01*
X78013128Y-83873558D01*
X77801175Y-83931542D01*
X77602835Y-84026145D01*
X77424391Y-84154371D01*
X77271468Y-84312175D01*
X77148906Y-84494568D01*
X77042892Y-84736074D01*
X76868038Y-84725992D01*
X76836352Y-84622998D01*
X76735568Y-84427732D01*
X76601796Y-84253397D01*
X76439267Y-84105507D01*
X76253122Y-83988738D01*
X76049236Y-83906776D01*
X75725694Y-83859000D01*
X75636255Y-83859000D01*
X75473128Y-83873558D01*
X75261175Y-83931542D01*
X75062835Y-84026145D01*
X74884391Y-84154371D01*
X74731468Y-84312175D01*
X74608906Y-84494568D01*
X74502892Y-84736074D01*
X74328038Y-84725992D01*
X74296352Y-84622998D01*
X74195568Y-84427732D01*
X74061796Y-84253397D01*
X73899267Y-84105507D01*
X73713122Y-83988738D01*
X73509236Y-83906776D01*
X73185694Y-83859000D01*
X73096255Y-83859000D01*
X72933128Y-83873558D01*
X72721175Y-83931542D01*
X72522835Y-84026145D01*
X72344391Y-84154371D01*
X72191468Y-84312175D01*
X72068906Y-84494568D01*
X71980584Y-84695770D01*
X71929284Y-84909448D01*
X71916635Y-85128825D01*
X71943034Y-85346971D01*
X72007647Y-85557001D01*
X72108432Y-85752268D01*
X72242204Y-85926603D01*
X72404733Y-86074493D01*
X72590878Y-86191262D01*
X72794764Y-86273224D01*
X73118306Y-86321000D01*
X73207745Y-86321000D01*
X73370872Y-86306442D01*
X73582825Y-86248458D01*
X73781165Y-86153855D01*
X73959609Y-86025629D01*
X74112532Y-85867825D01*
X74235094Y-85685432D01*
X74341108Y-85443926D01*
X74515962Y-85454008D01*
X74547648Y-85557002D01*
X74648432Y-85752268D01*
X74782204Y-85926603D01*
X74944733Y-86074493D01*
X75130878Y-86191262D01*
X75334764Y-86273224D01*
X75658306Y-86321000D01*
X75747745Y-86321000D01*
X75910872Y-86306442D01*
X76122825Y-86248458D01*
X76321165Y-86153855D01*
X76499609Y-86025629D01*
X76652532Y-85867825D01*
X76775094Y-85685432D01*
X76881108Y-85443926D01*
X77055962Y-85454008D01*
X77087648Y-85557002D01*
X77188432Y-85752268D01*
X77322204Y-85926603D01*
X77484733Y-86074493D01*
X77670878Y-86191262D01*
X77874764Y-86273224D01*
X78198306Y-86321000D01*
X78287745Y-86321000D01*
X78450872Y-86306442D01*
X78662825Y-86248458D01*
X78861165Y-86153855D01*
X79039609Y-86025629D01*
X79192532Y-85867825D01*
X79315094Y-85685432D01*
X79421108Y-85443926D01*
X79595962Y-85454008D01*
X79627648Y-85557002D01*
X79728432Y-85752268D01*
X79862204Y-85926603D01*
X80024733Y-86074493D01*
X80210878Y-86191262D01*
X80414764Y-86273224D01*
X80738306Y-86321000D01*
X80827745Y-86321000D01*
X80990872Y-86306442D01*
X81202825Y-86248458D01*
X81401165Y-86153855D01*
X81579609Y-86025629D01*
X81732532Y-85867825D01*
X81855094Y-85685432D01*
X81961108Y-85443926D01*
X82135962Y-85454008D01*
X82167648Y-85557002D01*
X82268432Y-85752268D01*
X82402204Y-85926603D01*
X82564733Y-86074493D01*
X82750878Y-86191262D01*
X82954764Y-86273224D01*
X83278306Y-86321000D01*
X83367745Y-86321000D01*
X83530872Y-86306442D01*
X83742825Y-86248458D01*
X83941165Y-86153855D01*
X84119609Y-86025629D01*
X84272532Y-85867825D01*
X84395094Y-85685432D01*
X84501108Y-85443926D01*
X84675962Y-85454008D01*
X84707648Y-85557002D01*
X84808432Y-85752268D01*
X84942204Y-85926603D01*
X85104733Y-86074493D01*
X85290878Y-86191262D01*
X85494764Y-86273224D01*
X85818306Y-86321000D01*
X85907745Y-86321000D01*
X86070872Y-86306442D01*
X86282825Y-86248458D01*
X86481165Y-86153855D01*
X86659609Y-86025629D01*
X86812535Y-85867822D01*
X86883650Y-85761991D01*
X87063045Y-85817954D01*
X87062024Y-85895846D01*
X87118587Y-86099117D01*
X87229932Y-86278348D01*
X87266600Y-86311191D01*
X87266600Y-86643061D01*
X87259826Y-86674526D01*
X87266600Y-86731762D01*
X87266600Y-86744306D01*
X87271741Y-86775193D01*
X87280698Y-86850870D01*
X87285764Y-86859436D01*
X87288382Y-86875168D01*
X87380350Y-87045616D01*
X87096127Y-87084297D01*
X86903447Y-87170285D01*
X86742647Y-87306895D01*
X86626651Y-87483146D01*
X86564786Y-87684869D01*
X86562024Y-87895846D01*
X86618587Y-88099117D01*
X86772393Y-88346699D01*
X86496127Y-88384297D01*
X86303447Y-88470285D01*
X86268470Y-88500000D01*
X86113243Y-88500000D01*
X86044438Y-88462764D01*
X85870457Y-88433732D01*
X85529536Y-88433732D01*
X85398008Y-88450127D01*
X85284311Y-88500000D01*
X57500000Y-88500000D01*
X57500000Y-84979635D01*
X57678849Y-84925382D01*
X57795314Y-85099687D01*
X57921339Y-85183893D01*
X58070001Y-85213464D01*
X59129999Y-85213464D01*
X59278660Y-85183893D01*
X59333657Y-85147147D01*
X59555562Y-85267236D01*
X59729543Y-85296268D01*
X60070464Y-85296268D01*
X60201992Y-85279873D01*
X60363518Y-85209021D01*
X60493289Y-85089559D01*
X60577236Y-84934438D01*
X60606268Y-84760457D01*
X60606268Y-84469536D01*
X60589873Y-84338008D01*
X60519018Y-84176474D01*
X60440780Y-84091460D01*
X60551288Y-83999876D01*
X60669428Y-83825057D01*
X60733753Y-83624103D01*
X60736751Y-83395145D01*
X60677707Y-83192577D01*
X60564186Y-83014726D01*
X60405307Y-82875883D01*
X60213846Y-82787213D01*
X60005194Y-82755844D01*
X59796127Y-82784297D01*
X59603447Y-82870285D01*
X59442647Y-83006895D01*
X59326651Y-83183146D01*
X59264786Y-83384869D01*
X59262024Y-83595846D01*
X59325933Y-83825517D01*
X59129998Y-83786536D01*
X58070001Y-83786536D01*
X57921339Y-83816107D01*
X57795314Y-83900313D01*
X57678849Y-84074618D01*
X57500000Y-84020365D01*
X57500000Y-82000000D01*
X98447104Y-82000000D01*
X98677462Y-82110120D01*
X98677462Y-82110120D01*
G37*
M02*
