%TF.GenerationSoftware,KiCad,Pcbnew,5.99.0-unknown-a71d856e94~131~ubuntu20.04.1*%
%TF.CreationDate,2021-09-22T11:48:57-07:00*%
%TF.ProjectId,mipi_converter,6d697069-5f63-46f6-9e76-65727465722e,rev?*%
%TF.SameCoordinates,Original*%
%TF.FileFunction,Legend,Top*%
%TF.FilePolarity,Positive*%
%FSLAX46Y46*%
G04 Gerber Fmt 4.6, Leading zero omitted, Abs format (unit mm)*
G04 Created by KiCad (PCBNEW 5.99.0-unknown-a71d856e94~131~ubuntu20.04.1) date 2021-09-22 11:48:57*
%MOMM*%
%LPD*%
G01*
G04 APERTURE LIST*
%ADD10C,0.150000*%
%ADD11C,0.100000*%
%ADD12C,0.120000*%
G04 APERTURE END LIST*
D10*
%TO.C,U2*%
X71738095Y-75872380D02*
X71738095Y-76681904D01*
X71785714Y-76777142D01*
X71833333Y-76824761D01*
X71928571Y-76872380D01*
X72119047Y-76872380D01*
X72214285Y-76824761D01*
X72261904Y-76777142D01*
X72309523Y-76681904D01*
X72309523Y-75872380D01*
X72738095Y-75967619D02*
X72785714Y-75920000D01*
X72880952Y-75872380D01*
X73119047Y-75872380D01*
X73214285Y-75920000D01*
X73261904Y-75967619D01*
X73309523Y-76062857D01*
X73309523Y-76158095D01*
X73261904Y-76300952D01*
X72690476Y-76872380D01*
X73309523Y-76872380D01*
%TO.C,C3*%
X78457142Y-79656666D02*
X78504761Y-79704285D01*
X78552380Y-79847142D01*
X78552380Y-79942380D01*
X78504761Y-80085238D01*
X78409523Y-80180476D01*
X78314285Y-80228095D01*
X78123809Y-80275714D01*
X77980952Y-80275714D01*
X77790476Y-80228095D01*
X77695238Y-80180476D01*
X77600000Y-80085238D01*
X77552380Y-79942380D01*
X77552380Y-79847142D01*
X77600000Y-79704285D01*
X77647619Y-79656666D01*
X77552380Y-79323333D02*
X77552380Y-78704285D01*
X77933333Y-79037619D01*
X77933333Y-78894761D01*
X77980952Y-78799523D01*
X78028571Y-78751904D01*
X78123809Y-78704285D01*
X78361904Y-78704285D01*
X78457142Y-78751904D01*
X78504761Y-78799523D01*
X78552380Y-78894761D01*
X78552380Y-79180476D01*
X78504761Y-79275714D01*
X78457142Y-79323333D01*
%TO.C,C1*%
X76703333Y-73797142D02*
X76655714Y-73844761D01*
X76512857Y-73892380D01*
X76417619Y-73892380D01*
X76274761Y-73844761D01*
X76179523Y-73749523D01*
X76131904Y-73654285D01*
X76084285Y-73463809D01*
X76084285Y-73320952D01*
X76131904Y-73130476D01*
X76179523Y-73035238D01*
X76274761Y-72940000D01*
X76417619Y-72892380D01*
X76512857Y-72892380D01*
X76655714Y-72940000D01*
X76703333Y-72987619D01*
X77655714Y-73892380D02*
X77084285Y-73892380D01*
X77370000Y-73892380D02*
X77370000Y-72892380D01*
X77274761Y-73035238D01*
X77179523Y-73130476D01*
X77084285Y-73178095D01*
%TO.C,U1*%
X77212380Y-54161904D02*
X78021904Y-54161904D01*
X78117142Y-54114285D01*
X78164761Y-54066666D01*
X78212380Y-53971428D01*
X78212380Y-53780952D01*
X78164761Y-53685714D01*
X78117142Y-53638095D01*
X78021904Y-53590476D01*
X77212380Y-53590476D01*
X78212380Y-52590476D02*
X78212380Y-53161904D01*
X78212380Y-52876190D02*
X77212380Y-52876190D01*
X77355238Y-52971428D01*
X77450476Y-53066666D01*
X77498095Y-53161904D01*
D11*
%TO.C,U2*%
X76685000Y-77360000D02*
X77010000Y-77360000D01*
X77010000Y-77360000D02*
X77010000Y-77060000D01*
X74035000Y-75360000D02*
X73710000Y-75360000D01*
X73710000Y-75360000D02*
X73710000Y-75660000D01*
X74010000Y-77360000D02*
X73710000Y-77360000D01*
X73710000Y-77360000D02*
X73710000Y-77035000D01*
X77010000Y-75685000D02*
X76785000Y-75360000D01*
X76785000Y-75360000D02*
X76685000Y-75360000D01*
X76685000Y-75360000D02*
X76685000Y-74835000D01*
X77010000Y-75685000D02*
X77010000Y-76060000D01*
D12*
%TO.C,C3*%
X77580000Y-77170580D02*
X77580000Y-76889420D01*
X78600000Y-77170580D02*
X78600000Y-76889420D01*
%TO.C,C1*%
X74400580Y-73857500D02*
X74119420Y-73857500D01*
X74400580Y-72837500D02*
X74119420Y-72837500D01*
%TO.C,U1*%
X71780000Y-52940000D02*
X74340000Y-52940000D01*
X74340000Y-72260000D02*
X74340000Y-69600000D01*
X74970000Y-55600000D02*
X71780000Y-55600000D01*
X74340000Y-55600000D02*
X76630000Y-55600000D01*
X74970000Y-69600000D02*
X71780000Y-69600000D01*
X71780000Y-55600000D02*
X71780000Y-52940000D01*
X74970000Y-55600000D02*
X74970000Y-69600000D01*
X71780000Y-69600000D02*
X71780000Y-72260000D01*
X74340000Y-69600000D02*
X76630000Y-69600000D01*
X71780000Y-72260000D02*
X74340000Y-72260000D01*
X76630000Y-55600000D02*
X76630000Y-69600000D01*
X74340000Y-52940000D02*
X74340000Y-55600000D01*
%TD*%
M02*
