%TF.GenerationSoftware,KiCad,Pcbnew,5.99.0-unknown-a71d856e94~131~ubuntu20.04.1*%
%TF.CreationDate,2021-09-22T11:48:57-07:00*%
%TF.ProjectId,mipi_converter,6d697069-5f63-46f6-9e76-65727465722e,rev?*%
%TF.SameCoordinates,Original*%
%TF.FileFunction,Copper,L2,Bot*%
%TF.FilePolarity,Positive*%
%FSLAX46Y46*%
G04 Gerber Fmt 4.6, Leading zero omitted, Abs format (unit mm)*
G04 Created by KiCad (PCBNEW 5.99.0-unknown-a71d856e94~131~ubuntu20.04.1) date 2021-09-22 11:48:57*
%MOMM*%
%LPD*%
G01*
G04 APERTURE LIST*
%TA.AperFunction,SMDPad,CuDef*%
%ADD10R,2.000000X0.600000*%
%TD*%
%TA.AperFunction,SMDPad,CuDef*%
%ADD11R,4.200000X0.600000*%
%TD*%
%TA.AperFunction,ViaPad*%
%ADD12C,0.457200*%
%TD*%
%TA.AperFunction,ViaPad*%
%ADD13C,0.711200*%
%TD*%
%TA.AperFunction,Conductor*%
%ADD14C,0.127000*%
%TD*%
%TA.AperFunction,Conductor*%
%ADD15C,0.304800*%
%TD*%
%TA.AperFunction,Conductor*%
%ADD16C,0.177800*%
%TD*%
G04 APERTURE END LIST*
D10*
%TO.P,U3,1,3V3*%
%TO.N,+3V3*%
X77875000Y-76950000D03*
%TO.P,U3,2,SDA*%
%TO.N,/I2C_SDA*%
X77875000Y-75950000D03*
%TO.P,U3,3,SCL*%
%TO.N,/I2C_SCL*%
X77875000Y-74950000D03*
%TO.P,U3,4,GPIO*%
%TO.N,/CAM_IN1*%
X77875000Y-73950000D03*
%TO.P,U3,5,ENABLE*%
%TO.N,/CAM_IN0*%
X77875000Y-72950000D03*
%TO.P,U3,6,GND*%
%TO.N,GND*%
X77875000Y-71950000D03*
%TO.P,U3,7,CLK+*%
%TO.N,/CLK_P*%
X77875000Y-70950000D03*
%TO.P,U3,8,CLK-*%
%TO.N,/CLK_N*%
X77875000Y-69950000D03*
%TO.P,U3,9,GND*%
%TO.N,GND*%
X77875000Y-68950000D03*
%TO.P,U3,10,DAT1+*%
%TO.N,/DAT1_P*%
X77875000Y-67950000D03*
%TO.P,U3,11,DAT1-*%
%TO.N,/DAT1_N*%
X77875000Y-66950000D03*
%TO.P,U3,12,GND*%
%TO.N,GND*%
X77875000Y-65950000D03*
%TO.P,U3,13,DAT0+*%
%TO.N,/DAT0_P*%
X77875000Y-64950000D03*
%TO.P,U3,14,DAT0-*%
%TO.N,/DAT0_N*%
X77875000Y-63950000D03*
%TO.P,U3,15,GND*%
%TO.N,GND*%
X77875000Y-62950000D03*
%TO.P,U3,16,GND/PAD*%
X77875000Y-61950000D03*
%TO.P,U3,17,DAT2+*%
%TO.N,/DAT2_P*%
X77875000Y-60950000D03*
%TO.P,U3,18,DAT2-*%
%TO.N,/DAT2_N*%
X77875000Y-59950000D03*
%TO.P,U3,19,GND*%
%TO.N,GND*%
X77875000Y-58950000D03*
%TO.P,U3,20,DAT3+*%
%TO.N,/DAT3_P*%
X77875000Y-57950000D03*
%TO.P,U3,21,DAT3-*%
%TO.N,/DAT3_N*%
X77875000Y-56950000D03*
%TO.P,U3,22,GND*%
%TO.N,GND*%
X77875000Y-55950000D03*
D11*
%TO.P,U3,23,PAD*%
X75775000Y-54950000D03*
X75775000Y-77950000D03*
%TD*%
D12*
%TO.N,GND*%
X73040000Y-74900000D03*
X75360000Y-76230000D03*
%TO.N,/DAT0_P*%
X80090000Y-64754800D03*
%TO.N,/DAT0_N*%
X80090000Y-64145200D03*
%TO.N,/DAT1_P*%
X80315527Y-61254473D03*
%TO.N,/DAT1_N*%
X79884473Y-61685527D03*
%TO.N,/CLK_N*%
X82847127Y-61873899D03*
%TO.N,/CLK_P*%
X83456727Y-61873899D03*
%TO.N,/DAT2_N*%
X83127398Y-59513546D03*
%TO.N,/DAT2_P*%
X83736998Y-59513546D03*
%TO.N,/DAT3_N*%
X82895200Y-55360000D03*
%TO.N,/DAT3_P*%
X83504800Y-55360000D03*
D13*
%TO.N,+3V3*%
X79870000Y-76860000D03*
D12*
%TO.N,/CAM_IN0*%
X81070000Y-72130000D03*
%TO.N,/CAM_IN1*%
X81580000Y-72600000D03*
%TO.N,/I2C_SDA*%
X80110000Y-73570000D03*
%TO.N,/I2C_SCL*%
X79530000Y-74830000D03*
%TD*%
D14*
%TO.N,/DAT3_N*%
X81432134Y-57010300D02*
G75*
G03*
X81732134Y-57310300I300000J0D01*
G01*
X81432134Y-57010300D02*
X81432134Y-56889850D01*
X80482134Y-57310300D02*
X79735301Y-57310300D01*
X81132134Y-56589850D02*
G75*
G02*
X81432134Y-56889850I0J-300000D01*
G01*
X80832134Y-56889850D02*
G75*
G02*
X81132134Y-56589850I300000J0D01*
G01*
X80532134Y-57310300D02*
X80482134Y-57310300D01*
X79375001Y-56950000D02*
X77875000Y-56950000D01*
X80532134Y-57310300D02*
G75*
G03*
X80832134Y-57010300I0J300000D01*
G01*
X82895200Y-55360000D02*
X83060300Y-55525100D01*
X80832134Y-56889850D02*
X80832134Y-57010300D01*
X83060300Y-55525100D02*
X83060300Y-55982134D01*
X83060300Y-55982134D02*
X81732134Y-57310300D01*
X79735301Y-57310300D02*
X79375001Y-56950000D01*
%TO.N,/DAT2_N*%
X83292498Y-59889936D02*
X83292498Y-59678646D01*
X82872134Y-60310300D02*
X83292498Y-59889936D01*
X81790300Y-60310300D02*
X81840300Y-60310300D01*
X81490300Y-59714850D02*
X81490300Y-60010300D01*
X80890300Y-60010300D02*
X80890300Y-59714850D01*
X79735301Y-60310300D02*
X80590300Y-60310300D01*
X80890300Y-60010300D02*
G75*
G02*
X80590300Y-60310300I-300000J0D01*
G01*
X83292498Y-59678646D02*
X83127398Y-59513546D01*
X77875000Y-59950000D02*
X79375001Y-59950000D01*
X79375001Y-59950000D02*
X79735301Y-60310300D01*
X81790300Y-60310300D02*
G75*
G02*
X81490300Y-60010300I0J300000D01*
G01*
X81840300Y-60310300D02*
X82872134Y-60310300D01*
X81490300Y-59714850D02*
G75*
G03*
X81190300Y-59414850I-300000J0D01*
G01*
X81190300Y-59414850D02*
G75*
G03*
X80890300Y-59714850I0J-300000D01*
G01*
%TO.N,/DAT1_N*%
X80668646Y-64269700D02*
G75*
G02*
X81108346Y-63830000I439699J1D01*
G01*
%TO.N,/DAT1_P*%
X79735301Y-67589700D02*
X79375001Y-67950000D01*
X80230300Y-67887866D02*
X79932134Y-67589700D01*
X81560000Y-64430000D02*
X82255677Y-64430000D01*
%TO.N,/DAT1_N*%
X81108346Y-64709400D02*
G75*
G02*
X80668646Y-64269700I-1J439699D01*
G01*
X81560000Y-63830000D02*
G75*
G03*
X81720300Y-63669700I-1J160301D01*
G01*
%TO.N,/DAT1_P*%
X81338612Y-69178954D02*
X80710436Y-69178954D01*
%TO.N,/DAT1_N*%
X81108346Y-65909400D02*
X81560000Y-65909400D01*
%TO.N,/DAT1_P*%
X81999700Y-66069700D02*
X81999700Y-68517866D01*
X81108346Y-65630000D02*
X81560000Y-65630000D01*
X81999700Y-68517866D02*
X81338612Y-69178954D01*
X81999700Y-65309400D02*
X81108346Y-65309400D01*
X80230300Y-68698818D02*
X80230300Y-67887866D01*
X82255677Y-65309400D02*
X81999700Y-65309400D01*
X81560000Y-64109400D02*
G75*
G03*
X81999700Y-63669700I1J439699D01*
G01*
X80948046Y-64269700D02*
G75*
G02*
X81108346Y-64109400I160301J-1D01*
G01*
X81108346Y-65630000D02*
G75*
G02*
X80948046Y-65469700I1J160301D01*
G01*
%TO.N,/DAT1_N*%
X81720300Y-66069700D02*
G75*
G03*
X81560000Y-65909400I-160301J-1D01*
G01*
X82255677Y-65030000D02*
X81999700Y-65030000D01*
%TO.N,/DAT1_P*%
X82651354Y-64825677D02*
G75*
G03*
X82255677Y-64430000I-395677J0D01*
G01*
X80315527Y-61487961D02*
X81999700Y-63172134D01*
X82255677Y-65309400D02*
G75*
G03*
X82651354Y-64913723I0J395677D01*
G01*
X80315527Y-61254473D02*
X80315527Y-61487961D01*
X81999700Y-63172134D02*
X81999700Y-63669700D01*
X80948046Y-65469700D02*
G75*
G02*
X81108346Y-65309400I160301J-1D01*
G01*
X81108346Y-64430000D02*
X81560000Y-64430000D01*
X79375001Y-67950000D02*
X77875000Y-67950000D01*
X79932134Y-67589700D02*
X79735301Y-67589700D01*
X81999700Y-66069700D02*
G75*
G03*
X81560000Y-65630000I-439699J1D01*
G01*
X80710436Y-69178954D02*
X80230300Y-68698818D01*
%TO.N,/DAT1_N*%
X81720300Y-63287866D02*
X81720300Y-63669700D01*
%TO.N,/DAT1_P*%
X82651354Y-64825677D02*
X82651354Y-64913723D01*
%TO.N,/DAT1_N*%
X81999700Y-65030000D02*
X81108346Y-65030000D01*
%TO.N,/DAT1_P*%
X81108346Y-64430000D02*
G75*
G02*
X80948046Y-64269700I1J160301D01*
G01*
X81560000Y-64109400D02*
X81108346Y-64109400D01*
%TO.N,/DAT1_N*%
X79884473Y-61685527D02*
X80117961Y-61685527D01*
X82371954Y-64825677D02*
G75*
G03*
X82255677Y-64709400I-116278J-1D01*
G01*
X82255677Y-65030000D02*
G75*
G03*
X82371954Y-64913723I-1J116278D01*
G01*
X80668646Y-65469700D02*
G75*
G02*
X81108346Y-65030000I439699J1D01*
G01*
X81108346Y-64709400D02*
X81560000Y-64709400D01*
X81108346Y-65909400D02*
G75*
G02*
X80668646Y-65469700I-1J439699D01*
G01*
X80509700Y-68583086D02*
X80509700Y-67772134D01*
X80509700Y-67772134D02*
X80047866Y-67310300D01*
X80117961Y-61685527D02*
X81720300Y-63287866D01*
X81560000Y-63830000D02*
X81108346Y-63830000D01*
X79375001Y-66950000D02*
X77875000Y-66950000D01*
X81560000Y-64709400D02*
X82255677Y-64709400D01*
X82371954Y-64825677D02*
X82371954Y-64913723D01*
X81720300Y-66069700D02*
X81720300Y-68402134D01*
X81720300Y-68402134D02*
X81222880Y-68899554D01*
X81222880Y-68899554D02*
X80826168Y-68899554D01*
X80826168Y-68899554D02*
X80509700Y-68583086D01*
X80047866Y-67310300D02*
X79735301Y-67310300D01*
X79735301Y-67310300D02*
X79375001Y-66950000D01*
%TO.N,/DAT0_N*%
X79375001Y-63950000D02*
X79735301Y-64310300D01*
%TO.N,/DAT0_P*%
X77875000Y-64950000D02*
X79375001Y-64950000D01*
X79375001Y-64950000D02*
X79735301Y-64589700D01*
%TO.N,/DAT0_N*%
X79924900Y-64310300D02*
X80090000Y-64145200D01*
%TO.N,/DAT0_P*%
X79735301Y-64589700D02*
X79924900Y-64589700D01*
X79924900Y-64589700D02*
X80090000Y-64754800D01*
%TO.N,/DAT0_N*%
X77875000Y-63950000D02*
X79375001Y-63950000D01*
X79735301Y-64310300D02*
X79924900Y-64310300D01*
%TO.N,/CLK_P*%
X77875000Y-70950000D02*
X79375001Y-70950000D01*
%TO.N,/CLK_N*%
X83012227Y-69020207D02*
X83012227Y-62038999D01*
%TO.N,/CLK_P*%
X83291627Y-62038999D02*
X83456727Y-61873899D01*
X79375001Y-70950000D02*
X79735301Y-70589700D01*
X79735301Y-70589700D02*
X81837866Y-70589700D01*
X81837866Y-70589700D02*
X83291627Y-69135939D01*
X83291627Y-69135939D02*
X83291627Y-62038999D01*
%TO.N,/CLK_N*%
X79735301Y-70310300D02*
X81722134Y-70310300D01*
X77875000Y-69950000D02*
X79375001Y-69950000D01*
X79375001Y-69950000D02*
X79735301Y-70310300D01*
X81722134Y-70310300D02*
X83012227Y-69020207D01*
X83012227Y-62038999D02*
X82847127Y-61873899D01*
%TO.N,/DAT2_P*%
X83571898Y-59678646D02*
X83736998Y-59513546D01*
X83571898Y-60005668D02*
X83571898Y-59678646D01*
X79735301Y-60589700D02*
X82987866Y-60589700D01*
X77875000Y-60950000D02*
X79375001Y-60950000D01*
X82987866Y-60589700D02*
X83571898Y-60005668D01*
X79375001Y-60950000D02*
X79735301Y-60589700D01*
%TO.N,/DAT3_P*%
X83339700Y-55525100D02*
X83339700Y-56097866D01*
X83504800Y-55360000D02*
X83339700Y-55525100D01*
X81847866Y-57589700D02*
X79735301Y-57589700D01*
X83339700Y-56097866D02*
X81847866Y-57589700D01*
X79735301Y-57589700D02*
X79375001Y-57950000D01*
X79375001Y-57950000D02*
X77875000Y-57950000D01*
D15*
%TO.N,+3V3*%
X77875000Y-76950000D02*
X79780000Y-76950000D01*
X79780000Y-76950000D02*
X79870000Y-76860000D01*
D16*
%TO.N,/CAM_IN0*%
X79770000Y-72130000D02*
X81070000Y-72130000D01*
X79390000Y-72510000D02*
X79770000Y-72130000D01*
X77875000Y-72950000D02*
X78950000Y-72950000D01*
X78950000Y-72950000D02*
X79390000Y-72510000D01*
%TO.N,/CAM_IN1*%
X79925000Y-72600000D02*
X81580000Y-72600000D01*
X78575000Y-73950000D02*
X79925000Y-72600000D01*
X77875000Y-73950000D02*
X78575000Y-73950000D01*
%TO.N,/I2C_SDA*%
X80110000Y-73570000D02*
X80110000Y-75190000D01*
%TO.N,/I2C_SCL*%
X77875000Y-74950000D02*
X79410000Y-74950000D01*
X79410000Y-74950000D02*
X79530000Y-74830000D01*
%TO.N,/I2C_SDA*%
X80110000Y-75190000D02*
X79350000Y-75950000D01*
X79350000Y-75950000D02*
X77875000Y-75950000D01*
%TD*%
%TA.AperFunction,Conductor*%
%TO.N,GND*%
G36*
X84187694Y-52402306D02*
G01*
X84206000Y-52446500D01*
X84206000Y-59149419D01*
X84187694Y-59193613D01*
X84143500Y-59211919D01*
X84096152Y-59190216D01*
X84060748Y-59149128D01*
X84060746Y-59149126D01*
X84057842Y-59145756D01*
X83941719Y-59070489D01*
X83809139Y-59030839D01*
X83739950Y-59030417D01*
X83675213Y-59030021D01*
X83675212Y-59030021D01*
X83670760Y-59029994D01*
X83537705Y-59068021D01*
X83498284Y-59092894D01*
X83465403Y-59113640D01*
X83418258Y-59121741D01*
X83398058Y-59113228D01*
X83335859Y-59072912D01*
X83335853Y-59072909D01*
X83332119Y-59070489D01*
X83199539Y-59030839D01*
X83130350Y-59030417D01*
X83065613Y-59030021D01*
X83065612Y-59030021D01*
X83061160Y-59029994D01*
X82928105Y-59068021D01*
X82811071Y-59141864D01*
X82808128Y-59145196D01*
X82808126Y-59145198D01*
X82745216Y-59216431D01*
X82719467Y-59245586D01*
X82717575Y-59249616D01*
X82662548Y-59366818D01*
X82662547Y-59366821D01*
X82660656Y-59370849D01*
X82639366Y-59507583D01*
X82657309Y-59644797D01*
X82659102Y-59648872D01*
X82698005Y-59737285D01*
X82713042Y-59771460D01*
X82715906Y-59774867D01*
X82789516Y-59862437D01*
X82803940Y-59908046D01*
X82785867Y-59946847D01*
X82758720Y-59973994D01*
X82714526Y-59992300D01*
X81870800Y-59992300D01*
X81826606Y-59973994D01*
X81808300Y-59929800D01*
X81808300Y-59748138D01*
X81809250Y-59737285D01*
X81809320Y-59736891D01*
X81813206Y-59714850D01*
X81810783Y-59701110D01*
X81810230Y-59697275D01*
X81797010Y-59579948D01*
X81797010Y-59579946D01*
X81796617Y-59576462D01*
X81750622Y-59445013D01*
X81676529Y-59327095D01*
X81578055Y-59228621D01*
X81460137Y-59154528D01*
X81328688Y-59108533D01*
X81325204Y-59108140D01*
X81325202Y-59108140D01*
X81207875Y-59094920D01*
X81204040Y-59094367D01*
X81190300Y-59091944D01*
X81176560Y-59094367D01*
X81172725Y-59094920D01*
X81055398Y-59108140D01*
X81055396Y-59108140D01*
X81051912Y-59108533D01*
X80920463Y-59154528D01*
X80802545Y-59228621D01*
X80704071Y-59327095D01*
X80629978Y-59445013D01*
X80583983Y-59576462D01*
X80583590Y-59579946D01*
X80583590Y-59579948D01*
X80570370Y-59697275D01*
X80569817Y-59701110D01*
X80567394Y-59714850D01*
X80571281Y-59736891D01*
X80571350Y-59737285D01*
X80572300Y-59748138D01*
X80572300Y-59929800D01*
X80553994Y-59973994D01*
X80509800Y-59992300D01*
X79892909Y-59992300D01*
X79848715Y-59973994D01*
X79611612Y-59736891D01*
X79607928Y-59732871D01*
X79601669Y-59725412D01*
X79582561Y-59702640D01*
X79577828Y-59699907D01*
X79577825Y-59699905D01*
X79548391Y-59682912D01*
X79543797Y-59679986D01*
X79511467Y-59657348D01*
X79506191Y-59655934D01*
X79506190Y-59655934D01*
X79505966Y-59655874D01*
X79505695Y-59655801D01*
X79490613Y-59649554D01*
X79485441Y-59646568D01*
X79446581Y-59639716D01*
X79441259Y-59638536D01*
X79403144Y-59628323D01*
X79366381Y-59631539D01*
X79363836Y-59631762D01*
X79358389Y-59632000D01*
X79348538Y-59632000D01*
X79304344Y-59613694D01*
X79286038Y-59569500D01*
X79298525Y-59532017D01*
X79322501Y-59500026D01*
X79326736Y-59492291D01*
X79374877Y-59363875D01*
X79376675Y-59356311D01*
X79382817Y-59299770D01*
X79383000Y-59296402D01*
X79383000Y-59216431D01*
X79379359Y-59207641D01*
X79370569Y-59204000D01*
X76379432Y-59204000D01*
X76370642Y-59207641D01*
X76367001Y-59216431D01*
X76367001Y-59296396D01*
X76367183Y-59299766D01*
X76373325Y-59356310D01*
X76375124Y-59363878D01*
X76423264Y-59492291D01*
X76427499Y-59500026D01*
X76509428Y-59609344D01*
X76515656Y-59615572D01*
X76595483Y-59675399D01*
X76619869Y-59716552D01*
X76620500Y-59725412D01*
X76620501Y-60023887D01*
X76620501Y-60275066D01*
X76621100Y-60278075D01*
X76621100Y-60278080D01*
X76629101Y-60318307D01*
X76635266Y-60349301D01*
X76655281Y-60379256D01*
X76679350Y-60415277D01*
X76688682Y-60462193D01*
X76679350Y-60484723D01*
X76635266Y-60550699D01*
X76634065Y-60556738D01*
X76622736Y-60613694D01*
X76620500Y-60624933D01*
X76620501Y-60948261D01*
X76620501Y-61174587D01*
X76602195Y-61218781D01*
X76595484Y-61224600D01*
X76515656Y-61284428D01*
X76509428Y-61290656D01*
X76427499Y-61399974D01*
X76423264Y-61407709D01*
X76375123Y-61536125D01*
X76373325Y-61543689D01*
X76367183Y-61600230D01*
X76367000Y-61603598D01*
X76367000Y-61683569D01*
X76370641Y-61692359D01*
X76379431Y-61696000D01*
X78066500Y-61696000D01*
X78110694Y-61714306D01*
X78129000Y-61758500D01*
X78129000Y-62683569D01*
X78132641Y-62692359D01*
X78141431Y-62696000D01*
X79370568Y-62696000D01*
X79379358Y-62692359D01*
X79382999Y-62683569D01*
X79382999Y-62603604D01*
X79382817Y-62600234D01*
X79376675Y-62543690D01*
X79374876Y-62536121D01*
X79350815Y-62471939D01*
X79350815Y-62428061D01*
X79374877Y-62363875D01*
X79376675Y-62356311D01*
X79382817Y-62299770D01*
X79383000Y-62296402D01*
X79383000Y-62011287D01*
X79401306Y-61967093D01*
X79445500Y-61948787D01*
X79489694Y-61967093D01*
X79493337Y-61971065D01*
X79559160Y-62049370D01*
X79562865Y-62051836D01*
X79562867Y-62051838D01*
X79654916Y-62113111D01*
X79674354Y-62126050D01*
X79806440Y-62167317D01*
X79810890Y-62167399D01*
X79810893Y-62167399D01*
X79940352Y-62169771D01*
X79940355Y-62169771D01*
X79944799Y-62169852D01*
X80073069Y-62134882D01*
X80120521Y-62140919D01*
X80133701Y-62150987D01*
X81383994Y-63401280D01*
X81402300Y-63445474D01*
X81402300Y-63449500D01*
X81383994Y-63493694D01*
X81339800Y-63512000D01*
X81141635Y-63512000D01*
X81130782Y-63511050D01*
X81125605Y-63510137D01*
X81108347Y-63507094D01*
X81094762Y-63509490D01*
X81090053Y-63510136D01*
X81037877Y-63515275D01*
X80962863Y-63522662D01*
X80962859Y-63522663D01*
X80959811Y-63522963D01*
X80816984Y-63566289D01*
X80810977Y-63569500D01*
X80688066Y-63635197D01*
X80688063Y-63635199D01*
X80685354Y-63636647D01*
X80569979Y-63731333D01*
X80568034Y-63733703D01*
X80520129Y-63792075D01*
X80477942Y-63814624D01*
X80432166Y-63800738D01*
X80424476Y-63793231D01*
X80410844Y-63777410D01*
X80294721Y-63702143D01*
X80162141Y-63662493D01*
X80092951Y-63662070D01*
X80028215Y-63661675D01*
X80028214Y-63661675D01*
X80023762Y-63661648D01*
X79890707Y-63699675D01*
X79773673Y-63773518D01*
X79770730Y-63776850D01*
X79770728Y-63776852D01*
X79758866Y-63790284D01*
X79715890Y-63811291D01*
X79667826Y-63793105D01*
X79611612Y-63736891D01*
X79607928Y-63732871D01*
X79586075Y-63706828D01*
X79586076Y-63706828D01*
X79582561Y-63702640D01*
X79577828Y-63699907D01*
X79577825Y-63699905D01*
X79548391Y-63682912D01*
X79543797Y-63679986D01*
X79511467Y-63657348D01*
X79506191Y-63655934D01*
X79506190Y-63655934D01*
X79505966Y-63655874D01*
X79505695Y-63655801D01*
X79490613Y-63649554D01*
X79485441Y-63646568D01*
X79446581Y-63639716D01*
X79441259Y-63638536D01*
X79434209Y-63636647D01*
X79403144Y-63628323D01*
X79366381Y-63631539D01*
X79363836Y-63631762D01*
X79358389Y-63632000D01*
X79348538Y-63632000D01*
X79304344Y-63613694D01*
X79286038Y-63569500D01*
X79298525Y-63532017D01*
X79322501Y-63500026D01*
X79326736Y-63492291D01*
X79374877Y-63363875D01*
X79376675Y-63356311D01*
X79382817Y-63299770D01*
X79383000Y-63296402D01*
X79383000Y-63216431D01*
X79379359Y-63207641D01*
X79370569Y-63204000D01*
X76379432Y-63204000D01*
X76370642Y-63207641D01*
X76367001Y-63216431D01*
X76367001Y-63296396D01*
X76367183Y-63299766D01*
X76373325Y-63356310D01*
X76375124Y-63363878D01*
X76423264Y-63492291D01*
X76427499Y-63500026D01*
X76509428Y-63609344D01*
X76515656Y-63615572D01*
X76595483Y-63675399D01*
X76619869Y-63716552D01*
X76620500Y-63725412D01*
X76620501Y-64019401D01*
X76620501Y-64275066D01*
X76621100Y-64278075D01*
X76621100Y-64278080D01*
X76629101Y-64318307D01*
X76635266Y-64349301D01*
X76655281Y-64379256D01*
X76679350Y-64415277D01*
X76688682Y-64462193D01*
X76679350Y-64484723D01*
X76635266Y-64550699D01*
X76634065Y-64556738D01*
X76622736Y-64613694D01*
X76620500Y-64624933D01*
X76620501Y-64931333D01*
X76620501Y-65174587D01*
X76602195Y-65218781D01*
X76595484Y-65224600D01*
X76515656Y-65284428D01*
X76509428Y-65290656D01*
X76427499Y-65399974D01*
X76423264Y-65407709D01*
X76375123Y-65536125D01*
X76373325Y-65543689D01*
X76367183Y-65600230D01*
X76367000Y-65603598D01*
X76367000Y-65683569D01*
X76370641Y-65692359D01*
X76379431Y-65696000D01*
X79370568Y-65696000D01*
X79379358Y-65692359D01*
X79382999Y-65683569D01*
X79382999Y-65603604D01*
X79382817Y-65600234D01*
X79376675Y-65543690D01*
X79374876Y-65536122D01*
X79326736Y-65407709D01*
X79322501Y-65399974D01*
X79298525Y-65367983D01*
X79286669Y-65321640D01*
X79311055Y-65280487D01*
X79348538Y-65268000D01*
X79358389Y-65268000D01*
X79363837Y-65268238D01*
X79403144Y-65271677D01*
X79441260Y-65261464D01*
X79446582Y-65260284D01*
X79480053Y-65254382D01*
X79485441Y-65253432D01*
X79490613Y-65250446D01*
X79505695Y-65244199D01*
X79505966Y-65244126D01*
X79506190Y-65244066D01*
X79506191Y-65244066D01*
X79511467Y-65242652D01*
X79518177Y-65237954D01*
X79527538Y-65231399D01*
X79543797Y-65220014D01*
X79548391Y-65217088D01*
X79577825Y-65200095D01*
X79577828Y-65200093D01*
X79582561Y-65197360D01*
X79607928Y-65167129D01*
X79611612Y-65163109D01*
X79666898Y-65107823D01*
X79711092Y-65089517D01*
X79755286Y-65107823D01*
X79758932Y-65111798D01*
X79761820Y-65115233D01*
X79761822Y-65115235D01*
X79764687Y-65118643D01*
X79768392Y-65121109D01*
X79768394Y-65121111D01*
X79782227Y-65130319D01*
X79879881Y-65195323D01*
X80011967Y-65236590D01*
X80016417Y-65236672D01*
X80016420Y-65236672D01*
X80145879Y-65239044D01*
X80145882Y-65239044D01*
X80150326Y-65239125D01*
X80231158Y-65217088D01*
X80279537Y-65203899D01*
X80279539Y-65203898D01*
X80283835Y-65202727D01*
X80287632Y-65200395D01*
X80291173Y-65198863D01*
X80339002Y-65198110D01*
X80373355Y-65231399D01*
X80375805Y-65274364D01*
X80363499Y-65314934D01*
X80361609Y-65321165D01*
X80361309Y-65324213D01*
X80361308Y-65324217D01*
X80348784Y-65451390D01*
X80348135Y-65456116D01*
X80345740Y-65469699D01*
X80345740Y-65469701D01*
X80346214Y-65472388D01*
X80346214Y-65472390D01*
X80348135Y-65483281D01*
X80348784Y-65488010D01*
X80359836Y-65600230D01*
X80361609Y-65618235D01*
X80404935Y-65761062D01*
X80475293Y-65892692D01*
X80569979Y-66008067D01*
X80685354Y-66102753D01*
X80688063Y-66104201D01*
X80688066Y-66104203D01*
X80751169Y-66137932D01*
X80816984Y-66173111D01*
X80959811Y-66216437D01*
X80962859Y-66216737D01*
X80962863Y-66216738D01*
X81037877Y-66224125D01*
X81090053Y-66229264D01*
X81094762Y-66229910D01*
X81108347Y-66232306D01*
X81130783Y-66228350D01*
X81141635Y-66227400D01*
X81339800Y-66227400D01*
X81383994Y-66245706D01*
X81402300Y-66289900D01*
X81402300Y-68244526D01*
X81383994Y-68288720D01*
X81109466Y-68563248D01*
X81065272Y-68581554D01*
X80983776Y-68581554D01*
X80939582Y-68563248D01*
X80846006Y-68469672D01*
X80827700Y-68425478D01*
X80827700Y-67788746D01*
X80827938Y-67783299D01*
X80830900Y-67749438D01*
X80831377Y-67743991D01*
X80821164Y-67705875D01*
X80819984Y-67700553D01*
X80814082Y-67667082D01*
X80813132Y-67661694D01*
X80810146Y-67656522D01*
X80803898Y-67641439D01*
X80803766Y-67640945D01*
X80803766Y-67640944D01*
X80802352Y-67635668D01*
X80779714Y-67603338D01*
X80776788Y-67598744D01*
X80759795Y-67569310D01*
X80759793Y-67569307D01*
X80757060Y-67564574D01*
X80726829Y-67539207D01*
X80722809Y-67535523D01*
X80284477Y-67097191D01*
X80280793Y-67093171D01*
X80258940Y-67067128D01*
X80258941Y-67067128D01*
X80255426Y-67062940D01*
X80250693Y-67060207D01*
X80250690Y-67060205D01*
X80221256Y-67043212D01*
X80216662Y-67040286D01*
X80184332Y-67017648D01*
X80179056Y-67016234D01*
X80179055Y-67016234D01*
X80178831Y-67016174D01*
X80178560Y-67016101D01*
X80163478Y-67009854D01*
X80158306Y-67006868D01*
X80119446Y-67000016D01*
X80114124Y-66998836D01*
X80076009Y-66988623D01*
X80039246Y-66991839D01*
X80036701Y-66992062D01*
X80031254Y-66992300D01*
X79892909Y-66992300D01*
X79848715Y-66973994D01*
X79611612Y-66736891D01*
X79607928Y-66732871D01*
X79586075Y-66706828D01*
X79586076Y-66706828D01*
X79582561Y-66702640D01*
X79577828Y-66699907D01*
X79577825Y-66699905D01*
X79548391Y-66682912D01*
X79543797Y-66679986D01*
X79511467Y-66657348D01*
X79506191Y-66655934D01*
X79506190Y-66655934D01*
X79505966Y-66655874D01*
X79505695Y-66655801D01*
X79490613Y-66649554D01*
X79485441Y-66646568D01*
X79446581Y-66639716D01*
X79441259Y-66638536D01*
X79403144Y-66628323D01*
X79366381Y-66631539D01*
X79363836Y-66631762D01*
X79358389Y-66632000D01*
X79348538Y-66632000D01*
X79304344Y-66613694D01*
X79286038Y-66569500D01*
X79298525Y-66532017D01*
X79322501Y-66500026D01*
X79326736Y-66492291D01*
X79374877Y-66363875D01*
X79376675Y-66356311D01*
X79382817Y-66299770D01*
X79383000Y-66296402D01*
X79383000Y-66216431D01*
X79379359Y-66207641D01*
X79370569Y-66204000D01*
X76379432Y-66204000D01*
X76370642Y-66207641D01*
X76367001Y-66216431D01*
X76367001Y-66296396D01*
X76367183Y-66299766D01*
X76373325Y-66356310D01*
X76375124Y-66363878D01*
X76423264Y-66492291D01*
X76427499Y-66500026D01*
X76509428Y-66609344D01*
X76515656Y-66615572D01*
X76595483Y-66675399D01*
X76619869Y-66716552D01*
X76620500Y-66725412D01*
X76620501Y-66998836D01*
X76620501Y-67275066D01*
X76621100Y-67278075D01*
X76621100Y-67278080D01*
X76629101Y-67318307D01*
X76635266Y-67349301D01*
X76655281Y-67379256D01*
X76679350Y-67415277D01*
X76688682Y-67462193D01*
X76679350Y-67484723D01*
X76642945Y-67539207D01*
X76635266Y-67550699D01*
X76634065Y-67556738D01*
X76622736Y-67613694D01*
X76620500Y-67624933D01*
X76620501Y-67941004D01*
X76620501Y-68174587D01*
X76602195Y-68218781D01*
X76595484Y-68224600D01*
X76515656Y-68284428D01*
X76509428Y-68290656D01*
X76427499Y-68399974D01*
X76423264Y-68407709D01*
X76375123Y-68536125D01*
X76373325Y-68543689D01*
X76367183Y-68600230D01*
X76367000Y-68603598D01*
X76367000Y-68683569D01*
X76370641Y-68692359D01*
X76379431Y-68696000D01*
X79370568Y-68696000D01*
X79379358Y-68692359D01*
X79382999Y-68683569D01*
X79382999Y-68603604D01*
X79382817Y-68600234D01*
X79376675Y-68543690D01*
X79374876Y-68536122D01*
X79326736Y-68407709D01*
X79322501Y-68399974D01*
X79298525Y-68367983D01*
X79286669Y-68321640D01*
X79311055Y-68280487D01*
X79348538Y-68268000D01*
X79358389Y-68268000D01*
X79363837Y-68268238D01*
X79403144Y-68271677D01*
X79441260Y-68261464D01*
X79446582Y-68260284D01*
X79480053Y-68254382D01*
X79485441Y-68253432D01*
X79490613Y-68250446D01*
X79505695Y-68244199D01*
X79505966Y-68244126D01*
X79506190Y-68244066D01*
X79506191Y-68244066D01*
X79511467Y-68242652D01*
X79543797Y-68220014D01*
X79548391Y-68217088D01*
X79577825Y-68200095D01*
X79577828Y-68200093D01*
X79582561Y-68197360D01*
X79607928Y-68167129D01*
X79611612Y-68163109D01*
X79789524Y-67985198D01*
X79833718Y-67966892D01*
X79877912Y-67985198D01*
X79893994Y-68001280D01*
X79912300Y-68045474D01*
X79912300Y-68682206D01*
X79912062Y-68687653D01*
X79908623Y-68726961D01*
X79910039Y-68732244D01*
X79918836Y-68765076D01*
X79920016Y-68770398D01*
X79926868Y-68809258D01*
X79929602Y-68813993D01*
X79929853Y-68814427D01*
X79936101Y-68829512D01*
X79937648Y-68835284D01*
X79956775Y-68862599D01*
X79960282Y-68867608D01*
X79963212Y-68872208D01*
X79980205Y-68901642D01*
X79980207Y-68901645D01*
X79982940Y-68906378D01*
X79987128Y-68909892D01*
X80013171Y-68931745D01*
X80017191Y-68935429D01*
X80473825Y-69392063D01*
X80477509Y-69396083D01*
X80502876Y-69426314D01*
X80507609Y-69429047D01*
X80507612Y-69429049D01*
X80537046Y-69446042D01*
X80541640Y-69448968D01*
X80573970Y-69471606D01*
X80579246Y-69473020D01*
X80579247Y-69473020D01*
X80579471Y-69473080D01*
X80579742Y-69473153D01*
X80594824Y-69479400D01*
X80599996Y-69482386D01*
X80605384Y-69483336D01*
X80638855Y-69489238D01*
X80644177Y-69490418D01*
X80682293Y-69500631D01*
X80721600Y-69497192D01*
X80727048Y-69496954D01*
X81322000Y-69496954D01*
X81327448Y-69497192D01*
X81366755Y-69500631D01*
X81404871Y-69490418D01*
X81410193Y-69489238D01*
X81443664Y-69483336D01*
X81449052Y-69482386D01*
X81454224Y-69479400D01*
X81469306Y-69473153D01*
X81469577Y-69473080D01*
X81469801Y-69473020D01*
X81469802Y-69473020D01*
X81475078Y-69471606D01*
X81507408Y-69448968D01*
X81512002Y-69446042D01*
X81541436Y-69429049D01*
X81541439Y-69429047D01*
X81546172Y-69426314D01*
X81571539Y-69396083D01*
X81575223Y-69392063D01*
X82212809Y-68754477D01*
X82216829Y-68750793D01*
X82242872Y-68728940D01*
X82247060Y-68725426D01*
X82249793Y-68720693D01*
X82249795Y-68720690D01*
X82266788Y-68691256D01*
X82269718Y-68686656D01*
X82270925Y-68684933D01*
X82292352Y-68654332D01*
X82293899Y-68648560D01*
X82300147Y-68633475D01*
X82300398Y-68633041D01*
X82303132Y-68628306D01*
X82309984Y-68589446D01*
X82311164Y-68584124D01*
X82319961Y-68551292D01*
X82321377Y-68546009D01*
X82317938Y-68506696D01*
X82317700Y-68501250D01*
X82317700Y-66102989D01*
X82318650Y-66092136D01*
X82321656Y-66075089D01*
X82322606Y-66069701D01*
X82320210Y-66056116D01*
X82319563Y-66051399D01*
X82307038Y-65924217D01*
X82307037Y-65924213D01*
X82306737Y-65921165D01*
X82263411Y-65778338D01*
X82232228Y-65719999D01*
X82227539Y-65672394D01*
X82257886Y-65635417D01*
X82281222Y-65628338D01*
X82392530Y-65617375D01*
X82392534Y-65617374D01*
X82395582Y-65617074D01*
X82530111Y-65576265D01*
X82575164Y-65552184D01*
X82602265Y-65537698D01*
X82649870Y-65533009D01*
X82686847Y-65563356D01*
X82694227Y-65592818D01*
X82694227Y-68862599D01*
X82675921Y-68906793D01*
X81608720Y-69973994D01*
X81564526Y-69992300D01*
X79892909Y-69992300D01*
X79848715Y-69973994D01*
X79611612Y-69736891D01*
X79607928Y-69732871D01*
X79586075Y-69706828D01*
X79586076Y-69706828D01*
X79582561Y-69702640D01*
X79577828Y-69699907D01*
X79577825Y-69699905D01*
X79548391Y-69682912D01*
X79543797Y-69679986D01*
X79511467Y-69657348D01*
X79506191Y-69655934D01*
X79506190Y-69655934D01*
X79505966Y-69655874D01*
X79505695Y-69655801D01*
X79490613Y-69649554D01*
X79485441Y-69646568D01*
X79446581Y-69639716D01*
X79441259Y-69638536D01*
X79403144Y-69628323D01*
X79366381Y-69631539D01*
X79363836Y-69631762D01*
X79358389Y-69632000D01*
X79348538Y-69632000D01*
X79304344Y-69613694D01*
X79286038Y-69569500D01*
X79298525Y-69532017D01*
X79322501Y-69500026D01*
X79326736Y-69492291D01*
X79374877Y-69363875D01*
X79376675Y-69356311D01*
X79382817Y-69299770D01*
X79383000Y-69296402D01*
X79383000Y-69216431D01*
X79379359Y-69207641D01*
X79370569Y-69204000D01*
X76379432Y-69204000D01*
X76370642Y-69207641D01*
X76367001Y-69216431D01*
X76367001Y-69296396D01*
X76367183Y-69299766D01*
X76373325Y-69356310D01*
X76375124Y-69363878D01*
X76423264Y-69492291D01*
X76427499Y-69500026D01*
X76509428Y-69609344D01*
X76515656Y-69615572D01*
X76595483Y-69675399D01*
X76619869Y-69716552D01*
X76620500Y-69725412D01*
X76620501Y-70255785D01*
X76620501Y-70275066D01*
X76621100Y-70278075D01*
X76621100Y-70278080D01*
X76629101Y-70318307D01*
X76635266Y-70349301D01*
X76655281Y-70379256D01*
X76679350Y-70415277D01*
X76688682Y-70462193D01*
X76679350Y-70484723D01*
X76635266Y-70550699D01*
X76634065Y-70556738D01*
X76622736Y-70613694D01*
X76620500Y-70624933D01*
X76620501Y-70926006D01*
X76620501Y-71174587D01*
X76602195Y-71218781D01*
X76595484Y-71224600D01*
X76515656Y-71284428D01*
X76509428Y-71290656D01*
X76427499Y-71399974D01*
X76423264Y-71407709D01*
X76375123Y-71536125D01*
X76373325Y-71543689D01*
X76367183Y-71600230D01*
X76367000Y-71603598D01*
X76367000Y-71683569D01*
X76370641Y-71692359D01*
X76379431Y-71696000D01*
X78066500Y-71696000D01*
X78110694Y-71714306D01*
X78129000Y-71758500D01*
X78129000Y-72141500D01*
X78110694Y-72185694D01*
X78066500Y-72204000D01*
X76379432Y-72204000D01*
X76370642Y-72207641D01*
X76367001Y-72216431D01*
X76367001Y-72296396D01*
X76367183Y-72299766D01*
X76373325Y-72356310D01*
X76375124Y-72363878D01*
X76423264Y-72492291D01*
X76427499Y-72500026D01*
X76509428Y-72609344D01*
X76515656Y-72615572D01*
X76595483Y-72675399D01*
X76619869Y-72716552D01*
X76620500Y-72725412D01*
X76620501Y-73023755D01*
X76620501Y-73275066D01*
X76621100Y-73278075D01*
X76621100Y-73278080D01*
X76626861Y-73307043D01*
X76635266Y-73349301D01*
X76638686Y-73354419D01*
X76679350Y-73415277D01*
X76688682Y-73462193D01*
X76679350Y-73484723D01*
X76635266Y-73550699D01*
X76620500Y-73624933D01*
X76620501Y-74275066D01*
X76635266Y-74349301D01*
X76650720Y-74372429D01*
X76679350Y-74415277D01*
X76688682Y-74462193D01*
X76679350Y-74484723D01*
X76664782Y-74506526D01*
X76635266Y-74550699D01*
X76620500Y-74624933D01*
X76620501Y-75275066D01*
X76621100Y-75278075D01*
X76621100Y-75278080D01*
X76631843Y-75332091D01*
X76635266Y-75349301D01*
X76650733Y-75372449D01*
X76679350Y-75415277D01*
X76688682Y-75462193D01*
X76679350Y-75484723D01*
X76635266Y-75550699D01*
X76634065Y-75556738D01*
X76624147Y-75606600D01*
X76620500Y-75624933D01*
X76620501Y-76275066D01*
X76621100Y-76278075D01*
X76621100Y-76278080D01*
X76624842Y-76296893D01*
X76635266Y-76349301D01*
X76639299Y-76355337D01*
X76679350Y-76415277D01*
X76688682Y-76462193D01*
X76679350Y-76484723D01*
X76640344Y-76543100D01*
X76635266Y-76550699D01*
X76620500Y-76624933D01*
X76620501Y-76874890D01*
X76620501Y-77079500D01*
X76602195Y-77123694D01*
X76558001Y-77142000D01*
X76041431Y-77142000D01*
X76032641Y-77145641D01*
X76029000Y-77154431D01*
X76029000Y-77683569D01*
X76032641Y-77692359D01*
X76041431Y-77696000D01*
X78370568Y-77696000D01*
X78379358Y-77692359D01*
X78382999Y-77683569D01*
X78382999Y-77603604D01*
X78382817Y-77600234D01*
X78379940Y-77573748D01*
X78393367Y-77527835D01*
X78435326Y-77504864D01*
X78442071Y-77504499D01*
X78900066Y-77504499D01*
X78903075Y-77503900D01*
X78903080Y-77503900D01*
X78968263Y-77490935D01*
X78974301Y-77489734D01*
X79058484Y-77433484D01*
X79091096Y-77384677D01*
X79130870Y-77358101D01*
X79143063Y-77356900D01*
X79490631Y-77356900D01*
X79520453Y-77364474D01*
X79576076Y-77394675D01*
X79643758Y-77431423D01*
X79647403Y-77432379D01*
X79647405Y-77432380D01*
X79782944Y-77467938D01*
X79786592Y-77468895D01*
X79865601Y-77470136D01*
X79930472Y-77471155D01*
X79930474Y-77471155D01*
X79934241Y-77471214D01*
X80078182Y-77438247D01*
X80081546Y-77436555D01*
X80081549Y-77436554D01*
X80184695Y-77384677D01*
X80210104Y-77371898D01*
X80212969Y-77369451D01*
X80212972Y-77369449D01*
X80319529Y-77278440D01*
X80319532Y-77278437D01*
X80322391Y-77275995D01*
X80324586Y-77272940D01*
X80324589Y-77272937D01*
X80406361Y-77159139D01*
X80406362Y-77159137D01*
X80408561Y-77156077D01*
X80463640Y-77019065D01*
X80484446Y-76872871D01*
X80484581Y-76860000D01*
X80466841Y-76713402D01*
X80414644Y-76575267D01*
X80331004Y-76453570D01*
X80220750Y-76355337D01*
X80090246Y-76286239D01*
X79947027Y-76250265D01*
X79943262Y-76250245D01*
X79943260Y-76250245D01*
X79870479Y-76249864D01*
X79799362Y-76249492D01*
X79795698Y-76250372D01*
X79795695Y-76250372D01*
X79668478Y-76280914D01*
X79621232Y-76273431D01*
X79593115Y-76234731D01*
X79600598Y-76187485D01*
X79609694Y-76175947D01*
X80340289Y-75445351D01*
X80344309Y-75441667D01*
X80372928Y-75417653D01*
X80377117Y-75414138D01*
X80398535Y-75377041D01*
X80401460Y-75372449D01*
X80422892Y-75341842D01*
X80422892Y-75341841D01*
X80426026Y-75337366D01*
X80427867Y-75330496D01*
X80434110Y-75315423D01*
X80437668Y-75309261D01*
X80445108Y-75267071D01*
X80446282Y-75261773D01*
X80457370Y-75220391D01*
X80453638Y-75177735D01*
X80453400Y-75172288D01*
X80453400Y-73934652D01*
X80469563Y-73892710D01*
X80511640Y-73846224D01*
X80514627Y-73842924D01*
X80574964Y-73718389D01*
X80577848Y-73701251D01*
X80597522Y-73584301D01*
X80597922Y-73581925D01*
X80598068Y-73570000D01*
X80578450Y-73433016D01*
X80521174Y-73307043D01*
X80430844Y-73202210D01*
X80314721Y-73126943D01*
X80182141Y-73087293D01*
X80074508Y-73086636D01*
X80030428Y-73068061D01*
X80012392Y-73023755D01*
X80030697Y-72979943D01*
X80048934Y-72961706D01*
X80093128Y-72943400D01*
X81208903Y-72943400D01*
X81250559Y-72959306D01*
X81251824Y-72960437D01*
X81254687Y-72963843D01*
X81258392Y-72966309D01*
X81258394Y-72966311D01*
X81344691Y-73023755D01*
X81369881Y-73040523D01*
X81501967Y-73081790D01*
X81506417Y-73081872D01*
X81506420Y-73081872D01*
X81635879Y-73084244D01*
X81635882Y-73084244D01*
X81640326Y-73084325D01*
X81699983Y-73068061D01*
X81769534Y-73049100D01*
X81769537Y-73049099D01*
X81773835Y-73047927D01*
X81777631Y-73045596D01*
X81777634Y-73045595D01*
X81887964Y-72977851D01*
X81891762Y-72975519D01*
X81984627Y-72872924D01*
X82044964Y-72748389D01*
X82057244Y-72675399D01*
X82059253Y-72663452D01*
X82067922Y-72611925D01*
X82068068Y-72600000D01*
X82048450Y-72463016D01*
X81991174Y-72337043D01*
X81900844Y-72232210D01*
X81784721Y-72156943D01*
X81652141Y-72117293D01*
X81610017Y-72117036D01*
X81565935Y-72098461D01*
X81548529Y-72063397D01*
X81539081Y-71997425D01*
X81538450Y-71993016D01*
X81481174Y-71867043D01*
X81390844Y-71762210D01*
X81274721Y-71686943D01*
X81142141Y-71647293D01*
X81072951Y-71646870D01*
X81008215Y-71646475D01*
X81008214Y-71646475D01*
X81003762Y-71646448D01*
X80870707Y-71684475D01*
X80753673Y-71758318D01*
X80750730Y-71761650D01*
X80750728Y-71761652D01*
X80747354Y-71765473D01*
X80700508Y-71786600D01*
X79787712Y-71786600D01*
X79782265Y-71786362D01*
X79779867Y-71786152D01*
X79739609Y-71782630D01*
X79698227Y-71793718D01*
X79692929Y-71794892D01*
X79650739Y-71802332D01*
X79644577Y-71805890D01*
X79629504Y-71812133D01*
X79622634Y-71813974D01*
X79618156Y-71817110D01*
X79618155Y-71817110D01*
X79587546Y-71838542D01*
X79582952Y-71841469D01*
X79545862Y-71862883D01*
X79542347Y-71867073D01*
X79542346Y-71867073D01*
X79518336Y-71895687D01*
X79514652Y-71899707D01*
X79489694Y-71924665D01*
X79445500Y-71942971D01*
X79401306Y-71924665D01*
X79383000Y-71880471D01*
X79382999Y-71603604D01*
X79382817Y-71600234D01*
X79376675Y-71543690D01*
X79374876Y-71536122D01*
X79326736Y-71407709D01*
X79322501Y-71399974D01*
X79298525Y-71367983D01*
X79286669Y-71321640D01*
X79311055Y-71280487D01*
X79348538Y-71268000D01*
X79358389Y-71268000D01*
X79363837Y-71268238D01*
X79403144Y-71271677D01*
X79441260Y-71261464D01*
X79446582Y-71260284D01*
X79480053Y-71254382D01*
X79485441Y-71253432D01*
X79490613Y-71250446D01*
X79505695Y-71244199D01*
X79505966Y-71244126D01*
X79506190Y-71244066D01*
X79506191Y-71244066D01*
X79511467Y-71242652D01*
X79543797Y-71220014D01*
X79548391Y-71217088D01*
X79577825Y-71200095D01*
X79577828Y-71200093D01*
X79582561Y-71197360D01*
X79607928Y-71167129D01*
X79611612Y-71163109D01*
X79848715Y-70926006D01*
X79892909Y-70907700D01*
X81821254Y-70907700D01*
X81826702Y-70907938D01*
X81866009Y-70911377D01*
X81904125Y-70901164D01*
X81909447Y-70899984D01*
X81942918Y-70894082D01*
X81948306Y-70893132D01*
X81953478Y-70890146D01*
X81968560Y-70883899D01*
X81968831Y-70883826D01*
X81969055Y-70883766D01*
X81969056Y-70883766D01*
X81974332Y-70882352D01*
X82006662Y-70859714D01*
X82011256Y-70856788D01*
X82040690Y-70839795D01*
X82040693Y-70839793D01*
X82045426Y-70837060D01*
X82070793Y-70806829D01*
X82074477Y-70802809D01*
X83504736Y-69372550D01*
X83508756Y-69368866D01*
X83523718Y-69356311D01*
X83538987Y-69343499D01*
X83541720Y-69338766D01*
X83541722Y-69338763D01*
X83558715Y-69309329D01*
X83561645Y-69304729D01*
X83565118Y-69299770D01*
X83584279Y-69272405D01*
X83585826Y-69266633D01*
X83592074Y-69251548D01*
X83592325Y-69251114D01*
X83595059Y-69246379D01*
X83601911Y-69207519D01*
X83603091Y-69202197D01*
X83611888Y-69169365D01*
X83613304Y-69164082D01*
X83609865Y-69124769D01*
X83609627Y-69119323D01*
X83609627Y-62379907D01*
X83627933Y-62335713D01*
X83646897Y-62322825D01*
X83650562Y-62321826D01*
X83768489Y-62249418D01*
X83861354Y-62146823D01*
X83921691Y-62022288D01*
X83924575Y-62005150D01*
X83944249Y-61888200D01*
X83944649Y-61885824D01*
X83944795Y-61873899D01*
X83925177Y-61736915D01*
X83867901Y-61610942D01*
X83777571Y-61506109D01*
X83661448Y-61430842D01*
X83528868Y-61391192D01*
X83459679Y-61390770D01*
X83394942Y-61390374D01*
X83394941Y-61390374D01*
X83390489Y-61390347D01*
X83257434Y-61428374D01*
X83220425Y-61451725D01*
X83185132Y-61473993D01*
X83137987Y-61482094D01*
X83117787Y-61473581D01*
X83055588Y-61433265D01*
X83055582Y-61433262D01*
X83051848Y-61430842D01*
X82919268Y-61391192D01*
X82850079Y-61390770D01*
X82785342Y-61390374D01*
X82785341Y-61390374D01*
X82780889Y-61390347D01*
X82647834Y-61428374D01*
X82530800Y-61502217D01*
X82527857Y-61505549D01*
X82527855Y-61505551D01*
X82494932Y-61542830D01*
X82439196Y-61605939D01*
X82437304Y-61609969D01*
X82382277Y-61727171D01*
X82382276Y-61727174D01*
X82380385Y-61731202D01*
X82359095Y-61867936D01*
X82359672Y-61872349D01*
X82359672Y-61872350D01*
X82361434Y-61885824D01*
X82377038Y-62005150D01*
X82378831Y-62009225D01*
X82430820Y-62127378D01*
X82432771Y-62131813D01*
X82521814Y-62237742D01*
X82525519Y-62240208D01*
X82525521Y-62240210D01*
X82609928Y-62296396D01*
X82637008Y-62314422D01*
X82650365Y-62318595D01*
X82687089Y-62349247D01*
X82694227Y-62378251D01*
X82694227Y-64146582D01*
X82675921Y-64190776D01*
X82631727Y-64209082D01*
X82602265Y-64201702D01*
X82575164Y-64187216D01*
X82530111Y-64163135D01*
X82395582Y-64122326D01*
X82392534Y-64122026D01*
X82392530Y-64122025D01*
X82281222Y-64111062D01*
X82239035Y-64088512D01*
X82225149Y-64042737D01*
X82232228Y-64019401D01*
X82261961Y-63963774D01*
X82263411Y-63961062D01*
X82306737Y-63818235D01*
X82308461Y-63800738D01*
X82317932Y-63704564D01*
X82319564Y-63687993D01*
X82320212Y-63683272D01*
X82320276Y-63682912D01*
X82322606Y-63669699D01*
X82318650Y-63647263D01*
X82317700Y-63636411D01*
X82317700Y-63188746D01*
X82317938Y-63183299D01*
X82320900Y-63149438D01*
X82321377Y-63143991D01*
X82311162Y-63105869D01*
X82309985Y-63100558D01*
X82304082Y-63067081D01*
X82303132Y-63061694D01*
X82300139Y-63056509D01*
X82293900Y-63041447D01*
X82293766Y-63040948D01*
X82292351Y-63035668D01*
X82269709Y-63003332D01*
X82266790Y-62998749D01*
X82249794Y-62969310D01*
X82247060Y-62964574D01*
X82216829Y-62939207D01*
X82212809Y-62935523D01*
X80779178Y-61501892D01*
X80760872Y-61457698D01*
X80767126Y-61430447D01*
X80780491Y-61402862D01*
X80782455Y-61391192D01*
X80795467Y-61313845D01*
X80803449Y-61266398D01*
X80803510Y-61261464D01*
X80803565Y-61256887D01*
X80803595Y-61254473D01*
X80783977Y-61117489D01*
X80728771Y-60996069D01*
X80727143Y-60948261D01*
X80759797Y-60913305D01*
X80785666Y-60907700D01*
X82971254Y-60907700D01*
X82976702Y-60907938D01*
X83016009Y-60911377D01*
X83054125Y-60901164D01*
X83059447Y-60899984D01*
X83092918Y-60894082D01*
X83098306Y-60893132D01*
X83103478Y-60890146D01*
X83118560Y-60883899D01*
X83118831Y-60883826D01*
X83119055Y-60883766D01*
X83119056Y-60883766D01*
X83124332Y-60882352D01*
X83156662Y-60859714D01*
X83161256Y-60856788D01*
X83190690Y-60839795D01*
X83190693Y-60839793D01*
X83195426Y-60837060D01*
X83220793Y-60806829D01*
X83224477Y-60802809D01*
X83785007Y-60242279D01*
X83789027Y-60238595D01*
X83815070Y-60216742D01*
X83819258Y-60213228D01*
X83821991Y-60208495D01*
X83821993Y-60208492D01*
X83838986Y-60179058D01*
X83841916Y-60174458D01*
X83861416Y-60146610D01*
X83861416Y-60146609D01*
X83864550Y-60142134D01*
X83866097Y-60136362D01*
X83872345Y-60121277D01*
X83872596Y-60120843D01*
X83875330Y-60116108D01*
X83882182Y-60077248D01*
X83883362Y-60071926D01*
X83892159Y-60039094D01*
X83893575Y-60033811D01*
X83892707Y-60023887D01*
X83907092Y-59978266D01*
X83928925Y-59961993D01*
X83930833Y-59961473D01*
X84048760Y-59889065D01*
X84097162Y-59835591D01*
X84140393Y-59815110D01*
X84185442Y-59831196D01*
X84206000Y-59877533D01*
X84206000Y-80673500D01*
X84187694Y-80717694D01*
X84143500Y-80736000D01*
X71546500Y-80736000D01*
X71502306Y-80717694D01*
X71484000Y-80673500D01*
X71484000Y-78216431D01*
X73167001Y-78216431D01*
X73167001Y-78296396D01*
X73167183Y-78299766D01*
X73173325Y-78356310D01*
X73175124Y-78363878D01*
X73223264Y-78492291D01*
X73227499Y-78500026D01*
X73309428Y-78609344D01*
X73315656Y-78615572D01*
X73424974Y-78697501D01*
X73432709Y-78701736D01*
X73561125Y-78749877D01*
X73568689Y-78751675D01*
X73625230Y-78757817D01*
X73628598Y-78758000D01*
X75508569Y-78758000D01*
X75517359Y-78754359D01*
X75521000Y-78745569D01*
X75521000Y-78216431D01*
X76029000Y-78216431D01*
X76029000Y-78745568D01*
X76032641Y-78754358D01*
X76041431Y-78757999D01*
X77921396Y-78757999D01*
X77924766Y-78757817D01*
X77981310Y-78751675D01*
X77988878Y-78749876D01*
X78117291Y-78701736D01*
X78125026Y-78697501D01*
X78234344Y-78615572D01*
X78240572Y-78609344D01*
X78322501Y-78500026D01*
X78326736Y-78492291D01*
X78374877Y-78363875D01*
X78376675Y-78356311D01*
X78382817Y-78299770D01*
X78383000Y-78296402D01*
X78383000Y-78216431D01*
X78379359Y-78207641D01*
X78370569Y-78204000D01*
X76041431Y-78204000D01*
X76032641Y-78207641D01*
X76029000Y-78216431D01*
X75521000Y-78216431D01*
X75517359Y-78207641D01*
X75508569Y-78204000D01*
X73179432Y-78204000D01*
X73170642Y-78207641D01*
X73167001Y-78216431D01*
X71484000Y-78216431D01*
X71484000Y-77603598D01*
X73167000Y-77603598D01*
X73167000Y-77683569D01*
X73170641Y-77692359D01*
X73179431Y-77696000D01*
X75508569Y-77696000D01*
X75517359Y-77692359D01*
X75521000Y-77683569D01*
X75521000Y-77154432D01*
X75517359Y-77145642D01*
X75508569Y-77142001D01*
X73628604Y-77142001D01*
X73625234Y-77142183D01*
X73568690Y-77148325D01*
X73561122Y-77150124D01*
X73432709Y-77198264D01*
X73424974Y-77202499D01*
X73315656Y-77284428D01*
X73309428Y-77290656D01*
X73227499Y-77399974D01*
X73223264Y-77407709D01*
X73175123Y-77536125D01*
X73173325Y-77543689D01*
X73167183Y-77600230D01*
X73167000Y-77603598D01*
X71484000Y-77603598D01*
X71484000Y-62603598D01*
X76367000Y-62603598D01*
X76367000Y-62683569D01*
X76370641Y-62692359D01*
X76379431Y-62696000D01*
X77608569Y-62696000D01*
X77617359Y-62692359D01*
X77621000Y-62683569D01*
X77621000Y-62216431D01*
X77617359Y-62207641D01*
X77608569Y-62204000D01*
X76379432Y-62204000D01*
X76370642Y-62207641D01*
X76367001Y-62216431D01*
X76367001Y-62296396D01*
X76367183Y-62299766D01*
X76373325Y-62356310D01*
X76375124Y-62363879D01*
X76399185Y-62428061D01*
X76399185Y-62471939D01*
X76375123Y-62536125D01*
X76373325Y-62543689D01*
X76367183Y-62600230D01*
X76367000Y-62603598D01*
X71484000Y-62603598D01*
X71484000Y-58603598D01*
X76367000Y-58603598D01*
X76367000Y-58683569D01*
X76370641Y-58692359D01*
X76379431Y-58696000D01*
X79370568Y-58696000D01*
X79379358Y-58692359D01*
X79382999Y-58683569D01*
X79382999Y-58603604D01*
X79382817Y-58600234D01*
X79376675Y-58543690D01*
X79374876Y-58536122D01*
X79326736Y-58407709D01*
X79322501Y-58399974D01*
X79298525Y-58367983D01*
X79286669Y-58321640D01*
X79311055Y-58280487D01*
X79348538Y-58268000D01*
X79358389Y-58268000D01*
X79363837Y-58268238D01*
X79403144Y-58271677D01*
X79441260Y-58261464D01*
X79446582Y-58260284D01*
X79480053Y-58254382D01*
X79485441Y-58253432D01*
X79490613Y-58250446D01*
X79505695Y-58244199D01*
X79505966Y-58244126D01*
X79506190Y-58244066D01*
X79506191Y-58244066D01*
X79511467Y-58242652D01*
X79543797Y-58220014D01*
X79548391Y-58217088D01*
X79577825Y-58200095D01*
X79577828Y-58200093D01*
X79582561Y-58197360D01*
X79607928Y-58167129D01*
X79611612Y-58163109D01*
X79848715Y-57926006D01*
X79892909Y-57907700D01*
X81831254Y-57907700D01*
X81836702Y-57907938D01*
X81876009Y-57911377D01*
X81914125Y-57901164D01*
X81919447Y-57899984D01*
X81952918Y-57894082D01*
X81958306Y-57893132D01*
X81963478Y-57890146D01*
X81978560Y-57883899D01*
X81978831Y-57883826D01*
X81979055Y-57883766D01*
X81979056Y-57883766D01*
X81984332Y-57882352D01*
X82016662Y-57859714D01*
X82021256Y-57856788D01*
X82050690Y-57839795D01*
X82050693Y-57839793D01*
X82055426Y-57837060D01*
X82080793Y-57806829D01*
X82084477Y-57802809D01*
X83552809Y-56334477D01*
X83556829Y-56330793D01*
X83582872Y-56308940D01*
X83587060Y-56305426D01*
X83589793Y-56300693D01*
X83589795Y-56300690D01*
X83606788Y-56271256D01*
X83609718Y-56266656D01*
X83629218Y-56238808D01*
X83629218Y-56238807D01*
X83632352Y-56234332D01*
X83633899Y-56228560D01*
X83640147Y-56213475D01*
X83640398Y-56213041D01*
X83643132Y-56208306D01*
X83649984Y-56169446D01*
X83651164Y-56164124D01*
X83659961Y-56131292D01*
X83661377Y-56126009D01*
X83657938Y-56086701D01*
X83657700Y-56081254D01*
X83657700Y-55866008D01*
X83676006Y-55821814D01*
X83694970Y-55808926D01*
X83698635Y-55807927D01*
X83816562Y-55735519D01*
X83909427Y-55632924D01*
X83969764Y-55508389D01*
X83972473Y-55492291D01*
X83992322Y-55374301D01*
X83992722Y-55371925D01*
X83992868Y-55360000D01*
X83973250Y-55223016D01*
X83915974Y-55097043D01*
X83825644Y-54992210D01*
X83709521Y-54916943D01*
X83576941Y-54877293D01*
X83507752Y-54876871D01*
X83443015Y-54876475D01*
X83443014Y-54876475D01*
X83438562Y-54876448D01*
X83305507Y-54914475D01*
X83256278Y-54945537D01*
X83233205Y-54960094D01*
X83186060Y-54968195D01*
X83165860Y-54959682D01*
X83103661Y-54919366D01*
X83103655Y-54919363D01*
X83099921Y-54916943D01*
X82967341Y-54877293D01*
X82898152Y-54876871D01*
X82833415Y-54876475D01*
X82833414Y-54876475D01*
X82828962Y-54876448D01*
X82695907Y-54914475D01*
X82578873Y-54988318D01*
X82575930Y-54991650D01*
X82575928Y-54991652D01*
X82572460Y-54995579D01*
X82487269Y-55092040D01*
X82485377Y-55096070D01*
X82430350Y-55213272D01*
X82430349Y-55213275D01*
X82428458Y-55217303D01*
X82407168Y-55354037D01*
X82407745Y-55358450D01*
X82407745Y-55358451D01*
X82409507Y-55371925D01*
X82425111Y-55491251D01*
X82426904Y-55495326D01*
X82473065Y-55600234D01*
X82480844Y-55617914D01*
X82569887Y-55723843D01*
X82573592Y-55726309D01*
X82573594Y-55726311D01*
X82685081Y-55800523D01*
X82683699Y-55802600D01*
X82710275Y-55832152D01*
X82707742Y-55879921D01*
X82695541Y-55897173D01*
X81835433Y-56757281D01*
X81791239Y-56775587D01*
X81747045Y-56757281D01*
X81732246Y-56733729D01*
X81714465Y-56682912D01*
X81692456Y-56620013D01*
X81688486Y-56613694D01*
X81620229Y-56505065D01*
X81618363Y-56502095D01*
X81519889Y-56403621D01*
X81401971Y-56329528D01*
X81270522Y-56283533D01*
X81267038Y-56283140D01*
X81267036Y-56283140D01*
X81149709Y-56269920D01*
X81145874Y-56269367D01*
X81132134Y-56266944D01*
X81118394Y-56269367D01*
X81114559Y-56269920D01*
X80997232Y-56283140D01*
X80997230Y-56283140D01*
X80993746Y-56283533D01*
X80862297Y-56329528D01*
X80744379Y-56403621D01*
X80645905Y-56502095D01*
X80644039Y-56505065D01*
X80575783Y-56613694D01*
X80571812Y-56620013D01*
X80525817Y-56751462D01*
X80525424Y-56754946D01*
X80525424Y-56754948D01*
X80512204Y-56872275D01*
X80511651Y-56876110D01*
X80509228Y-56889850D01*
X80510178Y-56895238D01*
X80513184Y-56912285D01*
X80514134Y-56923138D01*
X80514134Y-56929800D01*
X80495828Y-56973994D01*
X80451634Y-56992300D01*
X79892909Y-56992300D01*
X79848715Y-56973994D01*
X79611612Y-56736891D01*
X79607928Y-56732871D01*
X79586075Y-56706828D01*
X79586076Y-56706828D01*
X79582561Y-56702640D01*
X79577828Y-56699907D01*
X79577825Y-56699905D01*
X79548391Y-56682912D01*
X79543797Y-56679986D01*
X79511467Y-56657348D01*
X79506191Y-56655934D01*
X79506190Y-56655934D01*
X79505966Y-56655874D01*
X79505695Y-56655801D01*
X79490613Y-56649554D01*
X79485441Y-56646568D01*
X79446581Y-56639716D01*
X79441259Y-56638536D01*
X79403144Y-56628323D01*
X79366381Y-56631539D01*
X79363836Y-56631762D01*
X79358389Y-56632000D01*
X79348538Y-56632000D01*
X79304344Y-56613694D01*
X79286038Y-56569500D01*
X79298525Y-56532017D01*
X79322501Y-56500026D01*
X79326736Y-56492291D01*
X79374877Y-56363875D01*
X79376675Y-56356311D01*
X79382817Y-56299770D01*
X79383000Y-56296402D01*
X79383000Y-56216431D01*
X79379359Y-56207641D01*
X79370569Y-56204000D01*
X76379432Y-56204000D01*
X76370642Y-56207641D01*
X76367001Y-56216431D01*
X76367001Y-56296396D01*
X76367183Y-56299766D01*
X76373325Y-56356310D01*
X76375124Y-56363878D01*
X76423264Y-56492291D01*
X76427499Y-56500026D01*
X76509428Y-56609344D01*
X76515656Y-56615572D01*
X76595483Y-56675399D01*
X76619869Y-56716552D01*
X76620500Y-56725412D01*
X76620501Y-57166741D01*
X76620501Y-57275066D01*
X76621100Y-57278075D01*
X76621100Y-57278080D01*
X76629101Y-57318307D01*
X76635266Y-57349301D01*
X76655281Y-57379256D01*
X76679350Y-57415277D01*
X76688682Y-57462193D01*
X76679350Y-57484723D01*
X76635266Y-57550699D01*
X76634065Y-57556738D01*
X76622736Y-57613694D01*
X76620500Y-57624933D01*
X76620501Y-57926006D01*
X76620501Y-58174587D01*
X76602195Y-58218781D01*
X76595484Y-58224600D01*
X76515656Y-58284428D01*
X76509428Y-58290656D01*
X76427499Y-58399974D01*
X76423264Y-58407709D01*
X76375123Y-58536125D01*
X76373325Y-58543689D01*
X76367183Y-58600230D01*
X76367000Y-58603598D01*
X71484000Y-58603598D01*
X71484000Y-55216431D01*
X73167001Y-55216431D01*
X73167001Y-55296396D01*
X73167183Y-55299766D01*
X73173325Y-55356310D01*
X73175124Y-55363878D01*
X73223264Y-55492291D01*
X73227499Y-55500026D01*
X73309428Y-55609344D01*
X73315656Y-55615572D01*
X73424974Y-55697501D01*
X73432709Y-55701736D01*
X73561125Y-55749877D01*
X73568689Y-55751675D01*
X73625230Y-55757817D01*
X73628598Y-55758000D01*
X75508569Y-55757999D01*
X75517359Y-55754358D01*
X75521000Y-55745568D01*
X75521000Y-55216431D01*
X76029000Y-55216431D01*
X76029000Y-55745568D01*
X76032641Y-55754358D01*
X76041431Y-55757999D01*
X76314569Y-55757999D01*
X76323358Y-55754358D01*
X76331549Y-55734583D01*
X76365374Y-55700758D01*
X76389292Y-55696000D01*
X77608569Y-55696000D01*
X77617359Y-55692359D01*
X77621000Y-55683569D01*
X77621000Y-55216431D01*
X78129000Y-55216431D01*
X78129000Y-55683569D01*
X78132641Y-55692359D01*
X78141431Y-55696000D01*
X79370568Y-55696000D01*
X79379358Y-55692359D01*
X79382999Y-55683569D01*
X79382999Y-55603604D01*
X79382817Y-55600234D01*
X79376675Y-55543690D01*
X79374876Y-55536122D01*
X79326736Y-55407709D01*
X79322501Y-55399974D01*
X79240572Y-55290656D01*
X79234344Y-55284428D01*
X79125026Y-55202499D01*
X79117291Y-55198264D01*
X78988875Y-55150123D01*
X78981311Y-55148325D01*
X78924770Y-55142183D01*
X78921402Y-55142000D01*
X78435431Y-55142000D01*
X78426641Y-55145641D01*
X78418449Y-55165418D01*
X78384624Y-55199243D01*
X78360707Y-55204000D01*
X78141431Y-55204000D01*
X78132641Y-55207641D01*
X78129000Y-55216431D01*
X77621000Y-55216431D01*
X77617359Y-55207641D01*
X77608569Y-55204000D01*
X76041431Y-55204000D01*
X76032641Y-55207641D01*
X76029000Y-55216431D01*
X75521000Y-55216431D01*
X75517359Y-55207641D01*
X75508569Y-55204000D01*
X73179432Y-55204000D01*
X73170642Y-55207641D01*
X73167001Y-55216431D01*
X71484000Y-55216431D01*
X71484000Y-54603598D01*
X73167000Y-54603598D01*
X73167000Y-54683569D01*
X73170641Y-54692359D01*
X73179431Y-54696000D01*
X75508569Y-54696000D01*
X75517359Y-54692359D01*
X75521000Y-54683569D01*
X75521000Y-54154432D01*
X75521000Y-54154431D01*
X76029000Y-54154431D01*
X76029000Y-54683569D01*
X76032641Y-54692359D01*
X76041431Y-54696000D01*
X78370568Y-54696000D01*
X78379358Y-54692359D01*
X78382999Y-54683569D01*
X78382999Y-54603604D01*
X78382817Y-54600234D01*
X78376675Y-54543690D01*
X78374876Y-54536122D01*
X78326736Y-54407709D01*
X78322501Y-54399974D01*
X78240572Y-54290656D01*
X78234344Y-54284428D01*
X78125026Y-54202499D01*
X78117291Y-54198264D01*
X77988875Y-54150123D01*
X77981311Y-54148325D01*
X77924770Y-54142183D01*
X77921402Y-54142000D01*
X76041431Y-54142000D01*
X76032641Y-54145641D01*
X76029000Y-54154431D01*
X75521000Y-54154431D01*
X75517359Y-54145642D01*
X75508569Y-54142001D01*
X73628604Y-54142001D01*
X73625234Y-54142183D01*
X73568690Y-54148325D01*
X73561122Y-54150124D01*
X73432709Y-54198264D01*
X73424974Y-54202499D01*
X73315656Y-54284428D01*
X73309428Y-54290656D01*
X73227499Y-54399974D01*
X73223264Y-54407709D01*
X73175123Y-54536125D01*
X73173325Y-54543689D01*
X73167183Y-54600230D01*
X73167000Y-54603598D01*
X71484000Y-54603598D01*
X71484000Y-52446500D01*
X71502306Y-52402306D01*
X71546500Y-52384000D01*
X84143500Y-52384000D01*
X84187694Y-52402306D01*
G37*
%TD.AperFunction*%
%TD*%
M02*
