G04 #@! TF.FileFunction,Copper,L6,Bot,Signal*
%FSLAX46Y46*%
G04 Gerber Fmt 4.6, Leading zero omitted, Abs format (unit mm)*
G04 Created by KiCad (PCBNEW 0.201603021449+6606~42~ubuntu14.04.1-product) date Wed 02 Mar 2016 02:15:13 PM PST*
%MOMM*%
G01*
G04 APERTURE LIST*
%ADD10C,0.100000*%
%ADD11C,2.540000*%
%ADD12C,2.200000*%
%ADD13C,0.508000*%
%ADD14C,0.254000*%
G04 APERTURE END LIST*
D10*
D11*
X164500000Y-196000000D03*
X164500000Y-174500000D03*
X14500000Y-174500000D03*
D12*
X49500000Y-192925000D03*
X199505000Y-192925000D03*
D11*
X14500000Y-196000000D03*
D13*
X140300000Y-178999090D03*
X180705564Y-179979902D03*
X172700000Y-181100000D03*
X173500000Y-181137491D03*
X177000000Y-185300000D03*
X177000000Y-183500000D03*
X177000000Y-180800000D03*
X176975000Y-187200000D03*
X177000000Y-189525000D03*
X176975000Y-191200000D03*
X24300000Y-178700000D03*
X23800000Y-179500000D03*
X27000000Y-184675000D03*
X26975000Y-182875000D03*
X27000000Y-181100000D03*
X27000000Y-187200000D03*
X27000000Y-191200000D03*
X27000000Y-190100000D03*
X27000000Y-188900000D03*
X25475000Y-178700000D03*
X22875000Y-179500000D03*
X23325000Y-180750000D03*
X169450000Y-186708410D03*
X22609375Y-186241728D03*
X170050000Y-187080380D03*
X22885259Y-186894448D03*
X171272325Y-187575690D03*
X22976604Y-187548502D03*
X176717516Y-187808138D03*
X22844781Y-188222828D03*
X172225000Y-189250690D03*
X22694573Y-189036204D03*
X172950000Y-189250690D03*
X23300000Y-189300000D03*
X174900000Y-192075000D03*
X176000000Y-192075000D03*
X174175000Y-191475000D03*
X173825000Y-189375000D03*
X173700000Y-190949310D03*
X24300000Y-192250000D03*
X26350000Y-192200000D03*
X25400000Y-192000000D03*
X23875000Y-190700000D03*
X23900000Y-191475000D03*
X140300000Y-178313290D03*
X180695893Y-179319571D03*
X180675000Y-180639597D03*
X172325000Y-179757100D03*
X180675000Y-181300000D03*
X172325000Y-180442900D03*
X179925000Y-181850000D03*
X23700000Y-181900000D03*
X179932677Y-182523006D03*
X23700000Y-182560403D03*
X179950000Y-183250000D03*
X22900000Y-183000000D03*
X179950000Y-183910403D03*
X22883120Y-183680682D03*
X181375000Y-184425000D03*
X23950000Y-184214390D03*
X181375000Y-185085403D03*
X23950000Y-184925000D03*
X180200000Y-185514597D03*
X22900000Y-184925000D03*
X180200000Y-186175000D03*
X22879965Y-185605438D03*
X31842466Y-187132534D03*
X180775000Y-186639597D03*
X31357534Y-187617466D03*
X180775000Y-187300000D03*
X30025000Y-188100000D03*
X179875000Y-187875000D03*
X30191699Y-188739016D03*
X179877390Y-188540029D03*
X180675000Y-189742900D03*
X172300000Y-191717900D03*
X172300000Y-191032100D03*
X180675000Y-189057100D03*
D14*
X180162492Y-179436830D02*
X179597751Y-178872089D01*
X180705564Y-179979902D02*
X180578634Y-179852972D01*
X180578634Y-179852972D02*
X180439860Y-179852972D01*
X180439860Y-179852972D02*
X180162492Y-179575604D01*
X140427001Y-178872089D02*
X140300000Y-178999090D01*
X180162492Y-179575604D02*
X180162492Y-179436830D01*
X179597751Y-178872089D02*
X140427001Y-178872089D01*
X180655890Y-179319571D02*
X179776610Y-178440291D01*
X140427001Y-178440291D02*
X140300000Y-178313290D01*
X179776610Y-178440291D02*
X140427001Y-178440291D01*
X180695893Y-179319571D02*
X180655890Y-179319571D01*
X179262428Y-179757100D02*
X172325000Y-179757100D01*
X180675000Y-180639597D02*
X180675000Y-180639598D01*
X180560698Y-180753900D02*
X180259228Y-180753900D01*
X180675000Y-180639598D02*
X180560698Y-180753900D01*
X180259228Y-180753900D02*
X179262428Y-179757100D01*
X180675000Y-181300000D02*
X180560698Y-181185698D01*
X180560698Y-181185698D02*
X180080370Y-181185698D01*
X172477399Y-180290501D02*
X172325000Y-180442900D01*
X180080370Y-181185698D02*
X179083571Y-180188899D01*
X172682635Y-180188899D02*
X172581033Y-180290501D01*
X179083571Y-180188899D02*
X172682635Y-180188899D01*
X172581033Y-180290501D02*
X172477399Y-180290501D01*
X129347770Y-180253083D02*
X129349846Y-180255159D01*
X129344910Y-180003301D02*
X129344910Y-180244910D01*
X23700000Y-181900000D02*
X23749746Y-181900000D01*
X129187076Y-179675556D02*
X129253453Y-179741933D01*
X117989428Y-172384100D02*
X125189428Y-179584100D01*
X54310572Y-172384100D02*
X117989428Y-172384100D01*
X23749746Y-181900000D02*
X26015646Y-179634100D01*
X129847973Y-180255159D02*
X129850049Y-180253083D01*
X129845488Y-180256721D02*
X129847973Y-180255159D01*
X129894424Y-179821416D02*
X129944366Y-179741933D01*
X179808235Y-181966766D02*
X179925000Y-181850001D01*
X129352331Y-180256721D02*
X129355102Y-180257691D01*
X129018989Y-179594610D02*
X129107593Y-179625614D01*
X130090226Y-179625614D02*
X130178830Y-179594610D01*
X129334399Y-179910020D02*
X129344910Y-180003301D01*
X129303395Y-179821416D02*
X129334399Y-179910020D01*
X26015646Y-179634100D02*
X47060572Y-179634100D01*
X47060572Y-179634100D02*
X54310572Y-172384100D01*
X130010743Y-179675556D02*
X130090226Y-179625614D01*
X125189428Y-179584100D02*
X128925708Y-179584100D01*
X128925708Y-179584100D02*
X129018989Y-179594610D01*
X129358020Y-180258020D02*
X129839800Y-180258020D01*
X129107593Y-179625614D02*
X129187076Y-179675556D01*
X129253453Y-179741933D02*
X129303395Y-179821416D01*
X129344910Y-180244910D02*
X129345238Y-180247827D01*
X129345238Y-180247827D02*
X129346208Y-180250598D01*
X129842717Y-180257691D02*
X129845488Y-180256721D01*
X129346208Y-180250598D02*
X129347770Y-180253083D01*
X129349846Y-180255159D02*
X129352331Y-180256721D01*
X129355102Y-180257691D02*
X129358020Y-180258020D01*
X129839800Y-180258020D02*
X129842717Y-180257691D01*
X129850049Y-180253083D02*
X129851611Y-180250598D01*
X129851611Y-180250598D02*
X129852581Y-180247827D01*
X129852581Y-180247827D02*
X129852910Y-180244910D01*
X129852910Y-180244910D02*
X129852910Y-180003301D01*
X129852910Y-180003301D02*
X129863420Y-179910020D01*
X129863420Y-179910020D02*
X129894424Y-179821416D01*
X129944366Y-179741933D02*
X130010743Y-179675556D01*
X130178830Y-179594610D02*
X130272111Y-179584100D01*
X179925000Y-181850001D02*
X179925000Y-181850000D01*
X130272111Y-179584100D02*
X168489428Y-179584100D01*
X168489428Y-179584100D02*
X170576229Y-181670901D01*
X170576229Y-181670901D02*
X178861623Y-181670901D01*
X178861623Y-181670901D02*
X179157488Y-181966766D01*
X179157488Y-181966766D02*
X179808235Y-181966766D01*
X23700000Y-182560403D02*
X23814311Y-182446092D01*
X129004566Y-180531986D02*
X129070943Y-180598363D01*
X23814311Y-182446092D02*
X23993155Y-182446092D01*
X24246091Y-182193156D02*
X24246091Y-182014312D01*
X179808235Y-182398564D02*
X179932677Y-182523006D01*
X54489428Y-172815900D02*
X117810572Y-172815900D01*
X23993155Y-182446092D02*
X24246091Y-182193156D01*
X130286008Y-180023321D02*
X130287570Y-180020836D01*
X128910249Y-180020836D02*
X128911811Y-180023321D01*
X47239428Y-180065900D02*
X54489428Y-172815900D01*
X128902917Y-180016228D02*
X128905688Y-180017198D01*
X129958789Y-180679309D02*
X130047393Y-180648305D01*
X24246091Y-182014312D02*
X26194503Y-180065900D01*
X129150426Y-180648305D02*
X129239030Y-180679309D01*
X129239030Y-180679309D02*
X129332311Y-180689820D01*
X26194503Y-180065900D02*
X47239428Y-180065900D01*
X117810572Y-172815900D02*
X125010572Y-180015900D01*
X130047393Y-180648305D02*
X130126876Y-180598363D01*
X128905688Y-180017198D02*
X128908173Y-180018760D01*
X125010572Y-180015900D02*
X128900000Y-180015900D01*
X170397363Y-182102691D02*
X178682769Y-182102691D01*
X128900000Y-180015900D02*
X128902917Y-180016228D01*
X128908173Y-180018760D02*
X128910249Y-180020836D01*
X128911811Y-180023321D02*
X128912781Y-180026092D01*
X128912781Y-180026092D02*
X128913110Y-180029010D01*
X128954624Y-180452503D02*
X129004566Y-180531986D01*
X130284710Y-180270618D02*
X130284710Y-180029010D01*
X130289646Y-180018760D02*
X130292131Y-180017198D01*
X130274199Y-180363899D02*
X130284710Y-180270618D01*
X128913110Y-180029010D02*
X128913110Y-180270618D01*
X130193253Y-180531986D02*
X130243195Y-180452503D01*
X128913110Y-180270618D02*
X128923620Y-180363899D01*
X128923620Y-180363899D02*
X128954624Y-180452503D01*
X178682769Y-182102691D02*
X178978642Y-182398564D01*
X129070943Y-180598363D02*
X129150426Y-180648305D01*
X130243195Y-180452503D02*
X130274199Y-180363899D01*
X129332311Y-180689820D02*
X129865508Y-180689820D01*
X130297820Y-180015900D02*
X168310572Y-180015900D01*
X130294902Y-180016228D02*
X130297820Y-180015900D01*
X129865508Y-180689820D02*
X129958789Y-180679309D01*
X130126876Y-180598363D02*
X130193253Y-180531986D01*
X130284710Y-180029010D02*
X130285038Y-180026092D01*
X130285038Y-180026092D02*
X130286008Y-180023321D01*
X130292131Y-180017198D02*
X130294902Y-180016228D01*
X130287570Y-180020836D02*
X130289646Y-180018760D01*
X168310572Y-180015900D02*
X170397363Y-182102691D01*
X178978642Y-182398564D02*
X179808235Y-182398564D01*
X115789428Y-174184100D02*
X124114428Y-182509100D01*
X124114428Y-182509100D02*
X178514428Y-182509100D01*
X55910572Y-174184100D02*
X115789428Y-174184100D01*
X48385572Y-181709100D02*
X55910572Y-174184100D01*
X25735572Y-181709100D02*
X48385572Y-181709100D01*
X179369631Y-183364303D02*
X178514428Y-182509100D01*
X179950000Y-183250000D02*
X179950000Y-183250001D01*
X179835698Y-183364303D02*
X179369631Y-183364303D01*
X179950000Y-183250001D02*
X179835698Y-183364303D01*
X25735572Y-181709100D02*
X24328670Y-183116002D01*
X24328670Y-183116002D02*
X23016002Y-183116002D01*
X23016002Y-183116002D02*
X22900000Y-183000000D01*
X115610572Y-174615900D02*
X123935572Y-182940900D01*
X123935572Y-182940900D02*
X178335572Y-182940900D01*
X56089428Y-174615900D02*
X115610572Y-174615900D01*
X48564428Y-182140900D02*
X56089428Y-174615900D01*
X25914428Y-182140900D02*
X48564428Y-182140900D01*
X179950000Y-183910403D02*
X179835698Y-183796101D01*
X179835698Y-183796101D02*
X179190773Y-183796101D01*
X179190773Y-183796101D02*
X178335572Y-182940900D01*
X25914428Y-182140900D02*
X24507528Y-183547800D01*
X24507528Y-183547800D02*
X23016002Y-183547800D01*
X23016002Y-183547800D02*
X22883120Y-183680682D01*
X114889428Y-175984100D02*
X123064428Y-184159100D01*
X123064428Y-184159100D02*
X177689428Y-184159100D01*
X56310572Y-175984100D02*
X114889428Y-175984100D01*
X48810572Y-183484100D02*
X56310572Y-175984100D01*
X25710572Y-183484100D02*
X48810572Y-183484100D01*
X181260698Y-184539303D02*
X181375000Y-184425001D01*
X23950000Y-184214390D02*
X24089406Y-184353796D01*
X24840876Y-184353796D02*
X25710572Y-183484100D01*
X178069631Y-184539303D02*
X181260698Y-184539303D01*
X24089406Y-184353796D02*
X24840876Y-184353796D01*
X177689428Y-184159100D02*
X178069631Y-184539303D01*
X181375000Y-184425001D02*
X181375000Y-184425000D01*
X114710572Y-176415900D02*
X122885572Y-184590900D01*
X122885572Y-184590900D02*
X177510572Y-184590900D01*
X56489428Y-176415900D02*
X114710572Y-176415900D01*
X48989428Y-183915900D02*
X56489428Y-176415900D01*
X25889428Y-183915900D02*
X48989428Y-183915900D01*
X23950000Y-184925000D02*
X24089406Y-184785594D01*
X24089406Y-184785594D02*
X25019734Y-184785594D01*
X25019734Y-184785594D02*
X25889428Y-183915900D01*
X181260698Y-184971101D02*
X181375000Y-185085403D01*
X177510572Y-184590900D02*
X177890773Y-184971101D01*
X177890773Y-184971101D02*
X181260698Y-184971101D01*
X59718119Y-179441866D02*
X59752152Y-179344605D01*
X59042811Y-179344605D02*
X59076844Y-179441866D01*
X58827876Y-179129670D02*
X58915126Y-179184492D01*
X59706582Y-179544261D02*
X59718119Y-179441866D01*
X23668433Y-185593433D02*
X23673761Y-185593433D01*
X115989428Y-179084100D02*
X122564428Y-185659100D01*
X59967087Y-179129670D02*
X60064348Y-179095637D01*
X22900000Y-184925000D02*
X23047037Y-185072037D01*
X59662590Y-179843546D02*
X59674550Y-179839361D01*
X58915126Y-179184492D02*
X58987989Y-179257355D01*
X59088382Y-179544261D02*
X59088382Y-179788383D01*
X23047037Y-185072037D02*
X23135998Y-185072037D01*
X23673761Y-185593433D02*
X23739428Y-185659100D01*
X59694237Y-179823661D02*
X59700978Y-179812933D01*
X59700978Y-179812933D02*
X59705163Y-179800973D01*
X58628220Y-179084100D02*
X58730615Y-179095637D01*
X23413366Y-185349405D02*
X23413366Y-185338366D01*
X30135572Y-185659100D02*
X31010572Y-184784100D01*
X59109685Y-179832620D02*
X59120413Y-179839361D01*
X55110572Y-179084100D02*
X58628220Y-179084100D01*
X59076844Y-179441866D02*
X59088382Y-179544261D01*
X172864428Y-185984100D02*
X177560572Y-185984100D01*
X23739428Y-185659100D02*
X30135572Y-185659100D01*
X23135998Y-185072037D02*
X23413366Y-185349405D01*
X23413366Y-185338366D02*
X23668433Y-185593433D01*
X31010572Y-184784100D02*
X49410572Y-184784100D01*
X49410572Y-184784100D02*
X55110572Y-179084100D01*
X59093985Y-179812933D02*
X59100726Y-179823661D01*
X59120413Y-179839361D02*
X59132373Y-179843546D01*
X58730615Y-179095637D02*
X58827876Y-179129670D01*
X172539428Y-185659100D02*
X172864428Y-185984100D01*
X58987989Y-179257355D02*
X59042811Y-179344605D01*
X180085698Y-185628900D02*
X180200000Y-185514598D01*
X59088382Y-179788383D02*
X59089800Y-179800973D01*
X59089800Y-179800973D02*
X59093985Y-179812933D01*
X59100726Y-179823661D02*
X59109685Y-179832620D01*
X59706582Y-179788383D02*
X59706582Y-179544261D01*
X59132373Y-179843546D02*
X59144964Y-179844965D01*
X177915772Y-185628900D02*
X180085698Y-185628900D01*
X59144964Y-179844965D02*
X59650000Y-179844965D01*
X59650000Y-179844965D02*
X59662590Y-179843546D01*
X59674550Y-179839361D02*
X59685278Y-179832620D01*
X59685278Y-179832620D02*
X59694237Y-179823661D01*
X59705163Y-179800973D02*
X59706582Y-179788383D01*
X59752152Y-179344605D02*
X59806974Y-179257355D01*
X59806974Y-179257355D02*
X59879837Y-179184492D01*
X59879837Y-179184492D02*
X59967087Y-179129670D01*
X60064348Y-179095637D02*
X60166743Y-179084100D01*
X60166743Y-179084100D02*
X115989428Y-179084100D01*
X122564428Y-185659100D02*
X172539428Y-185659100D01*
X177560572Y-185984100D02*
X177915772Y-185628900D01*
X180200000Y-185514598D02*
X180200000Y-185514597D01*
X22879965Y-185605438D02*
X22969781Y-185605438D01*
X82133191Y-179775863D02*
X82152268Y-179745503D01*
X60170413Y-179521503D02*
X60182373Y-179517318D01*
X55289428Y-179515900D02*
X58600000Y-179515900D01*
X58656582Y-179572482D02*
X58656582Y-179816603D01*
X22969781Y-185605438D02*
X23389574Y-186025231D01*
X60150726Y-179537203D02*
X60159685Y-179528244D01*
X23389574Y-186025231D02*
X23369903Y-186025231D01*
X82172140Y-179640394D02*
X82183983Y-179606549D01*
X23369903Y-186025231D02*
X23435572Y-186090900D01*
X58702152Y-180016259D02*
X58756974Y-180103509D01*
X82183983Y-179606549D02*
X82203060Y-179576189D01*
X23435572Y-186090900D02*
X30314428Y-186090900D01*
X60194964Y-179515900D02*
X81500000Y-179515900D01*
X81599836Y-179550834D02*
X81625191Y-179576189D01*
X81784620Y-179832138D02*
X81820252Y-179836153D01*
X60138382Y-179572482D02*
X60139800Y-179559891D01*
X59678220Y-180276765D02*
X59780615Y-180265227D01*
X60126844Y-179918998D02*
X60138382Y-179816603D01*
X49589428Y-185215900D02*
X55289428Y-179515900D01*
X172360572Y-186090900D02*
X172685572Y-186415900D01*
X82077476Y-179820295D02*
X82107836Y-179801218D01*
X30314428Y-186090900D02*
X31189428Y-185215900D01*
X31189428Y-185215900D02*
X49589428Y-185215900D01*
X82228415Y-179550834D02*
X82258775Y-179531757D01*
X81569476Y-179531757D02*
X81599836Y-179550834D01*
X58655163Y-179559891D02*
X58656582Y-179572482D01*
X58600000Y-179515900D02*
X58612590Y-179517318D01*
X58624550Y-179521503D02*
X58635278Y-179528244D01*
X58612590Y-179517318D02*
X58624550Y-179521503D01*
X82152268Y-179745503D02*
X82164111Y-179711658D01*
X58635278Y-179528244D02*
X58644237Y-179537203D01*
X60037989Y-180103509D02*
X60092811Y-180016259D01*
X59116743Y-180276765D02*
X59678220Y-180276765D01*
X58644237Y-179537203D02*
X58650978Y-179547931D01*
X58650978Y-179547931D02*
X58655163Y-179559891D01*
X60138382Y-179816603D02*
X60138382Y-179572482D01*
X82008000Y-179836153D02*
X82043631Y-179832138D01*
X60182373Y-179517318D02*
X60194964Y-179515900D01*
X58668119Y-179918998D02*
X58702152Y-180016259D01*
X58656582Y-179816603D02*
X58668119Y-179918998D01*
X58756974Y-180103509D02*
X58829837Y-180176372D01*
X81720415Y-179801218D02*
X81750775Y-179820295D01*
X58829837Y-180176372D02*
X58917087Y-180231194D01*
X59014348Y-180265227D02*
X59116743Y-180276765D01*
X58917087Y-180231194D02*
X59014348Y-180265227D01*
X82328252Y-179515900D02*
X115810572Y-179515900D01*
X59780615Y-180265227D02*
X59877876Y-180231194D01*
X59877876Y-180231194D02*
X59965126Y-180176372D01*
X59965126Y-180176372D02*
X60037989Y-180103509D01*
X60092811Y-180016259D02*
X60126844Y-179918998D01*
X81656111Y-179640394D02*
X81664140Y-179711658D01*
X60139800Y-179559891D02*
X60143985Y-179547931D01*
X82292620Y-179519914D02*
X82328252Y-179515900D01*
X60143985Y-179547931D02*
X60150726Y-179537203D01*
X60159685Y-179528244D02*
X60170413Y-179521503D01*
X81500000Y-179515900D02*
X81535631Y-179519914D01*
X81675983Y-179745503D02*
X81695060Y-179775863D01*
X81535631Y-179519914D02*
X81569476Y-179531757D01*
X82203060Y-179576189D02*
X82228415Y-179550834D01*
X81625191Y-179576189D02*
X81644268Y-179606549D01*
X122385572Y-186090900D02*
X172360572Y-186090900D01*
X81695060Y-179775863D02*
X81720415Y-179801218D01*
X81644268Y-179606549D02*
X81656111Y-179640394D01*
X81664140Y-179711658D02*
X81675983Y-179745503D01*
X81750775Y-179820295D02*
X81784620Y-179832138D01*
X81820252Y-179836153D02*
X82008000Y-179836153D01*
X82107836Y-179801218D02*
X82133191Y-179775863D01*
X82043631Y-179832138D02*
X82077476Y-179820295D01*
X82164111Y-179711658D02*
X82172140Y-179640394D01*
X115810572Y-179515900D02*
X122385572Y-186090900D01*
X82258775Y-179531757D02*
X82292620Y-179519914D01*
X178094630Y-186060698D02*
X180085698Y-186060698D01*
X172685572Y-186415900D02*
X177739428Y-186415900D01*
X177739428Y-186415900D02*
X178094630Y-186060698D01*
X180085698Y-186060698D02*
X180200000Y-186175000D01*
X67512623Y-180525669D02*
X67635279Y-180482750D01*
X66556064Y-182430684D02*
X66585215Y-182459835D01*
X48509005Y-187185667D02*
X54210572Y-181484100D01*
X66700000Y-182500000D02*
X67000000Y-182500000D01*
X66515900Y-182315900D02*
X66520515Y-182356866D01*
X68497406Y-180594806D02*
X68589294Y-180686694D01*
X66501350Y-181935279D02*
X66515900Y-182064411D01*
X71059033Y-182495384D02*
X71100000Y-182500000D01*
X69200000Y-182500000D02*
X69240966Y-182495384D01*
X69240966Y-182495384D02*
X69279877Y-182481768D01*
X71710705Y-181702593D02*
X71802593Y-181610705D01*
X70915900Y-181048512D02*
X70915900Y-182315900D01*
X66187376Y-181541568D02*
X66297406Y-181610705D01*
X31842466Y-187132534D02*
X31895599Y-187185667D01*
X67198649Y-180919380D02*
X67241568Y-180796724D01*
X70858431Y-180796724D02*
X70901350Y-180919380D01*
X67179484Y-182356866D02*
X67184100Y-182315900D01*
X68734131Y-182395777D02*
X68756064Y-182430684D01*
X65935588Y-181484100D02*
X66064720Y-181498649D01*
X69964411Y-180468200D02*
X70335588Y-180468200D01*
X71565868Y-182395777D02*
X71579484Y-182356866D01*
X31895599Y-187185667D02*
X48509005Y-187185667D01*
X66064720Y-181498649D02*
X66187376Y-181541568D01*
X67000000Y-182500000D02*
X67040966Y-182495384D01*
X66534131Y-182395777D02*
X66556064Y-182430684D01*
X69510705Y-180686694D02*
X69602593Y-180594806D01*
X180775000Y-186639598D02*
X180775000Y-186639597D01*
X71912623Y-181541568D02*
X72035279Y-181498649D01*
X70587376Y-180525669D02*
X70697406Y-180594806D01*
X70956064Y-182430684D02*
X70985215Y-182459835D01*
X68387376Y-180525669D02*
X68497406Y-180594806D01*
X69441568Y-180796724D02*
X69510705Y-180686694D01*
X69835279Y-180482750D02*
X69964411Y-180468200D01*
X69384100Y-182315900D02*
X69384100Y-181048512D01*
X66515900Y-182064411D02*
X66515900Y-182315900D01*
X71514784Y-182459835D02*
X71543935Y-182430684D01*
X70697406Y-180594806D02*
X70789294Y-180686694D01*
X66585215Y-182459835D02*
X66620122Y-182481768D01*
X54210572Y-181484100D02*
X65935588Y-181484100D01*
X68715900Y-182315900D02*
X68720515Y-182356866D01*
X122264428Y-188159100D02*
X174564428Y-188159100D01*
X66297406Y-181610705D02*
X66389294Y-181702593D01*
X66389294Y-181702593D02*
X66458431Y-181812623D01*
X66458431Y-181812623D02*
X66501350Y-181935279D01*
X71479877Y-182481768D02*
X71514784Y-182459835D01*
X66520515Y-182356866D02*
X66534131Y-182395777D01*
X66620122Y-182481768D02*
X66659033Y-182495384D01*
X68135588Y-180468200D02*
X68264720Y-180482750D01*
X70920515Y-182356866D02*
X70934131Y-182395777D01*
X66659033Y-182495384D02*
X66700000Y-182500000D01*
X67040966Y-182495384D02*
X67079877Y-182481768D01*
X71598649Y-181935279D02*
X71641568Y-181812623D01*
X67079877Y-182481768D02*
X67114784Y-182459835D01*
X67114784Y-182459835D02*
X67143935Y-182430684D01*
X70464720Y-180482750D02*
X70587376Y-180525669D01*
X67143935Y-182430684D02*
X67165868Y-182395777D01*
X67165868Y-182395777D02*
X67179484Y-182356866D01*
X67184100Y-182315900D02*
X67184100Y-181048512D01*
X68701350Y-180919380D02*
X68715900Y-181048512D01*
X67184100Y-181048512D02*
X67198649Y-180919380D01*
X67241568Y-180796724D02*
X67310705Y-180686694D01*
X70915900Y-182315900D02*
X70920515Y-182356866D01*
X67310705Y-180686694D02*
X67402593Y-180594806D01*
X71100000Y-182500000D02*
X71400000Y-182500000D01*
X67402593Y-180594806D02*
X67512623Y-180525669D01*
X67635279Y-180482750D02*
X67764411Y-180468200D01*
X67764411Y-180468200D02*
X68135588Y-180468200D01*
X68264720Y-180482750D02*
X68387376Y-180525669D01*
X68589294Y-180686694D02*
X68658431Y-180796724D01*
X68658431Y-180796724D02*
X68701350Y-180919380D01*
X174877664Y-188472336D02*
X176922336Y-188472336D01*
X68715900Y-181048512D02*
X68715900Y-182315900D01*
X68720515Y-182356866D02*
X68734131Y-182395777D01*
X68756064Y-182430684D02*
X68785215Y-182459835D01*
X68785215Y-182459835D02*
X68820122Y-182481768D01*
X68820122Y-182481768D02*
X68859033Y-182495384D01*
X68859033Y-182495384D02*
X68900000Y-182500000D01*
X70789294Y-180686694D02*
X70858431Y-180796724D01*
X68900000Y-182500000D02*
X69200000Y-182500000D01*
X69279877Y-182481768D02*
X69314784Y-182459835D01*
X69314784Y-182459835D02*
X69343935Y-182430684D01*
X180660698Y-186753900D02*
X180775000Y-186639598D01*
X69343935Y-182430684D02*
X69365868Y-182395777D01*
X69365868Y-182395777D02*
X69379484Y-182356866D01*
X71584100Y-182064411D02*
X71598649Y-181935279D01*
X69379484Y-182356866D02*
X69384100Y-182315900D01*
X69384100Y-181048512D02*
X69398649Y-180919380D01*
X69398649Y-180919380D02*
X69441568Y-180796724D01*
X174564428Y-188159100D02*
X174877664Y-188472336D01*
X69602593Y-180594806D02*
X69712623Y-180525669D01*
X69712623Y-180525669D02*
X69835279Y-180482750D01*
X70335588Y-180468200D02*
X70464720Y-180482750D01*
X70901350Y-180919380D02*
X70915900Y-181048512D01*
X71020122Y-182481768D02*
X71059033Y-182495384D01*
X70934131Y-182395777D02*
X70956064Y-182430684D01*
X70985215Y-182459835D02*
X71020122Y-182481768D01*
X71400000Y-182500000D02*
X71440966Y-182495384D01*
X71440966Y-182495384D02*
X71479877Y-182481768D01*
X71543935Y-182430684D02*
X71565868Y-182395777D01*
X71579484Y-182356866D02*
X71584100Y-182315900D01*
X71584100Y-182315900D02*
X71584100Y-182064411D01*
X71641568Y-181812623D02*
X71710705Y-181702593D01*
X71802593Y-181610705D02*
X71912623Y-181541568D01*
X72035279Y-181498649D02*
X72164411Y-181484100D01*
X72164411Y-181484100D02*
X115589428Y-181484100D01*
X115589428Y-181484100D02*
X122264428Y-188159100D01*
X176922336Y-188472336D02*
X178640772Y-186753900D01*
X178640772Y-186753900D02*
X180660698Y-186753900D01*
X31357534Y-187617466D02*
X31537964Y-187617466D01*
X72001350Y-182480620D02*
X72015900Y-182351488D01*
X68279484Y-181043134D02*
X68284100Y-181084100D01*
X67601350Y-182480620D02*
X67615900Y-182351488D01*
X66065868Y-182020122D02*
X66079484Y-182059033D01*
X31537964Y-187617466D02*
X31586433Y-187665935D01*
X65940966Y-181920515D02*
X65979877Y-181934131D01*
X31586433Y-187665935D02*
X32098499Y-187665935D01*
X32098499Y-187665935D02*
X32146968Y-187617466D01*
X65979877Y-181934131D02*
X66014784Y-181956064D01*
X66302593Y-182805194D02*
X66412623Y-182874331D01*
X66535279Y-182917250D02*
X66664411Y-182931800D01*
X66412623Y-182874331D02*
X66535279Y-182917250D01*
X32146968Y-187617466D02*
X48687862Y-187617466D01*
X66141568Y-182603276D02*
X66210705Y-182713306D01*
X48687862Y-187617466D02*
X54389428Y-181915900D01*
X70702593Y-182805194D02*
X70812623Y-182874331D01*
X54389428Y-181915900D02*
X65900000Y-181915900D01*
X71889294Y-182713306D02*
X71958431Y-182603276D01*
X67615900Y-181084100D02*
X67620515Y-181043134D01*
X66043935Y-181985215D02*
X66065868Y-182020122D01*
X68243935Y-180969316D02*
X68265868Y-181004223D01*
X65900000Y-181915900D02*
X65940966Y-181920515D01*
X69487376Y-182874331D02*
X69597406Y-182805194D01*
X67164720Y-182917250D02*
X67287376Y-182874331D01*
X67720122Y-180918232D02*
X67759033Y-180904616D01*
X68735279Y-182917250D02*
X68864411Y-182931800D01*
X66014784Y-181956064D02*
X66043935Y-181985215D01*
X66084100Y-182100000D02*
X66084100Y-182351488D01*
X71687376Y-182874331D02*
X71797406Y-182805194D01*
X72085215Y-181956064D02*
X72120122Y-181934131D01*
X69364720Y-182917250D02*
X69487376Y-182874331D01*
X122085572Y-188590900D02*
X174385572Y-188590900D01*
X67615900Y-182351488D02*
X67615900Y-181084100D01*
X67397406Y-182805194D02*
X67489294Y-182713306D01*
X70812623Y-182874331D02*
X70935279Y-182917250D01*
X66079484Y-182059033D02*
X66084100Y-182100000D01*
X66084100Y-182351488D02*
X66098649Y-182480620D01*
X66098649Y-182480620D02*
X66141568Y-182603276D01*
X66210705Y-182713306D02*
X66302593Y-182805194D01*
X67685215Y-180940165D02*
X67720122Y-180918232D01*
X69920122Y-180918232D02*
X69959033Y-180904616D01*
X67489294Y-182713306D02*
X67558431Y-182603276D01*
X66664411Y-182931800D02*
X67035588Y-182931800D01*
X68265868Y-181004223D02*
X68279484Y-181043134D01*
X69959033Y-180904616D02*
X70000000Y-180900000D01*
X68298649Y-182480620D02*
X68341568Y-182603276D01*
X69235588Y-182931800D02*
X69364720Y-182917250D01*
X67558431Y-182603276D02*
X67601350Y-182480620D01*
X67035588Y-182931800D02*
X67164720Y-182917250D01*
X67287376Y-182874331D02*
X67397406Y-182805194D01*
X69597406Y-182805194D02*
X69689294Y-182713306D01*
X67620515Y-181043134D02*
X67634131Y-181004223D01*
X174698806Y-188904134D02*
X177101194Y-188904134D01*
X69815900Y-181084100D02*
X69820515Y-181043134D01*
X67634131Y-181004223D02*
X67656064Y-180969316D01*
X68284100Y-181084100D02*
X68284100Y-182351488D01*
X67656064Y-180969316D02*
X67685215Y-180940165D01*
X67759033Y-180904616D02*
X67800000Y-180900000D01*
X72200000Y-181915900D02*
X115410572Y-181915900D01*
X67800000Y-180900000D02*
X68100000Y-180900000D01*
X68100000Y-180900000D02*
X68140966Y-180904616D01*
X68140966Y-180904616D02*
X68179877Y-180918232D01*
X70484100Y-181084100D02*
X70484100Y-182351488D01*
X68179877Y-180918232D02*
X68214784Y-180940165D01*
X68214784Y-180940165D02*
X68243935Y-180969316D01*
X68284100Y-182351488D02*
X68298649Y-182480620D01*
X72120122Y-181934131D02*
X72159033Y-181920515D01*
X68341568Y-182603276D02*
X68410705Y-182713306D01*
X68410705Y-182713306D02*
X68502593Y-182805194D01*
X72034131Y-182020122D02*
X72056064Y-181985215D01*
X68502593Y-182805194D02*
X68612623Y-182874331D01*
X68864411Y-182931800D02*
X69235588Y-182931800D01*
X70479484Y-181043134D02*
X70484100Y-181084100D01*
X68612623Y-182874331D02*
X68735279Y-182917250D01*
X69689294Y-182713306D02*
X69758431Y-182603276D01*
X180660698Y-187185698D02*
X180775000Y-187300000D01*
X70300000Y-180900000D02*
X70340966Y-180904616D01*
X69758431Y-182603276D02*
X69801350Y-182480620D01*
X69801350Y-182480620D02*
X69815900Y-182351488D01*
X69815900Y-182351488D02*
X69815900Y-181084100D01*
X69820515Y-181043134D02*
X69834131Y-181004223D01*
X69834131Y-181004223D02*
X69856064Y-180969316D01*
X70340966Y-180904616D02*
X70379877Y-180918232D01*
X69856064Y-180969316D02*
X69885215Y-180940165D01*
X69885215Y-180940165D02*
X69920122Y-180918232D01*
X70000000Y-180900000D02*
X70300000Y-180900000D01*
X70465868Y-181004223D02*
X70479484Y-181043134D01*
X70379877Y-180918232D02*
X70414784Y-180940165D01*
X70414784Y-180940165D02*
X70443935Y-180969316D01*
X70443935Y-180969316D02*
X70465868Y-181004223D01*
X70484100Y-182351488D02*
X70498649Y-182480620D01*
X70498649Y-182480620D02*
X70541568Y-182603276D01*
X70541568Y-182603276D02*
X70610705Y-182713306D01*
X70610705Y-182713306D02*
X70702593Y-182805194D01*
X70935279Y-182917250D02*
X71064411Y-182931800D01*
X71064411Y-182931800D02*
X71435588Y-182931800D01*
X71564720Y-182917250D02*
X71687376Y-182874331D01*
X71435588Y-182931800D02*
X71564720Y-182917250D01*
X71797406Y-182805194D02*
X71889294Y-182713306D01*
X71958431Y-182603276D02*
X72001350Y-182480620D01*
X72015900Y-182351488D02*
X72015900Y-182100000D01*
X72015900Y-182100000D02*
X72020515Y-182059033D01*
X115410572Y-181915900D02*
X122085572Y-188590900D01*
X72020515Y-182059033D02*
X72034131Y-182020122D01*
X72056064Y-181985215D02*
X72085215Y-181956064D01*
X72159033Y-181920515D02*
X72200000Y-181915900D01*
X174385572Y-188590900D02*
X174698806Y-188904134D01*
X177101194Y-188904134D02*
X178819630Y-187185698D01*
X178819630Y-187185698D02*
X180660698Y-187185698D01*
X77592168Y-185568201D02*
X77610953Y-185621887D01*
X81345000Y-184048692D02*
X81345000Y-185511681D01*
X77585800Y-185230272D02*
X77585800Y-185511681D01*
X79973400Y-185511681D02*
X79973400Y-184048692D01*
X77896320Y-185759312D02*
X77950006Y-185740527D01*
X83249753Y-184440307D02*
X83280014Y-184488467D01*
X79948246Y-185621887D02*
X79967031Y-185568201D01*
X30130614Y-188205615D02*
X30447732Y-188205615D01*
X77569599Y-185086485D02*
X77585800Y-185230272D01*
X83083625Y-183645810D02*
X83160608Y-183768328D01*
X80475785Y-183418720D02*
X80619572Y-183402519D01*
X114789428Y-184584100D02*
X120164428Y-189959100D01*
X81351368Y-185568201D02*
X81370153Y-185621887D01*
X77729593Y-185740527D02*
X77783279Y-185759312D01*
X77998166Y-185710266D02*
X78038385Y-185670047D01*
X79520814Y-185670047D02*
X79561033Y-185710266D01*
X80619572Y-183402519D02*
X80698827Y-183402519D01*
X83280014Y-184488467D02*
X83320233Y-184528686D01*
X80842614Y-183418720D02*
X80979191Y-183466511D01*
X81440633Y-185710266D02*
X81488793Y-185740527D01*
X30447732Y-188205615D02*
X30529076Y-188286959D01*
X81370153Y-185621887D02*
X81400414Y-185670047D01*
X120164428Y-189959100D02*
X176644666Y-189959100D01*
X81846631Y-185568201D02*
X81853000Y-185511681D01*
X77342509Y-184725074D02*
X77444825Y-184827390D01*
X81853000Y-185511681D02*
X81853000Y-184048692D01*
X81993974Y-183645810D02*
X82096290Y-183543494D01*
X78234774Y-183645810D02*
X78337090Y-183543494D01*
X79829606Y-185740527D02*
X79877766Y-185710266D01*
X79099591Y-183466511D02*
X79222109Y-183543494D01*
X77839800Y-185765681D02*
X77896320Y-185759312D01*
X78110000Y-183904905D02*
X78157791Y-183768328D01*
X81345000Y-185511681D02*
X81351368Y-185568201D01*
X79989600Y-183904905D02*
X80037391Y-183768328D01*
X79401408Y-183768328D02*
X79449199Y-183904905D01*
X81542479Y-185759312D02*
X81599000Y-185765681D01*
X176644666Y-189959100D02*
X176743967Y-190058401D01*
X49207713Y-188286959D02*
X52910572Y-184584100D01*
X79222109Y-183543494D02*
X79324425Y-183645810D01*
X179759580Y-187990421D02*
X179875000Y-187875001D01*
X83224600Y-184330100D02*
X83230968Y-184386621D01*
X30529076Y-188286959D02*
X49207713Y-188286959D01*
X30025000Y-188100000D02*
X30025000Y-188100001D01*
X30025000Y-188100001D02*
X30130614Y-188205615D01*
X77681433Y-185710266D02*
X77729593Y-185740527D01*
X52910572Y-184584100D02*
X76939627Y-184584100D01*
X78963014Y-183418720D02*
X79099591Y-183466511D01*
X76939627Y-184584100D02*
X77083414Y-184600300D01*
X80216690Y-183543494D02*
X80339208Y-183466511D01*
X77083414Y-184600300D02*
X77219991Y-184648091D01*
X81655520Y-185759312D02*
X81709206Y-185740527D01*
X77219991Y-184648091D02*
X77342509Y-184725074D01*
X82096290Y-183543494D02*
X82218808Y-183466511D01*
X83478600Y-184584100D02*
X114789428Y-184584100D01*
X77444825Y-184827390D02*
X77521808Y-184949908D01*
X77521808Y-184949908D02*
X77569599Y-185086485D01*
X78739972Y-183402519D02*
X78819227Y-183402519D01*
X80114374Y-183645810D02*
X80216690Y-183543494D01*
X81709206Y-185740527D02*
X81757366Y-185710266D01*
X77585800Y-185511681D02*
X77592168Y-185568201D01*
X77610953Y-185621887D02*
X77641214Y-185670047D01*
X77641214Y-185670047D02*
X77681433Y-185710266D01*
X77783279Y-185759312D02*
X77839800Y-185765681D01*
X77950006Y-185740527D02*
X77998166Y-185710266D01*
X78038385Y-185670047D02*
X78068646Y-185621887D01*
X78068646Y-185621887D02*
X78087431Y-185568201D01*
X78087431Y-185568201D02*
X78093800Y-185511681D01*
X78093800Y-185511681D02*
X78093800Y-184048692D01*
X79324425Y-183645810D02*
X79401408Y-183768328D01*
X79561033Y-185710266D02*
X79609193Y-185740527D01*
X78093800Y-184048692D02*
X78110000Y-183904905D01*
X78157791Y-183768328D02*
X78234774Y-183645810D01*
X78337090Y-183543494D02*
X78459608Y-183466511D01*
X78459608Y-183466511D02*
X78596185Y-183418720D01*
X78596185Y-183418720D02*
X78739972Y-183402519D01*
X78819227Y-183402519D02*
X78963014Y-183418720D01*
X79449199Y-183904905D02*
X79465400Y-184048692D01*
X176743967Y-190058401D02*
X177256033Y-190058401D01*
X79465400Y-184048692D02*
X79465400Y-185511681D01*
X79465400Y-185511681D02*
X79471768Y-185568201D01*
X79471768Y-185568201D02*
X79490553Y-185621887D01*
X79490553Y-185621887D02*
X79520814Y-185670047D01*
X79609193Y-185740527D02*
X79662879Y-185759312D01*
X79662879Y-185759312D02*
X79719400Y-185765681D01*
X79719400Y-185765681D02*
X79775920Y-185759312D01*
X79775920Y-185759312D02*
X79829606Y-185740527D01*
X79877766Y-185710266D02*
X79917985Y-185670047D01*
X79917985Y-185670047D02*
X79948246Y-185621887D01*
X79967031Y-185568201D02*
X79973400Y-185511681D01*
X79973400Y-184048692D02*
X79989600Y-183904905D01*
X83208399Y-183904905D02*
X83224600Y-184048692D01*
X80037391Y-183768328D02*
X80114374Y-183645810D01*
X83422079Y-184577732D02*
X83478600Y-184584100D01*
X80339208Y-183466511D02*
X80475785Y-183418720D01*
X80698827Y-183402519D02*
X80842614Y-183418720D01*
X80979191Y-183466511D02*
X81101709Y-183543494D01*
X81101709Y-183543494D02*
X81204025Y-183645810D01*
X81204025Y-183645810D02*
X81281008Y-183768328D01*
X81281008Y-183768328D02*
X81328799Y-183904905D01*
X81328799Y-183904905D02*
X81345000Y-184048692D01*
X81400414Y-185670047D02*
X81440633Y-185710266D01*
X81488793Y-185740527D02*
X81542479Y-185759312D01*
X179324013Y-187990421D02*
X179759580Y-187990421D01*
X81599000Y-185765681D02*
X81655520Y-185759312D01*
X81757366Y-185710266D02*
X81797585Y-185670047D01*
X81797585Y-185670047D02*
X81827846Y-185621887D01*
X81827846Y-185621887D02*
X81846631Y-185568201D01*
X81853000Y-184048692D02*
X81869200Y-183904905D01*
X82722214Y-183418720D02*
X82858791Y-183466511D01*
X81869200Y-183904905D02*
X81916991Y-183768328D01*
X81916991Y-183768328D02*
X81993974Y-183645810D01*
X82218808Y-183466511D02*
X82355385Y-183418720D01*
X82355385Y-183418720D02*
X82499172Y-183402519D01*
X82499172Y-183402519D02*
X82578427Y-183402519D01*
X82578427Y-183402519D02*
X82722214Y-183418720D01*
X82858791Y-183466511D02*
X82981309Y-183543494D01*
X82981309Y-183543494D02*
X83083625Y-183645810D01*
X83320233Y-184528686D02*
X83368393Y-184558947D01*
X83160608Y-183768328D02*
X83208399Y-183904905D01*
X83224600Y-184048692D02*
X83224600Y-184330100D01*
X83230968Y-184386621D02*
X83249753Y-184440307D01*
X83368393Y-184558947D02*
X83422079Y-184577732D01*
X177256033Y-190058401D02*
X179324013Y-187990421D01*
X179875000Y-187875001D02*
X179875000Y-187875000D01*
X76900000Y-185015900D02*
X76956520Y-185022268D01*
X79399408Y-186133489D02*
X79535985Y-186181280D01*
X179759580Y-188422219D02*
X179877390Y-188540029D01*
X77656385Y-186181280D02*
X77800172Y-186197481D01*
X78525600Y-184088319D02*
X78531968Y-184031799D01*
X80341208Y-185831672D02*
X80388999Y-185695095D01*
X78525600Y-185551308D02*
X78525600Y-184088319D01*
X95734549Y-185617518D02*
X95770290Y-185560637D01*
X179502859Y-188422219D02*
X179759580Y-188422219D01*
X94112953Y-185665021D02*
X94169834Y-185700762D01*
X77154000Y-185269900D02*
X77154000Y-185551308D01*
X78531968Y-184031799D02*
X78550753Y-183978113D01*
X30211958Y-188718757D02*
X49386571Y-188718757D01*
X49386571Y-188718757D02*
X53089428Y-185015900D01*
X53089428Y-185015900D02*
X76900000Y-185015900D01*
X76956520Y-185022268D02*
X77010206Y-185041053D01*
X77058366Y-185071314D02*
X77098585Y-185111533D01*
X77010206Y-185041053D02*
X77058366Y-185071314D01*
X77147631Y-185213379D02*
X77154000Y-185269900D01*
X81279008Y-186133489D02*
X81415585Y-186181280D01*
X95207521Y-185497228D02*
X95229709Y-185560637D01*
X77098585Y-185111533D02*
X77128846Y-185159693D01*
X77397290Y-186056506D02*
X77519808Y-186133489D01*
X80817566Y-183889734D02*
X80857785Y-183929953D01*
X77217991Y-185831672D02*
X77294974Y-185954190D01*
X77128846Y-185159693D02*
X77147631Y-185213379D01*
X77170200Y-185695095D02*
X77217991Y-185831672D01*
X94629709Y-185185734D02*
X94665450Y-185128853D01*
X82284800Y-185551308D02*
X82284800Y-184088319D01*
X77154000Y-185551308D02*
X77170200Y-185695095D01*
X79027231Y-184031799D02*
X79033600Y-184088319D01*
X77519808Y-186133489D02*
X77656385Y-186181280D01*
X77294974Y-185954190D02*
X77397290Y-186056506D01*
X93700000Y-185015900D02*
X93766756Y-185023421D01*
X77800172Y-186197481D02*
X77879427Y-186197481D01*
X94712953Y-185081350D02*
X94769834Y-185045609D01*
X77879427Y-186197481D02*
X78023214Y-186181280D01*
X79535985Y-186181280D02*
X79679772Y-186197481D01*
X78023214Y-186181280D02*
X78159791Y-186133489D01*
X78159791Y-186133489D02*
X78282309Y-186056506D01*
X94007521Y-185497228D02*
X94029709Y-185560637D01*
X94430165Y-185700762D02*
X94487046Y-185665021D01*
X78282309Y-186056506D02*
X78384625Y-185954190D01*
X79679772Y-186197481D02*
X79759027Y-186197481D01*
X82767646Y-183978113D02*
X82786431Y-184031799D01*
X78384625Y-185954190D02*
X78461608Y-185831672D01*
X78461608Y-185831672D02*
X78509399Y-185695095D01*
X94900000Y-185015900D02*
X94966756Y-185023421D01*
X93992478Y-185249143D02*
X94000000Y-185315900D01*
X78509399Y-185695095D02*
X78525600Y-185551308D01*
X82737385Y-183929953D02*
X82767646Y-183978113D01*
X78550753Y-183978113D02*
X78581014Y-183929953D01*
X81638627Y-186197481D02*
X81782414Y-186181280D01*
X80405200Y-184088319D02*
X80411568Y-184031799D01*
X95200000Y-185430472D02*
X95207521Y-185497228D01*
X78621233Y-183889734D02*
X78669393Y-183859473D01*
X78581014Y-183929953D02*
X78621233Y-183889734D01*
X81054174Y-185954190D02*
X81156490Y-186056506D01*
X78669393Y-183859473D02*
X78723079Y-183840688D01*
X95566756Y-185722950D02*
X95630165Y-185700762D01*
X95800000Y-185315900D02*
X95807521Y-185249143D01*
X82786431Y-184031799D02*
X82792800Y-184088319D01*
X82856791Y-184650092D02*
X82933774Y-184772610D01*
X81782414Y-186181280D02*
X81918991Y-186133489D01*
X78723079Y-183840688D02*
X78779600Y-183834319D01*
X78779600Y-183834319D02*
X78836120Y-183840688D01*
X95170290Y-185185734D02*
X95192478Y-185249143D01*
X80500833Y-183889734D02*
X80548993Y-183859473D01*
X78836120Y-183840688D02*
X78889806Y-183859473D01*
X78889806Y-183859473D02*
X78937966Y-183889734D01*
X80161909Y-186056506D02*
X80264225Y-185954190D01*
X80264225Y-185954190D02*
X80341208Y-185831672D01*
X78937966Y-183889734D02*
X78978185Y-183929953D01*
X78978185Y-183929953D02*
X79008446Y-183978113D01*
X114610572Y-185015900D02*
X120010572Y-190415900D01*
X93970290Y-185185734D02*
X93992478Y-185249143D01*
X79008446Y-183978113D02*
X79027231Y-184031799D01*
X79033600Y-184088319D02*
X79033600Y-185551308D01*
X94769834Y-185045609D02*
X94833243Y-185023421D01*
X79033600Y-185551308D02*
X79049800Y-185695095D01*
X82268599Y-185695095D02*
X82284800Y-185551308D01*
X79049800Y-185695095D02*
X79097591Y-185831672D01*
X79097591Y-185831672D02*
X79174574Y-185954190D01*
X95087046Y-185081350D02*
X95134549Y-185128853D01*
X95433243Y-185722950D02*
X95500000Y-185730472D01*
X83438972Y-185015900D02*
X93700000Y-185015900D01*
X82309953Y-183978113D02*
X82340214Y-183929953D01*
X82143825Y-185954190D02*
X82220808Y-185831672D01*
X79174574Y-185954190D02*
X79276890Y-186056506D01*
X94300000Y-185730472D02*
X94366756Y-185722950D01*
X93766756Y-185023421D02*
X93830165Y-185045609D01*
X79276890Y-186056506D02*
X79399408Y-186133489D01*
X79759027Y-186197481D02*
X79902814Y-186181280D01*
X80411568Y-184031799D02*
X80430353Y-183978113D01*
X79902814Y-186181280D02*
X80039391Y-186133489D01*
X80039391Y-186133489D02*
X80161909Y-186056506D01*
X95865450Y-185128853D02*
X95912953Y-185081350D01*
X80388999Y-185695095D02*
X80405200Y-185551308D01*
X80405200Y-185551308D02*
X80405200Y-184088319D01*
X82482279Y-183840688D02*
X82538800Y-183834319D01*
X95200000Y-185315900D02*
X95200000Y-185430472D01*
X95829709Y-185185734D02*
X95865450Y-185128853D01*
X80460614Y-183929953D02*
X80500833Y-183889734D01*
X80430353Y-183978113D02*
X80460614Y-183929953D01*
X80548993Y-183859473D02*
X80602679Y-183840688D01*
X82792800Y-184369728D02*
X82809000Y-184513515D01*
X80602679Y-183840688D02*
X80659200Y-183834319D01*
X82220808Y-185831672D02*
X82268599Y-185695095D01*
X80659200Y-183834319D02*
X80715720Y-183840688D01*
X81918991Y-186133489D02*
X82041509Y-186056506D01*
X80715720Y-183840688D02*
X80769406Y-183859473D01*
X80769406Y-183859473D02*
X80817566Y-183889734D01*
X80857785Y-183929953D02*
X80888046Y-183978113D01*
X95192478Y-185249143D02*
X95200000Y-185315900D01*
X80888046Y-183978113D02*
X80906831Y-184031799D01*
X93887046Y-185081350D02*
X93934549Y-185128853D01*
X94029709Y-185560637D02*
X94065450Y-185617518D01*
X80906831Y-184031799D02*
X80913200Y-184088319D01*
X80913200Y-184088319D02*
X80913200Y-185551308D01*
X94607521Y-185249143D02*
X94629709Y-185185734D01*
X80913200Y-185551308D02*
X80929400Y-185695095D01*
X95687046Y-185665021D02*
X95734549Y-185617518D01*
X80929400Y-185695095D02*
X80977191Y-185831672D01*
X94600000Y-185430472D02*
X94600000Y-185315900D01*
X80977191Y-185831672D02*
X81054174Y-185954190D01*
X94534549Y-185617518D02*
X94570290Y-185560637D01*
X81559372Y-186197481D02*
X81638627Y-186197481D01*
X95969834Y-185045609D02*
X96033243Y-185023421D01*
X81156490Y-186056506D02*
X81279008Y-186133489D01*
X81415585Y-186181280D02*
X81559372Y-186197481D01*
X82041509Y-186056506D02*
X82143825Y-185954190D01*
X82284800Y-184088319D02*
X82291168Y-184031799D01*
X82291168Y-184031799D02*
X82309953Y-183978113D01*
X82340214Y-183929953D02*
X82380433Y-183889734D01*
X82380433Y-183889734D02*
X82428593Y-183859473D01*
X82428593Y-183859473D02*
X82482279Y-183840688D01*
X96100000Y-185015900D02*
X114610572Y-185015900D01*
X82538800Y-183834319D02*
X82595320Y-183840688D01*
X96033243Y-185023421D02*
X96100000Y-185015900D01*
X82595320Y-183840688D02*
X82649006Y-183859473D01*
X82649006Y-183859473D02*
X82697166Y-183889734D01*
X82697166Y-183889734D02*
X82737385Y-183929953D01*
X82792800Y-184088319D02*
X82792800Y-184369728D01*
X95807521Y-185249143D02*
X95829709Y-185185734D01*
X82809000Y-184513515D02*
X82856791Y-184650092D01*
X82933774Y-184772610D02*
X83036090Y-184874926D01*
X83036090Y-184874926D02*
X83158608Y-184951909D01*
X83158608Y-184951909D02*
X83295185Y-184999700D01*
X83295185Y-184999700D02*
X83438972Y-185015900D01*
X94169834Y-185700762D02*
X94233243Y-185722950D01*
X93830165Y-185045609D02*
X93887046Y-185081350D01*
X94233243Y-185722950D02*
X94300000Y-185730472D01*
X93934549Y-185128853D02*
X93970290Y-185185734D01*
X94000000Y-185315900D02*
X94000000Y-185430472D01*
X94592478Y-185497228D02*
X94600000Y-185430472D01*
X94000000Y-185430472D02*
X94007521Y-185497228D01*
X94065450Y-185617518D02*
X94112953Y-185665021D01*
X94366756Y-185722950D02*
X94430165Y-185700762D01*
X94487046Y-185665021D02*
X94534549Y-185617518D01*
X94570290Y-185560637D02*
X94592478Y-185497228D01*
X94600000Y-185315900D02*
X94607521Y-185249143D01*
X94665450Y-185128853D02*
X94712953Y-185081350D01*
X95265450Y-185617518D02*
X95312953Y-185665021D01*
X94833243Y-185023421D02*
X94900000Y-185015900D01*
X95800000Y-185430472D02*
X95800000Y-185315900D01*
X94966756Y-185023421D02*
X95030165Y-185045609D01*
X95229709Y-185560637D02*
X95265450Y-185617518D01*
X95030165Y-185045609D02*
X95087046Y-185081350D01*
X95134549Y-185128853D02*
X95170290Y-185185734D01*
X95630165Y-185700762D02*
X95687046Y-185665021D01*
X95312953Y-185665021D02*
X95369834Y-185700762D01*
X95369834Y-185700762D02*
X95433243Y-185722950D01*
X95500000Y-185730472D02*
X95566756Y-185722950D01*
X95770290Y-185560637D02*
X95792478Y-185497228D01*
X95792478Y-185497228D02*
X95800000Y-185430472D01*
X95912953Y-185081350D02*
X95969834Y-185045609D01*
X120010572Y-190415900D02*
X176490822Y-190415900D01*
X176490822Y-190415900D02*
X176565113Y-190490191D01*
X176565113Y-190490191D02*
X177434886Y-190490192D01*
X177434886Y-190490192D02*
X179502859Y-188422219D01*
X30191699Y-188739016D02*
X30211958Y-188718757D01*
X30211958Y-188718757D02*
X30213429Y-188718757D01*
X176814428Y-193315900D02*
X173973143Y-193315900D01*
X173973143Y-193315900D02*
X172375143Y-191717900D01*
X172375143Y-191717900D02*
X172300000Y-191717900D01*
X180514429Y-189615899D02*
X176814428Y-193315900D01*
X180675000Y-189742900D02*
X180547999Y-189615899D01*
X180547999Y-189615899D02*
X180514429Y-189615899D01*
X176635572Y-192884100D02*
X174152000Y-192884100D01*
X172452399Y-191184499D02*
X172300000Y-191032100D01*
X174152000Y-192884100D02*
X172833401Y-191565501D01*
X172556033Y-191184499D02*
X172452399Y-191184499D01*
X172833401Y-191565501D02*
X172833401Y-191461867D01*
X172833401Y-191461867D02*
X172556033Y-191184499D01*
X180335571Y-189184101D02*
X176635572Y-192884100D01*
X180675000Y-189057100D02*
X180547999Y-189184101D01*
X180547999Y-189184101D02*
X180335571Y-189184101D01*
M02*
