G04 #@! TF.FileFunction,Copper,L2,Inr,Plane*
%FSLAX46Y46*%
G04 Gerber Fmt 4.6, Leading zero omitted, Abs format (unit mm)*
G04 Created by KiCad (PCBNEW 0.201603021449+6606~42~ubuntu14.04.1-product) date Wed 02 Mar 2016 02:15:13 PM PST*
%MOMM*%
G01*
G04 APERTURE LIST*
%ADD10C,0.100000*%
%ADD11C,2.540000*%
%ADD12C,2.200000*%
%ADD13C,0.508000*%
%ADD14C,0.254000*%
G04 APERTURE END LIST*
D10*
D11*
X164500000Y-196000000D03*
X164500000Y-174500000D03*
X14500000Y-174500000D03*
D12*
X49500000Y-192925000D03*
X199505000Y-192925000D03*
D11*
X14500000Y-196000000D03*
D13*
X140300000Y-178999090D03*
X180705564Y-179979902D03*
X172700000Y-181100000D03*
X173500000Y-181137491D03*
X177000000Y-185300000D03*
X177000000Y-183500000D03*
X177000000Y-180800000D03*
X176975000Y-187200000D03*
X177000000Y-189525000D03*
X176975000Y-191200000D03*
X24300000Y-178700000D03*
X23800000Y-179500000D03*
X27000000Y-184675000D03*
X26975000Y-182875000D03*
X27000000Y-181100000D03*
X27000000Y-187200000D03*
X27000000Y-191200000D03*
X27000000Y-190100000D03*
X27000000Y-188900000D03*
X25475000Y-178700000D03*
X22875000Y-179500000D03*
X23325000Y-180750000D03*
X169450000Y-186708410D03*
X22609375Y-186241728D03*
X170050000Y-187080380D03*
X22885259Y-186894448D03*
X171272325Y-187575690D03*
X22976604Y-187548502D03*
X176717516Y-187808138D03*
X22844781Y-188222828D03*
X172225000Y-189250690D03*
X22694573Y-189036204D03*
X172950000Y-189250690D03*
X23300000Y-189300000D03*
X174900000Y-192075000D03*
X176000000Y-192075000D03*
X174175000Y-191475000D03*
X173825000Y-189375000D03*
X173700000Y-190949310D03*
X24300000Y-192250000D03*
X26350000Y-192200000D03*
X25400000Y-192000000D03*
X23875000Y-190700000D03*
X23900000Y-191475000D03*
X140300000Y-178313290D03*
X180695893Y-179319571D03*
X180675000Y-180639597D03*
X172325000Y-179757100D03*
X180675000Y-181300000D03*
X172325000Y-180442900D03*
X179925000Y-181850000D03*
X23700000Y-181900000D03*
X179932677Y-182523006D03*
X23700000Y-182560403D03*
X179950000Y-183250000D03*
X22900000Y-183000000D03*
X179950000Y-183910403D03*
X22883120Y-183680682D03*
X181375000Y-184425000D03*
X23950000Y-184214390D03*
X181375000Y-185085403D03*
X23950000Y-184925000D03*
X180200000Y-185514597D03*
X22900000Y-184925000D03*
X180200000Y-186175000D03*
X22879965Y-185605438D03*
X31842466Y-187132534D03*
X180775000Y-186639597D03*
X31357534Y-187617466D03*
X180775000Y-187300000D03*
X30025000Y-188100000D03*
X179875000Y-187875000D03*
X30191699Y-188739016D03*
X179877390Y-188540029D03*
X180675000Y-189742900D03*
X172300000Y-191717900D03*
X172300000Y-191032100D03*
X180675000Y-189057100D03*
D14*
G36*
X122896103Y-171543723D02*
X123231902Y-171768098D01*
X123456277Y-172103897D01*
X123544000Y-172544913D01*
X123544000Y-176500000D01*
X123552762Y-176544050D01*
X123552762Y-176588961D01*
X123666943Y-177162987D01*
X123735031Y-177327366D01*
X123735033Y-177327368D01*
X124060190Y-177814000D01*
X124186000Y-177939810D01*
X124672632Y-178264967D01*
X124672634Y-178264969D01*
X124837014Y-178333057D01*
X125411039Y-178447238D01*
X125455950Y-178447238D01*
X125500000Y-178456000D01*
X139671896Y-178456000D01*
X139754715Y-178656436D01*
X139665111Y-178872227D01*
X139664890Y-179124845D01*
X139761360Y-179358318D01*
X139939832Y-179537103D01*
X140173137Y-179633979D01*
X140425755Y-179634200D01*
X140659228Y-179537730D01*
X140838013Y-179359258D01*
X140934889Y-179125953D01*
X140935110Y-178873335D01*
X140845285Y-178655944D01*
X140928309Y-178456000D01*
X182873000Y-178456000D01*
X182873000Y-194044000D01*
X114456000Y-194044000D01*
X114456000Y-191157855D01*
X171664890Y-191157855D01*
X171754715Y-191375246D01*
X171665111Y-191591037D01*
X171664890Y-191843655D01*
X171761360Y-192077128D01*
X171939832Y-192255913D01*
X172173137Y-192352789D01*
X172425755Y-192353010D01*
X172659228Y-192256540D01*
X172838013Y-192078068D01*
X172934889Y-191844763D01*
X172935110Y-191592145D01*
X172845285Y-191374754D01*
X172934889Y-191158963D01*
X172934962Y-191075065D01*
X173064890Y-191075065D01*
X173161360Y-191308538D01*
X173339832Y-191487323D01*
X173539917Y-191570405D01*
X173539890Y-191600755D01*
X173636360Y-191834228D01*
X173814832Y-192013013D01*
X174048137Y-192109889D01*
X174264969Y-192110079D01*
X174264890Y-192200755D01*
X174361360Y-192434228D01*
X174539832Y-192613013D01*
X174773137Y-192709889D01*
X175025755Y-192710110D01*
X175259228Y-192613640D01*
X175438013Y-192435168D01*
X175449910Y-192406517D01*
X175461360Y-192434228D01*
X175639832Y-192613013D01*
X175873137Y-192709889D01*
X176125755Y-192710110D01*
X176359228Y-192613640D01*
X176538013Y-192435168D01*
X176634889Y-192201863D01*
X176635110Y-191949245D01*
X176538640Y-191715772D01*
X176360168Y-191536987D01*
X176126863Y-191440111D01*
X175874245Y-191439890D01*
X175640772Y-191536360D01*
X175461987Y-191714832D01*
X175450090Y-191743483D01*
X175438640Y-191715772D01*
X175260168Y-191536987D01*
X175026863Y-191440111D01*
X174810031Y-191439921D01*
X174810110Y-191349245D01*
X174713640Y-191115772D01*
X174535168Y-190936987D01*
X174335083Y-190853905D01*
X174335110Y-190823555D01*
X174238640Y-190590082D01*
X174060168Y-190411297D01*
X173826863Y-190314421D01*
X173574245Y-190314200D01*
X173340772Y-190410670D01*
X173161987Y-190589142D01*
X173065111Y-190822447D01*
X173064890Y-191075065D01*
X172934962Y-191075065D01*
X172935110Y-190906345D01*
X172838640Y-190672872D01*
X172660168Y-190494087D01*
X172426863Y-190397211D01*
X172174245Y-190396990D01*
X171940772Y-190493460D01*
X171761987Y-190671932D01*
X171665111Y-190905237D01*
X171664890Y-191157855D01*
X114456000Y-191157855D01*
X114456000Y-189376445D01*
X171589890Y-189376445D01*
X171686360Y-189609918D01*
X171864832Y-189788703D01*
X172098137Y-189885579D01*
X172350755Y-189885800D01*
X172584228Y-189789330D01*
X172587348Y-189786215D01*
X172589832Y-189788703D01*
X172823137Y-189885579D01*
X173075755Y-189885800D01*
X173309228Y-189789330D01*
X173325325Y-189773261D01*
X173464832Y-189913013D01*
X173698137Y-190009889D01*
X173950755Y-190010110D01*
X174184228Y-189913640D01*
X174363013Y-189735168D01*
X174459889Y-189501863D01*
X174460110Y-189249245D01*
X174363640Y-189015772D01*
X174185168Y-188836987D01*
X173951863Y-188740111D01*
X173699245Y-188739890D01*
X173465772Y-188836360D01*
X173449675Y-188852429D01*
X173310168Y-188712677D01*
X173076863Y-188615801D01*
X172824245Y-188615580D01*
X172590772Y-188712050D01*
X172587652Y-188715165D01*
X172585168Y-188712677D01*
X172351863Y-188615801D01*
X172099245Y-188615580D01*
X171865772Y-188712050D01*
X171686987Y-188890522D01*
X171590111Y-189123827D01*
X171589890Y-189376445D01*
X114456000Y-189376445D01*
X114456000Y-188000000D01*
X114447238Y-187955950D01*
X114447238Y-187911039D01*
X114333057Y-187337014D01*
X114264969Y-187172634D01*
X114264967Y-187172632D01*
X114038811Y-186834165D01*
X168814890Y-186834165D01*
X168911360Y-187067638D01*
X169089832Y-187246423D01*
X169323137Y-187343299D01*
X169471619Y-187343429D01*
X169511360Y-187439608D01*
X169689832Y-187618393D01*
X169923137Y-187715269D01*
X170175755Y-187715490D01*
X170209746Y-187701445D01*
X170637215Y-187701445D01*
X170733685Y-187934918D01*
X170912157Y-188113703D01*
X171145462Y-188210579D01*
X171398080Y-188210800D01*
X171631553Y-188114330D01*
X171810338Y-187935858D01*
X171811153Y-187933893D01*
X176082406Y-187933893D01*
X176178876Y-188167366D01*
X176357348Y-188346151D01*
X176590653Y-188443027D01*
X176843271Y-188443248D01*
X177076744Y-188346778D01*
X177255529Y-188168306D01*
X177325101Y-188000755D01*
X179239890Y-188000755D01*
X179326605Y-188210619D01*
X179242501Y-188413166D01*
X179242280Y-188665784D01*
X179338750Y-188899257D01*
X179517222Y-189078042D01*
X179750527Y-189174918D01*
X180003145Y-189175139D01*
X180039910Y-189159948D01*
X180039890Y-189182855D01*
X180129715Y-189400246D01*
X180040111Y-189616037D01*
X180039890Y-189868655D01*
X180136360Y-190102128D01*
X180314832Y-190280913D01*
X180548137Y-190377789D01*
X180800755Y-190378010D01*
X181034228Y-190281540D01*
X181213013Y-190103068D01*
X181309889Y-189869763D01*
X181310110Y-189617145D01*
X181220285Y-189399754D01*
X181309889Y-189183963D01*
X181310110Y-188931345D01*
X181213640Y-188697872D01*
X181035168Y-188519087D01*
X180801863Y-188422211D01*
X180549245Y-188421990D01*
X180512480Y-188437181D01*
X180512500Y-188414274D01*
X180425785Y-188204410D01*
X180509889Y-188001863D01*
X180509998Y-187877529D01*
X180648137Y-187934889D01*
X180900755Y-187935110D01*
X181134228Y-187838640D01*
X181313013Y-187660168D01*
X181409889Y-187426863D01*
X181410110Y-187174245D01*
X181325545Y-186969584D01*
X181409889Y-186766460D01*
X181410110Y-186513842D01*
X181313640Y-186280369D01*
X181135168Y-186101584D01*
X180901863Y-186004708D01*
X180816677Y-186004633D01*
X180750545Y-185844584D01*
X180834889Y-185641460D01*
X180835064Y-185441494D01*
X180836360Y-185444631D01*
X181014832Y-185623416D01*
X181248137Y-185720292D01*
X181500755Y-185720513D01*
X181734228Y-185624043D01*
X181913013Y-185445571D01*
X182009889Y-185212266D01*
X182010110Y-184959648D01*
X181925545Y-184754987D01*
X182009889Y-184551863D01*
X182010110Y-184299245D01*
X181913640Y-184065772D01*
X181735168Y-183886987D01*
X181501863Y-183790111D01*
X181249245Y-183789890D01*
X181015772Y-183886360D01*
X180836987Y-184064832D01*
X180740111Y-184298137D01*
X180739890Y-184550755D01*
X180824455Y-184755416D01*
X180740111Y-184958540D01*
X180739936Y-185158506D01*
X180738640Y-185155369D01*
X180560168Y-184976584D01*
X180326863Y-184879708D01*
X180074245Y-184879487D01*
X179840772Y-184975957D01*
X179661987Y-185154429D01*
X179565111Y-185387734D01*
X179564890Y-185640352D01*
X179649455Y-185845013D01*
X179565111Y-186048137D01*
X179564890Y-186300755D01*
X179661360Y-186534228D01*
X179839832Y-186713013D01*
X180073137Y-186809889D01*
X180158323Y-186809964D01*
X180224455Y-186970013D01*
X180140111Y-187173137D01*
X180140002Y-187297471D01*
X180001863Y-187240111D01*
X179749245Y-187239890D01*
X179515772Y-187336360D01*
X179336987Y-187514832D01*
X179240111Y-187748137D01*
X179239890Y-188000755D01*
X177325101Y-188000755D01*
X177352405Y-187935001D01*
X177352626Y-187682383D01*
X177256156Y-187448910D01*
X177077684Y-187270125D01*
X176844379Y-187173249D01*
X176591761Y-187173028D01*
X176358288Y-187269498D01*
X176179503Y-187447970D01*
X176082627Y-187681275D01*
X176082406Y-187933893D01*
X171811153Y-187933893D01*
X171907214Y-187702553D01*
X171907435Y-187449935D01*
X171810965Y-187216462D01*
X171632493Y-187037677D01*
X171399188Y-186940801D01*
X171146570Y-186940580D01*
X170913097Y-187037050D01*
X170734312Y-187215522D01*
X170637436Y-187448827D01*
X170637215Y-187701445D01*
X170209746Y-187701445D01*
X170409228Y-187619020D01*
X170588013Y-187440548D01*
X170684889Y-187207243D01*
X170685110Y-186954625D01*
X170588640Y-186721152D01*
X170410168Y-186542367D01*
X170176863Y-186445491D01*
X170028381Y-186445361D01*
X169988640Y-186349182D01*
X169810168Y-186170397D01*
X169576863Y-186073521D01*
X169324245Y-186073300D01*
X169090772Y-186169770D01*
X168911987Y-186348242D01*
X168815111Y-186581547D01*
X168814890Y-186834165D01*
X114038811Y-186834165D01*
X113939810Y-186686000D01*
X113814000Y-186560190D01*
X113327368Y-186235033D01*
X113327366Y-186235031D01*
X113162987Y-186166943D01*
X112588961Y-186052762D01*
X112544050Y-186052762D01*
X112500000Y-186044000D01*
X53000000Y-186044000D01*
X52955950Y-186052762D01*
X52911039Y-186052762D01*
X52337014Y-186166943D01*
X52172634Y-186235031D01*
X52172632Y-186235033D01*
X51686000Y-186560190D01*
X51560190Y-186686000D01*
X51235033Y-187172632D01*
X51235031Y-187172634D01*
X51166943Y-187337013D01*
X51052762Y-187911039D01*
X51052762Y-187955950D01*
X51044000Y-188000000D01*
X51044000Y-194044000D01*
X50475326Y-194044000D01*
X50754799Y-193765015D01*
X50980743Y-193220882D01*
X50981257Y-192631703D01*
X50756263Y-192087177D01*
X50340015Y-191670201D01*
X49795882Y-191444257D01*
X49206703Y-191443743D01*
X48662177Y-191668737D01*
X48245201Y-192084985D01*
X48019257Y-192629118D01*
X48018743Y-193218297D01*
X48243737Y-193762823D01*
X48524423Y-194044000D01*
X22456000Y-194044000D01*
X22456000Y-190825755D01*
X23239890Y-190825755D01*
X23336360Y-191059228D01*
X23376953Y-191099892D01*
X23361987Y-191114832D01*
X23265111Y-191348137D01*
X23264890Y-191600755D01*
X23361360Y-191834228D01*
X23539832Y-192013013D01*
X23685690Y-192073578D01*
X23665111Y-192123137D01*
X23664890Y-192375755D01*
X23761360Y-192609228D01*
X23939832Y-192788013D01*
X24173137Y-192884889D01*
X24425755Y-192885110D01*
X24659228Y-192788640D01*
X24838013Y-192610168D01*
X24918460Y-192416428D01*
X25039832Y-192538013D01*
X25273137Y-192634889D01*
X25525755Y-192635110D01*
X25759228Y-192538640D01*
X25790114Y-192507808D01*
X25811360Y-192559228D01*
X25989832Y-192738013D01*
X26223137Y-192834889D01*
X26475755Y-192835110D01*
X26709228Y-192738640D01*
X26888013Y-192560168D01*
X26984889Y-192326863D01*
X26985110Y-192074245D01*
X26888640Y-191840772D01*
X26710168Y-191661987D01*
X26476863Y-191565111D01*
X26224245Y-191564890D01*
X25990772Y-191661360D01*
X25959886Y-191692192D01*
X25938640Y-191640772D01*
X25760168Y-191461987D01*
X25526863Y-191365111D01*
X25274245Y-191364890D01*
X25040772Y-191461360D01*
X24861987Y-191639832D01*
X24781540Y-191833572D01*
X24660168Y-191711987D01*
X24514310Y-191651422D01*
X24534889Y-191601863D01*
X24535110Y-191349245D01*
X24438640Y-191115772D01*
X24398047Y-191075108D01*
X24413013Y-191060168D01*
X24509889Y-190826863D01*
X24510110Y-190574245D01*
X24413640Y-190340772D01*
X24235168Y-190161987D01*
X24001863Y-190065111D01*
X23749245Y-190064890D01*
X23515772Y-190161360D01*
X23336987Y-190339832D01*
X23240111Y-190573137D01*
X23239890Y-190825755D01*
X22456000Y-190825755D01*
X22456000Y-189624707D01*
X22567710Y-189671093D01*
X22773384Y-189671273D01*
X22939832Y-189838013D01*
X23173137Y-189934889D01*
X23425755Y-189935110D01*
X23659228Y-189838640D01*
X23838013Y-189660168D01*
X23934889Y-189426863D01*
X23935110Y-189174245D01*
X23838640Y-188940772D01*
X23660168Y-188761987D01*
X23426863Y-188665111D01*
X23300646Y-188665001D01*
X23382794Y-188582996D01*
X23479670Y-188349691D01*
X23479778Y-188225755D01*
X29389890Y-188225755D01*
X29486360Y-188459228D01*
X29580960Y-188553994D01*
X29556810Y-188612153D01*
X29556589Y-188864771D01*
X29653059Y-189098244D01*
X29831531Y-189277029D01*
X30064836Y-189373905D01*
X30317454Y-189374126D01*
X30550927Y-189277656D01*
X30729712Y-189099184D01*
X30826588Y-188865879D01*
X30826809Y-188613261D01*
X30730339Y-188379788D01*
X30635739Y-188285022D01*
X30659889Y-188226863D01*
X30660110Y-187974245D01*
X30564652Y-187743221D01*
X30722424Y-187743221D01*
X30818894Y-187976694D01*
X30997366Y-188155479D01*
X31230671Y-188252355D01*
X31483289Y-188252576D01*
X31716762Y-188156106D01*
X31895547Y-187977634D01*
X31985749Y-187760401D01*
X32201694Y-187671174D01*
X32380479Y-187492702D01*
X32477355Y-187259397D01*
X32477576Y-187006779D01*
X32381106Y-186773306D01*
X32202634Y-186594521D01*
X31969329Y-186497645D01*
X31716711Y-186497424D01*
X31483238Y-186593894D01*
X31304453Y-186772366D01*
X31214251Y-186989599D01*
X30998306Y-187078826D01*
X30819521Y-187257298D01*
X30722645Y-187490603D01*
X30722424Y-187743221D01*
X30564652Y-187743221D01*
X30563640Y-187740772D01*
X30385168Y-187561987D01*
X30151863Y-187465111D01*
X29899245Y-187464890D01*
X29665772Y-187561360D01*
X29486987Y-187739832D01*
X29390111Y-187973137D01*
X29389890Y-188225755D01*
X23479778Y-188225755D01*
X23479891Y-188097073D01*
X23434918Y-187988230D01*
X23514617Y-187908670D01*
X23611493Y-187675365D01*
X23611714Y-187422747D01*
X23515244Y-187189274D01*
X23469452Y-187143402D01*
X23520148Y-187021311D01*
X23520369Y-186768693D01*
X23423899Y-186535220D01*
X23245427Y-186356435D01*
X23244275Y-186355957D01*
X23244465Y-186138815D01*
X23417978Y-185965606D01*
X23514854Y-185732301D01*
X23515075Y-185479683D01*
X23450525Y-185323462D01*
X23589832Y-185463013D01*
X23823137Y-185559889D01*
X24075755Y-185560110D01*
X24309228Y-185463640D01*
X24488013Y-185285168D01*
X24584889Y-185051863D01*
X24585110Y-184799245D01*
X24490147Y-184569419D01*
X24584889Y-184341253D01*
X24585110Y-184088635D01*
X24488640Y-183855162D01*
X24310168Y-183676377D01*
X24076863Y-183579501D01*
X23824245Y-183579280D01*
X23590772Y-183675750D01*
X23518061Y-183748334D01*
X23518230Y-183554927D01*
X23437831Y-183360349D01*
X23438013Y-183360168D01*
X23516278Y-183171682D01*
X23573137Y-183195292D01*
X23825755Y-183195513D01*
X24059228Y-183099043D01*
X24238013Y-182920571D01*
X24334889Y-182687266D01*
X24335110Y-182434648D01*
X24250545Y-182229987D01*
X24334889Y-182026863D01*
X24334933Y-181975755D01*
X179289890Y-181975755D01*
X179380894Y-182196000D01*
X179297788Y-182396143D01*
X179297567Y-182648761D01*
X179394037Y-182882234D01*
X179408942Y-182897165D01*
X179315111Y-183123137D01*
X179314890Y-183375755D01*
X179399455Y-183580416D01*
X179315111Y-183783540D01*
X179314890Y-184036158D01*
X179411360Y-184269631D01*
X179589832Y-184448416D01*
X179823137Y-184545292D01*
X180075755Y-184545513D01*
X180309228Y-184449043D01*
X180488013Y-184270571D01*
X180584889Y-184037266D01*
X180585110Y-183784648D01*
X180500545Y-183579987D01*
X180584889Y-183376863D01*
X180585110Y-183124245D01*
X180488640Y-182890772D01*
X180473735Y-182875841D01*
X180567566Y-182649869D01*
X180567787Y-182397251D01*
X180476783Y-182177006D01*
X180559889Y-181976863D01*
X180559926Y-181934899D01*
X180800755Y-181935110D01*
X181034228Y-181838640D01*
X181213013Y-181660168D01*
X181309889Y-181426863D01*
X181310110Y-181174245D01*
X181225545Y-180969584D01*
X181309889Y-180766460D01*
X181310110Y-180513842D01*
X181239847Y-180343794D01*
X181243577Y-180340070D01*
X181340453Y-180106765D01*
X181340674Y-179854147D01*
X181251300Y-179637848D01*
X181330782Y-179446434D01*
X181331003Y-179193816D01*
X181234533Y-178960343D01*
X181056061Y-178781558D01*
X180822756Y-178684682D01*
X180570138Y-178684461D01*
X180336665Y-178780931D01*
X180157880Y-178959403D01*
X180061004Y-179192708D01*
X180060783Y-179445326D01*
X180150157Y-179661625D01*
X180070675Y-179853039D01*
X180070454Y-180105657D01*
X180140717Y-180275705D01*
X180136987Y-180279429D01*
X180040111Y-180512734D01*
X180039890Y-180765352D01*
X180124455Y-180970013D01*
X180040111Y-181173137D01*
X180040074Y-181215101D01*
X179799245Y-181214890D01*
X179565772Y-181311360D01*
X179386987Y-181489832D01*
X179290111Y-181723137D01*
X179289890Y-181975755D01*
X24334933Y-181975755D01*
X24335110Y-181774245D01*
X24238640Y-181540772D01*
X24060168Y-181361987D01*
X23826863Y-181265111D01*
X23574245Y-181264890D01*
X23340772Y-181361360D01*
X23161987Y-181539832D01*
X23065111Y-181773137D01*
X23064890Y-182025755D01*
X23149455Y-182230416D01*
X23083722Y-182388721D01*
X23026863Y-182365111D01*
X22774245Y-182364890D01*
X22540772Y-182461360D01*
X22456000Y-182545984D01*
X22456000Y-179882855D01*
X171689890Y-179882855D01*
X171779715Y-180100246D01*
X171690111Y-180316037D01*
X171689890Y-180568655D01*
X171786360Y-180802128D01*
X171964832Y-180980913D01*
X172198137Y-181077789D01*
X172450755Y-181078010D01*
X172684228Y-180981540D01*
X172863013Y-180803068D01*
X172959889Y-180569763D01*
X172960110Y-180317145D01*
X172870285Y-180099754D01*
X172959889Y-179883963D01*
X172960110Y-179631345D01*
X172863640Y-179397872D01*
X172685168Y-179219087D01*
X172451863Y-179122211D01*
X172199245Y-179121990D01*
X171965772Y-179218460D01*
X171786987Y-179396932D01*
X171690111Y-179630237D01*
X171689890Y-179882855D01*
X22456000Y-179882855D01*
X22456000Y-178456000D01*
X46000000Y-178456000D01*
X46044050Y-178447238D01*
X46088961Y-178447238D01*
X46662987Y-178333057D01*
X46827366Y-178264969D01*
X46827368Y-178264967D01*
X47314000Y-177939810D01*
X47439810Y-177814000D01*
X47764967Y-177327368D01*
X47764969Y-177327366D01*
X47833057Y-177162986D01*
X47947238Y-176588961D01*
X47947238Y-176544050D01*
X47956000Y-176500000D01*
X47956000Y-172544912D01*
X48043723Y-172103897D01*
X48268098Y-171768098D01*
X48603897Y-171543723D01*
X49044913Y-171456000D01*
X122455088Y-171456000D01*
X122896103Y-171543723D01*
X122896103Y-171543723D01*
G37*
X122896103Y-171543723D02*
X123231902Y-171768098D01*
X123456277Y-172103897D01*
X123544000Y-172544913D01*
X123544000Y-176500000D01*
X123552762Y-176544050D01*
X123552762Y-176588961D01*
X123666943Y-177162987D01*
X123735031Y-177327366D01*
X123735033Y-177327368D01*
X124060190Y-177814000D01*
X124186000Y-177939810D01*
X124672632Y-178264967D01*
X124672634Y-178264969D01*
X124837014Y-178333057D01*
X125411039Y-178447238D01*
X125455950Y-178447238D01*
X125500000Y-178456000D01*
X139671896Y-178456000D01*
X139754715Y-178656436D01*
X139665111Y-178872227D01*
X139664890Y-179124845D01*
X139761360Y-179358318D01*
X139939832Y-179537103D01*
X140173137Y-179633979D01*
X140425755Y-179634200D01*
X140659228Y-179537730D01*
X140838013Y-179359258D01*
X140934889Y-179125953D01*
X140935110Y-178873335D01*
X140845285Y-178655944D01*
X140928309Y-178456000D01*
X182873000Y-178456000D01*
X182873000Y-194044000D01*
X114456000Y-194044000D01*
X114456000Y-191157855D01*
X171664890Y-191157855D01*
X171754715Y-191375246D01*
X171665111Y-191591037D01*
X171664890Y-191843655D01*
X171761360Y-192077128D01*
X171939832Y-192255913D01*
X172173137Y-192352789D01*
X172425755Y-192353010D01*
X172659228Y-192256540D01*
X172838013Y-192078068D01*
X172934889Y-191844763D01*
X172935110Y-191592145D01*
X172845285Y-191374754D01*
X172934889Y-191158963D01*
X172934962Y-191075065D01*
X173064890Y-191075065D01*
X173161360Y-191308538D01*
X173339832Y-191487323D01*
X173539917Y-191570405D01*
X173539890Y-191600755D01*
X173636360Y-191834228D01*
X173814832Y-192013013D01*
X174048137Y-192109889D01*
X174264969Y-192110079D01*
X174264890Y-192200755D01*
X174361360Y-192434228D01*
X174539832Y-192613013D01*
X174773137Y-192709889D01*
X175025755Y-192710110D01*
X175259228Y-192613640D01*
X175438013Y-192435168D01*
X175449910Y-192406517D01*
X175461360Y-192434228D01*
X175639832Y-192613013D01*
X175873137Y-192709889D01*
X176125755Y-192710110D01*
X176359228Y-192613640D01*
X176538013Y-192435168D01*
X176634889Y-192201863D01*
X176635110Y-191949245D01*
X176538640Y-191715772D01*
X176360168Y-191536987D01*
X176126863Y-191440111D01*
X175874245Y-191439890D01*
X175640772Y-191536360D01*
X175461987Y-191714832D01*
X175450090Y-191743483D01*
X175438640Y-191715772D01*
X175260168Y-191536987D01*
X175026863Y-191440111D01*
X174810031Y-191439921D01*
X174810110Y-191349245D01*
X174713640Y-191115772D01*
X174535168Y-190936987D01*
X174335083Y-190853905D01*
X174335110Y-190823555D01*
X174238640Y-190590082D01*
X174060168Y-190411297D01*
X173826863Y-190314421D01*
X173574245Y-190314200D01*
X173340772Y-190410670D01*
X173161987Y-190589142D01*
X173065111Y-190822447D01*
X173064890Y-191075065D01*
X172934962Y-191075065D01*
X172935110Y-190906345D01*
X172838640Y-190672872D01*
X172660168Y-190494087D01*
X172426863Y-190397211D01*
X172174245Y-190396990D01*
X171940772Y-190493460D01*
X171761987Y-190671932D01*
X171665111Y-190905237D01*
X171664890Y-191157855D01*
X114456000Y-191157855D01*
X114456000Y-189376445D01*
X171589890Y-189376445D01*
X171686360Y-189609918D01*
X171864832Y-189788703D01*
X172098137Y-189885579D01*
X172350755Y-189885800D01*
X172584228Y-189789330D01*
X172587348Y-189786215D01*
X172589832Y-189788703D01*
X172823137Y-189885579D01*
X173075755Y-189885800D01*
X173309228Y-189789330D01*
X173325325Y-189773261D01*
X173464832Y-189913013D01*
X173698137Y-190009889D01*
X173950755Y-190010110D01*
X174184228Y-189913640D01*
X174363013Y-189735168D01*
X174459889Y-189501863D01*
X174460110Y-189249245D01*
X174363640Y-189015772D01*
X174185168Y-188836987D01*
X173951863Y-188740111D01*
X173699245Y-188739890D01*
X173465772Y-188836360D01*
X173449675Y-188852429D01*
X173310168Y-188712677D01*
X173076863Y-188615801D01*
X172824245Y-188615580D01*
X172590772Y-188712050D01*
X172587652Y-188715165D01*
X172585168Y-188712677D01*
X172351863Y-188615801D01*
X172099245Y-188615580D01*
X171865772Y-188712050D01*
X171686987Y-188890522D01*
X171590111Y-189123827D01*
X171589890Y-189376445D01*
X114456000Y-189376445D01*
X114456000Y-188000000D01*
X114447238Y-187955950D01*
X114447238Y-187911039D01*
X114333057Y-187337014D01*
X114264969Y-187172634D01*
X114264967Y-187172632D01*
X114038811Y-186834165D01*
X168814890Y-186834165D01*
X168911360Y-187067638D01*
X169089832Y-187246423D01*
X169323137Y-187343299D01*
X169471619Y-187343429D01*
X169511360Y-187439608D01*
X169689832Y-187618393D01*
X169923137Y-187715269D01*
X170175755Y-187715490D01*
X170209746Y-187701445D01*
X170637215Y-187701445D01*
X170733685Y-187934918D01*
X170912157Y-188113703D01*
X171145462Y-188210579D01*
X171398080Y-188210800D01*
X171631553Y-188114330D01*
X171810338Y-187935858D01*
X171811153Y-187933893D01*
X176082406Y-187933893D01*
X176178876Y-188167366D01*
X176357348Y-188346151D01*
X176590653Y-188443027D01*
X176843271Y-188443248D01*
X177076744Y-188346778D01*
X177255529Y-188168306D01*
X177325101Y-188000755D01*
X179239890Y-188000755D01*
X179326605Y-188210619D01*
X179242501Y-188413166D01*
X179242280Y-188665784D01*
X179338750Y-188899257D01*
X179517222Y-189078042D01*
X179750527Y-189174918D01*
X180003145Y-189175139D01*
X180039910Y-189159948D01*
X180039890Y-189182855D01*
X180129715Y-189400246D01*
X180040111Y-189616037D01*
X180039890Y-189868655D01*
X180136360Y-190102128D01*
X180314832Y-190280913D01*
X180548137Y-190377789D01*
X180800755Y-190378010D01*
X181034228Y-190281540D01*
X181213013Y-190103068D01*
X181309889Y-189869763D01*
X181310110Y-189617145D01*
X181220285Y-189399754D01*
X181309889Y-189183963D01*
X181310110Y-188931345D01*
X181213640Y-188697872D01*
X181035168Y-188519087D01*
X180801863Y-188422211D01*
X180549245Y-188421990D01*
X180512480Y-188437181D01*
X180512500Y-188414274D01*
X180425785Y-188204410D01*
X180509889Y-188001863D01*
X180509998Y-187877529D01*
X180648137Y-187934889D01*
X180900755Y-187935110D01*
X181134228Y-187838640D01*
X181313013Y-187660168D01*
X181409889Y-187426863D01*
X181410110Y-187174245D01*
X181325545Y-186969584D01*
X181409889Y-186766460D01*
X181410110Y-186513842D01*
X181313640Y-186280369D01*
X181135168Y-186101584D01*
X180901863Y-186004708D01*
X180816677Y-186004633D01*
X180750545Y-185844584D01*
X180834889Y-185641460D01*
X180835064Y-185441494D01*
X180836360Y-185444631D01*
X181014832Y-185623416D01*
X181248137Y-185720292D01*
X181500755Y-185720513D01*
X181734228Y-185624043D01*
X181913013Y-185445571D01*
X182009889Y-185212266D01*
X182010110Y-184959648D01*
X181925545Y-184754987D01*
X182009889Y-184551863D01*
X182010110Y-184299245D01*
X181913640Y-184065772D01*
X181735168Y-183886987D01*
X181501863Y-183790111D01*
X181249245Y-183789890D01*
X181015772Y-183886360D01*
X180836987Y-184064832D01*
X180740111Y-184298137D01*
X180739890Y-184550755D01*
X180824455Y-184755416D01*
X180740111Y-184958540D01*
X180739936Y-185158506D01*
X180738640Y-185155369D01*
X180560168Y-184976584D01*
X180326863Y-184879708D01*
X180074245Y-184879487D01*
X179840772Y-184975957D01*
X179661987Y-185154429D01*
X179565111Y-185387734D01*
X179564890Y-185640352D01*
X179649455Y-185845013D01*
X179565111Y-186048137D01*
X179564890Y-186300755D01*
X179661360Y-186534228D01*
X179839832Y-186713013D01*
X180073137Y-186809889D01*
X180158323Y-186809964D01*
X180224455Y-186970013D01*
X180140111Y-187173137D01*
X180140002Y-187297471D01*
X180001863Y-187240111D01*
X179749245Y-187239890D01*
X179515772Y-187336360D01*
X179336987Y-187514832D01*
X179240111Y-187748137D01*
X179239890Y-188000755D01*
X177325101Y-188000755D01*
X177352405Y-187935001D01*
X177352626Y-187682383D01*
X177256156Y-187448910D01*
X177077684Y-187270125D01*
X176844379Y-187173249D01*
X176591761Y-187173028D01*
X176358288Y-187269498D01*
X176179503Y-187447970D01*
X176082627Y-187681275D01*
X176082406Y-187933893D01*
X171811153Y-187933893D01*
X171907214Y-187702553D01*
X171907435Y-187449935D01*
X171810965Y-187216462D01*
X171632493Y-187037677D01*
X171399188Y-186940801D01*
X171146570Y-186940580D01*
X170913097Y-187037050D01*
X170734312Y-187215522D01*
X170637436Y-187448827D01*
X170637215Y-187701445D01*
X170209746Y-187701445D01*
X170409228Y-187619020D01*
X170588013Y-187440548D01*
X170684889Y-187207243D01*
X170685110Y-186954625D01*
X170588640Y-186721152D01*
X170410168Y-186542367D01*
X170176863Y-186445491D01*
X170028381Y-186445361D01*
X169988640Y-186349182D01*
X169810168Y-186170397D01*
X169576863Y-186073521D01*
X169324245Y-186073300D01*
X169090772Y-186169770D01*
X168911987Y-186348242D01*
X168815111Y-186581547D01*
X168814890Y-186834165D01*
X114038811Y-186834165D01*
X113939810Y-186686000D01*
X113814000Y-186560190D01*
X113327368Y-186235033D01*
X113327366Y-186235031D01*
X113162987Y-186166943D01*
X112588961Y-186052762D01*
X112544050Y-186052762D01*
X112500000Y-186044000D01*
X53000000Y-186044000D01*
X52955950Y-186052762D01*
X52911039Y-186052762D01*
X52337014Y-186166943D01*
X52172634Y-186235031D01*
X52172632Y-186235033D01*
X51686000Y-186560190D01*
X51560190Y-186686000D01*
X51235033Y-187172632D01*
X51235031Y-187172634D01*
X51166943Y-187337013D01*
X51052762Y-187911039D01*
X51052762Y-187955950D01*
X51044000Y-188000000D01*
X51044000Y-194044000D01*
X50475326Y-194044000D01*
X50754799Y-193765015D01*
X50980743Y-193220882D01*
X50981257Y-192631703D01*
X50756263Y-192087177D01*
X50340015Y-191670201D01*
X49795882Y-191444257D01*
X49206703Y-191443743D01*
X48662177Y-191668737D01*
X48245201Y-192084985D01*
X48019257Y-192629118D01*
X48018743Y-193218297D01*
X48243737Y-193762823D01*
X48524423Y-194044000D01*
X22456000Y-194044000D01*
X22456000Y-190825755D01*
X23239890Y-190825755D01*
X23336360Y-191059228D01*
X23376953Y-191099892D01*
X23361987Y-191114832D01*
X23265111Y-191348137D01*
X23264890Y-191600755D01*
X23361360Y-191834228D01*
X23539832Y-192013013D01*
X23685690Y-192073578D01*
X23665111Y-192123137D01*
X23664890Y-192375755D01*
X23761360Y-192609228D01*
X23939832Y-192788013D01*
X24173137Y-192884889D01*
X24425755Y-192885110D01*
X24659228Y-192788640D01*
X24838013Y-192610168D01*
X24918460Y-192416428D01*
X25039832Y-192538013D01*
X25273137Y-192634889D01*
X25525755Y-192635110D01*
X25759228Y-192538640D01*
X25790114Y-192507808D01*
X25811360Y-192559228D01*
X25989832Y-192738013D01*
X26223137Y-192834889D01*
X26475755Y-192835110D01*
X26709228Y-192738640D01*
X26888013Y-192560168D01*
X26984889Y-192326863D01*
X26985110Y-192074245D01*
X26888640Y-191840772D01*
X26710168Y-191661987D01*
X26476863Y-191565111D01*
X26224245Y-191564890D01*
X25990772Y-191661360D01*
X25959886Y-191692192D01*
X25938640Y-191640772D01*
X25760168Y-191461987D01*
X25526863Y-191365111D01*
X25274245Y-191364890D01*
X25040772Y-191461360D01*
X24861987Y-191639832D01*
X24781540Y-191833572D01*
X24660168Y-191711987D01*
X24514310Y-191651422D01*
X24534889Y-191601863D01*
X24535110Y-191349245D01*
X24438640Y-191115772D01*
X24398047Y-191075108D01*
X24413013Y-191060168D01*
X24509889Y-190826863D01*
X24510110Y-190574245D01*
X24413640Y-190340772D01*
X24235168Y-190161987D01*
X24001863Y-190065111D01*
X23749245Y-190064890D01*
X23515772Y-190161360D01*
X23336987Y-190339832D01*
X23240111Y-190573137D01*
X23239890Y-190825755D01*
X22456000Y-190825755D01*
X22456000Y-189624707D01*
X22567710Y-189671093D01*
X22773384Y-189671273D01*
X22939832Y-189838013D01*
X23173137Y-189934889D01*
X23425755Y-189935110D01*
X23659228Y-189838640D01*
X23838013Y-189660168D01*
X23934889Y-189426863D01*
X23935110Y-189174245D01*
X23838640Y-188940772D01*
X23660168Y-188761987D01*
X23426863Y-188665111D01*
X23300646Y-188665001D01*
X23382794Y-188582996D01*
X23479670Y-188349691D01*
X23479778Y-188225755D01*
X29389890Y-188225755D01*
X29486360Y-188459228D01*
X29580960Y-188553994D01*
X29556810Y-188612153D01*
X29556589Y-188864771D01*
X29653059Y-189098244D01*
X29831531Y-189277029D01*
X30064836Y-189373905D01*
X30317454Y-189374126D01*
X30550927Y-189277656D01*
X30729712Y-189099184D01*
X30826588Y-188865879D01*
X30826809Y-188613261D01*
X30730339Y-188379788D01*
X30635739Y-188285022D01*
X30659889Y-188226863D01*
X30660110Y-187974245D01*
X30564652Y-187743221D01*
X30722424Y-187743221D01*
X30818894Y-187976694D01*
X30997366Y-188155479D01*
X31230671Y-188252355D01*
X31483289Y-188252576D01*
X31716762Y-188156106D01*
X31895547Y-187977634D01*
X31985749Y-187760401D01*
X32201694Y-187671174D01*
X32380479Y-187492702D01*
X32477355Y-187259397D01*
X32477576Y-187006779D01*
X32381106Y-186773306D01*
X32202634Y-186594521D01*
X31969329Y-186497645D01*
X31716711Y-186497424D01*
X31483238Y-186593894D01*
X31304453Y-186772366D01*
X31214251Y-186989599D01*
X30998306Y-187078826D01*
X30819521Y-187257298D01*
X30722645Y-187490603D01*
X30722424Y-187743221D01*
X30564652Y-187743221D01*
X30563640Y-187740772D01*
X30385168Y-187561987D01*
X30151863Y-187465111D01*
X29899245Y-187464890D01*
X29665772Y-187561360D01*
X29486987Y-187739832D01*
X29390111Y-187973137D01*
X29389890Y-188225755D01*
X23479778Y-188225755D01*
X23479891Y-188097073D01*
X23434918Y-187988230D01*
X23514617Y-187908670D01*
X23611493Y-187675365D01*
X23611714Y-187422747D01*
X23515244Y-187189274D01*
X23469452Y-187143402D01*
X23520148Y-187021311D01*
X23520369Y-186768693D01*
X23423899Y-186535220D01*
X23245427Y-186356435D01*
X23244275Y-186355957D01*
X23244465Y-186138815D01*
X23417978Y-185965606D01*
X23514854Y-185732301D01*
X23515075Y-185479683D01*
X23450525Y-185323462D01*
X23589832Y-185463013D01*
X23823137Y-185559889D01*
X24075755Y-185560110D01*
X24309228Y-185463640D01*
X24488013Y-185285168D01*
X24584889Y-185051863D01*
X24585110Y-184799245D01*
X24490147Y-184569419D01*
X24584889Y-184341253D01*
X24585110Y-184088635D01*
X24488640Y-183855162D01*
X24310168Y-183676377D01*
X24076863Y-183579501D01*
X23824245Y-183579280D01*
X23590772Y-183675750D01*
X23518061Y-183748334D01*
X23518230Y-183554927D01*
X23437831Y-183360349D01*
X23438013Y-183360168D01*
X23516278Y-183171682D01*
X23573137Y-183195292D01*
X23825755Y-183195513D01*
X24059228Y-183099043D01*
X24238013Y-182920571D01*
X24334889Y-182687266D01*
X24335110Y-182434648D01*
X24250545Y-182229987D01*
X24334889Y-182026863D01*
X24334933Y-181975755D01*
X179289890Y-181975755D01*
X179380894Y-182196000D01*
X179297788Y-182396143D01*
X179297567Y-182648761D01*
X179394037Y-182882234D01*
X179408942Y-182897165D01*
X179315111Y-183123137D01*
X179314890Y-183375755D01*
X179399455Y-183580416D01*
X179315111Y-183783540D01*
X179314890Y-184036158D01*
X179411360Y-184269631D01*
X179589832Y-184448416D01*
X179823137Y-184545292D01*
X180075755Y-184545513D01*
X180309228Y-184449043D01*
X180488013Y-184270571D01*
X180584889Y-184037266D01*
X180585110Y-183784648D01*
X180500545Y-183579987D01*
X180584889Y-183376863D01*
X180585110Y-183124245D01*
X180488640Y-182890772D01*
X180473735Y-182875841D01*
X180567566Y-182649869D01*
X180567787Y-182397251D01*
X180476783Y-182177006D01*
X180559889Y-181976863D01*
X180559926Y-181934899D01*
X180800755Y-181935110D01*
X181034228Y-181838640D01*
X181213013Y-181660168D01*
X181309889Y-181426863D01*
X181310110Y-181174245D01*
X181225545Y-180969584D01*
X181309889Y-180766460D01*
X181310110Y-180513842D01*
X181239847Y-180343794D01*
X181243577Y-180340070D01*
X181340453Y-180106765D01*
X181340674Y-179854147D01*
X181251300Y-179637848D01*
X181330782Y-179446434D01*
X181331003Y-179193816D01*
X181234533Y-178960343D01*
X181056061Y-178781558D01*
X180822756Y-178684682D01*
X180570138Y-178684461D01*
X180336665Y-178780931D01*
X180157880Y-178959403D01*
X180061004Y-179192708D01*
X180060783Y-179445326D01*
X180150157Y-179661625D01*
X180070675Y-179853039D01*
X180070454Y-180105657D01*
X180140717Y-180275705D01*
X180136987Y-180279429D01*
X180040111Y-180512734D01*
X180039890Y-180765352D01*
X180124455Y-180970013D01*
X180040111Y-181173137D01*
X180040074Y-181215101D01*
X179799245Y-181214890D01*
X179565772Y-181311360D01*
X179386987Y-181489832D01*
X179290111Y-181723137D01*
X179289890Y-181975755D01*
X24334933Y-181975755D01*
X24335110Y-181774245D01*
X24238640Y-181540772D01*
X24060168Y-181361987D01*
X23826863Y-181265111D01*
X23574245Y-181264890D01*
X23340772Y-181361360D01*
X23161987Y-181539832D01*
X23065111Y-181773137D01*
X23064890Y-182025755D01*
X23149455Y-182230416D01*
X23083722Y-182388721D01*
X23026863Y-182365111D01*
X22774245Y-182364890D01*
X22540772Y-182461360D01*
X22456000Y-182545984D01*
X22456000Y-179882855D01*
X171689890Y-179882855D01*
X171779715Y-180100246D01*
X171690111Y-180316037D01*
X171689890Y-180568655D01*
X171786360Y-180802128D01*
X171964832Y-180980913D01*
X172198137Y-181077789D01*
X172450755Y-181078010D01*
X172684228Y-180981540D01*
X172863013Y-180803068D01*
X172959889Y-180569763D01*
X172960110Y-180317145D01*
X172870285Y-180099754D01*
X172959889Y-179883963D01*
X172960110Y-179631345D01*
X172863640Y-179397872D01*
X172685168Y-179219087D01*
X172451863Y-179122211D01*
X172199245Y-179121990D01*
X171965772Y-179218460D01*
X171786987Y-179396932D01*
X171690111Y-179630237D01*
X171689890Y-179882855D01*
X22456000Y-179882855D01*
X22456000Y-178456000D01*
X46000000Y-178456000D01*
X46044050Y-178447238D01*
X46088961Y-178447238D01*
X46662987Y-178333057D01*
X46827366Y-178264969D01*
X46827368Y-178264967D01*
X47314000Y-177939810D01*
X47439810Y-177814000D01*
X47764967Y-177327368D01*
X47764969Y-177327366D01*
X47833057Y-177162986D01*
X47947238Y-176588961D01*
X47947238Y-176544050D01*
X47956000Y-176500000D01*
X47956000Y-172544912D01*
X48043723Y-172103897D01*
X48268098Y-171768098D01*
X48603897Y-171543723D01*
X49044913Y-171456000D01*
X122455088Y-171456000D01*
X122896103Y-171543723D01*
M02*
