M48
;DRILL file {KiCad 0.201603021449+6606~42~ubuntu14.04.1-product} date Wed 02 Mar 2016 02:15:16 PM PST
;FORMAT={-:-/ absolute / inch / decimal}
FMAT,2
INCH,TZ
T1C0.008
T2C0.071
T3C0.085
%
G90
G05
M72
T1
X0.8901Y-7.3324
X0.8935Y-7.4424
X0.8994Y-7.4103
X0.9006Y-7.0669
X0.9008Y-7.3073
X0.9009Y-7.2315
X0.901Y-7.358
X0.9016Y-7.2047
X0.9016Y-7.2805
X0.9046Y-7.3838
X0.9173Y-7.4528
X0.9183Y-7.1161
X0.9331Y-7.1614
X0.9331Y-7.1874
X0.937Y-7.0669
X0.94Y-7.5079
X0.9409Y-7.5384
X0.9429Y-7.2525
X0.9429Y-7.2805
X0.9567Y-7.0354
X0.9567Y-7.5689
X1.Y-7.5591
X1.003Y-7.0354
X1.0374Y-7.5669
X1.062Y-7.1998
X1.063Y-7.1299
X1.063Y-7.2707
X1.063Y-7.3701
X1.063Y-7.437
X1.063Y-7.4843
X1.063Y-7.5276
X1.1821Y-7.4055
X1.1886Y-7.4307
X1.2345Y-7.3865
X1.2536Y-7.3674
X5.5236Y-7.0202
X5.5236Y-7.0472
X6.6713Y-7.3507
X6.6949Y-7.3654
X6.743Y-7.3849
X6.7805Y-7.4508
X6.7835Y-7.5209
X6.7835Y-7.5479
X6.7844Y-7.0771
X6.7844Y-7.1041
X6.7992Y-7.1299
X6.8091Y-7.4508
X6.8307Y-7.1314
X6.8386Y-7.5177
X6.8435Y-7.4557
X6.8573Y-7.5384
X6.8858Y-7.562
X6.9291Y-7.562
X6.9574Y-7.394
X6.9675Y-7.3701
X6.9675Y-7.5276
X6.9685Y-7.1181
X6.9685Y-7.2244
X6.9685Y-7.2953
X6.9685Y-7.4616
X7.0817Y-7.3967
X7.0818Y-7.4228
X7.0837Y-7.1594
X7.084Y-7.1859
X7.0846Y-7.2146
X7.0846Y-7.2406
X7.0945Y-7.3037
X7.0945Y-7.3297
X7.1132Y-7.1118
X7.1132Y-7.1378
X7.1132Y-7.4432
X7.1132Y-7.4702
X7.114Y-7.0598
X7.1144Y-7.0858
X7.1171Y-7.348
X7.1171Y-7.374
X7.1407Y-7.2608
X7.1407Y-7.2868
T2
X1.9488Y-7.5955
X7.8545Y-7.5955
T3
X0.5709Y-6.8701
X0.5709Y-7.7165
X6.4764Y-6.8701
X6.4764Y-7.7165
T0
M30
