G04 #@! TF.FileFunction,Legend,Top*
%FSLAX46Y46*%
G04 Gerber Fmt 4.6, Leading zero omitted, Abs format (unit mm)*
G04 Created by KiCad (PCBNEW 0.201603021449+6606~42~ubuntu14.04.1-product) date Wed 02 Mar 2016 02:15:13 PM PST*
%MOMM*%
G01*
G04 APERTURE LIST*
%ADD10C,0.100000*%
%ADD11C,0.150000*%
G04 APERTURE END LIST*
D10*
D11*
X166499981Y-196000000D02*
G75*
G03X166499981Y-196000000I-1999981J0D01*
G01*
X166499981Y-174500000D02*
G75*
G03X166499981Y-174500000I-1999981J0D01*
G01*
X16499981Y-174500000D02*
G75*
G03X16499981Y-174500000I-1999981J0D01*
G01*
X51000000Y-192925000D02*
G75*
G03X51000000Y-192925000I-1500000J0D01*
G01*
X201005000Y-192925000D02*
G75*
G03X201005000Y-192925000I-1500000J0D01*
G01*
X174300000Y-178000000D02*
X173800000Y-177500000D01*
X179700000Y-178000000D02*
X174300000Y-178000000D01*
X179700000Y-178000000D02*
X179700000Y-193000000D01*
X174300000Y-193000000D02*
X174300000Y-178000000D01*
X174300000Y-193000000D02*
X179700000Y-193000000D01*
X24300000Y-178000000D02*
X23800000Y-177500000D01*
X29700000Y-178000000D02*
X24300000Y-178000000D01*
X29700000Y-178000000D02*
X29700000Y-193000000D01*
X24300000Y-193000000D02*
X24300000Y-178000000D01*
X24300000Y-193000000D02*
X29700000Y-193000000D01*
X16499981Y-196000000D02*
G75*
G03X16499981Y-196000000I-1999981J0D01*
G01*
X172452381Y-185833333D02*
X173166667Y-185833333D01*
X173309524Y-185880953D01*
X173404762Y-185976191D01*
X173452381Y-186119048D01*
X173452381Y-186214286D01*
X172547619Y-185404762D02*
X172500000Y-185357143D01*
X172452381Y-185261905D01*
X172452381Y-185023809D01*
X172500000Y-184928571D01*
X172547619Y-184880952D01*
X172642857Y-184833333D01*
X172738095Y-184833333D01*
X172880952Y-184880952D01*
X173452381Y-185452381D01*
X173452381Y-184833333D01*
X22452381Y-185833333D02*
X23166667Y-185833333D01*
X23309524Y-185880953D01*
X23404762Y-185976191D01*
X23452381Y-186119048D01*
X23452381Y-186214286D01*
X23452381Y-184833333D02*
X23452381Y-185404762D01*
X23452381Y-185119048D02*
X22452381Y-185119048D01*
X22595238Y-185214286D01*
X22690476Y-185309524D01*
X22738095Y-185404762D01*
M02*
