G04 #@! TF.FileFunction,Copper,L1,Top,Signal*
%FSLAX46Y46*%
G04 Gerber Fmt 4.6, Leading zero omitted, Abs format (unit mm)*
G04 Created by KiCad (PCBNEW 0.201603021449+6606~42~ubuntu14.04.1-product) date Wed 02 Mar 2016 02:15:13 PM PST*
%MOMM*%
G01*
G04 APERTURE LIST*
%ADD10C,0.100000*%
%ADD11C,2.540000*%
%ADD12C,2.200000*%
%ADD13R,1.400000X0.200000*%
%ADD14C,0.508000*%
%ADD15C,0.254000*%
%ADD16C,0.177800*%
G04 APERTURE END LIST*
D10*
D11*
X164500000Y-196000000D03*
X164500000Y-174500000D03*
X14500000Y-174500000D03*
D12*
X49500000Y-192925000D03*
X199505000Y-192925000D03*
D13*
X178580000Y-179700000D03*
X175460000Y-180100000D03*
X175460000Y-180500000D03*
X175460000Y-180900000D03*
X175460000Y-181300000D03*
X175460000Y-181700000D03*
X175460000Y-182100000D03*
X175460000Y-182500000D03*
X175460000Y-182900000D03*
X175460000Y-183300000D03*
X175460000Y-183700000D03*
X175460000Y-184100000D03*
X175460000Y-184500000D03*
X175460000Y-184900000D03*
X175460000Y-185300000D03*
X175460000Y-185700000D03*
X175460000Y-186100000D03*
X175460000Y-186500000D03*
X175460000Y-186900000D03*
X175460000Y-187300000D03*
X175460000Y-187700000D03*
X175460000Y-188100000D03*
X175460000Y-188500000D03*
X175460000Y-188900000D03*
X175460000Y-189300000D03*
X175460000Y-189700000D03*
X175460000Y-190100000D03*
X175460000Y-190500000D03*
X175460000Y-190900000D03*
X175460000Y-191300000D03*
X175460000Y-179700000D03*
X178580000Y-180100000D03*
X178580000Y-180500000D03*
X178580000Y-180900000D03*
X178580000Y-181300000D03*
X178580000Y-181700000D03*
X178580000Y-182100000D03*
X178580000Y-182500000D03*
X178580000Y-182900000D03*
X178580000Y-183300000D03*
X178580000Y-183700000D03*
X178580000Y-184100000D03*
X178580000Y-184500000D03*
X178580000Y-184900000D03*
X178580000Y-185300000D03*
X178580000Y-185700000D03*
X178580000Y-186100000D03*
X178580000Y-186500000D03*
X178580000Y-186900000D03*
X178580000Y-187300000D03*
X178580000Y-187700000D03*
X178580000Y-188100000D03*
X178580000Y-188500000D03*
X178580000Y-188900000D03*
X178580000Y-189300000D03*
X178580000Y-189700000D03*
X178580000Y-190100000D03*
X178580000Y-190500000D03*
X178580000Y-190900000D03*
X178580000Y-191300000D03*
X28580000Y-179700000D03*
X25460000Y-180100000D03*
X25460000Y-180500000D03*
X25460000Y-180900000D03*
X25460000Y-181300000D03*
X25460000Y-181700000D03*
X25460000Y-182100000D03*
X25460000Y-182500000D03*
X25460000Y-182900000D03*
X25460000Y-183300000D03*
X25460000Y-183700000D03*
X25460000Y-184100000D03*
X25460000Y-184500000D03*
X25460000Y-184900000D03*
X25460000Y-185300000D03*
X25460000Y-185700000D03*
X25460000Y-186100000D03*
X25460000Y-186500000D03*
X25460000Y-186900000D03*
X25460000Y-187300000D03*
X25460000Y-187700000D03*
X25460000Y-188100000D03*
X25460000Y-188500000D03*
X25460000Y-188900000D03*
X25460000Y-189300000D03*
X25460000Y-189700000D03*
X25460000Y-190100000D03*
X25460000Y-190500000D03*
X25460000Y-190900000D03*
X25460000Y-191300000D03*
X25460000Y-179700000D03*
X28580000Y-180100000D03*
X28580000Y-180500000D03*
X28580000Y-180900000D03*
X28580000Y-181300000D03*
X28580000Y-181700000D03*
X28580000Y-182100000D03*
X28580000Y-182500000D03*
X28580000Y-182900000D03*
X28580000Y-183300000D03*
X28580000Y-183700000D03*
X28580000Y-184100000D03*
X28580000Y-184500000D03*
X28580000Y-184900000D03*
X28580000Y-185300000D03*
X28580000Y-185700000D03*
X28580000Y-186100000D03*
X28580000Y-186500000D03*
X28580000Y-186900000D03*
X28580000Y-187300000D03*
X28580000Y-187700000D03*
X28580000Y-188100000D03*
X28580000Y-188500000D03*
X28580000Y-188900000D03*
X28580000Y-189300000D03*
X28580000Y-189700000D03*
X28580000Y-190100000D03*
X28580000Y-190500000D03*
X28580000Y-190900000D03*
X28580000Y-191300000D03*
D11*
X14500000Y-196000000D03*
D14*
X140300000Y-178999090D03*
X180705564Y-179979902D03*
X172700000Y-181100000D03*
X173500000Y-181137491D03*
X177000000Y-185300000D03*
X177000000Y-183500000D03*
X177000000Y-180800000D03*
X176975000Y-187200000D03*
X177000000Y-189525000D03*
X176975000Y-191200000D03*
X24300000Y-178700000D03*
X23800000Y-179500000D03*
X27000000Y-184675000D03*
X26975000Y-182875000D03*
X27000000Y-181100000D03*
X27000000Y-187200000D03*
X27000000Y-191200000D03*
X27000000Y-190100000D03*
X27000000Y-188900000D03*
X25475000Y-178700000D03*
X22875000Y-179500000D03*
X23325000Y-180750000D03*
X169450000Y-186708410D03*
X22609375Y-186241728D03*
X170050000Y-187080380D03*
X22885259Y-186894448D03*
X171272325Y-187575690D03*
X22976604Y-187548502D03*
X176717516Y-187808138D03*
X22844781Y-188222828D03*
X172225000Y-189250690D03*
X22694573Y-189036204D03*
X172950000Y-189250690D03*
X23300000Y-189300000D03*
X174900000Y-192075000D03*
X176000000Y-192075000D03*
X174175000Y-191475000D03*
X173825000Y-189375000D03*
X173700000Y-190949310D03*
X24300000Y-192250000D03*
X26350000Y-192200000D03*
X25400000Y-192000000D03*
X23875000Y-190700000D03*
X23900000Y-191475000D03*
X140300000Y-178313290D03*
X180695893Y-179319571D03*
X180675000Y-180639597D03*
X172325000Y-179757100D03*
X180675000Y-181300000D03*
X172325000Y-180442900D03*
X179925000Y-181850000D03*
X23700000Y-181900000D03*
X179932677Y-182523006D03*
X23700000Y-182560403D03*
X179950000Y-183250000D03*
X22900000Y-183000000D03*
X179950000Y-183910403D03*
X22883120Y-183680682D03*
X181375000Y-184425000D03*
X23950000Y-184214390D03*
X181375000Y-185085403D03*
X23950000Y-184925000D03*
X180200000Y-185514597D03*
X22900000Y-184925000D03*
X180200000Y-186175000D03*
X22879965Y-185605438D03*
X31842466Y-187132534D03*
X180775000Y-186639597D03*
X31357534Y-187617466D03*
X180775000Y-187300000D03*
X30025000Y-188100000D03*
X179875000Y-187875000D03*
X30191699Y-188739016D03*
X179877390Y-188540029D03*
X180675000Y-189742900D03*
X172300000Y-191717900D03*
X172300000Y-191032100D03*
X180675000Y-189057100D03*
D15*
X34042718Y-178857282D02*
X34208000Y-178857282D01*
X35106146Y-180100000D02*
X45905328Y-180100000D01*
X33871359Y-179028641D02*
X33875655Y-178990511D01*
X34537921Y-179826358D02*
X34653001Y-179941438D01*
X33799384Y-179688554D02*
X33853136Y-179534939D01*
X121784100Y-173589428D02*
X121784100Y-177430570D01*
X33935877Y-178894668D02*
X33968368Y-178874252D01*
X45905328Y-180100000D02*
X48515900Y-177489428D01*
X123225619Y-178872089D02*
X140172999Y-178872089D01*
X33871359Y-179373213D02*
X33871359Y-179028641D01*
X34282349Y-178874252D02*
X34314840Y-178894668D01*
X34653001Y-179941438D02*
X34790805Y-180028026D01*
X33306297Y-180081778D02*
X33459912Y-180028026D01*
X34314840Y-178894668D02*
X34341973Y-178921801D01*
X34375062Y-178990511D02*
X34379359Y-179028641D01*
X33968368Y-178874252D02*
X34004587Y-178861579D01*
X34790805Y-180028026D02*
X34944420Y-180081778D01*
X34004587Y-178861579D02*
X34042718Y-178857282D01*
X33875655Y-178990511D02*
X33888328Y-178954292D01*
X33144571Y-180100000D02*
X33306297Y-180081778D01*
X34341973Y-178921801D02*
X34362389Y-178954292D01*
X33597716Y-179941438D02*
X33712796Y-179826358D01*
X29775000Y-180100000D02*
X33144571Y-180100000D01*
X33459912Y-180028026D02*
X33597716Y-179941438D01*
X33888328Y-178954292D02*
X33908744Y-178921801D01*
X33712796Y-179826358D02*
X33799384Y-179688554D01*
X33853136Y-179534939D02*
X33871359Y-179373213D01*
X33908744Y-178921801D02*
X33935877Y-178894668D01*
X34208000Y-178857282D02*
X34246130Y-178861579D01*
X34246130Y-178861579D02*
X34282349Y-178874252D01*
X34362389Y-178954292D02*
X34375062Y-178990511D01*
X34379359Y-179028641D02*
X34379359Y-179373213D01*
X34379359Y-179373213D02*
X34397581Y-179534939D01*
X34397581Y-179534939D02*
X34451333Y-179688554D01*
X34451333Y-179688554D02*
X34537921Y-179826358D01*
X34944420Y-180081778D02*
X35106146Y-180100000D01*
X48515900Y-177489428D02*
X48515900Y-173989428D01*
X48515900Y-173989428D02*
X50789428Y-171715900D01*
X50789428Y-171715900D02*
X119910572Y-171715900D01*
X119910572Y-171715900D02*
X121784100Y-173589428D01*
X121784100Y-177430570D02*
X123225619Y-178872089D01*
X140172999Y-178872089D02*
X140300000Y-178999090D01*
D16*
X29775000Y-180100000D02*
X28540000Y-180100000D01*
X178580000Y-180100000D02*
X180585466Y-180100000D01*
X180585466Y-180100000D02*
X180705564Y-179979902D01*
D15*
X175460000Y-180500000D02*
X173300000Y-180500000D01*
X173300000Y-180500000D02*
X172700000Y-181100000D01*
X175460000Y-181300000D02*
X173662509Y-181300000D01*
X173662509Y-181300000D02*
X173500000Y-181137491D01*
X178540000Y-180500000D02*
X177300000Y-180500000D01*
X177300000Y-180500000D02*
X177000000Y-180800000D01*
X178540000Y-181700000D02*
X177540790Y-181700000D01*
X177540790Y-181700000D02*
X177000000Y-181159210D01*
X177000000Y-181159210D02*
X177000000Y-180800000D01*
X176900000Y-180900000D02*
X177000000Y-180800000D01*
X178540000Y-182900000D02*
X177600000Y-182900000D01*
X177600000Y-182900000D02*
X177000000Y-183500000D01*
X175460000Y-182900000D02*
X176400000Y-182900000D01*
X176400000Y-182900000D02*
X177000000Y-183500000D01*
X178540000Y-184100000D02*
X177600000Y-184100000D01*
X177600000Y-184100000D02*
X177000000Y-183500000D01*
X175460000Y-184100000D02*
X176400000Y-184100000D01*
X176400000Y-184100000D02*
X177000000Y-183500000D01*
X178540000Y-185300000D02*
X177000000Y-185300000D01*
X175460000Y-185300000D02*
X177000000Y-185300000D01*
X178540000Y-186500000D02*
X177675000Y-186500000D01*
X178540000Y-187700000D02*
X177475000Y-187700000D01*
X177475000Y-187700000D02*
X176975000Y-187200000D01*
X177675000Y-186500000D02*
X176975000Y-187200000D01*
X178540000Y-191300000D02*
X177075000Y-191300000D01*
X177075000Y-191300000D02*
X176975000Y-191200000D01*
X178540000Y-190100000D02*
X177575000Y-190100000D01*
X177575000Y-190100000D02*
X177000000Y-189525000D01*
X178540000Y-188900000D02*
X177625000Y-188900000D01*
X177625000Y-188900000D02*
X177000000Y-189525000D01*
D16*
X178515000Y-191300000D02*
X177075000Y-191300000D01*
D15*
X175460000Y-180900000D02*
X176900000Y-180900000D01*
D16*
X175460000Y-181700000D02*
X175460000Y-181300000D01*
D15*
X25460000Y-180100000D02*
X25460000Y-179860000D01*
X25460000Y-179860000D02*
X24300000Y-178700000D01*
X28540000Y-185300000D02*
X27625000Y-185300000D01*
X27625000Y-185300000D02*
X27000000Y-184675000D01*
X25460000Y-185300000D02*
X26375000Y-185300000D01*
X26375000Y-185300000D02*
X27000000Y-184675000D01*
X28540000Y-184100000D02*
X27575000Y-184100000D01*
X27575000Y-184100000D02*
X27000000Y-184675000D01*
X25460000Y-184100000D02*
X26425000Y-184100000D01*
X26425000Y-184100000D02*
X27000000Y-184675000D01*
X28540000Y-182900000D02*
X27000000Y-182900000D01*
X27000000Y-182900000D02*
X26975000Y-182875000D01*
X25460000Y-182900000D02*
X26950000Y-182900000D01*
X26950000Y-182900000D02*
X26975000Y-182875000D01*
X28540000Y-181700000D02*
X27600000Y-181700000D01*
X27600000Y-181700000D02*
X27000000Y-181100000D01*
X25460000Y-181700000D02*
X26400000Y-181700000D01*
X26400000Y-181700000D02*
X27000000Y-181100000D01*
X28540000Y-180500000D02*
X27600000Y-180500000D01*
X27600000Y-180500000D02*
X27000000Y-181100000D01*
X25460000Y-180500000D02*
X26400000Y-180500000D01*
X26400000Y-180500000D02*
X27000000Y-181100000D01*
X25460000Y-180500000D02*
X24800000Y-180500000D01*
X24800000Y-180500000D02*
X23800000Y-179500000D01*
X28540000Y-186500000D02*
X27700000Y-186500000D01*
X28540000Y-187700000D02*
X27500000Y-187700000D01*
X27500000Y-187700000D02*
X27000000Y-187200000D01*
X27700000Y-186500000D02*
X27000000Y-187200000D01*
X28540000Y-191300000D02*
X27100000Y-191300000D01*
X27100000Y-191300000D02*
X27000000Y-191200000D01*
X28540000Y-190100000D02*
X27000000Y-190100000D01*
X28540000Y-188900000D02*
X27000000Y-188900000D01*
X25460000Y-179700000D02*
X25460000Y-178715000D01*
X25460000Y-178715000D02*
X25475000Y-178700000D01*
X25460000Y-180900000D02*
X24275000Y-180900000D01*
X24275000Y-180900000D02*
X22875000Y-179500000D01*
X25460000Y-181300000D02*
X23875000Y-181300000D01*
X23875000Y-181300000D02*
X23325000Y-180750000D01*
X52053369Y-178085007D02*
X52085468Y-178069548D01*
X63552332Y-174652332D02*
X63552846Y-174656900D01*
X52018635Y-178092934D02*
X52053369Y-178085007D01*
X121805328Y-182100000D02*
X173323937Y-182100000D01*
X54059869Y-174699232D02*
X54111115Y-174674553D01*
X51364508Y-175064740D02*
X51505576Y-175096938D01*
X52247530Y-177913127D02*
X52269743Y-177885272D01*
X52293129Y-177818439D02*
X52293129Y-177782812D01*
X63572864Y-174672864D02*
X64200000Y-174672864D01*
X65756811Y-174665133D02*
X65760062Y-174668384D01*
X63510125Y-174225375D02*
X63541646Y-174315457D01*
X68600000Y-174672864D02*
X68604568Y-174672349D01*
X67620974Y-173994785D02*
X67711056Y-174026306D01*
X52285201Y-177748078D02*
X52269743Y-177715979D01*
X64313514Y-174144566D02*
X64380998Y-174077082D01*
X51829701Y-177270295D02*
X51829705Y-177270296D01*
X67941646Y-174315457D02*
X67952332Y-174410294D01*
X69046726Y-173984100D02*
X118089428Y-173984100D01*
X51380165Y-177710959D02*
X51501713Y-177738702D01*
X64551889Y-173994785D02*
X64646726Y-173984100D01*
X66412801Y-174668384D02*
X66416052Y-174665133D01*
X66462738Y-174225375D02*
X66513514Y-174144566D01*
X66513514Y-174144566D02*
X66580998Y-174077082D01*
X52269743Y-177885272D02*
X52285201Y-177853173D01*
X65772864Y-174672864D02*
X66400000Y-174672864D01*
X52108279Y-173976904D02*
X52164322Y-173920862D01*
X65741646Y-174315457D02*
X65752332Y-174410294D01*
X52293129Y-177782812D02*
X52285201Y-177748078D01*
X51735657Y-177894672D02*
X51888320Y-178047335D01*
X53347711Y-176763860D02*
X53382445Y-176755932D01*
X50948377Y-175159719D02*
X51078742Y-175096939D01*
X53576606Y-176359050D02*
X52108280Y-174890726D01*
X53277350Y-176755932D02*
X53312084Y-176763860D01*
X66418498Y-174661240D02*
X66420017Y-174656900D01*
X63311056Y-174026306D02*
X63391865Y-174077082D01*
X64216052Y-174665133D02*
X64218498Y-174661240D01*
X64220017Y-174656900D02*
X64220532Y-174652332D01*
X66404568Y-174672349D02*
X66408908Y-174670830D01*
X53622205Y-176453738D02*
X53614277Y-176419004D01*
X66846726Y-173984100D02*
X67526137Y-173984100D01*
X63554365Y-174661240D02*
X63556811Y-174665133D01*
X67952332Y-174410294D02*
X67952332Y-174652332D01*
X50594010Y-175690541D02*
X50626208Y-175549472D01*
X51955283Y-174647230D02*
X51923086Y-174506161D01*
X51677041Y-177117632D02*
X50779206Y-176219800D01*
X53078144Y-173920863D02*
X53106166Y-173948882D01*
X52285201Y-177853173D02*
X52293129Y-177818439D01*
X52269743Y-177715979D02*
X52247530Y-177688124D01*
X68620532Y-174410294D02*
X68631217Y-174315457D01*
X52247530Y-177688124D02*
X51829701Y-177270295D01*
X67960062Y-174668384D02*
X67963955Y-174670830D01*
X52113323Y-178047335D02*
X52247530Y-177913127D01*
X64218498Y-174661240D02*
X64220017Y-174656900D01*
X51923086Y-174506161D02*
X51923084Y-174361467D01*
X50626208Y-175549472D02*
X50688989Y-175419106D01*
X52834650Y-173767864D02*
X52965017Y-173830645D01*
X53614277Y-176419004D02*
X53598819Y-176386905D01*
X54004418Y-174711888D02*
X54059869Y-174699232D01*
X65752332Y-174652332D02*
X65752846Y-174656900D01*
X53622205Y-176489365D02*
X53622205Y-176453738D01*
X51829705Y-177270296D02*
X51677041Y-177117632D01*
X46694672Y-182100000D02*
X50924143Y-177870528D01*
X51948274Y-178085007D02*
X51983008Y-178092934D01*
X52965017Y-173830645D02*
X53078144Y-173920863D01*
X66416052Y-174665133D02*
X66418498Y-174661240D01*
X68608908Y-174670830D02*
X68612801Y-174668384D01*
X64461807Y-174026306D02*
X64551889Y-173994785D01*
X50626209Y-175976304D02*
X50594012Y-175835235D01*
X51711514Y-177870528D02*
X51735657Y-177894672D01*
X64380998Y-174077082D02*
X64461807Y-174026306D01*
X65768295Y-174672349D02*
X65772864Y-174672864D01*
X68604568Y-174672349D02*
X68608908Y-174670830D01*
X51255492Y-177710959D02*
X51380165Y-177710959D01*
X30100000Y-182100000D02*
X46694672Y-182100000D01*
X50924143Y-177870528D02*
X51021617Y-177792796D01*
X51021617Y-177792796D02*
X51133944Y-177738702D01*
X51133944Y-177738702D02*
X51255492Y-177710959D01*
X51501713Y-177738702D02*
X51614040Y-177792796D01*
X68620017Y-174656900D02*
X68620532Y-174652332D01*
X53245250Y-176740474D02*
X53277350Y-176755932D01*
X51614040Y-177792796D02*
X51711514Y-177870528D01*
X51888320Y-178047335D02*
X51916175Y-178069548D01*
X64646726Y-173984100D02*
X65326137Y-173984100D01*
X51916175Y-178069548D02*
X51948274Y-178085007D01*
X51983008Y-178092934D02*
X52018635Y-178092934D01*
X52085468Y-178069548D02*
X52113323Y-178047335D01*
X50779206Y-176219800D02*
X50688990Y-176106672D01*
X50688990Y-176106672D02*
X50626209Y-175976304D01*
X50594012Y-175835235D02*
X50594010Y-175690541D01*
X50688989Y-175419106D02*
X50779205Y-175305978D01*
X50779205Y-175305978D02*
X50835248Y-175249936D01*
X50835248Y-175249936D02*
X50948377Y-175159719D01*
X54810572Y-173984100D02*
X63126137Y-173984100D01*
X51219812Y-175064740D02*
X51364508Y-175064740D01*
X51078742Y-175096939D02*
X51219812Y-175064740D01*
X51505576Y-175096938D02*
X51635943Y-175159719D01*
X51955282Y-174220398D02*
X52018063Y-174090032D01*
X51635943Y-175159719D02*
X51749070Y-175249937D01*
X51749070Y-175249937D02*
X51777092Y-175277956D01*
X51777092Y-175277956D02*
X53217396Y-176718261D01*
X53217396Y-176718261D02*
X53245250Y-176740474D01*
X53312084Y-176763860D02*
X53347711Y-176763860D01*
X53382445Y-176755932D02*
X53414544Y-176740474D01*
X66751889Y-173994785D02*
X66846726Y-173984100D01*
X53414544Y-176740474D02*
X53442399Y-176718261D01*
X53442399Y-176718261D02*
X53576606Y-176584053D01*
X53576606Y-176584053D02*
X53598819Y-176556198D01*
X53840843Y-174674553D02*
X53892087Y-174699232D01*
X53598819Y-176556198D02*
X53614277Y-176524099D01*
X53614277Y-176524099D02*
X53622205Y-176489365D01*
X53598819Y-176386905D02*
X53576606Y-176359050D01*
X52108280Y-174890726D02*
X52018064Y-174777598D01*
X67972864Y-174672864D02*
X68600000Y-174672864D01*
X52018064Y-174777598D02*
X51955283Y-174647230D01*
X51923084Y-174361467D02*
X51955282Y-174220398D01*
X52018063Y-174090032D02*
X52108279Y-173976904D01*
X52164322Y-173920862D02*
X52277451Y-173830645D01*
X52277451Y-173830645D02*
X52407816Y-173767865D01*
X52407816Y-173767865D02*
X52548886Y-173735666D01*
X64212801Y-174668384D02*
X64216052Y-174665133D01*
X52548886Y-173735666D02*
X52693582Y-173735666D01*
X65710125Y-174225375D02*
X65741646Y-174315457D01*
X52693582Y-173735666D02*
X52834650Y-173767864D01*
X53106166Y-173948882D02*
X53796374Y-174639090D01*
X53796374Y-174639090D02*
X53840843Y-174674553D01*
X53892087Y-174699232D02*
X53947540Y-174711888D01*
X53947540Y-174711888D02*
X54004418Y-174711888D01*
X54111115Y-174674553D02*
X54155584Y-174639090D01*
X54155584Y-174639090D02*
X54810572Y-173984100D01*
X63459349Y-174144566D02*
X63510125Y-174225375D01*
X63126137Y-173984100D02*
X63220974Y-173994785D01*
X63560062Y-174668384D02*
X63563955Y-174670830D01*
X63220974Y-173994785D02*
X63311056Y-174026306D01*
X63391865Y-174077082D02*
X63459349Y-174144566D01*
X63541646Y-174315457D02*
X63552332Y-174410294D01*
X63552332Y-174410294D02*
X63552332Y-174652332D01*
X63552846Y-174656900D02*
X63554365Y-174661240D01*
X63556811Y-174665133D02*
X63560062Y-174668384D01*
X66661807Y-174026306D02*
X66751889Y-173994785D01*
X63563955Y-174670830D02*
X63568295Y-174672349D01*
X63568295Y-174672349D02*
X63572864Y-174672864D01*
X64200000Y-174672864D02*
X64204568Y-174672349D01*
X64204568Y-174672349D02*
X64208908Y-174670830D01*
X64208908Y-174670830D02*
X64212801Y-174668384D01*
X64220532Y-174652332D02*
X64220532Y-174410294D01*
X66400000Y-174672864D02*
X66404568Y-174672349D01*
X64220532Y-174410294D02*
X64231217Y-174315457D01*
X64231217Y-174315457D02*
X64262738Y-174225375D01*
X64262738Y-174225375D02*
X64313514Y-174144566D01*
X65326137Y-173984100D02*
X65420974Y-173994785D01*
X65420974Y-173994785D02*
X65511056Y-174026306D01*
X65511056Y-174026306D02*
X65591865Y-174077082D01*
X65591865Y-174077082D02*
X65659349Y-174144566D01*
X65659349Y-174144566D02*
X65710125Y-174225375D01*
X65752332Y-174410294D02*
X65752332Y-174652332D01*
X119215900Y-175110572D02*
X119215900Y-179510572D01*
X65752846Y-174656900D02*
X65754365Y-174661240D01*
X65754365Y-174661240D02*
X65756811Y-174665133D01*
X65760062Y-174668384D02*
X65763955Y-174670830D01*
X65763955Y-174670830D02*
X65768295Y-174672349D01*
X66408908Y-174670830D02*
X66412801Y-174668384D01*
X66420017Y-174656900D02*
X66420532Y-174652332D01*
X66420532Y-174652332D02*
X66420532Y-174410294D01*
X66420532Y-174410294D02*
X66431217Y-174315457D01*
X66431217Y-174315457D02*
X66462738Y-174225375D01*
X66580998Y-174077082D02*
X66661807Y-174026306D01*
X67526137Y-173984100D02*
X67620974Y-173994785D01*
X67711056Y-174026306D02*
X67791865Y-174077082D01*
X67791865Y-174077082D02*
X67859349Y-174144566D01*
X67859349Y-174144566D02*
X67910125Y-174225375D01*
X67910125Y-174225375D02*
X67941646Y-174315457D01*
X67952332Y-174652332D02*
X67952846Y-174656900D01*
X67952846Y-174656900D02*
X67954365Y-174661240D01*
X67954365Y-174661240D02*
X67956811Y-174665133D01*
X67956811Y-174665133D02*
X67960062Y-174668384D01*
X67963955Y-174670830D02*
X67968295Y-174672349D01*
X67968295Y-174672349D02*
X67972864Y-174672864D01*
X68612801Y-174668384D02*
X68616052Y-174665133D01*
X68616052Y-174665133D02*
X68618498Y-174661240D01*
X68780998Y-174077082D02*
X68861807Y-174026306D01*
X68618498Y-174661240D02*
X68620017Y-174656900D01*
X68620532Y-174652332D02*
X68620532Y-174410294D01*
X68631217Y-174315457D02*
X68662738Y-174225375D01*
X68662738Y-174225375D02*
X68713514Y-174144566D01*
X118089428Y-173984100D02*
X119215900Y-175110572D01*
X68713514Y-174144566D02*
X68780998Y-174077082D01*
X68861807Y-174026306D02*
X68951889Y-173994785D01*
X68951889Y-173994785D02*
X69046726Y-173984100D01*
X119215900Y-179510572D02*
X121805328Y-182100000D01*
D16*
X173323937Y-182100000D02*
X175460000Y-182100000D01*
X29200000Y-182100000D02*
X30100000Y-182100000D01*
X28540000Y-182100000D02*
X29200000Y-182100000D01*
D15*
X30100000Y-182575000D02*
X46830328Y-182575000D01*
X64610125Y-174863388D02*
X64641646Y-174773306D01*
X63451889Y-175093978D02*
X63546726Y-175104664D01*
X51938485Y-178536375D02*
X52063159Y-178536375D01*
X64226137Y-175104664D02*
X64320974Y-175093978D01*
X52654734Y-177504414D02*
X52577001Y-177406940D01*
X46830328Y-182575000D02*
X51205327Y-178199999D01*
X53033686Y-177125464D02*
X53146013Y-177179558D01*
X65561807Y-175062457D02*
X65651889Y-175093978D01*
X69010125Y-174863388D02*
X69041646Y-174773306D01*
X52184706Y-178508632D02*
X52297033Y-178454538D01*
X52063159Y-178536375D02*
X52184706Y-178508632D01*
X52577001Y-177406940D02*
X51112555Y-175942493D01*
X53131835Y-175303628D02*
X52441629Y-174613419D01*
X51205327Y-178199999D02*
X51233182Y-178177786D01*
X63120532Y-174678469D02*
X63131217Y-174773306D01*
X52708828Y-177616741D02*
X52654734Y-177504414D01*
X65651889Y-175093978D02*
X65746726Y-175104664D01*
X64652846Y-174431863D02*
X64654365Y-174427523D01*
X51233182Y-178177786D02*
X51265281Y-178162328D01*
X52592796Y-174181412D02*
X52649674Y-174181412D01*
X51402475Y-178177786D02*
X51430330Y-178199999D01*
X53146013Y-177179558D02*
X53267560Y-177207300D01*
X51077092Y-175898024D02*
X51052413Y-175846779D01*
X64491865Y-175011681D02*
X64559349Y-174944197D01*
X64641646Y-174773306D02*
X64652332Y-174678469D01*
X51265281Y-178162328D02*
X51300015Y-178154400D01*
X53983809Y-176175340D02*
X53906076Y-176077866D01*
X51300015Y-178154400D02*
X51335642Y-178154400D01*
X51370376Y-178162328D02*
X51402475Y-178177786D01*
X53906076Y-176865237D02*
X53983809Y-176767763D01*
X52577001Y-178194311D02*
X52654734Y-178096837D01*
X63280998Y-175011681D02*
X63361807Y-175062457D01*
X68811056Y-175062457D02*
X68891865Y-175011681D01*
X66841646Y-174773306D02*
X66852332Y-174678469D01*
X52368831Y-174405375D02*
X52381487Y-174349923D01*
X65746726Y-175104664D02*
X66426137Y-175104664D01*
X69056811Y-174423630D02*
X69060062Y-174420379D01*
X51335642Y-178154400D02*
X51370376Y-178162328D01*
X51430330Y-178199999D02*
X51607137Y-178376806D01*
X51112555Y-175942493D02*
X51077092Y-175898024D01*
X65300000Y-174415900D02*
X65304568Y-174416414D01*
X51607137Y-178376806D02*
X51704610Y-178454538D01*
X51427297Y-175547821D02*
X51471765Y-175583284D01*
X67851889Y-175093978D02*
X67946726Y-175104664D01*
X52649674Y-174181412D02*
X52705126Y-174194068D01*
X54065645Y-176409215D02*
X54037903Y-176287667D01*
X51471765Y-175583284D02*
X52936212Y-177047731D01*
X52736570Y-177862962D02*
X52736570Y-177738289D01*
X52297033Y-178454538D02*
X52394507Y-178376806D01*
X51704610Y-178454538D02*
X51816937Y-178508632D01*
X51816937Y-178508632D02*
X51938485Y-178536375D01*
X64652332Y-174678469D02*
X64652332Y-174436432D01*
X52394507Y-178376806D02*
X52577001Y-178194311D01*
X51263722Y-175510486D02*
X51320600Y-175510486D01*
X52708828Y-177984510D02*
X52736570Y-177862962D01*
X52654734Y-178096837D02*
X52708828Y-177984510D01*
X69052846Y-174431863D02*
X69054365Y-174427523D01*
X54037903Y-176287667D02*
X53983809Y-176175340D01*
X52736570Y-177738289D02*
X52708828Y-177616741D01*
X65304568Y-174416414D02*
X65308908Y-174417933D01*
X51052413Y-175846779D02*
X51039757Y-175791327D01*
X67520017Y-174431863D02*
X67520532Y-174436432D01*
X53267560Y-177207300D02*
X53392234Y-177207300D01*
X66854365Y-174427523D02*
X66856811Y-174423630D01*
X51039757Y-175791327D02*
X51039757Y-175734449D01*
X65320532Y-174678469D02*
X65331217Y-174773306D01*
X53626109Y-177125464D02*
X53723582Y-177047731D01*
X51052413Y-175678997D02*
X51077092Y-175627752D01*
X51077092Y-175627752D02*
X51112555Y-175583283D01*
X51208270Y-175523142D02*
X51263722Y-175510486D01*
X51039757Y-175734449D02*
X51052413Y-175678997D01*
X51112555Y-175583283D02*
X51157023Y-175547822D01*
X54065645Y-176533888D02*
X54065645Y-176409215D01*
X53519068Y-174972439D02*
X53632197Y-175062655D01*
X51157023Y-175547822D02*
X51208270Y-175523142D01*
X51320600Y-175510486D02*
X51376052Y-175523142D01*
X68959349Y-174944197D02*
X69010125Y-174863388D01*
X69052332Y-174678469D02*
X69052332Y-174436432D01*
X51376052Y-175523142D02*
X51427297Y-175547821D01*
X52936212Y-177047731D02*
X53033686Y-177125464D01*
X53392234Y-177207300D02*
X53513782Y-177179558D01*
X65308908Y-174417933D02*
X65312801Y-174420379D01*
X53513782Y-177179558D02*
X53626109Y-177125464D01*
X53723582Y-177047731D02*
X53747726Y-177023588D01*
X53747726Y-177023588D02*
X53906076Y-176865237D01*
X54189396Y-175125437D02*
X54319763Y-175062656D01*
X53983809Y-176767763D02*
X54037903Y-176655436D01*
X69072864Y-174415900D02*
X117910572Y-174415900D01*
X65318498Y-174427523D02*
X65320017Y-174431863D01*
X54037903Y-176655436D02*
X54065645Y-176533888D01*
X53906076Y-176077866D02*
X53464104Y-175635894D01*
X53464104Y-175635894D02*
X53464104Y-175635897D01*
X53632197Y-175062655D02*
X53762564Y-175125436D01*
X64320974Y-175093978D02*
X64411056Y-175062457D01*
X52441629Y-174613419D02*
X52406166Y-174568950D01*
X53464104Y-175635897D02*
X53131835Y-175303628D01*
X52406166Y-174568950D02*
X52381487Y-174517705D01*
X52381487Y-174517705D02*
X52368831Y-174462253D01*
X52368831Y-174462253D02*
X52368831Y-174405375D01*
X66426137Y-175104664D02*
X66520974Y-175093978D01*
X64663955Y-174417933D02*
X64668295Y-174416414D01*
X52381487Y-174349923D02*
X52406166Y-174298678D01*
X52406166Y-174298678D02*
X52441629Y-174254209D01*
X54319763Y-175062656D02*
X54432892Y-174972438D01*
X65331217Y-174773306D02*
X65362738Y-174863388D01*
X52441629Y-174254209D02*
X52486097Y-174218748D01*
X63100000Y-174415900D02*
X63104568Y-174416414D01*
X52486097Y-174218748D02*
X52537344Y-174194068D01*
X52537344Y-174194068D02*
X52592796Y-174181412D01*
X52705126Y-174194068D02*
X52756371Y-174218747D01*
X52800839Y-174254210D02*
X53519068Y-174972439D01*
X52756371Y-174218747D02*
X52800839Y-174254210D01*
X66868295Y-174416414D02*
X66872864Y-174415900D01*
X66611056Y-175062457D02*
X66691865Y-175011681D01*
X53762564Y-175125436D02*
X53903632Y-175157634D01*
X53903632Y-175157634D02*
X54048328Y-175157635D01*
X64559349Y-174944197D02*
X64610125Y-174863388D01*
X121669672Y-182575000D02*
X173354585Y-182575000D01*
X54048328Y-175157635D02*
X54189396Y-175125437D01*
X63104568Y-174416414D02*
X63108908Y-174417933D01*
X54432892Y-174972438D02*
X54989428Y-174415900D01*
X54989428Y-174415900D02*
X63100000Y-174415900D01*
X63361807Y-175062457D02*
X63451889Y-175093978D01*
X63108908Y-174417933D02*
X63112801Y-174420379D01*
X63112801Y-174420379D02*
X63116052Y-174423630D01*
X63116052Y-174423630D02*
X63118498Y-174427523D01*
X63118498Y-174427523D02*
X63120017Y-174431863D01*
X63120017Y-174431863D02*
X63120532Y-174436432D01*
X63120532Y-174436432D02*
X63120532Y-174678469D01*
X63131217Y-174773306D02*
X63162738Y-174863388D01*
X63162738Y-174863388D02*
X63213514Y-174944197D01*
X63213514Y-174944197D02*
X63280998Y-175011681D01*
X68720974Y-175093978D02*
X68811056Y-175062457D01*
X64652332Y-174436432D02*
X64652846Y-174431863D01*
X63546726Y-175104664D02*
X64226137Y-175104664D01*
X64411056Y-175062457D02*
X64491865Y-175011681D01*
X64654365Y-174427523D02*
X64656811Y-174423630D01*
X66520974Y-175093978D02*
X66611056Y-175062457D01*
X64656811Y-174423630D02*
X64660062Y-174420379D01*
X64660062Y-174420379D02*
X64663955Y-174417933D01*
X64668295Y-174416414D02*
X64672864Y-174415900D01*
X64672864Y-174415900D02*
X65300000Y-174415900D01*
X65312801Y-174420379D02*
X65316052Y-174423630D01*
X65316052Y-174423630D02*
X65318498Y-174427523D01*
X65320017Y-174431863D02*
X65320532Y-174436432D01*
X65320532Y-174436432D02*
X65320532Y-174678469D01*
X65362738Y-174863388D02*
X65413514Y-174944197D01*
X65413514Y-174944197D02*
X65480998Y-175011681D01*
X65480998Y-175011681D02*
X65561807Y-175062457D01*
X66691865Y-175011681D02*
X66759349Y-174944197D01*
X66759349Y-174944197D02*
X66810125Y-174863388D01*
X66810125Y-174863388D02*
X66841646Y-174773306D01*
X66852332Y-174678469D02*
X66852332Y-174436432D01*
X66852332Y-174436432D02*
X66852846Y-174431863D01*
X66852846Y-174431863D02*
X66854365Y-174427523D01*
X66856811Y-174423630D02*
X66860062Y-174420379D01*
X66860062Y-174420379D02*
X66863955Y-174417933D01*
X118784100Y-175289428D02*
X118784100Y-179689428D01*
X66872864Y-174415900D02*
X67500000Y-174415900D01*
X66863955Y-174417933D02*
X66868295Y-174416414D01*
X67613514Y-174944197D02*
X67680998Y-175011681D01*
X67500000Y-174415900D02*
X67504568Y-174416414D01*
X67504568Y-174416414D02*
X67508908Y-174417933D01*
X67508908Y-174417933D02*
X67512801Y-174420379D01*
X67512801Y-174420379D02*
X67516052Y-174423630D01*
X67516052Y-174423630D02*
X67518498Y-174427523D01*
X67518498Y-174427523D02*
X67520017Y-174431863D01*
X67520532Y-174436432D02*
X67520532Y-174678469D01*
X67520532Y-174678469D02*
X67531217Y-174773306D01*
X67531217Y-174773306D02*
X67562738Y-174863388D01*
X67562738Y-174863388D02*
X67613514Y-174944197D01*
X67680998Y-175011681D02*
X67761807Y-175062457D01*
X67761807Y-175062457D02*
X67851889Y-175093978D01*
X67946726Y-175104664D02*
X68626137Y-175104664D01*
X69063955Y-174417933D02*
X69068295Y-174416414D01*
X68626137Y-175104664D02*
X68720974Y-175093978D01*
X68891865Y-175011681D02*
X68959349Y-174944197D01*
X69041646Y-174773306D02*
X69052332Y-174678469D01*
X69052332Y-174436432D02*
X69052846Y-174431863D01*
X69054365Y-174427523D02*
X69056811Y-174423630D01*
X69060062Y-174420379D02*
X69063955Y-174417933D01*
X69068295Y-174416414D02*
X69072864Y-174415900D01*
X117910572Y-174415900D02*
X118784100Y-175289428D01*
X118784100Y-179689428D02*
X121669672Y-182575000D01*
D16*
X173354585Y-182575000D02*
X173877438Y-182575000D01*
X173877438Y-182575000D02*
X173952438Y-182500000D01*
X175460000Y-182500000D02*
X173952438Y-182500000D01*
X30025000Y-182500000D02*
X30100000Y-182575000D01*
X28540000Y-182500000D02*
X30025000Y-182500000D01*
D15*
X72973900Y-175401401D02*
X72987268Y-175282753D01*
X79997138Y-176492560D02*
X80003604Y-176496623D01*
X72973045Y-176473487D02*
X72973900Y-176465900D01*
X76251612Y-176499145D02*
X76259200Y-176500000D01*
X74850123Y-176480695D02*
X74852645Y-176473487D01*
X80465787Y-176499145D02*
X80472995Y-176496623D01*
X74379600Y-176500000D02*
X74819400Y-176500000D01*
X75691899Y-174868200D02*
X75810547Y-174881569D01*
X73174655Y-174984528D02*
X73275753Y-174921004D01*
X79867972Y-175068956D02*
X79931496Y-175170054D01*
X81863900Y-175650000D02*
X81867262Y-175679841D01*
X72300620Y-175879871D02*
X72370128Y-175949379D01*
X76024344Y-174984528D02*
X76108772Y-175068956D01*
X73388452Y-174881569D02*
X73507100Y-174868200D01*
X118015900Y-176910572D02*
X118015900Y-180510572D01*
X73507100Y-174868200D02*
X73812299Y-174868200D01*
X116889428Y-175784100D02*
X118015900Y-176910572D01*
X78612700Y-175401401D02*
X78626068Y-175282753D01*
X81025500Y-174868200D02*
X81330699Y-174868200D01*
X72500000Y-176500000D02*
X72939800Y-176500000D01*
X74043646Y-174921004D02*
X74144744Y-174984528D01*
X79027252Y-174881569D02*
X79145900Y-174868200D01*
X76211731Y-175282753D02*
X76225100Y-175401401D01*
X72217386Y-175827572D02*
X72300620Y-175879871D01*
X79931496Y-175170054D02*
X79970931Y-175282753D01*
X72485204Y-176496623D02*
X72492412Y-176499145D01*
X72454893Y-176125396D02*
X72465900Y-176223078D01*
X76237938Y-176492560D02*
X76244404Y-176496623D01*
X80018400Y-176500000D02*
X80458200Y-176500000D01*
X76933855Y-174984528D02*
X77034953Y-174921004D01*
X78612700Y-176465900D02*
X78612700Y-175401401D01*
X74372012Y-176499145D02*
X74379600Y-176500000D01*
X74332131Y-175282753D02*
X74345500Y-175401401D01*
X79783544Y-174984528D02*
X79867972Y-175068956D01*
X80492300Y-175401401D02*
X80505668Y-175282753D01*
X72987268Y-175282753D02*
X73026703Y-175170054D01*
X72466754Y-176473487D02*
X72469276Y-176480695D01*
X79451099Y-174868200D02*
X79569747Y-174881569D01*
X75054255Y-174984528D02*
X75155353Y-174921004D01*
X76225954Y-176473487D02*
X76228476Y-176480695D01*
X81811096Y-175170054D02*
X81850531Y-175282753D01*
X78914553Y-174921004D02*
X79027252Y-174881569D01*
X78124004Y-176496623D02*
X78131212Y-176499145D01*
X74348876Y-176480695D02*
X74352939Y-176487161D01*
X73275753Y-174921004D02*
X73388452Y-174881569D01*
X72478738Y-176492560D02*
X72485204Y-176496623D01*
X72124603Y-175795106D02*
X72217386Y-175827572D01*
X76732245Y-176473487D02*
X76733100Y-176465900D01*
X76259200Y-176500000D02*
X76699000Y-176500000D01*
X74866868Y-175282753D02*
X74906303Y-175170054D01*
X72973900Y-176465900D02*
X72973900Y-175401401D01*
X81998000Y-175784100D02*
X116889428Y-175784100D01*
X73026703Y-175170054D02*
X73090227Y-175068956D01*
X78091331Y-175282753D02*
X78104700Y-175401401D01*
X74846060Y-176487161D02*
X74850123Y-176480695D01*
X80479461Y-176492560D02*
X80484860Y-176487161D01*
X76232539Y-176487161D02*
X76237938Y-176492560D01*
X76172296Y-175170054D02*
X76211731Y-175282753D01*
X30100000Y-183300000D02*
X48094672Y-183300000D01*
X48094672Y-183300000D02*
X55610572Y-175784100D01*
X55610572Y-175784100D02*
X72026921Y-175784100D01*
X72026921Y-175784100D02*
X72124603Y-175795106D01*
X72947387Y-176499145D02*
X72954595Y-176496623D01*
X72370128Y-175949379D02*
X72422427Y-176032613D01*
X72422427Y-176032613D02*
X72454893Y-176125396D01*
X72966460Y-176487161D02*
X72970523Y-176480695D01*
X72465900Y-176223078D02*
X72465900Y-176465900D01*
X72465900Y-176465900D02*
X72466754Y-176473487D01*
X72469276Y-176480695D02*
X72473339Y-176487161D01*
X76733100Y-175401401D02*
X76746468Y-175282753D01*
X72473339Y-176487161D02*
X72478738Y-176492560D01*
X72492412Y-176499145D02*
X72500000Y-176500000D01*
X78609323Y-176480695D02*
X78611845Y-176473487D01*
X72939800Y-176500000D02*
X72947387Y-176499145D01*
X72954595Y-176496623D02*
X72961061Y-176492560D01*
X72961061Y-176492560D02*
X72966460Y-176487161D01*
X72970523Y-176480695D02*
X72973045Y-176473487D01*
X78729027Y-175068956D02*
X78813455Y-174984528D01*
X73090227Y-175068956D02*
X73174655Y-174984528D01*
X81893156Y-175733610D02*
X81914390Y-175754844D01*
X74229172Y-175068956D02*
X74292696Y-175170054D01*
X75155353Y-174921004D02*
X75268052Y-174881569D01*
X73812299Y-174868200D02*
X73930947Y-174881569D01*
X78104700Y-176465900D02*
X78105554Y-176473487D01*
X73930947Y-174881569D02*
X74043646Y-174921004D01*
X74144744Y-174984528D02*
X74229172Y-175068956D01*
X74292696Y-175170054D02*
X74332131Y-175282753D01*
X74345500Y-175401401D02*
X74345500Y-176465900D01*
X74345500Y-176465900D02*
X74346354Y-176473487D01*
X74346354Y-176473487D02*
X74348876Y-176480695D01*
X74352939Y-176487161D02*
X74358338Y-176492560D01*
X74358338Y-176492560D02*
X74364804Y-176496623D01*
X74364804Y-176496623D02*
X74372012Y-176499145D01*
X74819400Y-176500000D02*
X74826987Y-176499145D01*
X74826987Y-176499145D02*
X74834195Y-176496623D01*
X74834195Y-176496623D02*
X74840661Y-176492560D01*
X74840661Y-176492560D02*
X74846060Y-176487161D01*
X74852645Y-176473487D02*
X74853500Y-176465900D01*
X74853500Y-176465900D02*
X74853500Y-175401401D01*
X74853500Y-175401401D02*
X74866868Y-175282753D01*
X74906303Y-175170054D02*
X74969827Y-175068956D01*
X74969827Y-175068956D02*
X75054255Y-174984528D01*
X75268052Y-174881569D02*
X75386700Y-174868200D01*
X75386700Y-174868200D02*
X75691899Y-174868200D01*
X75923246Y-174921004D02*
X76024344Y-174984528D01*
X75810547Y-174881569D02*
X75923246Y-174921004D01*
X76108772Y-175068956D02*
X76172296Y-175170054D01*
X76225100Y-175401401D02*
X76225100Y-176465900D01*
X76225100Y-176465900D02*
X76225954Y-176473487D01*
X80484860Y-176487161D02*
X80488923Y-176480695D01*
X76228476Y-176480695D02*
X76232539Y-176487161D01*
X76244404Y-176496623D02*
X76251612Y-176499145D01*
X76746468Y-175282753D02*
X76785903Y-175170054D01*
X76699000Y-176500000D02*
X76706587Y-176499145D01*
X76706587Y-176499145D02*
X76713795Y-176496623D01*
X80488923Y-176480695D02*
X80491445Y-176473487D01*
X76713795Y-176496623D02*
X76720261Y-176492560D01*
X76720261Y-176492560D02*
X76725660Y-176487161D01*
X76725660Y-176487161D02*
X76729723Y-176480695D01*
X78131212Y-176499145D02*
X78138800Y-176500000D01*
X76729723Y-176480695D02*
X76732245Y-176473487D01*
X76733100Y-176465900D02*
X76733100Y-175401401D01*
X76785903Y-175170054D02*
X76849427Y-175068956D01*
X79987676Y-176480695D02*
X79991739Y-176487161D01*
X76849427Y-175068956D02*
X76933855Y-174984528D01*
X77034953Y-174921004D02*
X77147652Y-174881569D01*
X77147652Y-174881569D02*
X77266300Y-174868200D01*
X77266300Y-174868200D02*
X77571499Y-174868200D01*
X77571499Y-174868200D02*
X77690147Y-174881569D01*
X81850531Y-175282753D02*
X81863900Y-175401401D01*
X77690147Y-174881569D02*
X77802846Y-174921004D01*
X77802846Y-174921004D02*
X77903944Y-174984528D01*
X77903944Y-174984528D02*
X77988372Y-175068956D01*
X77988372Y-175068956D02*
X78051896Y-175170054D01*
X78051896Y-175170054D02*
X78091331Y-175282753D01*
X78104700Y-175401401D02*
X78104700Y-176465900D01*
X78105554Y-176473487D02*
X78108076Y-176480695D01*
X78108076Y-176480695D02*
X78112139Y-176487161D01*
X78112139Y-176487161D02*
X78117538Y-176492560D01*
X78117538Y-176492560D02*
X78124004Y-176496623D01*
X78138800Y-176500000D02*
X78578600Y-176500000D01*
X78578600Y-176500000D02*
X78586187Y-176499145D01*
X78586187Y-176499145D02*
X78593395Y-176496623D01*
X78593395Y-176496623D02*
X78599861Y-176492560D01*
X79145900Y-174868200D02*
X79451099Y-174868200D01*
X78599861Y-176492560D02*
X78605260Y-176487161D01*
X78605260Y-176487161D02*
X78609323Y-176480695D01*
X78611845Y-176473487D02*
X78612700Y-176465900D01*
X78626068Y-175282753D02*
X78665503Y-175170054D01*
X78665503Y-175170054D02*
X78729027Y-175068956D01*
X78813455Y-174984528D02*
X78914553Y-174921004D01*
X79569747Y-174881569D02*
X79682446Y-174921004D01*
X79682446Y-174921004D02*
X79783544Y-174984528D01*
X79970931Y-175282753D02*
X79984300Y-175401401D01*
X79984300Y-175401401D02*
X79984300Y-176465900D01*
X79984300Y-176465900D02*
X79985154Y-176473487D01*
X79985154Y-176473487D02*
X79987676Y-176480695D01*
X79991739Y-176487161D02*
X79997138Y-176492560D01*
X80003604Y-176496623D02*
X80010812Y-176499145D01*
X80010812Y-176499145D02*
X80018400Y-176500000D01*
X80458200Y-176500000D02*
X80465787Y-176499145D01*
X80472995Y-176496623D02*
X80479461Y-176492560D01*
X80545103Y-175170054D02*
X80608627Y-175068956D01*
X80491445Y-176473487D02*
X80492300Y-176465900D01*
X80492300Y-176465900D02*
X80492300Y-175401401D01*
X80505668Y-175282753D02*
X80545103Y-175170054D01*
X80608627Y-175068956D02*
X80693055Y-174984528D01*
X80693055Y-174984528D02*
X80794153Y-174921004D01*
X80794153Y-174921004D02*
X80906852Y-174881569D01*
X80906852Y-174881569D02*
X81025500Y-174868200D01*
X81330699Y-174868200D02*
X81449347Y-174881569D01*
X81449347Y-174881569D02*
X81562046Y-174921004D01*
X81562046Y-174921004D02*
X81663144Y-174984528D01*
X81663144Y-174984528D02*
X81747572Y-175068956D01*
X81747572Y-175068956D02*
X81811096Y-175170054D01*
X81863900Y-175401401D02*
X81863900Y-175650000D01*
X81867262Y-175679841D02*
X81877180Y-175708184D01*
X81877180Y-175708184D02*
X81893156Y-175733610D01*
X81914390Y-175754844D02*
X81939816Y-175770820D01*
X81939816Y-175770820D02*
X81968159Y-175780738D01*
X81968159Y-175780738D02*
X81998000Y-175784100D01*
X118015900Y-180510572D02*
X120730328Y-183225000D01*
X120730328Y-183225000D02*
X173840900Y-183225000D01*
D16*
X29900000Y-183300000D02*
X30100000Y-183300000D01*
X175460000Y-183300000D02*
X173915900Y-183300000D01*
X173915900Y-183300000D02*
X173840900Y-183225000D01*
X28540000Y-183300000D02*
X29900000Y-183300000D01*
D15*
X30100000Y-183800000D02*
X48205328Y-183800000D01*
X72282613Y-176888327D02*
X72375396Y-176920793D01*
X79418400Y-175300000D02*
X79448240Y-175303363D01*
X73884443Y-175350491D02*
X73900419Y-175375917D01*
X48205328Y-183800000D02*
X55789428Y-176215900D01*
X55789428Y-176215900D02*
X72000000Y-176215900D01*
X78703203Y-176920793D02*
X78795986Y-176888327D01*
X75804306Y-176590503D02*
X75836772Y-176683286D01*
X73064403Y-176920793D02*
X73157186Y-176888327D01*
X72375396Y-176920793D02*
X72473078Y-176931800D01*
X79549137Y-175404260D02*
X79552500Y-175434100D01*
X72000000Y-176215900D02*
X72007587Y-176216754D01*
X75036786Y-176888327D02*
X75120020Y-176836028D01*
X81548427Y-176015145D02*
X81632855Y-176099573D01*
X77838179Y-176836028D02*
X77921413Y-176888327D01*
X72034100Y-176492821D02*
X72045106Y-176590503D01*
X77538800Y-175300000D02*
X77568640Y-175303363D01*
X77568640Y-175303363D02*
X77596983Y-175313281D01*
X80880627Y-176683286D02*
X80913093Y-176590503D01*
X72007587Y-176216754D02*
X72014795Y-176219276D01*
X73405700Y-176492821D02*
X73405700Y-175434100D01*
X79148759Y-175303363D02*
X79178600Y-175300000D01*
X72129871Y-176766520D02*
X72199379Y-176836028D01*
X73779600Y-175300000D02*
X73809440Y-175303363D01*
X80924100Y-176492821D02*
X80924100Y-175434100D01*
X77299000Y-175300000D02*
X77538800Y-175300000D01*
X77215390Y-175329257D02*
X77240816Y-175313281D01*
X73409062Y-175404260D02*
X73418980Y-175375917D01*
X77240816Y-175313281D02*
X77269159Y-175303363D01*
X73913700Y-176492821D02*
X73924706Y-176590503D01*
X79044500Y-176492821D02*
X79044500Y-175434100D01*
X72014795Y-176219276D02*
X72021261Y-176223339D01*
X81632855Y-176099573D02*
X81733953Y-176163097D01*
X77194156Y-175350491D02*
X77215390Y-175329257D01*
X79057780Y-175375917D02*
X79073756Y-175350491D01*
X79801013Y-176888327D02*
X79893796Y-176920793D01*
X73157186Y-176888327D02*
X73240420Y-176836028D01*
X73913700Y-175434100D02*
X73913700Y-176492821D01*
X72199379Y-176836028D02*
X72282613Y-176888327D01*
X73539800Y-175300000D02*
X73779600Y-175300000D01*
X72021261Y-176223339D02*
X72026660Y-176228738D01*
X75285300Y-176492821D02*
X75285300Y-175434100D01*
X72026660Y-176228738D02*
X72030723Y-176235204D01*
X72030723Y-176235204D02*
X72033245Y-176242412D01*
X72033245Y-176242412D02*
X72034100Y-176250000D01*
X75285300Y-175434100D02*
X75288662Y-175404260D01*
X73924706Y-176590503D02*
X73957172Y-176683286D01*
X72034100Y-176250000D02*
X72034100Y-176492821D01*
X72077572Y-176683286D02*
X72129871Y-176766520D01*
X73509959Y-175303363D02*
X73539800Y-175300000D01*
X76823603Y-176920793D02*
X76916386Y-176888327D01*
X79094990Y-175329257D02*
X79120416Y-175313281D01*
X72045106Y-176590503D02*
X72077572Y-176683286D01*
X74846321Y-176931800D02*
X74944003Y-176920793D01*
X72473078Y-176931800D02*
X72966721Y-176931800D01*
X72966721Y-176931800D02*
X73064403Y-176920793D01*
X76134596Y-176920793D02*
X76232278Y-176931800D01*
X80974590Y-175329257D02*
X81000016Y-175313281D01*
X74944003Y-176920793D02*
X75036786Y-176888327D01*
X74009471Y-176766520D02*
X74078979Y-176836028D01*
X77178180Y-175375917D02*
X77194156Y-175350491D01*
X73240420Y-176836028D02*
X73309928Y-176766520D01*
X80828328Y-176766520D02*
X80880627Y-176683286D01*
X73309928Y-176766520D02*
X73362227Y-176683286D01*
X73809440Y-175303363D02*
X73837783Y-175313281D01*
X74162213Y-176888327D02*
X74254996Y-176920793D01*
X76232278Y-176931800D02*
X76725921Y-176931800D01*
X73362227Y-176683286D02*
X73394693Y-176590503D01*
X77716372Y-176683286D02*
X77768671Y-176766520D01*
X73394693Y-176590503D02*
X73405700Y-176492821D01*
X73405700Y-175434100D02*
X73409062Y-175404260D01*
X80924100Y-175434100D02*
X80927462Y-175404260D01*
X77622409Y-175329257D02*
X77643643Y-175350491D01*
X79001027Y-176683286D02*
X79033493Y-176590503D01*
X73418980Y-175375917D02*
X73434956Y-175350491D01*
X73434956Y-175350491D02*
X73456190Y-175329257D01*
X73456190Y-175329257D02*
X73481616Y-175313281D01*
X73481616Y-175313281D02*
X73509959Y-175303363D01*
X73837783Y-175313281D02*
X73863209Y-175329257D01*
X81428737Y-175404260D02*
X81432100Y-175434100D01*
X77672900Y-175434100D02*
X77672900Y-176492821D01*
X73863209Y-175329257D02*
X73884443Y-175350491D01*
X75958579Y-176836028D02*
X76041813Y-176888327D01*
X73900419Y-175375917D02*
X73910337Y-175404260D01*
X77168262Y-175404260D02*
X77178180Y-175375917D01*
X73910337Y-175404260D02*
X73913700Y-175434100D01*
X75335790Y-175329257D02*
X75361216Y-175313281D01*
X73957172Y-176683286D02*
X74009471Y-176766520D01*
X79044500Y-175434100D02*
X79047862Y-175404260D01*
X74078979Y-176836028D02*
X74162213Y-176888327D01*
X74254996Y-176920793D02*
X74352678Y-176931800D01*
X78879220Y-176836028D02*
X78948728Y-176766520D01*
X76916386Y-176888327D02*
X76999620Y-176836028D01*
X74352678Y-176931800D02*
X74846321Y-176931800D01*
X75120020Y-176836028D02*
X75189528Y-176766520D01*
X75793300Y-175434100D02*
X75793300Y-176492821D01*
X79120416Y-175313281D02*
X79148759Y-175303363D01*
X75717383Y-175313281D02*
X75742809Y-175329257D01*
X75189528Y-176766520D02*
X75241827Y-176683286D01*
X81058200Y-175300000D02*
X81298000Y-175300000D01*
X75241827Y-176683286D02*
X75274293Y-176590503D01*
X79476583Y-175313281D02*
X79502009Y-175329257D01*
X75274293Y-176590503D02*
X75285300Y-176492821D01*
X75288662Y-175404260D02*
X75298580Y-175375917D01*
X77153893Y-176590503D02*
X77164900Y-176492821D01*
X81432100Y-175434100D02*
X81432100Y-175682700D01*
X75298580Y-175375917D02*
X75314556Y-175350491D01*
X75314556Y-175350491D02*
X75335790Y-175329257D01*
X75361216Y-175313281D02*
X75389559Y-175303363D01*
X75389559Y-175303363D02*
X75419400Y-175300000D01*
X75789937Y-175404260D02*
X75793300Y-175434100D01*
X77669537Y-175404260D02*
X77672900Y-175434100D01*
X75419400Y-175300000D02*
X75659200Y-175300000D01*
X75780019Y-175375917D02*
X75789937Y-175404260D01*
X75659200Y-175300000D02*
X75689040Y-175303363D01*
X75689040Y-175303363D02*
X75717383Y-175313281D01*
X80913093Y-176590503D02*
X80924100Y-176492821D01*
X81028359Y-175303363D02*
X81058200Y-175300000D01*
X79717779Y-176836028D02*
X79801013Y-176888327D01*
X78111878Y-176931800D02*
X78605521Y-176931800D01*
X75742809Y-175329257D02*
X75764043Y-175350491D01*
X75764043Y-175350491D02*
X75780019Y-175375917D01*
X77921413Y-176888327D02*
X78014196Y-176920793D01*
X79047862Y-175404260D02*
X79057780Y-175375917D01*
X75793300Y-176492821D02*
X75804306Y-176590503D01*
X77683906Y-176590503D02*
X77716372Y-176683286D01*
X75836772Y-176683286D02*
X75889071Y-176766520D01*
X79991478Y-176931800D02*
X80485121Y-176931800D01*
X75889071Y-176766520D02*
X75958579Y-176836028D01*
X76041813Y-176888327D02*
X76134596Y-176920793D01*
X77768671Y-176766520D02*
X77838179Y-176836028D01*
X76725921Y-176931800D02*
X76823603Y-176920793D01*
X76999620Y-176836028D02*
X77069128Y-176766520D01*
X77069128Y-176766520D02*
X77121427Y-176683286D01*
X77121427Y-176683286D02*
X77153893Y-176590503D01*
X77164900Y-176492821D02*
X77164900Y-175434100D01*
X81846652Y-176202532D02*
X81965300Y-176215900D01*
X77164900Y-175434100D02*
X77168262Y-175404260D01*
X116710572Y-176215900D02*
X117584100Y-177089428D01*
X77269159Y-175303363D02*
X77299000Y-175300000D01*
X77596983Y-175313281D02*
X77622409Y-175329257D01*
X81965300Y-176215900D02*
X116710572Y-176215900D01*
X81381609Y-175329257D02*
X81402843Y-175350491D01*
X77643643Y-175350491D02*
X77659619Y-175375917D01*
X80758820Y-176836028D02*
X80828328Y-176766520D01*
X77659619Y-175375917D02*
X77669537Y-175404260D01*
X78795986Y-176888327D02*
X78879220Y-176836028D01*
X77672900Y-176492821D02*
X77683906Y-176590503D01*
X79073756Y-175350491D02*
X79094990Y-175329257D01*
X78014196Y-176920793D02*
X78111878Y-176931800D01*
X78605521Y-176931800D02*
X78703203Y-176920793D01*
X78948728Y-176766520D02*
X79001027Y-176683286D01*
X79033493Y-176590503D02*
X79044500Y-176492821D01*
X79178600Y-175300000D02*
X79418400Y-175300000D01*
X79448240Y-175303363D02*
X79476583Y-175313281D01*
X79523243Y-175350491D02*
X79539219Y-175375917D01*
X79502009Y-175329257D02*
X79523243Y-175350491D01*
X79539219Y-175375917D02*
X79549137Y-175404260D01*
X79552500Y-175434100D02*
X79552500Y-176492821D01*
X79552500Y-176492821D02*
X79563506Y-176590503D01*
X79563506Y-176590503D02*
X79595972Y-176683286D01*
X120594672Y-183700000D02*
X173815900Y-183700000D01*
X79595972Y-176683286D02*
X79648271Y-176766520D01*
X79648271Y-176766520D02*
X79717779Y-176836028D01*
X79893796Y-176920793D02*
X79991478Y-176931800D01*
X80485121Y-176931800D02*
X80582803Y-176920793D01*
X80582803Y-176920793D02*
X80675586Y-176888327D01*
X80675586Y-176888327D02*
X80758820Y-176836028D01*
X80927462Y-175404260D02*
X80937380Y-175375917D01*
X80937380Y-175375917D02*
X80953356Y-175350491D01*
X80953356Y-175350491D02*
X80974590Y-175329257D01*
X81000016Y-175313281D02*
X81028359Y-175303363D01*
X81298000Y-175300000D02*
X81327840Y-175303363D01*
X81327840Y-175303363D02*
X81356183Y-175313281D01*
X81356183Y-175313281D02*
X81381609Y-175329257D01*
X81402843Y-175350491D02*
X81418819Y-175375917D01*
X81418819Y-175375917D02*
X81428737Y-175404260D01*
X81432100Y-175682700D02*
X81445468Y-175801348D01*
X117584100Y-180689428D02*
X120594672Y-183700000D01*
X81445468Y-175801348D02*
X81484903Y-175914047D01*
X81484903Y-175914047D02*
X81548427Y-176015145D01*
X81733953Y-176163097D02*
X81846652Y-176202532D01*
X117584100Y-177089428D02*
X117584100Y-180689428D01*
D16*
X30000000Y-183700000D02*
X30100000Y-183800000D01*
X175460000Y-183700000D02*
X173815900Y-183700000D01*
X28540000Y-183700000D02*
X30000000Y-183700000D01*
D15*
X55410572Y-177384100D02*
X112789428Y-177384100D01*
X127256732Y-185410849D02*
X127332442Y-185290358D01*
X126038972Y-186184100D02*
X126180380Y-186200032D01*
X121589428Y-186184100D02*
X126038972Y-186184100D01*
X129950926Y-185067025D02*
X130085243Y-185114025D01*
X132348630Y-187179737D02*
X132377539Y-187225746D01*
X133071865Y-185189735D02*
X133192356Y-185114025D01*
X128830746Y-187317108D02*
X128884741Y-187311024D01*
X128702770Y-187293077D02*
X128754058Y-187311024D01*
X131015932Y-185410849D02*
X131091642Y-185290358D01*
X129073400Y-187074454D02*
X129073400Y-185686574D01*
X128205643Y-185114025D02*
X128326134Y-185189735D01*
X134204200Y-185941446D02*
X134210283Y-185995442D01*
X126727393Y-187225746D02*
X126765815Y-187264168D01*
X128656761Y-187264168D02*
X128702770Y-187293077D01*
X126314697Y-186247032D02*
X126435188Y-186322742D01*
X130451083Y-187128449D02*
X130469030Y-187179737D01*
X127687873Y-185067025D02*
X127829281Y-185051092D01*
X130764341Y-187311024D02*
X130815629Y-187293077D01*
X131830526Y-185067025D02*
X131964843Y-185114025D01*
X129433156Y-185114025D02*
X129567473Y-185067025D01*
X132261667Y-185410849D02*
X132308667Y-185545166D01*
X128754058Y-187311024D02*
X128808054Y-187317108D01*
X130710346Y-187317108D02*
X130764341Y-187311024D01*
X134188267Y-185545166D02*
X134204200Y-185686574D01*
X127553556Y-185114025D02*
X127687873Y-185067025D01*
X129567473Y-185067025D02*
X129708881Y-185051092D01*
X129089332Y-185545166D02*
X129136332Y-185410849D01*
X132513258Y-187311024D02*
X132567254Y-187317108D01*
X134210283Y-185995442D02*
X134228230Y-186046730D01*
X130633658Y-187311024D02*
X130687654Y-187317108D01*
X127182454Y-186400000D02*
X127193800Y-186400000D01*
X128565400Y-187074454D02*
X128571483Y-187128449D01*
X128884741Y-187311024D02*
X128936029Y-187293077D01*
X126680537Y-187128449D02*
X126698484Y-187179737D01*
X132832600Y-187074454D02*
X132832600Y-185686574D01*
X132589946Y-187317108D02*
X132643941Y-187311024D01*
X134341570Y-186160070D02*
X134392858Y-186178017D01*
X48294672Y-184500000D02*
X55410572Y-177384100D01*
X129073400Y-185686574D02*
X129089332Y-185545166D01*
X127209732Y-185545166D02*
X127256732Y-185410849D01*
X132826516Y-187128449D02*
X132832600Y-187074454D01*
X130815629Y-187293077D02*
X130861638Y-187264168D01*
X132377539Y-187225746D02*
X132415961Y-187264168D01*
X127091092Y-187264168D02*
X127129514Y-187225746D01*
X129809518Y-185051092D02*
X129950926Y-185067025D01*
X126674454Y-187074454D02*
X126680537Y-187128449D01*
X127433065Y-185189735D02*
X127553556Y-185114025D01*
X128549467Y-185545166D02*
X128565400Y-185686574D01*
X131091642Y-185290358D02*
X131192265Y-185189735D01*
X129312665Y-185189735D02*
X129433156Y-185114025D01*
X132643941Y-187311024D02*
X132695229Y-187293077D01*
X130382067Y-185410849D02*
X130429067Y-185545166D01*
X129136332Y-185410849D02*
X129212042Y-185290358D01*
X127193800Y-185686574D02*
X127209732Y-185545166D01*
X128589430Y-187179737D02*
X128618339Y-187225746D01*
X127158423Y-187179737D02*
X127176370Y-187128449D01*
X132085334Y-185189735D02*
X132185957Y-185290358D01*
X130497939Y-187225746D02*
X130536361Y-187264168D01*
X128936029Y-187293077D02*
X128982038Y-187264168D01*
X128565400Y-185686574D02*
X128565400Y-187074454D01*
X126917108Y-187317108D02*
X126939800Y-187317108D01*
X112789428Y-177384100D02*
X121589428Y-186184100D01*
X30100000Y-184500000D02*
X48294672Y-184500000D01*
X126180380Y-186200032D02*
X126314697Y-186247032D01*
X126435188Y-186322742D02*
X126535811Y-186423365D01*
X126535811Y-186423365D02*
X126611521Y-186543856D01*
X130306357Y-185290358D02*
X130382067Y-185410849D01*
X126611521Y-186543856D02*
X126658521Y-186678173D01*
X129708881Y-185051092D02*
X129809518Y-185051092D01*
X126658521Y-186678173D02*
X126674454Y-186819581D01*
X130928969Y-187179737D02*
X130946916Y-187128449D01*
X126674454Y-186819581D02*
X126674454Y-187074454D01*
X134141267Y-185410849D02*
X134188267Y-185545166D01*
X128071326Y-185067025D02*
X128205643Y-185114025D01*
X126698484Y-187179737D02*
X126727393Y-187225746D01*
X130205734Y-185189735D02*
X130306357Y-185290358D01*
X126765815Y-187264168D02*
X126811824Y-187293077D01*
X126811824Y-187293077D02*
X126863112Y-187311024D01*
X126863112Y-187311024D02*
X126917108Y-187317108D01*
X126939800Y-187317108D02*
X126993795Y-187311024D01*
X126993795Y-187311024D02*
X127045083Y-187293077D01*
X127045083Y-187293077D02*
X127091092Y-187264168D01*
X127129514Y-187225746D02*
X127158423Y-187179737D01*
X127176370Y-187128449D02*
X127182454Y-187074454D01*
X127182454Y-187074454D02*
X127182454Y-186400000D01*
X127193800Y-186400000D02*
X127193800Y-185686574D01*
X127332442Y-185290358D02*
X127433065Y-185189735D01*
X127829281Y-185051092D02*
X127929918Y-185051092D01*
X127929918Y-185051092D02*
X128071326Y-185067025D01*
X128326134Y-185189735D02*
X128426757Y-185290358D01*
X128426757Y-185290358D02*
X128502467Y-185410849D01*
X130968932Y-185545166D02*
X131015932Y-185410849D01*
X128502467Y-185410849D02*
X128549467Y-185545166D01*
X131312756Y-185114025D02*
X131447073Y-185067025D01*
X128571483Y-187128449D02*
X128589430Y-187179737D01*
X128618339Y-187225746D02*
X128656761Y-187264168D01*
X128808054Y-187317108D02*
X128830746Y-187317108D01*
X128982038Y-187264168D02*
X129020460Y-187225746D01*
X129020460Y-187225746D02*
X129049369Y-187179737D01*
X129049369Y-187179737D02*
X129067316Y-187128449D01*
X130445000Y-185686574D02*
X130445000Y-187074454D01*
X129067316Y-187128449D02*
X129073400Y-187074454D01*
X129212042Y-185290358D02*
X129312665Y-185189735D01*
X130085243Y-185114025D02*
X130205734Y-185189735D01*
X130953000Y-185686574D02*
X130968932Y-185545166D01*
X132895532Y-185410849D02*
X132971242Y-185290358D01*
X131447073Y-185067025D02*
X131588481Y-185051092D01*
X130429067Y-185545166D02*
X130445000Y-185686574D01*
X130445000Y-187074454D02*
X130451083Y-187128449D01*
X131192265Y-185189735D02*
X131312756Y-185114025D01*
X130469030Y-187179737D02*
X130497939Y-187225746D01*
X130536361Y-187264168D02*
X130582370Y-187293077D01*
X130582370Y-187293077D02*
X130633658Y-187311024D01*
X130687654Y-187317108D02*
X130710346Y-187317108D01*
X132779660Y-187225746D02*
X132808569Y-187179737D01*
X130861638Y-187264168D02*
X130900060Y-187225746D01*
X130900060Y-187225746D02*
X130928969Y-187179737D01*
X130946916Y-187128449D02*
X130953000Y-187074454D01*
X130953000Y-187074454D02*
X130953000Y-185686574D01*
X131588481Y-185051092D02*
X131689118Y-185051092D01*
X131689118Y-185051092D02*
X131830526Y-185067025D01*
X131964843Y-185114025D02*
X132085334Y-185189735D01*
X132185957Y-185290358D02*
X132261667Y-185410849D01*
X132308667Y-185545166D02*
X132324600Y-185686574D01*
X132324600Y-185686574D02*
X132324600Y-187074454D01*
X166210572Y-186184100D02*
X167894672Y-184500000D01*
X132324600Y-187074454D02*
X132330683Y-187128449D01*
X132330683Y-187128449D02*
X132348630Y-187179737D01*
X132415961Y-187264168D02*
X132461970Y-187293077D01*
X132461970Y-187293077D02*
X132513258Y-187311024D01*
X132567254Y-187317108D02*
X132589946Y-187317108D01*
X132695229Y-187293077D02*
X132741238Y-187264168D01*
X134295561Y-186131161D02*
X134341570Y-186160070D01*
X132741238Y-187264168D02*
X132779660Y-187225746D01*
X132808569Y-187179737D02*
X132826516Y-187128449D01*
X132832600Y-185686574D02*
X132848532Y-185545166D01*
X132848532Y-185545166D02*
X132895532Y-185410849D01*
X132971242Y-185290358D02*
X133071865Y-185189735D01*
X133192356Y-185114025D02*
X133326673Y-185067025D01*
X133326673Y-185067025D02*
X133468081Y-185051092D01*
X133468081Y-185051092D02*
X133568718Y-185051092D01*
X133568718Y-185051092D02*
X133710126Y-185067025D01*
X133710126Y-185067025D02*
X133844443Y-185114025D01*
X133844443Y-185114025D02*
X133964934Y-185189735D01*
X133964934Y-185189735D02*
X134065557Y-185290358D01*
X134065557Y-185290358D02*
X134141267Y-185410849D01*
X134204200Y-185686574D02*
X134204200Y-185941446D01*
X134228230Y-186046730D02*
X134257139Y-186092739D01*
X134257139Y-186092739D02*
X134295561Y-186131161D01*
X134392858Y-186178017D02*
X134446854Y-186184100D01*
X134446854Y-186184100D02*
X166210572Y-186184100D01*
X167894672Y-184500000D02*
X173700000Y-184500000D01*
D16*
X29800000Y-184500000D02*
X30100000Y-184500000D01*
X173700000Y-184500000D02*
X175460000Y-184500000D01*
X28540000Y-184500000D02*
X29800000Y-184500000D01*
D15*
X55589428Y-177815900D02*
X112610572Y-177815900D01*
X48305328Y-185100000D02*
X55589428Y-177815900D01*
X30100000Y-185100000D02*
X48305328Y-185100000D01*
X133748369Y-185620263D02*
X133766316Y-185671551D01*
X129642570Y-185506923D02*
X129693858Y-185488976D01*
X130151842Y-187509642D02*
X130252465Y-187610265D01*
X128109569Y-185620263D02*
X128127516Y-185671551D01*
X132528281Y-187748908D02*
X132628918Y-187748908D01*
X132386873Y-187732975D02*
X132528281Y-187748908D01*
X126481919Y-187610265D02*
X126602410Y-187685975D01*
X131886716Y-185671551D02*
X131892800Y-185725546D01*
X133635029Y-185506923D02*
X133681038Y-185535832D01*
X126242654Y-186858554D02*
X126242654Y-187113426D01*
X129529230Y-185620263D02*
X129558139Y-185574254D01*
X126236570Y-186804558D02*
X126242654Y-186858554D01*
X129747854Y-185482892D02*
X129770546Y-185482892D01*
X121410572Y-186615900D02*
X126000000Y-186615900D01*
X112610572Y-177815900D02*
X121410572Y-186615900D01*
X131246157Y-187509642D02*
X131321867Y-187389151D01*
X126000000Y-186615900D02*
X126053995Y-186621983D01*
X129824541Y-185488976D02*
X129875829Y-185506923D01*
X127762970Y-185506923D02*
X127814258Y-185488976D01*
X126189714Y-186707261D02*
X126218623Y-186753270D01*
X126053995Y-186621983D02*
X126105283Y-186639930D01*
X126878135Y-187748908D02*
X126978772Y-187748908D01*
X126105283Y-186639930D02*
X126151292Y-186668839D01*
X129505200Y-185725546D02*
X129511283Y-185671551D01*
X131650146Y-185482892D02*
X131704141Y-185488976D01*
X131892800Y-187113426D02*
X131908732Y-187254834D01*
X126218623Y-186753270D02*
X126236570Y-186804558D01*
X128372865Y-187610265D02*
X128493356Y-187685975D01*
X130252465Y-187610265D02*
X130372956Y-187685975D01*
X133355761Y-185535832D02*
X133401770Y-185506923D01*
X126736727Y-187732975D02*
X126878135Y-187748908D01*
X130507273Y-187732975D02*
X130648681Y-187748908D01*
X126151292Y-186668839D02*
X126189714Y-186707261D01*
X127614254Y-186400000D02*
X127625600Y-186400000D01*
X127598321Y-187254834D02*
X127614254Y-187113426D01*
X126242654Y-187113426D02*
X126258586Y-187254834D01*
X128196532Y-187389151D02*
X128272242Y-187509642D01*
X127614254Y-187113426D02*
X127614254Y-186400000D01*
X126258586Y-187254834D02*
X126305586Y-187389151D01*
X126305586Y-187389151D02*
X126381296Y-187509642D01*
X126381296Y-187509642D02*
X126481919Y-187610265D01*
X129511283Y-185671551D02*
X129529230Y-185620263D01*
X131145534Y-187610265D02*
X131246157Y-187509642D01*
X126602410Y-187685975D02*
X126736727Y-187732975D01*
X129558139Y-185574254D02*
X129596561Y-185535832D01*
X129366557Y-187509642D02*
X129442267Y-187389151D01*
X130648681Y-187748908D02*
X130749318Y-187748908D01*
X131408830Y-185620263D02*
X131437739Y-185574254D01*
X128042238Y-185535832D02*
X128080660Y-185574254D01*
X128769081Y-187748908D02*
X128869718Y-187748908D01*
X133681038Y-185535832D02*
X133719460Y-185574254D01*
X126978772Y-187748908D02*
X127120180Y-187732975D01*
X127120180Y-187732975D02*
X127254497Y-187685975D01*
X127678539Y-185574254D02*
X127716961Y-185535832D01*
X132904643Y-187685975D02*
X133025134Y-187610265D01*
X127254497Y-187685975D02*
X127374988Y-187610265D01*
X127374988Y-187610265D02*
X127475611Y-187509642D01*
X127944941Y-185488976D02*
X127996229Y-185506923D01*
X127475611Y-187509642D02*
X127551321Y-187389151D01*
X131522170Y-185506923D02*
X131573458Y-185488976D01*
X127631683Y-185671551D02*
X127649630Y-185620263D01*
X129265934Y-187610265D02*
X129366557Y-187509642D01*
X127551321Y-187389151D02*
X127598321Y-187254834D01*
X127868254Y-185482892D02*
X127890946Y-185482892D01*
X131384800Y-185725546D02*
X131390883Y-185671551D01*
X127625600Y-186400000D02*
X127625600Y-185725546D01*
X131025043Y-187685975D02*
X131145534Y-187610265D01*
X128627673Y-187732975D02*
X128769081Y-187748908D01*
X127625600Y-185725546D02*
X127631683Y-185671551D01*
X131368867Y-187254834D02*
X131384800Y-187113426D01*
X131801438Y-185535832D02*
X131839860Y-185574254D01*
X127649630Y-185620263D02*
X127678539Y-185574254D01*
X133264400Y-185725546D02*
X133270483Y-185671551D01*
X127716961Y-185535832D02*
X127762970Y-185506923D01*
X130013200Y-185725546D02*
X130013200Y-187113426D01*
X131892800Y-185725546D02*
X131892800Y-187113426D01*
X128133600Y-187113426D02*
X128149532Y-187254834D01*
X128149532Y-187254834D02*
X128196532Y-187389151D01*
X134266473Y-186599968D02*
X134407881Y-186615900D01*
X131704141Y-185488976D02*
X131755429Y-185506923D01*
X127814258Y-185488976D02*
X127868254Y-185482892D01*
X133270483Y-185671551D02*
X133288430Y-185620263D01*
X127890946Y-185482892D02*
X127944941Y-185488976D01*
X127996229Y-185506923D02*
X128042238Y-185535832D01*
X128080660Y-185574254D02*
X128109569Y-185620263D01*
X128127516Y-185671551D02*
X128133600Y-185725546D01*
X128133600Y-185725546D02*
X128133600Y-187113426D01*
X128272242Y-187509642D02*
X128372865Y-187610265D01*
X128493356Y-187685975D02*
X128627673Y-187732975D01*
X132252556Y-187685975D02*
X132386873Y-187732975D01*
X128869718Y-187748908D02*
X129011126Y-187732975D01*
X129011126Y-187732975D02*
X129145443Y-187685975D01*
X133025134Y-187610265D02*
X133125757Y-187509642D01*
X129145443Y-187685975D02*
X129265934Y-187610265D01*
X129442267Y-187389151D02*
X129489267Y-187254834D01*
X131384800Y-187113426D02*
X131384800Y-185725546D01*
X129489267Y-187254834D02*
X129505200Y-187113426D01*
X133772400Y-185725546D02*
X133772400Y-185980419D01*
X129505200Y-187113426D02*
X129505200Y-185725546D01*
X130890726Y-187732975D02*
X131025043Y-187685975D01*
X129596561Y-185535832D02*
X129642570Y-185506923D01*
X131390883Y-185671551D02*
X131408830Y-185620263D01*
X129693858Y-185488976D02*
X129747854Y-185482892D01*
X129960260Y-185574254D02*
X129989169Y-185620263D01*
X129770546Y-185482892D02*
X129824541Y-185488976D01*
X129875829Y-185506923D02*
X129921838Y-185535832D01*
X129921838Y-185535832D02*
X129960260Y-185574254D01*
X129989169Y-185620263D02*
X130007116Y-185671551D01*
X131839860Y-185574254D02*
X131868769Y-185620263D01*
X130007116Y-185671551D02*
X130013200Y-185725546D01*
X130013200Y-187113426D02*
X130029132Y-187254834D01*
X130029132Y-187254834D02*
X130076132Y-187389151D01*
X130076132Y-187389151D02*
X130151842Y-187509642D01*
X133583741Y-185488976D02*
X133635029Y-185506923D01*
X130372956Y-187685975D02*
X130507273Y-187732975D01*
X130749318Y-187748908D02*
X130890726Y-187732975D01*
X131321867Y-187389151D02*
X131368867Y-187254834D01*
X131437739Y-185574254D02*
X131476161Y-185535832D01*
X131476161Y-185535832D02*
X131522170Y-185506923D01*
X131573458Y-185488976D02*
X131627454Y-185482892D01*
X131627454Y-185482892D02*
X131650146Y-185482892D01*
X166389428Y-186615900D02*
X168030328Y-184975000D01*
X131755429Y-185506923D02*
X131801438Y-185535832D01*
X131868769Y-185620263D02*
X131886716Y-185671551D01*
X131908732Y-187254834D02*
X131955732Y-187389151D01*
X131955732Y-187389151D02*
X132031442Y-187509642D01*
X132031442Y-187509642D02*
X132132065Y-187610265D01*
X132132065Y-187610265D02*
X132252556Y-187685975D01*
X132628918Y-187748908D02*
X132770326Y-187732975D01*
X133772400Y-185980419D02*
X133788332Y-186121827D01*
X132770326Y-187732975D02*
X132904643Y-187685975D01*
X133125757Y-187509642D02*
X133201467Y-187389151D01*
X133201467Y-187389151D02*
X133248467Y-187254834D01*
X133248467Y-187254834D02*
X133264400Y-187113426D01*
X133264400Y-187113426D02*
X133264400Y-185725546D01*
X133288430Y-185620263D02*
X133317339Y-185574254D01*
X133317339Y-185574254D02*
X133355761Y-185535832D01*
X133401770Y-185506923D02*
X133453058Y-185488976D01*
X133453058Y-185488976D02*
X133507054Y-185482892D01*
X133507054Y-185482892D02*
X133529746Y-185482892D01*
X133529746Y-185482892D02*
X133583741Y-185488976D01*
X133719460Y-185574254D02*
X133748369Y-185620263D01*
X133766316Y-185671551D02*
X133772400Y-185725546D01*
X133788332Y-186121827D02*
X133835332Y-186256144D01*
X133835332Y-186256144D02*
X133911042Y-186376635D01*
X133911042Y-186376635D02*
X134011665Y-186477258D01*
X134011665Y-186477258D02*
X134132156Y-186552968D01*
X134132156Y-186552968D02*
X134266473Y-186599968D01*
X134407881Y-186615900D02*
X166389428Y-186615900D01*
X168030328Y-184975000D02*
X173880328Y-184975000D01*
D16*
X30000000Y-185000000D02*
X30100000Y-185100000D01*
X29900000Y-184900000D02*
X30000000Y-185000000D01*
X29725000Y-184900000D02*
X29900000Y-184900000D01*
X173880328Y-184975000D02*
X173955328Y-184900000D01*
X173955328Y-184900000D02*
X175460000Y-184900000D01*
X28540000Y-184900000D02*
X29725000Y-184900000D01*
D15*
X139804855Y-187740524D02*
X139850445Y-187870812D01*
X136102745Y-189492896D02*
X136137963Y-189528114D01*
X137965900Y-188007978D02*
X137965900Y-189354220D01*
X138499554Y-187870812D02*
X138545144Y-187740524D01*
X142418582Y-187623648D02*
X142516187Y-187526043D01*
X138014425Y-189492896D02*
X138049643Y-189528114D01*
X136076246Y-189450724D02*
X136102745Y-189492896D01*
X142633063Y-187452605D02*
X142763351Y-187407015D01*
X138049643Y-189528114D02*
X138091815Y-189554613D01*
X138188320Y-189576640D02*
X138261680Y-189576640D01*
X139887926Y-189450724D02*
X139914425Y-189492896D01*
X166010572Y-188484100D02*
X168794672Y-185700000D01*
X139850445Y-187870812D02*
X139865900Y-188007978D01*
X140445144Y-187740524D02*
X140518582Y-187623648D01*
X143888320Y-188484100D02*
X166010572Y-188484100D01*
X136446504Y-189554613D02*
X136488676Y-189528114D01*
X141938826Y-189571063D02*
X141988320Y-189576640D01*
X142111173Y-189571063D02*
X142158184Y-189554613D01*
X139516936Y-187452605D02*
X139633812Y-187526043D01*
X138618582Y-187623648D02*
X138716187Y-187526043D01*
X140038826Y-189571063D02*
X140088320Y-189576640D01*
X136933063Y-187452605D02*
X137063351Y-187407015D01*
X141704855Y-187740524D02*
X141750445Y-187870812D01*
X138311173Y-189571063D02*
X138358184Y-189554613D01*
X140335574Y-189492896D02*
X140362073Y-189450724D01*
X136816187Y-187526043D02*
X136933063Y-187452605D01*
X143665900Y-188007978D02*
X143665900Y-188261680D01*
X168794672Y-185700000D02*
X173915900Y-185700000D01*
X142158184Y-189554613D02*
X142200356Y-189528114D01*
X140384100Y-188007978D02*
X140399554Y-187870812D01*
X138261680Y-189576640D02*
X138311173Y-189571063D01*
X140258184Y-189554613D02*
X140300356Y-189528114D01*
X138833063Y-187452605D02*
X138963351Y-187407015D01*
X141750445Y-187870812D02*
X141765900Y-188007978D01*
X142763351Y-187407015D02*
X142900517Y-187391560D01*
X136572420Y-189354220D02*
X136572420Y-188700000D01*
X136350000Y-189576640D02*
X136399493Y-189571063D01*
X139633812Y-187526043D02*
X139731417Y-187623648D01*
X138716187Y-187526043D02*
X138833063Y-187452605D01*
X136599554Y-187870812D02*
X136645144Y-187740524D01*
X135705256Y-188545144D02*
X135822132Y-188618582D01*
X135437802Y-188484100D02*
X135574968Y-188499554D01*
X138545144Y-187740524D02*
X138618582Y-187623648D01*
X143665900Y-188261680D02*
X143671476Y-188311174D01*
X136276640Y-189576640D02*
X136350000Y-189576640D01*
X138091815Y-189554613D02*
X138138826Y-189571063D01*
X137950445Y-187870812D02*
X137965900Y-188007978D01*
X136059796Y-189403713D02*
X136076246Y-189450724D01*
X55210572Y-179084100D02*
X112989428Y-179084100D01*
X30000000Y-185700000D02*
X48594672Y-185700000D01*
X139871476Y-189403713D02*
X139887926Y-189450724D01*
X48594672Y-185700000D02*
X55210572Y-179084100D01*
X112989428Y-179084100D02*
X122389428Y-188484100D01*
X140399554Y-187870812D02*
X140445144Y-187740524D01*
X122389428Y-188484100D02*
X135437802Y-188484100D01*
X135574968Y-188499554D02*
X135705256Y-188545144D01*
X137616936Y-187452605D02*
X137733812Y-187526043D01*
X141849643Y-189528114D02*
X141891815Y-189554613D01*
X140616187Y-187526043D02*
X140733063Y-187452605D01*
X139386648Y-187407015D02*
X139516936Y-187452605D01*
X135822132Y-188618582D02*
X135919737Y-188716187D01*
X136054220Y-189100517D02*
X136054220Y-189354220D01*
X135919737Y-188716187D02*
X135993175Y-188833063D01*
X141891815Y-189554613D02*
X141938826Y-189571063D01*
X135993175Y-188833063D02*
X136038765Y-188963351D01*
X136038765Y-188963351D02*
X136054220Y-189100517D01*
X138478523Y-189403713D02*
X138484100Y-189354220D01*
X136054220Y-189354220D02*
X136059796Y-189403713D01*
X136137963Y-189528114D02*
X136180135Y-189554613D01*
X136180135Y-189554613D02*
X136227146Y-189571063D01*
X136227146Y-189571063D02*
X136276640Y-189576640D01*
X136399493Y-189571063D02*
X136446504Y-189554613D01*
X136488676Y-189528114D02*
X136523894Y-189492896D01*
X136523894Y-189492896D02*
X136550393Y-189450724D01*
X136550393Y-189450724D02*
X136566843Y-189403713D01*
X136566843Y-189403713D02*
X136572420Y-189354220D01*
X141149482Y-187391560D02*
X141286648Y-187407015D01*
X140362073Y-189450724D02*
X140378523Y-189403713D01*
X136572420Y-188700000D02*
X136584100Y-188700000D01*
X139865900Y-189354220D02*
X139871476Y-189403713D01*
X136584100Y-188700000D02*
X136584100Y-188007978D01*
X136584100Y-188007978D02*
X136599554Y-187870812D01*
X136645144Y-187740524D02*
X136718582Y-187623648D01*
X136718582Y-187623648D02*
X136816187Y-187526043D01*
X137063351Y-187407015D02*
X137200517Y-187391560D01*
X137200517Y-187391560D02*
X137349482Y-187391560D01*
X137349482Y-187391560D02*
X137486648Y-187407015D01*
X139731417Y-187623648D02*
X139804855Y-187740524D01*
X137486648Y-187407015D02*
X137616936Y-187452605D01*
X137733812Y-187526043D02*
X137831417Y-187623648D01*
X140863351Y-187407015D02*
X141000517Y-187391560D01*
X137965900Y-189354220D02*
X137971476Y-189403713D01*
X137831417Y-187623648D02*
X137904855Y-187740524D01*
X137904855Y-187740524D02*
X137950445Y-187870812D01*
X137971476Y-189403713D02*
X137987926Y-189450724D01*
X143791815Y-188462074D02*
X143838826Y-188478524D01*
X137987926Y-189450724D02*
X138014425Y-189492896D01*
X138138826Y-189571063D02*
X138188320Y-189576640D01*
X140088320Y-189576640D02*
X140161680Y-189576640D01*
X138358184Y-189554613D02*
X138400356Y-189528114D01*
X138400356Y-189528114D02*
X138435574Y-189492896D01*
X138435574Y-189492896D02*
X138462073Y-189450724D01*
X138462073Y-189450724D02*
X138478523Y-189403713D01*
X138484100Y-189354220D02*
X138484100Y-188007978D01*
X138484100Y-188007978D02*
X138499554Y-187870812D01*
X138963351Y-187407015D02*
X139100517Y-187391560D01*
X142278523Y-189403713D02*
X142284100Y-189354220D01*
X139100517Y-187391560D02*
X139249482Y-187391560D01*
X139249482Y-187391560D02*
X139386648Y-187407015D01*
X139865900Y-188007978D02*
X139865900Y-189354220D01*
X139914425Y-189492896D02*
X139949643Y-189528114D01*
X143433812Y-187526043D02*
X143531417Y-187623648D01*
X140161680Y-189576640D02*
X140211173Y-189571063D01*
X139949643Y-189528114D02*
X139991815Y-189554613D01*
X139991815Y-189554613D02*
X140038826Y-189571063D01*
X142345144Y-187740524D02*
X142418582Y-187623648D01*
X140211173Y-189571063D02*
X140258184Y-189554613D01*
X140300356Y-189528114D02*
X140335574Y-189492896D01*
X140378523Y-189403713D02*
X140384100Y-189354220D01*
X140384100Y-189354220D02*
X140384100Y-188007978D01*
X140518582Y-187623648D02*
X140616187Y-187526043D01*
X140733063Y-187452605D02*
X140863351Y-187407015D01*
X143714425Y-188400357D02*
X143749643Y-188435575D01*
X141000517Y-187391560D02*
X141149482Y-187391560D01*
X141286648Y-187407015D02*
X141416936Y-187452605D01*
X141416936Y-187452605D02*
X141533812Y-187526043D01*
X141533812Y-187526043D02*
X141631417Y-187623648D01*
X141631417Y-187623648D02*
X141704855Y-187740524D01*
X141765900Y-188007978D02*
X141765900Y-189354220D01*
X141765900Y-189354220D02*
X141771476Y-189403713D01*
X141771476Y-189403713D02*
X141787926Y-189450724D01*
X141787926Y-189450724D02*
X141814425Y-189492896D01*
X141814425Y-189492896D02*
X141849643Y-189528114D01*
X141988320Y-189576640D02*
X142061680Y-189576640D01*
X142061680Y-189576640D02*
X142111173Y-189571063D01*
X142200356Y-189528114D02*
X142235574Y-189492896D01*
X142235574Y-189492896D02*
X142262073Y-189450724D01*
X142262073Y-189450724D02*
X142278523Y-189403713D01*
X142284100Y-189354220D02*
X142284100Y-188007978D01*
X142284100Y-188007978D02*
X142299554Y-187870812D01*
X142299554Y-187870812D02*
X142345144Y-187740524D01*
X142516187Y-187526043D02*
X142633063Y-187452605D01*
X142900517Y-187391560D02*
X143049482Y-187391560D01*
X143049482Y-187391560D02*
X143186648Y-187407015D01*
X143186648Y-187407015D02*
X143316936Y-187452605D01*
X143316936Y-187452605D02*
X143433812Y-187526043D01*
X143531417Y-187623648D02*
X143604855Y-187740524D01*
X143604855Y-187740524D02*
X143650445Y-187870812D01*
X143650445Y-187870812D02*
X143665900Y-188007978D01*
X143671476Y-188311174D02*
X143687926Y-188358185D01*
X143687926Y-188358185D02*
X143714425Y-188400357D01*
X143749643Y-188435575D02*
X143791815Y-188462074D01*
X143838826Y-188478524D02*
X143888320Y-188484100D01*
D16*
X29800000Y-185700000D02*
X30000000Y-185700000D01*
X175460000Y-185700000D02*
X173915900Y-185700000D01*
X28540000Y-185700000D02*
X29800000Y-185700000D01*
D15*
X30000000Y-186300000D02*
X48605328Y-186300000D01*
X137238320Y-187823360D02*
X137311680Y-187823360D01*
X136524968Y-189992985D02*
X136655256Y-189947395D01*
X139568582Y-189776352D02*
X139666187Y-189873957D01*
X137188826Y-187828937D02*
X137238320Y-187823360D01*
X122210572Y-188915900D02*
X135400000Y-188915900D01*
X48605328Y-186300000D02*
X55389428Y-179515900D01*
X139913351Y-189992985D02*
X140050517Y-190008440D01*
X142888826Y-187828937D02*
X142938320Y-187823360D01*
X138915900Y-188045780D02*
X138921476Y-187996287D01*
X55389428Y-179515900D02*
X112810572Y-179515900D01*
X141468582Y-189776352D02*
X141566187Y-189873957D01*
X135600393Y-189041815D02*
X135616843Y-189088826D01*
X138150517Y-190008440D02*
X138299482Y-190008440D01*
X138937926Y-187949276D02*
X138964425Y-187907104D01*
X136943175Y-189659476D02*
X136988765Y-189529188D01*
X112810572Y-179515900D02*
X122210572Y-188915900D01*
X136101671Y-189992985D02*
X136238837Y-190008440D01*
X135449493Y-188921476D02*
X135496504Y-188937926D01*
X139434100Y-189392022D02*
X139449554Y-189529188D01*
X137021476Y-187996287D02*
X137037926Y-187949276D01*
X135400000Y-188915900D02*
X135449493Y-188921476D01*
X135622420Y-189392022D02*
X135637874Y-189529188D01*
X135854507Y-189873957D02*
X135971383Y-189947395D01*
X135683464Y-189659476D02*
X135756902Y-189776352D01*
X143713351Y-188900446D02*
X143850517Y-188915900D01*
X136238837Y-190008440D02*
X136387802Y-190008440D01*
X135496504Y-188937926D02*
X135538676Y-188964425D01*
X137015900Y-188045780D02*
X137021476Y-187996287D01*
X140050517Y-190008440D02*
X140199482Y-190008440D01*
X135538676Y-188964425D02*
X135573894Y-188999643D01*
X139412073Y-187949276D02*
X139428523Y-187996287D01*
X139041815Y-187845387D02*
X139088826Y-187828937D01*
X142764425Y-187907104D02*
X142799643Y-187871886D01*
X135573894Y-188999643D02*
X135600393Y-189041815D01*
X137549554Y-189529188D02*
X137595144Y-189659476D01*
X139308184Y-187845387D02*
X139350356Y-187871886D01*
X141950517Y-190008440D02*
X142099482Y-190008440D01*
X135971383Y-189947395D02*
X136101671Y-189992985D01*
X136387802Y-190008440D02*
X136524968Y-189992985D01*
X135616843Y-189088826D02*
X135622420Y-189138320D01*
X135622420Y-189138320D02*
X135622420Y-189392022D01*
X136772132Y-189873957D02*
X136869737Y-189776352D01*
X142483812Y-189873957D02*
X142581417Y-189776352D01*
X135637874Y-189529188D02*
X135683464Y-189659476D01*
X137408184Y-187845387D02*
X137450356Y-187871886D01*
X135756902Y-189776352D02*
X135854507Y-189873957D01*
X138781417Y-189776352D02*
X138854855Y-189659476D01*
X137595144Y-189659476D02*
X137668582Y-189776352D01*
X140754855Y-189659476D02*
X140800445Y-189529188D01*
X136655256Y-189947395D02*
X136772132Y-189873957D01*
X138854855Y-189659476D02*
X138900445Y-189529188D01*
X138900445Y-189529188D02*
X138915900Y-189392022D01*
X139495144Y-189659476D02*
X139568582Y-189776352D01*
X136869737Y-189776352D02*
X136943175Y-189659476D01*
X139088826Y-187828937D02*
X139138320Y-187823360D01*
X136988765Y-189529188D02*
X137004220Y-189392022D01*
X137512073Y-187949276D02*
X137528523Y-187996287D01*
X138921476Y-187996287D02*
X138937926Y-187949276D01*
X141395144Y-189659476D02*
X141468582Y-189776352D01*
X137004220Y-189392022D02*
X137004220Y-188700000D01*
X137361173Y-187828937D02*
X137408184Y-187845387D01*
X137004220Y-188700000D02*
X137015900Y-188700000D01*
X137528523Y-187996287D02*
X137534100Y-188045780D01*
X138299482Y-190008440D02*
X138436648Y-189992985D01*
X137534100Y-189392022D02*
X137549554Y-189529188D01*
X137015900Y-188700000D02*
X137015900Y-188045780D01*
X139783063Y-189947395D02*
X139913351Y-189992985D01*
X138999643Y-187871886D02*
X139041815Y-187845387D01*
X137037926Y-187949276D02*
X137064425Y-187907104D01*
X143249554Y-188436649D02*
X143295144Y-188566937D01*
X142715900Y-189392022D02*
X142715900Y-188045780D01*
X137064425Y-187907104D02*
X137099643Y-187871886D01*
X137099643Y-187871886D02*
X137141815Y-187845387D01*
X139434100Y-188045780D02*
X139434100Y-189392022D01*
X137668582Y-189776352D02*
X137766187Y-189873957D01*
X137450356Y-187871886D02*
X137485574Y-187907104D01*
X137883063Y-189947395D02*
X138013351Y-189992985D01*
X137141815Y-187845387D02*
X137188826Y-187828937D01*
X138683812Y-189873957D02*
X138781417Y-189776352D01*
X137311680Y-187823360D02*
X137361173Y-187828937D01*
X137485574Y-187907104D02*
X137512073Y-187949276D01*
X137766187Y-189873957D02*
X137883063Y-189947395D01*
X166189428Y-188915900D02*
X168930328Y-186175000D01*
X137534100Y-188045780D02*
X137534100Y-189392022D01*
X139666187Y-189873957D02*
X139783063Y-189947395D01*
X138013351Y-189992985D02*
X138150517Y-190008440D01*
X138436648Y-189992985D02*
X138566936Y-189947395D01*
X138566936Y-189947395D02*
X138683812Y-189873957D01*
X138964425Y-187907104D02*
X138999643Y-187871886D01*
X143583063Y-188854856D02*
X143713351Y-188900446D01*
X141208184Y-187845387D02*
X141250356Y-187871886D01*
X168930328Y-186175000D02*
X173890900Y-186175000D01*
X138915900Y-189392022D02*
X138915900Y-188045780D01*
X141334100Y-188045780D02*
X141334100Y-189392022D01*
X140988826Y-187828937D02*
X141038320Y-187823360D01*
X139138320Y-187823360D02*
X139211680Y-187823360D01*
X139211680Y-187823360D02*
X139261173Y-187828937D01*
X139261173Y-187828937D02*
X139308184Y-187845387D01*
X140821476Y-187996287D02*
X140837926Y-187949276D01*
X139350356Y-187871886D02*
X139385574Y-187907104D01*
X139385574Y-187907104D02*
X139412073Y-187949276D01*
X140815900Y-189392022D02*
X140815900Y-188045780D01*
X139428523Y-187996287D02*
X139434100Y-188045780D01*
X139449554Y-189529188D02*
X139495144Y-189659476D01*
X140199482Y-190008440D02*
X140336648Y-189992985D01*
X140336648Y-189992985D02*
X140466936Y-189947395D01*
X140864425Y-187907104D02*
X140899643Y-187871886D01*
X142099482Y-190008440D02*
X142236648Y-189992985D01*
X142700445Y-189529188D02*
X142715900Y-189392022D01*
X140466936Y-189947395D02*
X140583812Y-189873957D01*
X140583812Y-189873957D02*
X140681417Y-189776352D01*
X142938320Y-187823360D02*
X143011680Y-187823360D01*
X141328523Y-187996287D02*
X141334100Y-188045780D01*
X140681417Y-189776352D02*
X140754855Y-189659476D01*
X141161173Y-187828937D02*
X141208184Y-187845387D01*
X141285574Y-187907104D02*
X141312073Y-187949276D01*
X141349554Y-189529188D02*
X141395144Y-189659476D01*
X140800445Y-189529188D02*
X140815900Y-189392022D01*
X140815900Y-188045780D02*
X140821476Y-187996287D01*
X140837926Y-187949276D02*
X140864425Y-187907104D01*
X142236648Y-189992985D02*
X142366936Y-189947395D01*
X141250356Y-187871886D02*
X141285574Y-187907104D01*
X140899643Y-187871886D02*
X140941815Y-187845387D01*
X140941815Y-187845387D02*
X140988826Y-187828937D01*
X141038320Y-187823360D02*
X141111680Y-187823360D01*
X141111680Y-187823360D02*
X141161173Y-187828937D01*
X141312073Y-187949276D02*
X141328523Y-187996287D01*
X141334100Y-189392022D02*
X141349554Y-189529188D01*
X141566187Y-189873957D02*
X141683063Y-189947395D01*
X141683063Y-189947395D02*
X141813351Y-189992985D01*
X141813351Y-189992985D02*
X141950517Y-190008440D01*
X142366936Y-189947395D02*
X142483812Y-189873957D01*
X142581417Y-189776352D02*
X142654855Y-189659476D01*
X142654855Y-189659476D02*
X142700445Y-189529188D01*
X142715900Y-188045780D02*
X142721476Y-187996287D01*
X142721476Y-187996287D02*
X142737926Y-187949276D01*
X142737926Y-187949276D02*
X142764425Y-187907104D01*
X142799643Y-187871886D02*
X142841815Y-187845387D01*
X142841815Y-187845387D02*
X142888826Y-187828937D01*
X143011680Y-187823360D02*
X143061173Y-187828937D01*
X143061173Y-187828937D02*
X143108184Y-187845387D01*
X143108184Y-187845387D02*
X143150356Y-187871886D01*
X143150356Y-187871886D02*
X143185574Y-187907104D01*
X143185574Y-187907104D02*
X143212073Y-187949276D01*
X143212073Y-187949276D02*
X143228523Y-187996287D01*
X143228523Y-187996287D02*
X143234100Y-188045780D01*
X143234100Y-188045780D02*
X143234100Y-188299483D01*
X143234100Y-188299483D02*
X143249554Y-188436649D01*
X143295144Y-188566937D02*
X143368582Y-188683813D01*
X143368582Y-188683813D02*
X143466187Y-188781418D01*
X143466187Y-188781418D02*
X143583063Y-188854856D01*
X143850517Y-188915900D02*
X166189428Y-188915900D01*
D16*
X29800000Y-186100000D02*
X30000000Y-186300000D01*
X29750000Y-186100000D02*
X29800000Y-186100000D01*
X175460000Y-186100000D02*
X174800000Y-186100000D01*
X174800000Y-186100000D02*
X174741301Y-186158699D01*
X174741301Y-186158699D02*
X173907201Y-186158699D01*
X173907201Y-186158699D02*
X173890900Y-186175000D01*
X28540000Y-186100000D02*
X29750000Y-186100000D01*
X174406690Y-186543310D02*
X169615100Y-186543310D01*
X169615100Y-186543310D02*
X169450000Y-186708410D01*
X175460000Y-186500000D02*
X174450000Y-186500000D01*
X174450000Y-186500000D02*
X174406690Y-186543310D01*
X25460000Y-186500000D02*
X23223857Y-186500000D01*
X23223857Y-186500000D02*
X22965585Y-186241728D01*
X22965585Y-186241728D02*
X22609375Y-186241728D01*
X171906851Y-187203720D02*
X171783511Y-187080380D01*
X171783511Y-187080380D02*
X170050000Y-187080380D01*
X175460000Y-186900000D02*
X174649187Y-186900000D01*
X174649187Y-186900000D02*
X174345467Y-187203720D01*
X174345467Y-187203720D02*
X171906851Y-187203720D01*
X25460000Y-186900000D02*
X23158119Y-186900000D01*
X23158119Y-186900000D02*
X23152567Y-186894448D01*
X23152567Y-186894448D02*
X22885259Y-186894448D01*
X175460000Y-187300000D02*
X174716173Y-187300000D01*
X174716173Y-187300000D02*
X174317152Y-187699021D01*
X174317152Y-187699021D02*
X171395656Y-187699021D01*
X171395656Y-187699021D02*
X171272325Y-187575690D01*
X25460000Y-187300000D02*
X23225106Y-187300000D01*
X23225106Y-187300000D02*
X22976604Y-187548502D01*
X175460000Y-187700000D02*
X176609378Y-187700000D01*
X176609378Y-187700000D02*
X176717516Y-187808138D01*
X25460000Y-187700000D02*
X23558152Y-187700000D01*
X23558152Y-187700000D02*
X23035324Y-188222828D01*
X23035324Y-188222828D02*
X22844781Y-188222828D01*
X175460000Y-188100000D02*
X173367644Y-188100000D01*
X173367644Y-188100000D02*
X172225000Y-189242644D01*
X172225000Y-189242644D02*
X172225000Y-189250690D01*
X25460000Y-188100000D02*
X23700655Y-188100000D01*
X23700655Y-188100000D02*
X22764451Y-189036204D01*
X22764451Y-189036204D02*
X22694573Y-189036204D01*
X175460000Y-188500000D02*
X173700690Y-188500000D01*
X173700690Y-188500000D02*
X172950000Y-189250690D01*
X25460000Y-188500000D02*
X24100000Y-188500000D01*
X24100000Y-188500000D02*
X23300000Y-189300000D01*
D15*
X175460000Y-188900000D02*
X175460000Y-189300000D01*
X175460000Y-191300000D02*
X174350000Y-191300000D01*
X174350000Y-191300000D02*
X174175000Y-191475000D01*
X175460000Y-191300000D02*
X175460000Y-191535000D01*
X175460000Y-191535000D02*
X176000000Y-192075000D01*
X175460000Y-191300000D02*
X175460000Y-191515000D01*
X175460000Y-191515000D02*
X174900000Y-192075000D01*
X175460000Y-189300000D02*
X173900000Y-189300000D01*
X173900000Y-189300000D02*
X173825000Y-189375000D01*
X175460000Y-190500000D02*
X174149310Y-190500000D01*
X174149310Y-190500000D02*
X173700000Y-190949310D01*
X25460000Y-191300000D02*
X25250000Y-191300000D01*
X25250000Y-191300000D02*
X24300000Y-192250000D01*
X25460000Y-191300000D02*
X25460000Y-191940000D01*
X25460000Y-191940000D02*
X25400000Y-192000000D01*
X25460000Y-191300000D02*
X25460000Y-191310000D01*
X25460000Y-191310000D02*
X26350000Y-192200000D01*
D16*
X25460000Y-188900000D02*
X25460000Y-189300000D01*
D15*
X25460000Y-189700000D02*
X24875000Y-189700000D01*
X24875000Y-189700000D02*
X23875000Y-190700000D01*
D16*
X25460000Y-189300000D02*
X25460000Y-189700000D01*
X25460000Y-190900000D02*
X25460000Y-191177800D01*
X25460000Y-190900000D02*
X25460000Y-191310000D01*
D15*
X25460000Y-190500000D02*
X24875000Y-190500000D01*
X24875000Y-190500000D02*
X23900000Y-191475000D01*
X33138130Y-179495704D02*
X33174349Y-179483031D01*
X29800000Y-179500000D02*
X33100000Y-179500000D01*
X33100000Y-179500000D02*
X33138130Y-179495704D01*
X34705716Y-178415845D02*
X34820796Y-178530925D01*
X35150718Y-179500000D02*
X45894672Y-179500000D01*
X33174349Y-179483031D02*
X33206840Y-179462615D01*
X33343333Y-178668729D02*
X33429921Y-178530925D01*
X33545001Y-178415845D02*
X33682805Y-178329257D01*
X33206840Y-179462615D02*
X33233973Y-179435482D01*
X50510572Y-171284100D02*
X120089428Y-171284100D01*
X33271359Y-178984070D02*
X33289581Y-178822344D01*
X33233973Y-179435482D02*
X33254389Y-179402991D01*
X122215900Y-173410572D02*
X122215900Y-177251714D01*
X33254389Y-179402991D02*
X33267062Y-179366772D01*
X33267062Y-179366772D02*
X33271359Y-179328641D01*
X33271359Y-179328641D02*
X33271359Y-178984070D01*
X33682805Y-178329257D02*
X33836420Y-178275505D01*
X33836420Y-178275505D02*
X33998146Y-178257282D01*
X122215900Y-177251714D02*
X123404477Y-178440291D01*
X33289581Y-178822344D02*
X33343333Y-178668729D01*
X33429921Y-178530925D02*
X33545001Y-178415845D01*
X33998146Y-178257282D02*
X34252571Y-178257282D01*
X140172999Y-178440291D02*
X140300000Y-178313290D01*
X34979359Y-178984070D02*
X34979359Y-179328641D01*
X34252571Y-178257282D02*
X34414297Y-178275505D01*
X34414297Y-178275505D02*
X34567912Y-178329257D01*
X34979359Y-179328641D02*
X34983655Y-179366772D01*
X34567912Y-178329257D02*
X34705716Y-178415845D01*
X34820796Y-178530925D02*
X34907384Y-178668729D01*
X34907384Y-178668729D02*
X34961136Y-178822344D01*
X34961136Y-178822344D02*
X34979359Y-178984070D01*
X35076368Y-179483031D02*
X35112587Y-179495704D01*
X34983655Y-179366772D02*
X34996328Y-179402991D01*
X34996328Y-179402991D02*
X35016744Y-179435482D01*
X35043877Y-179462615D02*
X35076368Y-179483031D01*
X35016744Y-179435482D02*
X35043877Y-179462615D01*
X45894672Y-179500000D02*
X48084100Y-177310572D01*
X35112587Y-179495704D02*
X35150718Y-179500000D01*
X48084100Y-177310572D02*
X48084100Y-173710572D01*
X48084100Y-173710572D02*
X50510572Y-171284100D01*
X120089428Y-171284100D02*
X122215900Y-173410572D01*
X123404477Y-178440291D02*
X140172999Y-178440291D01*
D16*
X29600000Y-179700000D02*
X29800000Y-179500000D01*
X28540000Y-179700000D02*
X29600000Y-179700000D01*
X178580000Y-179700000D02*
X179457800Y-179700000D01*
X179457800Y-179700000D02*
X179838229Y-179319571D01*
X179838229Y-179319571D02*
X180695893Y-179319571D01*
D15*
X169402595Y-180248865D02*
X169325832Y-180126697D01*
X168965453Y-179900256D02*
X168822077Y-179884101D01*
X171402944Y-179789204D02*
X171372917Y-179741415D01*
X170218956Y-178872888D02*
X170116932Y-178974912D01*
X171442853Y-179829113D02*
X171402944Y-179789204D01*
X120515900Y-174110572D02*
X119089428Y-172684100D01*
X171354276Y-179688142D02*
X171347957Y-179632058D01*
X169976361Y-179376643D02*
X169976361Y-180100000D01*
X170703630Y-178732317D02*
X170620687Y-178732317D01*
X168822077Y-179884101D02*
X121689429Y-179884101D01*
X169968084Y-180839927D02*
X169949443Y-180893200D01*
X172197999Y-179884101D02*
X171600000Y-179884101D01*
X169561300Y-180980898D02*
X169521391Y-180940989D01*
X169325832Y-180126697D02*
X169223808Y-180024673D01*
X171284148Y-179097080D02*
X171207385Y-178974912D01*
X170040169Y-179097080D02*
X169992515Y-179233267D01*
X169879507Y-180980898D02*
X169831718Y-181010925D01*
X172325000Y-179757100D02*
X172197999Y-179884101D01*
X169491364Y-180893200D02*
X169472723Y-180839927D01*
X49584100Y-177710572D02*
X46394672Y-180900000D01*
X170116932Y-178974912D02*
X170040169Y-179097080D01*
X52010572Y-172684100D02*
X49584100Y-175110572D01*
X171347957Y-179376643D02*
X171331802Y-179233267D01*
X169101640Y-179947910D02*
X168965453Y-179900256D01*
X171600000Y-179884101D02*
X171543915Y-179877781D01*
X171543915Y-179877781D02*
X171490642Y-179859140D01*
X169450249Y-180385052D02*
X169402595Y-180248865D01*
X171490642Y-179859140D02*
X171442853Y-179829113D01*
X169778445Y-181029566D02*
X169722361Y-181035885D01*
X171372917Y-179741415D02*
X171354276Y-179688142D01*
X171347957Y-179632058D02*
X171347957Y-179376643D01*
X171331802Y-179233267D02*
X171284148Y-179097080D01*
X171207385Y-178974912D02*
X171105361Y-178872888D01*
X169919416Y-180940989D02*
X169879507Y-180980898D01*
X171105361Y-178872888D02*
X170983193Y-178796125D01*
X170983193Y-178796125D02*
X170847006Y-178748471D01*
X170847006Y-178748471D02*
X170703630Y-178732317D01*
X170620687Y-178732317D02*
X170477311Y-178748471D01*
X119089428Y-172684100D02*
X52010572Y-172684100D01*
X170477311Y-178748471D02*
X170341124Y-178796125D01*
X170341124Y-178796125D02*
X170218956Y-178872888D01*
X49584100Y-175110572D02*
X49584100Y-177710572D01*
X169992515Y-179233267D02*
X169976361Y-179376643D01*
X169976361Y-180100000D02*
X169974404Y-180100000D01*
X169472723Y-180839927D02*
X169466404Y-180783842D01*
X169974404Y-180100000D02*
X169974404Y-180783842D01*
X169974404Y-180783842D02*
X169968084Y-180839927D01*
X169949443Y-180893200D02*
X169919416Y-180940989D01*
X169831718Y-181010925D02*
X169778445Y-181029566D01*
X169722361Y-181035885D02*
X169718447Y-181035885D01*
X169718447Y-181035885D02*
X169662362Y-181029566D01*
X169662362Y-181029566D02*
X169609089Y-181010925D01*
X169466404Y-180783842D02*
X169466404Y-180528428D01*
X169609089Y-181010925D02*
X169561300Y-180980898D01*
X169521391Y-180940989D02*
X169491364Y-180893200D01*
X169466404Y-180528428D02*
X169450249Y-180385052D01*
X46394672Y-180900000D02*
X30100000Y-180900000D01*
X169223808Y-180024673D02*
X169101640Y-179947910D01*
X121689429Y-179884101D02*
X120515900Y-178710572D01*
X120515900Y-178710572D02*
X120515900Y-174110572D01*
D16*
X178540000Y-180900000D02*
X180341954Y-180900000D01*
X180341954Y-180900000D02*
X180602357Y-180639597D01*
X180602357Y-180639597D02*
X180675000Y-180639597D01*
X29100000Y-180900000D02*
X30100000Y-180900000D01*
X28540000Y-180900000D02*
X29100000Y-180900000D01*
D15*
X172325000Y-180442900D02*
X172197999Y-180315899D01*
X120084100Y-178889428D02*
X120084100Y-174289428D01*
X170916159Y-179416158D02*
X170909839Y-179360073D01*
X172197999Y-180315899D02*
X171560485Y-180315899D01*
X171056730Y-180073303D02*
X170979967Y-179951135D01*
X170909839Y-179360073D02*
X170891198Y-179306800D01*
X170979967Y-179951135D02*
X170932313Y-179814948D01*
X171560485Y-180315899D02*
X171417109Y-180299744D01*
X169678932Y-181467683D02*
X169535556Y-181451529D01*
X171417109Y-180299744D02*
X171280922Y-180252090D01*
X171280922Y-180252090D02*
X171158754Y-180175327D01*
X168838647Y-180322219D02*
X168782563Y-180315899D01*
X170265630Y-181225088D02*
X170163606Y-181327112D01*
X170408159Y-179416158D02*
X170408159Y-180100000D01*
X169028286Y-180511858D02*
X169009645Y-180458585D01*
X170821262Y-179219102D02*
X170773473Y-179189075D01*
X171158754Y-180175327D02*
X171056730Y-180073303D01*
X170664116Y-179164115D02*
X170660202Y-179164115D01*
X170891198Y-179306800D02*
X170861171Y-179259011D01*
X170932313Y-179814948D02*
X170916159Y-179671572D01*
X170604117Y-179170434D02*
X170550844Y-179189075D01*
X170916159Y-179671572D02*
X170916159Y-179416158D01*
X170861171Y-179259011D02*
X170821262Y-179219102D01*
X169399369Y-181403875D02*
X169277201Y-181327112D01*
X170773473Y-179189075D02*
X170720200Y-179170434D01*
X169009645Y-180458585D02*
X168979618Y-180410796D01*
X170041438Y-181403875D02*
X169905251Y-181451529D01*
X170720200Y-179170434D02*
X170664116Y-179164115D01*
X170406202Y-180823357D02*
X170390047Y-180966733D01*
X170503055Y-179219102D02*
X170463146Y-179259011D01*
X170660202Y-179164115D02*
X170604117Y-179170434D01*
X170342393Y-181102920D02*
X170265630Y-181225088D01*
X120084100Y-174289428D02*
X118910572Y-173115900D01*
X170550844Y-179189075D02*
X170503055Y-179219102D01*
X170463146Y-179259011D02*
X170433119Y-179306800D01*
X170433119Y-179306800D02*
X170414478Y-179360073D01*
X46505328Y-181400000D02*
X30100000Y-181400000D01*
X170414478Y-179360073D02*
X170408159Y-179416158D01*
X170408159Y-180100000D02*
X170406202Y-180100000D01*
X170406202Y-180100000D02*
X170406202Y-180823357D01*
X170390047Y-180966733D02*
X170342393Y-181102920D01*
X170163606Y-181327112D02*
X170041438Y-181403875D01*
X169905251Y-181451529D02*
X169761875Y-181467683D01*
X169761875Y-181467683D02*
X169678932Y-181467683D01*
X50015900Y-175289428D02*
X50015900Y-177889428D01*
X169535556Y-181451529D02*
X169399369Y-181403875D01*
X169277201Y-181327112D02*
X169175177Y-181225088D01*
X169175177Y-181225088D02*
X169098414Y-181102920D01*
X169098414Y-181102920D02*
X169050760Y-180966733D01*
X169050760Y-180966733D02*
X169034606Y-180823357D01*
X169034606Y-180567942D02*
X169028286Y-180511858D01*
X169034606Y-180823357D02*
X169034606Y-180567942D01*
X168939709Y-180370887D02*
X168891920Y-180340860D01*
X168979618Y-180410796D02*
X168939709Y-180370887D01*
X168891920Y-180340860D02*
X168838647Y-180322219D01*
X168782563Y-180315899D02*
X121510571Y-180315899D01*
X121510571Y-180315899D02*
X120084100Y-178889428D01*
X118910572Y-173115900D02*
X52189428Y-173115900D01*
X52189428Y-173115900D02*
X50015900Y-175289428D01*
X50015900Y-177889428D02*
X46505328Y-181400000D01*
D16*
X178540000Y-181300000D02*
X180675000Y-181300000D01*
X30000000Y-181300000D02*
X30100000Y-181400000D01*
X28540000Y-181300000D02*
X30000000Y-181300000D01*
X178540000Y-182100000D02*
X179675000Y-182100000D01*
X179675000Y-182100000D02*
X179925000Y-181850000D01*
X25460000Y-182100000D02*
X23900000Y-182100000D01*
X23900000Y-182100000D02*
X23700000Y-181900000D01*
X178540000Y-182500000D02*
X179909671Y-182500000D01*
X179909671Y-182500000D02*
X179932677Y-182523006D01*
X25460000Y-182500000D02*
X23760403Y-182500000D01*
X23760403Y-182500000D02*
X23700000Y-182560403D01*
X178540000Y-183300000D02*
X179900000Y-183300000D01*
X179900000Y-183300000D02*
X179950000Y-183250000D01*
X25460000Y-183300000D02*
X23200000Y-183300000D01*
X23200000Y-183300000D02*
X22900000Y-183000000D01*
X178540000Y-183700000D02*
X179739597Y-183700000D01*
X179739597Y-183700000D02*
X179950000Y-183910403D01*
X25460000Y-183700000D02*
X22902438Y-183700000D01*
X22902438Y-183700000D02*
X22883120Y-183680682D01*
X178540000Y-184500000D02*
X181300000Y-184500000D01*
X181300000Y-184500000D02*
X181375000Y-184425000D01*
X25460000Y-184500000D02*
X24235610Y-184500000D01*
X24235610Y-184500000D02*
X23950000Y-184214390D01*
X178540000Y-184900000D02*
X181189597Y-184900000D01*
X181189597Y-184900000D02*
X181375000Y-185085403D01*
X25460000Y-184900000D02*
X23975000Y-184900000D01*
X23975000Y-184900000D02*
X23950000Y-184925000D01*
X178540000Y-185700000D02*
X180014597Y-185700000D01*
X180014597Y-185700000D02*
X180200000Y-185514597D01*
X25460000Y-185700000D02*
X24582200Y-185700000D01*
X24582200Y-185700000D02*
X24528966Y-185646766D01*
X24528966Y-185646766D02*
X23621766Y-185646766D01*
X23621766Y-185646766D02*
X22900000Y-184925000D01*
X178540000Y-186100000D02*
X180125000Y-186100000D01*
X180125000Y-186100000D02*
X180200000Y-186175000D01*
X25460000Y-186100000D02*
X23374527Y-186100000D01*
X23374527Y-186100000D02*
X22879965Y-185605438D01*
D15*
X29850000Y-186900000D02*
X31430328Y-186900000D01*
X31430328Y-186900000D02*
X31662862Y-187132534D01*
X31662862Y-187132534D02*
X31842466Y-187132534D01*
D16*
X178540000Y-186900000D02*
X180441954Y-186900000D01*
X180441954Y-186900000D02*
X180702357Y-186639597D01*
X180702357Y-186639597D02*
X180775000Y-186639597D01*
X28540000Y-186900000D02*
X29850000Y-186900000D01*
D15*
X29825000Y-187375000D02*
X31294672Y-187375000D01*
X31294672Y-187375000D02*
X31357534Y-187437862D01*
X31357534Y-187437862D02*
X31357534Y-187617466D01*
D16*
X178540000Y-187300000D02*
X180775000Y-187300000D01*
X29750000Y-187300000D02*
X29825000Y-187375000D01*
X28540000Y-187300000D02*
X29750000Y-187300000D01*
X28540000Y-188100000D02*
X30025000Y-188100000D01*
X178540000Y-188100000D02*
X179650000Y-188100000D01*
X179650000Y-188100000D02*
X179875000Y-187875000D01*
X29650000Y-188500000D02*
X29891590Y-188741590D01*
X29891590Y-188741590D02*
X30189125Y-188741590D01*
X30189125Y-188741590D02*
X30191699Y-188739016D01*
X178540000Y-188500000D02*
X179837361Y-188500000D01*
X179837361Y-188500000D02*
X179877390Y-188540029D01*
X28540000Y-188500000D02*
X29650000Y-188500000D01*
D15*
X29925000Y-189725000D02*
X33480328Y-189725000D01*
X61800000Y-182015900D02*
X61874344Y-182024276D01*
X42674428Y-187623926D02*
X42687013Y-187659892D01*
X33480328Y-189725000D02*
X35789428Y-187415900D01*
X63647806Y-183047706D02*
X63665900Y-182887125D01*
X35789428Y-187415900D02*
X42500000Y-187415900D01*
X42573830Y-187432751D02*
X42606094Y-187453023D01*
X43141038Y-187692156D02*
X43161310Y-187659892D01*
X42537864Y-187420166D02*
X42573830Y-187432751D01*
X63791692Y-180495922D02*
X63855039Y-180456118D01*
X42734229Y-187719100D02*
X42766493Y-187739372D01*
X42500000Y-187415900D02*
X42537864Y-187420166D01*
X62061209Y-182141692D02*
X62101013Y-182205039D01*
X43242229Y-187453023D02*
X43274493Y-187432751D01*
X42606094Y-187453023D02*
X42633038Y-187479967D01*
X43215285Y-187479967D02*
X43242229Y-187453023D01*
X42633038Y-187479967D02*
X42653310Y-187512231D01*
X43045864Y-187751957D02*
X43081830Y-187739372D01*
X42707285Y-187692156D02*
X42734229Y-187719100D01*
X42653310Y-187512231D02*
X42665895Y-187548197D01*
X62695162Y-183590675D02*
X62855743Y-183608769D01*
X43161310Y-187659892D02*
X43173895Y-187623926D01*
X42665895Y-187548197D02*
X42674428Y-187623926D01*
X42687013Y-187659892D02*
X42707285Y-187692156D01*
X43182428Y-187548197D02*
X43195013Y-187512231D01*
X63674276Y-180682787D02*
X63698986Y-180612171D01*
X42766493Y-187739372D02*
X42802459Y-187751957D01*
X42802459Y-187751957D02*
X42840324Y-187756224D01*
X63665900Y-182887125D02*
X63665900Y-180757131D01*
X42840324Y-187756224D02*
X43008000Y-187756224D01*
X62134100Y-182887125D02*
X62152193Y-183047706D01*
X63665900Y-180757131D02*
X63674276Y-180682787D01*
X63594434Y-183200234D02*
X63647806Y-183047706D01*
X43274493Y-187432751D02*
X43310459Y-187420166D01*
X43008000Y-187756224D02*
X43045864Y-187751957D01*
X43081830Y-187739372D02*
X43114094Y-187719100D01*
X43195013Y-187512231D02*
X43215285Y-187479967D01*
X62101013Y-182205039D02*
X62125723Y-182275655D01*
X54289428Y-182015900D02*
X61800000Y-182015900D01*
X43114094Y-187719100D02*
X43141038Y-187692156D01*
X43173895Y-187623926D02*
X43182428Y-187548197D01*
X64605806Y-181858461D02*
X64742634Y-181944435D01*
X62291539Y-183337062D02*
X62405806Y-183451329D01*
X43348324Y-187415900D02*
X48889428Y-187415900D01*
X43310459Y-187420166D02*
X43348324Y-187415900D01*
X62008307Y-182088790D02*
X62061209Y-182141692D01*
X64334100Y-180757131D02*
X64334100Y-181294257D01*
X48889428Y-187415900D02*
X54289428Y-182015900D01*
X61874344Y-182024276D02*
X61944960Y-182048986D01*
X63257365Y-183537303D02*
X63394193Y-183451329D01*
X61944960Y-182048986D02*
X62008307Y-182088790D01*
X63104837Y-183590675D02*
X63257365Y-183537303D01*
X62125723Y-182275655D02*
X62134100Y-182350000D01*
X62134100Y-182350000D02*
X62134100Y-182887125D01*
X62152193Y-183047706D02*
X62205565Y-183200234D01*
X62205565Y-183200234D02*
X62291539Y-183337062D01*
X62405806Y-183451329D02*
X62542634Y-183537303D01*
X62542634Y-183537303D02*
X62695162Y-183590675D01*
X63855039Y-180456118D02*
X63925655Y-180431408D01*
X62855743Y-183608769D02*
X62944256Y-183608769D01*
X62944256Y-183608769D02*
X63104837Y-183590675D01*
X63394193Y-183451329D02*
X63508460Y-183337062D01*
X63508460Y-183337062D02*
X63594434Y-183200234D01*
X63738790Y-180548824D02*
X63791692Y-180495922D01*
X63698986Y-180612171D02*
X63738790Y-180548824D01*
X63925655Y-180431408D02*
X64000000Y-180423031D01*
X64000000Y-180423031D02*
X64074344Y-180431408D01*
X64491539Y-181744194D02*
X64605806Y-181858461D01*
X64074344Y-180431408D02*
X64144960Y-180456118D01*
X64144960Y-180456118D02*
X64208307Y-180495922D01*
X64208307Y-180495922D02*
X64261209Y-180548824D01*
X172172999Y-191590899D02*
X172300000Y-191717900D01*
X64261209Y-180548824D02*
X64301013Y-180612171D01*
X64301013Y-180612171D02*
X64325723Y-180682787D01*
X65055743Y-182015900D02*
X112910572Y-182015900D01*
X64325723Y-180682787D02*
X64334100Y-180757131D01*
X64334100Y-181294257D02*
X64352193Y-181454838D01*
X64352193Y-181454838D02*
X64405565Y-181607366D01*
X64405565Y-181607366D02*
X64491539Y-181744194D01*
X64742634Y-181944435D02*
X64895162Y-181997807D01*
X64895162Y-181997807D02*
X65055743Y-182015900D01*
X112910572Y-182015900D02*
X122485571Y-191590899D01*
X122485571Y-191590899D02*
X172172999Y-191590899D01*
D16*
X29417800Y-189700000D02*
X29442800Y-189725000D01*
X28540000Y-189700000D02*
X29417800Y-189700000D01*
X29442800Y-189725000D02*
X29925000Y-189725000D01*
X180632100Y-189700000D02*
X180675000Y-189742900D01*
X178540000Y-189700000D02*
X180632100Y-189700000D01*
D15*
X29925000Y-189275000D02*
X33319672Y-189275000D01*
X62755039Y-183143882D02*
X62825655Y-183168592D01*
X64204837Y-180009325D02*
X64357365Y-180062697D01*
X63044960Y-183143882D02*
X63108307Y-183104078D01*
X33319672Y-189275000D02*
X35610572Y-186984100D01*
X35610572Y-186984100D02*
X48710572Y-186984100D01*
X61844256Y-181584100D02*
X62004837Y-181602193D01*
X62157365Y-181655565D02*
X62294193Y-181741539D01*
X64747806Y-180552294D02*
X64765900Y-180712875D01*
X48710572Y-186984100D02*
X54110572Y-181584100D01*
X62598986Y-182987829D02*
X62638790Y-183051176D01*
X54110572Y-181584100D02*
X61844256Y-181584100D01*
X62004837Y-181602193D02*
X62157365Y-181655565D01*
X62547806Y-182145162D02*
X62565900Y-182305743D01*
X62294193Y-181741539D02*
X62408460Y-181855806D01*
X64798986Y-181394961D02*
X64838790Y-181458308D01*
X63955743Y-179991231D02*
X64044256Y-179991231D01*
X62408460Y-181855806D02*
X62494434Y-181992634D01*
X62565900Y-182305743D02*
X62565900Y-182842869D01*
X62494434Y-181992634D02*
X62547806Y-182145162D01*
X63201013Y-182987829D02*
X63225723Y-182917213D01*
X62565900Y-182842869D02*
X62574276Y-182917213D01*
X122664429Y-191159101D02*
X172172999Y-191159101D01*
X65025655Y-181575724D02*
X65100000Y-181584100D01*
X64765900Y-180712875D02*
X64765900Y-181250000D01*
X64044256Y-179991231D02*
X64204837Y-180009325D01*
X63161209Y-183051176D02*
X63201013Y-182987829D01*
X62691692Y-183104078D02*
X62755039Y-183143882D01*
X63108307Y-183104078D02*
X63161209Y-183051176D01*
X62574276Y-182917213D02*
X62598986Y-182987829D01*
X113089428Y-181584100D02*
X122664429Y-191159101D01*
X64955039Y-181551014D02*
X65025655Y-181575724D01*
X64774276Y-181324345D02*
X64798986Y-181394961D01*
X62638790Y-183051176D02*
X62691692Y-183104078D01*
X64765900Y-181250000D02*
X64774276Y-181324345D01*
X62825655Y-183168592D02*
X62900000Y-183176969D01*
X64838790Y-181458308D02*
X64891692Y-181511210D01*
X64357365Y-180062697D02*
X64494193Y-180148671D01*
X62900000Y-183176969D02*
X62974344Y-183168592D01*
X62974344Y-183168592D02*
X63044960Y-183143882D01*
X63225723Y-182917213D02*
X63234100Y-182842869D01*
X63252193Y-180552294D02*
X63305565Y-180399766D01*
X63234100Y-182842869D02*
X63234100Y-180712875D01*
X63391539Y-180262938D02*
X63505806Y-180148671D01*
X63234100Y-180712875D02*
X63252193Y-180552294D01*
X63305565Y-180399766D02*
X63391539Y-180262938D01*
X63505806Y-180148671D02*
X63642634Y-180062697D01*
X63642634Y-180062697D02*
X63795162Y-180009325D01*
X63795162Y-180009325D02*
X63955743Y-179991231D01*
X64494193Y-180148671D02*
X64608460Y-180262938D01*
X64608460Y-180262938D02*
X64694434Y-180399766D01*
X65100000Y-181584100D02*
X113089428Y-181584100D01*
X64694434Y-180399766D02*
X64747806Y-180552294D01*
X64891692Y-181511210D02*
X64955039Y-181551014D01*
X172172999Y-191159101D02*
X172300000Y-191032100D01*
D16*
X178540000Y-189300000D02*
X180432100Y-189300000D01*
X180432100Y-189300000D02*
X180675000Y-189057100D01*
X29442800Y-189275000D02*
X29925000Y-189275000D01*
X28540000Y-189300000D02*
X29417800Y-189300000D01*
X29417800Y-189300000D02*
X29442800Y-189275000D01*
D15*
X40037687Y-190986469D02*
X40099018Y-190947933D01*
X29950000Y-190915900D02*
X35700000Y-190915900D01*
X37450011Y-191942596D02*
X37534792Y-191807668D01*
X35952895Y-191037687D02*
X35991431Y-191099018D01*
X38302066Y-189804389D02*
X38325990Y-189872758D01*
X39915900Y-191239365D02*
X39924009Y-191167387D01*
X38334100Y-191498906D02*
X38351941Y-191657257D01*
X36015355Y-191167387D02*
X36023465Y-191239365D01*
X39947933Y-191099018D02*
X39986469Y-191037687D01*
X37615900Y-190700000D02*
X37615900Y-189944735D01*
X37534792Y-191807668D02*
X37587423Y-191657257D01*
X38602033Y-192055276D02*
X38736961Y-192140057D01*
X39760646Y-191942596D02*
X39845427Y-191807668D01*
X38351941Y-191657257D02*
X38404572Y-191807668D01*
X38212312Y-189691840D02*
X38263530Y-189743058D01*
X39362627Y-192192688D02*
X39513038Y-192140057D01*
X37939365Y-189621270D02*
X38010635Y-189621270D01*
X113110572Y-185415900D02*
X120810572Y-193115900D01*
X37202403Y-192140057D02*
X37337331Y-192055276D01*
X40167387Y-190924009D02*
X40239365Y-190915900D01*
X39647966Y-192055276D02*
X39760646Y-191942596D01*
X39845427Y-191807668D02*
X39898058Y-191657257D01*
X37624009Y-189872758D02*
X37647933Y-189804389D01*
X38404572Y-191807668D02*
X38489353Y-191942596D01*
X38010635Y-189621270D02*
X38082612Y-189629380D01*
X39204276Y-192210530D02*
X39362627Y-192192688D01*
X36023465Y-191239365D02*
X36023465Y-191498906D01*
X37615900Y-189944735D02*
X37624009Y-189872758D01*
X39045723Y-192210530D02*
X39204276Y-192210530D01*
X35700000Y-190915900D02*
X35771977Y-190924009D01*
X36735088Y-192210530D02*
X36893641Y-192210530D01*
X38150981Y-189653304D02*
X38212312Y-189691840D01*
X37051992Y-192192688D02*
X37202403Y-192140057D01*
X35771977Y-190924009D02*
X35840346Y-190947933D01*
X35840346Y-190947933D02*
X35901677Y-190986469D01*
X35901677Y-190986469D02*
X35952895Y-191037687D01*
X35991431Y-191099018D02*
X36015355Y-191167387D01*
X38082612Y-189629380D02*
X38150981Y-189653304D01*
X36023465Y-191498906D02*
X36041306Y-191657257D01*
X38325990Y-189872758D02*
X38334100Y-189944735D01*
X37337331Y-192055276D02*
X37450011Y-191942596D01*
X36041306Y-191657257D02*
X36093937Y-191807668D01*
X36093937Y-191807668D02*
X36178718Y-191942596D01*
X36178718Y-191942596D02*
X36291398Y-192055276D01*
X36291398Y-192055276D02*
X36426326Y-192140057D01*
X36426326Y-192140057D02*
X36576737Y-192192688D01*
X36576737Y-192192688D02*
X36735088Y-192210530D01*
X36893641Y-192210530D02*
X37051992Y-192192688D01*
X37587423Y-191657257D02*
X37605265Y-191498906D01*
X37605265Y-191498906D02*
X37605265Y-190700000D01*
X37605265Y-190700000D02*
X37615900Y-190700000D01*
X38489353Y-191942596D02*
X38602033Y-192055276D01*
X37647933Y-189804389D02*
X37686469Y-189743058D01*
X37686469Y-189743058D02*
X37737687Y-189691840D01*
X37737687Y-189691840D02*
X37799018Y-189653304D01*
X37799018Y-189653304D02*
X37867387Y-189629380D01*
X37867387Y-189629380D02*
X37939365Y-189621270D01*
X38263530Y-189743058D02*
X38302066Y-189804389D01*
X38334100Y-189944735D02*
X38334100Y-191498906D01*
X38736961Y-192140057D02*
X38887372Y-192192688D01*
X120810572Y-193115900D02*
X180889428Y-193115900D01*
X38887372Y-192192688D02*
X39045723Y-192210530D01*
X39513038Y-192140057D02*
X39647966Y-192055276D01*
X39898058Y-191657257D02*
X39915900Y-191498906D01*
X47189428Y-190915900D02*
X52689428Y-185415900D01*
X39915900Y-191498906D02*
X39915900Y-191239365D01*
X39924009Y-191167387D02*
X39947933Y-191099018D01*
X39986469Y-191037687D02*
X40037687Y-190986469D01*
X40099018Y-190947933D02*
X40167387Y-190924009D01*
X40239365Y-190915900D02*
X47189428Y-190915900D01*
X52689428Y-185415900D02*
X113110572Y-185415900D01*
X180889428Y-193115900D02*
X181415900Y-192589428D01*
X181415900Y-192589428D02*
X181415900Y-191310572D01*
X181415900Y-191310572D02*
X180605328Y-190500000D01*
X180605328Y-190500000D02*
X179900000Y-190500000D01*
D16*
X179825000Y-190500000D02*
X179900000Y-190500000D01*
X28540000Y-190900000D02*
X29175000Y-190900000D01*
X29175000Y-190900000D02*
X29190900Y-190915900D01*
X29190900Y-190915900D02*
X29950000Y-190915900D01*
X178540000Y-190500000D02*
X179825000Y-190500000D01*
D15*
X39452066Y-191595611D02*
X39475990Y-191527242D01*
X29950000Y-190484100D02*
X35743641Y-190484100D01*
X35743641Y-190484100D02*
X35901992Y-190501941D01*
X38497966Y-189344724D02*
X38610646Y-189457404D01*
X36778730Y-191778730D02*
X36850000Y-191778730D01*
X39232612Y-191770620D02*
X39300981Y-191746696D01*
X39475990Y-191527242D02*
X39484100Y-191455265D01*
X35901992Y-190501941D02*
X36052403Y-190554572D01*
X36455265Y-191455265D02*
X36463374Y-191527242D01*
X38949018Y-191746696D02*
X39017387Y-191770620D01*
X37895723Y-189189470D02*
X38054276Y-189189470D01*
X37586961Y-189259943D02*
X37737372Y-189207312D01*
X37184100Y-189901094D02*
X37201941Y-189742743D01*
X42700000Y-190484100D02*
X42766756Y-190476579D01*
X36052403Y-190554572D02*
X36187331Y-190639353D01*
X36921977Y-191770620D02*
X36990346Y-191746696D01*
X36187331Y-190639353D02*
X36300011Y-190752033D01*
X40037372Y-190501941D02*
X40195723Y-190484100D01*
X42830165Y-190454391D02*
X42887046Y-190418650D01*
X43300000Y-189515749D02*
X43366756Y-189523271D01*
X36487298Y-191595611D02*
X36525834Y-191656942D01*
X36990346Y-191746696D02*
X37051677Y-191708160D01*
X43769834Y-190454391D02*
X43833243Y-190476579D01*
X37452033Y-189344724D02*
X37586961Y-189259943D01*
X36300011Y-190752033D02*
X36384792Y-190886961D01*
X37339353Y-189457404D02*
X37452033Y-189344724D01*
X36384792Y-190886961D02*
X36437423Y-191037372D01*
X43112953Y-189581200D02*
X43169834Y-189545459D01*
X36850000Y-191778730D02*
X36921977Y-191770620D01*
X38363038Y-189259943D02*
X38497966Y-189344724D01*
X43712953Y-190418650D02*
X43769834Y-190454391D01*
X36437423Y-191037372D02*
X36455265Y-191195723D01*
X37141431Y-191595611D02*
X37165355Y-191527242D01*
X36638383Y-191746696D02*
X36706752Y-191770620D01*
X43607521Y-190250857D02*
X43629709Y-190314266D01*
X36706752Y-191770620D02*
X36778730Y-191778730D01*
X36525834Y-191656942D02*
X36577052Y-191708160D01*
X39484100Y-191455265D02*
X39484100Y-191195723D01*
X36455265Y-191195723D02*
X36455265Y-191455265D01*
X42766756Y-190476579D02*
X42830165Y-190454391D01*
X36577052Y-191708160D02*
X36638383Y-191746696D01*
X40195723Y-190484100D02*
X42700000Y-190484100D01*
X36463374Y-191527242D02*
X36487298Y-191595611D01*
X39501941Y-191037372D02*
X39554572Y-190886961D01*
X37254572Y-189592332D02*
X37339353Y-189457404D01*
X43600000Y-189815749D02*
X43600000Y-190184100D01*
X37051677Y-191708160D02*
X37102895Y-191656942D01*
X37184100Y-190700000D02*
X37184100Y-189901094D01*
X37102895Y-191656942D02*
X37141431Y-191595611D01*
X37165355Y-191527242D02*
X37173465Y-191455265D01*
X37173465Y-191455265D02*
X37173465Y-190700000D01*
X38695427Y-189592332D02*
X38748058Y-189742743D01*
X37173465Y-190700000D02*
X37184100Y-190700000D01*
X37201941Y-189742743D02*
X37254572Y-189592332D01*
X42934549Y-190371147D02*
X42970290Y-190314266D01*
X43430165Y-189545459D02*
X43487046Y-189581200D01*
X43487046Y-189581200D02*
X43534549Y-189628703D01*
X37737372Y-189207312D02*
X37895723Y-189189470D01*
X39413530Y-191656942D02*
X39452066Y-191595611D01*
X38054276Y-189189470D02*
X38212627Y-189207312D01*
X38212627Y-189207312D02*
X38363038Y-189259943D01*
X38610646Y-189457404D02*
X38695427Y-189592332D01*
X39752033Y-190639353D02*
X39886961Y-190554572D01*
X38748058Y-189742743D02*
X38765900Y-189901094D01*
X39639353Y-190752033D02*
X39752033Y-190639353D01*
X38765900Y-189901094D02*
X38765900Y-191455265D01*
X43833243Y-190476579D02*
X43900000Y-190484100D01*
X38765900Y-191455265D02*
X38774009Y-191527242D01*
X38774009Y-191527242D02*
X38797933Y-191595611D01*
X38797933Y-191595611D02*
X38836469Y-191656942D01*
X39300981Y-191746696D02*
X39362312Y-191708160D01*
X38836469Y-191656942D02*
X38887687Y-191708160D01*
X43000000Y-189815749D02*
X43007521Y-189748993D01*
X39017387Y-191770620D02*
X39089365Y-191778730D01*
X38887687Y-191708160D02*
X38949018Y-191746696D01*
X39089365Y-191778730D02*
X39160635Y-191778730D01*
X39160635Y-191778730D02*
X39232612Y-191770620D01*
X180984100Y-191489428D02*
X180594672Y-191100000D01*
X39484100Y-191195723D02*
X39501941Y-191037372D01*
X39362312Y-191708160D02*
X39413530Y-191656942D01*
X39554572Y-190886961D02*
X39639353Y-190752033D01*
X43233243Y-189523271D02*
X43300000Y-189515749D01*
X39886961Y-190554572D02*
X40037372Y-190501941D01*
X42887046Y-190418650D02*
X42934549Y-190371147D01*
X42970290Y-190314266D02*
X42992478Y-190250857D01*
X42992478Y-190250857D02*
X43000000Y-190184100D01*
X43000000Y-190184100D02*
X43000000Y-189815749D01*
X43007521Y-189748993D02*
X43029709Y-189685584D01*
X43029709Y-189685584D02*
X43065450Y-189628703D01*
X43065450Y-189628703D02*
X43112953Y-189581200D01*
X43169834Y-189545459D02*
X43233243Y-189523271D01*
X43366756Y-189523271D02*
X43430165Y-189545459D01*
X43534549Y-189628703D02*
X43570290Y-189685584D01*
X43570290Y-189685584D02*
X43592478Y-189748993D01*
X43592478Y-189748993D02*
X43600000Y-189815749D01*
X43600000Y-190184100D02*
X43607521Y-190250857D01*
X43629709Y-190314266D02*
X43665450Y-190371147D01*
X43665450Y-190371147D02*
X43712953Y-190418650D01*
X43900000Y-190484100D02*
X47010572Y-190484100D01*
X47010572Y-190484100D02*
X52510572Y-184984100D01*
X52510572Y-184984100D02*
X113289428Y-184984100D01*
X113289428Y-184984100D02*
X120989428Y-192684100D01*
X120989428Y-192684100D02*
X180710572Y-192684100D01*
X180710572Y-192684100D02*
X180984100Y-192410572D01*
X180984100Y-192410572D02*
X180984100Y-191489428D01*
X180594672Y-191100000D02*
X179900000Y-191100000D01*
D16*
X179800000Y-191000000D02*
X179900000Y-191100000D01*
X28540000Y-190500000D02*
X29934100Y-190500000D01*
X29934100Y-190500000D02*
X29950000Y-190484100D01*
X179700000Y-190900000D02*
X179800000Y-191000000D01*
X178540000Y-190900000D02*
X179700000Y-190900000D01*
D15*
G36*
X26373000Y-181373000D02*
X26262760Y-181373000D01*
X26160000Y-181352560D01*
X24760000Y-181352560D01*
X24657240Y-181373000D01*
X24430059Y-181373000D01*
X24204236Y-181146782D01*
X23877609Y-181011154D01*
X23523943Y-181010846D01*
X23197080Y-181145903D01*
X22969586Y-181373000D01*
X22710000Y-181373000D01*
X22710000Y-178710000D01*
X26373000Y-178710000D01*
X26373000Y-181373000D01*
X26373000Y-181373000D01*
G37*
X26373000Y-181373000D02*
X26262760Y-181373000D01*
X26160000Y-181352560D01*
X24760000Y-181352560D01*
X24657240Y-181373000D01*
X24430059Y-181373000D01*
X24204236Y-181146782D01*
X23877609Y-181011154D01*
X23523943Y-181010846D01*
X23197080Y-181145903D01*
X22969586Y-181373000D01*
X22710000Y-181373000D01*
X22710000Y-178710000D01*
X26373000Y-178710000D01*
X26373000Y-181373000D01*
G36*
X176873000Y-181469786D02*
X176495317Y-181460344D01*
X176407765Y-181401843D01*
X176160000Y-181352560D01*
X174760000Y-181352560D01*
X174641655Y-181376100D01*
X173515478Y-181376100D01*
X173323937Y-181338000D01*
X173127000Y-181338000D01*
X173127000Y-180829656D01*
X173213846Y-180620509D01*
X173214154Y-180266843D01*
X173145213Y-180099994D01*
X173213846Y-179934709D01*
X173214154Y-179581043D01*
X173127000Y-179370114D01*
X173127000Y-178710000D01*
X176873000Y-178710000D01*
X176873000Y-181469786D01*
X176873000Y-181469786D01*
G37*
X176873000Y-181469786D02*
X176495317Y-181460344D01*
X176407765Y-181401843D01*
X176160000Y-181352560D01*
X174760000Y-181352560D01*
X174641655Y-181376100D01*
X173515478Y-181376100D01*
X173323937Y-181338000D01*
X173127000Y-181338000D01*
X173127000Y-180829656D01*
X173213846Y-180620509D01*
X173214154Y-180266843D01*
X173145213Y-180099994D01*
X173213846Y-179934709D01*
X173214154Y-179581043D01*
X173127000Y-179370114D01*
X173127000Y-178710000D01*
X176873000Y-178710000D01*
X176873000Y-181469786D01*
G36*
X174760000Y-189247440D02*
X176152657Y-189247440D01*
X176111154Y-189347391D01*
X176110846Y-189701057D01*
X176245903Y-190027920D01*
X176495764Y-190278218D01*
X176505094Y-190282092D01*
X176490806Y-190438166D01*
X176472080Y-190445903D01*
X176221782Y-190695764D01*
X176086154Y-191022391D01*
X176085846Y-191376057D01*
X176220903Y-191702920D01*
X176362072Y-191844336D01*
X176354953Y-191922100D01*
X173527000Y-191922100D01*
X173527000Y-189930836D01*
X173703218Y-189754926D01*
X173838846Y-189428299D01*
X173838883Y-189385557D01*
X174000540Y-189223900D01*
X174641655Y-189223900D01*
X174760000Y-189247440D01*
X174760000Y-189247440D01*
G37*
X174760000Y-189247440D02*
X176152657Y-189247440D01*
X176111154Y-189347391D01*
X176110846Y-189701057D01*
X176245903Y-190027920D01*
X176495764Y-190278218D01*
X176505094Y-190282092D01*
X176490806Y-190438166D01*
X176472080Y-190445903D01*
X176221782Y-190695764D01*
X176086154Y-191022391D01*
X176085846Y-191376057D01*
X176220903Y-191702920D01*
X176362072Y-191844336D01*
X176354953Y-191922100D01*
X173527000Y-191922100D01*
X173527000Y-189930836D01*
X173703218Y-189754926D01*
X173838846Y-189428299D01*
X173838883Y-189385557D01*
X174000540Y-189223900D01*
X174641655Y-189223900D01*
X174760000Y-189247440D01*
G36*
X26461987Y-189739832D02*
X26365111Y-189973137D01*
X26364890Y-190225755D01*
X26461360Y-190459228D01*
X26639832Y-190638013D01*
X26668483Y-190649910D01*
X26640772Y-190661360D01*
X26461987Y-190839832D01*
X26365111Y-191073137D01*
X26364890Y-191325755D01*
X26461360Y-191559228D01*
X26639832Y-191738013D01*
X26673000Y-191751785D01*
X26673000Y-194044000D01*
X23727000Y-194044000D01*
X23727000Y-189770987D01*
X23838013Y-189660168D01*
X23872547Y-189577000D01*
X26625105Y-189577000D01*
X26461987Y-189739832D01*
X26461987Y-189739832D01*
G37*
X26461987Y-189739832D02*
X26365111Y-189973137D01*
X26364890Y-190225755D01*
X26461360Y-190459228D01*
X26639832Y-190638013D01*
X26668483Y-190649910D01*
X26640772Y-190661360D01*
X26461987Y-190839832D01*
X26365111Y-191073137D01*
X26364890Y-191325755D01*
X26461360Y-191559228D01*
X26639832Y-191738013D01*
X26673000Y-191751785D01*
X26673000Y-194044000D01*
X23727000Y-194044000D01*
X23727000Y-189770987D01*
X23838013Y-189660168D01*
X23872547Y-189577000D01*
X26625105Y-189577000D01*
X26461987Y-189739832D01*
M02*
