G04 #@! TF.FileFunction,Copper,L3,Inr,Signal*
%FSLAX46Y46*%
G04 Gerber Fmt 4.6, Leading zero omitted, Abs format (unit mm)*
G04 Created by KiCad (PCBNEW 0.201603021449+6606~42~ubuntu14.04.1-product) date Wed 02 Mar 2016 02:15:13 PM PST*
%MOMM*%
G01*
G04 APERTURE LIST*
%ADD10C,0.100000*%
%ADD11C,2.540000*%
%ADD12C,2.200000*%
%ADD13C,0.508000*%
G04 APERTURE END LIST*
D10*
D11*
X164500000Y-196000000D03*
X164500000Y-174500000D03*
X14500000Y-174500000D03*
D12*
X49500000Y-192925000D03*
X199505000Y-192925000D03*
D11*
X14500000Y-196000000D03*
D13*
X140300000Y-178999090D03*
X180705564Y-179979902D03*
X172700000Y-181100000D03*
X173500000Y-181137491D03*
X177000000Y-185300000D03*
X177000000Y-183500000D03*
X177000000Y-180800000D03*
X176975000Y-187200000D03*
X177000000Y-189525000D03*
X176975000Y-191200000D03*
X24300000Y-178700000D03*
X23800000Y-179500000D03*
X27000000Y-184675000D03*
X26975000Y-182875000D03*
X27000000Y-181100000D03*
X27000000Y-187200000D03*
X27000000Y-191200000D03*
X27000000Y-190100000D03*
X27000000Y-188900000D03*
X25475000Y-178700000D03*
X22875000Y-179500000D03*
X23325000Y-180750000D03*
X169450000Y-186708410D03*
X22609375Y-186241728D03*
X170050000Y-187080380D03*
X22885259Y-186894448D03*
X171272325Y-187575690D03*
X22976604Y-187548502D03*
X176717516Y-187808138D03*
X22844781Y-188222828D03*
X172225000Y-189250690D03*
X22694573Y-189036204D03*
X172950000Y-189250690D03*
X23300000Y-189300000D03*
X174900000Y-192075000D03*
X176000000Y-192075000D03*
X174175000Y-191475000D03*
X173825000Y-189375000D03*
X173700000Y-190949310D03*
X24300000Y-192250000D03*
X26350000Y-192200000D03*
X25400000Y-192000000D03*
X23875000Y-190700000D03*
X23900000Y-191475000D03*
X140300000Y-178313290D03*
X180695893Y-179319571D03*
X180675000Y-180639597D03*
X172325000Y-179757100D03*
X180675000Y-181300000D03*
X172325000Y-180442900D03*
X179925000Y-181850000D03*
X23700000Y-181900000D03*
X179932677Y-182523006D03*
X23700000Y-182560403D03*
X179950000Y-183250000D03*
X22900000Y-183000000D03*
X179950000Y-183910403D03*
X22883120Y-183680682D03*
X181375000Y-184425000D03*
X23950000Y-184214390D03*
X181375000Y-185085403D03*
X23950000Y-184925000D03*
X180200000Y-185514597D03*
X22900000Y-184925000D03*
X180200000Y-186175000D03*
X22879965Y-185605438D03*
X31842466Y-187132534D03*
X180775000Y-186639597D03*
X31357534Y-187617466D03*
X180775000Y-187300000D03*
X30025000Y-188100000D03*
X179875000Y-187875000D03*
X30191699Y-188739016D03*
X179877390Y-188540029D03*
X180675000Y-189742900D03*
X172300000Y-191717900D03*
X172300000Y-191032100D03*
X180675000Y-189057100D03*
M02*
