G04 #@! TF.GenerationSoftware,KiCad,Pcbnew,6.0.0-rc1-unknown-f1b2855~84~ubuntu16.04.1*
G04 #@! TF.CreationDate,2018-10-23T11:27:57+08:00*
G04 #@! TF.ProjectId,ovc2_mobo,6F7663325F6D6F626F2E6B696361645F,rev?*
G04 #@! TF.SameCoordinates,Original*
G04 #@! TF.FileFunction,Legend,Top*
G04 #@! TF.FilePolarity,Positive*
%FSLAX46Y46*%
G04 Gerber Fmt 4.6, Leading zero omitted, Abs format (unit mm)*
G04 Created by KiCad (PCBNEW 6.0.0-rc1-unknown-f1b2855~84~ubuntu16.04.1) date Tue 23 Oct 2018 11:27:57 AM +08*
%MOMM*%
%LPD*%
G01*
G04 APERTURE LIST*
%ADD10C,0.200000*%
%ADD11C,0.127000*%
%ADD12C,0.300000*%
%ADD13C,0.150000*%
%ADD14C,0.120000*%
%ADD15C,0.100000*%
G04 APERTURE END LIST*
D10*
X170800000Y-75900000D02*
G75*
G03X170800000Y-75900000I-100000J0D01*
G01*
D11*
X175000000Y-59500000D02*
G75*
G03X175000000Y-59500000I-3000000J0D01*
G01*
X100300000Y-74300000D02*
X99700000Y-74000000D01*
X100300000Y-73700000D02*
X100300000Y-74300000D01*
X99700000Y-74000000D02*
X100300000Y-73700000D01*
X99700000Y-74300000D02*
X99700000Y-74000000D01*
X99700000Y-73700000D02*
X99700000Y-74300000D01*
X160200000Y-86800000D02*
X159700000Y-86500000D01*
X160200000Y-86200000D02*
X160200000Y-86800000D01*
X159600000Y-86500000D02*
X160200000Y-86200000D01*
X159600000Y-86200000D02*
X159600000Y-86800000D01*
D10*
X164300000Y-100000000D02*
X164600000Y-100600000D01*
X164900000Y-100000000D02*
X164300000Y-100000000D01*
X164600000Y-100600000D02*
X164900000Y-100000000D01*
X161641421Y-132200000D02*
G75*
G03X161641421Y-132200000I-141421J0D01*
G01*
X149241421Y-132100000D02*
G75*
G03X149241421Y-132100000I-141421J0D01*
G01*
X114500000Y-120100000D02*
X114500000Y-119500000D01*
X114500000Y-119500000D02*
X113900000Y-119800000D01*
X113900000Y-119800000D02*
X114500000Y-120100000D01*
X114000000Y-110300000D02*
X114600000Y-110600000D01*
X114600000Y-110600000D02*
X114600000Y-110000000D01*
X114600000Y-110000000D02*
X114000000Y-110300000D01*
X144500000Y-75100000D02*
X144200000Y-74500000D01*
X143900000Y-75100000D02*
X144500000Y-75100000D01*
X144200000Y-74500000D02*
X143900000Y-75100000D01*
D12*
X105766428Y-80903571D02*
X105623571Y-80832142D01*
X105552142Y-80760714D01*
X105480714Y-80617857D01*
X105480714Y-80189285D01*
X105552142Y-80046428D01*
X105623571Y-79975000D01*
X105766428Y-79903571D01*
X105980714Y-79903571D01*
X106123571Y-79975000D01*
X106195000Y-80046428D01*
X106266428Y-80189285D01*
X106266428Y-80617857D01*
X106195000Y-80760714D01*
X106123571Y-80832142D01*
X105980714Y-80903571D01*
X105766428Y-80903571D01*
X106909285Y-79903571D02*
X106909285Y-81403571D01*
X106909285Y-79975000D02*
X107052142Y-79903571D01*
X107337857Y-79903571D01*
X107480714Y-79975000D01*
X107552142Y-80046428D01*
X107623571Y-80189285D01*
X107623571Y-80617857D01*
X107552142Y-80760714D01*
X107480714Y-80832142D01*
X107337857Y-80903571D01*
X107052142Y-80903571D01*
X106909285Y-80832142D01*
X108837857Y-80832142D02*
X108695000Y-80903571D01*
X108409285Y-80903571D01*
X108266428Y-80832142D01*
X108195000Y-80689285D01*
X108195000Y-80117857D01*
X108266428Y-79975000D01*
X108409285Y-79903571D01*
X108695000Y-79903571D01*
X108837857Y-79975000D01*
X108909285Y-80117857D01*
X108909285Y-80260714D01*
X108195000Y-80403571D01*
X109552142Y-79903571D02*
X109552142Y-80903571D01*
X109552142Y-80046428D02*
X109623571Y-79975000D01*
X109766428Y-79903571D01*
X109980714Y-79903571D01*
X110123571Y-79975000D01*
X110195000Y-80117857D01*
X110195000Y-80903571D01*
X111909285Y-79903571D02*
X112266428Y-80903571D01*
X112623571Y-79903571D01*
X113195000Y-80903571D02*
X113195000Y-79903571D01*
X113195000Y-79403571D02*
X113123571Y-79475000D01*
X113195000Y-79546428D01*
X113266428Y-79475000D01*
X113195000Y-79403571D01*
X113195000Y-79546428D01*
X113837857Y-80832142D02*
X113980714Y-80903571D01*
X114266428Y-80903571D01*
X114409285Y-80832142D01*
X114480714Y-80689285D01*
X114480714Y-80617857D01*
X114409285Y-80475000D01*
X114266428Y-80403571D01*
X114052142Y-80403571D01*
X113909285Y-80332142D01*
X113837857Y-80189285D01*
X113837857Y-80117857D01*
X113909285Y-79975000D01*
X114052142Y-79903571D01*
X114266428Y-79903571D01*
X114409285Y-79975000D01*
X115123571Y-80903571D02*
X115123571Y-79903571D01*
X115123571Y-79403571D02*
X115052142Y-79475000D01*
X115123571Y-79546428D01*
X115195000Y-79475000D01*
X115123571Y-79403571D01*
X115123571Y-79546428D01*
X116052142Y-80903571D02*
X115909285Y-80832142D01*
X115837857Y-80760714D01*
X115766428Y-80617857D01*
X115766428Y-80189285D01*
X115837857Y-80046428D01*
X115909285Y-79975000D01*
X116052142Y-79903571D01*
X116266428Y-79903571D01*
X116409285Y-79975000D01*
X116480714Y-80046428D01*
X116552142Y-80189285D01*
X116552142Y-80617857D01*
X116480714Y-80760714D01*
X116409285Y-80832142D01*
X116266428Y-80903571D01*
X116052142Y-80903571D01*
X117195000Y-79903571D02*
X117195000Y-80903571D01*
X117195000Y-80046428D02*
X117266428Y-79975000D01*
X117409285Y-79903571D01*
X117623571Y-79903571D01*
X117766428Y-79975000D01*
X117837857Y-80117857D01*
X117837857Y-80903571D01*
X120337857Y-80832142D02*
X120195000Y-80903571D01*
X119909285Y-80903571D01*
X119766428Y-80832142D01*
X119695000Y-80760714D01*
X119623571Y-80617857D01*
X119623571Y-80189285D01*
X119695000Y-80046428D01*
X119766428Y-79975000D01*
X119909285Y-79903571D01*
X120195000Y-79903571D01*
X120337857Y-79975000D01*
X121195000Y-80903571D02*
X121052142Y-80832142D01*
X120980714Y-80760714D01*
X120909285Y-80617857D01*
X120909285Y-80189285D01*
X120980714Y-80046428D01*
X121052142Y-79975000D01*
X121195000Y-79903571D01*
X121409285Y-79903571D01*
X121552142Y-79975000D01*
X121623571Y-80046428D01*
X121695000Y-80189285D01*
X121695000Y-80617857D01*
X121623571Y-80760714D01*
X121552142Y-80832142D01*
X121409285Y-80903571D01*
X121195000Y-80903571D01*
X122337857Y-80903571D02*
X122337857Y-79903571D01*
X122337857Y-80046428D02*
X122409285Y-79975000D01*
X122552142Y-79903571D01*
X122766428Y-79903571D01*
X122909285Y-79975000D01*
X122980714Y-80117857D01*
X122980714Y-80903571D01*
X122980714Y-80117857D02*
X123052142Y-79975000D01*
X123195000Y-79903571D01*
X123409285Y-79903571D01*
X123552142Y-79975000D01*
X123623571Y-80117857D01*
X123623571Y-80903571D01*
X124337857Y-79903571D02*
X124337857Y-81403571D01*
X124337857Y-79975000D02*
X124480714Y-79903571D01*
X124766428Y-79903571D01*
X124909285Y-79975000D01*
X124980714Y-80046428D01*
X125052142Y-80189285D01*
X125052142Y-80617857D01*
X124980714Y-80760714D01*
X124909285Y-80832142D01*
X124766428Y-80903571D01*
X124480714Y-80903571D01*
X124337857Y-80832142D01*
X126337857Y-79903571D02*
X126337857Y-80903571D01*
X125695000Y-79903571D02*
X125695000Y-80689285D01*
X125766428Y-80832142D01*
X125909285Y-80903571D01*
X126123571Y-80903571D01*
X126266428Y-80832142D01*
X126337857Y-80760714D01*
X126837857Y-79903571D02*
X127409285Y-79903571D01*
X127052142Y-79403571D02*
X127052142Y-80689285D01*
X127123571Y-80832142D01*
X127266428Y-80903571D01*
X127409285Y-80903571D01*
X128480714Y-80832142D02*
X128337857Y-80903571D01*
X128052142Y-80903571D01*
X127909285Y-80832142D01*
X127837857Y-80689285D01*
X127837857Y-80117857D01*
X127909285Y-79975000D01*
X128052142Y-79903571D01*
X128337857Y-79903571D01*
X128480714Y-79975000D01*
X128552142Y-80117857D01*
X128552142Y-80260714D01*
X127837857Y-80403571D01*
X129195000Y-80903571D02*
X129195000Y-79903571D01*
X129195000Y-80189285D02*
X129266428Y-80046428D01*
X129337857Y-79975000D01*
X129480714Y-79903571D01*
X129623571Y-79903571D01*
X131195000Y-79546428D02*
X131266428Y-79475000D01*
X131409285Y-79403571D01*
X131766428Y-79403571D01*
X131909285Y-79475000D01*
X131980714Y-79546428D01*
X132052142Y-79689285D01*
X132052142Y-79832142D01*
X131980714Y-80046428D01*
X131123571Y-80903571D01*
X132052142Y-80903571D01*
X132695000Y-80903571D02*
X132695000Y-79403571D01*
X132695000Y-79975000D02*
X132837857Y-79903571D01*
X133123571Y-79903571D01*
X133266428Y-79975000D01*
X133337857Y-80046428D01*
X133409285Y-80189285D01*
X133409285Y-80617857D01*
X133337857Y-80760714D01*
X133266428Y-80832142D01*
X133123571Y-80903571D01*
X132837857Y-80903571D01*
X132695000Y-80832142D01*
X105766428Y-83453571D02*
X105623571Y-83382142D01*
X105552142Y-83310714D01*
X105480714Y-83167857D01*
X105480714Y-82739285D01*
X105552142Y-82596428D01*
X105623571Y-82525000D01*
X105766428Y-82453571D01*
X105980714Y-82453571D01*
X106123571Y-82525000D01*
X106195000Y-82596428D01*
X106266428Y-82739285D01*
X106266428Y-83167857D01*
X106195000Y-83310714D01*
X106123571Y-83382142D01*
X105980714Y-83453571D01*
X105766428Y-83453571D01*
X106766428Y-82453571D02*
X107123571Y-83453571D01*
X107480714Y-82453571D01*
X108695000Y-83382142D02*
X108552142Y-83453571D01*
X108266428Y-83453571D01*
X108123571Y-83382142D01*
X108052142Y-83310714D01*
X107980714Y-83167857D01*
X107980714Y-82739285D01*
X108052142Y-82596428D01*
X108123571Y-82525000D01*
X108266428Y-82453571D01*
X108552142Y-82453571D01*
X108695000Y-82525000D01*
X109266428Y-82096428D02*
X109337857Y-82025000D01*
X109480714Y-81953571D01*
X109837857Y-81953571D01*
X109980714Y-82025000D01*
X110052142Y-82096428D01*
X110123571Y-82239285D01*
X110123571Y-82382142D01*
X110052142Y-82596428D01*
X109195000Y-83453571D01*
X110123571Y-83453571D01*
X111909285Y-83453571D02*
X111909285Y-82453571D01*
X111909285Y-82739285D02*
X111980714Y-82596428D01*
X112052142Y-82525000D01*
X112195000Y-82453571D01*
X112337857Y-82453571D01*
X113409285Y-83382142D02*
X113266428Y-83453571D01*
X112980714Y-83453571D01*
X112837857Y-83382142D01*
X112766428Y-83239285D01*
X112766428Y-82667857D01*
X112837857Y-82525000D01*
X112980714Y-82453571D01*
X113266428Y-82453571D01*
X113409285Y-82525000D01*
X113480714Y-82667857D01*
X113480714Y-82810714D01*
X112766428Y-82953571D01*
X113980714Y-82453571D02*
X114337857Y-83453571D01*
X114695000Y-82453571D01*
X116909285Y-82667857D02*
X117123571Y-82739285D01*
X117195000Y-82810714D01*
X117266428Y-82953571D01*
X117266428Y-83167857D01*
X117195000Y-83310714D01*
X117123571Y-83382142D01*
X116980714Y-83453571D01*
X116409285Y-83453571D01*
X116409285Y-81953571D01*
X116909285Y-81953571D01*
X117052142Y-82025000D01*
X117123571Y-82096428D01*
X117195000Y-82239285D01*
X117195000Y-82382142D01*
X117123571Y-82525000D01*
X117052142Y-82596428D01*
X116909285Y-82667857D01*
X116409285Y-82667857D01*
X121623571Y-81953571D02*
X121909285Y-81953571D01*
X122052142Y-82025000D01*
X122195000Y-82167857D01*
X122266428Y-82453571D01*
X122266428Y-82953571D01*
X122195000Y-83239285D01*
X122052142Y-83382142D01*
X121909285Y-83453571D01*
X121623571Y-83453571D01*
X121480714Y-83382142D01*
X121337857Y-83239285D01*
X121266428Y-82953571D01*
X121266428Y-82453571D01*
X121337857Y-82167857D01*
X121480714Y-82025000D01*
X121623571Y-81953571D01*
X123552142Y-83382142D02*
X123409285Y-83453571D01*
X123123571Y-83453571D01*
X122980714Y-83382142D01*
X122909285Y-83310714D01*
X122837857Y-83167857D01*
X122837857Y-82739285D01*
X122909285Y-82596428D01*
X122980714Y-82525000D01*
X123123571Y-82453571D01*
X123409285Y-82453571D01*
X123552142Y-82525000D01*
X123980714Y-82453571D02*
X124552142Y-82453571D01*
X124195000Y-81953571D02*
X124195000Y-83239285D01*
X124266428Y-83382142D01*
X124409285Y-83453571D01*
X124552142Y-83453571D01*
X126123571Y-82096428D02*
X126195000Y-82025000D01*
X126337857Y-81953571D01*
X126695000Y-81953571D01*
X126837857Y-82025000D01*
X126909285Y-82096428D01*
X126980714Y-82239285D01*
X126980714Y-82382142D01*
X126909285Y-82596428D01*
X126052142Y-83453571D01*
X126980714Y-83453571D01*
X127909285Y-81953571D02*
X128052142Y-81953571D01*
X128195000Y-82025000D01*
X128266428Y-82096428D01*
X128337857Y-82239285D01*
X128409285Y-82525000D01*
X128409285Y-82882142D01*
X128337857Y-83167857D01*
X128266428Y-83310714D01*
X128195000Y-83382142D01*
X128052142Y-83453571D01*
X127909285Y-83453571D01*
X127766428Y-83382142D01*
X127695000Y-83310714D01*
X127623571Y-83167857D01*
X127552142Y-82882142D01*
X127552142Y-82525000D01*
X127623571Y-82239285D01*
X127695000Y-82096428D01*
X127766428Y-82025000D01*
X127909285Y-81953571D01*
X129837857Y-83453571D02*
X128980714Y-83453571D01*
X129409285Y-83453571D02*
X129409285Y-81953571D01*
X129266428Y-82167857D01*
X129123571Y-82310714D01*
X128980714Y-82382142D01*
X130695000Y-82596428D02*
X130552142Y-82525000D01*
X130480714Y-82453571D01*
X130409285Y-82310714D01*
X130409285Y-82239285D01*
X130480714Y-82096428D01*
X130552142Y-82025000D01*
X130695000Y-81953571D01*
X130980714Y-81953571D01*
X131123571Y-82025000D01*
X131195000Y-82096428D01*
X131266428Y-82239285D01*
X131266428Y-82310714D01*
X131195000Y-82453571D01*
X131123571Y-82525000D01*
X130980714Y-82596428D01*
X130695000Y-82596428D01*
X130552142Y-82667857D01*
X130480714Y-82739285D01*
X130409285Y-82882142D01*
X130409285Y-83167857D01*
X130480714Y-83310714D01*
X130552142Y-83382142D01*
X130695000Y-83453571D01*
X130980714Y-83453571D01*
X131123571Y-83382142D01*
X131195000Y-83310714D01*
X131266428Y-83167857D01*
X131266428Y-82882142D01*
X131195000Y-82739285D01*
X131123571Y-82667857D01*
X130980714Y-82596428D01*
D10*
X177961904Y-72976190D02*
X177580952Y-73242857D01*
X177961904Y-73433333D02*
X177161904Y-73433333D01*
X177161904Y-73128571D01*
X177200000Y-73052380D01*
X177238095Y-73014285D01*
X177314285Y-72976190D01*
X177428571Y-72976190D01*
X177504761Y-73014285D01*
X177542857Y-73052380D01*
X177580952Y-73128571D01*
X177580952Y-73433333D01*
X177542857Y-72633333D02*
X177542857Y-72366666D01*
X177961904Y-72252380D02*
X177961904Y-72633333D01*
X177161904Y-72633333D01*
X177161904Y-72252380D01*
X177885714Y-71452380D02*
X177923809Y-71490476D01*
X177961904Y-71604761D01*
X177961904Y-71680952D01*
X177923809Y-71795238D01*
X177847619Y-71871428D01*
X177771428Y-71909523D01*
X177619047Y-71947619D01*
X177504761Y-71947619D01*
X177352380Y-71909523D01*
X177276190Y-71871428D01*
X177200000Y-71795238D01*
X177161904Y-71680952D01*
X177161904Y-71604761D01*
X177200000Y-71490476D01*
X177238095Y-71452380D01*
X177161904Y-70957142D02*
X177161904Y-70804761D01*
X177200000Y-70728571D01*
X177276190Y-70652380D01*
X177428571Y-70614285D01*
X177695238Y-70614285D01*
X177847619Y-70652380D01*
X177923809Y-70728571D01*
X177961904Y-70804761D01*
X177961904Y-70957142D01*
X177923809Y-71033333D01*
X177847619Y-71109523D01*
X177695238Y-71147619D01*
X177428571Y-71147619D01*
X177276190Y-71109523D01*
X177200000Y-71033333D01*
X177161904Y-70957142D01*
X177161904Y-70385714D02*
X177961904Y-70119047D01*
X177161904Y-69852380D01*
D13*
X95128571Y-72971428D02*
X94928571Y-72685714D01*
X94785714Y-72971428D02*
X94785714Y-72371428D01*
X95014285Y-72371428D01*
X95071428Y-72400000D01*
X95100000Y-72428571D01*
X95128571Y-72485714D01*
X95128571Y-72571428D01*
X95100000Y-72628571D01*
X95071428Y-72657142D01*
X95014285Y-72685714D01*
X94785714Y-72685714D01*
X95385714Y-72657142D02*
X95585714Y-72657142D01*
X95671428Y-72971428D02*
X95385714Y-72971428D01*
X95385714Y-72371428D01*
X95671428Y-72371428D01*
X95900000Y-72942857D02*
X95985714Y-72971428D01*
X96128571Y-72971428D01*
X96185714Y-72942857D01*
X96214285Y-72914285D01*
X96242857Y-72857142D01*
X96242857Y-72800000D01*
X96214285Y-72742857D01*
X96185714Y-72714285D01*
X96128571Y-72685714D01*
X96014285Y-72657142D01*
X95957142Y-72628571D01*
X95928571Y-72600000D01*
X95900000Y-72542857D01*
X95900000Y-72485714D01*
X95928571Y-72428571D01*
X95957142Y-72400000D01*
X96014285Y-72371428D01*
X96157142Y-72371428D01*
X96242857Y-72400000D01*
X96500000Y-72657142D02*
X96700000Y-72657142D01*
X96785714Y-72971428D02*
X96500000Y-72971428D01*
X96500000Y-72371428D01*
X96785714Y-72371428D01*
X96957142Y-72371428D02*
X97300000Y-72371428D01*
X97128571Y-72971428D02*
X97128571Y-72371428D01*
D10*
X99361904Y-69847619D02*
X98561904Y-69847619D01*
X98561904Y-69542857D01*
X98600000Y-69466666D01*
X98638095Y-69428571D01*
X98714285Y-69390476D01*
X98828571Y-69390476D01*
X98904761Y-69428571D01*
X98942857Y-69466666D01*
X98980952Y-69542857D01*
X98980952Y-69847619D01*
X98561904Y-68895238D02*
X98561904Y-68742857D01*
X98600000Y-68666666D01*
X98676190Y-68590476D01*
X98828571Y-68552380D01*
X99095238Y-68552380D01*
X99247619Y-68590476D01*
X99323809Y-68666666D01*
X99361904Y-68742857D01*
X99361904Y-68895238D01*
X99323809Y-68971428D01*
X99247619Y-69047619D01*
X99095238Y-69085714D01*
X98828571Y-69085714D01*
X98676190Y-69047619D01*
X98600000Y-68971428D01*
X98561904Y-68895238D01*
X98561904Y-68285714D02*
X99361904Y-68095238D01*
X98790476Y-67942857D01*
X99361904Y-67790476D01*
X98561904Y-67600000D01*
X98942857Y-67295238D02*
X98942857Y-67028571D01*
X99361904Y-66914285D02*
X99361904Y-67295238D01*
X98561904Y-67295238D01*
X98561904Y-66914285D01*
X99361904Y-66114285D02*
X98980952Y-66380952D01*
X99361904Y-66571428D02*
X98561904Y-66571428D01*
X98561904Y-66266666D01*
X98600000Y-66190476D01*
X98638095Y-66152380D01*
X98714285Y-66114285D01*
X98828571Y-66114285D01*
X98904761Y-66152380D01*
X98942857Y-66190476D01*
X98980952Y-66266666D01*
X98980952Y-66571428D01*
D13*
X179042857Y-67200000D02*
X178985714Y-67171428D01*
X178900000Y-67171428D01*
X178814285Y-67200000D01*
X178757142Y-67257142D01*
X178728571Y-67314285D01*
X178700000Y-67428571D01*
X178700000Y-67514285D01*
X178728571Y-67628571D01*
X178757142Y-67685714D01*
X178814285Y-67742857D01*
X178900000Y-67771428D01*
X178957142Y-67771428D01*
X179042857Y-67742857D01*
X179071428Y-67714285D01*
X179071428Y-67514285D01*
X178957142Y-67514285D01*
X179328571Y-67771428D02*
X179328571Y-67171428D01*
X179671428Y-67771428D01*
X179671428Y-67171428D01*
X179957142Y-67771428D02*
X179957142Y-67171428D01*
X180100000Y-67171428D01*
X180185714Y-67200000D01*
X180242857Y-67257142D01*
X180271428Y-67314285D01*
X180300000Y-67428571D01*
X180300000Y-67514285D01*
X180271428Y-67628571D01*
X180242857Y-67685714D01*
X180185714Y-67742857D01*
X180100000Y-67771428D01*
X179957142Y-67771428D01*
X175742857Y-67542857D02*
X176200000Y-67542857D01*
X175971428Y-67771428D02*
X175971428Y-67314285D01*
X176800000Y-67771428D02*
X176457142Y-67771428D01*
X176628571Y-67771428D02*
X176628571Y-67171428D01*
X176571428Y-67257142D01*
X176514285Y-67314285D01*
X176457142Y-67342857D01*
X177028571Y-67228571D02*
X177057142Y-67200000D01*
X177114285Y-67171428D01*
X177257142Y-67171428D01*
X177314285Y-67200000D01*
X177342857Y-67228571D01*
X177371428Y-67285714D01*
X177371428Y-67342857D01*
X177342857Y-67428571D01*
X177000000Y-67771428D01*
X177371428Y-67771428D01*
X177542857Y-67171428D02*
X177742857Y-67771428D01*
X177942857Y-67171428D01*
D14*
G04 #@! TO.C,J1*
X173230000Y-97730000D02*
X174500000Y-97730000D01*
X173230000Y-99000000D02*
X173230000Y-97730000D01*
X175542929Y-109540000D02*
X175997071Y-109540000D01*
X175542929Y-108780000D02*
X175997071Y-108780000D01*
X178082929Y-109540000D02*
X178480000Y-109540000D01*
X178082929Y-108780000D02*
X178480000Y-108780000D01*
X187140000Y-109540000D02*
X181140000Y-109540000D01*
X187140000Y-108780000D02*
X187140000Y-109540000D01*
X181140000Y-108780000D02*
X187140000Y-108780000D01*
X178480000Y-107890000D02*
X181140000Y-107890000D01*
X175542929Y-107000000D02*
X175997071Y-107000000D01*
X175542929Y-106240000D02*
X175997071Y-106240000D01*
X178082929Y-107000000D02*
X178480000Y-107000000D01*
X178082929Y-106240000D02*
X178480000Y-106240000D01*
X187140000Y-107000000D02*
X181140000Y-107000000D01*
X187140000Y-106240000D02*
X187140000Y-107000000D01*
X181140000Y-106240000D02*
X187140000Y-106240000D01*
X178480000Y-105350000D02*
X181140000Y-105350000D01*
X175542929Y-104460000D02*
X175997071Y-104460000D01*
X175542929Y-103700000D02*
X175997071Y-103700000D01*
X178082929Y-104460000D02*
X178480000Y-104460000D01*
X178082929Y-103700000D02*
X178480000Y-103700000D01*
X187140000Y-104460000D02*
X181140000Y-104460000D01*
X187140000Y-103700000D02*
X187140000Y-104460000D01*
X181140000Y-103700000D02*
X187140000Y-103700000D01*
X178480000Y-102810000D02*
X181140000Y-102810000D01*
X175542929Y-101920000D02*
X175997071Y-101920000D01*
X175542929Y-101160000D02*
X175997071Y-101160000D01*
X178082929Y-101920000D02*
X178480000Y-101920000D01*
X178082929Y-101160000D02*
X178480000Y-101160000D01*
X187140000Y-101920000D02*
X181140000Y-101920000D01*
X187140000Y-101160000D02*
X187140000Y-101920000D01*
X181140000Y-101160000D02*
X187140000Y-101160000D01*
X178480000Y-100270000D02*
X181140000Y-100270000D01*
X175610000Y-99380000D02*
X175997071Y-99380000D01*
X175610000Y-98620000D02*
X175997071Y-98620000D01*
X178082929Y-99380000D02*
X178480000Y-99380000D01*
X178082929Y-98620000D02*
X178480000Y-98620000D01*
X181140000Y-99280000D02*
X187140000Y-99280000D01*
X181140000Y-99160000D02*
X187140000Y-99160000D01*
X181140000Y-99040000D02*
X187140000Y-99040000D01*
X181140000Y-98920000D02*
X187140000Y-98920000D01*
X181140000Y-98800000D02*
X187140000Y-98800000D01*
X181140000Y-98680000D02*
X187140000Y-98680000D01*
X187140000Y-99380000D02*
X181140000Y-99380000D01*
X187140000Y-98620000D02*
X187140000Y-99380000D01*
X181140000Y-98620000D02*
X187140000Y-98620000D01*
X181140000Y-97670000D02*
X178480000Y-97670000D01*
X181140000Y-110490000D02*
X181140000Y-97670000D01*
X178480000Y-110490000D02*
X181140000Y-110490000D01*
X178480000Y-97670000D02*
X178480000Y-110490000D01*
G04 #@! TO.C,J11*
X181010000Y-115270000D02*
X180660000Y-115780000D01*
X180810000Y-112760000D02*
X180810000Y-112500000D01*
X181010000Y-112960000D02*
X180810000Y-112760000D01*
X181010001Y-122360000D02*
X180810000Y-122149999D01*
X180660000Y-122150000D02*
X180810000Y-122149999D01*
X180660000Y-122150000D02*
X180660000Y-115780000D01*
X176050000Y-125250000D02*
X177850000Y-125250000D01*
X170050000Y-125250000D02*
X174750000Y-125250000D01*
X181010000Y-124220000D02*
X180810000Y-124420000D01*
X181010000Y-124220000D02*
X181010001Y-122360000D01*
X181010000Y-112960000D02*
X181010000Y-115270000D01*
X164740000Y-125250000D02*
X168350000Y-125250000D01*
X164740000Y-124800000D02*
X164740000Y-125250000D01*
X164740000Y-111279999D02*
X178750000Y-111280000D01*
X164740000Y-113200000D02*
X164740000Y-111279999D01*
G04 #@! TO.C,J4*
X179650000Y-64230000D02*
X179350000Y-64230000D01*
X179650000Y-64700000D02*
X179650000Y-64230000D01*
X179350000Y-64700000D02*
X179650000Y-64700000D01*
X179350000Y-64230000D02*
X179350000Y-64700000D01*
X177150000Y-64230000D02*
X176850000Y-64230000D01*
X177150000Y-64700000D02*
X177150000Y-64230000D01*
X176850000Y-64700000D02*
X177150000Y-64700000D01*
X176850000Y-64230000D02*
X176850000Y-64700000D01*
X181370000Y-55470000D02*
X175130000Y-55470000D01*
X181370000Y-64230000D02*
X181370000Y-55470000D01*
X175130000Y-64230000D02*
X181370000Y-64230000D01*
X175130000Y-55470000D02*
X175130000Y-64230000D01*
G04 #@! TO.C,SW2*
X97970000Y-71590000D02*
X98200000Y-71590000D01*
X94300000Y-72110000D02*
X94300000Y-64390000D01*
X94300000Y-64390000D02*
X98200000Y-64390000D01*
X101310000Y-72110000D02*
X101310000Y-71590000D01*
X94300000Y-72110000D02*
X98200000Y-72110000D01*
X97970000Y-64910000D02*
X98200000Y-64910000D01*
X100800000Y-71590000D02*
X101310000Y-71590000D01*
X100800000Y-72110000D02*
X101310000Y-72110000D01*
X97970000Y-65450000D02*
X97970000Y-64910000D01*
X100800000Y-64910000D02*
X101310000Y-64910000D01*
X101310000Y-64910000D02*
X101310000Y-64390000D01*
X100800000Y-64390000D02*
X101310000Y-64390000D01*
X97970000Y-71590000D02*
X97970000Y-71050000D01*
X97970000Y-69950000D02*
X97970000Y-66550000D01*
G04 #@! TO.C,R35*
X162290000Y-127541422D02*
X162290000Y-128058578D01*
X163710000Y-127541422D02*
X163710000Y-128058578D01*
G04 #@! TO.C,R34*
X149790000Y-127541422D02*
X149790000Y-128058578D01*
X151210000Y-127541422D02*
X151210000Y-128058578D01*
D15*
G04 #@! TO.C,D8*
X98960000Y-75000000D02*
G75*
G03X98960000Y-75000000I-50000J0D01*
G01*
D13*
G04 #@! TO.C,U9*
X164250000Y-101050000D02*
X170225000Y-101050000D01*
X165775000Y-107950000D02*
X170225000Y-107950000D01*
D14*
G04 #@! TO.C,J8*
X156150000Y-82950000D02*
X159125000Y-82950000D01*
X156150000Y-82100000D02*
X156150000Y-82950000D01*
X155950000Y-82100000D02*
X156150000Y-82100000D01*
X155950000Y-81300000D02*
X155950000Y-82100000D01*
X156150000Y-81300000D02*
X155950000Y-81300000D01*
X156150000Y-80550000D02*
X156150000Y-81300000D01*
X159125000Y-80550000D02*
X156150000Y-80550000D01*
X162100000Y-82950000D02*
X159125000Y-82950000D01*
X162100000Y-82100000D02*
X162100000Y-82950000D01*
X162300000Y-82100000D02*
X162100000Y-82100000D01*
X162300000Y-81300000D02*
X162300000Y-82100000D01*
X162100000Y-81300000D02*
X162300000Y-81300000D01*
X162100000Y-80550000D02*
X162100000Y-81300000D01*
X159125000Y-80550000D02*
X162100000Y-80550000D01*
D15*
G04 #@! TO.C,D7*
X158960000Y-84400000D02*
G75*
G03X158960000Y-84400000I-50000J0D01*
G01*
D14*
G04 #@! TO.C,Q4*
X159660000Y-77480000D02*
X159660000Y-76070000D01*
X157340000Y-76070000D02*
X157340000Y-78100000D01*
X157340000Y-76070000D02*
X158000000Y-76070000D01*
X159000000Y-76070000D02*
X159660000Y-76070000D01*
G04 #@! TO.C,SW3*
X94500000Y-73850000D02*
X94800000Y-73850000D01*
X94500000Y-77150000D02*
X94500000Y-73850000D01*
X94800000Y-77150000D02*
X94500000Y-77150000D01*
X97300000Y-73850000D02*
X97000000Y-73850000D01*
X97000000Y-77150000D02*
X97300000Y-77150000D01*
X97300000Y-77150000D02*
X97300000Y-73850000D01*
X94180000Y-74500000D02*
X94500000Y-74500000D01*
X93800000Y-75000000D02*
X94180000Y-74500000D01*
X93800000Y-76000000D02*
X93800000Y-75000000D01*
X94180000Y-76500000D02*
X94500000Y-76500000D01*
X93800000Y-76000000D02*
X94180000Y-76500000D01*
G04 #@! TO.C,SW1*
X181500000Y-73350000D02*
X181200000Y-73350000D01*
X181500000Y-70050000D02*
X181500000Y-73350000D01*
X181200000Y-70050000D02*
X181500000Y-70050000D01*
X178700000Y-73350000D02*
X179000000Y-73350000D01*
X179000000Y-70050000D02*
X178700000Y-70050000D01*
X178700000Y-70050000D02*
X178700000Y-73350000D01*
X181820000Y-72700000D02*
X181500000Y-72700000D01*
X182200000Y-72200000D02*
X181820000Y-72700000D01*
X182200000Y-71200000D02*
X182200000Y-72200000D01*
X181820000Y-70700000D02*
X181500000Y-70700000D01*
X182200000Y-71200000D02*
X181820000Y-70700000D01*
G04 #@! TO.C,C55*
X152790000Y-70241422D02*
X152790000Y-70758578D01*
X154210000Y-70241422D02*
X154210000Y-70758578D01*
G04 #@! TO.C,C92*
X164662779Y-77990000D02*
X164337221Y-77990000D01*
X164662779Y-79010000D02*
X164337221Y-79010000D01*
G04 #@! TO.C,C91*
X164662779Y-79490000D02*
X164337221Y-79490000D01*
X164662779Y-80510000D02*
X164337221Y-80510000D01*
G04 #@! TO.C,C93*
X171337221Y-79010000D02*
X171662779Y-79010000D01*
X171337221Y-77990000D02*
X171662779Y-77990000D01*
G04 #@! TO.C,C101*
X132010000Y-115162779D02*
X132010000Y-114837221D01*
X130990000Y-115162779D02*
X130990000Y-114837221D01*
G04 #@! TO.C,C104*
X135657000Y-110339779D02*
X135657000Y-110014221D01*
X134637000Y-110339779D02*
X134637000Y-110014221D01*
G04 #@! TO.C,C103*
X134157000Y-110339779D02*
X134157000Y-110014221D01*
X133137000Y-110339779D02*
X133137000Y-110014221D01*
G04 #@! TO.C,C97*
X172337221Y-84010000D02*
X172662779Y-84010000D01*
X172337221Y-82990000D02*
X172662779Y-82990000D01*
G04 #@! TO.C,C96*
X172337221Y-82510000D02*
X172662779Y-82510000D01*
X172337221Y-81490000D02*
X172662779Y-81490000D01*
G04 #@! TO.C,C98*
X164662779Y-82990000D02*
X164337221Y-82990000D01*
X164662779Y-84010000D02*
X164337221Y-84010000D01*
G04 #@! TO.C,C99*
X164662779Y-81490000D02*
X164337221Y-81490000D01*
X164662779Y-82510000D02*
X164337221Y-82510000D01*
G04 #@! TO.C,C49*
X150990000Y-124337221D02*
X150990000Y-124662779D01*
X152010000Y-124337221D02*
X152010000Y-124662779D01*
G04 #@! TO.C,C9*
X139990000Y-124337221D02*
X139990000Y-124662779D01*
X141010000Y-124337221D02*
X141010000Y-124662779D01*
G04 #@! TO.C,C24*
X163010000Y-110662779D02*
X163010000Y-110337221D01*
X161990000Y-110662779D02*
X161990000Y-110337221D01*
D13*
G04 #@! TO.C,U2*
X170875000Y-75425000D02*
X165250000Y-75425000D01*
X169750000Y-69875000D02*
X165250000Y-69875000D01*
D14*
G04 #@! TO.C,R36*
X174710000Y-72358578D02*
X174710000Y-71841422D01*
X173290000Y-72358578D02*
X173290000Y-71841422D01*
G04 #@! TO.C,C53*
X171290000Y-75241422D02*
X171290000Y-75758578D01*
X172710000Y-75241422D02*
X172710000Y-75758578D01*
G04 #@! TO.C,C14*
X149500000Y-135910000D02*
X150500000Y-135910000D01*
X149500000Y-134090000D02*
X150500000Y-134090000D01*
G04 #@! TO.C,U6*
X124400000Y-119390000D02*
X121950000Y-119390000D01*
X122600000Y-122610000D02*
X124400000Y-122610000D01*
G04 #@! TO.C,R6*
X128180000Y-120200000D02*
X128180000Y-121200000D01*
X126820000Y-121200000D02*
X126820000Y-120200000D01*
G04 #@! TO.C,Q3*
X129574524Y-119662500D02*
X131034524Y-119662500D01*
X129574524Y-122822500D02*
X131734524Y-122822500D01*
X129574524Y-122822500D02*
X129574524Y-121892500D01*
X129574524Y-119662500D02*
X129574524Y-120592500D01*
G04 #@! TO.C,J5*
X103270000Y-124770000D02*
X102000000Y-124770000D01*
X103270000Y-123500000D02*
X103270000Y-124770000D01*
X100957071Y-100260000D02*
X100502929Y-100260000D01*
X100957071Y-101020000D02*
X100502929Y-101020000D01*
X98417071Y-100260000D02*
X98020000Y-100260000D01*
X98417071Y-101020000D02*
X98020000Y-101020000D01*
X89360000Y-100260000D02*
X95360000Y-100260000D01*
X89360000Y-101020000D02*
X89360000Y-100260000D01*
X95360000Y-101020000D02*
X89360000Y-101020000D01*
X98020000Y-101910000D02*
X95360000Y-101910000D01*
X100957071Y-102800000D02*
X100502929Y-102800000D01*
X100957071Y-103560000D02*
X100502929Y-103560000D01*
X98417071Y-102800000D02*
X98020000Y-102800000D01*
X98417071Y-103560000D02*
X98020000Y-103560000D01*
X89360000Y-102800000D02*
X95360000Y-102800000D01*
X89360000Y-103560000D02*
X89360000Y-102800000D01*
X95360000Y-103560000D02*
X89360000Y-103560000D01*
X98020000Y-104450000D02*
X95360000Y-104450000D01*
X100957071Y-105340000D02*
X100502929Y-105340000D01*
X100957071Y-106100000D02*
X100502929Y-106100000D01*
X98417071Y-105340000D02*
X98020000Y-105340000D01*
X98417071Y-106100000D02*
X98020000Y-106100000D01*
X89360000Y-105340000D02*
X95360000Y-105340000D01*
X89360000Y-106100000D02*
X89360000Y-105340000D01*
X95360000Y-106100000D02*
X89360000Y-106100000D01*
X98020000Y-106990000D02*
X95360000Y-106990000D01*
X100957071Y-107880000D02*
X100502929Y-107880000D01*
X100957071Y-108640000D02*
X100502929Y-108640000D01*
X98417071Y-107880000D02*
X98020000Y-107880000D01*
X98417071Y-108640000D02*
X98020000Y-108640000D01*
X89360000Y-107880000D02*
X95360000Y-107880000D01*
X89360000Y-108640000D02*
X89360000Y-107880000D01*
X95360000Y-108640000D02*
X89360000Y-108640000D01*
X98020000Y-109530000D02*
X95360000Y-109530000D01*
X100957071Y-110420000D02*
X100502929Y-110420000D01*
X100957071Y-111180000D02*
X100502929Y-111180000D01*
X98417071Y-110420000D02*
X98020000Y-110420000D01*
X98417071Y-111180000D02*
X98020000Y-111180000D01*
X89360000Y-110420000D02*
X95360000Y-110420000D01*
X89360000Y-111180000D02*
X89360000Y-110420000D01*
X95360000Y-111180000D02*
X89360000Y-111180000D01*
X98020000Y-112070000D02*
X95360000Y-112070000D01*
X100957071Y-112960000D02*
X100502929Y-112960000D01*
X100957071Y-113720000D02*
X100502929Y-113720000D01*
X98417071Y-112960000D02*
X98020000Y-112960000D01*
X98417071Y-113720000D02*
X98020000Y-113720000D01*
X89360000Y-112960000D02*
X95360000Y-112960000D01*
X89360000Y-113720000D02*
X89360000Y-112960000D01*
X95360000Y-113720000D02*
X89360000Y-113720000D01*
X98020000Y-114610000D02*
X95360000Y-114610000D01*
X100957071Y-115500000D02*
X100502929Y-115500000D01*
X100957071Y-116260000D02*
X100502929Y-116260000D01*
X98417071Y-115500000D02*
X98020000Y-115500000D01*
X98417071Y-116260000D02*
X98020000Y-116260000D01*
X89360000Y-115500000D02*
X95360000Y-115500000D01*
X89360000Y-116260000D02*
X89360000Y-115500000D01*
X95360000Y-116260000D02*
X89360000Y-116260000D01*
X98020000Y-117150000D02*
X95360000Y-117150000D01*
X100957071Y-118040000D02*
X100502929Y-118040000D01*
X100957071Y-118800000D02*
X100502929Y-118800000D01*
X98417071Y-118040000D02*
X98020000Y-118040000D01*
X98417071Y-118800000D02*
X98020000Y-118800000D01*
X89360000Y-118040000D02*
X95360000Y-118040000D01*
X89360000Y-118800000D02*
X89360000Y-118040000D01*
X95360000Y-118800000D02*
X89360000Y-118800000D01*
X98020000Y-119690000D02*
X95360000Y-119690000D01*
X100957071Y-120580000D02*
X100502929Y-120580000D01*
X100957071Y-121340000D02*
X100502929Y-121340000D01*
X98417071Y-120580000D02*
X98020000Y-120580000D01*
X98417071Y-121340000D02*
X98020000Y-121340000D01*
X89360000Y-120580000D02*
X95360000Y-120580000D01*
X89360000Y-121340000D02*
X89360000Y-120580000D01*
X95360000Y-121340000D02*
X89360000Y-121340000D01*
X98020000Y-122230000D02*
X95360000Y-122230000D01*
X100890000Y-123120000D02*
X100502929Y-123120000D01*
X100890000Y-123880000D02*
X100502929Y-123880000D01*
X98417071Y-123120000D02*
X98020000Y-123120000D01*
X98417071Y-123880000D02*
X98020000Y-123880000D01*
X95360000Y-123220000D02*
X89360000Y-123220000D01*
X95360000Y-123340000D02*
X89360000Y-123340000D01*
X95360000Y-123460000D02*
X89360000Y-123460000D01*
X95360000Y-123580000D02*
X89360000Y-123580000D01*
X95360000Y-123700000D02*
X89360000Y-123700000D01*
X95360000Y-123820000D02*
X89360000Y-123820000D01*
X89360000Y-123120000D02*
X95360000Y-123120000D01*
X89360000Y-123880000D02*
X89360000Y-123120000D01*
X95360000Y-123880000D02*
X89360000Y-123880000D01*
X95360000Y-124830000D02*
X98020000Y-124830000D01*
X95360000Y-99310000D02*
X95360000Y-124830000D01*
X98020000Y-99310000D02*
X95360000Y-99310000D01*
X98020000Y-124830000D02*
X98020000Y-99310000D01*
D13*
G04 #@! TO.C,U4*
X107832212Y-111241015D02*
X107832212Y-111216015D01*
X107832212Y-103191015D02*
X107832212Y-103216015D01*
X112482212Y-103191015D02*
X112482212Y-103216015D01*
X113557212Y-111291015D02*
X107832212Y-111291015D01*
X112482212Y-103191015D02*
X107832212Y-103191015D01*
G04 #@! TO.C,U5*
X112482212Y-112191015D02*
X107832212Y-112191015D01*
X113557212Y-120291015D02*
X107832212Y-120291015D01*
X112482212Y-112191015D02*
X112482212Y-112216015D01*
X107832212Y-112191015D02*
X107832212Y-112216015D01*
X107832212Y-120241015D02*
X107832212Y-120216015D01*
D14*
G04 #@! TO.C,C16*
X162000000Y-134090000D02*
X163000000Y-134090000D01*
X162000000Y-135910000D02*
X163000000Y-135910000D01*
G04 #@! TO.C,C94*
X181161000Y-75509000D02*
X178811000Y-75509000D01*
X174341000Y-75509000D02*
X176691000Y-75509000D01*
X174341000Y-81264563D02*
X174341000Y-75509000D01*
X181161000Y-81264563D02*
X181161000Y-75509000D01*
X180096563Y-82329000D02*
X178811000Y-82329000D01*
X175405437Y-82329000D02*
X176691000Y-82329000D01*
X175405437Y-82329000D02*
X174341000Y-81264563D01*
X180096563Y-82329000D02*
X181161000Y-81264563D01*
X175903500Y-83356500D02*
X175903500Y-82569000D01*
X175509750Y-82962750D02*
X176297250Y-82962750D01*
D13*
G04 #@! TO.C,C1*
X103400000Y-81000000D02*
X102400000Y-81000000D01*
X102900000Y-80500000D02*
X102900000Y-81500000D01*
X95500000Y-80500000D02*
X95500000Y-81500000D01*
X102000000Y-84000000D02*
X102000000Y-78500000D01*
X102000000Y-78500000D02*
X96500000Y-78500000D01*
X102000000Y-84000000D02*
X96500000Y-84000000D01*
X96500000Y-84000000D02*
X96500000Y-83500000D01*
D14*
G04 #@! TO.C,J3*
X168749000Y-54780000D02*
X160749000Y-54780000D01*
X168749000Y-62100000D02*
X160749000Y-62100000D01*
X160749000Y-62100000D02*
X160749000Y-54780000D01*
X160749000Y-55400000D02*
X168749000Y-55400000D01*
X168749000Y-54780000D02*
X168749000Y-62100000D01*
G04 #@! TO.C,C50*
X153850000Y-120590000D02*
X155150000Y-120590000D01*
X153850000Y-122410000D02*
X155150000Y-122410000D01*
G04 #@! TO.C,C10*
X143350000Y-122410000D02*
X144650000Y-122410000D01*
X143350000Y-120590000D02*
X144650000Y-120590000D01*
D13*
G04 #@! TO.C,J7*
X136315720Y-55500000D02*
X136315720Y-62500000D01*
X122315720Y-55500000D02*
X122315720Y-62500000D01*
X122315720Y-55500000D02*
X136315720Y-55500000D01*
G04 #@! TO.C,U18*
X119110118Y-71080000D02*
X119110118Y-76795000D01*
X102600118Y-76795000D02*
X119110118Y-76795000D01*
X102600118Y-71080000D02*
X102600118Y-76795000D01*
X102600118Y-67270000D02*
X102600118Y-67270000D01*
X102600118Y-55205000D02*
X102600118Y-67270000D01*
X119110118Y-67270000D02*
X119110118Y-67270000D01*
X119110118Y-55205000D02*
X119110118Y-67270000D01*
X102600118Y-55205000D02*
X119110118Y-55205000D01*
D14*
G04 #@! TO.C,U10*
X142600000Y-126110000D02*
X144400000Y-126110000D01*
X144400000Y-122890000D02*
X141950000Y-122890000D01*
G04 #@! TO.C,FB1*
X139500000Y-120820000D02*
X140500000Y-120820000D01*
X140500000Y-122180000D02*
X139500000Y-122180000D01*
G04 #@! TO.C,R56*
X128000000Y-113820000D02*
X129000000Y-113820000D01*
X129000000Y-115180000D02*
X128000000Y-115180000D01*
G04 #@! TO.C,R55*
X139000000Y-126320000D02*
X140000000Y-126320000D01*
X140000000Y-127680000D02*
X139000000Y-127680000D01*
G04 #@! TO.C,Q11*
X127740000Y-115420000D02*
X127740000Y-116350000D01*
X127740000Y-118580000D02*
X127740000Y-117650000D01*
X127740000Y-118580000D02*
X129900000Y-118580000D01*
X127740000Y-115420000D02*
X129200000Y-115420000D01*
G04 #@! TO.C,Q10*
X137260000Y-128580000D02*
X137260000Y-127650000D01*
X137260000Y-125420000D02*
X137260000Y-126350000D01*
X137260000Y-125420000D02*
X135100000Y-125420000D01*
X137260000Y-128580000D02*
X135800000Y-128580000D01*
G04 #@! TO.C,Q6*
X135580000Y-114240000D02*
X134650000Y-114240000D01*
X132420000Y-114240000D02*
X133350000Y-114240000D01*
X132420000Y-114240000D02*
X132420000Y-116400000D01*
X135580000Y-114240000D02*
X135580000Y-115700000D01*
G04 #@! TO.C,D10*
X132420000Y-119360000D02*
X133350000Y-119360000D01*
X135580000Y-119360000D02*
X134650000Y-119360000D01*
X135580000Y-119360000D02*
X135580000Y-117200000D01*
X132420000Y-119360000D02*
X132420000Y-117900000D01*
G04 #@! TO.C,Q7*
X136770000Y-115500000D02*
X136770000Y-114840000D01*
X136770000Y-117160000D02*
X136770000Y-116500000D01*
X136770000Y-117160000D02*
X138800000Y-117160000D01*
X138180000Y-114840000D02*
X136770000Y-114840000D01*
G04 #@! TO.C,D11*
X141660000Y-117180000D02*
X141660000Y-115770000D01*
X139340000Y-115770000D02*
X139340000Y-117800000D01*
X139340000Y-115770000D02*
X140000000Y-115770000D01*
X141000000Y-115770000D02*
X141660000Y-115770000D01*
G04 #@! TO.C,Q8*
X142700000Y-118730000D02*
X142040000Y-118730000D01*
X144360000Y-118730000D02*
X143700000Y-118730000D01*
X144360000Y-118730000D02*
X144360000Y-116700000D01*
X142040000Y-117320000D02*
X142040000Y-118730000D01*
G04 #@! TO.C,FB20*
X167820000Y-81500000D02*
X167820000Y-80500000D01*
X169180000Y-80500000D02*
X169180000Y-81500000D01*
G04 #@! TO.C,FB21*
X170680000Y-80500000D02*
X170680000Y-81500000D01*
X169320000Y-81500000D02*
X169320000Y-80500000D01*
G04 #@! TO.C,FB19*
X167680000Y-80500000D02*
X167680000Y-81500000D01*
X166320000Y-81500000D02*
X166320000Y-80500000D01*
D13*
G04 #@! TO.C,D5*
X164630000Y-63525000D02*
X165630000Y-63525000D01*
X165630000Y-63325000D02*
X165630000Y-63525000D01*
X164630000Y-63325000D02*
X165630000Y-63325000D01*
X164630000Y-63525000D02*
X164630000Y-63325000D01*
G04 #@! TO.C,D6*
X162490000Y-63540000D02*
X163490000Y-63540000D01*
X163490000Y-63340000D02*
X163490000Y-63540000D01*
X162490000Y-63340000D02*
X163490000Y-63340000D01*
X162490000Y-63540000D02*
X162490000Y-63340000D01*
D14*
G04 #@! TO.C,FB12*
X150000000Y-120820000D02*
X151000000Y-120820000D01*
X151000000Y-122180000D02*
X150000000Y-122180000D01*
G04 #@! TO.C,U11*
X153600000Y-126110000D02*
X155400000Y-126110000D01*
X155400000Y-122890000D02*
X152950000Y-122890000D01*
G04 #@! TO.C,Q2*
X153760000Y-112080000D02*
X153760000Y-111150000D01*
X153760000Y-108920000D02*
X153760000Y-109850000D01*
X153760000Y-108920000D02*
X151600000Y-108920000D01*
X153760000Y-112080000D02*
X152300000Y-112080000D01*
G04 #@! TO.C,U7*
X160400000Y-108890000D02*
X158600000Y-108890000D01*
X158600000Y-112110000D02*
X161050000Y-112110000D01*
D13*
G04 #@! TO.C,U8*
X143375000Y-68575000D02*
X143375000Y-69100000D01*
X148625000Y-68575000D02*
X148625000Y-69100000D01*
X148625000Y-73825000D02*
X148625000Y-73300000D01*
X143375000Y-73825000D02*
X143375000Y-73300000D01*
X148625000Y-68575000D02*
X148100000Y-68575000D01*
X148625000Y-73825000D02*
X148100000Y-73825000D01*
X143375000Y-68575000D02*
X143900000Y-68575000D01*
D14*
G04 #@! TO.C,Q1*
X154720000Y-73860000D02*
X154720000Y-72400000D01*
X157880000Y-73860000D02*
X157880000Y-71700000D01*
X157880000Y-73860000D02*
X156950000Y-73860000D01*
X154720000Y-73860000D02*
X155650000Y-73860000D01*
G04 #@! TO.C,J1*
D13*
X179955000Y-96401428D02*
X179955000Y-96830000D01*
X179926428Y-96915714D01*
X179869285Y-96972857D01*
X179783571Y-97001428D01*
X179726428Y-97001428D01*
X180555000Y-97001428D02*
X180212142Y-97001428D01*
X180383571Y-97001428D02*
X180383571Y-96401428D01*
X180326428Y-96487142D01*
X180269285Y-96544285D01*
X180212142Y-96572857D01*
G04 #@! TO.C,J11*
X166114285Y-126071428D02*
X166114285Y-126500000D01*
X166085714Y-126585714D01*
X166028571Y-126642857D01*
X165942857Y-126671428D01*
X165885714Y-126671428D01*
X166714285Y-126671428D02*
X166371428Y-126671428D01*
X166542857Y-126671428D02*
X166542857Y-126071428D01*
X166485714Y-126157142D01*
X166428571Y-126214285D01*
X166371428Y-126242857D01*
X167285714Y-126671428D02*
X166942857Y-126671428D01*
X167114285Y-126671428D02*
X167114285Y-126071428D01*
X167057142Y-126157142D01*
X167000000Y-126214285D01*
X166942857Y-126242857D01*
G04 #@! TO.C,J4*
X173900000Y-63071428D02*
X173900000Y-63500000D01*
X173871428Y-63585714D01*
X173814285Y-63642857D01*
X173728571Y-63671428D01*
X173671428Y-63671428D01*
X174442857Y-63271428D02*
X174442857Y-63671428D01*
X174300000Y-63042857D02*
X174157142Y-63471428D01*
X174528571Y-63471428D01*
G04 #@! TO.C,SW2*
X96109000Y-63733377D02*
X96194714Y-63761948D01*
X96337571Y-63761948D01*
X96394714Y-63733377D01*
X96423285Y-63704805D01*
X96451857Y-63647662D01*
X96451857Y-63590520D01*
X96423285Y-63533377D01*
X96394714Y-63504805D01*
X96337571Y-63476234D01*
X96223285Y-63447662D01*
X96166142Y-63419091D01*
X96137571Y-63390520D01*
X96109000Y-63333377D01*
X96109000Y-63276234D01*
X96137571Y-63219091D01*
X96166142Y-63190520D01*
X96223285Y-63161948D01*
X96366142Y-63161948D01*
X96451857Y-63190520D01*
X96651857Y-63161948D02*
X96794714Y-63761948D01*
X96909000Y-63333377D01*
X97023285Y-63761948D01*
X97166142Y-63161948D01*
X97366142Y-63219091D02*
X97394714Y-63190520D01*
X97451857Y-63161948D01*
X97594714Y-63161948D01*
X97651857Y-63190520D01*
X97680428Y-63219091D01*
X97709000Y-63276234D01*
X97709000Y-63333377D01*
X97680428Y-63419091D01*
X97337571Y-63761948D01*
X97709000Y-63761948D01*
G04 #@! TO.C,J6*
X139800000Y-64871428D02*
X139800000Y-65300000D01*
X139771428Y-65385714D01*
X139714285Y-65442857D01*
X139628571Y-65471428D01*
X139571428Y-65471428D01*
X140342857Y-64871428D02*
X140228571Y-64871428D01*
X140171428Y-64900000D01*
X140142857Y-64928571D01*
X140085714Y-65014285D01*
X140057142Y-65128571D01*
X140057142Y-65357142D01*
X140085714Y-65414285D01*
X140114285Y-65442857D01*
X140171428Y-65471428D01*
X140285714Y-65471428D01*
X140342857Y-65442857D01*
X140371428Y-65414285D01*
X140400000Y-65357142D01*
X140400000Y-65214285D01*
X140371428Y-65157142D01*
X140342857Y-65128571D01*
X140285714Y-65100000D01*
X140171428Y-65100000D01*
X140114285Y-65128571D01*
X140085714Y-65157142D01*
X140057142Y-65214285D01*
G04 #@! TO.C,J2*
X118790864Y-133159158D02*
X118790864Y-133587730D01*
X118762292Y-133673444D01*
X118705149Y-133730587D01*
X118619435Y-133759158D01*
X118562292Y-133759158D01*
X119048006Y-133216301D02*
X119076578Y-133187730D01*
X119133721Y-133159158D01*
X119276578Y-133159158D01*
X119333721Y-133187730D01*
X119362292Y-133216301D01*
X119390864Y-133273444D01*
X119390864Y-133330587D01*
X119362292Y-133416301D01*
X119019435Y-133759158D01*
X119390864Y-133759158D01*
G04 #@! TO.C,U3*
X137542857Y-98741428D02*
X137542857Y-99227142D01*
X137571428Y-99284285D01*
X137600000Y-99312857D01*
X137657142Y-99341428D01*
X137771428Y-99341428D01*
X137828571Y-99312857D01*
X137857142Y-99284285D01*
X137885714Y-99227142D01*
X137885714Y-98741428D01*
X138114285Y-98741428D02*
X138485714Y-98741428D01*
X138285714Y-98970000D01*
X138371428Y-98970000D01*
X138428571Y-98998571D01*
X138457142Y-99027142D01*
X138485714Y-99084285D01*
X138485714Y-99227142D01*
X138457142Y-99284285D01*
X138428571Y-99312857D01*
X138371428Y-99341428D01*
X138200000Y-99341428D01*
X138142857Y-99312857D01*
X138114285Y-99284285D01*
G04 #@! TO.C,R35*
X164921428Y-128185714D02*
X164635714Y-128385714D01*
X164921428Y-128528571D02*
X164321428Y-128528571D01*
X164321428Y-128300000D01*
X164350000Y-128242857D01*
X164378571Y-128214285D01*
X164435714Y-128185714D01*
X164521428Y-128185714D01*
X164578571Y-128214285D01*
X164607142Y-128242857D01*
X164635714Y-128300000D01*
X164635714Y-128528571D01*
X164321428Y-127985714D02*
X164321428Y-127614285D01*
X164550000Y-127814285D01*
X164550000Y-127728571D01*
X164578571Y-127671428D01*
X164607142Y-127642857D01*
X164664285Y-127614285D01*
X164807142Y-127614285D01*
X164864285Y-127642857D01*
X164892857Y-127671428D01*
X164921428Y-127728571D01*
X164921428Y-127900000D01*
X164892857Y-127957142D01*
X164864285Y-127985714D01*
X164321428Y-127071428D02*
X164321428Y-127357142D01*
X164607142Y-127385714D01*
X164578571Y-127357142D01*
X164550000Y-127300000D01*
X164550000Y-127157142D01*
X164578571Y-127100000D01*
X164607142Y-127071428D01*
X164664285Y-127042857D01*
X164807142Y-127042857D01*
X164864285Y-127071428D01*
X164892857Y-127100000D01*
X164921428Y-127157142D01*
X164921428Y-127300000D01*
X164892857Y-127357142D01*
X164864285Y-127385714D01*
G04 #@! TO.C,R34*
X152271428Y-128185714D02*
X151985714Y-128385714D01*
X152271428Y-128528571D02*
X151671428Y-128528571D01*
X151671428Y-128300000D01*
X151700000Y-128242857D01*
X151728571Y-128214285D01*
X151785714Y-128185714D01*
X151871428Y-128185714D01*
X151928571Y-128214285D01*
X151957142Y-128242857D01*
X151985714Y-128300000D01*
X151985714Y-128528571D01*
X151671428Y-127985714D02*
X151671428Y-127614285D01*
X151900000Y-127814285D01*
X151900000Y-127728571D01*
X151928571Y-127671428D01*
X151957142Y-127642857D01*
X152014285Y-127614285D01*
X152157142Y-127614285D01*
X152214285Y-127642857D01*
X152242857Y-127671428D01*
X152271428Y-127728571D01*
X152271428Y-127900000D01*
X152242857Y-127957142D01*
X152214285Y-127985714D01*
X151871428Y-127100000D02*
X152271428Y-127100000D01*
X151642857Y-127242857D02*
X152071428Y-127385714D01*
X152071428Y-127014285D01*
G04 #@! TO.C,R53*
X142671428Y-113485714D02*
X142385714Y-113685714D01*
X142671428Y-113828571D02*
X142071428Y-113828571D01*
X142071428Y-113600000D01*
X142100000Y-113542857D01*
X142128571Y-113514285D01*
X142185714Y-113485714D01*
X142271428Y-113485714D01*
X142328571Y-113514285D01*
X142357142Y-113542857D01*
X142385714Y-113600000D01*
X142385714Y-113828571D01*
X142071428Y-112942857D02*
X142071428Y-113228571D01*
X142357142Y-113257142D01*
X142328571Y-113228571D01*
X142300000Y-113171428D01*
X142300000Y-113028571D01*
X142328571Y-112971428D01*
X142357142Y-112942857D01*
X142414285Y-112914285D01*
X142557142Y-112914285D01*
X142614285Y-112942857D01*
X142642857Y-112971428D01*
X142671428Y-113028571D01*
X142671428Y-113171428D01*
X142642857Y-113228571D01*
X142614285Y-113257142D01*
X142071428Y-112714285D02*
X142071428Y-112342857D01*
X142300000Y-112542857D01*
X142300000Y-112457142D01*
X142328571Y-112400000D01*
X142357142Y-112371428D01*
X142414285Y-112342857D01*
X142557142Y-112342857D01*
X142614285Y-112371428D01*
X142642857Y-112400000D01*
X142671428Y-112457142D01*
X142671428Y-112628571D01*
X142642857Y-112685714D01*
X142614285Y-112714285D01*
G04 #@! TO.C,R52*
X142371428Y-119985714D02*
X142085714Y-120185714D01*
X142371428Y-120328571D02*
X141771428Y-120328571D01*
X141771428Y-120100000D01*
X141800000Y-120042857D01*
X141828571Y-120014285D01*
X141885714Y-119985714D01*
X141971428Y-119985714D01*
X142028571Y-120014285D01*
X142057142Y-120042857D01*
X142085714Y-120100000D01*
X142085714Y-120328571D01*
X141771428Y-119442857D02*
X141771428Y-119728571D01*
X142057142Y-119757142D01*
X142028571Y-119728571D01*
X142000000Y-119671428D01*
X142000000Y-119528571D01*
X142028571Y-119471428D01*
X142057142Y-119442857D01*
X142114285Y-119414285D01*
X142257142Y-119414285D01*
X142314285Y-119442857D01*
X142342857Y-119471428D01*
X142371428Y-119528571D01*
X142371428Y-119671428D01*
X142342857Y-119728571D01*
X142314285Y-119757142D01*
X141828571Y-119185714D02*
X141800000Y-119157142D01*
X141771428Y-119100000D01*
X141771428Y-118957142D01*
X141800000Y-118900000D01*
X141828571Y-118871428D01*
X141885714Y-118842857D01*
X141942857Y-118842857D01*
X142028571Y-118871428D01*
X142371428Y-119214285D01*
X142371428Y-118842857D01*
G04 #@! TO.C,R51*
X140571428Y-119885714D02*
X140285714Y-120085714D01*
X140571428Y-120228571D02*
X139971428Y-120228571D01*
X139971428Y-120000000D01*
X140000000Y-119942857D01*
X140028571Y-119914285D01*
X140085714Y-119885714D01*
X140171428Y-119885714D01*
X140228571Y-119914285D01*
X140257142Y-119942857D01*
X140285714Y-120000000D01*
X140285714Y-120228571D01*
X139971428Y-119342857D02*
X139971428Y-119628571D01*
X140257142Y-119657142D01*
X140228571Y-119628571D01*
X140200000Y-119571428D01*
X140200000Y-119428571D01*
X140228571Y-119371428D01*
X140257142Y-119342857D01*
X140314285Y-119314285D01*
X140457142Y-119314285D01*
X140514285Y-119342857D01*
X140542857Y-119371428D01*
X140571428Y-119428571D01*
X140571428Y-119571428D01*
X140542857Y-119628571D01*
X140514285Y-119657142D01*
X140571428Y-118742857D02*
X140571428Y-119085714D01*
X140571428Y-118914285D02*
X139971428Y-118914285D01*
X140057142Y-118971428D01*
X140114285Y-119028571D01*
X140142857Y-119085714D01*
G04 #@! TO.C,R50*
X132271428Y-108785714D02*
X131985714Y-108985714D01*
X132271428Y-109128571D02*
X131671428Y-109128571D01*
X131671428Y-108900000D01*
X131700000Y-108842857D01*
X131728571Y-108814285D01*
X131785714Y-108785714D01*
X131871428Y-108785714D01*
X131928571Y-108814285D01*
X131957142Y-108842857D01*
X131985714Y-108900000D01*
X131985714Y-109128571D01*
X131671428Y-108242857D02*
X131671428Y-108528571D01*
X131957142Y-108557142D01*
X131928571Y-108528571D01*
X131900000Y-108471428D01*
X131900000Y-108328571D01*
X131928571Y-108271428D01*
X131957142Y-108242857D01*
X132014285Y-108214285D01*
X132157142Y-108214285D01*
X132214285Y-108242857D01*
X132242857Y-108271428D01*
X132271428Y-108328571D01*
X132271428Y-108471428D01*
X132242857Y-108528571D01*
X132214285Y-108557142D01*
X131671428Y-107842857D02*
X131671428Y-107785714D01*
X131700000Y-107728571D01*
X131728571Y-107700000D01*
X131785714Y-107671428D01*
X131900000Y-107642857D01*
X132042857Y-107642857D01*
X132157142Y-107671428D01*
X132214285Y-107700000D01*
X132242857Y-107728571D01*
X132271428Y-107785714D01*
X132271428Y-107842857D01*
X132242857Y-107900000D01*
X132214285Y-107928571D01*
X132157142Y-107957142D01*
X132042857Y-107985714D01*
X131900000Y-107985714D01*
X131785714Y-107957142D01*
X131728571Y-107928571D01*
X131700000Y-107900000D01*
X131671428Y-107842857D01*
G04 #@! TO.C,R49*
X137771428Y-120785714D02*
X137485714Y-120985714D01*
X137771428Y-121128571D02*
X137171428Y-121128571D01*
X137171428Y-120900000D01*
X137200000Y-120842857D01*
X137228571Y-120814285D01*
X137285714Y-120785714D01*
X137371428Y-120785714D01*
X137428571Y-120814285D01*
X137457142Y-120842857D01*
X137485714Y-120900000D01*
X137485714Y-121128571D01*
X137371428Y-120271428D02*
X137771428Y-120271428D01*
X137142857Y-120414285D02*
X137571428Y-120557142D01*
X137571428Y-120185714D01*
X137771428Y-119928571D02*
X137771428Y-119814285D01*
X137742857Y-119757142D01*
X137714285Y-119728571D01*
X137628571Y-119671428D01*
X137514285Y-119642857D01*
X137285714Y-119642857D01*
X137228571Y-119671428D01*
X137200000Y-119700000D01*
X137171428Y-119757142D01*
X137171428Y-119871428D01*
X137200000Y-119928571D01*
X137228571Y-119957142D01*
X137285714Y-119985714D01*
X137428571Y-119985714D01*
X137485714Y-119957142D01*
X137514285Y-119928571D01*
X137542857Y-119871428D01*
X137542857Y-119757142D01*
X137514285Y-119700000D01*
X137485714Y-119671428D01*
X137428571Y-119642857D01*
G04 #@! TO.C,R48*
X136614285Y-113101428D02*
X136414285Y-112815714D01*
X136271428Y-113101428D02*
X136271428Y-112501428D01*
X136500000Y-112501428D01*
X136557142Y-112530000D01*
X136585714Y-112558571D01*
X136614285Y-112615714D01*
X136614285Y-112701428D01*
X136585714Y-112758571D01*
X136557142Y-112787142D01*
X136500000Y-112815714D01*
X136271428Y-112815714D01*
X137128571Y-112701428D02*
X137128571Y-113101428D01*
X136985714Y-112472857D02*
X136842857Y-112901428D01*
X137214285Y-112901428D01*
X137528571Y-112758571D02*
X137471428Y-112730000D01*
X137442857Y-112701428D01*
X137414285Y-112644285D01*
X137414285Y-112615714D01*
X137442857Y-112558571D01*
X137471428Y-112530000D01*
X137528571Y-112501428D01*
X137642857Y-112501428D01*
X137700000Y-112530000D01*
X137728571Y-112558571D01*
X137757142Y-112615714D01*
X137757142Y-112644285D01*
X137728571Y-112701428D01*
X137700000Y-112730000D01*
X137642857Y-112758571D01*
X137528571Y-112758571D01*
X137471428Y-112787142D01*
X137442857Y-112815714D01*
X137414285Y-112872857D01*
X137414285Y-112987142D01*
X137442857Y-113044285D01*
X137471428Y-113072857D01*
X137528571Y-113101428D01*
X137642857Y-113101428D01*
X137700000Y-113072857D01*
X137728571Y-113044285D01*
X137757142Y-112987142D01*
X137757142Y-112872857D01*
X137728571Y-112815714D01*
X137700000Y-112787142D01*
X137642857Y-112758571D01*
G04 #@! TO.C,R47*
X130871428Y-118385714D02*
X130585714Y-118585714D01*
X130871428Y-118728571D02*
X130271428Y-118728571D01*
X130271428Y-118500000D01*
X130300000Y-118442857D01*
X130328571Y-118414285D01*
X130385714Y-118385714D01*
X130471428Y-118385714D01*
X130528571Y-118414285D01*
X130557142Y-118442857D01*
X130585714Y-118500000D01*
X130585714Y-118728571D01*
X130471428Y-117871428D02*
X130871428Y-117871428D01*
X130242857Y-118014285D02*
X130671428Y-118157142D01*
X130671428Y-117785714D01*
X130271428Y-117614285D02*
X130271428Y-117214285D01*
X130871428Y-117471428D01*
G04 #@! TO.C,R46*
X136771428Y-121985714D02*
X136485714Y-122185714D01*
X136771428Y-122328571D02*
X136171428Y-122328571D01*
X136171428Y-122100000D01*
X136200000Y-122042857D01*
X136228571Y-122014285D01*
X136285714Y-121985714D01*
X136371428Y-121985714D01*
X136428571Y-122014285D01*
X136457142Y-122042857D01*
X136485714Y-122100000D01*
X136485714Y-122328571D01*
X136371428Y-121471428D02*
X136771428Y-121471428D01*
X136142857Y-121614285D02*
X136571428Y-121757142D01*
X136571428Y-121385714D01*
X136171428Y-120900000D02*
X136171428Y-121014285D01*
X136200000Y-121071428D01*
X136228571Y-121100000D01*
X136314285Y-121157142D01*
X136428571Y-121185714D01*
X136657142Y-121185714D01*
X136714285Y-121157142D01*
X136742857Y-121128571D01*
X136771428Y-121071428D01*
X136771428Y-120957142D01*
X136742857Y-120900000D01*
X136714285Y-120871428D01*
X136657142Y-120842857D01*
X136514285Y-120842857D01*
X136457142Y-120871428D01*
X136428571Y-120900000D01*
X136400000Y-120957142D01*
X136400000Y-121071428D01*
X136428571Y-121128571D01*
X136457142Y-121157142D01*
X136514285Y-121185714D01*
G04 #@! TO.C,R33*
X158914285Y-125771428D02*
X158714285Y-125485714D01*
X158571428Y-125771428D02*
X158571428Y-125171428D01*
X158800000Y-125171428D01*
X158857142Y-125200000D01*
X158885714Y-125228571D01*
X158914285Y-125285714D01*
X158914285Y-125371428D01*
X158885714Y-125428571D01*
X158857142Y-125457142D01*
X158800000Y-125485714D01*
X158571428Y-125485714D01*
X159114285Y-125171428D02*
X159485714Y-125171428D01*
X159285714Y-125400000D01*
X159371428Y-125400000D01*
X159428571Y-125428571D01*
X159457142Y-125457142D01*
X159485714Y-125514285D01*
X159485714Y-125657142D01*
X159457142Y-125714285D01*
X159428571Y-125742857D01*
X159371428Y-125771428D01*
X159200000Y-125771428D01*
X159142857Y-125742857D01*
X159114285Y-125714285D01*
X159685714Y-125171428D02*
X160057142Y-125171428D01*
X159857142Y-125400000D01*
X159942857Y-125400000D01*
X160000000Y-125428571D01*
X160028571Y-125457142D01*
X160057142Y-125514285D01*
X160057142Y-125657142D01*
X160028571Y-125714285D01*
X160000000Y-125742857D01*
X159942857Y-125771428D01*
X159771428Y-125771428D01*
X159714285Y-125742857D01*
X159685714Y-125714285D01*
G04 #@! TO.C,R26*
X156101428Y-110885714D02*
X155815714Y-111085714D01*
X156101428Y-111228571D02*
X155501428Y-111228571D01*
X155501428Y-111000000D01*
X155530000Y-110942857D01*
X155558571Y-110914285D01*
X155615714Y-110885714D01*
X155701428Y-110885714D01*
X155758571Y-110914285D01*
X155787142Y-110942857D01*
X155815714Y-111000000D01*
X155815714Y-111228571D01*
X155558571Y-110657142D02*
X155530000Y-110628571D01*
X155501428Y-110571428D01*
X155501428Y-110428571D01*
X155530000Y-110371428D01*
X155558571Y-110342857D01*
X155615714Y-110314285D01*
X155672857Y-110314285D01*
X155758571Y-110342857D01*
X156101428Y-110685714D01*
X156101428Y-110314285D01*
X155501428Y-109800000D02*
X155501428Y-109914285D01*
X155530000Y-109971428D01*
X155558571Y-110000000D01*
X155644285Y-110057142D01*
X155758571Y-110085714D01*
X155987142Y-110085714D01*
X156044285Y-110057142D01*
X156072857Y-110028571D01*
X156101428Y-109971428D01*
X156101428Y-109857142D01*
X156072857Y-109800000D01*
X156044285Y-109771428D01*
X155987142Y-109742857D01*
X155844285Y-109742857D01*
X155787142Y-109771428D01*
X155758571Y-109800000D01*
X155730000Y-109857142D01*
X155730000Y-109971428D01*
X155758571Y-110028571D01*
X155787142Y-110057142D01*
X155844285Y-110085714D01*
G04 #@! TO.C,R25*
X159614285Y-116871428D02*
X159414285Y-116585714D01*
X159271428Y-116871428D02*
X159271428Y-116271428D01*
X159500000Y-116271428D01*
X159557142Y-116300000D01*
X159585714Y-116328571D01*
X159614285Y-116385714D01*
X159614285Y-116471428D01*
X159585714Y-116528571D01*
X159557142Y-116557142D01*
X159500000Y-116585714D01*
X159271428Y-116585714D01*
X159842857Y-116328571D02*
X159871428Y-116300000D01*
X159928571Y-116271428D01*
X160071428Y-116271428D01*
X160128571Y-116300000D01*
X160157142Y-116328571D01*
X160185714Y-116385714D01*
X160185714Y-116442857D01*
X160157142Y-116528571D01*
X159814285Y-116871428D01*
X160185714Y-116871428D01*
X160728571Y-116271428D02*
X160442857Y-116271428D01*
X160414285Y-116557142D01*
X160442857Y-116528571D01*
X160500000Y-116500000D01*
X160642857Y-116500000D01*
X160700000Y-116528571D01*
X160728571Y-116557142D01*
X160757142Y-116614285D01*
X160757142Y-116757142D01*
X160728571Y-116814285D01*
X160700000Y-116842857D01*
X160642857Y-116871428D01*
X160500000Y-116871428D01*
X160442857Y-116842857D01*
X160414285Y-116814285D01*
G04 #@! TO.C,R24*
X159614285Y-123371428D02*
X159414285Y-123085714D01*
X159271428Y-123371428D02*
X159271428Y-122771428D01*
X159500000Y-122771428D01*
X159557142Y-122800000D01*
X159585714Y-122828571D01*
X159614285Y-122885714D01*
X159614285Y-122971428D01*
X159585714Y-123028571D01*
X159557142Y-123057142D01*
X159500000Y-123085714D01*
X159271428Y-123085714D01*
X159842857Y-122828571D02*
X159871428Y-122800000D01*
X159928571Y-122771428D01*
X160071428Y-122771428D01*
X160128571Y-122800000D01*
X160157142Y-122828571D01*
X160185714Y-122885714D01*
X160185714Y-122942857D01*
X160157142Y-123028571D01*
X159814285Y-123371428D01*
X160185714Y-123371428D01*
X160700000Y-122971428D02*
X160700000Y-123371428D01*
X160557142Y-122742857D02*
X160414285Y-123171428D01*
X160785714Y-123171428D01*
G04 #@! TO.C,R23*
X159614285Y-117971428D02*
X159414285Y-117685714D01*
X159271428Y-117971428D02*
X159271428Y-117371428D01*
X159500000Y-117371428D01*
X159557142Y-117400000D01*
X159585714Y-117428571D01*
X159614285Y-117485714D01*
X159614285Y-117571428D01*
X159585714Y-117628571D01*
X159557142Y-117657142D01*
X159500000Y-117685714D01*
X159271428Y-117685714D01*
X159842857Y-117428571D02*
X159871428Y-117400000D01*
X159928571Y-117371428D01*
X160071428Y-117371428D01*
X160128571Y-117400000D01*
X160157142Y-117428571D01*
X160185714Y-117485714D01*
X160185714Y-117542857D01*
X160157142Y-117628571D01*
X159814285Y-117971428D01*
X160185714Y-117971428D01*
X160385714Y-117371428D02*
X160757142Y-117371428D01*
X160557142Y-117600000D01*
X160642857Y-117600000D01*
X160700000Y-117628571D01*
X160728571Y-117657142D01*
X160757142Y-117714285D01*
X160757142Y-117857142D01*
X160728571Y-117914285D01*
X160700000Y-117942857D01*
X160642857Y-117971428D01*
X160471428Y-117971428D01*
X160414285Y-117942857D01*
X160385714Y-117914285D01*
G04 #@! TO.C,R22*
X159614285Y-115771428D02*
X159414285Y-115485714D01*
X159271428Y-115771428D02*
X159271428Y-115171428D01*
X159500000Y-115171428D01*
X159557142Y-115200000D01*
X159585714Y-115228571D01*
X159614285Y-115285714D01*
X159614285Y-115371428D01*
X159585714Y-115428571D01*
X159557142Y-115457142D01*
X159500000Y-115485714D01*
X159271428Y-115485714D01*
X159842857Y-115228571D02*
X159871428Y-115200000D01*
X159928571Y-115171428D01*
X160071428Y-115171428D01*
X160128571Y-115200000D01*
X160157142Y-115228571D01*
X160185714Y-115285714D01*
X160185714Y-115342857D01*
X160157142Y-115428571D01*
X159814285Y-115771428D01*
X160185714Y-115771428D01*
X160414285Y-115228571D02*
X160442857Y-115200000D01*
X160500000Y-115171428D01*
X160642857Y-115171428D01*
X160700000Y-115200000D01*
X160728571Y-115228571D01*
X160757142Y-115285714D01*
X160757142Y-115342857D01*
X160728571Y-115428571D01*
X160385714Y-115771428D01*
X160757142Y-115771428D01*
G04 #@! TO.C,R21*
X159614285Y-122371428D02*
X159414285Y-122085714D01*
X159271428Y-122371428D02*
X159271428Y-121771428D01*
X159500000Y-121771428D01*
X159557142Y-121800000D01*
X159585714Y-121828571D01*
X159614285Y-121885714D01*
X159614285Y-121971428D01*
X159585714Y-122028571D01*
X159557142Y-122057142D01*
X159500000Y-122085714D01*
X159271428Y-122085714D01*
X159842857Y-121828571D02*
X159871428Y-121800000D01*
X159928571Y-121771428D01*
X160071428Y-121771428D01*
X160128571Y-121800000D01*
X160157142Y-121828571D01*
X160185714Y-121885714D01*
X160185714Y-121942857D01*
X160157142Y-122028571D01*
X159814285Y-122371428D01*
X160185714Y-122371428D01*
X160757142Y-122371428D02*
X160414285Y-122371428D01*
X160585714Y-122371428D02*
X160585714Y-121771428D01*
X160528571Y-121857142D01*
X160471428Y-121914285D01*
X160414285Y-121942857D01*
G04 #@! TO.C,R20*
X159614285Y-120171428D02*
X159414285Y-119885714D01*
X159271428Y-120171428D02*
X159271428Y-119571428D01*
X159500000Y-119571428D01*
X159557142Y-119600000D01*
X159585714Y-119628571D01*
X159614285Y-119685714D01*
X159614285Y-119771428D01*
X159585714Y-119828571D01*
X159557142Y-119857142D01*
X159500000Y-119885714D01*
X159271428Y-119885714D01*
X159842857Y-119628571D02*
X159871428Y-119600000D01*
X159928571Y-119571428D01*
X160071428Y-119571428D01*
X160128571Y-119600000D01*
X160157142Y-119628571D01*
X160185714Y-119685714D01*
X160185714Y-119742857D01*
X160157142Y-119828571D01*
X159814285Y-120171428D01*
X160185714Y-120171428D01*
X160557142Y-119571428D02*
X160614285Y-119571428D01*
X160671428Y-119600000D01*
X160700000Y-119628571D01*
X160728571Y-119685714D01*
X160757142Y-119800000D01*
X160757142Y-119942857D01*
X160728571Y-120057142D01*
X160700000Y-120114285D01*
X160671428Y-120142857D01*
X160614285Y-120171428D01*
X160557142Y-120171428D01*
X160500000Y-120142857D01*
X160471428Y-120114285D01*
X160442857Y-120057142D01*
X160414285Y-119942857D01*
X160414285Y-119800000D01*
X160442857Y-119685714D01*
X160471428Y-119628571D01*
X160500000Y-119600000D01*
X160557142Y-119571428D01*
G04 #@! TO.C,R19*
X141671428Y-81485714D02*
X141385714Y-81685714D01*
X141671428Y-81828571D02*
X141071428Y-81828571D01*
X141071428Y-81600000D01*
X141100000Y-81542857D01*
X141128571Y-81514285D01*
X141185714Y-81485714D01*
X141271428Y-81485714D01*
X141328571Y-81514285D01*
X141357142Y-81542857D01*
X141385714Y-81600000D01*
X141385714Y-81828571D01*
X141671428Y-80914285D02*
X141671428Y-81257142D01*
X141671428Y-81085714D02*
X141071428Y-81085714D01*
X141157142Y-81142857D01*
X141214285Y-81200000D01*
X141242857Y-81257142D01*
X141671428Y-80628571D02*
X141671428Y-80514285D01*
X141642857Y-80457142D01*
X141614285Y-80428571D01*
X141528571Y-80371428D01*
X141414285Y-80342857D01*
X141185714Y-80342857D01*
X141128571Y-80371428D01*
X141100000Y-80400000D01*
X141071428Y-80457142D01*
X141071428Y-80571428D01*
X141100000Y-80628571D01*
X141128571Y-80657142D01*
X141185714Y-80685714D01*
X141328571Y-80685714D01*
X141385714Y-80657142D01*
X141414285Y-80628571D01*
X141442857Y-80571428D01*
X141442857Y-80457142D01*
X141414285Y-80400000D01*
X141385714Y-80371428D01*
X141328571Y-80342857D01*
G04 #@! TO.C,R18*
X138371428Y-81485714D02*
X138085714Y-81685714D01*
X138371428Y-81828571D02*
X137771428Y-81828571D01*
X137771428Y-81600000D01*
X137800000Y-81542857D01*
X137828571Y-81514285D01*
X137885714Y-81485714D01*
X137971428Y-81485714D01*
X138028571Y-81514285D01*
X138057142Y-81542857D01*
X138085714Y-81600000D01*
X138085714Y-81828571D01*
X138371428Y-80914285D02*
X138371428Y-81257142D01*
X138371428Y-81085714D02*
X137771428Y-81085714D01*
X137857142Y-81142857D01*
X137914285Y-81200000D01*
X137942857Y-81257142D01*
X138028571Y-80571428D02*
X138000000Y-80628571D01*
X137971428Y-80657142D01*
X137914285Y-80685714D01*
X137885714Y-80685714D01*
X137828571Y-80657142D01*
X137800000Y-80628571D01*
X137771428Y-80571428D01*
X137771428Y-80457142D01*
X137800000Y-80400000D01*
X137828571Y-80371428D01*
X137885714Y-80342857D01*
X137914285Y-80342857D01*
X137971428Y-80371428D01*
X138000000Y-80400000D01*
X138028571Y-80457142D01*
X138028571Y-80571428D01*
X138057142Y-80628571D01*
X138085714Y-80657142D01*
X138142857Y-80685714D01*
X138257142Y-80685714D01*
X138314285Y-80657142D01*
X138342857Y-80628571D01*
X138371428Y-80571428D01*
X138371428Y-80457142D01*
X138342857Y-80400000D01*
X138314285Y-80371428D01*
X138257142Y-80342857D01*
X138142857Y-80342857D01*
X138085714Y-80371428D01*
X138057142Y-80400000D01*
X138028571Y-80457142D01*
G04 #@! TO.C,R17*
X145871428Y-81485714D02*
X145585714Y-81685714D01*
X145871428Y-81828571D02*
X145271428Y-81828571D01*
X145271428Y-81600000D01*
X145300000Y-81542857D01*
X145328571Y-81514285D01*
X145385714Y-81485714D01*
X145471428Y-81485714D01*
X145528571Y-81514285D01*
X145557142Y-81542857D01*
X145585714Y-81600000D01*
X145585714Y-81828571D01*
X145871428Y-80914285D02*
X145871428Y-81257142D01*
X145871428Y-81085714D02*
X145271428Y-81085714D01*
X145357142Y-81142857D01*
X145414285Y-81200000D01*
X145442857Y-81257142D01*
X145271428Y-80714285D02*
X145271428Y-80314285D01*
X145871428Y-80571428D01*
G04 #@! TO.C,R16*
X142571428Y-81485714D02*
X142285714Y-81685714D01*
X142571428Y-81828571D02*
X141971428Y-81828571D01*
X141971428Y-81600000D01*
X142000000Y-81542857D01*
X142028571Y-81514285D01*
X142085714Y-81485714D01*
X142171428Y-81485714D01*
X142228571Y-81514285D01*
X142257142Y-81542857D01*
X142285714Y-81600000D01*
X142285714Y-81828571D01*
X142571428Y-80914285D02*
X142571428Y-81257142D01*
X142571428Y-81085714D02*
X141971428Y-81085714D01*
X142057142Y-81142857D01*
X142114285Y-81200000D01*
X142142857Y-81257142D01*
X141971428Y-80400000D02*
X141971428Y-80514285D01*
X142000000Y-80571428D01*
X142028571Y-80600000D01*
X142114285Y-80657142D01*
X142228571Y-80685714D01*
X142457142Y-80685714D01*
X142514285Y-80657142D01*
X142542857Y-80628571D01*
X142571428Y-80571428D01*
X142571428Y-80457142D01*
X142542857Y-80400000D01*
X142514285Y-80371428D01*
X142457142Y-80342857D01*
X142314285Y-80342857D01*
X142257142Y-80371428D01*
X142228571Y-80400000D01*
X142200000Y-80457142D01*
X142200000Y-80571428D01*
X142228571Y-80628571D01*
X142257142Y-80657142D01*
X142314285Y-80685714D01*
G04 #@! TO.C,R15*
X149971428Y-81485714D02*
X149685714Y-81685714D01*
X149971428Y-81828571D02*
X149371428Y-81828571D01*
X149371428Y-81600000D01*
X149400000Y-81542857D01*
X149428571Y-81514285D01*
X149485714Y-81485714D01*
X149571428Y-81485714D01*
X149628571Y-81514285D01*
X149657142Y-81542857D01*
X149685714Y-81600000D01*
X149685714Y-81828571D01*
X149971428Y-80914285D02*
X149971428Y-81257142D01*
X149971428Y-81085714D02*
X149371428Y-81085714D01*
X149457142Y-81142857D01*
X149514285Y-81200000D01*
X149542857Y-81257142D01*
X149371428Y-80371428D02*
X149371428Y-80657142D01*
X149657142Y-80685714D01*
X149628571Y-80657142D01*
X149600000Y-80600000D01*
X149600000Y-80457142D01*
X149628571Y-80400000D01*
X149657142Y-80371428D01*
X149714285Y-80342857D01*
X149857142Y-80342857D01*
X149914285Y-80371428D01*
X149942857Y-80400000D01*
X149971428Y-80457142D01*
X149971428Y-80600000D01*
X149942857Y-80657142D01*
X149914285Y-80685714D01*
G04 #@! TO.C,R14*
X146871428Y-81485714D02*
X146585714Y-81685714D01*
X146871428Y-81828571D02*
X146271428Y-81828571D01*
X146271428Y-81600000D01*
X146300000Y-81542857D01*
X146328571Y-81514285D01*
X146385714Y-81485714D01*
X146471428Y-81485714D01*
X146528571Y-81514285D01*
X146557142Y-81542857D01*
X146585714Y-81600000D01*
X146585714Y-81828571D01*
X146871428Y-80914285D02*
X146871428Y-81257142D01*
X146871428Y-81085714D02*
X146271428Y-81085714D01*
X146357142Y-81142857D01*
X146414285Y-81200000D01*
X146442857Y-81257142D01*
X146471428Y-80400000D02*
X146871428Y-80400000D01*
X146242857Y-80542857D02*
X146671428Y-80685714D01*
X146671428Y-80314285D01*
G04 #@! TO.C,R13*
X154171428Y-81485714D02*
X153885714Y-81685714D01*
X154171428Y-81828571D02*
X153571428Y-81828571D01*
X153571428Y-81600000D01*
X153600000Y-81542857D01*
X153628571Y-81514285D01*
X153685714Y-81485714D01*
X153771428Y-81485714D01*
X153828571Y-81514285D01*
X153857142Y-81542857D01*
X153885714Y-81600000D01*
X153885714Y-81828571D01*
X154171428Y-80914285D02*
X154171428Y-81257142D01*
X154171428Y-81085714D02*
X153571428Y-81085714D01*
X153657142Y-81142857D01*
X153714285Y-81200000D01*
X153742857Y-81257142D01*
X153571428Y-80714285D02*
X153571428Y-80342857D01*
X153800000Y-80542857D01*
X153800000Y-80457142D01*
X153828571Y-80400000D01*
X153857142Y-80371428D01*
X153914285Y-80342857D01*
X154057142Y-80342857D01*
X154114285Y-80371428D01*
X154142857Y-80400000D01*
X154171428Y-80457142D01*
X154171428Y-80628571D01*
X154142857Y-80685714D01*
X154114285Y-80714285D01*
G04 #@! TO.C,R12*
X150871428Y-81485714D02*
X150585714Y-81685714D01*
X150871428Y-81828571D02*
X150271428Y-81828571D01*
X150271428Y-81600000D01*
X150300000Y-81542857D01*
X150328571Y-81514285D01*
X150385714Y-81485714D01*
X150471428Y-81485714D01*
X150528571Y-81514285D01*
X150557142Y-81542857D01*
X150585714Y-81600000D01*
X150585714Y-81828571D01*
X150871428Y-80914285D02*
X150871428Y-81257142D01*
X150871428Y-81085714D02*
X150271428Y-81085714D01*
X150357142Y-81142857D01*
X150414285Y-81200000D01*
X150442857Y-81257142D01*
X150328571Y-80685714D02*
X150300000Y-80657142D01*
X150271428Y-80600000D01*
X150271428Y-80457142D01*
X150300000Y-80400000D01*
X150328571Y-80371428D01*
X150385714Y-80342857D01*
X150442857Y-80342857D01*
X150528571Y-80371428D01*
X150871428Y-80714285D01*
X150871428Y-80342857D01*
G04 #@! TO.C,R11*
X155614285Y-69901428D02*
X155414285Y-69615714D01*
X155271428Y-69901428D02*
X155271428Y-69301428D01*
X155500000Y-69301428D01*
X155557142Y-69330000D01*
X155585714Y-69358571D01*
X155614285Y-69415714D01*
X155614285Y-69501428D01*
X155585714Y-69558571D01*
X155557142Y-69587142D01*
X155500000Y-69615714D01*
X155271428Y-69615714D01*
X156185714Y-69901428D02*
X155842857Y-69901428D01*
X156014285Y-69901428D02*
X156014285Y-69301428D01*
X155957142Y-69387142D01*
X155900000Y-69444285D01*
X155842857Y-69472857D01*
X156757142Y-69901428D02*
X156414285Y-69901428D01*
X156585714Y-69901428D02*
X156585714Y-69301428D01*
X156528571Y-69387142D01*
X156471428Y-69444285D01*
X156414285Y-69472857D01*
G04 #@! TO.C,R5*
X151371428Y-130600000D02*
X151085714Y-130800000D01*
X151371428Y-130942857D02*
X150771428Y-130942857D01*
X150771428Y-130714285D01*
X150800000Y-130657142D01*
X150828571Y-130628571D01*
X150885714Y-130600000D01*
X150971428Y-130600000D01*
X151028571Y-130628571D01*
X151057142Y-130657142D01*
X151085714Y-130714285D01*
X151085714Y-130942857D01*
X150771428Y-130057142D02*
X150771428Y-130342857D01*
X151057142Y-130371428D01*
X151028571Y-130342857D01*
X151000000Y-130285714D01*
X151000000Y-130142857D01*
X151028571Y-130085714D01*
X151057142Y-130057142D01*
X151114285Y-130028571D01*
X151257142Y-130028571D01*
X151314285Y-130057142D01*
X151342857Y-130085714D01*
X151371428Y-130142857D01*
X151371428Y-130285714D01*
X151342857Y-130342857D01*
X151314285Y-130371428D01*
G04 #@! TO.C,R4*
X153171428Y-132900000D02*
X152885714Y-133100000D01*
X153171428Y-133242857D02*
X152571428Y-133242857D01*
X152571428Y-133014285D01*
X152600000Y-132957142D01*
X152628571Y-132928571D01*
X152685714Y-132900000D01*
X152771428Y-132900000D01*
X152828571Y-132928571D01*
X152857142Y-132957142D01*
X152885714Y-133014285D01*
X152885714Y-133242857D01*
X152771428Y-132385714D02*
X153171428Y-132385714D01*
X152542857Y-132528571D02*
X152971428Y-132671428D01*
X152971428Y-132300000D01*
G04 #@! TO.C,R3*
X163871428Y-130600000D02*
X163585714Y-130800000D01*
X163871428Y-130942857D02*
X163271428Y-130942857D01*
X163271428Y-130714285D01*
X163300000Y-130657142D01*
X163328571Y-130628571D01*
X163385714Y-130600000D01*
X163471428Y-130600000D01*
X163528571Y-130628571D01*
X163557142Y-130657142D01*
X163585714Y-130714285D01*
X163585714Y-130942857D01*
X163271428Y-130400000D02*
X163271428Y-130028571D01*
X163500000Y-130228571D01*
X163500000Y-130142857D01*
X163528571Y-130085714D01*
X163557142Y-130057142D01*
X163614285Y-130028571D01*
X163757142Y-130028571D01*
X163814285Y-130057142D01*
X163842857Y-130085714D01*
X163871428Y-130142857D01*
X163871428Y-130314285D01*
X163842857Y-130371428D01*
X163814285Y-130400000D01*
G04 #@! TO.C,R2*
X165771428Y-132900000D02*
X165485714Y-133100000D01*
X165771428Y-133242857D02*
X165171428Y-133242857D01*
X165171428Y-133014285D01*
X165200000Y-132957142D01*
X165228571Y-132928571D01*
X165285714Y-132900000D01*
X165371428Y-132900000D01*
X165428571Y-132928571D01*
X165457142Y-132957142D01*
X165485714Y-133014285D01*
X165485714Y-133242857D01*
X165228571Y-132671428D02*
X165200000Y-132642857D01*
X165171428Y-132585714D01*
X165171428Y-132442857D01*
X165200000Y-132385714D01*
X165228571Y-132357142D01*
X165285714Y-132328571D01*
X165342857Y-132328571D01*
X165428571Y-132357142D01*
X165771428Y-132700000D01*
X165771428Y-132328571D01*
G04 #@! TO.C,R1*
X141400000Y-127271428D02*
X141200000Y-126985714D01*
X141057142Y-127271428D02*
X141057142Y-126671428D01*
X141285714Y-126671428D01*
X141342857Y-126700000D01*
X141371428Y-126728571D01*
X141400000Y-126785714D01*
X141400000Y-126871428D01*
X141371428Y-126928571D01*
X141342857Y-126957142D01*
X141285714Y-126985714D01*
X141057142Y-126985714D01*
X141971428Y-127271428D02*
X141628571Y-127271428D01*
X141800000Y-127271428D02*
X141800000Y-126671428D01*
X141742857Y-126757142D01*
X141685714Y-126814285D01*
X141628571Y-126842857D01*
G04 #@! TO.C,FB10*
X140157142Y-78385714D02*
X140157142Y-78585714D01*
X140471428Y-78585714D02*
X139871428Y-78585714D01*
X139871428Y-78300000D01*
X140157142Y-77871428D02*
X140185714Y-77785714D01*
X140214285Y-77757142D01*
X140271428Y-77728571D01*
X140357142Y-77728571D01*
X140414285Y-77757142D01*
X140442857Y-77785714D01*
X140471428Y-77842857D01*
X140471428Y-78071428D01*
X139871428Y-78071428D01*
X139871428Y-77871428D01*
X139900000Y-77814285D01*
X139928571Y-77785714D01*
X139985714Y-77757142D01*
X140042857Y-77757142D01*
X140100000Y-77785714D01*
X140128571Y-77814285D01*
X140157142Y-77871428D01*
X140157142Y-78071428D01*
X140471428Y-77157142D02*
X140471428Y-77500000D01*
X140471428Y-77328571D02*
X139871428Y-77328571D01*
X139957142Y-77385714D01*
X140014285Y-77442857D01*
X140042857Y-77500000D01*
X139871428Y-76785714D02*
X139871428Y-76728571D01*
X139900000Y-76671428D01*
X139928571Y-76642857D01*
X139985714Y-76614285D01*
X140100000Y-76585714D01*
X140242857Y-76585714D01*
X140357142Y-76614285D01*
X140414285Y-76642857D01*
X140442857Y-76671428D01*
X140471428Y-76728571D01*
X140471428Y-76785714D01*
X140442857Y-76842857D01*
X140414285Y-76871428D01*
X140357142Y-76900000D01*
X140242857Y-76928571D01*
X140100000Y-76928571D01*
X139985714Y-76900000D01*
X139928571Y-76871428D01*
X139900000Y-76842857D01*
X139871428Y-76785714D01*
G04 #@! TO.C,FB9*
X139257142Y-78400000D02*
X139257142Y-78600000D01*
X139571428Y-78600000D02*
X138971428Y-78600000D01*
X138971428Y-78314285D01*
X139257142Y-77885714D02*
X139285714Y-77800000D01*
X139314285Y-77771428D01*
X139371428Y-77742857D01*
X139457142Y-77742857D01*
X139514285Y-77771428D01*
X139542857Y-77800000D01*
X139571428Y-77857142D01*
X139571428Y-78085714D01*
X138971428Y-78085714D01*
X138971428Y-77885714D01*
X139000000Y-77828571D01*
X139028571Y-77800000D01*
X139085714Y-77771428D01*
X139142857Y-77771428D01*
X139200000Y-77800000D01*
X139228571Y-77828571D01*
X139257142Y-77885714D01*
X139257142Y-78085714D01*
X139571428Y-77457142D02*
X139571428Y-77342857D01*
X139542857Y-77285714D01*
X139514285Y-77257142D01*
X139428571Y-77200000D01*
X139314285Y-77171428D01*
X139085714Y-77171428D01*
X139028571Y-77200000D01*
X139000000Y-77228571D01*
X138971428Y-77285714D01*
X138971428Y-77400000D01*
X139000000Y-77457142D01*
X139028571Y-77485714D01*
X139085714Y-77514285D01*
X139228571Y-77514285D01*
X139285714Y-77485714D01*
X139314285Y-77457142D01*
X139342857Y-77400000D01*
X139342857Y-77285714D01*
X139314285Y-77228571D01*
X139285714Y-77200000D01*
X139228571Y-77171428D01*
G04 #@! TO.C,FB8*
X144357142Y-78400000D02*
X144357142Y-78600000D01*
X144671428Y-78600000D02*
X144071428Y-78600000D01*
X144071428Y-78314285D01*
X144357142Y-77885714D02*
X144385714Y-77800000D01*
X144414285Y-77771428D01*
X144471428Y-77742857D01*
X144557142Y-77742857D01*
X144614285Y-77771428D01*
X144642857Y-77800000D01*
X144671428Y-77857142D01*
X144671428Y-78085714D01*
X144071428Y-78085714D01*
X144071428Y-77885714D01*
X144100000Y-77828571D01*
X144128571Y-77800000D01*
X144185714Y-77771428D01*
X144242857Y-77771428D01*
X144300000Y-77800000D01*
X144328571Y-77828571D01*
X144357142Y-77885714D01*
X144357142Y-78085714D01*
X144328571Y-77400000D02*
X144300000Y-77457142D01*
X144271428Y-77485714D01*
X144214285Y-77514285D01*
X144185714Y-77514285D01*
X144128571Y-77485714D01*
X144100000Y-77457142D01*
X144071428Y-77400000D01*
X144071428Y-77285714D01*
X144100000Y-77228571D01*
X144128571Y-77200000D01*
X144185714Y-77171428D01*
X144214285Y-77171428D01*
X144271428Y-77200000D01*
X144300000Y-77228571D01*
X144328571Y-77285714D01*
X144328571Y-77400000D01*
X144357142Y-77457142D01*
X144385714Y-77485714D01*
X144442857Y-77514285D01*
X144557142Y-77514285D01*
X144614285Y-77485714D01*
X144642857Y-77457142D01*
X144671428Y-77400000D01*
X144671428Y-77285714D01*
X144642857Y-77228571D01*
X144614285Y-77200000D01*
X144557142Y-77171428D01*
X144442857Y-77171428D01*
X144385714Y-77200000D01*
X144357142Y-77228571D01*
X144328571Y-77285714D01*
G04 #@! TO.C,FB7*
X143457142Y-78400000D02*
X143457142Y-78600000D01*
X143771428Y-78600000D02*
X143171428Y-78600000D01*
X143171428Y-78314285D01*
X143457142Y-77885714D02*
X143485714Y-77800000D01*
X143514285Y-77771428D01*
X143571428Y-77742857D01*
X143657142Y-77742857D01*
X143714285Y-77771428D01*
X143742857Y-77800000D01*
X143771428Y-77857142D01*
X143771428Y-78085714D01*
X143171428Y-78085714D01*
X143171428Y-77885714D01*
X143200000Y-77828571D01*
X143228571Y-77800000D01*
X143285714Y-77771428D01*
X143342857Y-77771428D01*
X143400000Y-77800000D01*
X143428571Y-77828571D01*
X143457142Y-77885714D01*
X143457142Y-78085714D01*
X143171428Y-77542857D02*
X143171428Y-77142857D01*
X143771428Y-77400000D01*
G04 #@! TO.C,FB6*
X148557142Y-78400000D02*
X148557142Y-78600000D01*
X148871428Y-78600000D02*
X148271428Y-78600000D01*
X148271428Y-78314285D01*
X148557142Y-77885714D02*
X148585714Y-77800000D01*
X148614285Y-77771428D01*
X148671428Y-77742857D01*
X148757142Y-77742857D01*
X148814285Y-77771428D01*
X148842857Y-77800000D01*
X148871428Y-77857142D01*
X148871428Y-78085714D01*
X148271428Y-78085714D01*
X148271428Y-77885714D01*
X148300000Y-77828571D01*
X148328571Y-77800000D01*
X148385714Y-77771428D01*
X148442857Y-77771428D01*
X148500000Y-77800000D01*
X148528571Y-77828571D01*
X148557142Y-77885714D01*
X148557142Y-78085714D01*
X148271428Y-77228571D02*
X148271428Y-77342857D01*
X148300000Y-77400000D01*
X148328571Y-77428571D01*
X148414285Y-77485714D01*
X148528571Y-77514285D01*
X148757142Y-77514285D01*
X148814285Y-77485714D01*
X148842857Y-77457142D01*
X148871428Y-77400000D01*
X148871428Y-77285714D01*
X148842857Y-77228571D01*
X148814285Y-77200000D01*
X148757142Y-77171428D01*
X148614285Y-77171428D01*
X148557142Y-77200000D01*
X148528571Y-77228571D01*
X148500000Y-77285714D01*
X148500000Y-77400000D01*
X148528571Y-77457142D01*
X148557142Y-77485714D01*
X148614285Y-77514285D01*
G04 #@! TO.C,FB5*
X147657142Y-78400000D02*
X147657142Y-78600000D01*
X147971428Y-78600000D02*
X147371428Y-78600000D01*
X147371428Y-78314285D01*
X147657142Y-77885714D02*
X147685714Y-77800000D01*
X147714285Y-77771428D01*
X147771428Y-77742857D01*
X147857142Y-77742857D01*
X147914285Y-77771428D01*
X147942857Y-77800000D01*
X147971428Y-77857142D01*
X147971428Y-78085714D01*
X147371428Y-78085714D01*
X147371428Y-77885714D01*
X147400000Y-77828571D01*
X147428571Y-77800000D01*
X147485714Y-77771428D01*
X147542857Y-77771428D01*
X147600000Y-77800000D01*
X147628571Y-77828571D01*
X147657142Y-77885714D01*
X147657142Y-78085714D01*
X147371428Y-77200000D02*
X147371428Y-77485714D01*
X147657142Y-77514285D01*
X147628571Y-77485714D01*
X147600000Y-77428571D01*
X147600000Y-77285714D01*
X147628571Y-77228571D01*
X147657142Y-77200000D01*
X147714285Y-77171428D01*
X147857142Y-77171428D01*
X147914285Y-77200000D01*
X147942857Y-77228571D01*
X147971428Y-77285714D01*
X147971428Y-77428571D01*
X147942857Y-77485714D01*
X147914285Y-77514285D01*
G04 #@! TO.C,FB4*
X152657142Y-78400000D02*
X152657142Y-78600000D01*
X152971428Y-78600000D02*
X152371428Y-78600000D01*
X152371428Y-78314285D01*
X152657142Y-77885714D02*
X152685714Y-77800000D01*
X152714285Y-77771428D01*
X152771428Y-77742857D01*
X152857142Y-77742857D01*
X152914285Y-77771428D01*
X152942857Y-77800000D01*
X152971428Y-77857142D01*
X152971428Y-78085714D01*
X152371428Y-78085714D01*
X152371428Y-77885714D01*
X152400000Y-77828571D01*
X152428571Y-77800000D01*
X152485714Y-77771428D01*
X152542857Y-77771428D01*
X152600000Y-77800000D01*
X152628571Y-77828571D01*
X152657142Y-77885714D01*
X152657142Y-78085714D01*
X152571428Y-77228571D02*
X152971428Y-77228571D01*
X152342857Y-77371428D02*
X152771428Y-77514285D01*
X152771428Y-77142857D01*
G04 #@! TO.C,FB3*
X151857142Y-78400000D02*
X151857142Y-78600000D01*
X152171428Y-78600000D02*
X151571428Y-78600000D01*
X151571428Y-78314285D01*
X151857142Y-77885714D02*
X151885714Y-77800000D01*
X151914285Y-77771428D01*
X151971428Y-77742857D01*
X152057142Y-77742857D01*
X152114285Y-77771428D01*
X152142857Y-77800000D01*
X152171428Y-77857142D01*
X152171428Y-78085714D01*
X151571428Y-78085714D01*
X151571428Y-77885714D01*
X151600000Y-77828571D01*
X151628571Y-77800000D01*
X151685714Y-77771428D01*
X151742857Y-77771428D01*
X151800000Y-77800000D01*
X151828571Y-77828571D01*
X151857142Y-77885714D01*
X151857142Y-78085714D01*
X151571428Y-77542857D02*
X151571428Y-77171428D01*
X151800000Y-77371428D01*
X151800000Y-77285714D01*
X151828571Y-77228571D01*
X151857142Y-77200000D01*
X151914285Y-77171428D01*
X152057142Y-77171428D01*
X152114285Y-77200000D01*
X152142857Y-77228571D01*
X152171428Y-77285714D01*
X152171428Y-77457142D01*
X152142857Y-77514285D01*
X152114285Y-77542857D01*
G04 #@! TO.C,R44*
X101941428Y-76885714D02*
X101655714Y-77085714D01*
X101941428Y-77228571D02*
X101341428Y-77228571D01*
X101341428Y-77000000D01*
X101370000Y-76942857D01*
X101398571Y-76914285D01*
X101455714Y-76885714D01*
X101541428Y-76885714D01*
X101598571Y-76914285D01*
X101627142Y-76942857D01*
X101655714Y-77000000D01*
X101655714Y-77228571D01*
X101541428Y-76371428D02*
X101941428Y-76371428D01*
X101312857Y-76514285D02*
X101741428Y-76657142D01*
X101741428Y-76285714D01*
X101541428Y-75800000D02*
X101941428Y-75800000D01*
X101312857Y-75942857D02*
X101741428Y-76085714D01*
X101741428Y-75714285D01*
G04 #@! TO.C,D8*
X101257142Y-75271428D02*
X101257142Y-74671428D01*
X101400000Y-74671428D01*
X101485714Y-74700000D01*
X101542857Y-74757142D01*
X101571428Y-74814285D01*
X101600000Y-74928571D01*
X101600000Y-75014285D01*
X101571428Y-75128571D01*
X101542857Y-75185714D01*
X101485714Y-75242857D01*
X101400000Y-75271428D01*
X101257142Y-75271428D01*
X101942857Y-74928571D02*
X101885714Y-74900000D01*
X101857142Y-74871428D01*
X101828571Y-74814285D01*
X101828571Y-74785714D01*
X101857142Y-74728571D01*
X101885714Y-74700000D01*
X101942857Y-74671428D01*
X102057142Y-74671428D01*
X102114285Y-74700000D01*
X102142857Y-74728571D01*
X102171428Y-74785714D01*
X102171428Y-74814285D01*
X102142857Y-74871428D01*
X102114285Y-74900000D01*
X102057142Y-74928571D01*
X101942857Y-74928571D01*
X101885714Y-74957142D01*
X101857142Y-74985714D01*
X101828571Y-75042857D01*
X101828571Y-75157142D01*
X101857142Y-75214285D01*
X101885714Y-75242857D01*
X101942857Y-75271428D01*
X102057142Y-75271428D01*
X102114285Y-75242857D01*
X102142857Y-75214285D01*
X102171428Y-75157142D01*
X102171428Y-75042857D01*
X102142857Y-74985714D01*
X102114285Y-74957142D01*
X102057142Y-74928571D01*
G04 #@! TO.C,U9*
X167542857Y-99871428D02*
X167542857Y-100357142D01*
X167571428Y-100414285D01*
X167600000Y-100442857D01*
X167657142Y-100471428D01*
X167771428Y-100471428D01*
X167828571Y-100442857D01*
X167857142Y-100414285D01*
X167885714Y-100357142D01*
X167885714Y-99871428D01*
X168200000Y-100471428D02*
X168314285Y-100471428D01*
X168371428Y-100442857D01*
X168400000Y-100414285D01*
X168457142Y-100328571D01*
X168485714Y-100214285D01*
X168485714Y-99985714D01*
X168457142Y-99928571D01*
X168428571Y-99900000D01*
X168371428Y-99871428D01*
X168257142Y-99871428D01*
X168200000Y-99900000D01*
X168171428Y-99928571D01*
X168142857Y-99985714D01*
X168142857Y-100128571D01*
X168171428Y-100185714D01*
X168200000Y-100214285D01*
X168257142Y-100242857D01*
X168371428Y-100242857D01*
X168428571Y-100214285D01*
X168457142Y-100185714D01*
X168485714Y-100128571D01*
G04 #@! TO.C,C59*
X171514285Y-100514285D02*
X171485714Y-100542857D01*
X171400000Y-100571428D01*
X171342857Y-100571428D01*
X171257142Y-100542857D01*
X171200000Y-100485714D01*
X171171428Y-100428571D01*
X171142857Y-100314285D01*
X171142857Y-100228571D01*
X171171428Y-100114285D01*
X171200000Y-100057142D01*
X171257142Y-100000000D01*
X171342857Y-99971428D01*
X171400000Y-99971428D01*
X171485714Y-100000000D01*
X171514285Y-100028571D01*
X172057142Y-99971428D02*
X171771428Y-99971428D01*
X171742857Y-100257142D01*
X171771428Y-100228571D01*
X171828571Y-100200000D01*
X171971428Y-100200000D01*
X172028571Y-100228571D01*
X172057142Y-100257142D01*
X172085714Y-100314285D01*
X172085714Y-100457142D01*
X172057142Y-100514285D01*
X172028571Y-100542857D01*
X171971428Y-100571428D01*
X171828571Y-100571428D01*
X171771428Y-100542857D01*
X171742857Y-100514285D01*
X172371428Y-100571428D02*
X172485714Y-100571428D01*
X172542857Y-100542857D01*
X172571428Y-100514285D01*
X172628571Y-100428571D01*
X172657142Y-100314285D01*
X172657142Y-100085714D01*
X172628571Y-100028571D01*
X172600000Y-100000000D01*
X172542857Y-99971428D01*
X172428571Y-99971428D01*
X172371428Y-100000000D01*
X172342857Y-100028571D01*
X172314285Y-100085714D01*
X172314285Y-100228571D01*
X172342857Y-100285714D01*
X172371428Y-100314285D01*
X172428571Y-100342857D01*
X172542857Y-100342857D01*
X172600000Y-100314285D01*
X172628571Y-100285714D01*
X172657142Y-100228571D01*
G04 #@! TO.C,C58*
X162614285Y-101044285D02*
X162585714Y-101072857D01*
X162500000Y-101101428D01*
X162442857Y-101101428D01*
X162357142Y-101072857D01*
X162300000Y-101015714D01*
X162271428Y-100958571D01*
X162242857Y-100844285D01*
X162242857Y-100758571D01*
X162271428Y-100644285D01*
X162300000Y-100587142D01*
X162357142Y-100530000D01*
X162442857Y-100501428D01*
X162500000Y-100501428D01*
X162585714Y-100530000D01*
X162614285Y-100558571D01*
X163157142Y-100501428D02*
X162871428Y-100501428D01*
X162842857Y-100787142D01*
X162871428Y-100758571D01*
X162928571Y-100730000D01*
X163071428Y-100730000D01*
X163128571Y-100758571D01*
X163157142Y-100787142D01*
X163185714Y-100844285D01*
X163185714Y-100987142D01*
X163157142Y-101044285D01*
X163128571Y-101072857D01*
X163071428Y-101101428D01*
X162928571Y-101101428D01*
X162871428Y-101072857D01*
X162842857Y-101044285D01*
X163528571Y-100758571D02*
X163471428Y-100730000D01*
X163442857Y-100701428D01*
X163414285Y-100644285D01*
X163414285Y-100615714D01*
X163442857Y-100558571D01*
X163471428Y-100530000D01*
X163528571Y-100501428D01*
X163642857Y-100501428D01*
X163700000Y-100530000D01*
X163728571Y-100558571D01*
X163757142Y-100615714D01*
X163757142Y-100644285D01*
X163728571Y-100701428D01*
X163700000Y-100730000D01*
X163642857Y-100758571D01*
X163528571Y-100758571D01*
X163471428Y-100787142D01*
X163442857Y-100815714D01*
X163414285Y-100872857D01*
X163414285Y-100987142D01*
X163442857Y-101044285D01*
X163471428Y-101072857D01*
X163528571Y-101101428D01*
X163642857Y-101101428D01*
X163700000Y-101072857D01*
X163728571Y-101044285D01*
X163757142Y-100987142D01*
X163757142Y-100872857D01*
X163728571Y-100815714D01*
X163700000Y-100787142D01*
X163642857Y-100758571D01*
G04 #@! TO.C,C57*
X152614285Y-85714285D02*
X152585714Y-85742857D01*
X152500000Y-85771428D01*
X152442857Y-85771428D01*
X152357142Y-85742857D01*
X152300000Y-85685714D01*
X152271428Y-85628571D01*
X152242857Y-85514285D01*
X152242857Y-85428571D01*
X152271428Y-85314285D01*
X152300000Y-85257142D01*
X152357142Y-85200000D01*
X152442857Y-85171428D01*
X152500000Y-85171428D01*
X152585714Y-85200000D01*
X152614285Y-85228571D01*
X153157142Y-85171428D02*
X152871428Y-85171428D01*
X152842857Y-85457142D01*
X152871428Y-85428571D01*
X152928571Y-85400000D01*
X153071428Y-85400000D01*
X153128571Y-85428571D01*
X153157142Y-85457142D01*
X153185714Y-85514285D01*
X153185714Y-85657142D01*
X153157142Y-85714285D01*
X153128571Y-85742857D01*
X153071428Y-85771428D01*
X152928571Y-85771428D01*
X152871428Y-85742857D01*
X152842857Y-85714285D01*
X153385714Y-85171428D02*
X153785714Y-85171428D01*
X153528571Y-85771428D01*
G04 #@! TO.C,J8*
X154800000Y-81471428D02*
X154800000Y-81900000D01*
X154771428Y-81985714D01*
X154714285Y-82042857D01*
X154628571Y-82071428D01*
X154571428Y-82071428D01*
X155171428Y-81728571D02*
X155114285Y-81700000D01*
X155085714Y-81671428D01*
X155057142Y-81614285D01*
X155057142Y-81585714D01*
X155085714Y-81528571D01*
X155114285Y-81500000D01*
X155171428Y-81471428D01*
X155285714Y-81471428D01*
X155342857Y-81500000D01*
X155371428Y-81528571D01*
X155400000Y-81585714D01*
X155400000Y-81614285D01*
X155371428Y-81671428D01*
X155342857Y-81700000D01*
X155285714Y-81728571D01*
X155171428Y-81728571D01*
X155114285Y-81757142D01*
X155085714Y-81785714D01*
X155057142Y-81842857D01*
X155057142Y-81957142D01*
X155085714Y-82014285D01*
X155114285Y-82042857D01*
X155171428Y-82071428D01*
X155285714Y-82071428D01*
X155342857Y-82042857D01*
X155371428Y-82014285D01*
X155400000Y-81957142D01*
X155400000Y-81842857D01*
X155371428Y-81785714D01*
X155342857Y-81757142D01*
X155285714Y-81728571D01*
G04 #@! TO.C,R43*
X157614285Y-85671428D02*
X157414285Y-85385714D01*
X157271428Y-85671428D02*
X157271428Y-85071428D01*
X157500000Y-85071428D01*
X157557142Y-85100000D01*
X157585714Y-85128571D01*
X157614285Y-85185714D01*
X157614285Y-85271428D01*
X157585714Y-85328571D01*
X157557142Y-85357142D01*
X157500000Y-85385714D01*
X157271428Y-85385714D01*
X158128571Y-85271428D02*
X158128571Y-85671428D01*
X157985714Y-85042857D02*
X157842857Y-85471428D01*
X158214285Y-85471428D01*
X158385714Y-85071428D02*
X158757142Y-85071428D01*
X158557142Y-85300000D01*
X158642857Y-85300000D01*
X158700000Y-85328571D01*
X158728571Y-85357142D01*
X158757142Y-85414285D01*
X158757142Y-85557142D01*
X158728571Y-85614285D01*
X158700000Y-85642857D01*
X158642857Y-85671428D01*
X158471428Y-85671428D01*
X158414285Y-85642857D01*
X158385714Y-85614285D01*
G04 #@! TO.C,D7*
X159557142Y-85671428D02*
X159557142Y-85071428D01*
X159700000Y-85071428D01*
X159785714Y-85100000D01*
X159842857Y-85157142D01*
X159871428Y-85214285D01*
X159900000Y-85328571D01*
X159900000Y-85414285D01*
X159871428Y-85528571D01*
X159842857Y-85585714D01*
X159785714Y-85642857D01*
X159700000Y-85671428D01*
X159557142Y-85671428D01*
X160100000Y-85071428D02*
X160500000Y-85071428D01*
X160242857Y-85671428D01*
G04 #@! TO.C,R42*
X155614285Y-79371428D02*
X155414285Y-79085714D01*
X155271428Y-79371428D02*
X155271428Y-78771428D01*
X155500000Y-78771428D01*
X155557142Y-78800000D01*
X155585714Y-78828571D01*
X155614285Y-78885714D01*
X155614285Y-78971428D01*
X155585714Y-79028571D01*
X155557142Y-79057142D01*
X155500000Y-79085714D01*
X155271428Y-79085714D01*
X156128571Y-78971428D02*
X156128571Y-79371428D01*
X155985714Y-78742857D02*
X155842857Y-79171428D01*
X156214285Y-79171428D01*
X156414285Y-78828571D02*
X156442857Y-78800000D01*
X156500000Y-78771428D01*
X156642857Y-78771428D01*
X156700000Y-78800000D01*
X156728571Y-78828571D01*
X156757142Y-78885714D01*
X156757142Y-78942857D01*
X156728571Y-79028571D01*
X156385714Y-79371428D01*
X156757142Y-79371428D01*
G04 #@! TO.C,R41*
X155614285Y-85671428D02*
X155414285Y-85385714D01*
X155271428Y-85671428D02*
X155271428Y-85071428D01*
X155500000Y-85071428D01*
X155557142Y-85100000D01*
X155585714Y-85128571D01*
X155614285Y-85185714D01*
X155614285Y-85271428D01*
X155585714Y-85328571D01*
X155557142Y-85357142D01*
X155500000Y-85385714D01*
X155271428Y-85385714D01*
X156128571Y-85271428D02*
X156128571Y-85671428D01*
X155985714Y-85042857D02*
X155842857Y-85471428D01*
X156214285Y-85471428D01*
X156757142Y-85671428D02*
X156414285Y-85671428D01*
X156585714Y-85671428D02*
X156585714Y-85071428D01*
X156528571Y-85157142D01*
X156471428Y-85214285D01*
X156414285Y-85242857D01*
G04 #@! TO.C,Q4*
X159442857Y-75628571D02*
X159385714Y-75600000D01*
X159328571Y-75542857D01*
X159242857Y-75457142D01*
X159185714Y-75428571D01*
X159128571Y-75428571D01*
X159157142Y-75571428D02*
X159100000Y-75542857D01*
X159042857Y-75485714D01*
X159014285Y-75371428D01*
X159014285Y-75171428D01*
X159042857Y-75057142D01*
X159100000Y-75000000D01*
X159157142Y-74971428D01*
X159271428Y-74971428D01*
X159328571Y-75000000D01*
X159385714Y-75057142D01*
X159414285Y-75171428D01*
X159414285Y-75371428D01*
X159385714Y-75485714D01*
X159328571Y-75542857D01*
X159271428Y-75571428D01*
X159157142Y-75571428D01*
X159928571Y-75171428D02*
X159928571Y-75571428D01*
X159785714Y-74942857D02*
X159642857Y-75371428D01*
X160014285Y-75371428D01*
G04 #@! TO.C,SW3*
X98242857Y-74800000D02*
X98271428Y-74714285D01*
X98271428Y-74571428D01*
X98242857Y-74514285D01*
X98214285Y-74485714D01*
X98157142Y-74457142D01*
X98100000Y-74457142D01*
X98042857Y-74485714D01*
X98014285Y-74514285D01*
X97985714Y-74571428D01*
X97957142Y-74685714D01*
X97928571Y-74742857D01*
X97900000Y-74771428D01*
X97842857Y-74800000D01*
X97785714Y-74800000D01*
X97728571Y-74771428D01*
X97700000Y-74742857D01*
X97671428Y-74685714D01*
X97671428Y-74542857D01*
X97700000Y-74457142D01*
X97671428Y-74257142D02*
X98271428Y-74114285D01*
X97842857Y-74000000D01*
X98271428Y-73885714D01*
X97671428Y-73742857D01*
X97671428Y-73571428D02*
X97671428Y-73200000D01*
X97900000Y-73400000D01*
X97900000Y-73314285D01*
X97928571Y-73257142D01*
X97957142Y-73228571D01*
X98014285Y-73200000D01*
X98157142Y-73200000D01*
X98214285Y-73228571D01*
X98242857Y-73257142D01*
X98271428Y-73314285D01*
X98271428Y-73485714D01*
X98242857Y-73542857D01*
X98214285Y-73571428D01*
G04 #@! TO.C,SW1*
X179400000Y-74942857D02*
X179485714Y-74971428D01*
X179628571Y-74971428D01*
X179685714Y-74942857D01*
X179714285Y-74914285D01*
X179742857Y-74857142D01*
X179742857Y-74800000D01*
X179714285Y-74742857D01*
X179685714Y-74714285D01*
X179628571Y-74685714D01*
X179514285Y-74657142D01*
X179457142Y-74628571D01*
X179428571Y-74600000D01*
X179400000Y-74542857D01*
X179400000Y-74485714D01*
X179428571Y-74428571D01*
X179457142Y-74400000D01*
X179514285Y-74371428D01*
X179657142Y-74371428D01*
X179742857Y-74400000D01*
X179942857Y-74371428D02*
X180085714Y-74971428D01*
X180200000Y-74542857D01*
X180314285Y-74971428D01*
X180457142Y-74371428D01*
X181000000Y-74971428D02*
X180657142Y-74971428D01*
X180828571Y-74971428D02*
X180828571Y-74371428D01*
X180771428Y-74457142D01*
X180714285Y-74514285D01*
X180657142Y-74542857D01*
G04 #@! TO.C,C56*
X160614285Y-78314285D02*
X160585714Y-78342857D01*
X160500000Y-78371428D01*
X160442857Y-78371428D01*
X160357142Y-78342857D01*
X160300000Y-78285714D01*
X160271428Y-78228571D01*
X160242857Y-78114285D01*
X160242857Y-78028571D01*
X160271428Y-77914285D01*
X160300000Y-77857142D01*
X160357142Y-77800000D01*
X160442857Y-77771428D01*
X160500000Y-77771428D01*
X160585714Y-77800000D01*
X160614285Y-77828571D01*
X161157142Y-77771428D02*
X160871428Y-77771428D01*
X160842857Y-78057142D01*
X160871428Y-78028571D01*
X160928571Y-78000000D01*
X161071428Y-78000000D01*
X161128571Y-78028571D01*
X161157142Y-78057142D01*
X161185714Y-78114285D01*
X161185714Y-78257142D01*
X161157142Y-78314285D01*
X161128571Y-78342857D01*
X161071428Y-78371428D01*
X160928571Y-78371428D01*
X160871428Y-78342857D01*
X160842857Y-78314285D01*
X161700000Y-77771428D02*
X161585714Y-77771428D01*
X161528571Y-77800000D01*
X161500000Y-77828571D01*
X161442857Y-77914285D01*
X161414285Y-78028571D01*
X161414285Y-78257142D01*
X161442857Y-78314285D01*
X161471428Y-78342857D01*
X161528571Y-78371428D01*
X161642857Y-78371428D01*
X161700000Y-78342857D01*
X161728571Y-78314285D01*
X161757142Y-78257142D01*
X161757142Y-78114285D01*
X161728571Y-78057142D01*
X161700000Y-78028571D01*
X161642857Y-78000000D01*
X161528571Y-78000000D01*
X161471428Y-78028571D01*
X161442857Y-78057142D01*
X161414285Y-78114285D01*
G04 #@! TO.C,C55*
X152214285Y-70885714D02*
X152242857Y-70914285D01*
X152271428Y-71000000D01*
X152271428Y-71057142D01*
X152242857Y-71142857D01*
X152185714Y-71200000D01*
X152128571Y-71228571D01*
X152014285Y-71257142D01*
X151928571Y-71257142D01*
X151814285Y-71228571D01*
X151757142Y-71200000D01*
X151700000Y-71142857D01*
X151671428Y-71057142D01*
X151671428Y-71000000D01*
X151700000Y-70914285D01*
X151728571Y-70885714D01*
X151671428Y-70342857D02*
X151671428Y-70628571D01*
X151957142Y-70657142D01*
X151928571Y-70628571D01*
X151900000Y-70571428D01*
X151900000Y-70428571D01*
X151928571Y-70371428D01*
X151957142Y-70342857D01*
X152014285Y-70314285D01*
X152157142Y-70314285D01*
X152214285Y-70342857D01*
X152242857Y-70371428D01*
X152271428Y-70428571D01*
X152271428Y-70571428D01*
X152242857Y-70628571D01*
X152214285Y-70657142D01*
X151671428Y-69771428D02*
X151671428Y-70057142D01*
X151957142Y-70085714D01*
X151928571Y-70057142D01*
X151900000Y-70000000D01*
X151900000Y-69857142D01*
X151928571Y-69800000D01*
X151957142Y-69771428D01*
X152014285Y-69742857D01*
X152157142Y-69742857D01*
X152214285Y-69771428D01*
X152242857Y-69800000D01*
X152271428Y-69857142D01*
X152271428Y-70000000D01*
X152242857Y-70057142D01*
X152214285Y-70085714D01*
G04 #@! TO.C,R40*
X163571428Y-69085714D02*
X163285714Y-69285714D01*
X163571428Y-69428571D02*
X162971428Y-69428571D01*
X162971428Y-69200000D01*
X163000000Y-69142857D01*
X163028571Y-69114285D01*
X163085714Y-69085714D01*
X163171428Y-69085714D01*
X163228571Y-69114285D01*
X163257142Y-69142857D01*
X163285714Y-69200000D01*
X163285714Y-69428571D01*
X163171428Y-68571428D02*
X163571428Y-68571428D01*
X162942857Y-68714285D02*
X163371428Y-68857142D01*
X163371428Y-68485714D01*
X162971428Y-68142857D02*
X162971428Y-68085714D01*
X163000000Y-68028571D01*
X163028571Y-68000000D01*
X163085714Y-67971428D01*
X163200000Y-67942857D01*
X163342857Y-67942857D01*
X163457142Y-67971428D01*
X163514285Y-68000000D01*
X163542857Y-68028571D01*
X163571428Y-68085714D01*
X163571428Y-68142857D01*
X163542857Y-68200000D01*
X163514285Y-68228571D01*
X163457142Y-68257142D01*
X163342857Y-68285714D01*
X163200000Y-68285714D01*
X163085714Y-68257142D01*
X163028571Y-68228571D01*
X163000000Y-68200000D01*
X162971428Y-68142857D01*
G04 #@! TO.C,R39*
X171771428Y-69235714D02*
X171485714Y-69435714D01*
X171771428Y-69578571D02*
X171171428Y-69578571D01*
X171171428Y-69350000D01*
X171200000Y-69292857D01*
X171228571Y-69264285D01*
X171285714Y-69235714D01*
X171371428Y-69235714D01*
X171428571Y-69264285D01*
X171457142Y-69292857D01*
X171485714Y-69350000D01*
X171485714Y-69578571D01*
X171171428Y-69035714D02*
X171171428Y-68664285D01*
X171400000Y-68864285D01*
X171400000Y-68778571D01*
X171428571Y-68721428D01*
X171457142Y-68692857D01*
X171514285Y-68664285D01*
X171657142Y-68664285D01*
X171714285Y-68692857D01*
X171742857Y-68721428D01*
X171771428Y-68778571D01*
X171771428Y-68950000D01*
X171742857Y-69007142D01*
X171714285Y-69035714D01*
X171771428Y-68378571D02*
X171771428Y-68264285D01*
X171742857Y-68207142D01*
X171714285Y-68178571D01*
X171628571Y-68121428D01*
X171514285Y-68092857D01*
X171285714Y-68092857D01*
X171228571Y-68121428D01*
X171200000Y-68150000D01*
X171171428Y-68207142D01*
X171171428Y-68321428D01*
X171200000Y-68378571D01*
X171228571Y-68407142D01*
X171285714Y-68435714D01*
X171428571Y-68435714D01*
X171485714Y-68407142D01*
X171514285Y-68378571D01*
X171542857Y-68321428D01*
X171542857Y-68207142D01*
X171514285Y-68150000D01*
X171485714Y-68121428D01*
X171428571Y-68092857D01*
G04 #@! TO.C,R38*
X172771428Y-69235714D02*
X172485714Y-69435714D01*
X172771428Y-69578571D02*
X172171428Y-69578571D01*
X172171428Y-69350000D01*
X172200000Y-69292857D01*
X172228571Y-69264285D01*
X172285714Y-69235714D01*
X172371428Y-69235714D01*
X172428571Y-69264285D01*
X172457142Y-69292857D01*
X172485714Y-69350000D01*
X172485714Y-69578571D01*
X172171428Y-69035714D02*
X172171428Y-68664285D01*
X172400000Y-68864285D01*
X172400000Y-68778571D01*
X172428571Y-68721428D01*
X172457142Y-68692857D01*
X172514285Y-68664285D01*
X172657142Y-68664285D01*
X172714285Y-68692857D01*
X172742857Y-68721428D01*
X172771428Y-68778571D01*
X172771428Y-68950000D01*
X172742857Y-69007142D01*
X172714285Y-69035714D01*
X172428571Y-68321428D02*
X172400000Y-68378571D01*
X172371428Y-68407142D01*
X172314285Y-68435714D01*
X172285714Y-68435714D01*
X172228571Y-68407142D01*
X172200000Y-68378571D01*
X172171428Y-68321428D01*
X172171428Y-68207142D01*
X172200000Y-68150000D01*
X172228571Y-68121428D01*
X172285714Y-68092857D01*
X172314285Y-68092857D01*
X172371428Y-68121428D01*
X172400000Y-68150000D01*
X172428571Y-68207142D01*
X172428571Y-68321428D01*
X172457142Y-68378571D01*
X172485714Y-68407142D01*
X172542857Y-68435714D01*
X172657142Y-68435714D01*
X172714285Y-68407142D01*
X172742857Y-68378571D01*
X172771428Y-68321428D01*
X172771428Y-68207142D01*
X172742857Y-68150000D01*
X172714285Y-68121428D01*
X172657142Y-68092857D01*
X172542857Y-68092857D01*
X172485714Y-68121428D01*
X172457142Y-68150000D01*
X172428571Y-68207142D01*
G04 #@! TO.C,R37*
X172771428Y-73285714D02*
X172485714Y-73485714D01*
X172771428Y-73628571D02*
X172171428Y-73628571D01*
X172171428Y-73400000D01*
X172200000Y-73342857D01*
X172228571Y-73314285D01*
X172285714Y-73285714D01*
X172371428Y-73285714D01*
X172428571Y-73314285D01*
X172457142Y-73342857D01*
X172485714Y-73400000D01*
X172485714Y-73628571D01*
X172171428Y-73085714D02*
X172171428Y-72714285D01*
X172400000Y-72914285D01*
X172400000Y-72828571D01*
X172428571Y-72771428D01*
X172457142Y-72742857D01*
X172514285Y-72714285D01*
X172657142Y-72714285D01*
X172714285Y-72742857D01*
X172742857Y-72771428D01*
X172771428Y-72828571D01*
X172771428Y-73000000D01*
X172742857Y-73057142D01*
X172714285Y-73085714D01*
X172171428Y-72514285D02*
X172171428Y-72114285D01*
X172771428Y-72371428D01*
G04 #@! TO.C,C54*
X162514285Y-69085714D02*
X162542857Y-69114285D01*
X162571428Y-69200000D01*
X162571428Y-69257142D01*
X162542857Y-69342857D01*
X162485714Y-69400000D01*
X162428571Y-69428571D01*
X162314285Y-69457142D01*
X162228571Y-69457142D01*
X162114285Y-69428571D01*
X162057142Y-69400000D01*
X162000000Y-69342857D01*
X161971428Y-69257142D01*
X161971428Y-69200000D01*
X162000000Y-69114285D01*
X162028571Y-69085714D01*
X161971428Y-68542857D02*
X161971428Y-68828571D01*
X162257142Y-68857142D01*
X162228571Y-68828571D01*
X162200000Y-68771428D01*
X162200000Y-68628571D01*
X162228571Y-68571428D01*
X162257142Y-68542857D01*
X162314285Y-68514285D01*
X162457142Y-68514285D01*
X162514285Y-68542857D01*
X162542857Y-68571428D01*
X162571428Y-68628571D01*
X162571428Y-68771428D01*
X162542857Y-68828571D01*
X162514285Y-68857142D01*
X162171428Y-68000000D02*
X162571428Y-68000000D01*
X161942857Y-68142857D02*
X162371428Y-68285714D01*
X162371428Y-67914285D01*
G04 #@! TO.C,C46*
X164814285Y-132885714D02*
X164842857Y-132914285D01*
X164871428Y-133000000D01*
X164871428Y-133057142D01*
X164842857Y-133142857D01*
X164785714Y-133200000D01*
X164728571Y-133228571D01*
X164614285Y-133257142D01*
X164528571Y-133257142D01*
X164414285Y-133228571D01*
X164357142Y-133200000D01*
X164300000Y-133142857D01*
X164271428Y-133057142D01*
X164271428Y-133000000D01*
X164300000Y-132914285D01*
X164328571Y-132885714D01*
X164471428Y-132371428D02*
X164871428Y-132371428D01*
X164242857Y-132514285D02*
X164671428Y-132657142D01*
X164671428Y-132285714D01*
X164271428Y-131800000D02*
X164271428Y-131914285D01*
X164300000Y-131971428D01*
X164328571Y-132000000D01*
X164414285Y-132057142D01*
X164528571Y-132085714D01*
X164757142Y-132085714D01*
X164814285Y-132057142D01*
X164842857Y-132028571D01*
X164871428Y-131971428D01*
X164871428Y-131857142D01*
X164842857Y-131800000D01*
X164814285Y-131771428D01*
X164757142Y-131742857D01*
X164614285Y-131742857D01*
X164557142Y-131771428D01*
X164528571Y-131800000D01*
X164500000Y-131857142D01*
X164500000Y-131971428D01*
X164528571Y-132028571D01*
X164557142Y-132057142D01*
X164614285Y-132085714D01*
G04 #@! TO.C,C45*
X163614285Y-125814285D02*
X163585714Y-125842857D01*
X163500000Y-125871428D01*
X163442857Y-125871428D01*
X163357142Y-125842857D01*
X163300000Y-125785714D01*
X163271428Y-125728571D01*
X163242857Y-125614285D01*
X163242857Y-125528571D01*
X163271428Y-125414285D01*
X163300000Y-125357142D01*
X163357142Y-125300000D01*
X163442857Y-125271428D01*
X163500000Y-125271428D01*
X163585714Y-125300000D01*
X163614285Y-125328571D01*
X164128571Y-125471428D02*
X164128571Y-125871428D01*
X163985714Y-125242857D02*
X163842857Y-125671428D01*
X164214285Y-125671428D01*
X164728571Y-125271428D02*
X164442857Y-125271428D01*
X164414285Y-125557142D01*
X164442857Y-125528571D01*
X164500000Y-125500000D01*
X164642857Y-125500000D01*
X164700000Y-125528571D01*
X164728571Y-125557142D01*
X164757142Y-125614285D01*
X164757142Y-125757142D01*
X164728571Y-125814285D01*
X164700000Y-125842857D01*
X164642857Y-125871428D01*
X164500000Y-125871428D01*
X164442857Y-125842857D01*
X164414285Y-125814285D01*
G04 #@! TO.C,C39*
X152214285Y-132885714D02*
X152242857Y-132914285D01*
X152271428Y-133000000D01*
X152271428Y-133057142D01*
X152242857Y-133142857D01*
X152185714Y-133200000D01*
X152128571Y-133228571D01*
X152014285Y-133257142D01*
X151928571Y-133257142D01*
X151814285Y-133228571D01*
X151757142Y-133200000D01*
X151700000Y-133142857D01*
X151671428Y-133057142D01*
X151671428Y-133000000D01*
X151700000Y-132914285D01*
X151728571Y-132885714D01*
X151671428Y-132685714D02*
X151671428Y-132314285D01*
X151900000Y-132514285D01*
X151900000Y-132428571D01*
X151928571Y-132371428D01*
X151957142Y-132342857D01*
X152014285Y-132314285D01*
X152157142Y-132314285D01*
X152214285Y-132342857D01*
X152242857Y-132371428D01*
X152271428Y-132428571D01*
X152271428Y-132600000D01*
X152242857Y-132657142D01*
X152214285Y-132685714D01*
X152271428Y-132028571D02*
X152271428Y-131914285D01*
X152242857Y-131857142D01*
X152214285Y-131828571D01*
X152128571Y-131771428D01*
X152014285Y-131742857D01*
X151785714Y-131742857D01*
X151728571Y-131771428D01*
X151700000Y-131800000D01*
X151671428Y-131857142D01*
X151671428Y-131971428D01*
X151700000Y-132028571D01*
X151728571Y-132057142D01*
X151785714Y-132085714D01*
X151928571Y-132085714D01*
X151985714Y-132057142D01*
X152014285Y-132028571D01*
X152042857Y-131971428D01*
X152042857Y-131857142D01*
X152014285Y-131800000D01*
X151985714Y-131771428D01*
X151928571Y-131742857D01*
G04 #@! TO.C,C38*
X147214285Y-125714285D02*
X147185714Y-125742857D01*
X147100000Y-125771428D01*
X147042857Y-125771428D01*
X146957142Y-125742857D01*
X146900000Y-125685714D01*
X146871428Y-125628571D01*
X146842857Y-125514285D01*
X146842857Y-125428571D01*
X146871428Y-125314285D01*
X146900000Y-125257142D01*
X146957142Y-125200000D01*
X147042857Y-125171428D01*
X147100000Y-125171428D01*
X147185714Y-125200000D01*
X147214285Y-125228571D01*
X147414285Y-125171428D02*
X147785714Y-125171428D01*
X147585714Y-125400000D01*
X147671428Y-125400000D01*
X147728571Y-125428571D01*
X147757142Y-125457142D01*
X147785714Y-125514285D01*
X147785714Y-125657142D01*
X147757142Y-125714285D01*
X147728571Y-125742857D01*
X147671428Y-125771428D01*
X147500000Y-125771428D01*
X147442857Y-125742857D01*
X147414285Y-125714285D01*
X148128571Y-125428571D02*
X148071428Y-125400000D01*
X148042857Y-125371428D01*
X148014285Y-125314285D01*
X148014285Y-125285714D01*
X148042857Y-125228571D01*
X148071428Y-125200000D01*
X148128571Y-125171428D01*
X148242857Y-125171428D01*
X148300000Y-125200000D01*
X148328571Y-125228571D01*
X148357142Y-125285714D01*
X148357142Y-125314285D01*
X148328571Y-125371428D01*
X148300000Y-125400000D01*
X148242857Y-125428571D01*
X148128571Y-125428571D01*
X148071428Y-125457142D01*
X148042857Y-125485714D01*
X148014285Y-125542857D01*
X148014285Y-125657142D01*
X148042857Y-125714285D01*
X148071428Y-125742857D01*
X148128571Y-125771428D01*
X148242857Y-125771428D01*
X148300000Y-125742857D01*
X148328571Y-125714285D01*
X148357142Y-125657142D01*
X148357142Y-125542857D01*
X148328571Y-125485714D01*
X148300000Y-125457142D01*
X148242857Y-125428571D01*
G04 #@! TO.C,C36*
X138114285Y-71214285D02*
X138085714Y-71242857D01*
X138000000Y-71271428D01*
X137942857Y-71271428D01*
X137857142Y-71242857D01*
X137800000Y-71185714D01*
X137771428Y-71128571D01*
X137742857Y-71014285D01*
X137742857Y-70928571D01*
X137771428Y-70814285D01*
X137800000Y-70757142D01*
X137857142Y-70700000D01*
X137942857Y-70671428D01*
X138000000Y-70671428D01*
X138085714Y-70700000D01*
X138114285Y-70728571D01*
X138314285Y-70671428D02*
X138685714Y-70671428D01*
X138485714Y-70900000D01*
X138571428Y-70900000D01*
X138628571Y-70928571D01*
X138657142Y-70957142D01*
X138685714Y-71014285D01*
X138685714Y-71157142D01*
X138657142Y-71214285D01*
X138628571Y-71242857D01*
X138571428Y-71271428D01*
X138400000Y-71271428D01*
X138342857Y-71242857D01*
X138314285Y-71214285D01*
X139200000Y-70671428D02*
X139085714Y-70671428D01*
X139028571Y-70700000D01*
X139000000Y-70728571D01*
X138942857Y-70814285D01*
X138914285Y-70928571D01*
X138914285Y-71157142D01*
X138942857Y-71214285D01*
X138971428Y-71242857D01*
X139028571Y-71271428D01*
X139142857Y-71271428D01*
X139200000Y-71242857D01*
X139228571Y-71214285D01*
X139257142Y-71157142D01*
X139257142Y-71014285D01*
X139228571Y-70957142D01*
X139200000Y-70928571D01*
X139142857Y-70900000D01*
X139028571Y-70900000D01*
X138971428Y-70928571D01*
X138942857Y-70957142D01*
X138914285Y-71014285D01*
G04 #@! TO.C,C22*
X120034285Y-120885714D02*
X120062857Y-120914285D01*
X120091428Y-121000000D01*
X120091428Y-121057142D01*
X120062857Y-121142857D01*
X120005714Y-121200000D01*
X119948571Y-121228571D01*
X119834285Y-121257142D01*
X119748571Y-121257142D01*
X119634285Y-121228571D01*
X119577142Y-121200000D01*
X119520000Y-121142857D01*
X119491428Y-121057142D01*
X119491428Y-121000000D01*
X119520000Y-120914285D01*
X119548571Y-120885714D01*
X119548571Y-120657142D02*
X119520000Y-120628571D01*
X119491428Y-120571428D01*
X119491428Y-120428571D01*
X119520000Y-120371428D01*
X119548571Y-120342857D01*
X119605714Y-120314285D01*
X119662857Y-120314285D01*
X119748571Y-120342857D01*
X120091428Y-120685714D01*
X120091428Y-120314285D01*
X119548571Y-120085714D02*
X119520000Y-120057142D01*
X119491428Y-120000000D01*
X119491428Y-119857142D01*
X119520000Y-119800000D01*
X119548571Y-119771428D01*
X119605714Y-119742857D01*
X119662857Y-119742857D01*
X119748571Y-119771428D01*
X120091428Y-120114285D01*
X120091428Y-119742857D01*
G04 #@! TO.C,C35*
X126214285Y-122885714D02*
X126242857Y-122914285D01*
X126271428Y-123000000D01*
X126271428Y-123057142D01*
X126242857Y-123142857D01*
X126185714Y-123200000D01*
X126128571Y-123228571D01*
X126014285Y-123257142D01*
X125928571Y-123257142D01*
X125814285Y-123228571D01*
X125757142Y-123200000D01*
X125700000Y-123142857D01*
X125671428Y-123057142D01*
X125671428Y-123000000D01*
X125700000Y-122914285D01*
X125728571Y-122885714D01*
X125671428Y-122685714D02*
X125671428Y-122314285D01*
X125900000Y-122514285D01*
X125900000Y-122428571D01*
X125928571Y-122371428D01*
X125957142Y-122342857D01*
X126014285Y-122314285D01*
X126157142Y-122314285D01*
X126214285Y-122342857D01*
X126242857Y-122371428D01*
X126271428Y-122428571D01*
X126271428Y-122600000D01*
X126242857Y-122657142D01*
X126214285Y-122685714D01*
X125671428Y-121771428D02*
X125671428Y-122057142D01*
X125957142Y-122085714D01*
X125928571Y-122057142D01*
X125900000Y-122000000D01*
X125900000Y-121857142D01*
X125928571Y-121800000D01*
X125957142Y-121771428D01*
X126014285Y-121742857D01*
X126157142Y-121742857D01*
X126214285Y-121771428D01*
X126242857Y-121800000D01*
X126271428Y-121857142D01*
X126271428Y-122000000D01*
X126242857Y-122057142D01*
X126214285Y-122085714D01*
G04 #@! TO.C,C20*
X116914285Y-120085714D02*
X116942857Y-120114285D01*
X116971428Y-120200000D01*
X116971428Y-120257142D01*
X116942857Y-120342857D01*
X116885714Y-120400000D01*
X116828571Y-120428571D01*
X116714285Y-120457142D01*
X116628571Y-120457142D01*
X116514285Y-120428571D01*
X116457142Y-120400000D01*
X116400000Y-120342857D01*
X116371428Y-120257142D01*
X116371428Y-120200000D01*
X116400000Y-120114285D01*
X116428571Y-120085714D01*
X116428571Y-119857142D02*
X116400000Y-119828571D01*
X116371428Y-119771428D01*
X116371428Y-119628571D01*
X116400000Y-119571428D01*
X116428571Y-119542857D01*
X116485714Y-119514285D01*
X116542857Y-119514285D01*
X116628571Y-119542857D01*
X116971428Y-119885714D01*
X116971428Y-119514285D01*
X116371428Y-119142857D02*
X116371428Y-119085714D01*
X116400000Y-119028571D01*
X116428571Y-119000000D01*
X116485714Y-118971428D01*
X116600000Y-118942857D01*
X116742857Y-118942857D01*
X116857142Y-118971428D01*
X116914285Y-119000000D01*
X116942857Y-119028571D01*
X116971428Y-119085714D01*
X116971428Y-119142857D01*
X116942857Y-119200000D01*
X116914285Y-119228571D01*
X116857142Y-119257142D01*
X116742857Y-119285714D01*
X116600000Y-119285714D01*
X116485714Y-119257142D01*
X116428571Y-119228571D01*
X116400000Y-119200000D01*
X116371428Y-119142857D01*
G04 #@! TO.C,C18*
X116094285Y-112085714D02*
X116122857Y-112114285D01*
X116151428Y-112200000D01*
X116151428Y-112257142D01*
X116122857Y-112342857D01*
X116065714Y-112400000D01*
X116008571Y-112428571D01*
X115894285Y-112457142D01*
X115808571Y-112457142D01*
X115694285Y-112428571D01*
X115637142Y-112400000D01*
X115580000Y-112342857D01*
X115551428Y-112257142D01*
X115551428Y-112200000D01*
X115580000Y-112114285D01*
X115608571Y-112085714D01*
X116151428Y-111514285D02*
X116151428Y-111857142D01*
X116151428Y-111685714D02*
X115551428Y-111685714D01*
X115637142Y-111742857D01*
X115694285Y-111800000D01*
X115722857Y-111857142D01*
X115808571Y-111171428D02*
X115780000Y-111228571D01*
X115751428Y-111257142D01*
X115694285Y-111285714D01*
X115665714Y-111285714D01*
X115608571Y-111257142D01*
X115580000Y-111228571D01*
X115551428Y-111171428D01*
X115551428Y-111057142D01*
X115580000Y-111000000D01*
X115608571Y-110971428D01*
X115665714Y-110942857D01*
X115694285Y-110942857D01*
X115751428Y-110971428D01*
X115780000Y-111000000D01*
X115808571Y-111057142D01*
X115808571Y-111171428D01*
X115837142Y-111228571D01*
X115865714Y-111257142D01*
X115922857Y-111285714D01*
X116037142Y-111285714D01*
X116094285Y-111257142D01*
X116122857Y-111228571D01*
X116151428Y-111171428D01*
X116151428Y-111057142D01*
X116122857Y-111000000D01*
X116094285Y-110971428D01*
X116037142Y-110942857D01*
X115922857Y-110942857D01*
X115865714Y-110971428D01*
X115837142Y-111000000D01*
X115808571Y-111057142D01*
G04 #@! TO.C,C42*
X139014285Y-70014285D02*
X138985714Y-70042857D01*
X138900000Y-70071428D01*
X138842857Y-70071428D01*
X138757142Y-70042857D01*
X138700000Y-69985714D01*
X138671428Y-69928571D01*
X138642857Y-69814285D01*
X138642857Y-69728571D01*
X138671428Y-69614285D01*
X138700000Y-69557142D01*
X138757142Y-69500000D01*
X138842857Y-69471428D01*
X138900000Y-69471428D01*
X138985714Y-69500000D01*
X139014285Y-69528571D01*
X139528571Y-69671428D02*
X139528571Y-70071428D01*
X139385714Y-69442857D02*
X139242857Y-69871428D01*
X139614285Y-69871428D01*
X139814285Y-69528571D02*
X139842857Y-69500000D01*
X139900000Y-69471428D01*
X140042857Y-69471428D01*
X140100000Y-69500000D01*
X140128571Y-69528571D01*
X140157142Y-69585714D01*
X140157142Y-69642857D01*
X140128571Y-69728571D01*
X139785714Y-70071428D01*
X140157142Y-70071428D01*
G04 #@! TO.C,C34*
X159614285Y-119014285D02*
X159585714Y-119042857D01*
X159500000Y-119071428D01*
X159442857Y-119071428D01*
X159357142Y-119042857D01*
X159300000Y-118985714D01*
X159271428Y-118928571D01*
X159242857Y-118814285D01*
X159242857Y-118728571D01*
X159271428Y-118614285D01*
X159300000Y-118557142D01*
X159357142Y-118500000D01*
X159442857Y-118471428D01*
X159500000Y-118471428D01*
X159585714Y-118500000D01*
X159614285Y-118528571D01*
X159814285Y-118471428D02*
X160185714Y-118471428D01*
X159985714Y-118700000D01*
X160071428Y-118700000D01*
X160128571Y-118728571D01*
X160157142Y-118757142D01*
X160185714Y-118814285D01*
X160185714Y-118957142D01*
X160157142Y-119014285D01*
X160128571Y-119042857D01*
X160071428Y-119071428D01*
X159900000Y-119071428D01*
X159842857Y-119042857D01*
X159814285Y-119014285D01*
X160700000Y-118671428D02*
X160700000Y-119071428D01*
X160557142Y-118442857D02*
X160414285Y-118871428D01*
X160785714Y-118871428D01*
G04 #@! TO.C,C25*
X140514285Y-83585714D02*
X140542857Y-83614285D01*
X140571428Y-83700000D01*
X140571428Y-83757142D01*
X140542857Y-83842857D01*
X140485714Y-83900000D01*
X140428571Y-83928571D01*
X140314285Y-83957142D01*
X140228571Y-83957142D01*
X140114285Y-83928571D01*
X140057142Y-83900000D01*
X140000000Y-83842857D01*
X139971428Y-83757142D01*
X139971428Y-83700000D01*
X140000000Y-83614285D01*
X140028571Y-83585714D01*
X140028571Y-83357142D02*
X140000000Y-83328571D01*
X139971428Y-83271428D01*
X139971428Y-83128571D01*
X140000000Y-83071428D01*
X140028571Y-83042857D01*
X140085714Y-83014285D01*
X140142857Y-83014285D01*
X140228571Y-83042857D01*
X140571428Y-83385714D01*
X140571428Y-83014285D01*
X139971428Y-82471428D02*
X139971428Y-82757142D01*
X140257142Y-82785714D01*
X140228571Y-82757142D01*
X140200000Y-82700000D01*
X140200000Y-82557142D01*
X140228571Y-82500000D01*
X140257142Y-82471428D01*
X140314285Y-82442857D01*
X140457142Y-82442857D01*
X140514285Y-82471428D01*
X140542857Y-82500000D01*
X140571428Y-82557142D01*
X140571428Y-82700000D01*
X140542857Y-82757142D01*
X140514285Y-82785714D01*
G04 #@! TO.C,C26*
X144814285Y-83635714D02*
X144842857Y-83664285D01*
X144871428Y-83750000D01*
X144871428Y-83807142D01*
X144842857Y-83892857D01*
X144785714Y-83950000D01*
X144728571Y-83978571D01*
X144614285Y-84007142D01*
X144528571Y-84007142D01*
X144414285Y-83978571D01*
X144357142Y-83950000D01*
X144300000Y-83892857D01*
X144271428Y-83807142D01*
X144271428Y-83750000D01*
X144300000Y-83664285D01*
X144328571Y-83635714D01*
X144328571Y-83407142D02*
X144300000Y-83378571D01*
X144271428Y-83321428D01*
X144271428Y-83178571D01*
X144300000Y-83121428D01*
X144328571Y-83092857D01*
X144385714Y-83064285D01*
X144442857Y-83064285D01*
X144528571Y-83092857D01*
X144871428Y-83435714D01*
X144871428Y-83064285D01*
X144271428Y-82550000D02*
X144271428Y-82664285D01*
X144300000Y-82721428D01*
X144328571Y-82750000D01*
X144414285Y-82807142D01*
X144528571Y-82835714D01*
X144757142Y-82835714D01*
X144814285Y-82807142D01*
X144842857Y-82778571D01*
X144871428Y-82721428D01*
X144871428Y-82607142D01*
X144842857Y-82550000D01*
X144814285Y-82521428D01*
X144757142Y-82492857D01*
X144614285Y-82492857D01*
X144557142Y-82521428D01*
X144528571Y-82550000D01*
X144500000Y-82607142D01*
X144500000Y-82721428D01*
X144528571Y-82778571D01*
X144557142Y-82807142D01*
X144614285Y-82835714D01*
G04 #@! TO.C,C29*
X139314285Y-83635714D02*
X139342857Y-83664285D01*
X139371428Y-83750000D01*
X139371428Y-83807142D01*
X139342857Y-83892857D01*
X139285714Y-83950000D01*
X139228571Y-83978571D01*
X139114285Y-84007142D01*
X139028571Y-84007142D01*
X138914285Y-83978571D01*
X138857142Y-83950000D01*
X138800000Y-83892857D01*
X138771428Y-83807142D01*
X138771428Y-83750000D01*
X138800000Y-83664285D01*
X138828571Y-83635714D01*
X138828571Y-83407142D02*
X138800000Y-83378571D01*
X138771428Y-83321428D01*
X138771428Y-83178571D01*
X138800000Y-83121428D01*
X138828571Y-83092857D01*
X138885714Y-83064285D01*
X138942857Y-83064285D01*
X139028571Y-83092857D01*
X139371428Y-83435714D01*
X139371428Y-83064285D01*
X139371428Y-82778571D02*
X139371428Y-82664285D01*
X139342857Y-82607142D01*
X139314285Y-82578571D01*
X139228571Y-82521428D01*
X139114285Y-82492857D01*
X138885714Y-82492857D01*
X138828571Y-82521428D01*
X138800000Y-82550000D01*
X138771428Y-82607142D01*
X138771428Y-82721428D01*
X138800000Y-82778571D01*
X138828571Y-82807142D01*
X138885714Y-82835714D01*
X139028571Y-82835714D01*
X139085714Y-82807142D01*
X139114285Y-82778571D01*
X139142857Y-82721428D01*
X139142857Y-82607142D01*
X139114285Y-82550000D01*
X139085714Y-82521428D01*
X139028571Y-82492857D01*
G04 #@! TO.C,C27*
X148914285Y-83485714D02*
X148942857Y-83514285D01*
X148971428Y-83600000D01*
X148971428Y-83657142D01*
X148942857Y-83742857D01*
X148885714Y-83800000D01*
X148828571Y-83828571D01*
X148714285Y-83857142D01*
X148628571Y-83857142D01*
X148514285Y-83828571D01*
X148457142Y-83800000D01*
X148400000Y-83742857D01*
X148371428Y-83657142D01*
X148371428Y-83600000D01*
X148400000Y-83514285D01*
X148428571Y-83485714D01*
X148428571Y-83257142D02*
X148400000Y-83228571D01*
X148371428Y-83171428D01*
X148371428Y-83028571D01*
X148400000Y-82971428D01*
X148428571Y-82942857D01*
X148485714Y-82914285D01*
X148542857Y-82914285D01*
X148628571Y-82942857D01*
X148971428Y-83285714D01*
X148971428Y-82914285D01*
X148371428Y-82714285D02*
X148371428Y-82314285D01*
X148971428Y-82571428D01*
G04 #@! TO.C,C28*
X153014285Y-83455714D02*
X153042857Y-83484285D01*
X153071428Y-83570000D01*
X153071428Y-83627142D01*
X153042857Y-83712857D01*
X152985714Y-83770000D01*
X152928571Y-83798571D01*
X152814285Y-83827142D01*
X152728571Y-83827142D01*
X152614285Y-83798571D01*
X152557142Y-83770000D01*
X152500000Y-83712857D01*
X152471428Y-83627142D01*
X152471428Y-83570000D01*
X152500000Y-83484285D01*
X152528571Y-83455714D01*
X152528571Y-83227142D02*
X152500000Y-83198571D01*
X152471428Y-83141428D01*
X152471428Y-82998571D01*
X152500000Y-82941428D01*
X152528571Y-82912857D01*
X152585714Y-82884285D01*
X152642857Y-82884285D01*
X152728571Y-82912857D01*
X153071428Y-83255714D01*
X153071428Y-82884285D01*
X152728571Y-82541428D02*
X152700000Y-82598571D01*
X152671428Y-82627142D01*
X152614285Y-82655714D01*
X152585714Y-82655714D01*
X152528571Y-82627142D01*
X152500000Y-82598571D01*
X152471428Y-82541428D01*
X152471428Y-82427142D01*
X152500000Y-82370000D01*
X152528571Y-82341428D01*
X152585714Y-82312857D01*
X152614285Y-82312857D01*
X152671428Y-82341428D01*
X152700000Y-82370000D01*
X152728571Y-82427142D01*
X152728571Y-82541428D01*
X152757142Y-82598571D01*
X152785714Y-82627142D01*
X152842857Y-82655714D01*
X152957142Y-82655714D01*
X153014285Y-82627142D01*
X153042857Y-82598571D01*
X153071428Y-82541428D01*
X153071428Y-82427142D01*
X153042857Y-82370000D01*
X153014285Y-82341428D01*
X152957142Y-82312857D01*
X152842857Y-82312857D01*
X152785714Y-82341428D01*
X152757142Y-82370000D01*
X152728571Y-82427142D01*
G04 #@! TO.C,C30*
X143514285Y-83635714D02*
X143542857Y-83664285D01*
X143571428Y-83750000D01*
X143571428Y-83807142D01*
X143542857Y-83892857D01*
X143485714Y-83950000D01*
X143428571Y-83978571D01*
X143314285Y-84007142D01*
X143228571Y-84007142D01*
X143114285Y-83978571D01*
X143057142Y-83950000D01*
X143000000Y-83892857D01*
X142971428Y-83807142D01*
X142971428Y-83750000D01*
X143000000Y-83664285D01*
X143028571Y-83635714D01*
X142971428Y-83435714D02*
X142971428Y-83064285D01*
X143200000Y-83264285D01*
X143200000Y-83178571D01*
X143228571Y-83121428D01*
X143257142Y-83092857D01*
X143314285Y-83064285D01*
X143457142Y-83064285D01*
X143514285Y-83092857D01*
X143542857Y-83121428D01*
X143571428Y-83178571D01*
X143571428Y-83350000D01*
X143542857Y-83407142D01*
X143514285Y-83435714D01*
X142971428Y-82692857D02*
X142971428Y-82635714D01*
X143000000Y-82578571D01*
X143028571Y-82550000D01*
X143085714Y-82521428D01*
X143200000Y-82492857D01*
X143342857Y-82492857D01*
X143457142Y-82521428D01*
X143514285Y-82550000D01*
X143542857Y-82578571D01*
X143571428Y-82635714D01*
X143571428Y-82692857D01*
X143542857Y-82750000D01*
X143514285Y-82778571D01*
X143457142Y-82807142D01*
X143342857Y-82835714D01*
X143200000Y-82835714D01*
X143085714Y-82807142D01*
X143028571Y-82778571D01*
X143000000Y-82750000D01*
X142971428Y-82692857D01*
G04 #@! TO.C,C31*
X147714285Y-83485714D02*
X147742857Y-83514285D01*
X147771428Y-83600000D01*
X147771428Y-83657142D01*
X147742857Y-83742857D01*
X147685714Y-83800000D01*
X147628571Y-83828571D01*
X147514285Y-83857142D01*
X147428571Y-83857142D01*
X147314285Y-83828571D01*
X147257142Y-83800000D01*
X147200000Y-83742857D01*
X147171428Y-83657142D01*
X147171428Y-83600000D01*
X147200000Y-83514285D01*
X147228571Y-83485714D01*
X147171428Y-83285714D02*
X147171428Y-82914285D01*
X147400000Y-83114285D01*
X147400000Y-83028571D01*
X147428571Y-82971428D01*
X147457142Y-82942857D01*
X147514285Y-82914285D01*
X147657142Y-82914285D01*
X147714285Y-82942857D01*
X147742857Y-82971428D01*
X147771428Y-83028571D01*
X147771428Y-83200000D01*
X147742857Y-83257142D01*
X147714285Y-83285714D01*
X147771428Y-82342857D02*
X147771428Y-82685714D01*
X147771428Y-82514285D02*
X147171428Y-82514285D01*
X147257142Y-82571428D01*
X147314285Y-82628571D01*
X147342857Y-82685714D01*
G04 #@! TO.C,C32*
X151814285Y-83455714D02*
X151842857Y-83484285D01*
X151871428Y-83570000D01*
X151871428Y-83627142D01*
X151842857Y-83712857D01*
X151785714Y-83770000D01*
X151728571Y-83798571D01*
X151614285Y-83827142D01*
X151528571Y-83827142D01*
X151414285Y-83798571D01*
X151357142Y-83770000D01*
X151300000Y-83712857D01*
X151271428Y-83627142D01*
X151271428Y-83570000D01*
X151300000Y-83484285D01*
X151328571Y-83455714D01*
X151271428Y-83255714D02*
X151271428Y-82884285D01*
X151500000Y-83084285D01*
X151500000Y-82998571D01*
X151528571Y-82941428D01*
X151557142Y-82912857D01*
X151614285Y-82884285D01*
X151757142Y-82884285D01*
X151814285Y-82912857D01*
X151842857Y-82941428D01*
X151871428Y-82998571D01*
X151871428Y-83170000D01*
X151842857Y-83227142D01*
X151814285Y-83255714D01*
X151328571Y-82655714D02*
X151300000Y-82627142D01*
X151271428Y-82570000D01*
X151271428Y-82427142D01*
X151300000Y-82370000D01*
X151328571Y-82341428D01*
X151385714Y-82312857D01*
X151442857Y-82312857D01*
X151528571Y-82341428D01*
X151871428Y-82684285D01*
X151871428Y-82312857D01*
G04 #@! TO.C,C106*
X99714285Y-77671428D02*
X99742857Y-77700000D01*
X99771428Y-77785714D01*
X99771428Y-77842857D01*
X99742857Y-77928571D01*
X99685714Y-77985714D01*
X99628571Y-78014285D01*
X99514285Y-78042857D01*
X99428571Y-78042857D01*
X99314285Y-78014285D01*
X99257142Y-77985714D01*
X99200000Y-77928571D01*
X99171428Y-77842857D01*
X99171428Y-77785714D01*
X99200000Y-77700000D01*
X99228571Y-77671428D01*
X99771428Y-77100000D02*
X99771428Y-77442857D01*
X99771428Y-77271428D02*
X99171428Y-77271428D01*
X99257142Y-77328571D01*
X99314285Y-77385714D01*
X99342857Y-77442857D01*
X99171428Y-76728571D02*
X99171428Y-76671428D01*
X99200000Y-76614285D01*
X99228571Y-76585714D01*
X99285714Y-76557142D01*
X99400000Y-76528571D01*
X99542857Y-76528571D01*
X99657142Y-76557142D01*
X99714285Y-76585714D01*
X99742857Y-76614285D01*
X99771428Y-76671428D01*
X99771428Y-76728571D01*
X99742857Y-76785714D01*
X99714285Y-76814285D01*
X99657142Y-76842857D01*
X99542857Y-76871428D01*
X99400000Y-76871428D01*
X99285714Y-76842857D01*
X99228571Y-76814285D01*
X99200000Y-76785714D01*
X99171428Y-76728571D01*
X99171428Y-76014285D02*
X99171428Y-76128571D01*
X99200000Y-76185714D01*
X99228571Y-76214285D01*
X99314285Y-76271428D01*
X99428571Y-76300000D01*
X99657142Y-76300000D01*
X99714285Y-76271428D01*
X99742857Y-76242857D01*
X99771428Y-76185714D01*
X99771428Y-76071428D01*
X99742857Y-76014285D01*
X99714285Y-75985714D01*
X99657142Y-75957142D01*
X99514285Y-75957142D01*
X99457142Y-75985714D01*
X99428571Y-76014285D01*
X99400000Y-76071428D01*
X99400000Y-76185714D01*
X99428571Y-76242857D01*
X99457142Y-76271428D01*
X99514285Y-76300000D01*
G04 #@! TO.C,C107*
X176928571Y-68914285D02*
X176900000Y-68942857D01*
X176814285Y-68971428D01*
X176757142Y-68971428D01*
X176671428Y-68942857D01*
X176614285Y-68885714D01*
X176585714Y-68828571D01*
X176557142Y-68714285D01*
X176557142Y-68628571D01*
X176585714Y-68514285D01*
X176614285Y-68457142D01*
X176671428Y-68400000D01*
X176757142Y-68371428D01*
X176814285Y-68371428D01*
X176900000Y-68400000D01*
X176928571Y-68428571D01*
X177500000Y-68971428D02*
X177157142Y-68971428D01*
X177328571Y-68971428D02*
X177328571Y-68371428D01*
X177271428Y-68457142D01*
X177214285Y-68514285D01*
X177157142Y-68542857D01*
X177871428Y-68371428D02*
X177928571Y-68371428D01*
X177985714Y-68400000D01*
X178014285Y-68428571D01*
X178042857Y-68485714D01*
X178071428Y-68600000D01*
X178071428Y-68742857D01*
X178042857Y-68857142D01*
X178014285Y-68914285D01*
X177985714Y-68942857D01*
X177928571Y-68971428D01*
X177871428Y-68971428D01*
X177814285Y-68942857D01*
X177785714Y-68914285D01*
X177757142Y-68857142D01*
X177728571Y-68742857D01*
X177728571Y-68600000D01*
X177757142Y-68485714D01*
X177785714Y-68428571D01*
X177814285Y-68400000D01*
X177871428Y-68371428D01*
X178271428Y-68371428D02*
X178671428Y-68371428D01*
X178414285Y-68971428D01*
G04 #@! TO.C,C43*
X151614285Y-68464285D02*
X151585714Y-68492857D01*
X151500000Y-68521428D01*
X151442857Y-68521428D01*
X151357142Y-68492857D01*
X151300000Y-68435714D01*
X151271428Y-68378571D01*
X151242857Y-68264285D01*
X151242857Y-68178571D01*
X151271428Y-68064285D01*
X151300000Y-68007142D01*
X151357142Y-67950000D01*
X151442857Y-67921428D01*
X151500000Y-67921428D01*
X151585714Y-67950000D01*
X151614285Y-67978571D01*
X152128571Y-68121428D02*
X152128571Y-68521428D01*
X151985714Y-67892857D02*
X151842857Y-68321428D01*
X152214285Y-68321428D01*
X152385714Y-67921428D02*
X152757142Y-67921428D01*
X152557142Y-68150000D01*
X152642857Y-68150000D01*
X152700000Y-68178571D01*
X152728571Y-68207142D01*
X152757142Y-68264285D01*
X152757142Y-68407142D01*
X152728571Y-68464285D01*
X152700000Y-68492857D01*
X152642857Y-68521428D01*
X152471428Y-68521428D01*
X152414285Y-68492857D01*
X152385714Y-68464285D01*
G04 #@! TO.C,C8*
X147314285Y-124400000D02*
X147342857Y-124428571D01*
X147371428Y-124514285D01*
X147371428Y-124571428D01*
X147342857Y-124657142D01*
X147285714Y-124714285D01*
X147228571Y-124742857D01*
X147114285Y-124771428D01*
X147028571Y-124771428D01*
X146914285Y-124742857D01*
X146857142Y-124714285D01*
X146800000Y-124657142D01*
X146771428Y-124571428D01*
X146771428Y-124514285D01*
X146800000Y-124428571D01*
X146828571Y-124400000D01*
X147028571Y-124057142D02*
X147000000Y-124114285D01*
X146971428Y-124142857D01*
X146914285Y-124171428D01*
X146885714Y-124171428D01*
X146828571Y-124142857D01*
X146800000Y-124114285D01*
X146771428Y-124057142D01*
X146771428Y-123942857D01*
X146800000Y-123885714D01*
X146828571Y-123857142D01*
X146885714Y-123828571D01*
X146914285Y-123828571D01*
X146971428Y-123857142D01*
X147000000Y-123885714D01*
X147028571Y-123942857D01*
X147028571Y-124057142D01*
X147057142Y-124114285D01*
X147085714Y-124142857D01*
X147142857Y-124171428D01*
X147257142Y-124171428D01*
X147314285Y-124142857D01*
X147342857Y-124114285D01*
X147371428Y-124057142D01*
X147371428Y-123942857D01*
X147342857Y-123885714D01*
X147314285Y-123857142D01*
X147257142Y-123828571D01*
X147142857Y-123828571D01*
X147085714Y-123857142D01*
X147057142Y-123885714D01*
X147028571Y-123942857D01*
G04 #@! TO.C,C11*
X137714285Y-123885714D02*
X137742857Y-123914285D01*
X137771428Y-124000000D01*
X137771428Y-124057142D01*
X137742857Y-124142857D01*
X137685714Y-124200000D01*
X137628571Y-124228571D01*
X137514285Y-124257142D01*
X137428571Y-124257142D01*
X137314285Y-124228571D01*
X137257142Y-124200000D01*
X137200000Y-124142857D01*
X137171428Y-124057142D01*
X137171428Y-124000000D01*
X137200000Y-123914285D01*
X137228571Y-123885714D01*
X137771428Y-123314285D02*
X137771428Y-123657142D01*
X137771428Y-123485714D02*
X137171428Y-123485714D01*
X137257142Y-123542857D01*
X137314285Y-123600000D01*
X137342857Y-123657142D01*
X137771428Y-122742857D02*
X137771428Y-123085714D01*
X137771428Y-122914285D02*
X137171428Y-122914285D01*
X137257142Y-122971428D01*
X137314285Y-123028571D01*
X137342857Y-123085714D01*
G04 #@! TO.C,C48*
X158914285Y-124214285D02*
X158885714Y-124242857D01*
X158800000Y-124271428D01*
X158742857Y-124271428D01*
X158657142Y-124242857D01*
X158600000Y-124185714D01*
X158571428Y-124128571D01*
X158542857Y-124014285D01*
X158542857Y-123928571D01*
X158571428Y-123814285D01*
X158600000Y-123757142D01*
X158657142Y-123700000D01*
X158742857Y-123671428D01*
X158800000Y-123671428D01*
X158885714Y-123700000D01*
X158914285Y-123728571D01*
X159428571Y-123871428D02*
X159428571Y-124271428D01*
X159285714Y-123642857D02*
X159142857Y-124071428D01*
X159514285Y-124071428D01*
X159828571Y-123928571D02*
X159771428Y-123900000D01*
X159742857Y-123871428D01*
X159714285Y-123814285D01*
X159714285Y-123785714D01*
X159742857Y-123728571D01*
X159771428Y-123700000D01*
X159828571Y-123671428D01*
X159942857Y-123671428D01*
X160000000Y-123700000D01*
X160028571Y-123728571D01*
X160057142Y-123785714D01*
X160057142Y-123814285D01*
X160028571Y-123871428D01*
X160000000Y-123900000D01*
X159942857Y-123928571D01*
X159828571Y-123928571D01*
X159771428Y-123957142D01*
X159742857Y-123985714D01*
X159714285Y-124042857D01*
X159714285Y-124157142D01*
X159742857Y-124214285D01*
X159771428Y-124242857D01*
X159828571Y-124271428D01*
X159942857Y-124271428D01*
X160000000Y-124242857D01*
X160028571Y-124214285D01*
X160057142Y-124157142D01*
X160057142Y-124042857D01*
X160028571Y-123985714D01*
X160000000Y-123957142D01*
X159942857Y-123928571D01*
G04 #@! TO.C,C51*
X148714285Y-123885714D02*
X148742857Y-123914285D01*
X148771428Y-124000000D01*
X148771428Y-124057142D01*
X148742857Y-124142857D01*
X148685714Y-124200000D01*
X148628571Y-124228571D01*
X148514285Y-124257142D01*
X148428571Y-124257142D01*
X148314285Y-124228571D01*
X148257142Y-124200000D01*
X148200000Y-124142857D01*
X148171428Y-124057142D01*
X148171428Y-124000000D01*
X148200000Y-123914285D01*
X148228571Y-123885714D01*
X148171428Y-123342857D02*
X148171428Y-123628571D01*
X148457142Y-123657142D01*
X148428571Y-123628571D01*
X148400000Y-123571428D01*
X148400000Y-123428571D01*
X148428571Y-123371428D01*
X148457142Y-123342857D01*
X148514285Y-123314285D01*
X148657142Y-123314285D01*
X148714285Y-123342857D01*
X148742857Y-123371428D01*
X148771428Y-123428571D01*
X148771428Y-123571428D01*
X148742857Y-123628571D01*
X148714285Y-123657142D01*
X148771428Y-122742857D02*
X148771428Y-123085714D01*
X148771428Y-122914285D02*
X148171428Y-122914285D01*
X148257142Y-122971428D01*
X148314285Y-123028571D01*
X148342857Y-123085714D01*
G04 #@! TO.C,C33*
X159104285Y-114519285D02*
X159075714Y-114547857D01*
X158990000Y-114576428D01*
X158932857Y-114576428D01*
X158847142Y-114547857D01*
X158790000Y-114490714D01*
X158761428Y-114433571D01*
X158732857Y-114319285D01*
X158732857Y-114233571D01*
X158761428Y-114119285D01*
X158790000Y-114062142D01*
X158847142Y-114005000D01*
X158932857Y-113976428D01*
X158990000Y-113976428D01*
X159075714Y-114005000D01*
X159104285Y-114033571D01*
X159304285Y-113976428D02*
X159675714Y-113976428D01*
X159475714Y-114205000D01*
X159561428Y-114205000D01*
X159618571Y-114233571D01*
X159647142Y-114262142D01*
X159675714Y-114319285D01*
X159675714Y-114462142D01*
X159647142Y-114519285D01*
X159618571Y-114547857D01*
X159561428Y-114576428D01*
X159390000Y-114576428D01*
X159332857Y-114547857D01*
X159304285Y-114519285D01*
X159875714Y-113976428D02*
X160247142Y-113976428D01*
X160047142Y-114205000D01*
X160132857Y-114205000D01*
X160190000Y-114233571D01*
X160218571Y-114262142D01*
X160247142Y-114319285D01*
X160247142Y-114462142D01*
X160218571Y-114519285D01*
X160190000Y-114547857D01*
X160132857Y-114576428D01*
X159961428Y-114576428D01*
X159904285Y-114547857D01*
X159875714Y-114519285D01*
G04 #@! TO.C,C105*
X101214285Y-68671428D02*
X101242857Y-68700000D01*
X101271428Y-68785714D01*
X101271428Y-68842857D01*
X101242857Y-68928571D01*
X101185714Y-68985714D01*
X101128571Y-69014285D01*
X101014285Y-69042857D01*
X100928571Y-69042857D01*
X100814285Y-69014285D01*
X100757142Y-68985714D01*
X100700000Y-68928571D01*
X100671428Y-68842857D01*
X100671428Y-68785714D01*
X100700000Y-68700000D01*
X100728571Y-68671428D01*
X101271428Y-68100000D02*
X101271428Y-68442857D01*
X101271428Y-68271428D02*
X100671428Y-68271428D01*
X100757142Y-68328571D01*
X100814285Y-68385714D01*
X100842857Y-68442857D01*
X100671428Y-67728571D02*
X100671428Y-67671428D01*
X100700000Y-67614285D01*
X100728571Y-67585714D01*
X100785714Y-67557142D01*
X100900000Y-67528571D01*
X101042857Y-67528571D01*
X101157142Y-67557142D01*
X101214285Y-67585714D01*
X101242857Y-67614285D01*
X101271428Y-67671428D01*
X101271428Y-67728571D01*
X101242857Y-67785714D01*
X101214285Y-67814285D01*
X101157142Y-67842857D01*
X101042857Y-67871428D01*
X100900000Y-67871428D01*
X100785714Y-67842857D01*
X100728571Y-67814285D01*
X100700000Y-67785714D01*
X100671428Y-67728571D01*
X100671428Y-66985714D02*
X100671428Y-67271428D01*
X100957142Y-67300000D01*
X100928571Y-67271428D01*
X100900000Y-67214285D01*
X100900000Y-67071428D01*
X100928571Y-67014285D01*
X100957142Y-66985714D01*
X101014285Y-66957142D01*
X101157142Y-66957142D01*
X101214285Y-66985714D01*
X101242857Y-67014285D01*
X101271428Y-67071428D01*
X101271428Y-67214285D01*
X101242857Y-67271428D01*
X101214285Y-67300000D01*
G04 #@! TO.C,C102*
X138614285Y-121371428D02*
X138642857Y-121400000D01*
X138671428Y-121485714D01*
X138671428Y-121542857D01*
X138642857Y-121628571D01*
X138585714Y-121685714D01*
X138528571Y-121714285D01*
X138414285Y-121742857D01*
X138328571Y-121742857D01*
X138214285Y-121714285D01*
X138157142Y-121685714D01*
X138100000Y-121628571D01*
X138071428Y-121542857D01*
X138071428Y-121485714D01*
X138100000Y-121400000D01*
X138128571Y-121371428D01*
X138671428Y-120800000D02*
X138671428Y-121142857D01*
X138671428Y-120971428D02*
X138071428Y-120971428D01*
X138157142Y-121028571D01*
X138214285Y-121085714D01*
X138242857Y-121142857D01*
X138071428Y-120428571D02*
X138071428Y-120371428D01*
X138100000Y-120314285D01*
X138128571Y-120285714D01*
X138185714Y-120257142D01*
X138300000Y-120228571D01*
X138442857Y-120228571D01*
X138557142Y-120257142D01*
X138614285Y-120285714D01*
X138642857Y-120314285D01*
X138671428Y-120371428D01*
X138671428Y-120428571D01*
X138642857Y-120485714D01*
X138614285Y-120514285D01*
X138557142Y-120542857D01*
X138442857Y-120571428D01*
X138300000Y-120571428D01*
X138185714Y-120542857D01*
X138128571Y-120514285D01*
X138100000Y-120485714D01*
X138071428Y-120428571D01*
X138128571Y-120000000D02*
X138100000Y-119971428D01*
X138071428Y-119914285D01*
X138071428Y-119771428D01*
X138100000Y-119714285D01*
X138128571Y-119685714D01*
X138185714Y-119657142D01*
X138242857Y-119657142D01*
X138328571Y-119685714D01*
X138671428Y-120028571D01*
X138671428Y-119657142D01*
G04 #@! TO.C,C92*
X164114285Y-76214285D02*
X164085714Y-76242857D01*
X164000000Y-76271428D01*
X163942857Y-76271428D01*
X163857142Y-76242857D01*
X163800000Y-76185714D01*
X163771428Y-76128571D01*
X163742857Y-76014285D01*
X163742857Y-75928571D01*
X163771428Y-75814285D01*
X163800000Y-75757142D01*
X163857142Y-75700000D01*
X163942857Y-75671428D01*
X164000000Y-75671428D01*
X164085714Y-75700000D01*
X164114285Y-75728571D01*
X164400000Y-76271428D02*
X164514285Y-76271428D01*
X164571428Y-76242857D01*
X164600000Y-76214285D01*
X164657142Y-76128571D01*
X164685714Y-76014285D01*
X164685714Y-75785714D01*
X164657142Y-75728571D01*
X164628571Y-75700000D01*
X164571428Y-75671428D01*
X164457142Y-75671428D01*
X164400000Y-75700000D01*
X164371428Y-75728571D01*
X164342857Y-75785714D01*
X164342857Y-75928571D01*
X164371428Y-75985714D01*
X164400000Y-76014285D01*
X164457142Y-76042857D01*
X164571428Y-76042857D01*
X164628571Y-76014285D01*
X164657142Y-75985714D01*
X164685714Y-75928571D01*
X164914285Y-75728571D02*
X164942857Y-75700000D01*
X165000000Y-75671428D01*
X165142857Y-75671428D01*
X165200000Y-75700000D01*
X165228571Y-75728571D01*
X165257142Y-75785714D01*
X165257142Y-75842857D01*
X165228571Y-75928571D01*
X164885714Y-76271428D01*
X165257142Y-76271428D01*
G04 #@! TO.C,C91*
X164114285Y-77214285D02*
X164085714Y-77242857D01*
X164000000Y-77271428D01*
X163942857Y-77271428D01*
X163857142Y-77242857D01*
X163800000Y-77185714D01*
X163771428Y-77128571D01*
X163742857Y-77014285D01*
X163742857Y-76928571D01*
X163771428Y-76814285D01*
X163800000Y-76757142D01*
X163857142Y-76700000D01*
X163942857Y-76671428D01*
X164000000Y-76671428D01*
X164085714Y-76700000D01*
X164114285Y-76728571D01*
X164400000Y-77271428D02*
X164514285Y-77271428D01*
X164571428Y-77242857D01*
X164600000Y-77214285D01*
X164657142Y-77128571D01*
X164685714Y-77014285D01*
X164685714Y-76785714D01*
X164657142Y-76728571D01*
X164628571Y-76700000D01*
X164571428Y-76671428D01*
X164457142Y-76671428D01*
X164400000Y-76700000D01*
X164371428Y-76728571D01*
X164342857Y-76785714D01*
X164342857Y-76928571D01*
X164371428Y-76985714D01*
X164400000Y-77014285D01*
X164457142Y-77042857D01*
X164571428Y-77042857D01*
X164628571Y-77014285D01*
X164657142Y-76985714D01*
X164685714Y-76928571D01*
X165257142Y-77271428D02*
X164914285Y-77271428D01*
X165085714Y-77271428D02*
X165085714Y-76671428D01*
X165028571Y-76757142D01*
X164971428Y-76814285D01*
X164914285Y-76842857D01*
G04 #@! TO.C,C93*
X171514285Y-80114285D02*
X171485714Y-80142857D01*
X171400000Y-80171428D01*
X171342857Y-80171428D01*
X171257142Y-80142857D01*
X171200000Y-80085714D01*
X171171428Y-80028571D01*
X171142857Y-79914285D01*
X171142857Y-79828571D01*
X171171428Y-79714285D01*
X171200000Y-79657142D01*
X171257142Y-79600000D01*
X171342857Y-79571428D01*
X171400000Y-79571428D01*
X171485714Y-79600000D01*
X171514285Y-79628571D01*
X171800000Y-80171428D02*
X171914285Y-80171428D01*
X171971428Y-80142857D01*
X172000000Y-80114285D01*
X172057142Y-80028571D01*
X172085714Y-79914285D01*
X172085714Y-79685714D01*
X172057142Y-79628571D01*
X172028571Y-79600000D01*
X171971428Y-79571428D01*
X171857142Y-79571428D01*
X171800000Y-79600000D01*
X171771428Y-79628571D01*
X171742857Y-79685714D01*
X171742857Y-79828571D01*
X171771428Y-79885714D01*
X171800000Y-79914285D01*
X171857142Y-79942857D01*
X171971428Y-79942857D01*
X172028571Y-79914285D01*
X172057142Y-79885714D01*
X172085714Y-79828571D01*
X172285714Y-79571428D02*
X172657142Y-79571428D01*
X172457142Y-79800000D01*
X172542857Y-79800000D01*
X172600000Y-79828571D01*
X172628571Y-79857142D01*
X172657142Y-79914285D01*
X172657142Y-80057142D01*
X172628571Y-80114285D01*
X172600000Y-80142857D01*
X172542857Y-80171428D01*
X172371428Y-80171428D01*
X172314285Y-80142857D01*
X172285714Y-80114285D01*
G04 #@! TO.C,C101*
X130514285Y-114671428D02*
X130542857Y-114700000D01*
X130571428Y-114785714D01*
X130571428Y-114842857D01*
X130542857Y-114928571D01*
X130485714Y-114985714D01*
X130428571Y-115014285D01*
X130314285Y-115042857D01*
X130228571Y-115042857D01*
X130114285Y-115014285D01*
X130057142Y-114985714D01*
X130000000Y-114928571D01*
X129971428Y-114842857D01*
X129971428Y-114785714D01*
X130000000Y-114700000D01*
X130028571Y-114671428D01*
X130571428Y-114100000D02*
X130571428Y-114442857D01*
X130571428Y-114271428D02*
X129971428Y-114271428D01*
X130057142Y-114328571D01*
X130114285Y-114385714D01*
X130142857Y-114442857D01*
X129971428Y-113728571D02*
X129971428Y-113671428D01*
X130000000Y-113614285D01*
X130028571Y-113585714D01*
X130085714Y-113557142D01*
X130200000Y-113528571D01*
X130342857Y-113528571D01*
X130457142Y-113557142D01*
X130514285Y-113585714D01*
X130542857Y-113614285D01*
X130571428Y-113671428D01*
X130571428Y-113728571D01*
X130542857Y-113785714D01*
X130514285Y-113814285D01*
X130457142Y-113842857D01*
X130342857Y-113871428D01*
X130200000Y-113871428D01*
X130085714Y-113842857D01*
X130028571Y-113814285D01*
X130000000Y-113785714D01*
X129971428Y-113728571D01*
X130571428Y-112957142D02*
X130571428Y-113300000D01*
X130571428Y-113128571D02*
X129971428Y-113128571D01*
X130057142Y-113185714D01*
X130114285Y-113242857D01*
X130142857Y-113300000D01*
G04 #@! TO.C,C104*
X135414285Y-108071428D02*
X135442857Y-108100000D01*
X135471428Y-108185714D01*
X135471428Y-108242857D01*
X135442857Y-108328571D01*
X135385714Y-108385714D01*
X135328571Y-108414285D01*
X135214285Y-108442857D01*
X135128571Y-108442857D01*
X135014285Y-108414285D01*
X134957142Y-108385714D01*
X134900000Y-108328571D01*
X134871428Y-108242857D01*
X134871428Y-108185714D01*
X134900000Y-108100000D01*
X134928571Y-108071428D01*
X135471428Y-107500000D02*
X135471428Y-107842857D01*
X135471428Y-107671428D02*
X134871428Y-107671428D01*
X134957142Y-107728571D01*
X135014285Y-107785714D01*
X135042857Y-107842857D01*
X134871428Y-107128571D02*
X134871428Y-107071428D01*
X134900000Y-107014285D01*
X134928571Y-106985714D01*
X134985714Y-106957142D01*
X135100000Y-106928571D01*
X135242857Y-106928571D01*
X135357142Y-106957142D01*
X135414285Y-106985714D01*
X135442857Y-107014285D01*
X135471428Y-107071428D01*
X135471428Y-107128571D01*
X135442857Y-107185714D01*
X135414285Y-107214285D01*
X135357142Y-107242857D01*
X135242857Y-107271428D01*
X135100000Y-107271428D01*
X134985714Y-107242857D01*
X134928571Y-107214285D01*
X134900000Y-107185714D01*
X134871428Y-107128571D01*
X135071428Y-106414285D02*
X135471428Y-106414285D01*
X134842857Y-106557142D02*
X135271428Y-106700000D01*
X135271428Y-106328571D01*
G04 #@! TO.C,C103*
X133914285Y-108071428D02*
X133942857Y-108100000D01*
X133971428Y-108185714D01*
X133971428Y-108242857D01*
X133942857Y-108328571D01*
X133885714Y-108385714D01*
X133828571Y-108414285D01*
X133714285Y-108442857D01*
X133628571Y-108442857D01*
X133514285Y-108414285D01*
X133457142Y-108385714D01*
X133400000Y-108328571D01*
X133371428Y-108242857D01*
X133371428Y-108185714D01*
X133400000Y-108100000D01*
X133428571Y-108071428D01*
X133971428Y-107500000D02*
X133971428Y-107842857D01*
X133971428Y-107671428D02*
X133371428Y-107671428D01*
X133457142Y-107728571D01*
X133514285Y-107785714D01*
X133542857Y-107842857D01*
X133371428Y-107128571D02*
X133371428Y-107071428D01*
X133400000Y-107014285D01*
X133428571Y-106985714D01*
X133485714Y-106957142D01*
X133600000Y-106928571D01*
X133742857Y-106928571D01*
X133857142Y-106957142D01*
X133914285Y-106985714D01*
X133942857Y-107014285D01*
X133971428Y-107071428D01*
X133971428Y-107128571D01*
X133942857Y-107185714D01*
X133914285Y-107214285D01*
X133857142Y-107242857D01*
X133742857Y-107271428D01*
X133600000Y-107271428D01*
X133485714Y-107242857D01*
X133428571Y-107214285D01*
X133400000Y-107185714D01*
X133371428Y-107128571D01*
X133371428Y-106728571D02*
X133371428Y-106357142D01*
X133600000Y-106557142D01*
X133600000Y-106471428D01*
X133628571Y-106414285D01*
X133657142Y-106385714D01*
X133714285Y-106357142D01*
X133857142Y-106357142D01*
X133914285Y-106385714D01*
X133942857Y-106414285D01*
X133971428Y-106471428D01*
X133971428Y-106642857D01*
X133942857Y-106700000D01*
X133914285Y-106728571D01*
G04 #@! TO.C,C97*
X172114285Y-86214285D02*
X172085714Y-86242857D01*
X172000000Y-86271428D01*
X171942857Y-86271428D01*
X171857142Y-86242857D01*
X171800000Y-86185714D01*
X171771428Y-86128571D01*
X171742857Y-86014285D01*
X171742857Y-85928571D01*
X171771428Y-85814285D01*
X171800000Y-85757142D01*
X171857142Y-85700000D01*
X171942857Y-85671428D01*
X172000000Y-85671428D01*
X172085714Y-85700000D01*
X172114285Y-85728571D01*
X172400000Y-86271428D02*
X172514285Y-86271428D01*
X172571428Y-86242857D01*
X172600000Y-86214285D01*
X172657142Y-86128571D01*
X172685714Y-86014285D01*
X172685714Y-85785714D01*
X172657142Y-85728571D01*
X172628571Y-85700000D01*
X172571428Y-85671428D01*
X172457142Y-85671428D01*
X172400000Y-85700000D01*
X172371428Y-85728571D01*
X172342857Y-85785714D01*
X172342857Y-85928571D01*
X172371428Y-85985714D01*
X172400000Y-86014285D01*
X172457142Y-86042857D01*
X172571428Y-86042857D01*
X172628571Y-86014285D01*
X172657142Y-85985714D01*
X172685714Y-85928571D01*
X172885714Y-85671428D02*
X173285714Y-85671428D01*
X173028571Y-86271428D01*
G04 #@! TO.C,C96*
X172114285Y-85214285D02*
X172085714Y-85242857D01*
X172000000Y-85271428D01*
X171942857Y-85271428D01*
X171857142Y-85242857D01*
X171800000Y-85185714D01*
X171771428Y-85128571D01*
X171742857Y-85014285D01*
X171742857Y-84928571D01*
X171771428Y-84814285D01*
X171800000Y-84757142D01*
X171857142Y-84700000D01*
X171942857Y-84671428D01*
X172000000Y-84671428D01*
X172085714Y-84700000D01*
X172114285Y-84728571D01*
X172400000Y-85271428D02*
X172514285Y-85271428D01*
X172571428Y-85242857D01*
X172600000Y-85214285D01*
X172657142Y-85128571D01*
X172685714Y-85014285D01*
X172685714Y-84785714D01*
X172657142Y-84728571D01*
X172628571Y-84700000D01*
X172571428Y-84671428D01*
X172457142Y-84671428D01*
X172400000Y-84700000D01*
X172371428Y-84728571D01*
X172342857Y-84785714D01*
X172342857Y-84928571D01*
X172371428Y-84985714D01*
X172400000Y-85014285D01*
X172457142Y-85042857D01*
X172571428Y-85042857D01*
X172628571Y-85014285D01*
X172657142Y-84985714D01*
X172685714Y-84928571D01*
X173200000Y-84671428D02*
X173085714Y-84671428D01*
X173028571Y-84700000D01*
X173000000Y-84728571D01*
X172942857Y-84814285D01*
X172914285Y-84928571D01*
X172914285Y-85157142D01*
X172942857Y-85214285D01*
X172971428Y-85242857D01*
X173028571Y-85271428D01*
X173142857Y-85271428D01*
X173200000Y-85242857D01*
X173228571Y-85214285D01*
X173257142Y-85157142D01*
X173257142Y-85014285D01*
X173228571Y-84957142D01*
X173200000Y-84928571D01*
X173142857Y-84900000D01*
X173028571Y-84900000D01*
X172971428Y-84928571D01*
X172942857Y-84957142D01*
X172914285Y-85014285D01*
G04 #@! TO.C,C98*
X164114285Y-86214285D02*
X164085714Y-86242857D01*
X164000000Y-86271428D01*
X163942857Y-86271428D01*
X163857142Y-86242857D01*
X163800000Y-86185714D01*
X163771428Y-86128571D01*
X163742857Y-86014285D01*
X163742857Y-85928571D01*
X163771428Y-85814285D01*
X163800000Y-85757142D01*
X163857142Y-85700000D01*
X163942857Y-85671428D01*
X164000000Y-85671428D01*
X164085714Y-85700000D01*
X164114285Y-85728571D01*
X164400000Y-86271428D02*
X164514285Y-86271428D01*
X164571428Y-86242857D01*
X164600000Y-86214285D01*
X164657142Y-86128571D01*
X164685714Y-86014285D01*
X164685714Y-85785714D01*
X164657142Y-85728571D01*
X164628571Y-85700000D01*
X164571428Y-85671428D01*
X164457142Y-85671428D01*
X164400000Y-85700000D01*
X164371428Y-85728571D01*
X164342857Y-85785714D01*
X164342857Y-85928571D01*
X164371428Y-85985714D01*
X164400000Y-86014285D01*
X164457142Y-86042857D01*
X164571428Y-86042857D01*
X164628571Y-86014285D01*
X164657142Y-85985714D01*
X164685714Y-85928571D01*
X165028571Y-85928571D02*
X164971428Y-85900000D01*
X164942857Y-85871428D01*
X164914285Y-85814285D01*
X164914285Y-85785714D01*
X164942857Y-85728571D01*
X164971428Y-85700000D01*
X165028571Y-85671428D01*
X165142857Y-85671428D01*
X165200000Y-85700000D01*
X165228571Y-85728571D01*
X165257142Y-85785714D01*
X165257142Y-85814285D01*
X165228571Y-85871428D01*
X165200000Y-85900000D01*
X165142857Y-85928571D01*
X165028571Y-85928571D01*
X164971428Y-85957142D01*
X164942857Y-85985714D01*
X164914285Y-86042857D01*
X164914285Y-86157142D01*
X164942857Y-86214285D01*
X164971428Y-86242857D01*
X165028571Y-86271428D01*
X165142857Y-86271428D01*
X165200000Y-86242857D01*
X165228571Y-86214285D01*
X165257142Y-86157142D01*
X165257142Y-86042857D01*
X165228571Y-85985714D01*
X165200000Y-85957142D01*
X165142857Y-85928571D01*
G04 #@! TO.C,C99*
X164114285Y-85214285D02*
X164085714Y-85242857D01*
X164000000Y-85271428D01*
X163942857Y-85271428D01*
X163857142Y-85242857D01*
X163800000Y-85185714D01*
X163771428Y-85128571D01*
X163742857Y-85014285D01*
X163742857Y-84928571D01*
X163771428Y-84814285D01*
X163800000Y-84757142D01*
X163857142Y-84700000D01*
X163942857Y-84671428D01*
X164000000Y-84671428D01*
X164085714Y-84700000D01*
X164114285Y-84728571D01*
X164400000Y-85271428D02*
X164514285Y-85271428D01*
X164571428Y-85242857D01*
X164600000Y-85214285D01*
X164657142Y-85128571D01*
X164685714Y-85014285D01*
X164685714Y-84785714D01*
X164657142Y-84728571D01*
X164628571Y-84700000D01*
X164571428Y-84671428D01*
X164457142Y-84671428D01*
X164400000Y-84700000D01*
X164371428Y-84728571D01*
X164342857Y-84785714D01*
X164342857Y-84928571D01*
X164371428Y-84985714D01*
X164400000Y-85014285D01*
X164457142Y-85042857D01*
X164571428Y-85042857D01*
X164628571Y-85014285D01*
X164657142Y-84985714D01*
X164685714Y-84928571D01*
X164971428Y-85271428D02*
X165085714Y-85271428D01*
X165142857Y-85242857D01*
X165171428Y-85214285D01*
X165228571Y-85128571D01*
X165257142Y-85014285D01*
X165257142Y-84785714D01*
X165228571Y-84728571D01*
X165200000Y-84700000D01*
X165142857Y-84671428D01*
X165028571Y-84671428D01*
X164971428Y-84700000D01*
X164942857Y-84728571D01*
X164914285Y-84785714D01*
X164914285Y-84928571D01*
X164942857Y-84985714D01*
X164971428Y-85014285D01*
X165028571Y-85042857D01*
X165142857Y-85042857D01*
X165200000Y-85014285D01*
X165228571Y-84985714D01*
X165257142Y-84928571D01*
G04 #@! TO.C,C49*
X150514285Y-124885714D02*
X150542857Y-124914285D01*
X150571428Y-125000000D01*
X150571428Y-125057142D01*
X150542857Y-125142857D01*
X150485714Y-125200000D01*
X150428571Y-125228571D01*
X150314285Y-125257142D01*
X150228571Y-125257142D01*
X150114285Y-125228571D01*
X150057142Y-125200000D01*
X150000000Y-125142857D01*
X149971428Y-125057142D01*
X149971428Y-125000000D01*
X150000000Y-124914285D01*
X150028571Y-124885714D01*
X150171428Y-124371428D02*
X150571428Y-124371428D01*
X149942857Y-124514285D02*
X150371428Y-124657142D01*
X150371428Y-124285714D01*
X150571428Y-124028571D02*
X150571428Y-123914285D01*
X150542857Y-123857142D01*
X150514285Y-123828571D01*
X150428571Y-123771428D01*
X150314285Y-123742857D01*
X150085714Y-123742857D01*
X150028571Y-123771428D01*
X150000000Y-123800000D01*
X149971428Y-123857142D01*
X149971428Y-123971428D01*
X150000000Y-124028571D01*
X150028571Y-124057142D01*
X150085714Y-124085714D01*
X150228571Y-124085714D01*
X150285714Y-124057142D01*
X150314285Y-124028571D01*
X150342857Y-123971428D01*
X150342857Y-123857142D01*
X150314285Y-123800000D01*
X150285714Y-123771428D01*
X150228571Y-123742857D01*
G04 #@! TO.C,C9*
X139214285Y-125600000D02*
X139242857Y-125628571D01*
X139271428Y-125714285D01*
X139271428Y-125771428D01*
X139242857Y-125857142D01*
X139185714Y-125914285D01*
X139128571Y-125942857D01*
X139014285Y-125971428D01*
X138928571Y-125971428D01*
X138814285Y-125942857D01*
X138757142Y-125914285D01*
X138700000Y-125857142D01*
X138671428Y-125771428D01*
X138671428Y-125714285D01*
X138700000Y-125628571D01*
X138728571Y-125600000D01*
X139271428Y-125314285D02*
X139271428Y-125200000D01*
X139242857Y-125142857D01*
X139214285Y-125114285D01*
X139128571Y-125057142D01*
X139014285Y-125028571D01*
X138785714Y-125028571D01*
X138728571Y-125057142D01*
X138700000Y-125085714D01*
X138671428Y-125142857D01*
X138671428Y-125257142D01*
X138700000Y-125314285D01*
X138728571Y-125342857D01*
X138785714Y-125371428D01*
X138928571Y-125371428D01*
X138985714Y-125342857D01*
X139014285Y-125314285D01*
X139042857Y-125257142D01*
X139042857Y-125142857D01*
X139014285Y-125085714D01*
X138985714Y-125057142D01*
X138928571Y-125028571D01*
G04 #@! TO.C,C24*
X162714285Y-113385714D02*
X162742857Y-113414285D01*
X162771428Y-113500000D01*
X162771428Y-113557142D01*
X162742857Y-113642857D01*
X162685714Y-113700000D01*
X162628571Y-113728571D01*
X162514285Y-113757142D01*
X162428571Y-113757142D01*
X162314285Y-113728571D01*
X162257142Y-113700000D01*
X162200000Y-113642857D01*
X162171428Y-113557142D01*
X162171428Y-113500000D01*
X162200000Y-113414285D01*
X162228571Y-113385714D01*
X162228571Y-113157142D02*
X162200000Y-113128571D01*
X162171428Y-113071428D01*
X162171428Y-112928571D01*
X162200000Y-112871428D01*
X162228571Y-112842857D01*
X162285714Y-112814285D01*
X162342857Y-112814285D01*
X162428571Y-112842857D01*
X162771428Y-113185714D01*
X162771428Y-112814285D01*
X162371428Y-112300000D02*
X162771428Y-112300000D01*
X162142857Y-112442857D02*
X162571428Y-112585714D01*
X162571428Y-112214285D01*
G04 #@! TO.C,U2*
X167042857Y-75871428D02*
X167042857Y-76357142D01*
X167071428Y-76414285D01*
X167100000Y-76442857D01*
X167157142Y-76471428D01*
X167271428Y-76471428D01*
X167328571Y-76442857D01*
X167357142Y-76414285D01*
X167385714Y-76357142D01*
X167385714Y-75871428D01*
X167642857Y-75928571D02*
X167671428Y-75900000D01*
X167728571Y-75871428D01*
X167871428Y-75871428D01*
X167928571Y-75900000D01*
X167957142Y-75928571D01*
X167985714Y-75985714D01*
X167985714Y-76042857D01*
X167957142Y-76128571D01*
X167614285Y-76471428D01*
X167985714Y-76471428D01*
G04 #@! TO.C,R36*
X174071428Y-69885714D02*
X173785714Y-70085714D01*
X174071428Y-70228571D02*
X173471428Y-70228571D01*
X173471428Y-70000000D01*
X173500000Y-69942857D01*
X173528571Y-69914285D01*
X173585714Y-69885714D01*
X173671428Y-69885714D01*
X173728571Y-69914285D01*
X173757142Y-69942857D01*
X173785714Y-70000000D01*
X173785714Y-70228571D01*
X173471428Y-69685714D02*
X173471428Y-69314285D01*
X173700000Y-69514285D01*
X173700000Y-69428571D01*
X173728571Y-69371428D01*
X173757142Y-69342857D01*
X173814285Y-69314285D01*
X173957142Y-69314285D01*
X174014285Y-69342857D01*
X174042857Y-69371428D01*
X174071428Y-69428571D01*
X174071428Y-69600000D01*
X174042857Y-69657142D01*
X174014285Y-69685714D01*
X173471428Y-68800000D02*
X173471428Y-68914285D01*
X173500000Y-68971428D01*
X173528571Y-69000000D01*
X173614285Y-69057142D01*
X173728571Y-69085714D01*
X173957142Y-69085714D01*
X174014285Y-69057142D01*
X174042857Y-69028571D01*
X174071428Y-68971428D01*
X174071428Y-68857142D01*
X174042857Y-68800000D01*
X174014285Y-68771428D01*
X173957142Y-68742857D01*
X173814285Y-68742857D01*
X173757142Y-68771428D01*
X173728571Y-68800000D01*
X173700000Y-68857142D01*
X173700000Y-68971428D01*
X173728571Y-69028571D01*
X173757142Y-69057142D01*
X173814285Y-69085714D01*
G04 #@! TO.C,C53*
X173814285Y-76985714D02*
X173842857Y-77014285D01*
X173871428Y-77100000D01*
X173871428Y-77157142D01*
X173842857Y-77242857D01*
X173785714Y-77300000D01*
X173728571Y-77328571D01*
X173614285Y-77357142D01*
X173528571Y-77357142D01*
X173414285Y-77328571D01*
X173357142Y-77300000D01*
X173300000Y-77242857D01*
X173271428Y-77157142D01*
X173271428Y-77100000D01*
X173300000Y-77014285D01*
X173328571Y-76985714D01*
X173271428Y-76442857D02*
X173271428Y-76728571D01*
X173557142Y-76757142D01*
X173528571Y-76728571D01*
X173500000Y-76671428D01*
X173500000Y-76528571D01*
X173528571Y-76471428D01*
X173557142Y-76442857D01*
X173614285Y-76414285D01*
X173757142Y-76414285D01*
X173814285Y-76442857D01*
X173842857Y-76471428D01*
X173871428Y-76528571D01*
X173871428Y-76671428D01*
X173842857Y-76728571D01*
X173814285Y-76757142D01*
X173271428Y-76214285D02*
X173271428Y-75842857D01*
X173500000Y-76042857D01*
X173500000Y-75957142D01*
X173528571Y-75900000D01*
X173557142Y-75871428D01*
X173614285Y-75842857D01*
X173757142Y-75842857D01*
X173814285Y-75871428D01*
X173842857Y-75900000D01*
X173871428Y-75957142D01*
X173871428Y-76128571D01*
X173842857Y-76185714D01*
X173814285Y-76214285D01*
G04 #@! TO.C,C14*
X153114285Y-135214285D02*
X153085714Y-135242857D01*
X153000000Y-135271428D01*
X152942857Y-135271428D01*
X152857142Y-135242857D01*
X152800000Y-135185714D01*
X152771428Y-135128571D01*
X152742857Y-135014285D01*
X152742857Y-134928571D01*
X152771428Y-134814285D01*
X152800000Y-134757142D01*
X152857142Y-134700000D01*
X152942857Y-134671428D01*
X153000000Y-134671428D01*
X153085714Y-134700000D01*
X153114285Y-134728571D01*
X153685714Y-135271428D02*
X153342857Y-135271428D01*
X153514285Y-135271428D02*
X153514285Y-134671428D01*
X153457142Y-134757142D01*
X153400000Y-134814285D01*
X153342857Y-134842857D01*
X154200000Y-134871428D02*
X154200000Y-135271428D01*
X154057142Y-134642857D02*
X153914285Y-135071428D01*
X154285714Y-135071428D01*
G04 #@! TO.C,C162*
X143714285Y-133171428D02*
X143742857Y-133200000D01*
X143771428Y-133285714D01*
X143771428Y-133342857D01*
X143742857Y-133428571D01*
X143685714Y-133485714D01*
X143628571Y-133514285D01*
X143514285Y-133542857D01*
X143428571Y-133542857D01*
X143314285Y-133514285D01*
X143257142Y-133485714D01*
X143200000Y-133428571D01*
X143171428Y-133342857D01*
X143171428Y-133285714D01*
X143200000Y-133200000D01*
X143228571Y-133171428D01*
X143771428Y-132600000D02*
X143771428Y-132942857D01*
X143771428Y-132771428D02*
X143171428Y-132771428D01*
X143257142Y-132828571D01*
X143314285Y-132885714D01*
X143342857Y-132942857D01*
X143171428Y-132085714D02*
X143171428Y-132200000D01*
X143200000Y-132257142D01*
X143228571Y-132285714D01*
X143314285Y-132342857D01*
X143428571Y-132371428D01*
X143657142Y-132371428D01*
X143714285Y-132342857D01*
X143742857Y-132314285D01*
X143771428Y-132257142D01*
X143771428Y-132142857D01*
X143742857Y-132085714D01*
X143714285Y-132057142D01*
X143657142Y-132028571D01*
X143514285Y-132028571D01*
X143457142Y-132057142D01*
X143428571Y-132085714D01*
X143400000Y-132142857D01*
X143400000Y-132257142D01*
X143428571Y-132314285D01*
X143457142Y-132342857D01*
X143514285Y-132371428D01*
X143228571Y-131800000D02*
X143200000Y-131771428D01*
X143171428Y-131714285D01*
X143171428Y-131571428D01*
X143200000Y-131514285D01*
X143228571Y-131485714D01*
X143285714Y-131457142D01*
X143342857Y-131457142D01*
X143428571Y-131485714D01*
X143771428Y-131828571D01*
X143771428Y-131457142D01*
G04 #@! TO.C,C15*
X157614285Y-136114285D02*
X157585714Y-136142857D01*
X157500000Y-136171428D01*
X157442857Y-136171428D01*
X157357142Y-136142857D01*
X157300000Y-136085714D01*
X157271428Y-136028571D01*
X157242857Y-135914285D01*
X157242857Y-135828571D01*
X157271428Y-135714285D01*
X157300000Y-135657142D01*
X157357142Y-135600000D01*
X157442857Y-135571428D01*
X157500000Y-135571428D01*
X157585714Y-135600000D01*
X157614285Y-135628571D01*
X158185714Y-136171428D02*
X157842857Y-136171428D01*
X158014285Y-136171428D02*
X158014285Y-135571428D01*
X157957142Y-135657142D01*
X157900000Y-135714285D01*
X157842857Y-135742857D01*
X158728571Y-135571428D02*
X158442857Y-135571428D01*
X158414285Y-135857142D01*
X158442857Y-135828571D01*
X158500000Y-135800000D01*
X158642857Y-135800000D01*
X158700000Y-135828571D01*
X158728571Y-135857142D01*
X158757142Y-135914285D01*
X158757142Y-136057142D01*
X158728571Y-136114285D01*
X158700000Y-136142857D01*
X158642857Y-136171428D01*
X158500000Y-136171428D01*
X158442857Y-136142857D01*
X158414285Y-136114285D01*
G04 #@! TO.C,C47*
X153614285Y-132214285D02*
X153585714Y-132242857D01*
X153500000Y-132271428D01*
X153442857Y-132271428D01*
X153357142Y-132242857D01*
X153300000Y-132185714D01*
X153271428Y-132128571D01*
X153242857Y-132014285D01*
X153242857Y-131928571D01*
X153271428Y-131814285D01*
X153300000Y-131757142D01*
X153357142Y-131700000D01*
X153442857Y-131671428D01*
X153500000Y-131671428D01*
X153585714Y-131700000D01*
X153614285Y-131728571D01*
X154128571Y-131871428D02*
X154128571Y-132271428D01*
X153985714Y-131642857D02*
X153842857Y-132071428D01*
X154214285Y-132071428D01*
X154385714Y-131671428D02*
X154785714Y-131671428D01*
X154528571Y-132271428D01*
G04 #@! TO.C,C52*
X155614285Y-132214285D02*
X155585714Y-132242857D01*
X155500000Y-132271428D01*
X155442857Y-132271428D01*
X155357142Y-132242857D01*
X155300000Y-132185714D01*
X155271428Y-132128571D01*
X155242857Y-132014285D01*
X155242857Y-131928571D01*
X155271428Y-131814285D01*
X155300000Y-131757142D01*
X155357142Y-131700000D01*
X155442857Y-131671428D01*
X155500000Y-131671428D01*
X155585714Y-131700000D01*
X155614285Y-131728571D01*
X156157142Y-131671428D02*
X155871428Y-131671428D01*
X155842857Y-131957142D01*
X155871428Y-131928571D01*
X155928571Y-131900000D01*
X156071428Y-131900000D01*
X156128571Y-131928571D01*
X156157142Y-131957142D01*
X156185714Y-132014285D01*
X156185714Y-132157142D01*
X156157142Y-132214285D01*
X156128571Y-132242857D01*
X156071428Y-132271428D01*
X155928571Y-132271428D01*
X155871428Y-132242857D01*
X155842857Y-132214285D01*
X156414285Y-131728571D02*
X156442857Y-131700000D01*
X156500000Y-131671428D01*
X156642857Y-131671428D01*
X156700000Y-131700000D01*
X156728571Y-131728571D01*
X156757142Y-131785714D01*
X156757142Y-131842857D01*
X156728571Y-131928571D01*
X156385714Y-132271428D01*
X156757142Y-132271428D01*
G04 #@! TO.C,U1*
X159542857Y-126571428D02*
X159542857Y-127057142D01*
X159571428Y-127114285D01*
X159600000Y-127142857D01*
X159657142Y-127171428D01*
X159771428Y-127171428D01*
X159828571Y-127142857D01*
X159857142Y-127114285D01*
X159885714Y-127057142D01*
X159885714Y-126571428D01*
X160485714Y-127171428D02*
X160142857Y-127171428D01*
X160314285Y-127171428D02*
X160314285Y-126571428D01*
X160257142Y-126657142D01*
X160200000Y-126714285D01*
X160142857Y-126742857D01*
G04 #@! TO.C,C44*
X122014285Y-118214285D02*
X121985714Y-118242857D01*
X121900000Y-118271428D01*
X121842857Y-118271428D01*
X121757142Y-118242857D01*
X121700000Y-118185714D01*
X121671428Y-118128571D01*
X121642857Y-118014285D01*
X121642857Y-117928571D01*
X121671428Y-117814285D01*
X121700000Y-117757142D01*
X121757142Y-117700000D01*
X121842857Y-117671428D01*
X121900000Y-117671428D01*
X121985714Y-117700000D01*
X122014285Y-117728571D01*
X122528571Y-117871428D02*
X122528571Y-118271428D01*
X122385714Y-117642857D02*
X122242857Y-118071428D01*
X122614285Y-118071428D01*
X123100000Y-117871428D02*
X123100000Y-118271428D01*
X122957142Y-117642857D02*
X122814285Y-118071428D01*
X123185714Y-118071428D01*
G04 #@! TO.C,C41*
X141714285Y-132385714D02*
X141742857Y-132414285D01*
X141771428Y-132500000D01*
X141771428Y-132557142D01*
X141742857Y-132642857D01*
X141685714Y-132700000D01*
X141628571Y-132728571D01*
X141514285Y-132757142D01*
X141428571Y-132757142D01*
X141314285Y-132728571D01*
X141257142Y-132700000D01*
X141200000Y-132642857D01*
X141171428Y-132557142D01*
X141171428Y-132500000D01*
X141200000Y-132414285D01*
X141228571Y-132385714D01*
X141371428Y-131871428D02*
X141771428Y-131871428D01*
X141142857Y-132014285D02*
X141571428Y-132157142D01*
X141571428Y-131785714D01*
X141771428Y-131242857D02*
X141771428Y-131585714D01*
X141771428Y-131414285D02*
X141171428Y-131414285D01*
X141257142Y-131471428D01*
X141314285Y-131528571D01*
X141342857Y-131585714D01*
G04 #@! TO.C,C17*
X144614285Y-136364285D02*
X144585714Y-136392857D01*
X144500000Y-136421428D01*
X144442857Y-136421428D01*
X144357142Y-136392857D01*
X144300000Y-136335714D01*
X144271428Y-136278571D01*
X144242857Y-136164285D01*
X144242857Y-136078571D01*
X144271428Y-135964285D01*
X144300000Y-135907142D01*
X144357142Y-135850000D01*
X144442857Y-135821428D01*
X144500000Y-135821428D01*
X144585714Y-135850000D01*
X144614285Y-135878571D01*
X145185714Y-136421428D02*
X144842857Y-136421428D01*
X145014285Y-136421428D02*
X145014285Y-135821428D01*
X144957142Y-135907142D01*
X144900000Y-135964285D01*
X144842857Y-135992857D01*
X145385714Y-135821428D02*
X145785714Y-135821428D01*
X145528571Y-136421428D01*
G04 #@! TO.C,U14*
X146757142Y-126571428D02*
X146757142Y-127057142D01*
X146785714Y-127114285D01*
X146814285Y-127142857D01*
X146871428Y-127171428D01*
X146985714Y-127171428D01*
X147042857Y-127142857D01*
X147071428Y-127114285D01*
X147100000Y-127057142D01*
X147100000Y-126571428D01*
X147700000Y-127171428D02*
X147357142Y-127171428D01*
X147528571Y-127171428D02*
X147528571Y-126571428D01*
X147471428Y-126657142D01*
X147414285Y-126714285D01*
X147357142Y-126742857D01*
X148214285Y-126771428D02*
X148214285Y-127171428D01*
X148071428Y-126542857D02*
X147928571Y-126971428D01*
X148300000Y-126971428D01*
G04 #@! TO.C,U6*
X123042857Y-123071428D02*
X123042857Y-123557142D01*
X123071428Y-123614285D01*
X123100000Y-123642857D01*
X123157142Y-123671428D01*
X123271428Y-123671428D01*
X123328571Y-123642857D01*
X123357142Y-123614285D01*
X123385714Y-123557142D01*
X123385714Y-123071428D01*
X123928571Y-123071428D02*
X123814285Y-123071428D01*
X123757142Y-123100000D01*
X123728571Y-123128571D01*
X123671428Y-123214285D01*
X123642857Y-123328571D01*
X123642857Y-123557142D01*
X123671428Y-123614285D01*
X123700000Y-123642857D01*
X123757142Y-123671428D01*
X123871428Y-123671428D01*
X123928571Y-123642857D01*
X123957142Y-123614285D01*
X123985714Y-123557142D01*
X123985714Y-123414285D01*
X123957142Y-123357142D01*
X123928571Y-123328571D01*
X123871428Y-123300000D01*
X123757142Y-123300000D01*
X123700000Y-123328571D01*
X123671428Y-123357142D01*
X123642857Y-123414285D01*
G04 #@! TO.C,R6*
X127771428Y-122800000D02*
X127485714Y-123000000D01*
X127771428Y-123142857D02*
X127171428Y-123142857D01*
X127171428Y-122914285D01*
X127200000Y-122857142D01*
X127228571Y-122828571D01*
X127285714Y-122800000D01*
X127371428Y-122800000D01*
X127428571Y-122828571D01*
X127457142Y-122857142D01*
X127485714Y-122914285D01*
X127485714Y-123142857D01*
X127171428Y-122285714D02*
X127171428Y-122400000D01*
X127200000Y-122457142D01*
X127228571Y-122485714D01*
X127314285Y-122542857D01*
X127428571Y-122571428D01*
X127657142Y-122571428D01*
X127714285Y-122542857D01*
X127742857Y-122514285D01*
X127771428Y-122457142D01*
X127771428Y-122342857D01*
X127742857Y-122285714D01*
X127714285Y-122257142D01*
X127657142Y-122228571D01*
X127514285Y-122228571D01*
X127457142Y-122257142D01*
X127428571Y-122285714D01*
X127400000Y-122342857D01*
X127400000Y-122457142D01*
X127428571Y-122514285D01*
X127457142Y-122542857D01*
X127514285Y-122571428D01*
G04 #@! TO.C,Q3*
X130277381Y-124071071D02*
X130220238Y-124042500D01*
X130163095Y-123985357D01*
X130077381Y-123899642D01*
X130020238Y-123871071D01*
X129963095Y-123871071D01*
X129991666Y-124013928D02*
X129934524Y-123985357D01*
X129877381Y-123928214D01*
X129848809Y-123813928D01*
X129848809Y-123613928D01*
X129877381Y-123499642D01*
X129934524Y-123442500D01*
X129991666Y-123413928D01*
X130105952Y-123413928D01*
X130163095Y-123442500D01*
X130220238Y-123499642D01*
X130248809Y-123613928D01*
X130248809Y-123813928D01*
X130220238Y-123928214D01*
X130163095Y-123985357D01*
X130105952Y-124013928D01*
X129991666Y-124013928D01*
X130448809Y-123413928D02*
X130820238Y-123413928D01*
X130620238Y-123642500D01*
X130705952Y-123642500D01*
X130763095Y-123671071D01*
X130791666Y-123699642D01*
X130820238Y-123756785D01*
X130820238Y-123899642D01*
X130791666Y-123956785D01*
X130763095Y-123985357D01*
X130705952Y-124013928D01*
X130534524Y-124013928D01*
X130477381Y-123985357D01*
X130448809Y-123956785D01*
G04 #@! TO.C,J5*
X97300000Y-97171428D02*
X97300000Y-97600000D01*
X97271428Y-97685714D01*
X97214285Y-97742857D01*
X97128571Y-97771428D01*
X97071428Y-97771428D01*
X97871428Y-97171428D02*
X97585714Y-97171428D01*
X97557142Y-97457142D01*
X97585714Y-97428571D01*
X97642857Y-97400000D01*
X97785714Y-97400000D01*
X97842857Y-97428571D01*
X97871428Y-97457142D01*
X97900000Y-97514285D01*
X97900000Y-97657142D01*
X97871428Y-97714285D01*
X97842857Y-97742857D01*
X97785714Y-97771428D01*
X97642857Y-97771428D01*
X97585714Y-97742857D01*
X97557142Y-97714285D01*
G04 #@! TO.C,U4*
X114342857Y-108871428D02*
X114342857Y-109357142D01*
X114371428Y-109414285D01*
X114400000Y-109442857D01*
X114457142Y-109471428D01*
X114571428Y-109471428D01*
X114628571Y-109442857D01*
X114657142Y-109414285D01*
X114685714Y-109357142D01*
X114685714Y-108871428D01*
X115228571Y-109071428D02*
X115228571Y-109471428D01*
X115085714Y-108842857D02*
X114942857Y-109271428D01*
X115314285Y-109271428D01*
G04 #@! TO.C,U5*
X114342857Y-117671428D02*
X114342857Y-118157142D01*
X114371428Y-118214285D01*
X114400000Y-118242857D01*
X114457142Y-118271428D01*
X114571428Y-118271428D01*
X114628571Y-118242857D01*
X114657142Y-118214285D01*
X114685714Y-118157142D01*
X114685714Y-117671428D01*
X115257142Y-117671428D02*
X114971428Y-117671428D01*
X114942857Y-117957142D01*
X114971428Y-117928571D01*
X115028571Y-117900000D01*
X115171428Y-117900000D01*
X115228571Y-117928571D01*
X115257142Y-117957142D01*
X115285714Y-118014285D01*
X115285714Y-118157142D01*
X115257142Y-118214285D01*
X115228571Y-118242857D01*
X115171428Y-118271428D01*
X115028571Y-118271428D01*
X114971428Y-118242857D01*
X114942857Y-118214285D01*
G04 #@! TO.C,C16*
X165684285Y-135214285D02*
X165655714Y-135242857D01*
X165570000Y-135271428D01*
X165512857Y-135271428D01*
X165427142Y-135242857D01*
X165370000Y-135185714D01*
X165341428Y-135128571D01*
X165312857Y-135014285D01*
X165312857Y-134928571D01*
X165341428Y-134814285D01*
X165370000Y-134757142D01*
X165427142Y-134700000D01*
X165512857Y-134671428D01*
X165570000Y-134671428D01*
X165655714Y-134700000D01*
X165684285Y-134728571D01*
X166255714Y-135271428D02*
X165912857Y-135271428D01*
X166084285Y-135271428D02*
X166084285Y-134671428D01*
X166027142Y-134757142D01*
X165970000Y-134814285D01*
X165912857Y-134842857D01*
X166770000Y-134671428D02*
X166655714Y-134671428D01*
X166598571Y-134700000D01*
X166570000Y-134728571D01*
X166512857Y-134814285D01*
X166484285Y-134928571D01*
X166484285Y-135157142D01*
X166512857Y-135214285D01*
X166541428Y-135242857D01*
X166598571Y-135271428D01*
X166712857Y-135271428D01*
X166770000Y-135242857D01*
X166798571Y-135214285D01*
X166827142Y-135157142D01*
X166827142Y-135014285D01*
X166798571Y-134957142D01*
X166770000Y-134928571D01*
X166712857Y-134900000D01*
X166598571Y-134900000D01*
X166541428Y-134928571D01*
X166512857Y-134957142D01*
X166484285Y-135014285D01*
G04 #@! TO.C,C94*
X179614285Y-83214285D02*
X179585714Y-83242857D01*
X179500000Y-83271428D01*
X179442857Y-83271428D01*
X179357142Y-83242857D01*
X179300000Y-83185714D01*
X179271428Y-83128571D01*
X179242857Y-83014285D01*
X179242857Y-82928571D01*
X179271428Y-82814285D01*
X179300000Y-82757142D01*
X179357142Y-82700000D01*
X179442857Y-82671428D01*
X179500000Y-82671428D01*
X179585714Y-82700000D01*
X179614285Y-82728571D01*
X179900000Y-83271428D02*
X180014285Y-83271428D01*
X180071428Y-83242857D01*
X180100000Y-83214285D01*
X180157142Y-83128571D01*
X180185714Y-83014285D01*
X180185714Y-82785714D01*
X180157142Y-82728571D01*
X180128571Y-82700000D01*
X180071428Y-82671428D01*
X179957142Y-82671428D01*
X179900000Y-82700000D01*
X179871428Y-82728571D01*
X179842857Y-82785714D01*
X179842857Y-82928571D01*
X179871428Y-82985714D01*
X179900000Y-83014285D01*
X179957142Y-83042857D01*
X180071428Y-83042857D01*
X180128571Y-83014285D01*
X180157142Y-82985714D01*
X180185714Y-82928571D01*
X180700000Y-82871428D02*
X180700000Y-83271428D01*
X180557142Y-82642857D02*
X180414285Y-83071428D01*
X180785714Y-83071428D01*
G04 #@! TO.C,C1*
X102900000Y-79714285D02*
X102871428Y-79742857D01*
X102785714Y-79771428D01*
X102728571Y-79771428D01*
X102642857Y-79742857D01*
X102585714Y-79685714D01*
X102557142Y-79628571D01*
X102528571Y-79514285D01*
X102528571Y-79428571D01*
X102557142Y-79314285D01*
X102585714Y-79257142D01*
X102642857Y-79200000D01*
X102728571Y-79171428D01*
X102785714Y-79171428D01*
X102871428Y-79200000D01*
X102900000Y-79228571D01*
X103471428Y-79771428D02*
X103128571Y-79771428D01*
X103300000Y-79771428D02*
X103300000Y-79171428D01*
X103242857Y-79257142D01*
X103185714Y-79314285D01*
X103128571Y-79342857D01*
G04 #@! TO.C,J3*
X159651500Y-61141428D02*
X159651500Y-61570000D01*
X159622928Y-61655714D01*
X159565785Y-61712857D01*
X159480071Y-61741428D01*
X159422928Y-61741428D01*
X159880071Y-61141428D02*
X160251500Y-61141428D01*
X160051500Y-61370000D01*
X160137214Y-61370000D01*
X160194357Y-61398571D01*
X160222928Y-61427142D01*
X160251500Y-61484285D01*
X160251500Y-61627142D01*
X160222928Y-61684285D01*
X160194357Y-61712857D01*
X160137214Y-61741428D01*
X159965785Y-61741428D01*
X159908642Y-61712857D01*
X159880071Y-61684285D01*
G04 #@! TO.C,C50*
X154114285Y-120184285D02*
X154085714Y-120212857D01*
X154000000Y-120241428D01*
X153942857Y-120241428D01*
X153857142Y-120212857D01*
X153800000Y-120155714D01*
X153771428Y-120098571D01*
X153742857Y-119984285D01*
X153742857Y-119898571D01*
X153771428Y-119784285D01*
X153800000Y-119727142D01*
X153857142Y-119670000D01*
X153942857Y-119641428D01*
X154000000Y-119641428D01*
X154085714Y-119670000D01*
X154114285Y-119698571D01*
X154657142Y-119641428D02*
X154371428Y-119641428D01*
X154342857Y-119927142D01*
X154371428Y-119898571D01*
X154428571Y-119870000D01*
X154571428Y-119870000D01*
X154628571Y-119898571D01*
X154657142Y-119927142D01*
X154685714Y-119984285D01*
X154685714Y-120127142D01*
X154657142Y-120184285D01*
X154628571Y-120212857D01*
X154571428Y-120241428D01*
X154428571Y-120241428D01*
X154371428Y-120212857D01*
X154342857Y-120184285D01*
X155057142Y-119641428D02*
X155114285Y-119641428D01*
X155171428Y-119670000D01*
X155200000Y-119698571D01*
X155228571Y-119755714D01*
X155257142Y-119870000D01*
X155257142Y-120012857D01*
X155228571Y-120127142D01*
X155200000Y-120184285D01*
X155171428Y-120212857D01*
X155114285Y-120241428D01*
X155057142Y-120241428D01*
X155000000Y-120212857D01*
X154971428Y-120184285D01*
X154942857Y-120127142D01*
X154914285Y-120012857D01*
X154914285Y-119870000D01*
X154942857Y-119755714D01*
X154971428Y-119698571D01*
X155000000Y-119670000D01*
X155057142Y-119641428D01*
G04 #@! TO.C,C10*
X143614285Y-120214285D02*
X143585714Y-120242857D01*
X143500000Y-120271428D01*
X143442857Y-120271428D01*
X143357142Y-120242857D01*
X143300000Y-120185714D01*
X143271428Y-120128571D01*
X143242857Y-120014285D01*
X143242857Y-119928571D01*
X143271428Y-119814285D01*
X143300000Y-119757142D01*
X143357142Y-119700000D01*
X143442857Y-119671428D01*
X143500000Y-119671428D01*
X143585714Y-119700000D01*
X143614285Y-119728571D01*
X144185714Y-120271428D02*
X143842857Y-120271428D01*
X144014285Y-120271428D02*
X144014285Y-119671428D01*
X143957142Y-119757142D01*
X143900000Y-119814285D01*
X143842857Y-119842857D01*
X144557142Y-119671428D02*
X144614285Y-119671428D01*
X144671428Y-119700000D01*
X144700000Y-119728571D01*
X144728571Y-119785714D01*
X144757142Y-119900000D01*
X144757142Y-120042857D01*
X144728571Y-120157142D01*
X144700000Y-120214285D01*
X144671428Y-120242857D01*
X144614285Y-120271428D01*
X144557142Y-120271428D01*
X144500000Y-120242857D01*
X144471428Y-120214285D01*
X144442857Y-120157142D01*
X144414285Y-120042857D01*
X144414285Y-119900000D01*
X144442857Y-119785714D01*
X144471428Y-119728571D01*
X144500000Y-119700000D01*
X144557142Y-119671428D01*
G04 #@! TO.C,J7*
X129115720Y-72171428D02*
X129115720Y-72600000D01*
X129087148Y-72685714D01*
X129030005Y-72742857D01*
X128944291Y-72771428D01*
X128887148Y-72771428D01*
X129344291Y-72171428D02*
X129744291Y-72171428D01*
X129487148Y-72771428D01*
G04 #@! TO.C,U18*
X110257142Y-62171428D02*
X110257142Y-62657142D01*
X110285714Y-62714285D01*
X110314285Y-62742857D01*
X110371428Y-62771428D01*
X110485714Y-62771428D01*
X110542857Y-62742857D01*
X110571428Y-62714285D01*
X110600000Y-62657142D01*
X110600000Y-62171428D01*
X111200000Y-62771428D02*
X110857142Y-62771428D01*
X111028571Y-62771428D02*
X111028571Y-62171428D01*
X110971428Y-62257142D01*
X110914285Y-62314285D01*
X110857142Y-62342857D01*
X111542857Y-62428571D02*
X111485714Y-62400000D01*
X111457142Y-62371428D01*
X111428571Y-62314285D01*
X111428571Y-62285714D01*
X111457142Y-62228571D01*
X111485714Y-62200000D01*
X111542857Y-62171428D01*
X111657142Y-62171428D01*
X111714285Y-62200000D01*
X111742857Y-62228571D01*
X111771428Y-62285714D01*
X111771428Y-62314285D01*
X111742857Y-62371428D01*
X111714285Y-62400000D01*
X111657142Y-62428571D01*
X111542857Y-62428571D01*
X111485714Y-62457142D01*
X111457142Y-62485714D01*
X111428571Y-62542857D01*
X111428571Y-62657142D01*
X111457142Y-62714285D01*
X111485714Y-62742857D01*
X111542857Y-62771428D01*
X111657142Y-62771428D01*
X111714285Y-62742857D01*
X111742857Y-62714285D01*
X111771428Y-62657142D01*
X111771428Y-62542857D01*
X111742857Y-62485714D01*
X111714285Y-62457142D01*
X111657142Y-62428571D01*
G04 #@! TO.C,U10*
X144257142Y-126571428D02*
X144257142Y-127057142D01*
X144285714Y-127114285D01*
X144314285Y-127142857D01*
X144371428Y-127171428D01*
X144485714Y-127171428D01*
X144542857Y-127142857D01*
X144571428Y-127114285D01*
X144600000Y-127057142D01*
X144600000Y-126571428D01*
X145200000Y-127171428D02*
X144857142Y-127171428D01*
X145028571Y-127171428D02*
X145028571Y-126571428D01*
X144971428Y-126657142D01*
X144914285Y-126714285D01*
X144857142Y-126742857D01*
X145571428Y-126571428D02*
X145628571Y-126571428D01*
X145685714Y-126600000D01*
X145714285Y-126628571D01*
X145742857Y-126685714D01*
X145771428Y-126800000D01*
X145771428Y-126942857D01*
X145742857Y-127057142D01*
X145714285Y-127114285D01*
X145685714Y-127142857D01*
X145628571Y-127171428D01*
X145571428Y-127171428D01*
X145514285Y-127142857D01*
X145485714Y-127114285D01*
X145457142Y-127057142D01*
X145428571Y-126942857D01*
X145428571Y-126800000D01*
X145457142Y-126685714D01*
X145485714Y-126628571D01*
X145514285Y-126600000D01*
X145571428Y-126571428D01*
G04 #@! TO.C,FB1*
X139500000Y-122757142D02*
X139300000Y-122757142D01*
X139300000Y-123071428D02*
X139300000Y-122471428D01*
X139585714Y-122471428D01*
X140014285Y-122757142D02*
X140100000Y-122785714D01*
X140128571Y-122814285D01*
X140157142Y-122871428D01*
X140157142Y-122957142D01*
X140128571Y-123014285D01*
X140100000Y-123042857D01*
X140042857Y-123071428D01*
X139814285Y-123071428D01*
X139814285Y-122471428D01*
X140014285Y-122471428D01*
X140071428Y-122500000D01*
X140100000Y-122528571D01*
X140128571Y-122585714D01*
X140128571Y-122642857D01*
X140100000Y-122700000D01*
X140071428Y-122728571D01*
X140014285Y-122757142D01*
X139814285Y-122757142D01*
X140728571Y-123071428D02*
X140385714Y-123071428D01*
X140557142Y-123071428D02*
X140557142Y-122471428D01*
X140500000Y-122557142D01*
X140442857Y-122614285D01*
X140385714Y-122642857D01*
G04 #@! TO.C,R56*
X128114285Y-113271428D02*
X127914285Y-112985714D01*
X127771428Y-113271428D02*
X127771428Y-112671428D01*
X128000000Y-112671428D01*
X128057142Y-112700000D01*
X128085714Y-112728571D01*
X128114285Y-112785714D01*
X128114285Y-112871428D01*
X128085714Y-112928571D01*
X128057142Y-112957142D01*
X128000000Y-112985714D01*
X127771428Y-112985714D01*
X128657142Y-112671428D02*
X128371428Y-112671428D01*
X128342857Y-112957142D01*
X128371428Y-112928571D01*
X128428571Y-112900000D01*
X128571428Y-112900000D01*
X128628571Y-112928571D01*
X128657142Y-112957142D01*
X128685714Y-113014285D01*
X128685714Y-113157142D01*
X128657142Y-113214285D01*
X128628571Y-113242857D01*
X128571428Y-113271428D01*
X128428571Y-113271428D01*
X128371428Y-113242857D01*
X128342857Y-113214285D01*
X129200000Y-112671428D02*
X129085714Y-112671428D01*
X129028571Y-112700000D01*
X129000000Y-112728571D01*
X128942857Y-112814285D01*
X128914285Y-112928571D01*
X128914285Y-113157142D01*
X128942857Y-113214285D01*
X128971428Y-113242857D01*
X129028571Y-113271428D01*
X129142857Y-113271428D01*
X129200000Y-113242857D01*
X129228571Y-113214285D01*
X129257142Y-113157142D01*
X129257142Y-113014285D01*
X129228571Y-112957142D01*
X129200000Y-112928571D01*
X129142857Y-112900000D01*
X129028571Y-112900000D01*
X128971428Y-112928571D01*
X128942857Y-112957142D01*
X128914285Y-113014285D01*
G04 #@! TO.C,R55*
X138614285Y-128771428D02*
X138414285Y-128485714D01*
X138271428Y-128771428D02*
X138271428Y-128171428D01*
X138500000Y-128171428D01*
X138557142Y-128200000D01*
X138585714Y-128228571D01*
X138614285Y-128285714D01*
X138614285Y-128371428D01*
X138585714Y-128428571D01*
X138557142Y-128457142D01*
X138500000Y-128485714D01*
X138271428Y-128485714D01*
X139157142Y-128171428D02*
X138871428Y-128171428D01*
X138842857Y-128457142D01*
X138871428Y-128428571D01*
X138928571Y-128400000D01*
X139071428Y-128400000D01*
X139128571Y-128428571D01*
X139157142Y-128457142D01*
X139185714Y-128514285D01*
X139185714Y-128657142D01*
X139157142Y-128714285D01*
X139128571Y-128742857D01*
X139071428Y-128771428D01*
X138928571Y-128771428D01*
X138871428Y-128742857D01*
X138842857Y-128714285D01*
X139728571Y-128171428D02*
X139442857Y-128171428D01*
X139414285Y-128457142D01*
X139442857Y-128428571D01*
X139500000Y-128400000D01*
X139642857Y-128400000D01*
X139700000Y-128428571D01*
X139728571Y-128457142D01*
X139757142Y-128514285D01*
X139757142Y-128657142D01*
X139728571Y-128714285D01*
X139700000Y-128742857D01*
X139642857Y-128771428D01*
X139500000Y-128771428D01*
X139442857Y-128742857D01*
X139414285Y-128714285D01*
G04 #@! TO.C,Q11*
X126157142Y-115828571D02*
X126100000Y-115800000D01*
X126042857Y-115742857D01*
X125957142Y-115657142D01*
X125900000Y-115628571D01*
X125842857Y-115628571D01*
X125871428Y-115771428D02*
X125814285Y-115742857D01*
X125757142Y-115685714D01*
X125728571Y-115571428D01*
X125728571Y-115371428D01*
X125757142Y-115257142D01*
X125814285Y-115200000D01*
X125871428Y-115171428D01*
X125985714Y-115171428D01*
X126042857Y-115200000D01*
X126100000Y-115257142D01*
X126128571Y-115371428D01*
X126128571Y-115571428D01*
X126100000Y-115685714D01*
X126042857Y-115742857D01*
X125985714Y-115771428D01*
X125871428Y-115771428D01*
X126700000Y-115771428D02*
X126357142Y-115771428D01*
X126528571Y-115771428D02*
X126528571Y-115171428D01*
X126471428Y-115257142D01*
X126414285Y-115314285D01*
X126357142Y-115342857D01*
X127271428Y-115771428D02*
X126928571Y-115771428D01*
X127100000Y-115771428D02*
X127100000Y-115171428D01*
X127042857Y-115257142D01*
X126985714Y-115314285D01*
X126928571Y-115342857D01*
G04 #@! TO.C,Q10*
X136157142Y-129828571D02*
X136100000Y-129800000D01*
X136042857Y-129742857D01*
X135957142Y-129657142D01*
X135900000Y-129628571D01*
X135842857Y-129628571D01*
X135871428Y-129771428D02*
X135814285Y-129742857D01*
X135757142Y-129685714D01*
X135728571Y-129571428D01*
X135728571Y-129371428D01*
X135757142Y-129257142D01*
X135814285Y-129200000D01*
X135871428Y-129171428D01*
X135985714Y-129171428D01*
X136042857Y-129200000D01*
X136100000Y-129257142D01*
X136128571Y-129371428D01*
X136128571Y-129571428D01*
X136100000Y-129685714D01*
X136042857Y-129742857D01*
X135985714Y-129771428D01*
X135871428Y-129771428D01*
X136700000Y-129771428D02*
X136357142Y-129771428D01*
X136528571Y-129771428D02*
X136528571Y-129171428D01*
X136471428Y-129257142D01*
X136414285Y-129314285D01*
X136357142Y-129342857D01*
X137071428Y-129171428D02*
X137128571Y-129171428D01*
X137185714Y-129200000D01*
X137214285Y-129228571D01*
X137242857Y-129285714D01*
X137271428Y-129400000D01*
X137271428Y-129542857D01*
X137242857Y-129657142D01*
X137214285Y-129714285D01*
X137185714Y-129742857D01*
X137128571Y-129771428D01*
X137071428Y-129771428D01*
X137014285Y-129742857D01*
X136985714Y-129714285D01*
X136957142Y-129657142D01*
X136928571Y-129542857D01*
X136928571Y-129400000D01*
X136957142Y-129285714D01*
X136985714Y-129228571D01*
X137014285Y-129200000D01*
X137071428Y-129171428D01*
G04 #@! TO.C,Q6*
X132742857Y-113828571D02*
X132685714Y-113800000D01*
X132628571Y-113742857D01*
X132542857Y-113657142D01*
X132485714Y-113628571D01*
X132428571Y-113628571D01*
X132457142Y-113771428D02*
X132400000Y-113742857D01*
X132342857Y-113685714D01*
X132314285Y-113571428D01*
X132314285Y-113371428D01*
X132342857Y-113257142D01*
X132400000Y-113200000D01*
X132457142Y-113171428D01*
X132571428Y-113171428D01*
X132628571Y-113200000D01*
X132685714Y-113257142D01*
X132714285Y-113371428D01*
X132714285Y-113571428D01*
X132685714Y-113685714D01*
X132628571Y-113742857D01*
X132571428Y-113771428D01*
X132457142Y-113771428D01*
X133228571Y-113171428D02*
X133114285Y-113171428D01*
X133057142Y-113200000D01*
X133028571Y-113228571D01*
X132971428Y-113314285D01*
X132942857Y-113428571D01*
X132942857Y-113657142D01*
X132971428Y-113714285D01*
X133000000Y-113742857D01*
X133057142Y-113771428D01*
X133171428Y-113771428D01*
X133228571Y-113742857D01*
X133257142Y-113714285D01*
X133285714Y-113657142D01*
X133285714Y-113514285D01*
X133257142Y-113457142D01*
X133228571Y-113428571D01*
X133171428Y-113400000D01*
X133057142Y-113400000D01*
X133000000Y-113428571D01*
X132971428Y-113457142D01*
X132942857Y-113514285D01*
G04 #@! TO.C,D10*
X132671428Y-121071428D02*
X132671428Y-120471428D01*
X132814285Y-120471428D01*
X132900000Y-120500000D01*
X132957142Y-120557142D01*
X132985714Y-120614285D01*
X133014285Y-120728571D01*
X133014285Y-120814285D01*
X132985714Y-120928571D01*
X132957142Y-120985714D01*
X132900000Y-121042857D01*
X132814285Y-121071428D01*
X132671428Y-121071428D01*
X133585714Y-121071428D02*
X133242857Y-121071428D01*
X133414285Y-121071428D02*
X133414285Y-120471428D01*
X133357142Y-120557142D01*
X133300000Y-120614285D01*
X133242857Y-120642857D01*
X133957142Y-120471428D02*
X134014285Y-120471428D01*
X134071428Y-120500000D01*
X134100000Y-120528571D01*
X134128571Y-120585714D01*
X134157142Y-120700000D01*
X134157142Y-120842857D01*
X134128571Y-120957142D01*
X134100000Y-121014285D01*
X134071428Y-121042857D01*
X134014285Y-121071428D01*
X133957142Y-121071428D01*
X133900000Y-121042857D01*
X133871428Y-121014285D01*
X133842857Y-120957142D01*
X133814285Y-120842857D01*
X133814285Y-120700000D01*
X133842857Y-120585714D01*
X133871428Y-120528571D01*
X133900000Y-120500000D01*
X133957142Y-120471428D01*
G04 #@! TO.C,Q7*
X137828571Y-116057142D02*
X137800000Y-116114285D01*
X137742857Y-116171428D01*
X137657142Y-116257142D01*
X137628571Y-116314285D01*
X137628571Y-116371428D01*
X137771428Y-116342857D02*
X137742857Y-116400000D01*
X137685714Y-116457142D01*
X137571428Y-116485714D01*
X137371428Y-116485714D01*
X137257142Y-116457142D01*
X137200000Y-116400000D01*
X137171428Y-116342857D01*
X137171428Y-116228571D01*
X137200000Y-116171428D01*
X137257142Y-116114285D01*
X137371428Y-116085714D01*
X137571428Y-116085714D01*
X137685714Y-116114285D01*
X137742857Y-116171428D01*
X137771428Y-116228571D01*
X137771428Y-116342857D01*
X137171428Y-115885714D02*
X137171428Y-115485714D01*
X137771428Y-115742857D01*
G04 #@! TO.C,D11*
X139771428Y-114571428D02*
X139771428Y-113971428D01*
X139914285Y-113971428D01*
X140000000Y-114000000D01*
X140057142Y-114057142D01*
X140085714Y-114114285D01*
X140114285Y-114228571D01*
X140114285Y-114314285D01*
X140085714Y-114428571D01*
X140057142Y-114485714D01*
X140000000Y-114542857D01*
X139914285Y-114571428D01*
X139771428Y-114571428D01*
X140685714Y-114571428D02*
X140342857Y-114571428D01*
X140514285Y-114571428D02*
X140514285Y-113971428D01*
X140457142Y-114057142D01*
X140400000Y-114114285D01*
X140342857Y-114142857D01*
X141257142Y-114571428D02*
X140914285Y-114571428D01*
X141085714Y-114571428D02*
X141085714Y-113971428D01*
X141028571Y-114057142D01*
X140971428Y-114114285D01*
X140914285Y-114142857D01*
G04 #@! TO.C,Q8*
X145142857Y-118128571D02*
X145085714Y-118100000D01*
X145028571Y-118042857D01*
X144942857Y-117957142D01*
X144885714Y-117928571D01*
X144828571Y-117928571D01*
X144857142Y-118071428D02*
X144800000Y-118042857D01*
X144742857Y-117985714D01*
X144714285Y-117871428D01*
X144714285Y-117671428D01*
X144742857Y-117557142D01*
X144800000Y-117500000D01*
X144857142Y-117471428D01*
X144971428Y-117471428D01*
X145028571Y-117500000D01*
X145085714Y-117557142D01*
X145114285Y-117671428D01*
X145114285Y-117871428D01*
X145085714Y-117985714D01*
X145028571Y-118042857D01*
X144971428Y-118071428D01*
X144857142Y-118071428D01*
X145457142Y-117728571D02*
X145400000Y-117700000D01*
X145371428Y-117671428D01*
X145342857Y-117614285D01*
X145342857Y-117585714D01*
X145371428Y-117528571D01*
X145400000Y-117500000D01*
X145457142Y-117471428D01*
X145571428Y-117471428D01*
X145628571Y-117500000D01*
X145657142Y-117528571D01*
X145685714Y-117585714D01*
X145685714Y-117614285D01*
X145657142Y-117671428D01*
X145628571Y-117700000D01*
X145571428Y-117728571D01*
X145457142Y-117728571D01*
X145400000Y-117757142D01*
X145371428Y-117785714D01*
X145342857Y-117842857D01*
X145342857Y-117957142D01*
X145371428Y-118014285D01*
X145400000Y-118042857D01*
X145457142Y-118071428D01*
X145571428Y-118071428D01*
X145628571Y-118042857D01*
X145657142Y-118014285D01*
X145685714Y-117957142D01*
X145685714Y-117842857D01*
X145657142Y-117785714D01*
X145628571Y-117757142D01*
X145571428Y-117728571D01*
G04 #@! TO.C,FB20*
X168457142Y-84285714D02*
X168457142Y-84485714D01*
X168771428Y-84485714D02*
X168171428Y-84485714D01*
X168171428Y-84200000D01*
X168457142Y-83771428D02*
X168485714Y-83685714D01*
X168514285Y-83657142D01*
X168571428Y-83628571D01*
X168657142Y-83628571D01*
X168714285Y-83657142D01*
X168742857Y-83685714D01*
X168771428Y-83742857D01*
X168771428Y-83971428D01*
X168171428Y-83971428D01*
X168171428Y-83771428D01*
X168200000Y-83714285D01*
X168228571Y-83685714D01*
X168285714Y-83657142D01*
X168342857Y-83657142D01*
X168400000Y-83685714D01*
X168428571Y-83714285D01*
X168457142Y-83771428D01*
X168457142Y-83971428D01*
X168228571Y-83400000D02*
X168200000Y-83371428D01*
X168171428Y-83314285D01*
X168171428Y-83171428D01*
X168200000Y-83114285D01*
X168228571Y-83085714D01*
X168285714Y-83057142D01*
X168342857Y-83057142D01*
X168428571Y-83085714D01*
X168771428Y-83428571D01*
X168771428Y-83057142D01*
X168171428Y-82685714D02*
X168171428Y-82628571D01*
X168200000Y-82571428D01*
X168228571Y-82542857D01*
X168285714Y-82514285D01*
X168400000Y-82485714D01*
X168542857Y-82485714D01*
X168657142Y-82514285D01*
X168714285Y-82542857D01*
X168742857Y-82571428D01*
X168771428Y-82628571D01*
X168771428Y-82685714D01*
X168742857Y-82742857D01*
X168714285Y-82771428D01*
X168657142Y-82800000D01*
X168542857Y-82828571D01*
X168400000Y-82828571D01*
X168285714Y-82800000D01*
X168228571Y-82771428D01*
X168200000Y-82742857D01*
X168171428Y-82685714D01*
G04 #@! TO.C,FB21*
X169957142Y-84285714D02*
X169957142Y-84485714D01*
X170271428Y-84485714D02*
X169671428Y-84485714D01*
X169671428Y-84200000D01*
X169957142Y-83771428D02*
X169985714Y-83685714D01*
X170014285Y-83657142D01*
X170071428Y-83628571D01*
X170157142Y-83628571D01*
X170214285Y-83657142D01*
X170242857Y-83685714D01*
X170271428Y-83742857D01*
X170271428Y-83971428D01*
X169671428Y-83971428D01*
X169671428Y-83771428D01*
X169700000Y-83714285D01*
X169728571Y-83685714D01*
X169785714Y-83657142D01*
X169842857Y-83657142D01*
X169900000Y-83685714D01*
X169928571Y-83714285D01*
X169957142Y-83771428D01*
X169957142Y-83971428D01*
X169728571Y-83400000D02*
X169700000Y-83371428D01*
X169671428Y-83314285D01*
X169671428Y-83171428D01*
X169700000Y-83114285D01*
X169728571Y-83085714D01*
X169785714Y-83057142D01*
X169842857Y-83057142D01*
X169928571Y-83085714D01*
X170271428Y-83428571D01*
X170271428Y-83057142D01*
X170271428Y-82485714D02*
X170271428Y-82828571D01*
X170271428Y-82657142D02*
X169671428Y-82657142D01*
X169757142Y-82714285D01*
X169814285Y-82771428D01*
X169842857Y-82828571D01*
G04 #@! TO.C,FB19*
X166957142Y-84285714D02*
X166957142Y-84485714D01*
X167271428Y-84485714D02*
X166671428Y-84485714D01*
X166671428Y-84200000D01*
X166957142Y-83771428D02*
X166985714Y-83685714D01*
X167014285Y-83657142D01*
X167071428Y-83628571D01*
X167157142Y-83628571D01*
X167214285Y-83657142D01*
X167242857Y-83685714D01*
X167271428Y-83742857D01*
X167271428Y-83971428D01*
X166671428Y-83971428D01*
X166671428Y-83771428D01*
X166700000Y-83714285D01*
X166728571Y-83685714D01*
X166785714Y-83657142D01*
X166842857Y-83657142D01*
X166900000Y-83685714D01*
X166928571Y-83714285D01*
X166957142Y-83771428D01*
X166957142Y-83971428D01*
X167271428Y-83057142D02*
X167271428Y-83400000D01*
X167271428Y-83228571D02*
X166671428Y-83228571D01*
X166757142Y-83285714D01*
X166814285Y-83342857D01*
X166842857Y-83400000D01*
X167271428Y-82771428D02*
X167271428Y-82657142D01*
X167242857Y-82600000D01*
X167214285Y-82571428D01*
X167128571Y-82514285D01*
X167014285Y-82485714D01*
X166785714Y-82485714D01*
X166728571Y-82514285D01*
X166700000Y-82542857D01*
X166671428Y-82600000D01*
X166671428Y-82714285D01*
X166700000Y-82771428D01*
X166728571Y-82800000D01*
X166785714Y-82828571D01*
X166928571Y-82828571D01*
X166985714Y-82800000D01*
X167014285Y-82771428D01*
X167042857Y-82714285D01*
X167042857Y-82600000D01*
X167014285Y-82542857D01*
X166985714Y-82514285D01*
X166928571Y-82485714D01*
G04 #@! TO.C,D5*
X166211142Y-63696428D02*
X166211142Y-63096428D01*
X166354000Y-63096428D01*
X166439714Y-63125000D01*
X166496857Y-63182142D01*
X166525428Y-63239285D01*
X166554000Y-63353571D01*
X166554000Y-63439285D01*
X166525428Y-63553571D01*
X166496857Y-63610714D01*
X166439714Y-63667857D01*
X166354000Y-63696428D01*
X166211142Y-63696428D01*
X167096857Y-63096428D02*
X166811142Y-63096428D01*
X166782571Y-63382142D01*
X166811142Y-63353571D01*
X166868285Y-63325000D01*
X167011142Y-63325000D01*
X167068285Y-63353571D01*
X167096857Y-63382142D01*
X167125428Y-63439285D01*
X167125428Y-63582142D01*
X167096857Y-63639285D01*
X167068285Y-63667857D01*
X167011142Y-63696428D01*
X166868285Y-63696428D01*
X166811142Y-63667857D01*
X166782571Y-63639285D01*
G04 #@! TO.C,D6*
X161047142Y-63711428D02*
X161047142Y-63111428D01*
X161190000Y-63111428D01*
X161275714Y-63140000D01*
X161332857Y-63197142D01*
X161361428Y-63254285D01*
X161390000Y-63368571D01*
X161390000Y-63454285D01*
X161361428Y-63568571D01*
X161332857Y-63625714D01*
X161275714Y-63682857D01*
X161190000Y-63711428D01*
X161047142Y-63711428D01*
X161904285Y-63111428D02*
X161790000Y-63111428D01*
X161732857Y-63140000D01*
X161704285Y-63168571D01*
X161647142Y-63254285D01*
X161618571Y-63368571D01*
X161618571Y-63597142D01*
X161647142Y-63654285D01*
X161675714Y-63682857D01*
X161732857Y-63711428D01*
X161847142Y-63711428D01*
X161904285Y-63682857D01*
X161932857Y-63654285D01*
X161961428Y-63597142D01*
X161961428Y-63454285D01*
X161932857Y-63397142D01*
X161904285Y-63368571D01*
X161847142Y-63340000D01*
X161732857Y-63340000D01*
X161675714Y-63368571D01*
X161647142Y-63397142D01*
X161618571Y-63454285D01*
G04 #@! TO.C,FB12*
X149714285Y-119957142D02*
X149514285Y-119957142D01*
X149514285Y-120271428D02*
X149514285Y-119671428D01*
X149800000Y-119671428D01*
X150228571Y-119957142D02*
X150314285Y-119985714D01*
X150342857Y-120014285D01*
X150371428Y-120071428D01*
X150371428Y-120157142D01*
X150342857Y-120214285D01*
X150314285Y-120242857D01*
X150257142Y-120271428D01*
X150028571Y-120271428D01*
X150028571Y-119671428D01*
X150228571Y-119671428D01*
X150285714Y-119700000D01*
X150314285Y-119728571D01*
X150342857Y-119785714D01*
X150342857Y-119842857D01*
X150314285Y-119900000D01*
X150285714Y-119928571D01*
X150228571Y-119957142D01*
X150028571Y-119957142D01*
X150942857Y-120271428D02*
X150600000Y-120271428D01*
X150771428Y-120271428D02*
X150771428Y-119671428D01*
X150714285Y-119757142D01*
X150657142Y-119814285D01*
X150600000Y-119842857D01*
X151171428Y-119728571D02*
X151200000Y-119700000D01*
X151257142Y-119671428D01*
X151400000Y-119671428D01*
X151457142Y-119700000D01*
X151485714Y-119728571D01*
X151514285Y-119785714D01*
X151514285Y-119842857D01*
X151485714Y-119928571D01*
X151142857Y-120271428D01*
X151514285Y-120271428D01*
G04 #@! TO.C,U11*
X153757142Y-126571428D02*
X153757142Y-127057142D01*
X153785714Y-127114285D01*
X153814285Y-127142857D01*
X153871428Y-127171428D01*
X153985714Y-127171428D01*
X154042857Y-127142857D01*
X154071428Y-127114285D01*
X154100000Y-127057142D01*
X154100000Y-126571428D01*
X154700000Y-127171428D02*
X154357142Y-127171428D01*
X154528571Y-127171428D02*
X154528571Y-126571428D01*
X154471428Y-126657142D01*
X154414285Y-126714285D01*
X154357142Y-126742857D01*
X155271428Y-127171428D02*
X154928571Y-127171428D01*
X155100000Y-127171428D02*
X155100000Y-126571428D01*
X155042857Y-126657142D01*
X154985714Y-126714285D01*
X154928571Y-126742857D01*
G04 #@! TO.C,Q2*
X152942857Y-108528571D02*
X152885714Y-108500000D01*
X152828571Y-108442857D01*
X152742857Y-108357142D01*
X152685714Y-108328571D01*
X152628571Y-108328571D01*
X152657142Y-108471428D02*
X152600000Y-108442857D01*
X152542857Y-108385714D01*
X152514285Y-108271428D01*
X152514285Y-108071428D01*
X152542857Y-107957142D01*
X152600000Y-107900000D01*
X152657142Y-107871428D01*
X152771428Y-107871428D01*
X152828571Y-107900000D01*
X152885714Y-107957142D01*
X152914285Y-108071428D01*
X152914285Y-108271428D01*
X152885714Y-108385714D01*
X152828571Y-108442857D01*
X152771428Y-108471428D01*
X152657142Y-108471428D01*
X153142857Y-107928571D02*
X153171428Y-107900000D01*
X153228571Y-107871428D01*
X153371428Y-107871428D01*
X153428571Y-107900000D01*
X153457142Y-107928571D01*
X153485714Y-107985714D01*
X153485714Y-108042857D01*
X153457142Y-108128571D01*
X153114285Y-108471428D01*
X153485714Y-108471428D01*
G04 #@! TO.C,U7*
X159042857Y-107771428D02*
X159042857Y-108257142D01*
X159071428Y-108314285D01*
X159100000Y-108342857D01*
X159157142Y-108371428D01*
X159271428Y-108371428D01*
X159328571Y-108342857D01*
X159357142Y-108314285D01*
X159385714Y-108257142D01*
X159385714Y-107771428D01*
X159614285Y-107771428D02*
X160014285Y-107771428D01*
X159757142Y-108371428D01*
G04 #@! TO.C,U8*
X141642857Y-72571428D02*
X141642857Y-73057142D01*
X141671428Y-73114285D01*
X141700000Y-73142857D01*
X141757142Y-73171428D01*
X141871428Y-73171428D01*
X141928571Y-73142857D01*
X141957142Y-73114285D01*
X141985714Y-73057142D01*
X141985714Y-72571428D01*
X142357142Y-72828571D02*
X142300000Y-72800000D01*
X142271428Y-72771428D01*
X142242857Y-72714285D01*
X142242857Y-72685714D01*
X142271428Y-72628571D01*
X142300000Y-72600000D01*
X142357142Y-72571428D01*
X142471428Y-72571428D01*
X142528571Y-72600000D01*
X142557142Y-72628571D01*
X142585714Y-72685714D01*
X142585714Y-72714285D01*
X142557142Y-72771428D01*
X142528571Y-72800000D01*
X142471428Y-72828571D01*
X142357142Y-72828571D01*
X142300000Y-72857142D01*
X142271428Y-72885714D01*
X142242857Y-72942857D01*
X142242857Y-73057142D01*
X142271428Y-73114285D01*
X142300000Y-73142857D01*
X142357142Y-73171428D01*
X142471428Y-73171428D01*
X142528571Y-73142857D01*
X142557142Y-73114285D01*
X142585714Y-73057142D01*
X142585714Y-72942857D01*
X142557142Y-72885714D01*
X142528571Y-72857142D01*
X142471428Y-72828571D01*
G04 #@! TO.C,Q1*
X158742857Y-72428571D02*
X158685714Y-72400000D01*
X158628571Y-72342857D01*
X158542857Y-72257142D01*
X158485714Y-72228571D01*
X158428571Y-72228571D01*
X158457142Y-72371428D02*
X158400000Y-72342857D01*
X158342857Y-72285714D01*
X158314285Y-72171428D01*
X158314285Y-71971428D01*
X158342857Y-71857142D01*
X158400000Y-71800000D01*
X158457142Y-71771428D01*
X158571428Y-71771428D01*
X158628571Y-71800000D01*
X158685714Y-71857142D01*
X158714285Y-71971428D01*
X158714285Y-72171428D01*
X158685714Y-72285714D01*
X158628571Y-72342857D01*
X158571428Y-72371428D01*
X158457142Y-72371428D01*
X159285714Y-72371428D02*
X158942857Y-72371428D01*
X159114285Y-72371428D02*
X159114285Y-71771428D01*
X159057142Y-71857142D01*
X159000000Y-71914285D01*
X158942857Y-71942857D01*
G04 #@! TD*
M02*
